<svg width="365" height="369" viewBox="0 0 365 369" fill="none" xmlns="http://www.w3.org/2000/svg">
<path d="M297.144 92.2471C297.077 92.211 297.089 92.0585 297.064 91.9727L297.01 91.6254C296.971 91.4882 296.903 91.3501 296.852 91.2069C288.476 59.9277 268.063 33.3769 240.102 17.3953C212.141 1.41369 178.923 -2.68959 147.756 5.98811C116.59 14.6658 90.0266 35.4137 73.911 63.6674C57.7954 91.9212 53.4472 125.366 61.823 156.646L62.0623 156.574C67.5322 172.184 122.973 170.775 187.097 153.239C251.222 135.703 300.012 108.563 297.144 92.2471Z" stroke="#313B36" stroke-width="2" stroke-miterlimit="10"/>
<path d="M182.916 268.957C251.299 267.811 306.65 253.12 306.546 236.143C306.442 219.167 250.922 206.333 182.539 207.479C114.156 208.625 60.2176 221.357 60.3219 238.333C60.4261 255.31 114.533 270.103 182.916 268.957Z" fill="#6A5D54" stroke="#313B36" stroke-width="2" stroke-miterlimit="10"/>
<path fill-rule="evenodd" clip-rule="evenodd" d="M275.24 105.255V83.7468C275.24 80.1525 274.161 78.9434 273.806 78.5717C272.284 76.8686 269.4 76.4311 267.207 76.591H266.709H266.685C263.129 76.591 260.656 77.7296 259.375 79.9737C258.749 81.1206 258.378 85.1069 258.297 86.4717L248.158 86.5658C248.211 83.8438 248.736 78.4226 249.678 75.9931C250.454 73.9929 251.513 72.1448 252.824 70.5361C256.159 66.5513 260.806 64.5235 266.654 64.5141C269.372 64.3212 276.054 64.4765 280.764 69.7504C282.878 72.1028 285.391 76.4593 285.391 83.7468L285.381 105.246L289.716 105.242L279.862 119.279L270.707 105.259L275.24 105.255Z" fill="#313B36"/>
<rect x="96.5542" y="87.4717" width="162.665" height="106.453" rx="3" fill="#EDE9E1" fill-opacity="0.8" stroke="#313B36" stroke-width="2"/>
<path d="M99.458 94.863H256.551" stroke="#313B36" stroke-width="2" stroke-linecap="round"/>
<path d="M183.581 182.298L184.278 187.119C184.33 187.328 184.36 187.541 184.369 187.755C184.466 190.037 182.063 191.972 179 192.079C175.938 192.186 173.379 190.423 173.282 188.141C173.277 188.005 173.28 187.869 173.291 187.733L173.266 187.756L173.64 182.801C173.645 182.737 173.669 182.675 173.709 182.621C173.749 182.567 173.804 182.522 173.869 182.492C173.934 182.461 174.007 182.445 174.081 182.446C174.155 182.446 174.227 182.463 174.291 182.495L177.3 183.988C177.742 183.889 178.195 183.831 178.651 183.816C179.078 183.801 179.505 183.823 179.926 183.882L182.655 181.975C182.734 181.918 182.829 181.881 182.93 181.867C183.031 181.853 183.135 181.864 183.229 181.897C183.324 181.93 183.407 181.985 183.469 182.055C183.531 182.126 183.569 182.21 183.581 182.298Z" fill="#313B36"/>
<path d="M177.661 185.408C178.103 185.6 178.843 185.977 179.193 186.177L178.734 186.826C178.356 186.615 177.657 186.254 177.214 186.056L177.661 185.408ZM176.618 189.529C177.349 189.394 178.122 189.172 178.824 188.802C179.918 188.217 180.804 187.398 181.289 186.559L181.828 187.322C181.257 188.142 180.355 188.898 179.307 189.481C178.65 189.832 177.716 190.152 177.142 190.264L176.618 189.529ZM176.704 186.753C177.153 186.944 177.892 187.31 178.243 187.51L177.784 188.171C177.406 187.954 176.707 187.593 176.258 187.401L176.704 186.753Z" fill="#EDE9E1"/>
<path d="M110.941 90.9689C110.942 91.2123 110.864 91.4505 110.715 91.6533C110.567 91.8561 110.356 92.0145 110.109 92.1083C109.861 92.2021 109.589 92.2271 109.325 92.1802C109.062 92.1333 108.821 92.0166 108.631 91.8448C108.441 91.673 108.311 91.454 108.258 91.2153C108.206 90.9767 108.232 90.7292 108.335 90.5043C108.437 90.2793 108.611 90.087 108.833 89.9517C109.056 89.8164 109.318 89.7441 109.587 89.7441C109.945 89.7441 110.289 89.873 110.543 90.1026C110.796 90.3321 110.94 90.6437 110.941 90.9689Z" fill="#907D73"/>
<path d="M106.662 90.9689C106.662 91.2112 106.583 91.448 106.435 91.6494C106.286 91.8508 106.076 92.0078 105.829 92.1005C105.583 92.1932 105.311 92.2174 105.049 92.1702C104.788 92.1229 104.547 92.0063 104.359 91.835C104.17 91.6637 104.041 91.4454 103.989 91.2079C103.937 90.9703 103.964 90.724 104.066 90.5002C104.168 90.2764 104.341 90.0851 104.563 89.9506C104.785 89.816 105.046 89.7441 105.313 89.7441C105.671 89.7441 106.014 89.8732 106.267 90.1029C106.52 90.3326 106.662 90.6441 106.662 90.9689Z" fill="#C28145"/>
<path d="M102.391 90.9689C102.391 91.2112 102.311 91.448 102.163 91.6494C102.015 91.8508 101.804 92.0078 101.558 92.1005C101.311 92.1932 101.04 92.2174 100.778 92.1702C100.516 92.1229 100.276 92.0063 100.087 91.835C99.8984 91.6637 99.7699 91.4455 99.7178 91.2079C99.6658 90.9703 99.6925 90.724 99.7946 90.5002C99.8967 90.2764 100.07 90.0851 100.292 89.9506C100.513 89.816 100.774 89.7441 101.041 89.7441C101.399 89.7441 101.742 89.8732 101.995 90.1029C102.248 90.3326 102.391 90.6441 102.391 90.9689Z" fill="#313B36"/>
<rect x="147.695" y="209.548" width="63.4694" height="2.64766" rx="1.32383" fill="#EDE9E1" stroke="#313B36" stroke-width="2.64766"/>
<path d="M249.029 153.601L251.337 155.284L249.029 157.043" stroke="#EDE9E1" stroke-width="2" stroke-linecap="round"/>
<path d="M153.873 158.726H191.104C192.761 158.726 194.104 160.069 194.104 161.726V181.082C194.104 182.739 192.761 184.082 191.104 184.082H153.873C152.216 184.082 150.873 182.739 150.873 181.082V161.726C150.873 160.069 152.216 158.726 153.873 158.726Z" fill="#EDE9E1" stroke="#313B36" stroke-width="2"/>
<rect x="160.977" y="161.957" width="30.513" height="1.04787" rx="0.523933" fill="#C28145"/>
<rect x="160.977" y="165.1" width="14.1264" height="1.04785" rx="0.523926" fill="#C28145"/>
<path d="M155.869 166.899C157.709 166.899 159.201 165.516 159.201 163.81C159.201 162.104 157.709 160.721 155.869 160.721C154.03 160.721 152.538 162.104 152.538 163.81C152.538 165.516 154.03 166.899 155.869 166.899Z" fill="#C28145"/>
<path d="M206.477 158.726H243.708C245.365 158.726 246.708 160.069 246.708 161.726V181.082C246.708 182.739 245.365 184.082 243.708 184.082H206.477C204.82 184.082 203.477 182.739 203.477 181.082V161.726C203.477 160.069 204.82 158.726 206.477 158.726Z" fill="#EDE9E1" stroke="#313B36" stroke-width="2"/>
<rect x="213.725" y="161.394" width="29.3829" height="1.04787" rx="0.523933" fill="#907D73"/>
<rect x="213.725" y="164.537" width="13.5613" height="1.04785" rx="0.523926" fill="#907D73"/>
<path d="M208.473 166.375C210.313 166.375 211.804 164.992 211.804 163.286C211.804 161.58 210.313 160.197 208.473 160.197C206.633 160.197 205.142 161.58 205.142 163.286C205.142 164.992 206.633 166.375 208.473 166.375Z" fill="#C28145"/>
<path d="M109.189 166.109V168.729H127.823L127.845 166.109H109.189Z" fill="#907D73"/>
<path d="M109.189 172.92V175.54H141.379L141.397 172.92H109.189Z" fill="#907D73"/>
<path d="M110.094 146.749L109.649 103.068C109.639 102.057 110.202 101.244 110.907 101.253L245.818 102.874C246.527 102.883 247.107 103.718 247.111 104.734L247.261 148.425C247.265 149.429 246.703 150.231 246.003 150.223L111.386 148.591C110.682 148.583 110.104 147.758 110.094 146.749Z" fill="#D8C5A8"/>
<mask id="path-24-inside-1_1550_3539" fill="white">
<path d="M248.164 116.163C248.157 115.521 247.917 114.922 247.525 114.598C234.736 104.026 217.96 104.534 205.854 115.949C199.79 121.64 194.866 129.809 188.298 134.226C180.141 139.757 170.515 138.86 161.527 136.518C152.538 134.176 143.59 130.488 134.512 130.79C125.529 131.089 115.747 136.368 111.31 147.437C111.217 147.669 111.171 147.935 111.173 148.206C111.181 149.075 111.679 149.785 112.285 149.791L247.249 151.167C247.953 151.174 248.516 150.361 248.505 149.351L248.164 116.163ZM176.072 144.898C176.075 144.896 176.074 144.891 176.071 144.891C175.969 144.886 175.868 144.839 175.782 144.756C175.692 144.669 175.622 144.547 175.58 144.405C175.538 144.263 175.526 144.106 175.545 143.956C175.565 143.806 175.615 143.669 175.69 143.561C175.765 143.454 175.861 143.381 175.965 143.353C176.07 143.324 176.179 143.341 176.278 143.401C176.377 143.461 176.463 143.562 176.523 143.69C176.584 143.818 176.617 143.969 176.618 144.122C176.621 144.228 176.609 144.333 176.582 144.431C176.555 144.529 176.514 144.617 176.462 144.691C176.41 144.764 176.347 144.821 176.279 144.857C176.213 144.892 176.144 144.908 176.073 144.905C176.071 144.904 176.07 144.899 176.072 144.898ZM179.491 144.937C179.492 144.934 179.491 144.931 179.488 144.931C179.383 144.929 179.28 144.884 179.191 144.8C179.101 144.714 179.03 144.593 178.987 144.451C178.944 144.309 178.931 144.153 178.95 144.002C178.969 143.852 179.018 143.714 179.092 143.606C179.166 143.497 179.262 143.424 179.366 143.394C179.471 143.364 179.58 143.38 179.679 143.439C179.779 143.498 179.865 143.598 179.926 143.725C179.987 143.853 180.021 144.003 180.023 144.156C180.026 144.26 180.014 144.363 179.989 144.459C179.963 144.554 179.924 144.642 179.874 144.715C179.825 144.788 179.765 144.846 179.699 144.886C179.634 144.924 179.565 144.944 179.494 144.944C179.492 144.944 179.49 144.94 179.491 144.937ZM182.909 144.971C182.905 144.967 182.9 144.965 182.895 144.965C182.79 144.963 182.688 144.917 182.6 144.833C182.51 144.747 182.439 144.626 182.396 144.483C182.353 144.341 182.341 144.185 182.36 144.034C182.379 143.884 182.429 143.746 182.503 143.638C182.578 143.53 182.674 143.456 182.779 143.427C182.883 143.398 182.992 143.415 183.092 143.475C183.192 143.535 183.277 143.635 183.338 143.764C183.399 143.892 183.432 144.043 183.433 144.197C183.437 144.4 183.385 144.596 183.288 144.742C183.193 144.886 183.063 144.969 182.924 144.977C182.918 144.977 182.913 144.975 182.909 144.971Z"/>
</mask>
<path d="M248.164 116.163C248.157 115.521 247.917 114.922 247.525 114.598C234.736 104.026 217.96 104.534 205.854 115.949C199.79 121.64 194.866 129.809 188.298 134.226C180.141 139.757 170.515 138.86 161.527 136.518C152.538 134.176 143.59 130.488 134.512 130.79C125.529 131.089 115.747 136.368 111.31 147.437C111.217 147.669 111.171 147.935 111.173 148.206C111.181 149.075 111.679 149.785 112.285 149.791L247.249 151.167C247.953 151.174 248.516 150.361 248.505 149.351L248.164 116.163ZM176.072 144.898C176.075 144.896 176.074 144.891 176.071 144.891C175.969 144.886 175.868 144.839 175.782 144.756C175.692 144.669 175.622 144.547 175.58 144.405C175.538 144.263 175.526 144.106 175.545 143.956C175.565 143.806 175.615 143.669 175.69 143.561C175.765 143.454 175.861 143.381 175.965 143.353C176.07 143.324 176.179 143.341 176.278 143.401C176.377 143.461 176.463 143.562 176.523 143.69C176.584 143.818 176.617 143.969 176.618 144.122C176.621 144.228 176.609 144.333 176.582 144.431C176.555 144.529 176.514 144.617 176.462 144.691C176.41 144.764 176.347 144.821 176.279 144.857C176.213 144.892 176.144 144.908 176.073 144.905C176.071 144.904 176.07 144.899 176.072 144.898ZM179.491 144.937C179.492 144.934 179.491 144.931 179.488 144.931C179.383 144.929 179.28 144.884 179.191 144.8C179.101 144.714 179.03 144.593 178.987 144.451C178.944 144.309 178.931 144.153 178.95 144.002C178.969 143.852 179.018 143.714 179.092 143.606C179.166 143.497 179.262 143.424 179.366 143.394C179.471 143.364 179.58 143.38 179.679 143.439C179.779 143.498 179.865 143.598 179.926 143.725C179.987 143.853 180.021 144.003 180.023 144.156C180.026 144.26 180.014 144.363 179.989 144.459C179.963 144.554 179.924 144.642 179.874 144.715C179.825 144.788 179.765 144.846 179.699 144.886C179.634 144.924 179.565 144.944 179.494 144.944C179.492 144.944 179.49 144.94 179.491 144.937ZM182.909 144.971C182.905 144.967 182.9 144.965 182.895 144.965C182.79 144.963 182.688 144.917 182.6 144.833C182.51 144.747 182.439 144.626 182.396 144.483C182.353 144.341 182.341 144.185 182.36 144.034C182.379 143.884 182.429 143.746 182.503 143.638C182.578 143.53 182.674 143.456 182.779 143.427C182.883 143.398 182.992 143.415 183.092 143.475C183.192 143.535 183.277 143.635 183.338 143.764C183.399 143.892 183.432 144.043 183.433 144.197C183.437 144.4 183.385 144.596 183.288 144.742C183.193 144.886 183.063 144.969 182.924 144.977C182.918 144.977 182.913 144.975 182.909 144.971Z" fill="#EDE9E1"/>
<path d="M205.854 115.949L207.229 117.412L207.232 117.408L205.854 115.949ZM188.298 134.226L187.173 132.565L187.167 132.569L188.298 134.226ZM134.512 130.79L134.43 128.791L134.512 130.79ZM175.782 144.756L177.166 143.322L175.782 144.756ZM176.618 144.122L174.618 144.125L174.618 144.143L174.619 144.162L176.618 144.122ZM176.279 144.857L177.231 146.623L176.279 144.857ZM179.191 144.8L177.82 146.245L179.191 144.8ZM180.023 144.156L178.023 144.17L178.024 144.181L178.024 144.192L180.023 144.156ZM179.699 144.886L178.669 143.164L179.699 144.886ZM182.6 144.833L183.973 143.389L182.6 144.833ZM183.433 144.197L181.433 144.199L181.433 144.21L181.433 144.221L183.433 144.197ZM183.288 144.742L184.958 145.856L183.288 144.742ZM182.895 144.965L182.863 146.964L182.895 144.965ZM182.909 144.971L184.241 143.489L182.909 144.971ZM179.488 144.931L179.505 142.932L179.488 144.931ZM179.491 144.937L177.583 144.324L179.491 144.937ZM176.073 144.905L176.166 142.908L176.073 144.905ZM176.072 144.898L175.014 143.193L176.072 144.898ZM176.071 144.891L176.15 142.893L176.071 144.891ZM247.249 151.167L247.243 153.167L247.249 151.167ZM248.505 149.351L250.505 149.345L248.505 149.351ZM111.173 148.206L109.173 148.209L111.173 148.206ZM112.285 149.791L112.291 147.791L112.285 149.791ZM111.31 147.437L109.452 146.681L111.31 147.437ZM182.924 144.977L183.042 146.974L182.924 144.977ZM179.494 144.944L179.482 142.944L179.494 144.944ZM247.525 114.598L248.793 113.061L247.525 114.598ZM248.164 116.163L246.163 116.169L246.163 116.169L248.164 116.163ZM248.793 113.061C235.217 101.839 217.308 102.391 204.476 114.489L207.232 117.408C218.613 106.677 234.255 106.214 246.257 116.135L248.793 113.061ZM204.479 114.486C201.34 117.432 198.482 121.035 195.737 124.264C192.931 127.565 190.21 130.522 187.173 132.565L189.423 135.888C192.954 133.513 195.979 130.177 198.793 126.867C201.668 123.485 204.303 120.157 207.229 117.412L204.479 114.486ZM187.167 132.569C179.754 137.596 170.873 136.89 162.018 134.583L161.036 138.453C170.157 140.829 180.529 141.919 189.429 135.884L187.167 132.569ZM162.018 134.583C159.811 134.008 157.6 133.349 155.35 132.677C153.111 132.008 150.833 131.327 148.546 130.728C143.976 129.532 139.252 128.631 134.43 128.791L134.593 132.789C138.849 132.647 143.139 133.44 147.559 134.597C149.768 135.175 151.98 135.836 154.231 136.508C156.47 137.177 158.748 137.857 161.036 138.453L162.018 134.583ZM134.43 128.791C124.737 129.114 114.209 134.814 109.452 146.681L113.167 148.193C117.284 137.922 126.321 133.064 134.593 132.789L134.43 128.791ZM112.279 151.791L247.243 153.167L247.254 149.168L112.291 147.791L112.279 151.791ZM250.505 149.345L250.164 116.157L246.163 116.169L246.505 149.357L250.505 149.345ZM176.15 142.893C176.612 142.915 176.959 143.122 177.166 143.322L174.398 146.19C174.778 146.556 175.325 146.857 175.993 146.888L176.15 142.893ZM177.166 143.322C177.372 143.521 177.46 143.724 177.498 143.851L173.662 144.959C173.784 145.371 174.013 145.818 174.398 146.19L177.166 143.322ZM177.498 143.851C177.537 143.983 177.544 144.109 177.529 144.23L173.562 143.683C173.507 144.104 173.539 144.542 173.662 144.959L177.498 143.851ZM177.529 144.23C177.514 144.346 177.468 144.52 177.335 144.711L174.045 142.411C173.763 142.817 173.616 143.266 173.562 143.683L177.529 144.23ZM177.335 144.711C177.202 144.903 176.937 145.165 176.504 145.283L175.427 141.423C174.784 141.598 174.328 142.005 174.045 142.411L177.335 144.711ZM176.504 145.283C176.043 145.408 175.59 145.314 175.252 145.11L177.304 141.692C176.768 141.368 176.096 141.241 175.427 141.423L176.504 145.283ZM175.252 145.11C174.942 144.923 174.786 144.682 174.715 144.532L178.331 142.848C178.139 142.441 177.813 142 177.304 141.692L175.252 145.11ZM174.715 144.532C174.642 144.376 174.619 144.237 174.618 144.125L178.618 144.119C178.615 143.701 178.526 143.261 178.331 142.848L174.715 144.532ZM174.619 144.162C174.617 144.079 174.626 143.988 174.653 143.888L178.511 144.974C178.592 144.679 178.626 144.377 178.618 144.083L174.619 144.162ZM174.653 143.888C174.68 143.79 174.731 143.662 174.829 143.524L178.095 145.857C178.297 145.573 178.43 145.268 178.511 144.974L174.653 143.888ZM174.829 143.524C174.927 143.387 175.086 143.221 175.327 143.092L177.231 146.623C177.609 146.421 177.893 146.141 178.095 145.857L174.829 143.524ZM175.327 143.092C175.562 142.966 175.852 142.891 176.166 142.908L175.981 146.901C176.435 146.926 176.864 146.819 177.231 146.623L175.327 143.092ZM179.505 142.932C179.982 142.939 180.346 143.148 180.562 143.354L177.82 146.245C178.214 146.619 178.784 146.92 179.472 146.931L179.505 142.932ZM180.562 143.354C180.772 143.553 180.862 143.757 180.901 143.885L177.072 145.017C177.197 145.428 177.429 145.875 177.82 146.245L180.562 143.354ZM180.901 143.885C180.942 144.018 180.95 144.145 180.935 144.264L176.965 143.74C176.912 144.161 176.946 144.599 177.072 145.017L180.901 143.885ZM180.935 144.264C180.92 144.381 180.876 144.554 180.746 144.743L177.439 142.468C177.161 142.874 177.017 143.323 176.965 143.74L180.935 144.264ZM180.746 144.743C180.615 144.934 180.355 145.196 179.926 145.318L178.807 141.47C178.168 141.651 177.718 142.061 177.439 142.468L180.746 144.743ZM179.926 145.318C179.468 145.448 179.013 145.361 178.67 145.158L180.689 141.72C180.147 141.399 179.473 141.281 178.807 141.47L179.926 145.318ZM178.67 145.158C178.355 144.972 178.196 144.73 178.124 144.579L181.729 142.872C181.534 142.465 181.203 142.024 180.689 141.72L178.67 145.158ZM178.124 144.579C178.048 144.422 178.025 144.282 178.023 144.17L182.024 144.143C182.018 143.724 181.927 143.284 181.729 142.872L178.124 144.579ZM178.024 144.192C178.022 144.113 178.03 144.025 178.056 143.93L181.922 144.987C181.998 144.7 182.03 144.407 182.023 144.121L178.024 144.192ZM178.056 143.93C178.081 143.836 178.128 143.715 178.217 143.584L181.532 145.846C181.721 145.569 181.845 145.273 181.922 144.987L178.056 143.93ZM178.217 143.584C178.305 143.453 178.449 143.294 178.669 143.164L180.729 146.607C181.081 146.399 181.344 146.123 181.532 145.846L178.217 143.584ZM178.669 143.164C178.89 143.033 179.169 142.943 179.482 142.944L179.506 146.943C179.96 146.944 180.379 146.815 180.729 146.607L178.669 143.164ZM182.927 142.966C183.4 142.977 183.759 143.185 183.973 143.389L181.227 146.277C181.617 146.649 182.181 146.948 182.863 146.964L182.927 142.966ZM183.973 143.389C184.183 143.588 184.273 143.793 184.311 143.921L180.481 145.046C180.605 145.458 180.837 145.906 181.227 146.277L183.973 143.389ZM184.311 143.921C184.351 144.054 184.359 144.181 184.344 144.301L180.375 143.768C180.322 144.189 180.355 144.628 180.481 145.046L184.311 143.921ZM184.344 144.301C184.329 144.417 184.284 144.591 184.152 144.782L180.854 142.494C180.574 142.9 180.428 143.35 180.375 143.768L184.344 144.301ZM184.152 144.782C184.02 144.973 183.757 145.236 183.325 145.355L182.233 141.5C181.59 141.677 181.136 142.086 180.854 142.494L184.152 144.782ZM183.325 145.355C182.864 145.482 182.409 145.39 182.07 145.186L184.114 141.763C183.576 141.44 182.902 141.315 182.233 141.5L183.325 145.355ZM182.07 145.186C181.758 144.999 181.602 144.758 181.53 144.607L185.145 142.921C184.953 142.513 184.625 142.071 184.114 141.763L182.07 145.186ZM181.53 144.607C181.457 144.451 181.434 144.311 181.433 144.199L185.433 144.194C185.43 143.775 185.341 143.334 185.145 142.921L181.53 144.607ZM181.433 144.221C181.432 144.143 181.44 144.057 181.465 143.965C181.489 143.874 181.534 143.757 181.618 143.629L184.958 145.856C185.311 145.322 185.443 144.715 185.433 144.173L181.433 144.221ZM181.618 143.629C181.779 143.387 182.166 143.013 182.805 142.98L183.042 146.974C183.959 146.926 184.607 146.384 184.958 145.856L181.618 143.629ZM182.863 146.964C182.337 146.952 181.891 146.736 181.577 146.453L184.241 143.489C183.918 143.199 183.463 142.978 182.927 142.966L182.863 146.964ZM179.472 146.931C178.385 146.913 177.84 146.122 177.671 145.748C177.475 145.317 177.43 144.81 177.583 144.324L181.399 145.551C181.554 145.062 181.508 144.552 181.311 144.118C181.141 143.742 180.594 142.949 179.505 142.932L179.472 146.931ZM176.166 142.908C176.871 142.946 177.376 143.33 177.655 143.693C177.913 144.029 178.016 144.378 178.052 144.64C178.106 145.03 178.081 146.017 177.131 146.602L175.014 143.193C174.062 143.78 174.035 144.771 174.09 145.164C174.127 145.426 174.23 145.777 174.489 146.114C174.768 146.478 175.274 146.863 175.981 146.901L176.166 142.908ZM175.993 146.888C175.26 146.854 174.752 146.446 174.484 146.095C174.234 145.766 174.133 145.427 174.096 145.175C174.044 144.83 174.027 143.801 175.014 143.193L177.131 146.602C178.12 145.993 178.104 144.961 178.052 144.612C178.014 144.359 177.913 144.018 177.662 143.688C177.394 143.336 176.885 142.927 176.15 142.893L175.993 146.888ZM247.243 153.167C248.435 153.179 249.306 152.49 249.793 151.787C250.282 151.079 250.514 150.208 250.505 149.345L246.505 149.357C246.507 149.504 246.462 149.546 246.497 149.495C246.529 149.449 246.767 149.163 247.254 149.168L247.243 153.167ZM109.173 148.209C109.18 149.002 109.408 149.804 109.87 150.462C110.324 151.11 111.144 151.779 112.279 151.791L112.291 147.791C112.82 147.797 113.088 148.108 113.14 148.182C113.199 148.266 113.174 148.278 113.173 148.203L109.173 148.209ZM109.452 146.681C109.252 147.182 109.169 147.71 109.173 148.209L113.173 148.203C113.173 148.194 113.174 148.187 113.174 148.181C113.175 148.175 113.175 148.17 113.176 148.168C113.176 148.166 113.176 148.167 113.175 148.17C113.174 148.174 113.172 148.182 113.167 148.193L109.452 146.681ZM182.805 142.98C183.429 142.947 183.928 143.207 184.241 143.489L181.577 146.453C181.899 146.742 182.407 147.007 183.042 146.974L182.805 142.98ZM179.482 142.944C180.587 142.945 181.142 143.752 181.313 144.128C181.509 144.562 181.551 145.068 181.399 145.551L177.583 144.324C177.43 144.809 177.473 145.319 177.67 145.755C177.842 146.134 178.399 146.942 179.506 146.943L179.482 142.944ZM246.257 116.135C246.198 116.086 246.164 116.044 246.149 116.022C246.134 116 246.132 115.992 246.136 116.001C246.14 116.011 246.147 116.031 246.153 116.062C246.159 116.093 246.163 116.129 246.163 116.169L250.164 116.157C250.153 115.114 249.772 113.87 248.793 113.061L246.257 116.135Z" fill="#313B36" mask="url(#path-24-inside-1_1550_3539)"/>
<path d="M174.555 143.1C174.568 143.075 174.61 143.005 174.714 142.943L174.743 142.992M174.555 143.1L174.743 142.992M174.555 143.1C174.556 143.1 174.556 143.101 174.557 143.102M174.555 143.1L174.929 143.307M174.743 142.992L174.714 142.943C174.758 142.917 174.807 142.897 174.86 142.883M174.743 142.992L174.86 142.883M174.557 143.102L174.554 143.102C174.554 143.102 174.554 143.102 174.554 143.102L174.557 143.102M174.557 143.102C174.557 143.102 174.557 143.102 174.557 143.102M174.557 143.102L174.588 143.101L174.557 143.102M174.557 143.102C174.558 143.104 174.56 143.107 174.562 143.11L174.57 143.114L174.562 143.11C174.563 143.112 174.565 143.114 174.566 143.117C174.579 143.135 174.609 143.17 174.657 143.205C174.718 143.249 174.807 143.294 174.929 143.307M174.929 143.307L174.977 143.387M174.929 143.307L174.977 143.387M174.929 143.307C174.947 143.308 174.967 143.31 174.986 143.31C174.992 143.31 174.997 143.31 175.002 143.31M174.929 143.307L175.002 143.31M174.977 143.387L175.022 143.464M175.002 143.31L174.987 143.303L175.002 143.31C175.025 143.31 175.047 143.308 175.069 143.306L175.118 143.136L175.131 143.094M175.002 143.31L175.054 143.333L175.325 143.091M175.131 143.094L174.989 143.096L175.131 143.094ZM175.131 143.094L175.325 143.091M175.131 143.094L175.118 143.136L175.069 143.306M175.131 143.094L175.325 143.091M175.325 143.091L175.062 143.327M175.069 143.306L175.062 143.327M175.069 143.306C175.079 143.304 175.089 143.303 175.099 143.301C175.233 143.279 175.333 143.215 175.391 143.16C175.421 143.132 175.439 143.106 175.45 143.089C175.45 143.088 175.451 143.087 175.452 143.086C175.453 143.084 175.454 143.083 175.455 143.081C175.456 143.078 175.458 143.074 175.46 143.072C175.457 143.067 175.453 143.061 175.449 143.055C175.447 143.052 175.444 143.048 175.441 143.045C175.411 143.005 175.334 142.927 175.191 142.886L175.177 142.936L175.191 142.886C175.165 142.878 175.139 142.872 175.113 142.868C175.072 142.862 175.032 142.86 174.993 142.862C174.967 142.863 174.941 142.866 174.916 142.87M175.069 143.306L174.916 142.87M175.062 143.327L175.06 143.336M175.062 143.327L175.06 143.336M175.06 143.336L175.022 143.464M175.06 143.336L175.022 143.464M174.916 142.87C174.897 142.874 174.878 142.878 174.86 142.883M174.916 142.87L174.86 142.883" fill="#C28145" stroke="#907D73" stroke-width="2"/>
<path d="M178.414 143.343C178.416 143.343 178.418 143.343 178.42 143.343C178.421 143.343 178.422 143.343 178.424 143.343L178.414 143.343ZM178.414 143.343C178.412 143.343 178.41 143.343 178.408 143.343C178.389 143.343 178.369 143.341 178.351 143.339L178.414 143.343ZM177.978 143.131C177.979 143.131 177.979 143.13 177.979 143.13C177.983 143.123 177.988 143.113 177.996 143.102C177.996 143.102 177.996 143.102 177.996 143.102C178.02 143.068 178.062 143.021 178.136 142.977L178.164 143.025L178.099 143.071L178.164 143.025L178.178 143.047L178.164 143.025L178.309 142.923M177.978 143.131L178.336 142.904C178.334 142.904 178.333 142.905 178.331 142.905C178.315 142.908 178.298 142.912 178.282 142.916C178.229 142.93 178.18 142.951 178.136 142.977L178.164 143.025L178.309 142.923M177.978 143.131C177.979 143.132 177.98 143.134 177.981 143.135C177.983 143.138 177.985 143.142 177.987 143.145C177.987 143.145 177.987 143.145 177.987 143.145C177.988 143.146 177.989 143.147 177.989 143.148L177.991 143.147L177.989 143.148C178.004 143.169 178.032 143.203 178.081 143.238C178.092 143.246 178.105 143.254 178.118 143.262C178.178 143.298 178.258 143.329 178.351 143.339L177.978 143.131ZM178.309 142.923L178.329 142.909L178.309 142.923ZM178.327 143.299L178.274 143.209L178.327 143.299ZM178.327 143.299L178.408 143.336L178.327 143.299ZM178.225 143.127L178.228 143.132L178.225 143.127ZM178.225 143.127L178.212 143.105L178.225 143.127ZM178.336 142.904C178.362 142.9 178.388 142.897 178.415 142.895C178.417 142.895 178.419 142.895 178.421 142.895C178.458 142.894 178.496 142.896 178.535 142.902C178.56 142.906 178.585 142.911 178.611 142.918C178.611 142.918 178.611 142.918 178.611 142.918C178.612 142.919 178.612 142.919 178.613 142.919L178.599 142.969L178.589 143.002L178.599 142.969L178.613 142.919C178.756 142.961 178.833 143.039 178.863 143.078C178.866 143.082 178.869 143.085 178.871 143.088C178.875 143.094 178.879 143.1 178.881 143.105C178.88 143.108 178.878 143.111 178.876 143.114C178.875 143.116 178.874 143.118 178.873 143.119C178.873 143.12 178.873 143.121 178.872 143.122C178.872 143.122 178.872 143.122 178.872 143.122C178.861 143.14 178.843 143.165 178.813 143.193C178.755 143.248 178.655 143.312 178.521 143.335C178.521 143.335 178.521 143.335 178.521 143.335C178.511 143.336 178.501 143.338 178.491 143.339L178.54 143.169L178.491 143.339C178.469 143.341 178.447 143.343 178.424 143.343L178.336 142.904ZM178.482 143.369L178.484 143.36L178.482 143.369ZM178.421 142.844L178.415 142.848L178.421 142.844ZM177.968 143.11L177.968 143.11C177.968 143.11 177.968 143.11 177.968 143.11ZM178.444 143.498L178.399 143.421L178.444 143.498Z" fill="#C28145" stroke="#907D73" stroke-width="2"/>
<path d="M181.841 143.377C181.843 143.377 181.844 143.377 181.846 143.377C181.846 143.377 181.846 143.377 181.847 143.377C181.872 143.377 181.895 143.375 181.918 143.372L181.841 143.377ZM181.841 143.377C181.839 143.377 181.837 143.377 181.835 143.377C181.816 143.376 181.797 143.375 181.779 143.373L181.757 143.336L181.779 143.373C181.684 143.362 181.605 143.332 181.544 143.295L181.564 143.261L181.544 143.295C181.53 143.287 181.517 143.278 181.506 143.27C181.458 143.235 181.43 143.201 181.416 143.181C181.415 143.18 181.414 143.179 181.413 143.177C181.411 143.175 181.41 143.172 181.408 143.169C181.407 143.168 181.406 143.166 181.405 143.165C181.405 143.164 181.405 143.164 181.406 143.164C181.409 143.157 181.415 143.147 181.423 143.135C181.446 143.102 181.49 143.052 181.566 143.008L181.594 143.056L181.566 143.008C181.61 142.983 181.659 142.963 181.71 142.949C181.726 142.945 181.742 142.941 181.758 142.938M181.841 143.377L182.043 142.953M181.758 142.938L181.754 142.944L181.758 142.938ZM181.758 142.938C181.76 142.938 181.762 142.938 181.764 142.937C181.789 142.933 181.815 142.93 181.842 142.929C181.844 142.929 181.846 142.929 181.848 142.929C181.885 142.927 181.923 142.929 181.961 142.935C181.988 142.939 182.016 142.945 182.043 142.953M181.758 142.938L181.837 142.805M181.758 142.938L181.837 142.805M182.043 142.953C182.043 142.953 182.043 142.954 182.044 142.954L182.028 143.006L182.044 142.954C182.184 142.996 182.259 143.072 182.29 143.111C182.293 143.116 182.296 143.119 182.298 143.122C182.302 143.128 182.306 143.134 182.308 143.138C182.307 143.141 182.305 143.145 182.303 143.148C182.302 143.149 182.301 143.151 182.3 143.153C182.299 143.155 182.297 143.158 182.295 143.161C182.295 143.161 182.295 143.161 182.295 143.161C182.284 143.178 182.266 143.202 182.239 143.227C182.181 143.282 182.081 143.346 181.946 143.368C181.937 143.37 181.928 143.371 181.918 143.372L182.043 142.953ZM181.837 142.805L181.843 142.795L181.837 142.805ZM181.981 143.164L181.97 143.201L181.981 143.164ZM181.981 143.164L181.981 143.162L181.981 143.164ZM181.871 143.531L181.825 143.453L181.871 143.531ZM181.871 143.531L181.909 143.405M181.871 143.531L181.909 143.405M181.909 143.405L181.913 143.392L181.909 143.405ZM181.659 143.167L181.702 143.241L181.659 143.167ZM181.659 143.167L181.656 143.163L181.659 143.167ZM181.64 143.135L181.623 143.163L181.64 143.135Z" fill="#C28145" stroke="#907D73" stroke-width="2"/>
<path d="M108.649 103.071L109.094 146.752C109.101 147.436 109.299 148.097 109.662 148.616C110.023 149.129 110.614 149.582 111.381 149.591L245.998 151.222C246.766 151.232 247.358 150.793 247.717 150.281C248.076 149.767 248.264 149.109 248.261 148.429L248.111 104.738C248.108 104.049 247.912 103.382 247.549 102.86C247.189 102.342 246.595 101.884 245.823 101.874L110.912 100.253C110.139 100.244 109.544 100.688 109.187 101.205C108.827 101.723 108.642 102.387 108.649 103.071Z" stroke="#313B36" stroke-width="2"/>
<g clip-path="url(#clip0_1550_3539)">
<rect x="256.602" y="119.121" width="44.9856" height="91.8849" rx="7" fill="#EFEDE7" stroke="#313B36" stroke-width="2"/>
<path d="M282.501 203.717H276.371C275.85 203.717 275.35 203.94 274.981 204.337C274.613 204.734 274.406 205.272 274.406 205.834C274.406 206.395 274.613 206.934 274.981 207.331C275.35 207.728 275.85 207.951 276.371 207.951H282.501C283.022 207.951 283.522 207.728 283.891 207.331C284.26 206.934 284.467 206.395 284.467 205.834C284.467 205.272 284.26 204.734 283.891 204.337C283.522 203.94 283.022 203.717 282.501 203.717Z" fill="#D8C5A8"/>
<path d="M263.727 141.463H263.381V141.083C263.381 141.064 263.389 141.045 263.402 141.031C263.415 141.017 263.432 141.009 263.45 141.009C263.469 141.009 263.486 141.017 263.499 141.031C263.512 141.045 263.519 141.064 263.519 141.083V141.314H263.727C263.745 141.314 263.763 141.322 263.776 141.336C263.789 141.35 263.796 141.369 263.796 141.389C263.796 141.408 263.789 141.427 263.776 141.441C263.763 141.455 263.745 141.463 263.727 141.463Z" fill="#EDE9E1"/>
<path d="M293.191 141.463H292.845C292.827 141.463 292.81 141.455 292.797 141.441C292.784 141.427 292.776 141.408 292.776 141.389C292.776 141.369 292.784 141.35 292.797 141.336C292.81 141.322 292.827 141.314 292.845 141.314H293.053V141.083C293.053 141.064 293.06 141.045 293.073 141.031C293.086 141.017 293.103 141.009 293.122 141.009C293.14 141.009 293.158 141.017 293.171 141.031C293.184 141.045 293.191 141.064 293.191 141.083V141.463Z" fill="#EDE9E1"/>
<path d="M270.708 165.061V166.633H288.001L288.022 165.061H270.708Z" fill="#907D73"/>
<path d="M264.415 169.253V170.824H294.289L294.306 169.253H264.415Z" fill="#907D73"/>
<path d="M264.744 174.618H293.452C295.303 174.618 296.802 176.118 296.802 177.968V193.974C296.802 195.824 295.303 197.324 293.452 197.324H264.744C262.894 197.324 261.394 195.824 261.394 193.974V177.968C261.394 176.118 262.893 174.618 264.744 174.618Z" fill="#EDE9E1" stroke="#313B36" stroke-width="1.3"/>
<rect x="269.659" y="177.635" width="25.1717" height="1.04786" rx="0.52393" fill="#907D73"/>
<rect x="269.755" y="180.824" width="13.1103" height="1.04786" rx="0.52393" fill="#907D73"/>
<path d="M265.61 182.017C267.103 182.017 268.313 180.804 268.313 179.307C268.313 177.81 267.103 176.596 265.61 176.596C264.117 176.596 262.906 177.81 262.906 179.307C262.906 180.804 264.117 182.017 265.61 182.017Z" fill="#C28145"/>
<path d="M257.975 125.707H300.215" stroke="#313B36" stroke-width="2" stroke-linecap="round"/>
<path d="M257.975 200.626H300.215" stroke="#313B36" stroke-width="2" stroke-linecap="round"/>
</g>
<path d="M261.018 158.102L261.003 133.634C261.003 133.068 261.155 132.608 261.342 132.608L297.172 132.538C297.36 132.538 297.512 133.001 297.511 133.57L297.447 158.046C297.446 158.608 297.295 159.062 297.109 159.062L261.357 159.125C261.17 159.125 261.018 158.667 261.018 158.102Z" fill="#D8C5A8"/>
<path d="M298.391 146.123C298.399 145.867 298.342 145.629 298.239 145.501C294.885 141.319 290.276 141.566 286.789 146.151C285.042 148.438 283.572 151.709 281.706 153.488C279.388 155.716 276.76 155.383 274.329 154.474C271.897 153.564 269.497 152.117 267.002 152.262C264.534 152.405 261.773 154.537 260.394 158.963C260.366 159.056 260.349 159.163 260.346 159.27C260.335 159.617 260.461 159.899 260.628 159.9L297.629 160.086C297.822 160.087 297.989 159.761 298 159.358L298.391 146.123Z" fill="#EDE9E1"/>
<path d="M260.257 133.674L260.271 158.142C260.272 158.483 260.316 158.821 260.408 159.097C260.453 159.231 260.521 159.39 260.63 159.529C260.73 159.656 260.954 159.877 261.319 159.876L297.071 159.814C297.45 159.813 297.7 159.577 297.816 159.429C297.936 159.276 298.008 159.106 298.054 158.969C298.148 158.686 298.193 158.347 298.194 158.008L298.257 133.533C298.258 133.189 298.214 132.849 298.122 132.571C298.078 132.436 298.01 132.276 297.901 132.137C297.802 132.009 297.577 131.786 297.21 131.786L261.38 131.857C260.998 131.857 260.747 132.096 260.632 132.245C260.512 132.398 260.44 132.569 260.395 132.707C260.301 132.991 260.256 133.334 260.257 133.674Z" stroke="#313B36" stroke-width="1.5"/>
<path d="M260.744 159.157C261.181 156.886 262.841 152.608 266.774 152.608C270.707 152.608 272.805 154.703 277.263 154.703C281.196 154.703 283.293 151.046 284.867 148.819C288.013 144.366 289.324 142.653 292.995 142.653C295.59 142.653 297.977 144.89 297.977 144.89" stroke="#313B36" stroke-width="1.5"/>
<path d="M270.42 122.276C270.421 122.519 270.342 122.757 270.194 122.96C270.046 123.163 269.834 123.321 269.587 123.415C269.34 123.509 269.067 123.534 268.804 123.487C268.541 123.44 268.299 123.324 268.109 123.152C267.919 122.98 267.79 122.761 267.737 122.522C267.684 122.284 267.711 122.036 267.813 121.811C267.915 121.586 268.089 121.394 268.312 121.259C268.535 121.123 268.797 121.051 269.065 121.051C269.423 121.051 269.767 121.18 270.021 121.41C270.275 121.639 270.418 121.951 270.42 122.276Z" fill="#907D73"/>
<path d="M266.141 122.276C266.141 122.518 266.061 122.755 265.913 122.956C265.765 123.158 265.554 123.315 265.308 123.407C265.061 123.5 264.79 123.524 264.528 123.477C264.266 123.43 264.026 123.313 263.837 123.142C263.648 122.971 263.52 122.752 263.468 122.515C263.416 122.277 263.442 122.031 263.545 121.807C263.647 121.583 263.82 121.392 264.042 121.258C264.263 121.123 264.524 121.051 264.791 121.051C265.149 121.051 265.492 121.18 265.745 121.41C265.998 121.64 266.141 121.951 266.141 122.276Z" fill="#C28145"/>
<path d="M261.869 122.276C261.869 122.518 261.79 122.755 261.642 122.956C261.493 123.158 261.283 123.315 261.036 123.407C260.79 123.5 260.518 123.524 260.257 123.477C259.995 123.43 259.754 123.313 259.566 123.142C259.377 122.971 259.248 122.752 259.196 122.515C259.144 122.277 259.171 122.031 259.273 121.807C259.375 121.583 259.548 121.392 259.77 121.258C259.992 121.123 260.253 121.051 260.52 121.051C260.878 121.051 261.221 121.18 261.474 121.41C261.727 121.64 261.869 121.951 261.869 122.276Z" fill="#313B36"/>
<g clip-path="url(#clip1_1550_3539)">
<path d="M330.839 189.986L356.872 197.392C360.819 198.515 363.201 202.516 362.199 206.342L355.851 230.598C354.849 234.424 350.849 236.609 346.902 235.486L320.868 228.08C316.921 226.957 314.54 222.956 315.541 219.13L321.89 194.874C322.891 191.048 326.892 188.863 330.839 189.986Z" fill="#313B36"/>
<path d="M325.778 217.25L330.163 200.499C330.193 200.385 330.26 200.334 330.378 200.367C330.663 200.448 330.932 200.525 331.323 200.619C331.73 200.717 332.15 200.836 332.608 200.949C333.065 201.062 333.552 201.2 334.077 201.332C334.602 201.464 335.106 201.607 335.61 201.751C336.987 202.143 338.087 202.63 338.938 203.24C339.705 203.755 340.358 204.431 340.839 205.215C341.24 205.889 341.494 206.643 341.579 207.42C341.652 208.175 341.603 208.913 341.412 209.646C341.045 211.046 340.407 212.106 339.496 212.827C338.586 213.547 337.466 213.963 336.273 214.043C335.024 214.125 333.726 213.914 332.349 213.522C331.946 213.407 331.677 213.331 331.513 213.267C331.349 213.203 331.114 213.136 330.795 213.045L329.427 218.27C329.414 218.389 329.305 218.463 329.183 218.446C329.166 218.441 329.149 218.436 329.116 218.427L325.925 217.519C325.79 217.481 325.74 217.396 325.778 217.25ZM333.049 204.503L331.617 209.973C331.848 210.056 332.062 210.134 332.264 210.192L333.154 210.445C333.809 210.631 334.49 210.72 335.162 210.701C335.738 210.708 336.289 210.532 336.765 210.23C337.224 209.924 337.537 209.418 337.725 208.702C337.874 208.202 337.871 207.659 337.718 207.143C337.543 206.639 337.225 206.198 336.785 205.881C336.227 205.46 335.581 205.171 334.888 204.991C334.451 204.867 334.065 204.757 333.742 204.683C333.41 204.571 333.171 204.52 333.049 204.503Z" fill="#EFEDE7"/>
<path d="M351.394 214.532C350.958 214.128 350.468 213.796 349.926 213.52C349.339 213.213 348.739 212.955 348.101 212.773C347.769 212.661 347.404 212.61 347.063 212.6C346.832 212.587 346.617 212.649 346.457 212.778C346.339 212.884 346.246 213.033 346.208 213.179C346.169 213.326 346.198 213.491 346.265 213.65C346.369 213.872 346.532 214.076 346.721 214.252C347.056 214.557 347.412 214.851 347.773 215.129C348.603 215.68 349.37 216.335 350.048 217.053C350.513 217.552 350.847 218.137 351.022 218.782C351.154 219.379 351.139 219.987 350.969 220.568C350.786 221.338 350.35 222.036 349.747 222.547C349.107 223.064 348.319 223.383 347.487 223.461C346.575 223.568 345.52 223.461 344.311 223.117C343.538 222.897 342.799 222.617 342.082 222.255C341.52 221.99 340.979 221.644 340.505 221.247C340.404 221.148 340.35 221.011 340.401 220.885L341.143 218.053C341.155 218.004 341.189 217.943 341.248 217.925C341.307 217.907 341.353 217.938 341.395 217.984C341.952 218.545 342.572 219.002 343.269 219.375C343.865 219.719 344.515 219.991 345.187 220.183C345.825 220.364 346.3 220.412 346.641 220.351C346.939 220.314 347.196 220.09 347.273 219.797C347.333 219.569 347.254 219.319 347.04 219.031C346.827 218.743 346.337 218.341 345.595 217.797C344.815 217.261 344.128 216.645 343.516 215.947C343.089 215.44 342.776 214.844 342.602 214.2C342.47 213.602 342.484 212.994 342.65 212.429C342.834 211.729 343.21 211.119 343.737 210.622C344.327 210.09 345.085 209.746 345.893 209.626C346.784 209.46 347.822 209.563 349.015 209.902C349.703 210.098 350.396 210.348 351.059 210.641C351.546 210.85 351.999 211.118 352.405 211.427C352.468 211.462 352.518 211.546 352.535 211.621C352.535 211.691 352.534 211.761 352.517 211.826L351.823 214.479C351.806 214.544 351.755 214.6 351.696 214.618C351.537 214.608 351.453 214.584 351.394 214.532Z" fill="#EFEDE7"/>
</g>
<path d="M133.057 201.67C135.777 199.376 155.006 192.894 159.634 191.364C164.261 189.834 206.954 190.76 206.954 190.76L212.907 190.458C216.401 192.084 227.787 198.001 232.498 201.67C238.431 206.292 240.43 213.145 241.28 215.44C242.13 217.735 251.196 251.585 252.896 257.036C254.595 262.486 255.729 270.232 254.879 274.822C254.029 279.412 250.346 281.993 244.113 285.149C239.127 287.673 235.047 288.878 233.631 289.165L132.207 290.599C125.786 287.157 113.398 284.901 111.526 278.264C110.856 275.891 110.676 268.224 111.526 264.208C112.376 260.191 122.858 225.767 124.558 217.161C126.258 208.555 129.657 204.539 133.057 201.67Z" fill="#D8C5A8"/>
<path d="M180.475 206.977L176.238 198.511L180.475 195.971L184.43 199.922L180.475 206.977Z" fill="#EFEDE7" stroke="#313B36" stroke-width="1.5" stroke-linecap="round"/>
<path d="M175.919 206.274C175.919 220.667 174.193 232.246 174.507 237.881" stroke="#313B36" stroke-width="1.5" stroke-linecap="round"/>
<path d="M185.241 206.557C184.97 213.544 185.242 234.076 185.557 239.712" stroke="#313B36" stroke-width="1.5" stroke-linecap="round"/>
<path d="M151.6 149.123L216.873 161.69L210.821 191.363L207.25 191.061L159.633 191.365L151.598 194.081L151.6 149.123Z" fill="#907D73"/>
<path d="M182.143 209.585L182.307 211.518C182.322 211.602 182.329 211.688 182.329 211.773C182.323 212.684 181.431 213.417 180.335 213.41C179.24 213.404 178.357 212.661 178.362 211.75C178.363 211.695 178.366 211.641 178.373 211.587L178.363 211.596L178.584 209.627C178.587 209.601 178.596 209.577 178.612 209.556C178.627 209.535 178.647 209.518 178.671 209.507C178.695 209.496 178.721 209.491 178.748 209.492C178.774 209.494 178.8 209.502 178.822 209.515L179.87 210.159C180.03 210.126 180.193 210.11 180.356 210.112C180.508 210.113 180.66 210.128 180.81 210.158L181.818 209.442C181.847 209.42 181.882 209.407 181.918 209.403C181.954 209.399 181.991 209.405 182.024 209.42C182.058 209.435 182.086 209.458 182.107 209.487C182.128 209.516 182.14 209.55 182.143 209.585Z" fill="#313B36"/>
<path d="M167.423 190.438C170.075 187.249 170.03 179.068 169.002 175.201L192.198 174.107C191.869 175.126 190.424 186.015 193.561 191.061C193.561 191.061 186.618 198.602 180.466 198.905C174.314 199.208 169.671 193.938 168.265 192.27" fill="#EFEDE7"/>
<path d="M167.423 190.438C170.075 187.249 170.03 179.068 169.002 175.201L192.198 174.107C191.869 175.126 190.424 186.015 193.561 191.061C193.561 191.061 186.618 198.602 180.466 198.905C174.314 199.208 169.671 193.938 168.265 192.27" stroke="#313B36" stroke-width="2" stroke-miterlimit="10"/>
<path d="M190.493 182.484L190.761 175.931L170.089 176.297L170.447 182.486C182.829 187.635 190.493 182.484 190.493 182.484Z" fill="#EFEDE7"/>
<path d="M167.534 188.846C167.534 188.846 169.202 197.576 181.359 197.121C190.32 196.776 193.621 189.584 193.621 189.584L206.359 191.392C206.656 193.473 199.999 205.588 189.692 204.337C182.639 203.482 180.764 198.603 180.764 198.603C180.764 198.603 178.728 202.078 172.576 203.389C159.633 206.148 160.229 191.667 160.229 191.667L167.534 188.846Z" fill="#EFEDE7" stroke="#313B36" stroke-width="2" stroke-miterlimit="10"/>
<path d="M164.544 191.556C164.544 191.556 173.499 227.419 180.32 235.887C183.428 239.743 195.831 191.214 195.831 191.214" stroke="#313B36" stroke-width="1.5" stroke-miterlimit="10" stroke-linecap="round"/>
<path d="M189.216 163.941L184.229 147.977L174.405 155.26L189.216 163.941Z" fill="#D8C5A8"/>
<path d="M153.627 132.835C153.627 132.835 153.754 144.188 156.149 153.509C158.545 162.829 157.55 166.615 161.151 171.528C164.392 175.951 173.973 182.771 179.498 182.77C186.455 182.769 194.534 177.994 199.455 171.726C204.377 165.459 204.27 161.189 204.27 161.189C204.27 161.189 212.496 159.075 212.498 149.743C212.499 140.411 207.596 141.206 204.044 142.407L202.998 119.287L189.826 108.042L172.062 111.089L153.627 132.835Z" fill="#EFEDE7"/>
<path d="M153.627 132.835L152.94 132.25L152.724 132.505L152.728 132.84L153.627 132.835ZM156.149 153.509L155.279 153.729L156.149 153.509ZM179.498 182.77L179.503 183.671L179.498 182.77ZM204.27 161.189L204.042 160.316L203.353 160.493L203.371 161.206L204.27 161.189ZM204.044 142.407L203.146 142.443L203.2 143.645L204.336 143.261L204.044 142.407ZM172.062 111.089L171.905 110.201L171.585 110.256L171.375 110.504L172.062 111.089ZM202.998 119.287L203.896 119.251L203.879 118.859L203.579 118.603L202.998 119.287ZM199.455 171.726L198.747 171.167L199.455 171.726ZM189.826 108.042L190.407 107.358L190.085 107.083L189.669 107.154L189.826 108.042ZM161.151 171.528L160.427 172.058L161.151 171.528ZM153.627 132.835C152.728 132.84 152.728 132.84 152.728 132.84C152.728 132.841 152.728 132.841 152.728 132.841C152.728 132.841 152.728 132.842 152.728 132.843C152.728 132.844 152.728 132.847 152.728 132.85C152.728 132.856 152.728 132.864 152.728 132.876C152.728 132.899 152.729 132.932 152.73 132.976C152.731 133.063 152.734 133.192 152.738 133.358C152.746 133.691 152.761 134.176 152.786 134.786C152.835 136.006 152.927 137.73 153.094 139.746C153.427 143.771 154.063 148.997 155.279 153.729L157.02 153.289C155.841 148.7 155.215 143.589 154.886 139.607C154.722 137.621 154.632 135.923 154.583 134.723C154.558 134.123 154.544 133.648 154.536 133.324C154.532 133.162 154.529 133.037 154.528 132.954C154.527 132.912 154.527 132.881 154.526 132.86C154.526 132.85 154.526 132.842 154.526 132.837C154.526 132.834 154.526 132.833 154.526 132.831C154.526 132.831 154.526 132.83 154.526 132.83C154.526 132.83 154.526 132.83 154.526 132.83C154.526 132.83 154.526 132.83 153.627 132.835ZM204.27 161.189C204.498 162.061 204.498 162.061 204.499 162.061C204.499 162.061 204.5 162.061 204.5 162.061C204.501 162.061 204.502 162.06 204.503 162.06C204.505 162.059 204.508 162.059 204.511 162.058C204.518 162.056 204.526 162.054 204.536 162.051C204.557 162.045 204.585 162.037 204.621 162.027C204.691 162.006 204.791 161.975 204.915 161.933C205.163 161.85 205.511 161.721 205.925 161.536C206.751 161.167 207.853 160.572 208.957 159.662C211.186 157.825 213.396 154.724 213.397 149.748L211.598 149.738C211.598 154.094 209.694 156.716 207.809 158.269C206.857 159.053 205.902 159.57 205.186 159.89C204.828 160.049 204.533 160.158 204.332 160.226C204.231 160.26 204.154 160.284 204.104 160.299C204.079 160.306 204.061 160.311 204.051 160.314C204.045 160.315 204.042 160.316 204.041 160.317C204.04 160.317 204.039 160.317 204.04 160.317C204.04 160.317 204.04 160.317 204.04 160.317C204.041 160.317 204.041 160.317 204.041 160.316C204.041 160.316 204.042 160.316 204.27 161.189ZM213.397 149.748C213.398 144.99 212.151 142.372 209.995 141.316C208.957 140.808 207.826 140.731 206.768 140.838C205.71 140.946 204.663 141.246 203.752 141.554L204.336 143.261C205.201 142.968 206.099 142.718 206.96 142.631C207.82 142.543 208.58 142.625 209.212 142.934C210.395 143.513 211.599 145.164 211.598 149.738L213.397 149.748ZM171.375 110.504L152.94 132.25L154.314 133.42L172.749 111.674L171.375 110.504ZM204.942 142.372L203.896 119.251L202.1 119.323L203.146 142.443L204.942 142.372ZM179.503 183.671C186.811 183.67 195.126 178.701 200.164 172.286L198.747 171.167C193.942 177.287 186.098 181.868 179.493 181.87L179.503 183.671ZM200.164 172.286C202.689 169.07 203.944 166.341 204.565 164.385C204.876 163.408 205.027 162.627 205.101 162.079C205.138 161.805 205.155 161.589 205.163 161.436C205.167 161.36 205.169 161.299 205.169 161.255C205.169 161.233 205.169 161.215 205.169 161.201C205.169 161.194 205.169 161.188 205.169 161.183C205.169 161.18 205.169 161.178 205.169 161.176C205.169 161.175 205.169 161.174 205.169 161.174C205.169 161.173 205.169 161.173 205.169 161.172C205.169 161.172 205.169 161.171 204.27 161.189C203.371 161.206 203.371 161.206 203.371 161.205C203.371 161.205 203.371 161.205 203.371 161.205C203.371 161.204 203.371 161.203 203.371 161.203C203.371 161.202 203.371 161.201 203.371 161.201C203.371 161.2 203.371 161.201 203.371 161.202C203.371 161.205 203.371 161.211 203.371 161.222C203.37 161.243 203.37 161.28 203.367 161.333C203.361 161.438 203.349 161.605 203.318 161.829C203.258 162.277 203.129 162.956 202.851 163.83C202.296 165.576 201.144 168.115 198.747 171.167L200.164 172.286ZM203.579 118.603L190.407 107.358L189.245 108.726L202.417 119.971L203.579 118.603ZM189.669 107.154L171.905 110.201L172.218 111.977L189.982 108.93L189.669 107.154ZM155.279 153.729C156.466 158.35 156.8 161.533 157.314 164.329C157.828 167.128 158.515 169.45 160.427 172.058L161.875 170.998C160.185 168.693 159.57 166.665 159.082 164.013C158.594 161.358 158.228 157.988 157.02 153.289L155.279 153.729ZM160.427 172.058C162.137 174.392 165.442 177.273 168.983 179.564C170.763 180.715 172.63 181.735 174.419 182.469C176.197 183.199 177.956 183.671 179.503 183.671L179.493 181.87C178.278 181.87 176.767 181.49 175.093 180.803C173.431 180.121 171.664 179.159 169.953 178.052C166.512 175.827 163.406 173.087 161.875 170.998L160.427 172.058Z" fill="#313B36"/>
<path d="M206.232 148.52C206.699 149.441 206.925 150.492 206.887 151.563C206.849 152.634 206.549 153.687 206.017 154.615" stroke="#313B36" stroke-width="1.5" stroke-miterlimit="10" stroke-linecap="round"/>
<path d="M141.742 216.437C141.742 216.437 139.695 199.513 142.374 185.03C145.053 170.547 143.819 154.808 145.054 142.789C146.29 130.77 148.098 121.637 157.852 112.314C164.656 105.811 178.387 103.261 186.309 104.166C196.204 102.722 208.741 112.01 212.085 125.935C215.429 139.86 215.618 142.924 216.179 155.458C216.773 168.733 220.553 174.023 223.086 183.979C225.62 193.936 225.628 197.243 225.628 197.243C219.974 193.924 211.785 191.061 204.048 190.156C198.965 189.562 194.51 188.381 193.56 187.442C193.56 183.231 200.246 178.007 199.81 173.26C199.81 173.26 202.82 170.059 204.049 167.568C205.182 165.271 207.251 160.286 207.251 160.286C209.374 158.612 210.402 156.954 211.12 153.647C212.031 149.451 211.248 146.535 209.632 144.898C208.5 143.749 206.719 142.731 204.871 143.389C203.022 144.047 202.788 144.898 202.788 144.898C202.788 144.898 196.24 147.312 190.884 138.261C186.262 130.45 186.308 125.936 186.308 125.936C179.511 127.085 176.005 129.512 168.564 140.676C164.425 146.887 157.533 150.633 157.533 150.633C156.977 150.633 151.748 153.572 154.576 160.59C155.52 162.931 160.385 182.007 160.385 182.007C161.574 197.395 155.864 209.381 156.711 216.437C157.799 225.493 146.49 221.22 141.742 216.437Z" fill="#907D73"/>
<path d="M186.821 129.315C187.142 132.512 194.457 148.518 202.492 144.9" stroke="#313B36" stroke-width="2" stroke-linecap="round"/>
<path d="M202.49 144.898C203.977 142.786 207.789 142.175 209.892 145.505C212.33 149.364 212.612 158.887 204.279 161.193" stroke="#313B36" stroke-width="1.8" stroke-linecap="round"/>
<path d="M192.077 127.665C192.078 134.002 200.791 143.136 204.279 143.058" stroke="#313B36" stroke-width="2" stroke-linecap="round"/>
<path d="M144.896 147.217C144.893 134.333 148.808 124.379 151.593 119.252C154.378 114.124 164.687 103.568 184.335 103.573" stroke="#313B36" stroke-width="2" stroke-linecap="round"/>
<path d="M145.345 158.175C145.345 158.175 144.172 174.468 143.264 179.597C141.604 188.968 142.138 204.017 140.898 215.587" stroke="#313B36" stroke-width="2" stroke-linecap="round"/>
<path d="M225.646 196.68C225.646 196.68 226.797 194.875 223.1 183.135C219.99 173.258 217.604 170.631 216.482 159.754C215.585 151.052 215.881 138.265 211.711 126.498C207.911 115.778 201.466 105.981 189.083 104.771" stroke="#313B36" stroke-width="2" stroke-linecap="round"/>
<path d="M206.953 178.993C206.954 183.821 206.955 188.95 208.146 191.062" stroke="#313B36" stroke-width="2" stroke-linecap="round"/>
<path d="M158.401 165.073C164.346 188.215 156.997 205.007 157 215.869" stroke="#313B36" stroke-width="1.5" stroke-linecap="round"/>
<path d="M151.102 178.619C153.324 193.012 147.062 206.523 149.938 223.207" stroke="#313B36" stroke-width="1.5" stroke-linecap="round"/>
<path d="M171.803 125.496C167.028 127.371 164.436 140.088 158.146 141.882" stroke="#313B36" stroke-width="2" stroke-linecap="round"/>
<path d="M186.045 126.318C182.296 125.345 176.563 128.529 172.428 135.24C168.788 141.146 159.338 153.646 145.051 154.849" stroke="#313B36" stroke-width="2" stroke-linecap="round"/>
<path d="M139.551 217.602L144.834 234.086L134.635 263.06C133.502 262.295 130.216 261.511 126.136 264.494C122.056 267.478 120.281 269.945 119.903 270.805" stroke="#313B36" stroke-width="2" stroke-linecap="round"/>
<path d="M219.444 214.74L210.944 269.245L225.96 267.237C227.376 266.855 230.946 266.778 233.892 269.532C236.839 272.286 238.897 274.122 239.558 274.696" stroke="#313B36" stroke-width="2" stroke-linecap="round"/>
<path d="M168.85 157.591C170.269 157.614 171.429 155.876 171.441 153.71C171.453 151.544 170.313 149.769 168.894 149.747C167.475 149.724 166.315 151.462 166.303 153.628C166.291 155.794 167.431 157.569 168.85 157.591Z" fill="#313B36"/>
<path fill-rule="evenodd" clip-rule="evenodd" d="M167.205 147.309C166.097 147.65 165.416 148.423 165.267 148.897C165.139 149.302 164.668 149.521 164.214 149.387C163.761 149.252 163.496 148.815 163.624 148.411C163.936 147.419 165.043 146.32 166.588 145.844C168.207 145.346 170.27 145.537 172.446 147.07C172.826 147.338 172.908 147.824 172.629 148.156C172.351 148.488 171.817 148.539 171.437 148.271C169.692 147.042 168.238 146.991 167.205 147.309Z" fill="#313B36"/>
<path fill-rule="evenodd" clip-rule="evenodd" d="M191.343 146.335C190.227 146.404 189.372 146.982 189.093 147.398C188.854 147.753 188.357 147.852 187.983 147.621C187.609 147.389 187.499 146.914 187.737 146.559C188.322 145.69 189.665 144.9 191.221 144.804C192.851 144.703 194.679 145.357 196.205 147.312C196.472 147.653 196.401 148.133 196.046 148.384C195.691 148.635 195.188 148.561 194.921 148.22C193.697 146.653 192.383 146.271 191.343 146.335Z" fill="#313B36"/>
<path d="M190.905 157.136C192.319 157.276 193.635 155.642 193.845 153.486C194.055 151.33 193.079 149.47 191.666 149.33C190.252 149.19 188.936 150.824 188.726 152.98C188.516 155.136 189.492 156.997 190.905 157.136Z" fill="#313B36"/>
<path d="M179.479 160.362L181.346 161.556L181.407 158.371" fill="#313B36"/>
<path d="M176.117 169.425C178.047 170.677 183.307 171.183 186.077 168.775" stroke="#C28145" stroke-width="2.5" stroke-linecap="round"/>
<path d="M128.906 281.692L125.458 211.062C125.346 208.779 127.167 206.867 129.453 206.867H229.539C231.778 206.867 233.58 208.704 233.538 210.942L232.212 281.572C232.171 283.752 230.393 285.497 228.213 285.497H132.901C130.768 285.497 129.01 283.823 128.906 281.692Z" fill="#EFEDE7" stroke="#313B36" stroke-width="2" stroke-linecap="round"/>
<path d="M186.806 229.813L187.884 238.13C187.964 238.491 188.012 238.858 188.025 239.228C188.175 243.164 184.459 246.503 179.723 246.687C174.987 246.871 171.029 243.83 170.88 239.894C170.871 239.659 170.876 239.423 170.894 239.188L170.854 239.23L171.434 230.681C171.441 230.57 171.478 230.463 171.54 230.37C171.601 230.276 171.687 230.2 171.787 230.147C171.888 230.094 172.001 230.067 172.115 230.068C172.229 230.069 172.341 230.098 172.44 230.153L177.093 232.729C177.777 232.557 178.477 232.458 179.182 232.432C179.842 232.407 180.503 232.445 181.155 232.545L185.374 229.255C185.496 229.157 185.644 229.093 185.8 229.07C185.956 229.046 186.116 229.064 186.263 229.121C186.41 229.178 186.537 229.272 186.633 229.394C186.729 229.516 186.789 229.661 186.806 229.813Z" fill="#313B36"/>
<path d="M177.651 235.178C178.335 235.509 179.479 236.159 180.021 236.505L179.31 237.625C178.727 237.26 177.645 236.637 176.961 236.297L177.651 235.178ZM176.038 242.287C177.169 242.055 178.365 241.671 179.45 241.033C181.141 240.025 182.512 238.612 183.261 237.163L184.095 238.481C183.212 239.895 181.817 241.199 180.196 242.205C179.181 242.81 177.737 243.363 176.849 243.556L176.038 242.287ZM176.172 237.498C176.866 237.829 178.009 238.459 178.551 238.805L177.842 239.944C177.258 239.57 176.176 238.947 175.481 238.617L176.172 237.498Z" fill="#EFEDE7"/>
<path d="M138.392 226.093L138.625 231.78L139.345 232.799L139.521 235.306L140.595 238.268L140.278 240.928L140.142 244.449L139.3 246.667L138.031 249.066L136.059 249.983L136.35 254.514L135.692 262.647L134.738 267.682L134.618 271.426L135.471 277.577L138.757 289.541L140.527 290.802L142.698 293.783L141.461 296.251L137.448 297.77L135.09 298.354L133.008 298.782L130.413 298.328L128.09 295.763L125.184 297.416L122.126 298.236L121.703 300.315L119.832 301.787L115.429 302.557L106.362 304.141L104.138 303.67L103.007 301.863L99.7535 300.141L94.756 294.714L92.406 287.679L92.0777 280.004L92.3622 274.227L94.7824 265.499L98.542 258.256L103.483 253.097L107.375 250.985L114.123 246.942L113.82 245.277L112.544 241.205L112.822 236.86L114.029 233.213L116.215 230.54L117.213 227.216L118.11 223.336L118.945 222.045L121.983 225.523L124.763 229.047L126.419 229.33L130.974 229.393L133.312 227.553L137.937 223.595L138.392 226.093Z" fill="#EFEDE7"/>
<path d="M136.104 280.68C136.028 281.066 137.719 286.774 137.926 288.653C137.926 288.653 133.933 289.275 133.801 285.575C133.677 282.098 132.474 279.768 132.968 278.485C133.248 277.758 133.029 275.879 134.374 275.862C135.718 275.844 136.408 279.133 136.104 280.68Z" fill="#C28145"/>
<path d="M102.842 253.535L108.361 250.54C109.937 251.283 109.906 256.328 107.366 259.001C106.019 260.419 102.855 266.197 98.1158 265.899C94.3248 265.661 95.9607 262.686 96.5632 261.465L102.842 253.535Z" fill="#C28145"/>
<path d="M103.079 278.94C99.1923 278.061 98.6641 281.909 99.3825 283.675C93.4123 287.92 98.1434 291.364 101.316 291.861C103.776 292.247 107.466 290.241 108.223 286.95C108.98 283.659 106.966 279.818 103.079 278.94Z" fill="#C28145"/>
<path d="M138.782 227.974L138.977 232.27L139.475 235.63L140.48 240.031C136.085 241.606 129.043 235.942 127.447 233.743C124.88 239.891 114.05 237.666 113.489 234.032L116.193 230.521L117.287 226.053L118.853 222.101L121.478 224.53L124.341 229.631L125.924 228.998L129.083 229.017L130.857 229.781L138.305 224.61L138.782 227.974Z" fill="#C28145"/>
<path d="M133.277 250.837C139.235 249.796 140.967 244.834 140.872 241.178C140.74 236.047 138.909 233.154 138.909 233.154C138.973 230.566 138.671 224.56 138.049 224.668C137.428 224.777 133.478 227.96 131.433 229.94C130.036 229.611 126.431 228.813 124.814 229.324C123.013 226.775 119.722 221.909 118.945 222.045C118.365 222.146 116.993 228.945 116.728 230.423C115.412 231.469 112.82 235.435 112.26 240.1C111.867 243.373 114.332 246.62 114.332 246.62C114.332 246.62 112.354 248.97 107.116 251.03C101.878 253.091 95.1125 260.308 92.8869 272.703C90.7636 284.529 91.7488 295.812 103.058 302.141C103.513 304.639 105.551 304.064 109.73 303.552C115.22 302.879 122.316 302.213 121.968 298.837C121.621 295.461 118.771 295.959 118.771 295.959C118.771 295.959 111.619 297.781 112.15 294.825C114.389 291.952 117.751 283.308 114.501 278.377C110.439 272.214 104.222 273.3 101.208 275.831" stroke="#313B36" stroke-width="2" stroke-linecap="round"/>
<path d="M136.104 251.693C136.105 255.129 136.425 260.801 134.637 267.127C133.777 270.17 137.304 287.968 138.334 289.22C139.66 289.656 142.413 291.657 142.402 293.95C142.392 296.243 139.765 297.083 138.453 297.217" stroke="#313B36" stroke-width="2" stroke-linecap="round"/>
<path d="M128.78 274.596C129.672 279.495 132.562 290.962 133.786 291.812C134.932 292.232 137.647 293.638 137.268 296.258C136.795 299.533 131.333 298.891 130.415 298.253C129.497 297.616 122.958 285.191 121.595 280.64C120.504 277 119.402 272.51 118.987 270.721" stroke="#313B36" stroke-width="2" stroke-linecap="round"/>
<path d="M128.215 294.942C127.4 295.848 124.797 298.228 121.608 298.327" stroke="#313B36" stroke-width="2"/>
<path d="M130.619 250.933C129.271 251.36 125.636 251.747 121.875 249.884" stroke="#313B36" stroke-width="2" stroke-linecap="round"/>
<path d="M122.96 237.598L123.033 236.141" stroke="#313B36" stroke-width="3" stroke-linecap="round"/>
<ellipse cx="0.557134" cy="0.591132" rx="0.557134" ry="0.591132" transform="matrix(-0.866981 0.498134 0.465532 0.885151 127.31 239.234)" fill="#313B36"/>
<path d="M128.511 243.766L127.071 242.035L125.436 243.23" stroke="#313B36" stroke-linecap="round"/>
<path d="M115.605 242.627C114.435 242.648 111.71 242.81 110.168 243.287" stroke="#313B36" stroke-linecap="round"/>
<path d="M116.003 239.985C116.003 239.985 113.59 238.456 109.82 239.467" stroke="#313B36" stroke-linecap="round"/>
<path d="M136.477 246.378C137.59 246.804 140.154 247.902 141.508 248.893" stroke="#313B36" stroke-linecap="round"/>
<path d="M137.112 243.465C138.815 243.422 141.359 243.475 143.767 245.032" stroke="#313B36" stroke-linecap="round"/>
<path d="M131.919 237.993L134.318 237.812" stroke="#313B36" stroke-width="2" stroke-linecap="round"/>
<path d="M297.833 245.183C301.676 243.043 304.637 240.685 306.348 238.112C306.358 238.341 306.368 238.576 306.377 238.819C306.518 242.471 306.567 247.696 306.199 253.973C305.463 266.534 303.058 283.275 296.396 300.048C289.736 316.814 278.83 333.592 261.099 346.277C243.371 358.96 218.746 367.605 184.553 367.988C137.357 368.512 106.878 351.597 87.9651 326.734C69.9156 303.006 62.3154 271.925 60.9467 241.54C61.4353 242.152 61.9946 242.749 62.6181 243.33C64.6312 245.207 67.3625 246.967 70.6999 248.606C77.3743 251.885 86.6157 254.753 97.7799 257.093C120.12 261.776 150.34 264.384 183.566 263.859L183.566 263.859C217.779 263.312 248.734 259.871 271.154 254.535C282.357 251.869 291.485 248.717 297.833 245.183Z" fill="#E7E1D2" stroke="#313B36" stroke-width="2"/>
<path opacity="0.4" d="M78.4502 313.599C66.6959 292.203 61.7284 267.044 59.7881 241.533L81.3039 252.306C83.0301 259.52 83.6529 285.328 103.487 315.491C128.278 353.196 176.162 369 176.162 369C160.49 368.637 141.575 364.347 135.876 362.408C128.605 359.933 96.7339 346.879 78.4502 313.599Z" fill="black" fill-opacity="0.4"/>
<path d="M33.9747 307.414L33.9746 307.414C32.6165 308.199 31.0011 308.411 29.4831 308.004C27.9653 307.597 26.6686 306.604 25.8786 305.242C25.8785 305.241 25.8784 305.241 25.8782 305.241L6.49882 271.71L6.49871 271.71C5.7103 270.346 5.49422 268.727 5.89736 267.208C6.30043 265.689 7.2894 264.394 8.64638 263.608C8.64653 263.608 8.64667 263.608 8.64682 263.608L42.0943 244.29L42.0945 244.29C43.4525 243.505 45.0679 243.293 46.5859 243.7C48.1037 244.107 49.4003 245.1 50.1902 246.462C50.1904 246.462 50.1906 246.463 50.1908 246.463L69.5702 279.994L69.5703 279.994C70.3586 281.357 70.5745 282.977 70.1712 284.496C69.768 286.014 68.7788 287.309 67.4216 288.094L33.9747 307.414Z" fill="#EFEDE7" stroke="#313B36" stroke-width="2"/>
<path d="M38.6212 276.68C37.9495 275.522 37.7659 274.145 38.1105 272.851C38.4551 271.558 39.2999 270.455 40.4588 269.784C41.6178 269.113 42.9961 268.929 44.2906 269.273C45.585 269.618 46.6895 270.462 47.3611 271.62C48.0327 272.778 48.2164 274.155 47.8718 275.448C47.5271 276.741 46.6824 277.845 45.5234 278.516C44.3644 279.187 42.9861 279.37 41.6917 279.026C40.3973 278.681 39.2928 277.837 38.6212 276.68V276.68Z" stroke="#313B36" stroke-width="3.5"/>
<path d="M34.9454 290.471C34.2738 289.314 34.0901 287.936 34.4347 286.643C34.7793 285.35 35.6241 284.246 36.7831 283.576L41.153 281.046L43.6853 285.412C44.3569 286.569 44.5406 287.946 44.196 289.24C43.8514 290.533 43.0066 291.636 41.8476 292.307C40.6886 292.978 39.3103 293.162 38.0159 292.818C36.7215 292.473 35.617 291.629 34.9454 290.471Z" stroke="#313B36" stroke-width="3.5"/>
<path d="M31.0239 263.582L36.0885 272.314L40.4585 269.784C41.6175 269.113 42.4622 268.009 42.8068 266.716C43.1515 265.423 42.9678 264.046 42.2962 262.888C41.6246 261.73 40.5201 260.886 39.2256 260.542C37.9312 260.197 36.5529 260.381 35.3939 261.052L31.0239 263.582Z" stroke="#313B36" stroke-width="3.5"/>
<path d="M24.8165 273.008C25.4881 274.165 26.5926 275.009 27.887 275.354C29.1814 275.698 30.5597 275.515 31.7187 274.844L36.0887 272.314L31.0241 263.582L26.6542 266.112C25.4952 266.783 24.6504 267.886 24.3058 269.179C23.9612 270.473 24.1449 271.85 24.8165 273.008Z" stroke="#313B36" stroke-width="3.5"/>
<path d="M29.8809 281.739C30.5525 282.897 31.657 283.741 32.9515 284.086C34.2459 284.43 35.6242 284.246 36.7832 283.575L41.1532 281.046L36.0886 272.314L31.7186 274.844C30.5596 275.515 29.7149 276.618 29.3703 277.911C29.0256 279.205 29.2093 280.582 29.8809 281.739Z" stroke="#313B36" stroke-width="3.5"/>
<g clip-path="url(#clip2_1550_3539)">
<path d="M289.963 281.961L309.785 273.673C312.79 272.416 316.185 273.777 317.378 276.717L324.945 295.359C326.139 298.299 324.674 301.692 321.668 302.949L301.846 311.238C298.841 312.494 295.446 311.133 294.253 308.193L286.686 289.551C285.493 286.611 286.958 283.218 289.963 281.961Z" fill="#907D73"/>
<path d="M306.472 295.547L301.715 297.536L301.936 300.882C301.956 301.006 301.884 301.124 301.764 301.159L299.36 302.165C299.219 302.223 299.15 302.164 299.128 301.998L298.538 288.678C298.526 288.537 298.508 288.384 298.498 288.212C298.443 287.928 298.357 287.642 298.245 287.367C298.207 287.31 298.233 287.226 298.292 287.186L301.604 285.801C301.706 285.759 301.772 285.775 301.811 285.832L311.709 296.767C311.803 296.888 311.79 296.967 311.662 297.02L308.99 298.138C308.905 298.188 308.79 298.163 308.729 298.086L306.472 295.547ZM301.425 294.686L304.674 293.328C304.49 293.097 304.261 292.827 304.014 292.55C303.762 292.26 303.499 291.946 303.232 291.618C302.947 291.284 302.679 290.957 302.394 290.622C302.109 290.288 301.846 289.973 301.597 289.653C301.352 289.346 301.131 289.058 300.919 288.795L300.894 288.806C300.997 289.392 301.075 289.989 301.114 290.601C301.166 291.282 301.228 291.988 301.277 292.699C301.357 293.412 301.404 294.08 301.425 294.686ZM310.178 284.777C309.761 284.966 309.286 284.974 308.862 284.815C308.441 284.625 308.12 284.276 307.96 283.846C307.775 283.426 307.779 282.956 307.969 282.54C308.159 282.124 308.507 281.802 308.929 281.626C309.428 281.417 309.873 281.407 310.271 281.577C310.674 281.76 310.99 282.096 311.145 282.514C311.33 282.934 311.344 283.411 311.164 283.852C310.992 284.276 310.623 284.62 310.178 284.777ZM313.154 296.236L309.244 286.602C309.193 286.477 309.224 286.405 309.339 286.357L311.871 285.298C311.986 285.25 312.063 285.291 312.108 285.404L316.019 295.038C316.075 295.175 316.049 295.259 315.934 295.307L313.427 296.356C313.299 296.409 313.205 296.361 313.154 296.236Z" fill="#EFEDE7"/>
</g>
<g clip-path="url(#clip3_1550_3539)">
<path d="M107.366 139.788V168.884C107.366 169.099 107.246 169.389 106.86 169.664C106.477 169.937 105.896 170.138 105.208 170.138L33.056 170.138C33.0555 170.138 33.055 170.138 33.0546 170.138C32.3631 170.136 31.7816 169.934 31.3986 169.66C31.0132 169.385 30.894 169.097 30.894 168.884V139.788C30.894 139.573 31.0148 139.283 31.4005 139.008C31.7843 138.734 32.3656 138.533 33.0534 138.533H105.208C105.896 138.533 106.477 138.734 106.86 139.008C107.245 139.283 107.366 139.572 107.366 139.788Z" fill="#EFEDE7" stroke="#313B36" stroke-width="2"/>
<path d="M107.366 141.723V143.253H30.894V141.723C30.894 140.763 31.1889 139.932 31.618 139.363C32.0469 138.794 32.5644 138.533 33.0534 138.533H105.208C105.697 138.533 106.214 138.794 106.643 139.362C107.071 139.931 107.366 140.763 107.366 141.723Z" fill="#EFEDE7" stroke="#313B36" stroke-width="2"/>
<path d="M44.0808 150.539H36.4019V158.245H44.0808V150.539Z" fill="#907D73"/>
<path d="M47.9201 154.392H40.2412V162.098H47.9201V154.392Z" fill="#907D73"/>
<path d="M62.0085 150.539H54.3296V158.245H62.0085V150.539Z" fill="#907D73"/>
<path d="M65.8478 154.392H58.1689V162.098H65.8478V154.392Z" fill="#EFEDE7"/>
<path d="M66.1769 162.428H57.8433V154.065H66.1769V162.428ZM58.498 161.769H65.5222V154.721H58.498V161.769Z" fill="#907D73"/>
<path d="M79.9362 150.539H72.2573V158.245H79.9362V150.539Z" fill="#EFEDE7"/>
<path d="M80.2639 158.575H71.9302V150.212H80.2639V158.575ZM72.585 157.916H79.6091V150.868H72.585V157.916Z" fill="#907D73"/>
<path d="M83.7761 154.392H76.0972V162.098H83.7761V154.392Z" fill="#EFEDE7"/>
<path d="M84.1047 162.428H75.771V154.065H84.1047V162.428ZM76.4258 161.769H83.4499V154.721H76.4258V161.769Z" fill="#907D73"/>
<path d="M80.2667 154.06H75.7441V158.558H80.2667V154.06Z" fill="#907D73"/>
<path d="M97.8644 150.539H90.1855V158.245H97.8644V150.539Z" fill="#907D73"/>
<path d="M101.704 154.392H94.0249V162.098H101.704V154.392Z" fill="#907D73"/>
<path d="M97.6933 154.561H94.1753V158.06H97.6933V154.561Z" fill="#EFEDE7"/>
</g>
<g clip-path="url(#clip4_1550_3539)">
<path d="M58.5681 199.279L76.0759 202.73C78.7303 203.253 80.455 205.81 79.9338 208.45L76.6292 225.189C76.108 227.828 73.5405 229.54 70.8861 229.017L53.3783 225.567C50.7239 225.044 48.9991 222.486 49.5203 219.846L52.825 203.108C53.3462 200.468 55.9137 198.756 58.5681 199.279Z" fill="#313B36"/>
<path d="M66.6583 208.051L62.1718 212.944L64.6219 219.554C64.6357 219.604 64.6381 219.651 64.6179 219.694C64.5977 219.736 64.5592 219.694 64.4892 219.692L61.9026 219.182C61.7219 219.146 61.5998 219.111 61.5429 218.983C61.3989 218.464 61.2413 217.955 61.0973 217.436C60.951 216.929 60.7844 216.406 60.6086 215.869C60.4329 215.333 60.2572 214.796 60.0837 214.248L60.0611 214.244C59.7285 214.68 59.3734 215.112 59.0182 215.544C58.6631 215.976 58.3079 216.408 57.9663 216.831C57.6133 217.251 57.2581 217.683 56.9074 218.093C56.8401 218.196 56.7475 218.189 56.6232 218.165L54.1383 217.675C54.0931 217.666 54.0547 217.682 54.0658 217.626C54.0634 217.579 54.0836 217.536 54.1128 217.507L58.7568 212.47L56.4721 206.032C56.4471 205.981 56.4446 205.934 56.4717 205.916C56.5009 205.886 56.5483 205.884 56.5935 205.893L59.1575 206.398C59.214 206.409 59.2683 206.432 59.3112 206.452C59.352 206.483 59.3792 206.524 59.4042 206.575C59.5235 207.1 59.6766 207.633 59.841 208.167C60.0167 208.703 60.1834 209.226 60.3726 209.754C60.5506 210.279 60.7059 210.8 60.8477 211.33L60.8703 211.334C61.2051 210.886 61.549 210.452 61.8906 210.03C62.2323 209.607 62.5852 209.186 62.9382 208.765C63.2911 208.345 63.635 207.911 63.9744 207.499C63.9946 207.456 64.026 207.416 64.0644 207.4C64.114 207.387 64.1614 207.384 64.2156 207.407L66.599 207.876C66.6576 207.876 66.7075 207.921 66.7077 207.979C66.7168 207.993 66.6853 208.033 66.6583 208.051Z" fill="#EFEDE7"/>
<path d="M69.537 220.931C68.6989 220.778 67.8963 220.445 67.2083 219.947C66.561 219.481 66.0801 218.826 65.8043 218.083C65.5217 217.316 65.4869 216.422 65.6888 215.4C65.8416 214.566 66.2181 213.788 66.778 213.152C67.3514 212.506 68.0924 212.022 68.9177 211.764C69.7949 211.482 70.7858 211.456 71.9041 211.676C71.9605 211.687 72.0396 211.703 72.1391 211.734C72.2385 211.765 72.3514 211.787 72.4848 211.825L73.1856 208.276C73.2011 208.197 73.2439 208.159 73.323 208.174L75.6159 208.626C75.6746 208.626 75.7109 208.68 75.7134 208.727C75.7111 208.738 75.7089 208.749 75.7089 208.749L73.5975 219.444C73.5576 219.646 73.5245 219.873 73.487 220.123C73.463 220.363 73.43 220.59 73.4036 220.783C73.388 220.862 73.3409 220.922 73.2551 220.941C72.619 221.072 71.9622 221.129 71.3075 221.117C70.7115 221.105 70.1244 221.047 69.537 220.931ZM71.0875 218.903L72.0634 213.96C71.9662 213.917 71.8689 213.875 71.7695 213.844C71.6475 213.808 71.5254 213.772 71.4012 213.748C70.9607 213.661 70.5024 213.664 70.0671 213.788C69.6454 213.904 69.2624 214.12 68.9429 214.43C68.6234 214.741 68.4038 215.199 68.2885 215.784C68.1996 216.175 68.1897 216.581 68.2521 216.979C68.3052 217.304 68.4214 217.607 68.6029 217.876C68.7776 218.121 69.0063 218.329 69.2823 218.477C69.5673 218.638 69.8747 218.745 70.191 218.808C70.3604 218.841 70.5207 218.861 70.6698 218.879C70.8144 218.919 70.9431 218.921 71.0875 218.903Z" fill="#EFEDE7"/>
</g>
<defs>
<clipPath id="clip0_1550_3539">
<rect width="48.6178" height="94.8333" fill="white" transform="translate(255.127 117.233)"/>
</clipPath>
<clipPath id="clip1_1550_3539">
<rect width="41.9091" height="39.3765" fill="white" transform="matrix(0.961834 0.273635 -0.253207 0.967412 323.701 187.955)"/>
</clipPath>
<clipPath id="clip2_1550_3539">
<rect width="33.2676" height="31.5961" fill="white" transform="matrix(0.92259 -0.385783 0.3761 0.926579 284.528 284.234)"/>
</clipPath>
<clipPath id="clip3_1550_3539">
<rect width="78.4721" height="33.6" fill="white" transform="translate(29.894 137.533)"/>
</clipPath>
<clipPath id="clip4_1550_3539">
<rect width="27.6302" height="26.7948" fill="white" transform="matrix(0.981131 0.193346 -0.193688 0.981063 53.7676 198.333)"/>
</clipPath>
</defs>
</svg>
