<svg width="363" height="369" viewBox="0 0 363 369" fill="none" xmlns="http://www.w3.org/2000/svg">
<path d="M297.616 81.7603C297.552 81.7293 297.557 81.5859 297.53 81.5067L297.464 81.1838C297.421 81.0569 297.351 80.9305 297.297 80.7985C288.051 51.8632 267.667 27.8726 240.631 14.1043C213.594 0.335998 182.118 -2.08211 153.129 7.38189C124.139 16.8459 100.009 37.4168 86.0479 64.5692C72.0867 91.7216 69.4377 123.231 78.6836 152.167L78.906 152.089C84.7355 166.474 136.911 162.777 196.57 143.603C256.23 124.429 301.026 96.9178 297.616 81.7603Z" stroke="#313B36" stroke-width="2" stroke-miterlimit="10"/>
<path d="M188.035 268.454C252.737 268.188 305.128 255.788 305.054 240.758C304.981 225.727 252.47 213.758 187.769 214.024C123.067 214.29 70.6759 226.69 70.7496 241.721C70.8233 256.751 123.334 268.72 188.035 268.454Z" fill="#6A5D54" stroke="#313B36" stroke-width="3" stroke-miterlimit="10"/>
<path d="M172.107 171.296L235.653 172.214L235.257 206.17L203.134 210.395L174.179 213.217L172.107 171.296Z" fill="#907D73"/>
<path d="M198.965 201.816L238.434 188.424C246.675 187.426 284.205 255.223 271.438 285.118C271.438 285.118 287.933 315.347 248.374 344.926C248.374 344.926 255.531 321.092 234.939 297.434L153.556 302.26C153.556 302.26 156.218 229.849 181.139 212.866C185.347 210.101 194.472 205.248 197.564 203.809C199.264 203.018 198.965 201.816 198.965 201.816Z" fill="#D8C5A8"/>
<path d="M203.12 222.6L199.116 214.6L203.12 212.2L206.856 215.934L203.12 222.6Z" fill="#EFEDE7" stroke="#313B36" stroke-width="1.5" stroke-linecap="round"/>
<path d="M199.382 222.333C199.127 228.935 199.086 246.342 199.383 251.667" stroke="#313B36" stroke-width="1.5" stroke-linecap="round"/>
<path d="M207.92 222.867C207.665 229.469 207.624 248.208 207.921 253.533" stroke="#313B36" stroke-width="1.5" stroke-linecap="round"/>
<path d="M185.671 230.418C183.145 238.91 183.146 244.685 183.146 244.685" stroke="#313B36" stroke-width="2" stroke-linecap="round"/>
<path d="M199.541 209.475C198.227 207.297 199.358 203.484 200.088 201.85C199.358 202.213 197.789 203.048 197.351 203.483C196.804 204.028 190.5 210.564 192.142 214.377C193.785 218.19 196.178 218.22 199.197 216.586C200.058 216.12 202.279 213.289 203.373 212.199C204.286 213.833 204.884 216.578 207.573 218.327C209.921 219.855 214.901 218.679 218.738 216.023C221.636 214.017 227.109 208.958 228.271 201.851L221.984 197.493L211.037 208.387C208.847 210.565 204.651 211.836 202.826 212.199C202.278 212.199 200.855 211.654 199.541 209.475Z" fill="#EFEDE7"/>
<path d="M203.852 212.009C203.952 216.188 208.45 223.916 220.101 215.07C229.953 207.59 228.503 197.706 228.401 195.204" stroke="#313B36" stroke-width="2"/>
<path d="M200.174 201.817C193.531 204.835 189.908 213.286 192.928 216.305C196.696 220.071 202.276 214.729 203.215 212.101" stroke="#313B36" stroke-width="2"/>
<path d="M200.302 202.872L200.302 202.871L200.302 202.871L200.302 202.871L200.489 202.499L200.354 202.102L195.431 187.662L216.458 182.083L221.991 197.57C221.888 197.693 221.764 197.841 221.621 198.01C221.151 198.562 220.472 199.345 219.635 200.265C217.958 202.106 215.661 204.481 213.163 206.641C210.65 208.813 207.999 210.708 205.613 211.655C203.22 212.605 201.394 212.506 200.113 211.229C198.899 210.019 198.81 208.099 199.194 206.188C199.379 205.269 199.658 204.433 199.893 203.824C200.01 203.521 200.115 203.278 200.189 203.113C200.226 203.03 200.256 202.967 200.275 202.926C200.285 202.906 200.292 202.891 200.297 202.882L200.301 202.872L200.302 202.872Z" fill="#EFEDE7" stroke="#313B36" stroke-width="2"/>
<path d="M218.994 190.621L216.55 183.119L196.384 189.334L200.274 200.883C214.029 204.165 218.994 190.621 218.994 190.621Z" fill="#F2ECE4"/>
<path d="M204.619 229.496L204.733 231.069C204.744 231.138 204.749 231.208 204.747 231.277C204.732 232.017 203.983 232.598 203.073 232.574C202.164 232.55 201.44 231.931 201.455 231.191C201.456 231.147 201.46 231.103 201.466 231.059L201.458 231.066L201.664 229.47C201.667 229.449 201.675 229.43 201.688 229.413C201.701 229.396 201.718 229.383 201.738 229.374C201.758 229.365 201.78 229.362 201.802 229.363C201.823 229.365 201.845 229.372 201.863 229.383L202.726 229.924C202.858 229.9 202.994 229.89 203.129 229.894C203.256 229.897 203.382 229.912 203.506 229.939L204.351 229.374C204.375 229.357 204.404 229.347 204.434 229.344C204.465 229.342 204.495 229.347 204.523 229.359C204.55 229.372 204.574 229.391 204.59 229.415C204.607 229.439 204.617 229.467 204.619 229.496Z" fill="#313B36"/>
<path d="M204.587 245.419L204.778 246.985C204.792 247.053 204.801 247.122 204.803 247.191C204.824 247.931 204.104 248.549 203.195 248.57C202.285 248.592 201.532 248.01 201.511 247.27C201.509 247.226 201.511 247.181 201.515 247.137L201.507 247.145L201.635 245.54C201.637 245.519 201.644 245.499 201.656 245.482C201.668 245.464 201.684 245.45 201.704 245.441C201.723 245.431 201.745 245.426 201.767 245.427C201.789 245.427 201.81 245.433 201.829 245.443L202.717 245.94C202.849 245.91 202.983 245.893 203.119 245.89C203.245 245.887 203.372 245.896 203.497 245.917L204.313 245.31C204.337 245.292 204.365 245.28 204.395 245.276C204.425 245.272 204.456 245.276 204.484 245.287C204.512 245.298 204.536 245.316 204.554 245.339C204.573 245.363 204.584 245.39 204.587 245.419Z" fill="#313B36"/>
<path d="M165.976 157.538C165.976 157.538 173.06 167.577 176.609 177.201C180.157 186.825 182.275 190.684 186.891 193.406C190.884 195.762 200.178 196.987 205.01 195.781C209.842 194.574 216.519 188.564 219.111 184.313C223.062 177.832 222.677 170.993 222.677 170.993C222.677 170.993 228.244 166.292 226.768 159.954C225.293 153.616 221.909 151.601 217.082 154.985L213.738 134.541L199.476 126.327L183.282 132.138L165.976 157.538Z" fill="#EFEDE7" stroke="#313B36" stroke-width="1.8" stroke-miterlimit="10"/>
<mask id="path-17-inside-1_1550_4304" fill="white">
<path d="M175.476 168.145C174.269 166.239 164.036 166.399 166.413 176.07C168.679 186.261 180.574 184.563 180.574 184.563"/>
</mask>
<path d="M175.476 168.145C174.269 166.239 164.036 166.399 166.413 176.07C168.679 186.261 180.574 184.563 180.574 184.563" fill="#EFEDE7"/>
<path d="M166.413 176.07L168.365 175.596L168.37 175.617L168.375 175.639L166.413 176.07ZM173.773 169.205C173.94 169.468 174.088 169.469 173.875 169.383C173.708 169.314 173.42 169.238 173.024 169.201C172.227 169.126 171.247 169.236 170.38 169.599C169.537 169.952 168.865 170.513 168.472 171.334C168.076 172.162 167.849 173.495 168.365 175.596L164.461 176.545C163.788 173.81 163.949 171.497 164.841 169.634C165.736 167.764 167.252 166.59 168.82 165.933C170.365 165.286 172.021 165.108 173.408 165.237C174.104 165.302 174.796 165.45 175.409 165.7C175.978 165.932 176.71 166.345 177.178 167.084L173.773 169.205ZM168.375 175.639C169.299 179.794 172.089 181.491 174.858 182.213C176.272 182.581 177.648 182.678 178.684 182.678C179.198 182.678 179.616 182.655 179.9 182.632C180.041 182.62 180.148 182.609 180.215 182.602C180.249 182.598 180.272 182.595 180.285 182.593C180.292 182.592 180.296 182.592 180.297 182.592C180.297 182.592 180.297 182.592 180.296 182.592C180.296 182.592 180.295 182.592 180.294 182.592C180.294 182.592 180.293 182.592 180.293 182.592C180.292 182.592 180.291 182.593 180.574 184.563C180.857 186.533 180.856 186.533 180.855 186.533C180.855 186.533 180.854 186.533 180.853 186.534C180.852 186.534 180.85 186.534 180.848 186.534C180.844 186.535 180.84 186.535 180.835 186.536C180.824 186.538 180.811 186.539 180.795 186.541C180.763 186.546 180.719 186.551 180.665 186.557C180.557 186.569 180.406 186.585 180.218 186.6C179.842 186.63 179.313 186.659 178.676 186.659C177.411 186.659 175.672 186.544 173.828 186.063C170.084 185.087 165.793 182.537 164.451 176.502L168.375 175.639Z" fill="#313B36" mask="url(#path-17-inside-1_1550_4304)"/>
<path d="M175.084 179.284C173.304 178.472 172.456 175.355 172.606 174.218" stroke="#313B36" stroke-width="2" stroke-miterlimit="10" stroke-linecap="round"/>
<path d="M185.791 173.516C187.13 173.341 187.985 171.458 187.701 169.309C187.417 167.161 186.101 165.561 184.763 165.736C183.424 165.911 182.569 167.794 182.853 169.943C183.137 172.091 184.452 173.691 185.791 173.516Z" fill="#313B36"/>
<path fill-rule="evenodd" clip-rule="evenodd" d="M182.858 163.479C181.829 163.986 181.277 164.874 181.198 165.379C181.131 165.811 180.704 166.102 180.244 166.03C179.784 165.957 179.466 165.549 179.533 165.117C179.697 164.06 180.618 162.779 182.053 162.072C183.557 161.331 185.589 161.23 187.919 162.484C188.327 162.704 188.475 163.188 188.251 163.567C188.026 163.946 187.515 164.075 187.107 163.856C185.239 162.85 183.818 163.006 182.858 163.479Z" fill="#313B36"/>
<path fill-rule="evenodd" clip-rule="evenodd" d="M206.192 159.068C205.117 159.299 204.367 160.012 204.154 160.477C203.972 160.873 203.504 161.046 203.107 160.863C202.711 160.68 202.537 160.21 202.719 159.814C203.165 158.842 204.359 157.843 205.857 157.521C207.427 157.184 209.296 157.59 211.055 159.369C211.362 159.68 211.36 160.18 211.051 160.487C210.741 160.795 210.241 160.792 209.934 160.481C208.524 159.055 207.193 158.853 206.192 159.068Z" fill="#313B36"/>
<path d="M207.193 169.924C208.542 169.866 209.557 168.064 209.461 165.899C209.365 163.734 208.193 162.026 206.845 162.084C205.496 162.143 204.48 163.945 204.576 166.109C204.672 168.274 205.844 169.982 207.193 169.924Z" fill="#313B36"/>
<path d="M197.213 175.069L199.198 176.022L198.808 172.758" fill="#313B36"/>
<path d="M204.075 183.732C204.245 184.399 204.041 185.125 203.497 185.791C203.239 186.093 202.909 186.373 202.523 186.62C202.087 186.9 201.557 187.106 200.996 187.214C200.434 187.322 199.865 187.327 199.357 187.228C198.909 187.141 198.501 187.002 198.149 186.818C197.394 186.403 196.933 185.803 196.843 185.12C196.722 184.605 196.811 184.054 197.102 183.518C197.189 183.361 197.297 183.208 197.426 183.061C197.684 182.759 198.012 182.479 198.395 182.233C198.829 181.951 199.358 181.744 199.92 181.636C200.481 181.529 201.05 181.525 201.557 181.626C202.007 181.711 202.417 181.85 202.769 182.035C202.942 182.125 203.098 182.227 203.235 182.34C203.706 182.73 203.994 183.208 204.075 183.732Z" fill="#C28145"/>
<path d="M220.536 159.178C221.177 159.972 221.609 160.939 221.788 161.98C221.966 163.02 221.884 164.097 221.55 165.1" stroke="#313B36" stroke-width="2" stroke-miterlimit="10" stroke-linecap="round"/>
<path d="M136.275 293.115L137.845 340.438C137.473 340.589 136.938 340.793 136.276 341.013C134.904 341.469 132.996 341.993 130.844 342.266C126.517 342.817 121.396 342.34 117.569 338.532C116.565 337.533 115.513 335.795 114.458 333.403C113.413 331.031 112.401 328.101 111.441 324.792C109.521 318.177 107.83 310.125 106.498 302.171C105.166 294.219 104.197 286.389 103.718 280.224C103.478 277.14 103.362 274.488 103.381 272.452C103.391 271.433 103.435 270.585 103.511 269.923C103.59 269.233 103.694 268.835 103.778 268.656C106.219 263.461 110.392 258.375 113.125 255.728C115.823 253.114 119.03 251.07 122.552 249.72C126.074 248.37 129.837 247.742 133.614 247.875C137.391 248.008 141.102 248.898 144.523 250.491L144.524 250.491L179.189 266.608L149.869 301.766L137.894 292.303L136.204 290.967L136.275 293.115Z" fill="#EFEDE7" stroke="#313B36" stroke-width="2"/>
<path d="M145.176 347.85L125.24 346.415C125.239 345.885 125.238 345.137 125.237 344.2C125.235 342.191 125.235 339.311 125.244 335.829C125.261 328.865 125.313 319.492 125.45 309.854C125.588 300.215 125.811 290.318 126.17 282.304C126.35 278.296 126.564 274.768 126.817 271.983C127.073 269.16 127.363 267.201 127.666 266.26C129.031 262.028 130.1 259.387 131.153 257.483C132.191 255.605 133.227 254.418 134.578 253.11C137.276 250.496 140.483 248.452 144.005 247.102C147.527 245.752 151.291 245.124 155.067 245.257C158.844 245.389 162.556 246.279 165.977 247.873L165.978 247.873L200.644 263.99L171.304 299.151L159.348 289.686L158.092 288.691L157.751 290.252L145.176 347.85Z" fill="#EFEDE7" stroke="#313B36" stroke-width="2"/>
<path d="M203.195 274.134L193.801 268.256L193.606 268.133L193.377 268.108L193.273 269.102C193.377 268.108 193.377 268.108 193.377 268.108L193.377 268.108L193.375 268.108L193.366 268.107L193.333 268.103L193.202 268.089C193.086 268.076 192.917 268.057 192.7 268.032C192.268 267.982 191.648 267.909 190.902 267.817C189.408 267.633 187.41 267.374 185.388 267.073C183.361 266.77 181.329 266.428 179.759 266.078C178.971 265.903 178.326 265.732 177.866 265.571C177.634 265.49 177.477 265.421 177.381 265.369C177.379 265.368 177.378 265.367 177.376 265.366C177.308 265.235 177.205 265.013 177.068 264.687C176.897 264.279 176.694 263.762 176.472 263.17C176.026 261.988 175.51 260.534 175.018 259.118C174.526 257.702 174.061 256.329 173.718 255.31C173.547 254.8 173.406 254.379 173.309 254.085L173.196 253.746L173.167 253.657L173.159 253.634L173.157 253.629L173.157 253.627L173.157 253.627L172.206 253.935L173.157 253.627L172.925 252.925L172.186 252.936C170.311 252.963 168.288 252.423 166.581 251.624C165.066 250.916 163.939 250.072 163.373 249.375C163.521 249.407 163.685 249.444 163.867 249.487C164.332 249.597 164.87 249.733 165.497 249.892C165.88 249.988 166.295 250.093 166.748 250.206C168.11 250.545 169.77 250.496 171.419 250.278C173.086 250.058 174.833 249.653 176.409 249.217C177.988 248.779 179.415 248.306 180.445 247.942C180.961 247.76 181.38 247.604 181.67 247.494C181.815 247.439 181.928 247.396 182.006 247.365L182.095 247.33L182.119 247.321L182.125 247.318L182.127 247.318L182.127 247.317C182.128 247.317 182.128 247.317 181.751 246.389L182.128 247.317L183.418 246.801L182.51 245.742L182.51 245.742L182.51 245.742L182.51 245.742L182.51 245.742L182.506 245.737L182.486 245.714C182.468 245.692 182.44 245.658 182.404 245.614C182.333 245.526 182.228 245.394 182.102 245.228C181.849 244.894 181.513 244.425 181.18 243.885C180.482 242.75 179.926 241.5 179.947 240.547C179.953 240.291 179.994 240.18 180.017 240.14C180.059 240.128 180.228 240.093 180.63 240.194C181.571 240.433 182.939 241.201 184.431 242.226C185.89 243.227 187.354 244.392 188.46 245.313C189.012 245.772 189.471 246.168 189.791 246.449C189.952 246.589 190.077 246.7 190.162 246.776C190.205 246.814 190.237 246.843 190.258 246.862L190.282 246.884L190.287 246.888L190.288 246.889L190.289 246.89L190.29 246.89L202.863 258.352L203.195 274.134ZM180.033 240.121C180.033 240.122 180.03 240.127 180.021 240.134C180.028 240.124 180.032 240.121 180.033 240.121ZM162.334 249.223C162.334 249.223 162.336 249.223 162.34 249.222C162.336 249.223 162.334 249.223 162.334 249.223ZM177.316 265.329C177.316 265.329 177.319 265.331 177.323 265.334C177.318 265.331 177.315 265.329 177.316 265.329Z" fill="#EFEDE7" stroke="#313B36" stroke-width="2"/>
<path d="M237.243 197.063C227.872 196.358 228.799 209.017 243.156 259.778L202.748 255.439L191.86 275.49C191.86 275.49 221.292 306.921 252.888 288.06C278.531 278.356 273.954 260.746 268.045 238.112C260.796 210.344 250.895 200.657 237.243 197.063Z" fill="#D8C5A8"/>
<path d="M202.662 254.929C205.429 254.1 215.124 256.628 215.124 256.628L213.991 260.024L209.667 271.444L194.66 270.046C194.66 270.046 196.998 256.627 202.662 254.929Z" fill="#907D73"/>
<path d="M237.782 228.98C237.782 228.98 238.834 237.728 240.493 244.029C242.153 250.329 244.184 259.856 244.184 259.856L203.799 254.76" stroke="#313B36" stroke-width="2" stroke-linecap="round"/>
<path d="M163.002 244.347C162.35 245.74 155.949 237.743 155.941 224.512C155.932 211.282 157.073 209.227 157.638 200.735C158.204 192.243 160.02 183.198 159.084 167.041C158.322 153.884 159.912 141.667 167.87 130.911C173.422 123.407 185.873 117.367 194.486 119.215C208.929 113.732 221.748 128.548 228.056 141.03C234.365 153.512 234.097 163.942 241.884 176.901C244.643 181.492 246.559 187.154 257.587 198.375C268.615 209.597 262.968 222.168 262.968 222.168C262.968 222.168 256.188 207.535 245.993 205.269C235.798 203.004 226.075 203.234 224.471 200.739C219.373 192.813 219.134 188.219 219.132 185.543C219.132 185.543 221.239 181.396 221.796 179.169C222.399 176.755 222.959 173.18 223.125 171.201C224.919 169.205 227.187 166.424 227.304 163.4C227.469 159.171 226.262 155.671 224.311 154.489C222.015 153.099 219.807 155.159 218.412 156.857C217.018 158.554 213.529 157.896 213.529 157.896C213.529 157.896 210.879 158.838 206.55 154.478C200.227 148.109 196.766 139.797 196.766 139.797C188.741 142.235 183.964 150.19 181.495 158.532C178.475 168.74 173.71 171.323 173.71 171.323C173.71 171.323 172.495 169.029 170.033 169.617C167.571 170.205 166.698 171.863 168.398 177.525C170.098 183.186 174.062 184.885 179.16 184.885C181.426 192.245 189.922 195.642 189.922 195.642C192.995 199.753 198.253 200.69 181.994 213.191C170.662 221.904 166.641 236.569 163.002 244.347Z" fill="#907D73"/>
<path d="M214.454 258.591C213.426 259.955 209.313 269.849 209.314 278.038" stroke="#313B36" stroke-width="2" stroke-linecap="round"/>
<path d="M166.44 148.626L99.2933 208.716L124.179 243.014L197.545 245.332L166.44 148.626Z" fill="url(#paint0_linear_1550_4304)"/>
<path d="M95.4604 200.353L95.4566 200.355C95.2054 200.495 94.986 200.686 94.813 200.917C94.64 201.148 94.5172 201.413 94.453 201.695C94.3887 201.978 94.3845 202.27 94.4406 202.555C94.4966 202.838 94.6112 203.106 94.7767 203.341C94.7772 203.342 94.7777 203.342 94.7782 203.343L127.413 249.096L183.43 249.858C183.691 249.293 183.633 248.449 183.161 247.496C182.893 246.952 182.528 246.471 182.147 246.132C181.758 245.785 181.438 245.66 181.246 245.646L130.782 244.277L130.296 244.264L130.006 243.874L98.0832 200.927L98.0799 200.922C97.7861 200.522 97.3579 200.245 96.8761 200.14C96.3944 200.036 95.8911 200.111 95.4604 200.353Z" fill="#EFEDE7" stroke="#313B36" stroke-width="2"/>
<path d="M188.61 361.739C144.167 361.719 115.064 345.866 96.8734 323.049C79.4396 301.181 71.9437 272.808 70.7212 245.555C72.8358 248.25 75.8742 250.654 79.8738 252.792C85.4058 255.749 92.8395 258.233 102.382 260.286C121.465 264.393 149.171 266.818 187.411 267.752C219.468 268.536 249.187 265.391 270.916 260.236C281.774 257.66 290.686 254.571 296.906 251.19C300.014 249.5 302.496 247.713 304.212 245.842C304.57 245.452 304.897 245.056 305.191 244.653C305.195 244.806 305.199 244.963 305.203 245.123C305.281 248.457 305.249 253.227 304.809 258.952C303.928 270.409 301.414 285.664 294.895 300.901C288.378 316.131 277.868 331.329 260.992 342.722C244.118 354.113 220.808 361.75 188.61 361.739Z" fill="#E7E1D2" stroke="#313B36" stroke-width="2"/>
<path opacity="0.4" d="M91.661 317.721C77.5573 298.139 70.0701 268.463 69.5938 241.887C69.5938 241.887 70.7192 244.185 72.8826 246.452C74.2793 248.004 76.1871 249.409 77.7108 250.503C81.4486 253.188 89.875 256.197 89.875 256.197C91.4523 262.683 93.5127 286.475 112.001 313.669C135.112 347.661 179.932 362.502 179.932 362.502C165.16 362.083 151.396 358.819 145.081 356.679C129.819 351.507 110.072 343.284 91.661 317.721Z" fill="black" fill-opacity="0.4"/>
<path d="M229.622 136.408C232.67 128.299 231.882 117.284 221.799 112.286C211.716 107.289 219.129 123.095 219.129 123.095C220.95 128.734 228.69 122.341 222.892 137.527C220.739 143.167 220.205 151.217 223.953 154.31C229.94 159.25 232.148 152.944 229.525 151.768C226.681 150.493 225.811 146.544 229.622 136.408Z" fill="#EFEDE7" stroke="#313B36" stroke-width="2"/>
<path d="M226.755 145.418C225.918 146.251 223.615 142.293 221.522 145.418C221.289 145.649 221.592 150.556 223.266 153.055C225.359 156.18 226.406 155.833 228.15 156.18C229.895 156.527 230.592 154.444 230.592 153.403C230.592 152.361 228.848 151.667 228.15 150.972C227.592 150.417 226.987 146.112 226.755 145.418Z" fill="#C28145"/>
<path d="M229.622 136.408C232.67 128.299 231.882 117.284 221.799 112.286C211.716 107.289 219.129 123.095 219.129 123.095C220.95 128.734 228.69 122.341 222.892 137.527C220.739 143.167 220.205 151.217 223.953 154.31C229.94 159.25 232.148 152.944 229.525 151.768C226.681 150.493 225.811 146.544 229.622 136.408Z" stroke="#313B36" stroke-width="2"/>
<path d="M145.82 121.811C145.103 122.165 146.867 127.018 148.96 129.448C148.611 134.309 150.84 139.861 156.369 140.909C163.695 142.298 169.521 135.266 169.521 135.266C169.521 135.266 169.953 137.003 183.943 136.049C191.204 135.553 196.906 133.441 198.186 132.934C197.47 133.237 195.535 134.14 194.959 135.266C194.522 136.12 193.936 137.722 195.595 138.552C199.41 140.461 211.283 138.808 214.037 138.234C221.668 136.643 225.371 132.298 227.391 124.869C230.016 115.215 219.545 103.231 208.027 102.026C196.488 100.82 192.961 98.0264 180.453 103.231C170.561 107.346 165.007 115.215 165.007 115.215C165.007 115.215 159.599 110.875 159.077 111.396C158.659 111.813 157.856 117.209 158.03 118.687C158.03 118.687 155.588 119.034 154.193 120.075C152.797 121.117 151.402 123.2 151.402 123.2C149.834 122.939 146.414 121.518 145.82 121.811Z" fill="#EFEDE7"/>
<path d="M215.592 115.909C211.911 112.222 208.589 115.738 208.129 118.043C198.498 118.043 201.289 124.936 204.449 127.723C206.9 129.885 212.412 130.511 215.592 127.723C218.771 124.936 219.272 119.597 215.592 115.909Z" fill="#C28145"/>
<path d="M146.518 125.63L148.96 129.448L149.658 132.92C154.402 131.809 155.356 126.903 155.589 124.241C161.17 127.852 179.66 121.811 178.962 114.521C178.264 107.23 171.029 108.97 171.029 108.97L165.008 115.562L162.914 113.479L159.077 111.396L158.379 114.521L158.031 118.687L156.286 119.034L153.495 120.77L151.053 123.547L145.472 121.811L146.518 125.63Z" fill="#C28145"/>
<path d="M162.064 125.696L163.7 124.592" stroke="#313B36" stroke-width="2" stroke-linecap="round"/>
<path d="M154.014 130.384L155.691 129.576" stroke="#313B36" stroke-width="2" stroke-linecap="round"/>
<ellipse cx="0.596147" cy="0.593076" rx="0.596147" ry="0.593076" transform="matrix(0.990828 0.135128 -0.136558 0.990632 160.363 129.295)" fill="#313B36"/>
<path d="M160.913 134.039L161.575 131.854L163.699 132.23" stroke="#313B36" stroke-width="1.5" stroke-linecap="round"/>
<path d="M167.711 128.398C168.603 128.09 170.712 127.45 172.014 127.357" stroke="#313B36" stroke-linecap="round"/>
<path d="M166.664 126.663C166.664 126.663 168.06 124.927 171.2 124.592" stroke="#313B36" stroke-linecap="round"/>
<path d="M154.077 136.722C153.355 137.327 151.723 138.802 150.977 139.868" stroke="#313B36" stroke-linecap="round"/>
<path d="M152.774 134.861C151.472 135.302 149.56 136.042 148.176 137.794" stroke="#313B36" stroke-linecap="round"/>
<path d="M200.94 110.702C196.16 111.747 192.836 118.608 196.861 126.553C198.04 128.879 198.947 131.977 198.901 133.346C194.239 133.993 194.53 138.522 197.735 139.169" stroke="#313B36" stroke-width="2" stroke-linecap="round"/>
<path d="M185.584 136.087C185.584 136.087 175.811 137.095 170.575 135.012C167.635 133.842 169.075 131.358 171.54 130.412C173.093 129.816 175.237 130.412 178.01 130.412" stroke="#313B36" stroke-width="1.8" stroke-linecap="round"/>
<path d="M191.521 105.842C183.427 106.397 182.198 104.225 182.547 102.721C183.943 102.373 187.736 100.988 192.669 100.638C197.556 100.29 202.327 101.448 204.537 102.373C203.374 104.225 199.614 105.286 191.521 105.842Z" fill="#C28145"/>
<path d="M148.96 129.448C146.867 127.018 145.103 122.165 145.82 121.811C146.414 121.518 149.835 122.939 151.402 123.2C151.402 123.2 152.797 121.117 154.193 120.075C155.588 119.034 158.03 118.687 158.03 118.687C157.856 117.209 158.659 111.813 159.077 111.396C159.599 110.875 165.007 115.215 165.007 115.215C165.007 115.215 170.561 107.346 180.453 103.231C192.961 98.0264 196.488 100.82 208.027 102.026C219.545 103.231 230.016 115.215 227.391 124.869C225.371 132.298 221.668 136.643 214.037 138.234C211.283 138.808 199.41 140.461 195.595 138.552C193.936 137.722 194.522 136.12 194.959 135.266C195.671 133.875 198.456 132.824 198.456 132.824C198.456 132.824 192.908 135.832 184.641 136.396C170.651 137.351 169.521 135.266 169.521 135.266C169.521 135.266 163.695 142.298 156.369 140.909C150.84 139.861 148.611 134.309 148.96 129.448Z" stroke="#313B36" stroke-width="2"/>
<path d="M311.477 308.888C310.976 303.668 310.935 298.419 310.313 293.205C309.648 287.641 307.728 280.231 300.489 279.209C299.003 278.974 297.462 279.13 296.046 279.659C294.631 280.188 293.401 281.066 292.501 282.192C290.434 284.74 290.602 288.372 290.376 291.361C289.847 298.488 290.39 305.525 292.698 312.291C293.455 314.512 297.171 312.985 296.421 310.775C294.659 305.361 293.923 299.692 294.244 294.004C294.308 292.486 294.426 290.968 294.582 289.457C294.72 288.128 294.691 286.505 295.178 285.24C296.202 282.581 299.584 282.149 301.9 283.572C306.697 286.506 306.428 294.168 306.794 298.814C307.067 302.357 307.128 305.91 307.469 309.447C307.693 311.786 311.697 311.199 311.474 308.868L311.477 308.888Z" fill="#313B36"/>
<path d="M291.033 317.374C289.397 309.975 287.968 302.199 288.645 294.593C288.933 291.329 289.589 287.582 291.915 285.123C292.476 284.542 293.169 284.103 293.936 283.845C293.936 283.845 293.75 283.754 294.177 283.786C294.627 283.823 295.059 283.981 295.427 284.243C295.567 284.333 295.676 284.461 295.809 284.56C296.269 284.902 295.749 284.454 296.033 284.773C296.578 285.29 296.986 285.934 297.22 286.646C297.728 287.902 298.096 289.209 298.319 290.544C299.846 298.175 300.284 306.07 300.905 313.811C301.088 316.149 304.696 315.614 304.515 313.289C303.919 305.605 303.47 297.753 301.974 290.162C301.439 287.459 300.767 284.489 298.82 282.411C296.393 279.814 293.127 279.554 290.328 281.693C287.38 283.935 286.067 287.724 285.421 291.228C283.807 299.955 285.552 309.333 287.435 317.866C287.936 320.141 291.549 319.639 291.045 317.344L291.033 317.374Z" fill="#D8C5A8"/>
<path d="M319.37 339.437C319.37 339.437 322.506 338.371 322.692 340.417C322.877 342.464 323.341 345.696 323.433 347.381C323.526 349.066 320.343 349.054 320.343 349.054L319.37 339.437Z" fill="#313B36"/>
<path d="M319.337 306.441C319.337 306.441 304.565 305.918 296.208 309.535C283.698 314.95 273.08 312.629 273.08 312.629C273.08 312.629 269.062 334.295 270.441 347.93C271.694 360.306 278.281 364.72 279.614 365.665C281.548 367.027 292.989 364.188 304.629 362.163C315.095 357.649 326.605 359.262 326.781 358.843C327.884 356.181 321.347 349.365 319.337 337.168C317.734 327.441 320.903 312.523 319.337 306.441Z" fill="#D8C5A8"/>
<path fill-rule="evenodd" clip-rule="evenodd" d="M318.19 329.535C318.381 329.318 318.711 329.296 318.929 329.486C319.146 329.675 319.168 330.004 318.978 330.221L318.584 329.878C318.978 330.221 318.978 330.221 318.977 330.221L318.977 330.221L318.976 330.222L318.974 330.225L318.966 330.234C318.96 330.241 318.951 330.25 318.94 330.262C318.918 330.286 318.886 330.32 318.844 330.363C318.76 330.449 318.637 330.57 318.473 330.718C318.147 331.015 317.66 331.42 317.006 331.869C315.699 332.766 313.726 333.835 311.044 334.547C310.765 334.621 310.478 334.456 310.404 334.178C310.329 333.9 310.495 333.615 310.774 333.541C313.326 332.864 315.19 331.85 316.412 331.011C317.023 330.592 317.473 330.216 317.768 329.949C317.915 329.815 318.024 329.708 318.094 329.636C318.129 329.601 318.155 329.573 318.171 329.556L318.187 329.538L318.19 329.535L318.19 329.535Z" fill="#313B36"/>
<path fill-rule="evenodd" clip-rule="evenodd" d="M313.827 335.861C315.619 335.406 317.417 335.325 319.123 335.989C319.392 336.094 319.525 336.396 319.42 336.663C319.315 336.931 319.011 337.064 318.742 336.959C317.308 336.401 315.749 336.448 314.085 336.87C312.417 337.294 310.683 338.086 308.922 338.974C308.393 339.24 307.861 339.516 307.327 339.792C306.103 340.427 304.876 341.063 303.692 341.586C301.989 342.338 300.294 342.896 298.699 342.896C298.41 342.896 298.176 342.663 298.176 342.376C298.176 342.088 298.41 341.855 298.699 341.855C300.069 341.855 301.601 341.37 303.267 340.634C304.421 340.125 305.6 339.513 306.809 338.886C307.349 338.606 307.896 338.323 308.449 338.044C310.22 337.152 312.04 336.315 313.827 335.861Z" fill="#313B36"/>
<path d="M323.94 354.425C320.677 354.424 317.215 354.976 314.398 355.568C309.037 356.662 305.369 358.411 299.425 359.545C292.151 360.933 283.001 363.205 280.908 362.511C278.814 361.817 275.937 360.285 273.93 356.956C271.837 353.485 270.442 348.624 270.442 348.624C271.542 358.321 276.721 363.623 279.645 365.682C281.424 366.934 293.118 367.371 302.886 363.854C311.863 360.621 326.622 359.315 326.812 358.859C327.176 357.989 326.812 355.392 325.212 353.485C325.212 353.485 325.007 354.16 323.94 354.425Z" fill="#313B36"/>
<path fill-rule="evenodd" clip-rule="evenodd" d="M306.03 313.6L304.671 309.284L300.33 310.636L301.69 314.953L306.03 313.6ZM305.337 309.076C305.221 308.71 304.83 308.506 304.462 308.621L300.121 309.973C299.754 310.088 299.549 310.477 299.664 310.843L301.024 315.16C301.139 315.526 301.53 315.73 301.898 315.615L306.239 314.263C306.607 314.148 306.811 313.759 306.696 313.393L305.337 309.076Z" fill="#313B36"/>
<path fill-rule="evenodd" clip-rule="evenodd" d="M301.201 315.133L304.54 308.782L305.158 309.104L301.819 315.455L301.201 315.133Z" fill="#313B36"/>
<path fill-rule="evenodd" clip-rule="evenodd" d="M300.172 310.114L306.517 313.511L306.187 314.122L299.842 310.726L300.172 310.114Z" fill="#313B36"/>
<path fill-rule="evenodd" clip-rule="evenodd" d="M291.514 317.999L290.951 313.51L286.437 314.07L287 318.559L291.514 317.999ZM291.643 313.424C291.595 313.044 291.247 312.774 290.864 312.821L286.351 313.381C285.968 313.428 285.697 313.775 285.745 314.155L286.308 318.644C286.355 319.025 286.704 319.295 287.086 319.248L291.6 318.688C291.982 318.641 292.254 318.294 292.206 317.914L291.643 313.424Z" fill="#313B36"/>
<path fill-rule="evenodd" clip-rule="evenodd" d="M286.488 318.649L290.913 312.993L291.463 313.42L287.038 319.075L286.488 318.649Z" fill="#313B36"/>
<path fill-rule="evenodd" clip-rule="evenodd" d="M286.376 313.528L292.009 317.998L291.574 318.54L285.941 314.071L286.376 313.528Z" fill="#313B36"/>
<path fill-rule="evenodd" clip-rule="evenodd" d="M317.538 314.776C315.11 314.776 305.149 315.212 297.872 318.548C292.884 320.834 287.472 321.279 283.063 321.073C278.655 320.867 275.207 320.008 274.114 319.646C273.84 319.555 273.691 319.26 273.783 318.987C273.874 318.714 274.171 318.567 274.445 318.658C275.445 318.99 278.799 319.831 283.112 320.032C287.425 320.234 292.653 319.793 297.434 317.602C304.928 314.166 315.082 313.735 317.538 313.735C317.827 313.735 318.061 313.968 318.061 314.256C318.061 314.543 317.827 314.776 317.538 314.776Z" fill="#313B36"/>
<g clip-path="url(#clip0_1550_4304)">
<path d="M306.098 100.956L326.618 104.875C329.219 105.372 330.852 107.779 330.358 110.205L326.484 129.217C325.99 131.643 323.536 133.27 320.935 132.773L300.414 128.854C297.813 128.357 296.181 125.95 296.675 123.524L300.548 104.512C301.043 102.086 303.497 100.459 306.098 100.956Z" fill="#313B36" stroke="#EFEDE7" stroke-width="2"/>
<path d="M315.78 109.94L310.521 115.497L313.393 123.006C313.409 123.062 313.412 123.115 313.388 123.164C313.364 123.212 313.319 123.164 313.237 123.161L310.205 122.582C309.994 122.542 309.851 122.501 309.784 122.356C309.615 121.767 309.43 121.188 309.261 120.599C309.09 120.023 308.895 119.429 308.689 118.82C308.483 118.21 308.277 117.601 308.074 116.979L308.047 116.974C307.657 117.469 307.241 117.96 306.825 118.45C306.408 118.941 305.992 119.431 305.592 119.912C305.178 120.39 304.762 120.88 304.351 121.345C304.272 121.463 304.163 121.455 304.018 121.427L301.105 120.871C301.052 120.861 301.007 120.879 301.02 120.815C301.017 120.762 301.041 120.713 301.075 120.68L306.518 114.958L303.84 107.646C303.811 107.588 303.808 107.534 303.84 107.514C303.874 107.481 303.93 107.478 303.983 107.488L306.988 108.062C307.054 108.075 307.118 108.1 307.168 108.123C307.216 108.158 307.248 108.204 307.277 108.263C307.417 108.86 307.596 109.464 307.789 110.071C307.995 110.68 308.19 111.274 308.412 111.873C308.621 112.47 308.803 113.062 308.969 113.663L308.996 113.668C309.388 113.16 309.791 112.667 310.191 112.187C310.592 111.706 311.006 111.229 311.419 110.751C311.833 110.273 312.236 109.78 312.634 109.312C312.657 109.264 312.694 109.218 312.739 109.2C312.797 109.185 312.853 109.182 312.917 109.207L315.71 109.741C315.779 109.741 315.837 109.792 315.837 109.858C315.848 109.873 315.811 109.919 315.78 109.94Z" fill="#EFEDE7"/>
<path d="M319.153 124.57C318.171 124.395 317.23 124.017 316.423 123.452C315.665 122.922 315.101 122.178 314.778 121.335C314.447 120.463 314.406 119.447 314.642 118.286C314.822 117.339 315.263 116.456 315.919 115.733C316.591 115 317.46 114.45 318.427 114.157C319.455 113.836 320.617 113.806 321.927 114.057C321.994 114.069 322.086 114.087 322.203 114.123C322.319 114.158 322.452 114.183 322.608 114.226L323.429 110.194C323.448 110.105 323.498 110.061 323.59 110.079L326.278 110.592C326.347 110.592 326.389 110.653 326.392 110.707C326.39 110.72 326.387 110.732 326.387 110.732L323.912 122.88C323.865 123.11 323.827 123.368 323.783 123.651C323.755 123.924 323.716 124.182 323.685 124.401C323.667 124.49 323.611 124.559 323.511 124.58C322.765 124.729 321.996 124.794 321.228 124.78C320.53 124.766 319.841 124.701 319.153 124.57ZM320.97 122.265L322.114 116.651C322 116.603 321.886 116.554 321.77 116.519C321.627 116.478 321.484 116.438 321.338 116.41C320.822 116.311 320.284 116.315 319.774 116.456C319.28 116.587 318.831 116.833 318.457 117.185C318.082 117.538 317.825 118.059 317.69 118.722C317.585 119.166 317.574 119.628 317.647 120.08C317.709 120.449 317.845 120.794 318.058 121.099C318.263 121.377 318.531 121.614 318.854 121.782C319.188 121.965 319.549 122.087 319.919 122.157C320.118 122.195 320.306 122.218 320.481 122.238C320.65 122.284 320.801 122.286 320.97 122.265Z" fill="#EFEDE7"/>
</g>
<path d="M312.774 206.007L312.774 206.007C311.279 206.163 309.785 205.734 308.619 204.82C307.455 203.906 306.717 202.584 306.557 201.148C306.557 201.148 306.557 201.147 306.556 201.147L302.601 165.189L302.601 165.189C302.443 163.753 302.875 162.311 303.809 161.179C304.744 160.046 306.106 159.316 307.601 159.158C307.601 159.158 307.601 159.158 307.601 159.158L344.469 155.3L344.469 155.3C345.964 155.144 347.459 155.573 348.624 156.488C349.788 157.401 350.526 158.723 350.687 160.159C350.687 160.159 350.687 160.16 350.687 160.16L354.642 196.118L354.642 196.118C354.8 197.554 354.368 198.996 353.434 200.127C352.499 201.26 351.136 201.989 349.642 202.147L312.774 206.007Z" fill="#EFEDE7" stroke="#313B36" stroke-width="2"/>
<path d="M349.695 181.136L360.048 182.768L357.912 184.789L362.329 187.465L360.535 190.229L356.134 187.246L354.819 190.047L349.695 181.136Z" fill="#313B36"/>
<path d="M328.814 181.582C328.675 180.339 329.05 179.093 329.855 178.119C330.661 177.145 331.831 176.522 333.109 176.387C334.387 176.252 335.667 176.616 336.669 177.4C337.671 178.183 338.311 179.321 338.45 180.564C338.589 181.807 338.214 183.053 337.409 184.027C336.604 185.002 335.433 185.625 334.155 185.76C332.878 185.895 331.597 185.531 330.595 184.747C329.594 183.964 328.953 182.825 328.814 181.582V181.582Z" stroke="#313B36" stroke-width="2"/>
<path d="M320.224 191.973C320.086 190.73 320.46 189.484 321.266 188.51C322.071 187.536 323.241 186.912 324.519 186.777L329.337 186.269L329.86 190.955C329.999 192.198 329.625 193.444 328.819 194.418C328.014 195.392 326.843 196.016 325.565 196.151C324.288 196.286 323.007 195.921 322.005 195.138C321.004 194.354 320.363 193.216 320.224 191.973Z" stroke="#313B36" stroke-width="2"/>
<path d="M327.244 167.523L328.29 176.896L333.108 176.387C334.386 176.252 335.557 175.629 336.362 174.654C337.168 173.68 337.542 172.434 337.403 171.191C337.265 169.949 336.624 168.81 335.622 168.027C334.621 167.243 333.34 166.879 332.062 167.014L327.244 167.523Z" stroke="#313B36" stroke-width="2"/>
<path d="M318.132 173.227C318.27 174.47 318.911 175.608 319.913 176.392C320.914 177.175 322.195 177.54 323.473 177.405L328.291 176.896L327.244 167.523L322.426 168.031C321.149 168.166 319.978 168.79 319.173 169.764C318.367 170.738 317.993 171.984 318.132 173.227Z" stroke="#313B36" stroke-width="2"/>
<path d="M319.177 182.6C319.316 183.843 319.957 184.981 320.959 185.765C321.96 186.548 323.241 186.913 324.519 186.778L329.337 186.269L328.29 176.896L323.472 177.404C322.194 177.539 321.024 178.163 320.219 179.137C319.413 180.111 319.039 181.357 319.177 182.6Z" stroke="#313B36" stroke-width="2"/>
<g clip-path="url(#clip1_1550_4304)">
<path d="M34.204 109.343L49.1158 111.982C51.3767 112.382 52.8691 114.482 52.4542 116.679L49.8237 130.611C49.4088 132.808 47.2454 134.261 44.9846 133.861L30.0728 131.222C27.8119 130.821 26.3195 128.721 26.7344 126.524L29.3649 112.593C29.7798 110.396 31.9431 108.943 34.204 109.343Z" fill="#907D73"/>
<path d="M38.8039 123.684L35.225 123.051L34.079 125.119C34.0438 125.199 33.9563 125.242 33.8715 125.217L32.0628 124.897C31.957 124.878 31.9387 124.817 31.9887 124.71L36.7232 116.591C36.7697 116.502 36.8179 116.405 36.8776 116.299C36.9532 116.11 37.0113 115.907 37.0501 115.702C37.0493 115.653 37.0966 115.613 37.1465 115.613L39.6382 116.054C39.7152 116.067 39.7484 116.102 39.7491 116.15L41.4422 126.402C41.4517 126.51 41.414 126.552 41.3178 126.535L39.3071 126.179C39.238 126.177 39.1794 126.118 39.1726 126.049L38.8039 123.684ZM36.1414 121.251L38.585 121.684C38.5644 121.477 38.5315 121.23 38.4909 120.972C38.4519 120.704 38.4165 120.417 38.3829 120.121C38.3415 119.815 38.3078 119.519 38.2664 119.212C38.2249 118.905 38.1895 118.619 38.1637 118.334C38.1362 118.058 38.1148 117.803 38.0898 117.567L38.0705 117.564C37.908 117.95 37.7263 118.334 37.5157 118.712C37.2866 119.135 37.0541 119.577 36.8119 120.017C36.5871 120.47 36.3598 120.884 36.1414 121.251ZM45.1112 118.713C44.792 118.666 44.507 118.49 44.3168 118.234C44.1396 117.961 44.0824 117.632 44.1521 117.316C44.2025 116.997 44.3841 116.72 44.6556 116.545C44.9271 116.371 45.2561 116.314 45.5736 116.37C45.9488 116.436 46.2162 116.599 46.3873 116.852C46.5565 117.114 46.6155 117.433 46.5476 117.74C46.4972 118.06 46.3235 118.348 46.0485 118.541C45.7848 118.726 45.4348 118.79 45.1112 118.713ZM42.5013 126.638L43.8607 119.439C43.8783 119.345 43.9239 119.315 44.0105 119.33L45.9153 119.667C46.0019 119.682 46.0316 119.736 46.0157 119.82L44.6563 127.02C44.6368 127.122 44.5895 127.162 44.503 127.147L42.6173 126.813C42.5211 126.796 42.4836 126.732 42.5013 126.638Z" fill="#EFEDE7"/>
</g>
<g clip-path="url(#clip2_1550_4304)">
<path d="M6.12495 166.022L28.463 157.584C31.8498 156.305 35.6433 157.887 36.9486 161.123L45.2246 181.639C46.5298 184.875 44.8469 188.525 41.4602 189.805L19.1221 198.242C15.7354 199.521 11.9419 197.94 10.6366 194.704L2.3606 174.188C1.05533 170.952 2.73821 167.301 6.12495 166.022Z" fill="#313B36"/>
<path d="M16.8968 187.991L11.1813 173.823C11.1425 173.726 11.1635 173.655 11.2644 173.617C11.5094 173.524 11.7399 173.437 12.0659 173.298C12.4062 173.154 12.7665 173.018 13.15 172.857C13.5336 172.696 13.9515 172.538 14.3927 172.356C14.8339 172.173 15.2663 172.01 15.6986 171.847C16.8804 171.4 17.9159 171.168 18.8396 171.152C19.6546 171.114 20.4731 171.249 21.2262 171.552C21.8652 171.818 22.4421 172.219 22.9115 172.724C23.3609 173.221 23.7151 173.769 23.965 174.389C24.4427 175.573 24.5488 176.66 24.2834 177.648C24.018 178.637 23.4442 179.52 22.6408 180.205C21.7996 180.919 20.7687 181.451 19.587 181.898C19.2411 182.028 19.0105 182.115 18.8608 182.156C18.7112 182.197 18.5094 182.273 18.2356 182.376L20.0185 186.796C20.0718 186.887 20.0331 186.997 19.9378 187.049C19.9234 187.055 19.9089 187.06 19.8801 187.071L17.1419 188.105C17.0266 188.149 16.9468 188.115 16.8968 187.991ZM15.334 175.142L17.2002 179.769C17.4076 179.706 17.6005 179.649 17.7734 179.584L18.5372 179.295C19.0993 179.083 19.628 178.788 20.0946 178.421C20.5058 178.123 20.8038 177.709 20.9819 177.245C21.1457 176.787 21.101 176.264 20.8566 175.658C20.6988 175.226 20.4114 174.843 20.0308 174.558C19.6414 174.293 19.1844 174.148 18.7054 174.154C18.0888 174.149 17.4791 174.284 16.8937 174.521C16.519 174.663 16.1876 174.788 15.9193 174.905C15.6255 175 15.4293 175.09 15.334 175.142Z" fill="#EFEDE7"/>
<path d="M33.6074 172.603C33.0861 172.546 32.5639 172.569 32.035 172.658C31.4573 172.749 30.8963 172.881 30.3487 173.088C30.0549 173.183 29.7689 173.339 29.5229 173.511C29.3522 173.623 29.2325 173.78 29.1872 173.955C29.1596 174.093 29.1719 174.247 29.2219 174.371C29.2719 174.495 29.3795 174.597 29.5104 174.674C29.7012 174.777 29.9241 174.835 30.1504 174.861C30.5485 174.901 30.9555 174.922 31.3569 174.929C32.2351 174.883 33.1233 174.944 33.9817 175.096C34.574 175.205 35.1186 175.444 35.5813 175.809C35.9896 176.162 36.2993 176.6 36.4848 177.102C36.7603 177.743 36.8196 178.467 36.6615 179.145C36.4802 179.848 36.0903 180.488 35.5417 180.98C34.9522 181.536 34.1486 182.014 33.111 182.406C32.448 182.657 31.7773 182.847 31.0788 182.968C30.541 183.076 29.9755 183.115 29.4311 183.082C29.308 183.065 29.197 182.996 29.167 182.881L28.2005 180.485C28.1839 180.443 28.1761 180.383 28.2082 180.339C28.2403 180.295 28.2891 180.293 28.3435 180.304C29.0333 180.408 29.713 180.405 30.4027 180.303C31.0058 180.234 31.6101 180.085 32.1866 179.868C32.7342 179.661 33.0955 179.445 33.305 179.223C33.4967 179.04 33.5608 178.746 33.4608 178.498C33.383 178.305 33.1955 178.17 32.8927 178.078C32.5899 177.986 32.031 177.959 31.2193 177.964C30.3844 177.994 29.5737 177.919 28.773 177.746C28.204 177.611 27.6682 177.354 27.2056 176.989C26.7972 176.635 26.4875 176.197 26.3076 175.71C26.0687 175.118 26.0139 174.488 26.1255 173.858C26.2636 173.172 26.6191 172.53 27.1277 172.02C27.6717 171.434 28.4609 170.961 29.4842 170.575C30.075 170.351 30.697 170.164 31.3212 170.024C31.7758 169.915 32.2381 169.868 32.6883 169.872C32.7515 169.864 32.8314 169.897 32.8824 169.942C32.9191 169.991 32.9557 170.041 32.9779 170.096L33.8833 172.34C33.9055 172.395 33.8989 172.461 33.8668 172.505C33.7482 172.582 33.6761 172.609 33.6074 172.603Z" fill="#EFEDE7"/>
</g>
<path d="M115.06 304.392C115.631 303.789 115.26 302.788 114.435 302.688C99.9179 300.928 87.1628 296.034 75.192 288.148C74.8362 287.914 74.3707 287.927 74.0296 288.182C67.1779 293.31 59.7902 297.8 51.9753 301.586C51.3434 301.892 51.2068 302.735 51.7199 303.215C64.224 314.897 78.9839 324.336 95.2438 331.05C95.9995 331.362 96.8268 330.66 96.8225 329.842C96.7868 322.939 104.777 315.245 104.777 315.245L115.06 304.392Z" fill="#907D73"/>
<path d="M31.5046 305.6C31.4949 305.592 31.4917 305.587 31.4907 305.586C31.4894 305.583 31.4872 305.579 31.4853 305.571C31.481 305.553 31.48 305.519 31.4934 305.48C31.5047 305.447 31.5197 305.429 31.5265 305.423C31.5277 305.423 31.5291 305.423 31.5309 305.423C46.7235 305.714 63.24 304.833 76.7187 298.201C76.7257 298.197 76.7294 298.197 76.7328 298.197C76.7377 298.197 76.7462 298.198 76.7565 298.203C76.7667 298.208 76.7746 298.215 76.7796 298.221C76.7837 298.226 76.7872 298.232 76.7894 298.242L77.7645 298.02L76.7895 298.242C77.8386 302.848 79.9008 307.208 82.8501 311.053C85.7569 314.842 89.4581 318.042 93.7238 320.472C93.73 320.475 93.7334 320.478 93.7351 320.48C93.7369 320.482 93.7385 320.483 93.7399 320.486C93.7431 320.491 93.7455 320.498 93.7462 320.506C79.8497 329.905 63.2145 335.303 45.9539 335.997C45.9515 335.995 45.9491 335.991 45.9475 335.987C45.9461 335.984 45.9449 335.979 45.945 335.972C46.0751 329.876 44.6739 323.833 41.8479 318.315C39.3619 313.461 35.8376 309.139 31.5046 305.6Z" fill="#EFEDE7" stroke="#313B36" stroke-width="2"/>
<path fill-rule="evenodd" clip-rule="evenodd" d="M71.5304 304.052L71.8163 305.048C72.7005 308.126 76.1197 315.663 82.5615 320.736L83.3773 321.378L82.0855 323.001L81.2696 322.359C74.3916 316.943 70.7809 308.978 69.8152 305.616L69.5293 304.621L71.5304 304.052Z" fill="#907D73"/>
<path fill-rule="evenodd" clip-rule="evenodd" d="M64.18 306.154L64.4229 307.16C65.1744 310.273 68.2673 317.949 74.4858 323.29L75.2734 323.966L73.9131 325.533L73.1255 324.856C66.486 319.154 63.22 311.044 62.3992 307.644L62.1563 306.637L64.18 306.154Z" fill="#907D73"/>
<path fill-rule="evenodd" clip-rule="evenodd" d="M56.821 307.721L57.1197 308.713C58.1354 312.085 61.2078 319.889 66.3037 326.309L66.9485 327.121L65.315 328.404L64.6702 327.591C59.36 320.901 56.1888 312.835 55.126 309.307L54.8274 308.316L56.821 307.721Z" fill="#907D73"/>
<path fill-rule="evenodd" clip-rule="evenodd" d="M48.2512 308.998L48.7236 309.92L47.7964 310.39C48.7236 309.92 48.7235 309.92 48.7236 309.92L48.7349 309.942L48.7664 310.004C48.7939 310.058 48.8342 310.138 48.8861 310.241C48.9898 310.448 49.1399 310.749 49.3263 311.13C49.6989 311.891 50.2172 312.971 50.801 314.246C51.9662 316.79 53.4024 320.134 54.4598 323.29L54.7889 324.271L52.8144 324.926L52.4854 323.944C51.4616 320.889 50.0597 317.62 48.9071 315.104C48.332 313.848 47.8215 312.785 47.4551 312.036C47.2719 311.662 47.1249 311.367 47.0239 311.166C46.9734 311.065 46.9344 310.988 46.9082 310.936L46.8787 310.878L46.3968 309.938L48.2512 308.998Z" fill="#907D73"/>
<path d="M23.6667 275.24C23.6681 275.24 23.6699 275.24 23.6722 275.24C26.0548 275.223 28.8409 275.236 31.9188 275.249C34.2193 275.26 36.6828 275.271 39.2626 275.271C46.5709 275.271 53.2744 276.304 57.7104 281.855C57.7335 281.884 57.7725 281.903 57.8164 281.9C57.8259 281.899 57.8326 281.897 57.8366 281.896C65.3005 266.551 69.5852 250.145 70.4614 233.568C70.4608 233.568 70.46 233.568 70.4591 233.568C61.4483 236.129 52.23 237.889 42.9307 238.826C42.9299 238.826 42.9296 238.826 42.9293 238.826C42.9288 238.827 42.9277 238.827 42.9265 238.828C42.924 238.83 42.9227 238.833 42.922 238.835C39.5313 252.525 33.6388 264.127 23.657 275.185C23.6536 275.188 23.6517 275.191 23.6508 275.192L23.6499 275.194L23.6499 275.194C23.6499 275.194 23.6499 275.194 23.6498 275.194M23.6667 275.24L23.6498 275.194M23.6667 275.24C23.6642 275.237 23.6599 275.232 23.6559 275.223C23.6493 275.208 23.6495 275.197 23.6498 275.194M23.6667 275.24L23.6498 275.194" fill="#EFEDE7" stroke="#313B36" stroke-width="2"/>
<path fill-rule="evenodd" clip-rule="evenodd" d="M66.155 243.356L65.1346 243.559C63.3445 243.915 59.1337 244.437 54.979 244.867C50.8282 245.297 46.6103 245.649 44.8121 245.649H43.7715L43.7715 243.579H44.8121C46.4825 243.579 50.5894 243.241 54.7634 242.808C58.9336 242.376 63.0477 241.863 64.7264 241.529L65.7468 241.326L66.155 243.356Z" fill="#907D73"/>
<path fill-rule="evenodd" clip-rule="evenodd" d="M41.7453 251.462L42.7845 251.515C47.2965 251.745 57.7243 252.133 63.4938 251.86L64.5333 251.811L64.6323 253.878L63.5928 253.927C57.7076 254.206 47.1845 253.812 42.6779 253.582L41.6387 253.529L41.7453 251.462Z" fill="#907D73"/>
<path fill-rule="evenodd" clip-rule="evenodd" d="M38.7199 258.627L39.7508 258.768C46.4626 259.689 59.0322 260.216 61.2435 260.491L62.2761 260.62L62.0179 262.674L60.9854 262.545C58.7568 262.268 46.1668 261.738 39.4664 260.819L38.4355 260.677L38.7199 258.627Z" fill="#907D73"/>
<path fill-rule="evenodd" clip-rule="evenodd" d="M33.3652 266.693L34.4059 266.693C36.5919 266.693 42.9192 267.399 48.8658 268.791L49.8788 269.028L49.4021 271.043L48.3891 270.806C42.5422 269.437 36.3822 268.763 34.4058 268.763L33.3652 268.763L33.3652 266.693Z" fill="#907D73"/>
<path d="M162.303 140.562C160.791 142.761 157.067 156.879 160.209 176.668" stroke="#313B36" stroke-width="2" stroke-linecap="round"/>
<path d="M159.51 181.528C159.161 188.24 158.114 202.983 156.718 208.26C154.973 214.856 152.529 234.645 160.208 242.63" stroke="#313B36" stroke-width="2" stroke-linecap="round"/>
<path d="M252.006 201.317C253.518 202.937 255.496 207.219 256.543 211.037" stroke="#313B36" stroke-width="2" stroke-linecap="round"/>
<path d="M198.254 142.298C199.534 145.77 210.121 163.822 219.196 155.143" stroke="#313B36" stroke-width="2" stroke-linecap="round"/>
<path d="M207.328 145.77C208.841 148.315 214.588 154.102 218.497 154.102" stroke="#313B36" stroke-width="2" stroke-linecap="round"/>
<path d="M228.62 142.645C230.482 149.01 235.252 164.031 239.44 173.196C244.676 184.653 249.489 188.018 257.939 198.192C264.571 206.177 266.316 216.245 263.175 221.452" stroke="#313B36" stroke-width="2" stroke-linecap="round"/>
<path d="M234.902 186.735C235.484 191.133 238.742 200.483 244.326 204.094" stroke="#313B36" stroke-width="2" stroke-linecap="round"/>
<path d="M181.15 143.339C176.264 146.811 176.962 161.739 170.33 165.558" stroke="#313B36" stroke-width="2" stroke-linecap="round"/>
<path d="M196.508 139.173C191.971 139.173 186.37 144.381 183.594 153.06C181.15 160.698 177.311 167.988 172.773 171.46" stroke="#313B36" stroke-width="2" stroke-linecap="round"/>
<path d="M171.377 197.498C173.821 213.468 165.793 216.939 169.981 226.66" stroke="#313B36" stroke-width="2" stroke-linecap="round"/>
<path d="M170.33 169.03C170.33 169.03 164.908 170.777 167.887 177.362C171.028 184.305 171.028 189.513 171.028 189.513" stroke="#313B36" stroke-width="2" stroke-linecap="round"/>
<path d="M162.651 222.841C162.651 227.354 163.349 232.909 165.444 236.033" stroke="#313B36" stroke-width="2" stroke-linecap="round"/>
<path d="M218.498 186.041C218.847 190.207 221.29 198.583 226.177 201.317C231.762 204.441 239.091 204.094 239.091 204.094" stroke="#313B36" stroke-width="2" stroke-linecap="round"/>
<defs>
<linearGradient id="paint0_linear_1550_4304" x1="116.921" y1="235.793" x2="159.339" y2="212.914" gradientUnits="userSpaceOnUse">
<stop stop-color="#FFF9E5" stop-opacity="0.6"/>
<stop offset="1" stop-color="#FFF9E5" stop-opacity="0"/>
</linearGradient>
<clipPath id="clip0_1550_4304">
<rect width="32.3479" height="30.4711" fill="white" transform="matrix(0.98225 0.187578 -0.199629 0.979872 300.671 98.9017)"/>
</clipPath>
<clipPath id="clip1_1550_4304">
<rect width="23.4482" height="22.2655" fill="white" transform="matrix(0.984695 0.174285 -0.185543 0.982636 30.1152 108.619)"/>
</clipPath>
<clipPath id="clip2_1550_4304">
<rect width="36.9732" height="34.7429" fill="white" transform="matrix(0.935489 -0.353356 0.374096 0.92739 0 168.336)"/>
</clipPath>
</defs>
</svg>
