<svg width="883" height="465" viewBox="0 0 883 465" fill="none" xmlns="http://www.w3.org/2000/svg">
<path d="M805 465C805 465 762.857 358.172 687.843 283.157C612.828 208.143 511.087 166 405 166C298.913 166 197.172 208.143 122.157 283.157C47.1428 358.172 5 465 5 465L405 465H805Z" fill="#EDE9E1"/>
<path d="M171.787 361.113C168.78 361.866 159.573 367.072 155.814 369.582V370.522C157.85 370.209 164.27 369.299 173.666 368.17C183.062 367.041 189.796 369.895 191.988 371.463C194.494 370.522 200.82 368.547 206.082 368.17C211.344 367.794 222.055 369.895 226.753 370.993C225.5 370.522 221.961 369.017 217.827 366.759C212.659 363.936 207.491 361.113 201.384 361.113C196.498 361.113 192.458 366.759 191.518 369.582C191.518 368.954 190.579 366.759 186.82 362.995C182.123 358.29 175.545 360.172 171.787 361.113Z" fill="#313B36"/>
<path d="M191.276 368.072C189.305 365.225 186.676 363.017 183.03 362.035C178.131 360.714 171.624 361.673 162.8 365.798C159.98 367.116 156.26 368.713 153.236 369.985C151.726 370.62 150.393 371.173 149.437 371.566C149.385 371.588 149.333 371.609 149.283 371.63L149.318 338.39C153.635 337.422 157.421 335.557 161.109 333.74C161.858 333.371 162.603 333.004 163.347 332.647C168.024 330.404 172.792 328.485 178.818 328.485C184.73 328.485 187.834 330.989 189.498 333.41C190.346 334.643 190.837 335.881 191.115 336.813C191.254 337.278 191.338 337.662 191.387 337.925C191.412 338.056 191.428 338.157 191.437 338.222C191.439 338.237 191.441 338.249 191.442 338.26L191.276 368.072Z" fill="#EFEDE7" stroke="#313B36" stroke-width="2"/>
<path d="M231.772 371.372C231.759 371.371 231.746 371.369 231.732 371.367C230.957 371.272 229.83 371.108 228.435 370.837C225.653 370.298 221.814 369.334 217.592 367.64C210.367 364.035 204.549 362.331 199.994 362.705C197.687 362.894 195.694 363.617 194.026 364.897C193.28 365.47 192.611 366.145 192.013 366.917L191.833 338.348C191.844 338.307 191.859 338.25 191.88 338.18C191.934 337.997 192.024 337.726 192.167 337.395C192.453 336.732 192.943 335.84 193.756 334.945C195.356 333.185 198.302 331.308 203.718 331.308C205.352 331.308 207.816 331.738 210.661 332.42C213.484 333.097 216.603 334.002 219.514 334.911C222.424 335.819 225.116 336.728 227.081 337.409C228.063 337.75 228.863 338.034 229.417 338.233C229.506 338.265 229.589 338.294 229.665 338.322L231.772 371.372ZM191.814 338.432L191.814 338.431C191.814 338.432 191.814 338.432 191.814 338.432L191.814 338.432Z" fill="#EFEDE7" stroke="#313B36" stroke-width="2"/>
<path d="M148.866 371.365C148.866 371.365 166.2 369.017 171.17 368.565C181.718 367.592 191.973 371.239 191.973 371.239C197.321 369.829 202.346 368.657 207.875 368.565C214.652 368.35 230.496 371.239 230.496 371.239" stroke="#313B36" stroke-width="2" stroke-miterlimit="10"/>
<path d="M185.881 357.585C185.881 357.585 181.183 350.998 168.499 356.174C159.157 359.985 154.405 362.29 154.405 362.29" stroke="#313B36" stroke-width="1.6" stroke-linecap="round"/>
<path d="M185.881 351.1C185.881 351.1 181.183 344.513 168.499 349.688C159.157 353.499 154.405 355.804 154.405 355.804" stroke="#313B36" stroke-width="1.6" stroke-linecap="round"/>
<path d="M185.881 344.513C185.881 344.513 181.183 337.927 168.499 343.102C159.157 346.913 154.405 349.218 154.405 349.218" stroke="#313B36" stroke-width="1.6" stroke-linecap="round"/>
<path d="M196.217 357.585C196.217 357.585 200.914 350.998 213.599 356.174C222.94 359.985 227.693 362.29 227.693 362.29" stroke="#313B36" stroke-width="1.6" stroke-linecap="round"/>
<path d="M196.217 351.1C196.217 351.1 200.914 344.514 213.599 349.689C222.94 353.5 227.693 355.805 227.693 355.805" stroke="#313B36" stroke-width="1.6" stroke-linecap="round"/>
<path d="M196.217 345.25C196.217 345.25 200.914 338.663 213.599 343.838C222.94 347.649 227.693 349.954 227.693 349.954" stroke="#313B36" stroke-width="1.6" stroke-linecap="round"/>
<path d="M196.217 339.833C196.217 339.833 200.445 332.204 217.357 340.672" stroke="#313B36" stroke-width="1.6" stroke-linecap="round"/>
<path d="M185.881 337.927C185.881 337.927 181.183 331.34 168.499 336.515C159.157 340.327 154.405 342.631 154.405 342.631" stroke="#313B36" stroke-width="1.6" stroke-linecap="round"/>
<path d="M789.963 52.7261C790.043 52.7901 790.124 52.8551 790.205 52.9211C792.84 55.0468 796.522 58.1892 800.698 62.248C809.056 70.3699 819.372 82.1388 827.253 96.7503C835.132 111.358 840.563 128.777 839.204 148.228C837.846 167.67 829.698 189.238 810.258 212.144C783.43 243.75 754.06 253.692 725.787 251.139C698.909 248.712 672.904 234.98 650.928 217.529C653.862 217.637 657.323 216.829 661.127 215.32C667.286 212.876 674.635 208.476 682.719 202.482C698.896 190.489 718.166 172.002 736.976 149.619L736.976 149.619C756.34 126.568 771.803 103.916 781.016 85.7742C785.618 76.7106 788.689 68.7193 789.884 62.337C790.575 58.6513 790.661 55.3747 789.963 52.7261Z" fill="#E7E1D2" stroke="#313B36" stroke-width="2"/>
<path opacity="0.4" d="M711.049 249.431C689.32 244.176 668.853 232.147 649.878 217.904L670.98 212.195C677.022 215.445 694.242 228.79 726.748 234.044C767.38 240.612 806.1 218.998 806.1 218.998C796.848 229.129 782.822 238.615 778.192 241.199C772.285 244.497 744.847 257.606 711.049 249.431Z" fill="black" fill-opacity="0.4"/>
<path d="M738.39 150.92C776.579 105.465 798.352 60.7307 787.021 51.0034C775.69 41.2761 735.546 70.2393 697.357 115.694C659.168 161.149 637.395 205.884 648.726 215.611C660.058 225.338 700.202 196.375 738.39 150.92Z" fill="#6A5D54" stroke="#313B36" stroke-width="2" stroke-miterlimit="10"/>
<path d="M37.1224 254.347C25.758 242.646 16.8093 228.777 10.797 213.547C4.78471 198.318 1.82888 182.032 2.10151 165.637C2.37413 149.242 5.86977 133.065 12.385 118.048C18.9003 103.032 28.305 89.4745 40.0521 78.1657C51.7992 66.857 65.6539 58.0224 80.8103 52.1762C95.9667 46.3299 112.122 43.5886 128.336 44.1118C144.551 44.635 160.5 48.4123 175.257 55.2239C190.013 62.0354 203.282 71.7453 214.292 83.7884" stroke="#313B36" stroke-width="2" stroke-miterlimit="10"/>
<path d="M146.404 190.784C195.294 143.709 225.52 95.5671 213.916 83.2553C202.313 70.9434 153.274 99.1244 104.384 146.199C55.4948 193.274 25.2686 241.416 36.872 253.728C48.4755 266.04 97.5147 237.859 146.404 190.784Z" stroke="#313B36" stroke-width="2" stroke-miterlimit="10"/>
<path d="M561.949 285.754C562.427 283.889 569.22 284.035 571.077 284.518L612.015 295.239C612.906 295.475 613.67 296.057 614.138 296.859C614.607 297.661 614.743 298.618 614.516 299.521C614.281 300.423 613.702 301.195 612.907 301.668C612.112 302.142 611.164 302.279 610.269 302.05L569.331 291.317C567.485 290.834 561.459 287.631 561.949 285.754Z" fill="#313B36"/>
<path d="M584.608 287.182C584.608 287.182 582.262 291.677 582.484 295.453" stroke="#EFEDE7" stroke-miterlimit="10"/>
<path d="M611.024 302.346L611.273 301.378C611.354 301.059 611.165 300.734 610.85 300.652L596.987 297.02C596.672 296.938 596.351 297.129 596.269 297.448L596.021 298.416C595.939 298.734 596.128 299.06 596.443 299.142L610.306 302.774C610.621 302.856 610.943 302.665 611.024 302.346Z" fill="#EFEDE7" stroke="#313B36" stroke-miterlimit="10"/>
<g clip-path="url(#clip0_1539_2883)">
<path d="M429.734 295.091C422.423 296.983 414.966 298.231 407.691 300.293C399.927 302.494 389.82 306.893 389.999 317.369C390.001 319.526 390.571 321.673 391.642 323.556C392.713 325.439 394.24 326.981 396.044 328C400.135 330.348 405.262 329.287 409.565 328.929C419.821 328.063 429.708 325.699 438.81 320.898C441.799 319.324 438.788 314.41 435.814 315.973C428.51 319.694 420.613 322.021 412.451 322.856C410.278 323.11 408.092 323.286 405.907 323.408C403.987 323.514 401.684 323.923 399.775 323.519C395.762 322.673 394.385 317.985 395.887 314.383C398.978 306.93 409.936 305.574 416.462 304.002C421.439 302.813 426.479 301.921 431.433 300.637C434.71 299.79 432.972 294.256 429.706 295.1L429.734 295.091Z" fill="#313B36"/>
<path d="M446.415 322.103C436.261 326.095 425.524 329.88 414.553 330.647C409.845 330.979 404.368 330.9 400.346 328.164C399.392 327.502 398.612 326.621 398.072 325.594C398.072 325.594 397.984 325.877 397.933 325.266C397.885 324.621 398.012 323.973 398.302 323.393C398.398 323.174 398.555 322.991 398.666 322.78C399.049 322.052 398.529 322.89 398.919 322.415C399.531 321.527 400.354 320.804 401.315 320.31C402.986 319.308 404.762 318.49 406.611 317.871C417.12 313.981 428.25 311.571 439.121 308.937C442.405 308.149 440.831 303.164 437.565 303.947C426.77 306.532 415.703 308.948 405.244 312.785C401.52 314.155 397.447 315.78 394.93 319.006C391.784 323.031 392.151 327.711 395.824 331.189C399.678 334.853 405.363 335.853 410.493 335.973C423.27 336.28 436.215 331.684 447.926 327.084C451.049 325.859 449.52 320.86 446.37 322.093L446.415 322.103Z" fill="#D8C5A8"/>
<path d="M472.612 267.744C472.612 267.744 470.387 263.547 473.256 262.821C476.125 262.095 480.617 260.705 482.993 260.193C485.369 259.68 486.069 264.187 486.069 264.187L472.612 267.744Z" fill="#313B36"/>
<path d="M424.481 284.52L443.715 348.589C443.715 348.589 515.482 331.736 517.677 327.321C520.574 321.439 498.655 262.425 497.334 262.107C490.081 260.386 443.183 276.417 424.481 284.52Z" fill="#D8C5A8"/>
<path d="M491.691 267.13C493.296 270.925 494.694 274.803 496.171 278.656C498.937 285.995 501.898 293.297 504.503 300.668C506.656 306.769 508.526 313.408 507.841 319.944C507.639 322.818 506.493 325.548 504.58 327.71C502.698 329.764 500.273 331.227 497.941 332.698C495.967 333.923 493.975 335.153 491.97 336.339C505.514 332.585 516.843 328.993 517.692 327.273C520.59 321.391 498.67 262.377 497.35 262.059C496.03 261.741 493.302 262.039 489.68 262.781C490.41 264.22 491.073 265.68 491.691 267.13Z" fill="#313B36"/>
<path fill-rule="evenodd" clip-rule="evenodd" d="M453.286 344.804L432.94 281.772L434.701 281.203L455.046 344.235L453.286 344.804Z" fill="#313B36"/>
<rect x="0.619316" y="0.341049" width="7.51547" height="7.51897" rx="0.5" transform="matrix(0.960449 -0.278436 0.278183 0.960534 431.691 303.565)" stroke="#313B36"/>
<path d="M432.515 303.794L441.557 308.775" stroke="#313B36"/>
<path d="M439.579 301.792L434.493 310.778" stroke="#313B36"/>
<rect x="0.619316" y="0.341049" width="7.51547" height="7.51897" rx="0.5" transform="matrix(0.960449 -0.278436 0.278183 0.960534 438.166 323.925)" stroke="#313B36"/>
<path d="M438.99 324.154L448.032 329.135" stroke="#313B36"/>
<path d="M446.054 322.151L440.968 331.138" stroke="#313B36"/>
</g>
<path d="M251.08 217.627C251.08 217.627 246.51 222.312 239.565 225.772C237.006 227.047 230.753 231.214 229.641 229.933C228.53 228.651 230.597 226.955 231.712 226.026C232.455 225.406 234.877 223.98 236.064 223.118C236.406 222.87 238.012 221.886 237.627 221.3C237.242 220.715 235.426 221.381 235.028 221.469C231.403 222.358 227.978 223.897 224.485 225.216C223.312 225.631 219.589 227.56 218.637 226.169C217.795 224.939 221.491 222.945 222.789 222.219C226.934 220.069 229.939 218.332 234.511 217.098C234.511 217.098 226.646 217.88 218.852 219.826C215.835 220.496 213.184 220.889 213.108 220.203C211.799 218.027 215.402 216.829 218.862 215.692C224.523 213.397 232.823 211.342 232.823 211.342C232.823 211.342 228.841 211.617 223.389 212.027C221.35 212.006 218.119 212.764 218.04 211.356C217.961 209.948 218.886 208.613 223.873 208.253C229.143 207.517 234.617 206.419 234.617 206.419L231.233 205.72C231.233 205.72 226.264 204.393 226.446 202.683C226.629 200.972 231.247 201.59 238.579 203.009C244.173 204.091 247.134 204.171 247.134 204.171" fill="#EFEDE7"/>
<path d="M251.08 217.627C251.08 217.627 246.51 222.312 239.565 225.772C237.006 227.047 230.753 231.214 229.641 229.933C228.53 228.651 230.597 226.955 231.712 226.026C232.455 225.406 234.877 223.98 236.064 223.118C236.406 222.87 238.012 221.886 237.627 221.3C237.242 220.715 235.426 221.381 235.028 221.469C231.403 222.358 227.978 223.897 224.485 225.216C223.312 225.631 219.589 227.56 218.637 226.169C217.795 224.939 221.491 222.945 222.789 222.219C226.934 220.069 229.939 218.332 234.511 217.098C234.511 217.098 226.646 217.88 218.852 219.826C215.835 220.496 213.184 220.889 213.108 220.203C211.799 218.027 215.402 216.829 218.862 215.692C224.523 213.397 232.823 211.342 232.823 211.342C232.823 211.342 228.841 211.617 223.389 212.027C221.35 212.006 218.119 212.764 218.04 211.356C217.961 209.948 218.886 208.613 223.873 208.253C229.143 207.517 234.617 206.419 234.617 206.419L231.233 205.72C231.233 205.72 226.264 204.393 226.446 202.683C226.629 200.972 231.247 201.59 238.579 203.009C244.173 204.091 247.134 204.171 247.134 204.171" stroke="#313B36" stroke-width="1.5" stroke-miterlimit="10"/>
<path d="M308.667 184.839L248.324 203.264C248.324 203.264 245.334 207.169 246.915 213.585C247.984 217.922 250.171 220.747 250.171 220.747C250.171 220.747 292.393 209.325 317.838 211.459" fill="#D8C5A8"/>
<path d="M248 203L258 200.5C258.167 202.333 258.6 206.6 259 209C259.4 211.4 261.833 216 263 218L250 221C249.5 220.333 248.2 218.1 247 214.5C245.8 210.9 247.167 205.333 248 203Z" fill="#907D73"/>
<path d="M423.315 169.058C430.012 158.655 440.421 150.283 450.854 143.98C472.302 121.342 482.15 108.548 491.11 88.1002C493.03 83.7185 506.093 60.2931 507.407 58.2023C508.721 56.1116 532.429 72.1254 532.429 72.1254C532.429 72.1254 509.938 120.134 503.872 130.655C497.806 141.176 486.02 159.684 469.751 177.056C478.151 177.497 508.086 176.467 509.121 175.715C510.156 174.962 526.601 130.182 528.323 117.512C535.419 117.449 552.756 126.874 553.215 127.665C553.673 128.455 538.419 191.923 536.786 195.154C531.903 204.851 515.509 208.51 505.29 212.162C482.967 220.08 459.347 223.718 435.661 222.888L432.935 178.826L423.315 169.058Z" fill="#EFEDE7"/>
<path fill-rule="evenodd" clip-rule="evenodd" d="M450.854 143.98C440.421 150.283 430.012 158.655 423.315 169.058L432.935 178.826L435.661 222.888C459.347 223.718 482.967 220.08 505.29 212.162C507.022 211.543 508.932 210.924 510.934 210.275C520.737 207.096 532.731 203.207 536.786 195.154C538.419 191.923 553.673 128.455 553.215 127.665C552.756 126.874 535.419 117.449 528.323 117.512C526.601 130.182 510.156 174.962 509.121 175.715C508.156 176.416 482.071 177.359 471.737 177.126C470.987 177.109 470.32 177.086 469.751 177.056C470.202 176.574 470.65 176.091 471.095 175.608C486.669 158.663 497.975 140.884 503.872 130.655C509.938 120.134 532.429 72.1254 532.429 72.1254C532.429 72.1254 508.721 56.1116 507.407 58.2023C506.093 60.2931 493.03 83.7185 491.11 88.1002C482.15 108.548 472.302 121.342 450.854 143.98ZM530.524 72.6535C529.879 72.2238 528.972 71.623 527.887 70.912C525.65 69.4478 522.659 67.5199 519.63 65.6591C516.592 63.7932 513.551 62.0152 511.203 60.8379C510.018 60.2438 509.075 59.8356 508.423 59.6355C508.386 59.6241 508.351 59.6136 508.317 59.604C507.17 61.5626 504.028 67.1537 500.798 73.0196C497.11 79.719 493.408 86.5942 492.482 88.7062C483.422 109.385 473.439 122.325 451.942 145.015L451.803 145.162L451.63 145.266C441.64 151.302 431.776 159.195 425.236 168.872L434.397 178.175L437.072 221.43C460.112 222.07 483.066 218.45 504.783 210.748C506.599 210.099 508.552 209.467 510.575 208.811C514.432 207.561 518.544 206.229 522.443 204.546C528.376 201.986 533.258 198.823 535.448 194.475L535.449 194.473C535.45 194.471 535.461 194.447 535.483 194.393C535.505 194.338 535.533 194.264 535.567 194.17C535.635 193.98 535.717 193.731 535.815 193.42C536.009 192.798 536.252 191.967 536.537 190.951C537.105 188.919 537.83 186.183 538.655 182.979C540.305 176.572 542.349 168.318 544.328 160.138C546.307 151.957 548.22 143.855 549.609 137.752C550.304 134.699 550.866 132.154 551.24 130.351C551.416 129.499 551.548 128.825 551.631 128.346C551.593 128.322 551.554 128.297 551.512 128.271C551.012 127.958 550.296 127.54 549.409 127.05C547.639 126.073 545.238 124.839 542.631 123.63C540.021 122.42 537.227 121.247 534.666 120.383C532.709 119.723 530.971 119.273 529.588 119.096C528.321 126.125 524.03 139.591 519.881 151.577C517.649 158.026 515.437 164.105 513.716 168.623C512.857 170.88 512.116 172.757 511.555 174.1C511.276 174.768 511.034 175.321 510.841 175.726C510.745 175.926 510.651 176.113 510.562 176.268C510.518 176.344 510.463 176.435 510.4 176.524C510.36 176.58 510.225 176.769 510.003 176.93C509.735 177.125 509.442 177.206 509.346 177.232L509.341 177.234C509.19 177.275 509.024 177.309 508.863 177.337C508.536 177.395 508.118 177.448 507.638 177.499C506.673 177.602 505.361 177.704 503.812 177.802C500.709 177.999 496.592 178.185 492.252 178.333C483.597 178.63 473.95 178.78 469.676 178.556L466.448 178.386L468.657 176.028C484.82 158.769 496.541 140.366 502.574 129.902C505.571 124.703 512.68 110.136 519.074 96.7926C522.263 90.1373 525.263 83.8101 527.465 79.1465C528.566 76.8148 529.468 74.8992 530.095 73.5666C530.257 73.2224 530.4 72.917 530.524 72.6535Z" fill="#313B36"/>
<path d="M517.822 174.802C516.971 174.523 516.121 174.243 515.305 173.975C519.966 148.059 527.801 124.762 540.231 104.519L555.429 110.235L539.296 175.802C532.185 177.431 524.76 177.085 517.822 174.802Z" fill="#C28145"/>
<path d="M499.777 115.249C495.049 114.261 490.538 112.422 486.465 109.819C495.895 85.2423 507.563 64.8996 522.02 45.728L536.925 53.8025L509.717 116.056C506.384 116.205 503.044 115.934 499.777 115.249Z" fill="#C28145"/>
<path d="M423.315 169.058C430.012 158.655 440.421 150.283 450.854 143.98C472.302 121.342 482.15 108.548 491.11 88.1001C493.03 83.7185 506.093 60.2931 507.407 58.2023C508.721 56.1116 532.429 72.1254 532.429 72.1254C532.429 72.1254 509.938 120.134 503.872 130.655C497.806 141.176 486.02 159.684 469.751 177.056C478.151 177.497 508.086 176.467 509.121 175.715C510.156 174.962 526.601 130.182 528.323 117.512C535.419 117.449 552.756 126.874 553.215 127.664C553.673 128.455 538.419 191.923 536.786 195.154C531.903 204.851 515.509 208.51 505.29 212.162C482.967 220.08 459.347 223.718 435.661 222.888L432.935 178.826L423.315 169.058Z" fill="#EFEDE7"/>
<path fill-rule="evenodd" clip-rule="evenodd" d="M450.854 143.98C440.421 150.283 430.012 158.655 423.315 169.058L432.935 178.826L435.661 222.888C459.347 223.718 482.967 220.08 505.29 212.162C507.022 211.543 508.932 210.924 510.934 210.275C520.737 207.096 532.731 203.207 536.786 195.154C538.419 191.923 553.673 128.455 553.215 127.664C552.756 126.874 535.419 117.449 528.323 117.512C526.601 130.182 510.156 174.962 509.121 175.715C508.156 176.416 482.071 177.359 471.737 177.126C470.987 177.109 470.32 177.086 469.751 177.056C470.202 176.574 470.65 176.091 471.095 175.608C486.669 158.663 497.975 140.884 503.872 130.655C509.938 120.134 532.429 72.1254 532.429 72.1254C532.429 72.1254 508.721 56.1116 507.407 58.2023C506.093 60.2931 493.03 83.7185 491.11 88.1001C482.15 108.548 472.302 121.342 450.854 143.98ZM530.524 72.6534C529.879 72.2238 528.972 71.6229 527.887 70.912C525.65 69.4478 522.659 67.5199 519.63 65.6591C516.592 63.7931 513.551 62.0152 511.203 60.8379C510.018 60.2438 509.075 59.8356 508.423 59.6355C508.386 59.6241 508.351 59.6136 508.317 59.604C507.17 61.5626 504.028 67.1537 500.798 73.0195C497.11 79.719 493.408 86.5941 492.482 88.7062C483.422 109.385 473.439 122.325 451.942 145.015L451.803 145.162L451.63 145.266C441.64 151.302 431.776 159.195 425.236 168.872L434.397 178.175L437.072 221.43C460.112 222.07 483.066 218.45 504.783 210.748C506.599 210.099 508.552 209.467 510.575 208.811C514.432 207.561 518.544 206.229 522.443 204.546C528.376 201.986 533.258 198.823 535.448 194.475L535.449 194.473C535.45 194.471 535.461 194.447 535.483 194.393C535.505 194.338 535.533 194.264 535.567 194.17C535.635 193.98 535.717 193.731 535.815 193.42C536.009 192.798 536.252 191.967 536.537 190.951C537.105 188.919 537.83 186.183 538.655 182.979C540.305 176.572 542.349 168.318 544.328 160.137C546.307 151.957 548.22 143.855 549.609 137.752C550.304 134.699 550.866 132.154 551.24 130.351C551.416 129.499 551.548 128.825 551.631 128.346C551.593 128.322 551.554 128.297 551.512 128.271C551.012 127.958 550.296 127.54 549.409 127.05C547.639 126.073 545.238 124.839 542.631 123.63C540.021 122.42 537.228 121.247 534.666 120.383C532.709 119.723 530.971 119.273 529.588 119.096C528.321 126.125 524.03 139.591 519.881 151.577C517.649 158.026 515.437 164.104 513.716 168.623C512.857 170.88 512.116 172.757 511.555 174.1C511.276 174.768 511.034 175.321 510.841 175.726C510.745 175.926 510.651 176.113 510.562 176.268C510.518 176.344 510.463 176.435 510.4 176.524L510.399 176.525C510.358 176.582 510.223 176.77 510.003 176.93C509.735 177.125 509.442 177.206 509.346 177.232L509.341 177.234C509.19 177.275 509.024 177.309 508.863 177.337C508.536 177.395 508.118 177.448 507.638 177.499C506.673 177.602 505.361 177.704 503.812 177.802C500.709 177.999 496.592 178.185 492.252 178.333C483.597 178.63 473.95 178.78 469.676 178.556L466.448 178.386L468.657 176.028C484.82 158.769 496.541 140.366 502.574 129.902C505.571 124.703 512.68 110.136 519.074 96.7925C522.263 90.1372 525.263 83.81 527.465 79.1465C528.567 76.8148 529.468 74.8991 530.095 73.5666C530.257 73.2223 530.4 72.917 530.524 72.6534Z" fill="#313B36"/>
<path fill-rule="evenodd" clip-rule="evenodd" d="M512.132 71.886C509.069 69.6785 506.151 67.9542 504.123 67.2953C503.598 67.1247 503.309 66.5602 503.479 66.0344C503.648 65.5087 504.211 65.2208 504.736 65.3915C507.077 66.1521 510.206 68.0346 513.297 70.2621C516.412 72.507 519.584 75.1714 522.025 77.5769C522.419 77.9649 522.425 78.5986 522.039 78.9922C521.652 79.3859 521.019 79.3904 520.626 79.0024C518.263 76.6751 515.172 74.0762 512.132 71.886Z" fill="#313B36"/>
<path d="M538.878 105.404L555.606 113.944C555.606 113.944 558.956 108.267 559.85 106.038C566.121 105.724 580.542 103.888 587.479 102.739C587.843 102.674 588.175 102.488 588.42 102.211C588.664 101.934 588.809 101.582 588.829 101.212C588.849 100.842 588.744 100.476 588.531 100.172C588.318 99.8689 588.009 99.6461 587.654 99.54C587.654 99.54 567.082 90.5641 555.82 85.6243C551.478 83.476 549.912 82.6817 548.951 83.1267C547.99 83.5717 547.318 85.5749 545.646 89.3789C542.89 95.647 539.179 104.191 538.878 105.404Z" fill="#313B36"/>
<path d="M550.553 82.8228C549.037 82.6135 547.48 83.7034 547.75 84.4982C548.343 86.2401 560.697 92.991 564.38 94.8305C568.878 97.0776 585.454 103.446 588.046 102.539C590.12 101.814 590.195 100.079 587.712 98.4342C585.23 96.7888 577.015 93.2735 569.696 89.9561C561.417 86.2036 553.586 83.2416 550.553 82.8228Z" fill="#907D73"/>
<path fill-rule="evenodd" clip-rule="evenodd" d="M548.285 84.1377C548.204 84.2676 548.22 84.3266 548.223 84.3379C548.23 84.3578 548.265 84.429 548.374 84.5572C548.478 84.6783 548.624 84.8237 548.814 84.9922C549.195 85.3289 549.723 85.7302 550.366 86.1788C551.65 87.0746 553.352 88.1317 555.159 89.197C558.773 91.3269 562.772 93.4689 564.602 94.3831C566.824 95.493 572.07 97.6388 577.092 99.3955C579.601 100.273 582.041 101.049 584.009 101.549C584.994 101.799 585.85 101.976 586.533 102.065C587.242 102.156 587.678 102.138 587.881 102.067C588.825 101.737 589.107 101.261 589.088 100.854C589.067 100.372 588.642 99.6501 587.437 98.8515C586.236 98.0553 583.602 96.7824 580.311 95.2775C578.515 94.4563 576.544 93.5756 574.527 92.6737C572.856 91.927 571.153 91.1658 569.49 90.4121C565.359 88.5395 561.342 86.8654 557.983 85.6082C554.607 84.3449 551.94 83.5195 550.485 83.3187C549.859 83.2322 549.208 83.4161 548.75 83.707C548.521 83.852 548.366 84.0073 548.285 84.1377ZM548.214 82.8615C548.845 82.461 549.731 82.2046 550.62 82.3275C552.199 82.5454 554.963 83.4104 558.331 84.671C561.716 85.9376 565.754 87.6208 569.901 89.5006C571.551 90.2483 573.252 91.0089 574.924 91.7563C576.949 92.6614 578.931 93.5472 580.725 94.3674C583.991 95.8608 586.707 97.1683 587.988 98.0174C589.265 98.8641 590.043 99.8319 590.087 100.811C590.134 101.863 589.341 102.617 588.211 103.012C587.766 103.168 587.117 103.149 586.406 103.057C585.668 102.962 584.769 102.773 583.765 102.518C581.756 102.009 579.285 101.222 576.763 100.34C571.725 98.5775 566.434 96.4156 564.157 95.2784C562.305 94.3531 558.285 92.1999 554.653 90.0591C552.838 88.9889 551.11 87.9168 549.795 86.9993C549.139 86.5413 548.576 86.1151 548.154 85.742C547.943 85.5556 547.759 85.3755 547.614 85.2055C547.476 85.0425 547.345 84.8568 547.277 84.6589C547.146 84.2729 547.255 83.8976 547.437 83.6061C547.619 83.3152 547.898 83.062 548.214 82.8615Z" fill="#313B36"/>
<path d="M541.258 118.281L541.949 115.912C541.97 115.805 542 115.7 542.04 115.599C542.465 114.521 543.871 114.07 545.182 114.592C546.492 115.113 547.209 116.409 546.784 117.487C546.759 117.552 546.73 117.615 546.697 117.676L546.713 117.669L545.543 119.901C545.528 119.93 545.506 119.955 545.478 119.972C545.45 119.99 545.418 120 545.384 120.002C545.351 120.004 545.317 119.998 545.286 119.984C545.255 119.97 545.228 119.949 545.207 119.922L544.246 118.667C544.04 118.631 543.837 118.573 543.642 118.495C543.46 118.423 543.285 118.333 543.119 118.227L541.582 118.604C541.537 118.616 541.489 118.615 541.444 118.603C541.399 118.59 541.357 118.566 541.324 118.533C541.291 118.5 541.267 118.459 541.256 118.415C541.244 118.37 541.245 118.324 541.258 118.281Z" fill="#EFEDE7"/>
<path d="M520.265 47.3538L536.054 57.5238C536.054 57.5238 539.971 52.2048 541.069 50.0777C547.342 50.3897 561.869 50.004 568.901 49.5616C569.268 49.5272 569.614 49.3713 569.883 49.1183C570.152 48.8653 570.328 48.5296 570.385 48.1644C570.442 47.7991 570.376 47.4251 570.197 47.1012C570.018 46.7773 569.737 46.522 569.397 46.3757C569.397 46.3757 534.26 26.2616 532.629 26.0731C530.997 25.8846 530.367 26.9817 529.124 28.9503C525.517 34.6619 520.787 45.9544 520.265 47.3538Z" fill="#313B36"/>
<path d="M520.354 60.4527L521.405 58.2208C521.443 58.1185 521.489 58.0201 521.544 57.9265C522.132 56.9286 523.591 56.7035 524.805 57.4239C526.018 58.1443 526.524 59.5367 525.937 60.5346C525.901 60.5942 525.863 60.6517 525.821 60.7068L525.837 60.703L524.335 62.7242C524.315 62.7504 524.289 62.771 524.259 62.7841C524.229 62.7972 524.195 62.8023 524.162 62.7991C524.128 62.7959 524.096 62.7844 524.067 62.7657C524.039 62.7469 524.015 62.7216 523.999 62.6921L523.245 61.3022C523.047 61.2341 522.856 61.1455 522.676 61.0379C522.507 60.9374 522.348 60.8211 522.201 60.6908L520.623 60.8224C520.577 60.8268 520.53 60.8189 520.487 60.7994C520.444 60.78 520.407 60.7497 520.38 60.7119C520.352 60.674 520.335 60.6299 520.331 60.5843C520.326 60.5387 520.334 60.4932 520.354 60.4527Z" fill="#EFEDE7"/>
<path fill-rule="evenodd" clip-rule="evenodd" d="M474.078 118.079C474.585 117.862 475.172 118.099 475.39 118.607C475.899 119.798 477.533 121.992 479.836 124.363C482.111 126.705 484.925 129.103 487.686 130.73C488.162 131.01 488.322 131.624 488.043 132.1C487.764 132.576 487.152 132.735 486.676 132.455C483.715 130.71 480.761 128.182 478.406 125.757C476.077 123.36 474.217 120.944 473.554 119.392C473.336 118.884 473.571 118.296 474.078 118.079Z" fill="#313B36"/>
<path fill-rule="evenodd" clip-rule="evenodd" d="M475.67 116.36C476.044 115.955 476.676 115.931 477.082 116.307C477.808 116.981 479.11 118.062 480.614 119.075C482.132 120.097 483.779 120.998 485.209 121.381C485.743 121.524 486.06 122.073 485.919 122.607C485.777 123.141 485.23 123.458 484.697 123.315C482.947 122.846 481.082 121.8 479.501 120.735C477.907 119.661 476.524 118.515 475.726 117.775C475.321 117.399 475.295 116.766 475.67 116.36Z" fill="#313B36"/>
<path fill-rule="evenodd" clip-rule="evenodd" d="M536.607 131.272C532.803 129.579 529.054 128.295 526.767 127.552C526.242 127.381 525.953 126.817 526.123 126.291C526.292 125.765 526.855 125.478 527.38 125.648C529.694 126.4 533.519 127.709 537.416 129.443C541.29 131.167 545.332 133.353 548.014 135.889C548.416 136.269 548.435 136.902 548.056 137.304C547.678 137.705 547.046 137.723 546.644 137.343C544.218 135.049 540.434 132.974 536.607 131.272Z" fill="#313B36"/>
<path fill-rule="evenodd" clip-rule="evenodd" d="M509.269 177.004C509.776 176.787 510.363 177.024 510.581 177.532C511.09 178.723 512.723 180.917 515.025 183.288C517.299 185.63 520.113 188.028 522.872 189.654C523.348 189.935 523.508 190.549 523.229 191.025C522.95 191.501 522.338 191.66 521.862 191.379C518.901 189.635 515.949 187.107 513.594 184.682C511.266 182.284 509.407 179.868 508.744 178.317C508.527 177.808 508.762 177.22 509.269 177.004Z" fill="#313B36"/>
<path fill-rule="evenodd" clip-rule="evenodd" d="M509.899 174.785C510.273 174.38 510.906 174.356 511.311 174.732C512.037 175.406 513.338 176.487 514.842 177.5C516.359 178.522 518.005 179.423 519.435 179.806C519.969 179.949 520.286 180.497 520.145 181.031C520.003 181.565 519.456 181.882 518.922 181.739C517.173 181.27 515.308 180.224 513.728 179.16C512.134 178.086 510.752 176.939 509.954 176.199C509.549 175.823 509.524 175.19 509.899 174.785Z" fill="#313B36"/>
<path d="M533.137 25.6783C531.609 25.7709 530.9 25.984 530.403 26.848C529.487 28.4411 543.217 37.2436 546.715 39.4155C550.988 42.0686 566.909 49.9404 569.574 49.277C571.706 48.7463 571.939 47.0253 569.619 45.1576C567.298 43.2899 559.441 39.0307 552.457 35.0514L552.456 35.0507C544.557 30.5497 535.732 25.521 533.137 25.6783Z" fill="#907D73"/>
<path fill-rule="evenodd" clip-rule="evenodd" d="M534.263 26.3351C533.778 26.209 533.415 26.1623 533.168 26.1773C532.408 26.2233 531.92 26.2975 531.57 26.4378C531.267 26.5596 531.055 26.737 530.865 27.0498C530.866 27.0553 530.868 27.0617 530.871 27.069C530.898 27.1501 530.966 27.2786 531.099 27.4582C531.363 27.8139 531.807 28.2699 532.406 28.8048C533.598 29.869 535.319 31.1736 537.193 32.5066C540.936 35.1693 545.233 37.9067 546.978 38.99C549.088 40.3004 554.115 42.9215 558.954 45.1345C561.372 46.2401 563.731 47.238 565.645 47.9171C566.603 48.257 567.439 48.5132 568.11 48.6639C568.808 48.8207 569.244 48.8428 569.452 48.791C570.423 48.5494 570.747 48.1014 570.767 47.6934C570.79 47.2121 570.433 46.4534 569.306 45.5469C568.183 44.6431 565.678 43.1323 562.539 41.3298C560.826 40.3463 558.945 39.2873 557.018 38.2029C555.423 37.3051 553.798 36.3899 552.211 35.4857L552.21 35.485C548.257 33.2328 544.087 30.8566 540.581 29.0627C538.828 28.1655 537.251 27.4194 535.957 26.9084C535.31 26.6529 534.742 26.4595 534.263 26.3351ZM552.696 34.6116L552.704 34.6162C554.278 35.5131 555.902 36.4276 557.499 37.3263C559.432 38.4146 561.324 39.4797 563.035 40.462C566.15 42.2508 568.734 43.8035 569.932 44.7674C571.126 45.7285 571.812 46.7642 571.765 47.743C571.715 48.7952 570.856 49.4731 569.695 49.7621C569.237 49.8762 568.593 49.7974 567.893 49.6403C567.167 49.4772 566.289 49.2065 565.313 48.8602C563.359 48.1671 560.97 47.1556 558.541 46.0445C553.685 43.8242 548.615 41.1828 546.452 39.8401C544.699 38.7515 540.382 36.0018 536.615 33.322C534.734 31.9837 532.976 30.6532 531.741 29.551C531.127 29.0027 530.622 28.4927 530.297 28.0536C530.135 27.8357 529.998 27.6097 529.923 27.3857C529.849 27.1633 529.813 26.8705 529.97 26.5973C530.27 26.0763 530.654 25.7269 531.197 25.5091C531.708 25.3037 532.338 25.225 533.106 25.1785C533.507 25.1542 533.988 25.2303 534.513 25.3666C535.044 25.5047 535.653 25.7135 536.322 25.9777C537.66 26.506 539.27 27.2689 541.034 28.1718C544.562 29.9771 548.751 32.3639 552.696 34.6116Z" fill="#313B36"/>
<path d="M535.978 49.1787C535.864 50.018 535.093 50.6045 534.255 50.4887C533.417 50.3729 532.83 49.5987 532.944 48.7594C533.058 47.9201 533.83 47.3336 534.668 47.4494C535.506 47.5652 536.092 48.3395 535.978 49.1787Z" fill="#EFEDE7"/>
<path fill-rule="evenodd" clip-rule="evenodd" d="M534.482 49.2627C534.638 49.0348 534.948 48.9767 535.176 49.133L540.829 53.0086C541.057 53.1649 541.116 53.4763 540.96 53.7042C540.804 53.9321 540.493 53.9902 540.266 53.8339L534.613 49.9583C534.385 49.802 534.326 49.4906 534.482 49.2627Z" fill="#313B36"/>
<path d="M553.786 106.489C553.759 107.336 553.052 108 552.207 107.971C551.362 107.943 550.699 107.234 550.725 106.387C550.752 105.54 551.459 104.877 552.304 104.905C553.149 104.933 553.813 105.643 553.786 106.489Z" fill="#EFEDE7"/>
<path fill-rule="evenodd" clip-rule="evenodd" d="M552.306 106.728C552.438 106.485 552.741 106.395 552.983 106.527L559.005 109.795C559.248 109.927 559.338 110.231 559.207 110.474C559.076 110.716 558.773 110.807 558.53 110.675L552.508 107.406C552.266 107.275 552.175 106.971 552.306 106.728Z" fill="#313B36"/>
<path d="M286.126 277.279C286.126 277.279 279.593 277.223 272.249 279.721C269.544 280.641 262.189 282.148 262.309 283.842C262.43 285.537 265.086 285.264 266.529 285.126C267.491 285.035 270.207 284.319 271.654 284.083C272.07 284.015 273.898 283.567 274.04 284.254C274.182 284.941 272.43 285.762 272.087 285.984C268.901 287.934 265.398 289.284 262.002 290.837C260.882 291.378 256.893 292.665 257.203 294.324C257.478 295.79 261.493 294.569 262.922 294.157C267.365 292.727 270.712 291.816 274.809 289.435C274.809 289.435 268.707 294.477 261.835 298.646C259.233 300.319 257.084 301.926 257.515 302.465C258.128 304.931 261.517 303.214 264.76 301.555C270.376 299.149 277.682 294.697 277.682 294.697C277.682 294.697 274.68 297.334 270.543 300.922C269.119 302.387 266.304 304.15 267.243 305.199C268.182 306.249 269.777 306.532 273.549 303.24C277.787 300.012 282.425 296.894 282.425 296.894L280.531 299.794C280.531 299.794 277.962 304.264 279.299 305.341C280.635 306.418 283.457 302.698 287.629 296.483C290.812 291.741 292.844 289.579 292.844 289.579" fill="#EFEDE7"/>
<path d="M286.126 277.279C286.126 277.279 279.593 277.223 272.249 279.721C269.544 280.641 262.189 282.148 262.309 283.842C262.43 285.537 265.086 285.264 266.529 285.126C267.491 285.035 270.207 284.319 271.654 284.083C272.07 284.015 273.898 283.567 274.04 284.254C274.182 284.941 272.43 285.762 272.087 285.984C268.901 287.934 265.398 289.284 262.002 290.837C260.882 291.378 256.893 292.665 257.203 294.324C257.478 295.79 261.493 294.569 262.922 294.157C267.365 292.727 270.712 291.816 274.809 289.435C274.809 289.435 268.707 294.477 261.835 298.646C259.233 300.319 257.084 301.926 257.515 302.465C258.128 304.931 261.517 303.214 264.76 301.555C270.376 299.149 277.682 294.697 277.682 294.697C277.682 294.697 274.68 297.334 270.543 300.922C269.119 302.387 266.304 304.15 267.243 305.199C268.182 306.249 269.777 306.532 273.549 303.24C277.787 300.012 282.425 296.894 282.425 296.894L280.531 299.794C280.531 299.794 277.962 304.264 279.299 305.341C280.635 306.418 283.457 302.698 287.629 296.483C290.812 291.741 292.844 289.579 292.844 289.579" stroke="#313B36" stroke-width="1.5" stroke-miterlimit="10"/>
<path d="M359.035 222.386L362.347 226.691L368.829 220.15L388.578 201.627L384.34 188.793L365.025 183.932L351.342 190.093L359.035 222.386Z" fill="#313B36"/>
<path d="M387.305 189.42C387.305 189.42 421.727 162.358 427.537 164.552C433.347 166.746 468.925 202.767 466.277 219.731C464.628 230.254 420.802 235.768 402.314 243.167C374.078 254.511 292.986 291.635 292.986 291.635C288.167 289.628 282.786 275.773 282.786 275.773C282.786 275.773 335.127 254.346 356.126 224.98" fill="#D8C5A8"/>
<path d="M283 275.5L293 271C293.167 272.833 296.48 277.6 298 279.5C300 282 304.5 286.5 304.5 286.5L292.472 291.5C291.972 290.833 289.706 288.588 287.5 285.5C285 282 283 277 283 275.5Z" fill="#907D73"/>
<path d="M356.132 221.363C356.927 219.434 364.706 212.033 364.706 212.033C364.706 212.033 370.8 210.108 370.877 201.778C370.886 200.755 387.622 217.085 386.227 218.895C384.832 220.706 355.139 223.775 356.132 221.363Z" fill="#EFEDE7" stroke="#313B36" stroke-width="2"/>
<path d="M258.453 201.193C258.453 201.193 257.33 208.854 261.81 215.463" stroke="#313B36" stroke-width="2" stroke-miterlimit="10" stroke-linecap="round"/>
<path d="M293.5 271.5C293.5 271.5 295.518 278.163 302 283.5" stroke="#313B36" stroke-width="2" stroke-miterlimit="10" stroke-linecap="round"/>
<path d="M319.659 222.846C319.659 222.846 310.073 233.486 295.96 233.203C281.846 232.92 315.728 249.233 340.441 233.648" stroke="#313B36" stroke-width="2" stroke-miterlimit="10"/>
<path d="M289.379 228.413C290.252 228.111 291.218 228.446 291.718 229.223L298.124 239.199C298.818 240.279 298.33 241.724 297.123 242.16L280.919 248.018C279.991 248.354 278.955 247.96 278.482 247.092L272.784 236.628C272.192 235.542 272.716 234.186 273.883 233.782L289.379 228.413Z" fill="#313B36"/>
<path d="M310.221 195.527C310.221 195.527 316.12 204.724 315.947 212.758C315.763 220.075 325.034 234.139 340.458 233.637C354.927 233.159 364.702 212.054 364.702 212.054C364.702 212.054 370.665 208.656 370.574 203.314C370.482 198.485 367.034 192.188 360.938 194.107L325.351 178.855L310.221 195.527Z" fill="#EFEDE7" stroke="#313B36" stroke-width="2" stroke-miterlimit="10"/>
<path d="M320.942 207.344C322.173 207.34 323.163 205.733 323.154 203.756C323.145 201.779 322.139 200.179 320.908 200.183C319.677 200.187 318.687 201.794 318.696 203.771C318.706 205.749 319.711 207.348 320.942 207.344Z" fill="#313B36"/>
<path fill-rule="evenodd" clip-rule="evenodd" d="M318.608 197.412C317.648 197.875 317.104 198.719 317.009 199.206C316.927 199.621 316.525 199.891 316.11 199.809C315.696 199.727 315.426 199.324 315.507 198.908C315.706 197.89 316.605 196.675 317.943 196.029C319.345 195.352 321.196 195.309 323.255 196.584C323.615 196.807 323.727 197.28 323.505 197.64C323.283 198 322.812 198.112 322.452 197.889C320.801 196.866 319.503 196.98 318.608 197.412Z" fill="#313B36"/>
<path fill-rule="evenodd" clip-rule="evenodd" d="M339.856 193.989C338.812 194.2 338.077 194.882 337.865 195.33C337.683 195.712 337.227 195.874 336.845 195.692C336.464 195.509 336.301 195.051 336.482 194.669C336.926 193.732 338.096 192.778 339.552 192.485C341.077 192.178 342.883 192.595 344.565 194.342C344.859 194.647 344.851 195.132 344.547 195.426C344.244 195.72 343.759 195.711 343.465 195.406C342.117 194.006 340.83 193.793 339.856 193.989Z" fill="#313B36"/>
<path d="M340.334 203.876C341.565 203.871 342.555 202.265 342.546 200.288C342.536 198.31 341.531 196.711 340.3 196.715C339.069 196.719 338.078 198.326 338.088 200.303C338.097 202.28 339.103 203.88 340.334 203.876Z" fill="#313B36"/>
<path d="M330.657 217.399C331.869 215.233 337.269 214.787 340.551 217.943C343.833 221.099 341.941 225.272 337.287 226.692C332.634 228.113 329.281 219.894 330.657 217.399Z" fill="#C28145"/>
<path d="M329.398 209.131L331.283 210.13L331.031 206.952" fill="#313B36"/>
<path d="M363.452 199.8C364.116 200.858 364.504 202.099 364.577 203.396C364.649 204.694 364.403 206 363.863 207.182" stroke="#313B36" stroke-width="1.5" stroke-miterlimit="10" stroke-linecap="round"/>
<path d="M423.982 172.849C430.937 179.955 441.997 191.855 449.292 202.689C458.166 215.867 457.5 220 457.5 220" stroke="#313B36" stroke-width="2" stroke-linecap="round"/>
<path d="M322.604 183.472C322.604 183.472 318.021 199.055 309.005 200.472C309.005 200.472 304.462 194.151 306.084 184.07C307.985 172.261 313.59 162.115 330.5 158.5C343.261 155.772 361.232 161 373 161C387.01 161 396.442 159.568 404.91 157.343C411.551 155.598 417.059 159.75 416.05 164.902C416.05 164.902 432.864 169.303 427.838 181.688C427.838 181.688 436.466 185.5 430.622 194.014C426.388 200.182 423.05 199.5 408.5 200.5C393.846 201.507 374.672 208.521 365.61 212.712C370.422 209.384 372.634 203.399 370.939 198.782C369.244 194.164 362.613 189.422 357.561 198.851C355.121 186.383 338.548 197.755 322.604 183.472Z" fill="#907D73"/>
<path d="M323.104 183.47C326.093 186.362 334.673 192.029 345.085 191.565C355.498 191.101 357.408 196.119 357.062 198.686" stroke="#313B36" stroke-width="1.5" stroke-linecap="round"/>
<path d="M320.5 162C320.5 162 329.558 155.911 345.5 158C363.24 160.325 363.753 161.713 380.272 161.114C393.487 160.636 403.477 158.088 406.819 156.874" stroke="#313B36" stroke-width="1.5" stroke-linecap="round"/>
<path d="M318.5 168C314.5 167 309.5 156.9 317.5 152.5" stroke="#313B36" stroke-width="1.5" stroke-linecap="round"/>
<path d="M409.823 156.858C409.823 156.858 412.863 156.305 414.815 159.397C421.27 169.624 398.229 173.335 398.229 173.335M351.235 162.803C361.907 163.774 374.953 163.912 381.807 154.437" stroke="#313B36" stroke-width="1.5" stroke-linecap="round"/>
<path d="M377.598 195.502C392.12 193.888 408.5 183 419.5 185.5" stroke="#313B36" stroke-width="1.5" stroke-linecap="round"/>
<path d="M418.285 166.049C420.12 166.039 424.385 167.146 426.765 171.649C429.145 176.151 428.39 180.362 427.715 181.904" stroke="#313B36" stroke-width="1.5" stroke-linecap="round"/>
<path d="M429.712 182.92C429.712 182.92 432.705 184.957 432.684 189.061C432.664 193.198 428.637 197.804 422.122 199.377" stroke="#313B36" stroke-width="1.5" stroke-linecap="round"/>
<path d="M366.004 211.979C371.68 211.266 383.677 205.519 394.5 203C405.323 200.482 413 199.5 419.615 200.416" stroke="#313B36" stroke-width="1.5" stroke-linecap="round"/>
<path d="M321.595 185.017C320.909 188.611 317.431 196.941 311.012 199.436" stroke="#313B36" stroke-width="1.5" stroke-linecap="round"/>
<path d="M308.015 198.426C304.87 193.312 302.611 178.035 314.682 166.07" stroke="#313B36" stroke-width="1.5" stroke-linecap="round"/>
<path d="M289.654 239.74L286.364 241.618C286.227 241.714 286.081 241.796 285.929 241.865C284.31 242.6 282.272 241.59 281.378 239.608C280.483 237.626 281.071 235.424 282.691 234.689C282.788 234.645 282.887 234.607 282.988 234.575L282.964 234.565L286.638 233.352C286.686 233.337 286.737 233.334 286.786 233.344C286.836 233.355 286.883 233.378 286.922 233.411C286.962 233.445 286.992 233.489 287.012 233.537C287.031 233.586 287.038 233.639 287.033 233.69L286.759 236.108C286.949 236.37 287.111 236.65 287.244 236.946C287.368 237.222 287.466 237.509 287.537 237.804L289.641 239.036C289.703 239.071 289.755 239.123 289.792 239.186C289.829 239.248 289.849 239.319 289.85 239.391C289.852 239.463 289.834 239.534 289.8 239.595C289.765 239.657 289.715 239.707 289.654 239.74Z" fill="#EFEDE7"/>
<path d="M285.831 236.763C285.811 237.11 285.737 237.708 285.686 237.997L285.095 237.886C285.147 237.576 285.22 237.009 285.244 236.66L285.831 236.763ZM282.581 237.29C282.873 237.731 283.24 238.175 283.694 238.527C284.408 239.074 285.235 239.416 285.97 239.487L285.563 240.066C284.82 239.932 284.033 239.562 283.333 239.044C282.905 238.716 282.425 238.196 282.19 237.852L282.581 237.29ZM284.606 236.53C284.588 236.882 284.521 237.475 284.47 237.765L283.872 237.657C283.927 237.345 284.001 236.779 284.019 236.427L284.606 236.53Z" fill="#313B36"/>
<ellipse cx="342" cy="122.5" rx="5" ry="4.5" fill="#C28145"/>
<path d="M336.9 96.8177C336.9 99.3449 334.771 101.43 332.1 101.43C329.429 101.43 327.3 99.3449 327.3 96.8177C327.3 94.2906 329.429 92.206 332.1 92.206C334.771 92.206 336.9 94.2906 336.9 96.8177Z" fill="#D7D5CE" stroke="#313B36" stroke-width="1.2"/>
<circle cx="373" cy="118" r="2.4" fill="#D7D5CE" stroke="#313B36" stroke-width="1.2"/>
<circle cx="304.5" cy="106.5" r="4.9" fill="#D7D5CE" stroke="#313B36" stroke-width="1.2"/>
<defs>
<clipPath id="clip0_1539_2883">
<rect width="126.05" height="150.903" fill="white" transform="matrix(-0.297782 -0.954634 0.954549 -0.298053 401.366 388.487)"/>
</clipPath>
</defs>
</svg>
