<svg width="267" height="555" viewBox="0 0 267 555" fill="none" xmlns="http://www.w3.org/2000/svg">
<g filter="url(#filter0_d_7_72)">
<path fill-rule="evenodd" clip-rule="evenodd" d="M53.4526 0H217.67C230.753 0 243.3 5.18376 252.552 14.4109C261.803 23.6381 267 36.1527 267 49.2019V497.798C267 510.847 261.803 523.362 252.552 532.589C243.3 541.816 230.753 547 217.67 547H53.4526C46.9713 547.005 40.5526 545.736 34.5633 543.266C28.574 540.795 23.1314 537.172 18.5467 532.602C13.962 528.033 10.325 522.607 7.84361 516.635C5.3622 510.664 4.08499 504.263 4.08499 497.798V204.057H1.72794C1.27043 204.055 0.832317 203.872 0.508804 203.55C0.18529 203.227 0.00246642 202.79 0 202.334V166.395C0 165.938 0.182063 165.499 0.50611 165.176C0.830156 164.853 1.26967 164.671 1.72794 164.671H4.08499V154.247H1.72794C1.26967 154.247 0.830156 154.065 0.50611 153.742C0.182063 153.419 0 152.98 0 152.523V116.593C0 116.136 0.182063 115.698 0.50611 115.375C0.830156 115.052 1.26967 114.87 1.72794 114.87H4.08499V90.817H1.72794C1.26967 90.817 0.830156 90.6354 0.50611 90.3122C0.182063 89.989 0 89.5506 0 89.0936V70.2483C0.00487959 70.0219 0.05444 69.7988 0.145815 69.5915C0.237189 69.3843 0.368582 69.1971 0.532533 69.0405C0.696483 68.8839 0.889739 68.7611 1.10129 68.6791C1.31284 68.597 1.53855 68.5574 1.76548 68.5623H4.12259V49.2019C4.12259 36.1527 9.31984 23.6381 18.571 14.4109C27.8222 5.18376 40.3694 0 53.4526 0ZM251 50H16V467H251V50Z" fill="#E3E1DB"/>
</g>
<path d="M100 30C101.657 30 103 28.6569 103 27C103 25.3431 101.657 24 100 24C98.3431 24 97 25.3431 97 27C97 28.6569 98.3431 30 100 30Z" fill="white"/>
<path d="M166.876 24H123.124C121.399 24 120 25.3431 120 27C120 28.6569 121.399 30 123.124 30H166.876C168.601 30 170 28.6569 170 27C170 25.3431 168.601 24 166.876 24Z" fill="white"/>
<defs>
<filter id="filter0_d_7_72" x="-4" y="0" width="275" height="555" filterUnits="userSpaceOnUse" color-interpolation-filters="sRGB">
<feFlood flood-opacity="0" result="BackgroundImageFix"/>
<feColorMatrix in="SourceAlpha" type="matrix" values="0 0 0 0 0 0 0 0 0 0 0 0 0 0 0 0 0 0 127 0" result="hardAlpha"/>
<feOffset dy="4"/>
<feGaussianBlur stdDeviation="2"/>
<feComposite in2="hardAlpha" operator="out"/>
<feColorMatrix type="matrix" values="0 0 0 0 0 0 0 0 0 0 0 0 0 0 0 0 0 0 0.25 0"/>
<feBlend mode="normal" in2="BackgroundImageFix" result="effect1_dropShadow_7_72"/>
<feBlend mode="normal" in="SourceGraphic" in2="effect1_dropShadow_7_72" result="shape"/>
</filter>
</defs>
</svg>
