<svg width="220" height="230" viewBox="0 0 220 230" fill="none" xmlns="http://www.w3.org/2000/svg">
<path d="M218.969 115.024L218.962 115.085L218.962 115.096L218.961 115.104C218.959 115.12 218.955 115.146 218.952 115.176C218.947 115.224 218.936 115.338 218.952 115.473C218.952 115.475 218.952 115.477 218.952 115.479C218.557 118.814 215.596 122.249 209.977 125.555C204.324 128.88 196.243 131.917 186.264 134.49C166.32 139.634 138.998 142.879 108.879 142.997C78.7553 143.114 52.327 140.255 33.1113 135.385C23.4984 132.949 15.7393 130.021 10.2338 126.743C4.73008 123.466 1.67102 119.957 1.02135 116.411L1.0001 115.498C1.26843 85.1366 11.5725 56.7657 32.33 35.1628C53.1085 13.538 81.1305 1.25734 110.226 1.004C139.32 0.750666 167.121 12.5438 187.515 33.7984C207.909 55.0547 219.228 84.0377 218.963 114.377L218.963 114.414L218.965 114.452C218.972 114.552 218.985 114.656 218.991 114.709C218.994 114.737 218.996 114.758 218.997 114.773C218.997 114.774 218.997 114.774 218.997 114.774L218.969 115.024ZM218.966 115.069L218.966 115.07C218.967 115.061 218.968 115.06 218.966 115.069Z" stroke="#313B36" stroke-width="2"/>
<path d="M110.621 142.512C170.05 142.268 218.172 130.764 218.104 116.817C218.035 102.87 169.803 91.7623 110.373 92.0067C50.9437 92.2511 2.82199 103.755 2.89031 117.702C2.95863 131.649 51.1911 142.757 110.621 142.512Z" fill="#6A5D54" stroke="#313B36" stroke-width="3" stroke-miterlimit="10"/>
<path d="M100.526 59.2859L156.622 60.093L156.27 90.0807L127.913 93.8138L102.353 96.3078L100.526 59.2859Z" fill="#907D73"/>
<path d="M124.236 86.2396L159.079 74.4111C166.353 73.5293 199.48 133.406 188.21 159.809C188.21 159.809 202.77 186.506 167.848 212.631C167.848 212.631 174.166 191.581 155.989 170.687L84.1479 174.952C84.1479 174.952 86.5 111 108.5 96C112.215 93.5574 120.27 89.2713 123 88C124.5 87.3014 124.236 86.2396 124.236 86.2396Z" fill="#D8C5A8"/>
<path d="M129.674 172.618L92.9496 147.923L71.6765 181.047C71.6765 181.047 110.238 211.129 117.479 210.251L139.549 207.576C139.549 207.576 144.507 185.359 129.674 172.618Z" fill="#6A5D54"/>
<path d="M132.963 66.1248L126.184 53.2297L118.783 60.994L132.963 66.1248Z" fill="#6A5D54"/>
<path d="M112.5 111.5C110.27 119 110.27 124.1 110.27 124.1" stroke="#313B36" stroke-width="1.2" stroke-linecap="round"/>
<path d="M124.758 92.9998C123.558 90.9998 124.591 87.4998 125.258 85.9998C124.591 86.3331 123.158 87.0998 122.758 87.4998C122.258 87.9998 116.5 93.9998 118 97.4998C119.5 101 121.741 100.5 124.5 98.9998C125.285 98.5725 127.258 96.4998 128.258 95.4998C129.091 96.9998 129.741 99.9998 132.499 101C134.602 101.762 137.758 101 141.258 98.9998C144.058 97.3998 148.5 92.9998 151 85.9998L145.258 81.9998L135.258 91.9998C133.258 93.9998 129.425 95.1664 127.758 95.4998C127.258 95.4998 125.958 94.9998 124.758 92.9998Z" fill="#F5F3ED"/>
<path d="M128.547 95.2404C128.635 98.9311 132.606 105.756 142.891 97.9433C151.588 91.3368 150.308 82.6084 150.219 80.3984" stroke="#313B36" stroke-width="1.2"/>
<path d="M125.302 86.2395C119.438 88.9051 116.239 96.3686 118.905 99.0341C122.231 102.361 127.157 97.642 127.987 95.3212" stroke="#313B36" stroke-width="1.2"/>
<path d="M125.16 87.0432L125.16 87.043L125.16 87.0429L125.272 86.8192L125.191 86.5814L120.749 73.5421L140.003 68.4306L149.211 80.4556C149.082 80.5897 148.919 80.7579 148.726 80.9561C148.188 81.5061 147.412 82.286 146.462 83.2034C144.56 85.0395 141.967 87.421 139.192 89.6133C136.408 91.8119 133.476 93.7923 130.893 94.8552C128.264 95.9372 126.266 95.9676 125.046 94.7515C123.868 93.5764 123.815 91.7509 124.157 90.043C124.325 89.2107 124.576 88.4569 124.788 87.9092C124.893 87.6362 124.988 87.4165 125.056 87.2665C125.089 87.1915 125.116 87.134 125.134 87.0961L125.155 87.0542L125.159 87.0448L125.16 87.0432Z" fill="#F5F3ED" stroke="#313B36" stroke-width="1.2"/>
<path d="M127.349 121.656L127.517 123.039C127.53 123.099 127.537 123.16 127.539 123.221C127.558 123.875 126.922 124.42 126.12 124.44C125.317 124.459 124.652 123.945 124.633 123.291C124.632 123.252 124.633 123.213 124.637 123.174L124.63 123.181L124.743 121.763C124.744 121.745 124.751 121.727 124.761 121.712C124.772 121.697 124.786 121.684 124.804 121.676C124.821 121.667 124.84 121.663 124.859 121.663C124.879 121.664 124.898 121.669 124.914 121.678L125.698 122.117C125.814 122.09 125.933 122.075 126.053 122.072C126.164 122.07 126.276 122.078 126.387 122.096L127.107 121.56C127.128 121.544 127.153 121.534 127.18 121.53C127.206 121.527 127.233 121.53 127.258 121.54C127.283 121.55 127.304 121.566 127.32 121.586C127.336 121.607 127.346 121.631 127.349 121.656Z" fill="#F5F3ED"/>
<path d="M95.1152 47.1332C95.1152 47.1332 101.368 56 104.5 64.5C107.631 73 109.5 76.408 113.574 78.8124C117.099 80.8926 125.302 81.9749 129.567 80.9086C133.832 79.8424 139.726 74.5343 142.014 70.7796C145.502 65.0551 145.162 59.0147 145.162 59.0147C145.162 59.0147 150.077 54.8618 148.775 49.2642C147.473 43.6667 144.486 41.8867 140.225 44.8756L137.275 26.8192L124.686 19.565L110.393 24.6982L95.1152 47.1332Z" fill="#F5F3ED" stroke="#313B36" stroke-width="1.8" stroke-miterlimit="10"/>
<mask id="path-14-inside-1_1253_25111" fill="white">
<path d="M103.5 56.4996C102.434 54.8164 93.4019 54.9581 95.4996 63.4999C97.4996 72.4999 108 70.9999 108 70.9999"/>
</mask>
<path d="M103.5 56.4996C102.434 54.8164 93.4019 54.9581 95.4996 63.4999C97.4996 72.4999 108 70.9999 108 70.9999" fill="#F5F3ED"/>
<path d="M95.4996 63.4999L97.453 63.0322L97.4582 63.0535L97.463 63.0748L95.4996 63.4999ZM101.797 57.5544C101.982 57.8478 102.167 57.8741 102.001 57.8064C101.88 57.7573 101.651 57.6939 101.319 57.6629C100.651 57.6006 99.8262 57.6929 99.0997 57.9975C98.3973 58.2921 97.8508 58.7526 97.532 59.4191C97.21 60.0921 97.0065 61.2139 97.453 63.0322L93.5462 63.9675C92.9439 61.515 93.0828 59.4159 93.8977 57.7125C94.7158 56.0027 96.1007 54.9315 97.5273 54.3332C98.9299 53.7451 100.432 53.5837 101.692 53.7013C102.324 53.7603 102.958 53.8953 103.528 54.1272C104.051 54.3405 104.751 54.7307 105.203 55.4449L101.797 57.5544ZM97.463 63.0748C98.2538 66.6334 100.625 68.079 103.01 68.701C104.231 69.0197 105.424 69.104 106.325 69.104C106.771 69.104 107.134 69.0834 107.379 69.0637C107.501 69.0539 107.593 69.0443 107.65 69.0379C107.678 69.0346 107.698 69.0322 107.708 69.0309C107.713 69.0302 107.716 69.0298 107.716 69.0298C107.716 69.0298 107.716 69.0298 107.715 69.03C107.714 69.03 107.714 69.0301 107.713 69.0302C107.713 69.0303 107.712 69.0304 107.712 69.0304C107.711 69.0305 107.71 69.0307 108 70.9999C108.289 72.9691 108.288 72.9692 108.287 72.9694C108.287 72.9694 108.286 72.9696 108.285 72.9697C108.284 72.9699 108.282 72.9701 108.28 72.9703C108.277 72.9708 108.273 72.9714 108.268 72.9721C108.258 72.9734 108.246 72.975 108.231 72.9769C108.201 72.9807 108.162 72.9856 108.113 72.9912C108.015 73.0023 107.879 73.0162 107.71 73.0298C107.373 73.057 106.9 73.0833 106.33 73.0832C105.2 73.0832 103.643 72.98 101.99 72.5487C98.6239 71.6708 94.7455 69.3663 93.5363 63.9249L97.463 63.0748Z" fill="#313B36" mask="url(#path-14-inside-1_1253_25111)"/>
<path d="M103.77 65.7244C102.198 65.0077 101.449 62.2544 101.583 61.2507" stroke="#313B36" stroke-width="1.2" stroke-miterlimit="10" stroke-linecap="round"/>
<path d="M112.605 61.2433C113.787 61.0887 114.542 59.4253 114.291 57.5279C114.041 55.6306 112.88 54.2179 111.698 54.3724C110.516 54.527 109.761 56.1904 110.012 58.0878C110.262 59.9851 111.423 61.3978 112.605 61.2433Z" fill="#313B36"/>
<path fill-rule="evenodd" clip-rule="evenodd" d="M110.016 52.3789C109.108 52.8266 108.62 53.6107 108.551 54.0572C108.492 54.4383 108.115 54.6956 107.709 54.6318C107.303 54.5679 107.021 54.2072 107.081 53.8261C107.225 52.8925 108.039 51.7604 109.305 51.1361C110.633 50.4817 112.426 50.3922 114.484 51.5003C114.843 51.6939 114.974 52.1219 114.776 52.4564C114.578 52.7908 114.126 52.905 113.767 52.7114C112.117 51.823 110.863 51.9613 110.016 52.3789Z" fill="#313B36"/>
<path fill-rule="evenodd" clip-rule="evenodd" d="M130.613 48.4834C129.665 48.6871 129.003 49.317 128.815 49.7274C128.654 50.0777 128.24 50.2306 127.891 50.0689C127.541 49.9072 127.387 49.4922 127.548 49.1419C127.941 48.2837 128.996 47.4013 130.318 47.1172C131.704 46.8194 133.354 47.178 134.906 48.7488C135.177 49.0232 135.175 49.4655 134.902 49.7367C134.629 50.0079 134.188 50.0053 133.917 49.7309C132.672 48.4716 131.497 48.2934 130.613 48.4834Z" fill="#313B36"/>
<path d="M131.497 58.0712C132.688 58.0198 133.584 56.4283 133.5 54.5164C133.415 52.6045 132.381 51.0962 131.19 51.1475C129.999 51.1989 129.103 52.7904 129.188 54.7023C129.272 56.6142 130.306 58.1225 131.497 58.0712Z" fill="#313B36"/>
<path d="M122.688 62.6155L124.439 63.4566L124.096 60.5739" fill="#313B36"/>
<path d="M128.746 70.2658C128.895 70.8547 128.715 71.4962 128.235 72.0841C128.007 72.3509 127.716 72.5985 127.375 72.8162C126.99 73.0635 126.522 73.2457 126.026 73.341C125.531 73.4363 125.028 73.4406 124.58 73.3535C124.184 73.2766 123.824 73.1542 123.513 72.9917C122.847 72.6251 122.44 72.0961 122.361 71.4931C122.254 71.0375 122.333 70.551 122.589 70.0776C122.666 69.9398 122.762 69.8046 122.876 69.674C123.104 69.4079 123.393 69.1607 123.732 68.9427C124.114 68.6942 124.582 68.5113 125.078 68.416C125.573 68.3208 126.075 68.3173 126.523 68.4062C126.92 68.4819 127.282 68.604 127.593 68.7672C127.746 68.8469 127.883 68.9371 128.004 69.0367C128.42 69.3808 128.674 69.8033 128.746 70.2658Z" fill="#C28145"/>
<path d="M143.276 48.5798C143.842 49.2811 144.223 50.1352 144.38 51.0545C144.538 51.9737 144.465 52.9249 144.171 53.8102" stroke="#313B36" stroke-width="1.2" stroke-miterlimit="10" stroke-linecap="round"/>
<path d="M158.027 82.0412C149.754 81.4193 150.572 92.5991 163.243 137.429L127.572 133.599L117.959 151.308C117.959 151.308 143.939 179.066 171.832 162.406C194.47 153.835 190.43 138.282 185.216 118.293C178.818 93.7696 170.078 85.2146 158.027 82.0412Z" fill="#D8C5A8"/>
<path d="M97.4999 115.5C96.9245 116.73 85.9998 106 85.9998 106C85.2613 103.64 86.9999 92.4998 87.4998 84.9997C87.9998 77.4997 88.8254 68.7694 87.9999 54.5C87.3276 42.8798 89.5103 32.8309 96.5369 23.3306C101.439 16.7032 112.431 11.3676 120.034 12.9998C132.785 8.15615 146.813 18.5 150.669 32.2646C154.525 46.0292 155 52.4998 161.874 63.9454C164.309 67.9998 166 72.9998 175.735 82.9101C185.47 92.8204 180 102.5 180 102.5C180 102.5 174.5 90.9997 165.5 88.9997C156.5 86.9997 147.916 87.2027 146.5 84.9997C142 77.9997 143.108 76.4972 142 72.4998C142 72.4998 144.323 68.3504 144.815 66.3837C145.348 64.2512 145.735 61.2004 145.881 59.4532C147.465 57.6896 149.509 54.6601 149.613 51.9897C149.758 48.2544 148.084 45.1952 146.362 44.1519C144.335 42.9242 142.538 43.1883 140.55 45.0593C138.562 46.9303 137 46.5 137 46.5C137 46.5 134.242 46.7776 130.421 42.9269C124.839 37.3022 122.046 31.1776 122.046 31.1776C114.961 33.3308 110.743 40.357 108.563 47.7248C105.896 56.7407 101.69 59.0223 101.69 59.0223C101.69 59.0223 100.617 56.9958 98.4438 57.5153C96.2702 58.0348 94.4996 59.4998 95.9996 64.4998C97.4996 69.4998 102 70.9998 106.5 70.9998C108.5 77.4998 116.5 80.9998 116.5 80.9998C119.213 84.6305 123.355 84.9575 109 95.9997C102.5 101 100.713 108.63 97.4999 115.5Z" fill="#907D73"/>
<path d="M91.8462 31.2577C90.435 33.1506 85.9999 43 88.9999 68.5" stroke="#313B36" stroke-width="1.5" stroke-linecap="round"/>
<path d="M89 67.4998C89.5 73.9998 88.5065 86.5059 87.2758 91.1826C85.7374 97.0285 84.5067 110.874 90.3525 121.643" stroke="#313B36" stroke-width="1.5" stroke-linecap="round"/>
<path d="M170 82.9997C171.333 84.4356 174.246 88.5995 175.231 93.7684" stroke="#313B36" stroke-width="1.5" stroke-linecap="round"/>
<path d="M122.889 32.7241C124.017 35.8009 132.5 50.5 142 44.5" stroke="#313B36" stroke-width="1.5" stroke-linecap="round"/>
<path d="M131.5 35.5C132.833 37.7563 136.5 45 142 44" stroke="#313B36" stroke-width="1.5" stroke-linecap="round"/>
<path d="M180.5 102.5C183.269 97.8847 181.348 89.3366 175.502 82.26C168.053 73.2431 163.81 70.2607 159.195 60.1073C155.503 51.9846 153.668 43.8305 150.657 33.0317C148 23.5 142.142 18 137 15C131 11.4997 122.5 12.5 122.5 12.5" stroke="#313B36" stroke-width="1.5" stroke-linecap="round"/>
<path d="M156 70.9998C156.513 74.897 158.882 83.6931 163.805 86.8929" stroke="#313B36" stroke-width="1.5" stroke-linecap="round"/>
<path d="M111 29C104 33.5 105 49.5 99 53.5" stroke="#313B36" stroke-width="1.5" stroke-linecap="round"/>
<path d="M119.5 12.9999C116.333 12.1665 108.5 13.5 102.5 17.4999C95.6709 22.0524 93.3334 27.3333 93 28.5" stroke="#313B36" stroke-width="1.5" stroke-linecap="round"/>
<path d="M120.498 17C120.235 19.5358 120.422 21.527 120.657 24.016" stroke="#313B36" stroke-width="1.5" stroke-linecap="round"/>
<path d="M121.922 30.9998C117.922 30.9998 112.985 35.6149 110.538 43.3068C108.384 50.0757 105 56.5369 101 59.6137" stroke="#313B36" stroke-width="1.5" stroke-linecap="round"/>
<path d="M99.0008 80.5C104 90.5 94.9999 98 100.5 106.5" stroke="#313B36" stroke-width="1.5" stroke-linecap="round"/>
<path d="M91.814 106.259C91.3012 109.746 92.7371 113.643 94.5832 116.412" stroke="#313B36" stroke-width="1.5" stroke-linecap="round"/>
<path d="M141.5 71.9998C141.833 75.9998 143.667 82.8538 148.667 85.6664C154 88.6664 161.5 87.9999 161.5 87.9999" stroke="#313B36" stroke-width="1.5" stroke-linecap="round"/>
<path d="M76.2349 129.108L106.993 143.414L80.9153 174.699L70.2431 166.261L68.9755 165.259L69.0289 166.87L70.4162 208.758C70.3992 208.765 70.3817 208.772 70.3638 208.779C70.0314 208.914 69.5451 209.101 68.9376 209.303C67.7205 209.708 66.0274 210.173 64.1177 210.416C60.2795 210.904 55.7085 210.485 52.2879 207.08C51.3835 206.18 50.4472 204.627 49.5144 202.509C48.5886 200.407 47.6934 197.813 46.8449 194.888C45.1482 189.039 43.6545 181.922 42.4784 174.894C41.3026 167.868 40.4473 160.949 40.0239 155.5C39.8121 152.774 39.7092 150.427 39.7267 148.624C39.7355 147.722 39.7743 146.968 39.842 146.376C39.9121 145.765 40.0062 145.395 40.0901 145.216C42.2532 140.61 45.9479 136.105 48.3689 133.759C50.7639 131.438 53.6103 129.623 56.7359 128.424C59.8615 127.226 63.2012 126.668 66.5528 126.786C69.9044 126.903 73.198 127.693 76.2344 129.108L76.2349 129.108Z" fill="#F5F3ED" stroke="#313B36" stroke-width="1.5"/>
<path d="M48.0815 99.5963L44.5369 96.2311C45.5778 96.786 46.8038 97.4683 48.0761 98.238C49.8024 99.2823 51.6053 100.482 53.1448 101.737C54.693 103 55.9351 104.287 56.5842 105.497L57.2482 106.736L57.5152 105.366L57.5154 105.365L57.5154 105.364C57.5159 105.362 57.517 105.358 57.5188 105.351C57.5192 105.349 57.5196 105.348 57.52 105.346C57.5251 105.327 57.5345 105.294 57.5496 105.25C57.5799 105.162 57.6333 105.029 57.7219 104.869C57.8983 104.549 58.2165 104.115 58.7789 103.702C59.8982 102.881 62.0597 102.091 66.1761 102.582C70.3792 103.083 74.3999 103.475 77.3693 103.741C78.8542 103.874 80.0766 103.976 80.9279 104.044C81.3536 104.079 81.6866 104.104 81.9133 104.122L82.0788 104.134L85.5956 107.535L62.9202 115.305L38.4039 101.154L39.4264 98.5853L47.6292 100.445L49.3977 100.846L48.0815 99.5963Z" fill="#F5F3ED" stroke="#313B36"/>
<path d="M54.9148 109.616L55.2465 109.766L55.4901 109.498L57.4901 107.297L94.7791 138.378L76.1808 135.562L39.3838 102.607L54.9148 109.616Z" fill="#F5F3ED" stroke="#313B36"/>
<path d="M96.6429 138.581L58.7948 107.42L85.1792 105.773L107.76 124.965L109.601 126.831L115.219 136.074L96.6429 138.581Z" fill="#F5F3ED" stroke="#313B36"/>
<path d="M89.665 132.958L85.5094 135.738L55.4659 109.761L58.9579 107.612L89.665 132.958Z" fill="#F5F3ED" stroke="#313B36"/>
<path d="M76.856 215.356L59.0201 214.072L59.02 214.046C59.0189 213.573 59.0175 212.878 59.0167 211.991C59.0149 210.217 59.0152 207.674 59.023 204.598C59.0387 198.447 59.0848 190.169 59.2065 181.656C59.3282 173.142 59.5255 164.4 59.8432 157.32C60.0021 153.779 60.1909 150.661 60.4146 148.198C60.6408 145.708 60.8973 143.963 61.1704 143.115C62.376 139.375 63.3233 137.033 64.2588 135.34C65.1834 133.667 66.1073 132.608 67.3059 131.446C69.7011 129.125 72.5475 127.31 75.6732 126.112C78.7989 124.913 82.1387 124.356 85.4904 124.473C88.8421 124.591 92.1358 125.381 95.1723 126.796L95.1727 126.796L125.931 141.102L99.8365 172.389L89.1813 163.949L88.2389 163.203L87.9833 164.374L76.856 215.356Z" fill="#F5F3ED" stroke="#313B36" stroke-width="1.5"/>
<path d="M128.107 150.349L119.606 145.028L119.459 144.937L119.288 144.918L119.21 145.663C119.288 144.918 119.288 144.918 119.288 144.918L119.287 144.918L119.285 144.918L119.278 144.917L119.249 144.914L119.132 144.901C119.031 144.889 118.881 144.872 118.69 144.85C118.307 144.806 117.76 144.742 117.101 144.661C115.781 144.498 114.016 144.27 112.23 144.003C110.439 143.736 108.642 143.433 107.251 143.124C106.553 142.968 105.978 142.816 105.565 142.672C105.357 142.599 105.21 142.535 105.117 142.485C105.1 142.475 105.086 142.467 105.076 142.461C105.012 142.343 104.913 142.131 104.781 141.816C104.629 141.454 104.45 140.995 104.253 140.472C103.859 139.426 103.403 138.141 102.968 136.89C102.534 135.639 102.123 134.426 101.821 133.526C101.67 133.075 101.546 132.703 101.46 132.444L101.36 132.144L101.334 132.065L101.327 132.045L101.326 132.04L101.325 132.039L101.325 132.039L100.612 132.27L101.325 132.039L101.152 131.512L100.598 131.52C98.9174 131.545 97.1113 131.062 95.5903 130.35C94.0453 129.628 92.9321 128.736 92.5113 128.046C92.7178 128.085 92.9715 128.14 93.2808 128.213C93.6921 128.31 94.1685 128.431 94.7235 128.571C95.0607 128.656 95.427 128.749 95.8253 128.848C97.0035 129.142 98.4499 129.1 99.8994 128.908C101.363 128.715 102.899 128.359 104.287 127.974C105.678 127.589 106.934 127.172 107.842 126.851C108.296 126.69 108.665 126.553 108.92 126.457C109.048 126.408 109.147 126.37 109.216 126.343L109.294 126.312L109.314 126.304L109.32 126.302L109.321 126.301L109.322 126.301C109.322 126.301 109.322 126.301 109.04 125.605L109.322 126.301L110.43 125.857L109.543 125.052L107.481 123.178L116.79 126.06L127.809 136.109L128.107 150.349Z" fill="#F5F3ED" stroke="#313B36" stroke-width="1.5"/>
<path d="M126 102C125.063 101.979 124.447 106.994 125.289 110.666C122.27 115.543 120.776 127.068 127.5 129.5C127.5 129.5 126.614 130.005 125.114 136.005C123.614 142.005 126.114 143.005 130.114 142.505C133.957 142.025 132.5 137 135 133C135.547 132.126 140.633 132.555 139.783 133.995C136.244 139.989 137.75 145.005 142.114 145.005C145.789 145.005 146.5 139.5 148 134L159.114 135.505C159.114 135.505 157.114 129.005 156.114 120.505C155.114 112.005 151 105.5 151 105.5C151 105.5 146.474 97.0874 145.647 97.3468C144.986 97.5544 141.127 103.365 140.5 105C140.5 105 138.016 104.051 136 104.378C133.984 104.705 131 106 131 106C129.517 104.876 126.776 102.017 126 102Z" fill="#F5F3ED"/>
<path d="M125.342 106.204L125.342 110.915L125.039 113.005L124.039 115.505C133.539 116.505 134.209 111.72 135.62 109.28C137.696 112.211 140 115.005 146.5 115.505C152.5 118 158.5 128 158.5 128L155.5 113.005L150.614 105.139L148.614 102.005L145.539 98.0051L142.846 101.313L140.652 105.139L138.641 104.624L135.039 104.624L131.088 106.41L126.539 102.005L125.342 106.204Z" fill="#C28145"/>
<path d="M125.289 111.666C124.447 107.994 125.271 101.976 126.208 101.997C126.984 102.014 129.754 105.355 131.237 106.479C131.237 106.479 133.822 105.066 135.839 104.739C137.855 104.412 140.577 105.378 140.577 105.378C141.204 103.743 144.986 98.5545 145.647 98.3469C146.474 98.0875 150.614 105.378 150.614 105.378C150.614 105.378 156.051 111 157.614 123.505C159.177 136.01 160.5 135.5 160.5 135.5L148.614 134.505C145.5 139 146.5 146.5 142.114 146.005C140.02 145.769 138.919 146.008 138 144C136.517 140.763 138.003 136.364 139.614 133.005L135.614 133.005C131 138 134.386 144.495 128 144C125.255 143.787 123.614 142.005 125 137C126.386 131.995 128.114 130.005 128.114 130.005C120.614 127.005 122.27 116.543 125.289 111.666Z" stroke="#313B36" stroke-width="1.5"/>
<path d="M140.7 117.895L140.76 116.312" stroke="#313B36" stroke-width="2" stroke-linecap="round"/>
<path d="M129.951 116.657L130.009 118.013" stroke="#313B36" stroke-width="2" stroke-linecap="round"/>
<circle cx="135.711" cy="119.947" r="0.641932" transform="rotate(34.8825 135.711 119.947)" fill="#313B36"/>
<path d="M133.731 123.779L135.552 122.111L137.31 123.629" stroke="#313B36" stroke-linecap="round"/>
<path d="M145.348 123.226C146.687 123.412 149.797 123.966 151.519 124.697" stroke="#313B36" stroke-linecap="round"/>
<path d="M145.15 120.318C145.15 120.318 148.068 119.002 152.292 120.62" stroke="#313B36" stroke-linecap="round"/>
<path d="M127.019 123.519C125.702 123.823 122.653 124.65 121.002 125.531" stroke="#313B36" stroke-linecap="round"/>
<path d="M126.577 120.283C124.628 119.999 121.705 119.701 118.791 121.045" stroke="#313B36" stroke-linecap="round"/>
<path d="M156.5 111.5C156.5 111.5 157.524 118.642 158.5 124.5C159.5 130.5 161.5 136 161.5 136L149 135" stroke="#313B36" stroke-width="1.2" stroke-linecap="round"/>
<path d="M110.859 229C69.6621 228.982 42.6941 214.28 25.8395 193.127C9.73145 172.911 2.77595 146.695 1.61172 121.485C3.57372 123.925 6.35451 126.103 9.98272 128.044C15.1213 130.792 22.0226 133.098 30.8754 135.004C48.5804 138.817 74.2806 141.067 109.746 141.934C139.48 142.661 167.048 139.743 187.207 134.958C197.279 132.567 205.551 129.699 211.327 126.557C214.214 124.987 216.524 123.324 218.122 121.58C218.406 121.271 218.668 120.958 218.909 120.64C218.911 120.714 218.913 120.79 218.915 120.866C218.987 123.958 218.957 128.381 218.549 133.691C217.733 144.317 215.403 158.463 209.361 172.592C203.322 186.714 193.582 200.805 177.945 211.367C162.31 221.928 140.708 229.01 110.859 229Z" fill="#E7E1D2" stroke="#313B36" stroke-width="2"/>
<path opacity="0.4" d="M20.9486 188.228C7.86881 170.057 0.925174 142.522 0.483398 117.862C0.483398 117.862 1.52715 119.994 3.53343 122.097C4.82877 123.537 6.5981 124.841 8.01114 125.857C11.4776 128.348 19.2922 131.14 19.2922 131.14C20.755 137.158 22.6659 159.235 39.8123 184.468C61.2453 216.01 102.811 229.78 102.811 229.78C89.1118 229.392 76.3473 226.363 70.4903 224.377C56.3362 219.578 38.023 211.948 20.9486 188.228Z" fill="black" fill-opacity="0.4"/>
</svg>
