<svg width="24" height="25" viewBox="0 0 24 25" fill="none" xmlns="http://www.w3.org/2000/svg">
<path d="M4.25 0.5H19.75C22.1 0.5 24 2.44872 24 4.85897V20.141C24 22.5513 22.1 24.5 19.75 24.5H4.25C1.9 24.5 0 22.5513 0 20.141V4.85897C0 2.44872 1.9 0.5 4.25 0.5Z" fill="#352D26"/>
<path d="M12.62 6.80765L9.62002 11.8846L12.82 17.2692C12.84 17.3102 12.85 17.3512 12.84 17.3923C12.83 17.4333 12.79 17.4025 12.73 17.4128H10.44C10.28 17.4128 10.17 17.4025 10.1 17.3C9.89002 16.8692 9.67002 16.4487 9.46002 16.0179C9.25002 15.5974 9.02002 15.1666 8.78002 14.7256C8.54002 14.2846 8.30002 13.8436 8.06002 13.3923H8.04002C7.83002 13.8333 7.60002 14.2743 7.37002 14.7153C7.14002 15.1564 6.91002 15.5974 6.69002 16.0282C6.46002 16.4589 6.23002 16.9 6.00002 17.3205C5.96002 17.423 5.88002 17.4333 5.77002 17.4333H3.57002C3.53002 17.4333 3.50002 17.4538 3.50002 17.4025C3.49002 17.3615 3.50002 17.3205 3.52002 17.2897L6.63002 12.0589L3.60002 6.7974C3.57002 6.75637 3.56002 6.71535 3.58002 6.69483C3.60002 6.66407 3.64002 6.65381 3.68002 6.65381H5.95002C6.00002 6.65381 6.05002 6.66407 6.09002 6.67432C6.13002 6.69483 6.16002 6.7256 6.19002 6.76663C6.38002 7.20765 6.60002 7.64868 6.83002 8.08971C7.07002 8.53073 7.30002 8.9615 7.55002 9.39227C7.79002 9.82304 8.01002 10.2538 8.22002 10.6948H8.24002C8.45002 10.2436 8.67002 9.80253 8.89002 9.37176C9.11002 8.94099 9.34002 8.51022 9.57002 8.07945C9.80002 7.64868 10.02 7.20765 10.24 6.78714C10.25 6.74612 10.27 6.70509 10.3 6.68458C10.34 6.66406 10.38 6.65381 10.43 6.66406H12.54C12.59 6.65381 12.64 6.68458 12.65 6.73586C12.66 6.74612 12.64 6.78714 12.62 6.80765Z" fill="#FF61F6"/>
<path d="M17.2397 17.6283C16.4997 17.6385 15.7597 17.4847 15.0897 17.1667C14.4597 16.8693 13.9397 16.377 13.5797 15.7719C13.2097 15.1462 13.0297 14.3667 13.0297 13.4334C13.0197 12.6744 13.2097 11.9257 13.5797 11.2693C13.9597 10.6026 14.5097 10.0488 15.1697 9.67955C15.8697 9.27955 16.7097 9.08468 17.6997 9.08468C17.7497 9.08468 17.8197 9.08468 17.9097 9.09494C17.9997 9.10519 18.0997 9.10519 18.2197 9.11545V5.87442C18.2197 5.80263 18.2497 5.7616 18.3197 5.7616H20.3497C20.3997 5.75135 20.4397 5.79237 20.4497 5.8334C20.4497 5.84366 20.4497 5.85391 20.4497 5.85391V15.618C20.4497 15.8026 20.4597 16.0078 20.4697 16.2334C20.4897 16.4488 20.4997 16.6539 20.5097 16.8283C20.5097 16.9001 20.4797 16.9616 20.4097 16.9924C19.8897 17.218 19.3397 17.3821 18.7797 17.4847C18.2697 17.577 17.7597 17.6283 17.2397 17.6283ZM18.2197 15.577V11.0642C18.1297 11.0437 18.0397 11.0231 17.9497 11.0129C17.8397 11.0026 17.7297 10.9924 17.6197 10.9924C17.2297 10.9924 16.8397 11.0744 16.4897 11.259C16.1497 11.4334 15.8597 11.6898 15.6397 12.018C15.4197 12.3462 15.3097 12.7872 15.3097 13.3206C15.2997 13.6796 15.3597 14.0385 15.4797 14.377C15.5797 14.6539 15.7297 14.9001 15.9297 15.1052C16.1197 15.2898 16.3497 15.4334 16.6097 15.5154C16.8797 15.6078 17.1597 15.6488 17.4397 15.6488C17.5897 15.6488 17.7297 15.6385 17.8597 15.6283C17.9897 15.6385 18.0997 15.618 18.2197 15.577Z" fill="#FF61F6"/>
</svg>
