<svg width="17" height="12" viewBox="0 0 17 12" fill="none" xmlns="http://www.w3.org/2000/svg">
<path d="M7.15294 5.47784C8.03627 5.05562 8.49739 4.41673 8.49739 3.42229C8.49739 1.46118 7.03627 0.983398 5.35016 0.983398H0.708496V10.8278H5.48072C7.26961 10.8278 8.95016 9.96951 8.95016 7.96951C8.95016 6.7334 8.36405 5.81951 7.15294 5.47784ZM2.87239 2.66395H4.90294C5.6835 2.66395 6.38627 2.8834 6.38627 3.78895C6.38627 4.62506 5.83905 4.96118 5.06683 4.96118H2.87239V2.66395ZM5.18627 9.15562H2.87239V6.44451H5.23072C6.1835 6.44451 6.78627 6.84173 6.78627 7.85007C6.78627 8.84451 6.06683 9.15562 5.18627 9.15562ZM15.1446 2.46951H11.1529V1.50007H15.1446V2.46951ZM16.7085 7.36673C16.7085 5.2584 15.4752 3.50007 13.2391 3.50007C11.0668 3.50007 9.59183 5.1334 9.59183 7.27229C9.59183 9.49173 10.9891 11.014 13.2391 11.014C14.9418 11.014 16.0446 10.2473 16.5752 8.61673H14.8474C14.6613 9.22507 13.8946 9.54729 13.3002 9.54729C12.1529 9.54729 11.5502 8.87507 11.5502 7.7334H16.6918C16.7002 7.61673 16.7085 7.49173 16.7085 7.36673ZM11.5529 6.50007C11.6168 5.56395 12.2391 4.97784 13.1779 4.97784C14.1613 4.97784 14.6557 5.55562 14.7391 6.50007H11.5529Z" fill="white"/>
</svg>
