<svg width="24" height="25" viewBox="0 0 24 25" fill="none" xmlns="http://www.w3.org/2000/svg">
<g clip-path="url(#clip0_1765_2521)">
<path d="M4.25 0.5H19.75C22.1 0.5 24 2.44872 24 4.85897V20.141C24 22.5513 22.1 24.5 19.75 24.5H4.25C1.9 24.5 0 22.5513 0 20.141V4.85897C0 2.44872 1.9 0.5 4.25 0.5Z" fill="#352D26"/>
<g clip-path="url(#clip1_1765_2521)">
<path d="M9.2258 21.218C10.7849 21.218 12.0502 19.9161 12.0502 18.312V15.406H9.2258C7.66671 15.406 6.40137 16.7079 6.40137 18.312C6.40137 19.9161 7.66671 21.218 9.2258 21.218Z" fill="#0ACF83"/>
<path d="M6.40137 12.5C6.40137 10.8959 7.66671 9.59399 9.2258 9.59399H12.0502V15.406H9.2258C7.66671 15.406 6.40137 14.1041 6.40137 12.5Z" fill="#A259FF"/>
<path d="M6.40137 6.68797C6.40137 5.08386 7.66671 3.78198 9.2258 3.78198H12.0502V9.59395H9.2258C7.66671 9.59395 6.40137 8.29207 6.40137 6.68797Z" fill="#F24E1E"/>
<path d="M12.0508 3.78198H14.8752C16.4343 3.78198 17.6997 5.08386 17.6997 6.68797C17.6997 8.29207 16.4343 9.59395 14.8752 9.59395H12.0508V3.78198Z" fill="#FF7262"/>
<path d="M17.6997 12.5C17.6997 14.1041 16.4343 15.406 14.8752 15.406C13.3161 15.406 12.0508 14.1041 12.0508 12.5C12.0508 10.8959 13.3161 9.59399 14.8752 9.59399C16.4343 9.59399 17.6997 10.8959 17.6997 12.5Z" fill="#1ABCFE"/>
</g>
</g>
<defs>
<clipPath id="clip0_1765_2521">
<rect width="24" height="24" fill="white" transform="translate(0 0.5)"/>
</clipPath>
<clipPath id="clip1_1765_2521">
<rect width="11.3" height="17.4359" fill="white" transform="translate(6.40039 3.78198)"/>
</clipPath>
</defs>
</svg>
