<svg width="24" height="25" viewBox="0 0 24 25" fill="none" xmlns="http://www.w3.org/2000/svg">
<g clip-path="url(#clip0_1765_2399)">
<path d="M4.25 0.5H19.75C22.1 0.5 24 2.44872 24 4.85897V20.141C24 22.5513 22.1 24.5 19.75 24.5H4.25C1.9 24.5 0 22.5513 0 20.141V4.85897C0 2.44872 1.9 0.5 4.25 0.5Z" fill="#352D26"/>
<path d="M11.5997 14.8589H7.87967L7.11967 17.2692C7.09967 17.3615 7.01967 17.423 6.92967 17.4127H5.04967C4.93967 17.4127 4.90967 17.3512 4.93967 17.2281L8.15967 7.72043C8.18967 7.61787 8.21967 7.50505 8.25967 7.38197C8.29967 7.16659 8.31967 6.94095 8.31967 6.71531C8.30967 6.66402 8.34967 6.61274 8.39967 6.60249H10.9897C11.0697 6.60249 11.1097 6.63325 11.1197 6.68454L14.7697 17.2486C14.7997 17.3615 14.7697 17.4127 14.6697 17.4127H12.5797C12.5097 17.423 12.4397 17.3717 12.4197 17.2999L11.5997 14.8589ZM8.45967 12.7768H10.9997C10.9397 12.5615 10.8597 12.305 10.7697 12.0384C10.6797 11.7615 10.5897 11.464 10.4997 11.1563C10.3997 10.8384 10.3097 10.5307 10.2097 10.2127C10.1097 9.89479 10.0197 9.59736 9.93967 9.29992C9.85967 9.01274 9.78967 8.74607 9.71967 8.49992H9.69967C9.60967 8.94095 9.49967 9.38197 9.35967 9.823C9.20967 10.3153 9.05967 10.8281 8.89967 11.3409C8.75967 11.864 8.60967 12.3461 8.45967 12.7768ZM16.9997 8.39736C16.6697 8.40761 16.3497 8.27428 16.1097 8.03838C15.8797 7.78197 15.7597 7.44351 15.7697 7.09479C15.7597 6.74608 15.8897 6.41787 16.1297 6.18197C16.3697 5.94607 16.6897 5.823 17.0197 5.823C17.4097 5.823 17.7097 5.94607 17.9297 6.18197C18.1497 6.42813 18.2697 6.75633 18.2597 7.09479C18.2697 7.44351 18.1497 7.78197 17.9097 8.03838C17.6797 8.28454 17.3397 8.41787 16.9997 8.39736ZM15.8797 17.2999V9.40249C15.8797 9.29992 15.9197 9.2589 16.0097 9.2589H17.9897C18.0797 9.2589 18.1197 9.31018 18.1197 9.40249V17.2999C18.1197 17.4127 18.0797 17.464 17.9897 17.464H16.0297C15.9297 17.464 15.8797 17.4025 15.8797 17.2999Z" fill="#FF9A00"/>
</g>
<defs>
<clipPath id="clip0_1765_2399">
<rect width="24" height="24" fill="white" transform="translate(0 0.5)"/>
</clipPath>
</defs>
</svg>
