<svg width="180" height="174" viewBox="0 0 180 174" fill="none" xmlns="http://www.w3.org/2000/svg">
<path d="M98.2784 63.3997C98.2306 63.2401 98.3213 63.0737 98.4787 63.0267L117.148 57.4496C117.305 57.4025 117.472 57.4919 117.52 57.6515L118.252 60.0946C118.727 61.6817 120.4 62.584 121.987 62.1097L137.495 57.4769C139.027 57.0192 140.643 57.8908 141.103 59.426L168.708 151.588C169.168 153.123 168.297 154.738 166.765 155.195L110.758 171.927C109.226 172.384 107.61 171.513 107.15 169.977L79.545 77.8157C79.0852 76.2805 79.9563 74.6659 81.4885 74.2082L96.9965 69.5754C98.584 69.1011 99.4856 67.43 99.0102 65.8428L98.2784 63.3997Z" stroke="#313B36" stroke-width="2"/>
<path d="M108.784 148.453L154.553 134.766" stroke="#313B36" stroke-width="2" stroke-linecap="round"/>
<path d="M81.3193 82.7388L142.345 64.4894" stroke="#313B36" stroke-width="2" stroke-linecap="round"/>
<path d="M111.205 156.545L156.974 142.858" stroke="#313B36" stroke-width="2" stroke-linecap="round"/>
<rect x="1.24513" y="0.671733" width="3.19202" height="15.55" rx="1.59601" transform="matrix(0.958167 -0.286209 0.286963 0.957942 102.122 51.0841)" fill="#313B36" stroke="#313B36" stroke-width="2"/>
<path fill-rule="evenodd" clip-rule="evenodd" d="M106.752 65.1802C106.111 66.1182 105.884 67.3284 106.236 68.5035C106.855 70.5678 109.028 71.7424 111.09 71.1268C113.152 70.5113 114.322 68.3388 113.703 66.2744C113.351 65.102 112.499 64.2167 111.45 63.7831C111.417 64.4791 111.103 65.1328 110.589 65.5937C111.145 65.788 111.604 66.237 111.786 66.8465C112.089 67.8556 111.516 68.9123 110.516 69.211C109.515 69.5098 108.455 68.9404 108.152 67.9314C107.969 67.3207 108.107 66.6925 108.466 66.2255C107.783 66.1207 107.161 65.7452 106.752 65.1802Z" fill="#313B36"/>
<ellipse cx="21.4772" cy="21.0087" rx="21.4772" ry="21.0087" transform="matrix(0.958116 -0.28638 0.286791 0.957993 95.0977 93.1465)" fill="#D7CFBF"/>
<mask id="mask0_1238_10782" style="mask-type:alpha" maskUnits="userSpaceOnUse" x="98" y="82" width="46" height="46">
<ellipse cx="22.6051" cy="22.6106" rx="22.6051" ry="22.6106" transform="matrix(0.958116 -0.28638 0.286791 0.957993 93.1006 90.1216)" fill="#E3E1DB"/>
</mask>
<g mask="url(#mask0_1238_10782)">
<path d="M98.3606 144.532C102.824 155.269 112.949 160.285 120.744 158.775C128.538 157.264 117.275 154.575 117.275 154.575C113.614 152.12 109.144 154.235 102.923 142.504C100.821 138.542 95.2693 131.482 91.8424 130.59C85.4771 128.933 86.4081 134.713 88.4676 134.856C91.1238 135.04 95.2854 137.134 98.3606 144.532Z" fill="#EFEDE7"/>
<path d="M95.3447 139.041C96.0834 139.772 97.9975 139.098 98.9218 136.522C98.9218 136.522 96.6029 133.379 94.0185 131.86C90.7882 129.96 90.1296 130.338 88.4998 130.744C86.87 131.15 87.264 133.271 87.7543 134.189C88.2445 135.107 90.0377 135.007 90.9511 135.334C91.6818 135.596 94.8224 138.524 95.3447 139.041Z" fill="#C28145"/>
<path fill-rule="evenodd" clip-rule="evenodd" d="M86.6994 134.169C87.0295 134.807 87.6235 135.395 88.4261 135.451C90.7904 135.615 94.7913 137.503 97.8081 144.76C102.363 155.718 112.742 160.933 120.858 159.36C121.851 159.167 122.59 158.948 123.099 158.694C123.577 158.456 124.037 158.094 124.085 157.532C124.132 156.987 123.759 156.576 123.453 156.323C123.116 156.044 122.663 155.791 122.185 155.568C121.223 155.118 120.024 154.725 119.082 154.447C118.608 154.307 118.192 154.194 117.895 154.116C117.746 154.078 117.626 154.047 117.544 154.027C117.535 154.025 117.526 154.022 117.518 154.02C116.552 153.393 115.544 153.055 114.545 152.735C114.479 152.713 114.413 152.692 114.346 152.671C113.37 152.359 112.388 152.046 111.339 151.491C109.125 150.32 106.526 148.024 103.451 142.225C102.375 140.196 100.433 137.403 98.3292 135.003C97.276 133.802 96.1714 132.687 95.1031 131.81C94.0466 130.944 92.9761 130.269 91.9927 130.013C90.3343 129.582 89.0559 129.608 88.1166 129.984C87.1515 130.371 86.6099 131.103 86.4144 131.907C86.2245 132.687 86.3623 133.518 86.6994 134.169ZM117.136 155.155L117.143 155.156L117.165 155.162C117.185 155.167 117.216 155.174 117.255 155.184C117.333 155.204 117.448 155.233 117.592 155.27C117.88 155.345 118.284 155.455 118.744 155.59C119.67 155.864 120.799 156.237 121.679 156.648C122.122 156.855 122.468 157.057 122.69 157.241C122.796 157.329 122.848 157.391 122.873 157.427C122.834 157.466 122.748 157.536 122.565 157.627C122.199 157.809 121.585 158.004 120.629 158.189C113.156 159.637 103.285 154.821 98.9124 144.303C95.7788 136.766 91.4565 134.465 88.5084 134.261C88.2812 134.245 87.9865 134.057 87.7617 133.622C87.5439 133.202 87.4606 132.664 87.5762 132.189C87.6861 131.737 87.9766 131.326 88.5629 131.091C89.1748 130.846 90.1671 130.771 91.6914 131.167C92.4215 131.357 93.33 131.9 94.3441 132.731C95.3462 133.553 96.4035 134.618 97.4294 135.788C99.4838 138.132 101.369 140.849 102.394 142.782C105.54 148.714 108.287 151.226 110.779 152.544C111.926 153.151 113.002 153.494 113.969 153.803C114.04 153.825 114.11 153.848 114.18 153.87C115.213 154.201 116.104 154.508 116.941 155.07L117.031 155.13L117.136 155.155Z" fill="#313B36"/>
<path d="M125.057 85.1731L127.798 89.6285L128.834 90.1245L130.1 92.056L132.292 93.9519L133.233 96.2263L134.704 99.1103L135.025 101.264L135.084 103.755L133.914 105.37L136.182 108.874L139.307 115.689L140.802 120.152L142.387 123.208L145.833 127.759L153.842 135.884L155.828 136.106L158.909 137.527L159.024 140.058L156.487 143.067L154.857 144.588L153.379 145.862L151.094 146.656L148.078 145.636L146.489 148.259L144.404 150.283L144.998 152.138L144.158 154.154L140.971 156.737L134.408 162.055L132.413 162.671L130.694 161.727L127.31 161.799L120.864 159.678L115.819 155.087L112.109 149.08L109.743 144.32L107.766 136.242L107.529 128.755L109.177 122.412L111.351 118.981L114.949 112.727L113.958 111.527L111.106 108.831L109.378 105.224L108.709 101.76L109.262 98.6409L108.57 95.5294L107.548 92.018L107.637 90.6102L111.637 92.0424L115.45 93.6265L116.905 93.1147L120.588 91.1315L121.637 88.6121L123.571 83.3733L125.057 85.1731Z" fill="#EFEDE7"/>
<path d="M147.734 129.964C147.847 130.307 151.767 134.129 152.777 135.544C152.777 135.544 149.852 137.825 148.084 134.917C146.424 132.185 144.412 130.854 144.232 129.605C144.13 128.896 143.112 127.487 144.183 126.873C145.254 126.259 147.283 128.588 147.734 129.964Z" fill="#C28145"/>
<path d="M108.86 123.05L111.943 118.184C113.541 118.076 115.782 122.135 114.944 125.412C114.5 127.151 114.556 133.197 110.621 135.074C107.472 136.575 107.449 133.46 107.384 132.212L108.86 123.05Z" fill="#C28145"/>
<path d="M126.215 86.5068L128.301 89.8648L130.209 92.3361L132.992 95.416C130.173 98.6415 121.98 97.2446 119.712 96.1934C120.413 102.269 110.725 105.321 108.643 102.658L109.236 98.6354L108.108 94.564L107.59 90.6955L110.786 91.4713L115.373 94.2835L116.36 93.0692L118.902 91.6739L120.669 91.4946L124.322 84.0222L126.215 86.5068Z" fill="#C28145"/>
<path fill-rule="evenodd" clip-rule="evenodd" d="M114.351 93.8772C114.708 94.0501 115.046 94.2137 115.355 94.3615L115.753 94.5519L116.054 94.2326C116.256 94.0179 116.594 93.781 117.047 93.5369C117.493 93.297 118.014 93.0685 118.553 92.8592C119.631 92.4408 120.738 92.1147 121.368 91.9361L121.683 91.8466L121.776 91.5353C122.145 90.3082 122.761 88.6225 123.341 87.1964C123.632 86.4838 123.91 85.8443 124.141 85.3644C124.206 85.2286 124.266 85.1082 124.321 85.0041C124.352 85.039 124.385 85.0772 124.42 85.1187C124.755 85.5132 125.184 86.1078 125.646 86.7962C126.566 88.1692 127.567 89.8476 128.112 90.8787L128.196 91.0384L128.355 91.1243L128.356 91.1247L128.358 91.1259L128.375 91.1356C128.391 91.1451 128.418 91.1606 128.453 91.1823C128.525 91.2259 128.633 91.2944 128.772 91.39C129.051 91.5813 129.452 91.8805 129.928 92.3039C130.881 93.1505 132.134 94.4933 133.305 96.4622C134.117 97.8292 134.712 99.6237 134.606 101.467C134.5 103.29 133.709 105.197 131.685 106.837C131.429 107.045 131.391 107.419 131.601 107.674C131.811 107.928 132.189 107.966 132.445 107.758C134.733 105.904 135.679 103.687 135.803 101.537C135.926 99.4088 135.243 97.3825 134.338 95.8604C133.098 93.7738 131.762 92.3379 130.728 91.4196C130.212 90.9605 129.771 90.6308 129.455 90.4137C129.305 90.3107 129.183 90.2329 129.095 90.1787C128.515 89.1011 127.542 87.4785 126.644 86.1399C126.176 85.4406 125.717 84.8018 125.339 84.3555C125.154 84.137 124.965 83.937 124.788 83.8004C124.704 83.7349 124.583 83.6528 124.437 83.6065C124.284 83.5579 124.007 83.5251 123.763 83.7233C123.672 83.7965 123.602 83.8859 123.555 83.951C123.503 84.024 123.45 84.1077 123.399 84.196C123.295 84.3731 123.18 84.5971 123.058 84.8513C122.812 85.3613 122.524 86.0253 122.229 86.7498C121.686 88.0831 121.109 89.6491 120.722 90.8832C120.059 91.0762 119.079 91.3776 118.113 91.7524C117.548 91.972 116.977 92.2207 116.473 92.4923C116.125 92.6795 115.792 92.887 115.509 93.1153C115.312 93.0204 115.105 92.9202 114.89 92.8163C113.732 92.2557 112.345 91.5844 111.109 91.0395C110.304 90.6843 109.544 90.3738 108.941 90.1805C108.642 90.0848 108.357 90.0098 108.114 89.9776C107.993 89.9615 107.859 89.9528 107.728 89.9665C107.604 89.9793 107.42 90.018 107.257 90.1498C107.041 90.3252 107.002 90.5753 106.991 90.658C106.975 90.7791 106.977 90.9079 106.985 91.0257C107.002 91.2658 107.052 91.5658 107.119 91.8923C107.255 92.5512 107.479 93.3988 107.726 94.2636C108.177 95.844 108.72 97.5239 108.985 98.3088C108.692 99.17 108.511 100.601 108.565 102.252C108.625 104.068 108.972 106.222 109.827 108.296C110.465 109.844 111.715 111 112.757 111.753C113.284 112.135 113.772 112.423 114.13 112.617C114.177 112.643 114.223 112.667 114.265 112.69C114.265 112.691 114.265 112.691 114.265 112.692C114.171 112.991 114.011 113.439 113.75 114.012C113.228 115.157 112.303 116.802 110.698 118.757C107.259 122.946 105.083 131.982 108.913 143.056C110.728 148.307 113.13 153.162 116.625 156.712C120.086 160.228 124.597 162.442 130.586 162.519C130.958 162.913 131.37 163.187 131.848 163.297C132.408 163.425 132.956 163.306 133.482 163.076C134.002 162.848 134.556 162.489 135.152 162.065C135.493 161.823 135.868 161.544 136.27 161.246C136.567 161.026 136.878 160.795 137.202 160.559C137.416 160.402 137.635 160.244 137.857 160.082C139.736 158.718 141.832 157.197 143.332 155.714C144.169 154.886 144.868 154.025 145.231 153.165C145.605 152.278 145.635 151.343 145.039 150.495C144.541 149.788 143.997 149.335 143.436 149.08C142.873 148.825 142.33 148.786 141.864 148.848C141.404 148.91 141.021 149.069 140.757 149.208C140.624 149.279 140.517 149.346 140.442 149.397C140.404 149.423 140.374 149.445 140.351 149.461C140.345 149.466 140.339 149.471 140.333 149.475C140.33 149.478 140.327 149.48 140.324 149.482L140.315 149.489L140.312 149.492L140.311 149.493L140.31 149.493C140.31 149.494 140.309 149.494 140.69 149.954L140.309 149.494L140.292 149.508M140.275 149.524L140.273 149.526L140.263 149.535C140.255 149.543 140.242 149.555 140.225 149.571C140.191 149.602 140.139 149.649 140.074 149.708C139.942 149.826 139.752 149.993 139.521 150.185C139.056 150.572 138.436 151.054 137.797 151.452C137.14 151.862 136.535 152.138 136.086 152.191C135.872 152.217 135.745 152.185 135.669 152.143C135.617 152.114 135.548 152.058 135.484 151.928C135.718 150.155 135.521 147.228 134.692 144.416C133.841 141.531 132.276 138.602 129.646 137.237C126.477 135.592 123.648 135.708 121.43 136.733C119.239 137.746 117.69 139.627 116.999 141.447C116.882 141.754 117.039 142.097 117.349 142.213C117.659 142.329 118.005 142.175 118.122 141.868C118.712 140.313 120.054 138.682 121.939 137.81C123.799 136.951 126.234 136.807 129.091 138.29C131.283 139.427 132.72 141.965 133.54 144.748C134.356 147.516 134.513 150.361 134.275 151.911L134.253 152.055L134.301 152.193C134.451 152.628 134.71 152.973 135.085 153.181C135.451 153.383 135.856 153.416 136.231 153.372C136.958 153.285 137.752 152.886 138.437 152.459C139.141 152.02 139.807 151.501 140.293 151.096C140.537 150.893 140.739 150.716 140.879 150.59C140.95 150.527 141.005 150.476 141.043 150.441C141.057 150.429 141.068 150.419 141.077 150.41L141.08 150.407C141.09 150.4 141.104 150.39 141.122 150.378C141.166 150.348 141.234 150.304 141.323 150.258C141.502 150.163 141.747 150.064 142.027 150.026C142.301 149.99 142.61 150.012 142.938 150.161C143.268 150.31 143.655 150.606 144.055 151.174C144.356 151.602 144.385 152.086 144.124 152.705C143.852 153.351 143.283 154.08 142.484 154.871C141.053 156.286 139.037 157.75 137.143 159.126C136.923 159.285 136.705 159.444 136.49 159.601C136.145 159.852 135.828 160.087 135.532 160.307C135.142 160.597 134.788 160.86 134.452 161.099C133.865 161.516 133.396 161.813 132.996 161.988C132.602 162.16 132.331 162.188 132.117 162.139C131.904 162.09 131.645 161.941 131.323 161.551L131.143 161.333L130.859 161.333C125.069 161.32 120.779 159.231 117.483 155.883C114.169 152.516 111.839 147.852 110.047 142.673C106.316 131.881 108.515 123.302 111.629 119.509C113.301 117.473 114.28 115.739 114.843 114.503C115.125 113.885 115.302 113.391 115.41 113.047C115.464 112.875 115.501 112.74 115.525 112.646C115.536 112.599 115.545 112.561 115.551 112.535C115.554 112.522 115.556 112.511 115.558 112.503L115.56 112.493L115.561 112.488L115.561 112.487C115.561 112.487 115.561 112.487 114.972 112.375L115.561 112.487L115.65 112.022L115.214 111.831L115.213 111.831L115.208 111.829L115.184 111.818C115.162 111.808 115.129 111.792 115.084 111.771C114.996 111.728 114.865 111.663 114.704 111.575C114.382 111.4 113.939 111.138 113.463 110.794C112.499 110.097 111.454 109.101 110.937 107.849C110.147 105.931 109.82 103.921 109.764 102.215C109.707 100.489 109.929 99.1446 110.177 98.5433L110.261 98.3372L110.188 98.1264C109.966 97.4839 109.369 95.6521 108.88 93.9417C108.635 93.085 108.421 92.2714 108.295 91.6568C108.259 91.4848 108.232 91.3346 108.213 91.2072C108.316 91.233 108.436 91.2675 108.574 91.3115C109.114 91.4848 109.828 91.7743 110.623 92.1252C111.837 92.6606 113.195 93.3179 114.351 93.8772" fill="#313B36"/>
<path fill-rule="evenodd" clip-rule="evenodd" d="M134.427 106.202C134.137 106.361 134.033 106.722 134.194 107.01C134.385 107.35 134.593 107.713 134.815 108.099C136.406 110.87 138.675 114.821 139.889 119.888C139.995 120.333 140.279 120.906 140.645 121.529C141.02 122.167 141.514 122.912 142.085 123.718C143.228 125.329 144.697 127.21 146.184 129.014C147.672 130.819 149.184 132.554 150.414 133.876C151.028 134.536 151.578 135.098 152.021 135.516C152.243 135.724 152.444 135.902 152.618 136.04C152.777 136.167 152.961 136.299 153.139 136.369L153.302 136.432L153.474 136.399C153.996 136.299 154.992 136.32 155.982 136.594C156.979 136.87 157.825 137.361 158.221 138.077C158.602 138.764 158.492 139.462 158.125 140.129C157.751 140.809 157.142 141.38 156.7 141.689C156.429 141.878 156.365 142.249 156.556 142.517C156.747 142.786 157.122 142.85 157.392 142.661C157.942 142.277 158.695 141.578 159.178 140.7C159.669 139.81 159.914 138.663 159.273 137.507C158.648 136.38 157.429 135.761 156.303 135.45C155.282 135.167 154.217 135.102 153.476 135.196C153.446 135.175 153.41 135.148 153.367 135.113C153.23 135.004 153.055 134.851 152.847 134.655C152.43 134.263 151.901 133.722 151.295 133.071C150.085 131.771 148.589 130.054 147.113 128.263C145.636 126.472 144.187 124.616 143.066 123.036C142.506 122.245 142.033 121.53 141.681 120.932C141.321 120.318 141.118 119.876 141.056 119.616C139.8 114.371 137.443 110.271 135.853 107.504C135.633 107.121 135.428 106.765 135.242 106.434C135.081 106.147 134.716 106.043 134.427 106.202Z" fill="#313B36"/>
<path fill-rule="evenodd" clip-rule="evenodd" d="M129.128 129.179C128.882 129.399 128.862 129.774 129.084 130.018C130.225 131.273 133.135 134.391 135.657 136.835C137.271 138.398 140.806 140.947 144.028 143.098C145.646 144.178 147.202 145.169 148.421 145.897C149.029 146.261 149.56 146.563 149.975 146.779C150.182 146.887 150.367 146.977 150.524 147.044C150.659 147.101 150.838 147.17 151.003 147.187C151.225 147.209 151.483 147.174 151.727 147.121C151.984 147.066 152.274 146.979 152.578 146.865C153.185 146.639 153.878 146.296 154.506 145.851C155.129 145.408 155.723 144.839 156.083 144.148C156.452 143.437 156.565 142.609 156.225 141.725C155.697 140.353 154.577 139.71 153.505 139.438C152.516 139.187 151.518 139.236 150.902 139.32C150.883 139.312 150.856 139.3 150.822 139.283C150.725 139.233 150.598 139.156 150.44 139.047C150.126 138.829 149.73 138.512 149.268 138.11C148.347 137.31 147.207 136.211 146.011 134.998C143.618 132.574 141.035 129.728 139.591 127.98C139.381 127.726 139.003 127.688 138.747 127.896C138.491 128.103 138.453 128.478 138.663 128.732C140.135 130.513 142.743 133.385 145.154 135.829C146.359 137.05 147.524 138.173 148.478 139.003C148.954 139.417 149.387 139.767 149.754 140.021C149.937 140.147 150.113 140.257 150.276 140.34C150.429 140.418 150.618 140.497 150.815 140.516L150.892 140.524L150.969 140.512C151.477 140.432 152.367 140.376 153.21 140.59C154.037 140.799 154.758 141.248 155.104 142.146C155.309 142.68 155.247 143.157 155.016 143.602C154.775 144.066 154.342 144.504 153.806 144.884C153.275 145.261 152.677 145.558 152.154 145.753C151.893 145.85 151.659 145.919 151.469 145.96C151.289 145.999 151.18 146.006 151.135 146.005C151.127 146.002 151.084 145.989 150.995 145.951C150.879 145.902 150.724 145.828 150.531 145.727C150.146 145.527 149.639 145.238 149.039 144.88C147.842 144.164 146.304 143.185 144.696 142.112C141.466 139.956 138.019 137.463 136.495 135.986C133.999 133.566 131.107 130.469 129.975 129.224C129.753 128.98 129.374 128.96 129.128 129.179Z" fill="#313B36"/>
<path fill-rule="evenodd" clip-rule="evenodd" d="M121.89 111.652C121.907 111.98 122.189 112.233 122.52 112.217C126.549 112.024 129.433 110.008 130.415 108.967C130.641 108.728 130.627 108.351 130.385 108.127C130.143 107.903 129.763 107.915 129.538 108.155C128.739 109.001 126.137 110.853 122.459 111.03C122.128 111.046 121.874 111.325 121.89 111.652Z" fill="#313B36"/>
<path fill-rule="evenodd" clip-rule="evenodd" d="M116.84 99.264C116.412 99.4859 116.249 100.035 116.474 100.49L117.069 101.691C117.295 102.146 117.824 102.335 118.251 102.113C118.678 101.891 118.842 101.342 118.617 100.887L118.021 99.6861C117.796 99.2311 117.267 99.0421 116.84 99.264Z" fill="#313B36"/>
<path fill-rule="evenodd" clip-rule="evenodd" d="M126.165 99.0754C126.608 98.8915 126.813 98.3598 126.622 97.8879L126.194 96.8275C126.003 96.3556 125.489 96.1221 125.046 96.3061C124.602 96.4901 124.397 97.0218 124.588 97.4937L125.016 98.554C125.207 99.026 125.721 99.2594 126.165 99.0754Z" fill="#313B36"/>
<path d="M121.998 101.832C122.249 101.996 122.571 101.932 122.716 101.69C122.861 101.448 122.775 101.119 122.524 100.955C122.272 100.791 121.951 100.855 121.805 101.097C121.66 101.339 121.746 101.668 121.998 101.832Z" fill="#313B36"/>
<path fill-rule="evenodd" clip-rule="evenodd" d="M122.983 102.629L122.095 104.563C122.026 104.714 122.088 104.897 122.234 104.972C122.38 105.047 122.555 104.986 122.624 104.836L123.287 103.391L124.969 104.04C125.122 104.099 125.289 104.019 125.342 103.862C125.395 103.704 125.315 103.529 125.162 103.47L122.983 102.629Z" fill="#313B36"/>
<path fill-rule="evenodd" clip-rule="evenodd" d="M109.932 111.778C110.05 111.894 110.237 111.893 110.35 111.774C111.341 110.735 113.42 109.405 114.349 108.865C114.49 108.783 114.537 108.6 114.455 108.455C114.372 108.31 114.191 108.26 114.05 108.342C113.122 108.881 110.977 110.247 109.923 111.352C109.81 111.471 109.814 111.661 109.932 111.778Z" fill="#313B36"/>
<path fill-rule="evenodd" clip-rule="evenodd" d="M107.93 108.863C108.044 108.984 108.231 108.989 108.349 108.875C109.594 107.665 110.848 107.1 111.784 106.836C112.253 106.703 112.643 106.647 112.913 106.623C113.048 106.611 113.153 106.607 113.222 106.606C113.257 106.606 113.283 106.606 113.3 106.607L113.317 106.607L113.32 106.607L113.321 106.607C113.484 106.616 113.621 106.489 113.628 106.323C113.635 106.157 113.508 106.016 113.345 106.006L113.332 106.307C113.345 106.006 113.344 106.006 113.344 106.006L113.344 106.006L113.343 106.006L113.34 106.006L113.332 106.006C113.326 106.006 113.317 106.005 113.305 106.005C113.282 106.004 113.249 106.004 113.207 106.004C113.124 106.005 113.004 106.01 112.853 106.023C112.552 106.05 112.126 106.112 111.618 106.255C110.602 106.542 109.261 107.151 107.937 108.437C107.82 108.551 107.817 108.742 107.93 108.863Z" fill="#313B36"/>
<path fill-rule="evenodd" clip-rule="evenodd" d="M138.086 102.099C138.077 102.267 137.938 102.387 137.778 102.367C136.287 102.182 133.77 102.441 132.687 102.598C132.529 102.62 132.375 102.503 132.344 102.336C132.313 102.169 132.416 102.015 132.574 101.992C133.657 101.836 136.24 101.565 137.812 101.76C137.973 101.78 138.096 101.932 138.086 102.099Z" fill="#313B36"/>
<path fill-rule="evenodd" clip-rule="evenodd" d="M138.165 97.9768C138.164 98.1452 138.033 98.2731 137.872 98.2625C135.33 98.0956 133.326 99.1532 131.987 99.9436C131.85 100.024 131.67 99.9696 131.585 99.8214C131.5 99.6732 131.541 99.4877 131.678 99.407C133.034 98.6067 135.158 97.4743 137.874 97.6527C138.035 97.6633 138.165 97.8084 138.165 97.9768Z" fill="#313B36"/>
</g>
<path d="M179.564 2.31848C176.898 5.79249 173.785 9.06001 170.291 12.0515C162.566 18.6912 154.189 22.7819 146.094 23.8592C144.57 24.0588 142.991 24.1903 141.397 24.283L141.309 24.3164C141.356 24.5485 141.388 24.7844 141.405 25.0234C141.542 27.9424 140.887 30.9619 139.486 33.8717C138.086 36.7814 135.973 39.5115 133.295 41.8718C126.777 47.6666 113.413 54.8651 86.5342 55.8277C37.2469 57.6036 1.07505 36.3988 0.721288 36.1888C0.473961 36.0339 0.327169 35.7945 0.311874 35.5208C0.296577 35.2472 0.413974 34.9608 0.639301 34.722C0.803071 34.5565 1.01187 34.4238 1.24297 34.3383C1.45859 34.2575 1.68653 34.2206 1.90504 34.2311C2.12355 34.2417 2.32534 34.2993 2.49115 34.3985C2.83384 34.5794 38.4069 55.4227 86.8675 53.6712C112.733 52.7369 125.419 46.0281 131.501 40.5648C133.9 38.4666 135.794 36.0341 137.049 33.4391C138.304 30.844 138.889 28.1496 138.764 25.5458C138.731 25.1554 138.671 24.7706 138.585 24.3931C123.045 24.5819 107.643 19.0274 104.655 12.0034C104.08 10.8641 103.968 9.54805 104.333 8.22407C104.697 6.90008 105.522 5.62845 106.702 4.57215C108.076 3.28058 109.766 2.24036 111.62 1.54614C113.64 0.797594 115.784 0.526715 117.782 0.767637C128.128 1.85631 138.26 14.0982 140.85 22.1604C142.616 22.0895 144.392 21.9395 146.171 21.7111C164.218 19.3199 177.305 1.60898 177.386 1.44491C177.555 1.21168 177.809 1.02122 178.104 0.906932C178.289 0.836643 178.484 0.798586 178.675 0.795469C178.865 0.792357 179.047 0.824264 179.207 0.888913C179.351 0.946766 179.474 1.02966 179.569 1.13287C179.665 1.23607 179.731 1.35755 179.764 1.49035C179.797 1.62314 179.796 1.76465 179.762 1.90675C179.728 2.04885 179.66 2.18877 179.564 2.31848ZM116.954 2.91162C115.492 2.72147 113.919 2.8998 112.428 3.42494C110.936 3.95008 109.589 4.79942 108.55 5.86974C107.714 6.60192 107.133 7.49296 106.887 8.42047C106.641 9.34796 106.742 10.2664 107.175 11.0497C109.481 16.468 122.514 22.198 137.96 22.2555C135.107 14.7145 125.643 3.85068 116.954 2.91162Z" fill="#313B36"/>
</svg>
