<?xml version="1.0" encoding="utf-8"?>
<!-- Generator: Adobe Illustrator 25.3.1, SVG Export Plug-In . SVG Version: 6.00 Build 0)  -->
<svg version="1.1" id="圖層_1" xmlns="http://www.w3.org/2000/svg" xmlns:xlink="http://www.w3.org/1999/xlink" x="0px" y="0px"
	 viewBox="0 0 680 690" style="enable-background:new 0 0 680 690;" xml:space="preserve">
<style type="text/css">
	.st0{fill:none;stroke:#313B36;stroke-width:2;stroke-miterlimit:10;}
	.st1{fill:#6A5D54;stroke:#313B36;stroke-width:3;stroke-miterlimit:10;}
	.st2{fill:#907D73;}
	.st3{fill:#D8C5A8;}
	.st4{fill:#EFEDE7;stroke:#313B36;stroke-width:1.5;stroke-linecap:round;}
	.st5{fill:none;stroke:#313B36;stroke-width:1.5;stroke-linecap:round;}
	.st6{fill:none;stroke:#313B36;stroke-width:2;stroke-linecap:round;}
	.st7{fill:#EFEDE7;}
	.st8{fill:none;stroke:#313B36;stroke-width:2;}
	.st9{fill:#EFEDE7;stroke:#313B36;stroke-width:2;}
	.st10{fill:#F2ECE4;}
	.st11{fill:#313B36;}
	.st12{fill:#EFEDE7;stroke:#313B36;stroke-width:1.8;stroke-miterlimit:10;}
	.st13{fill:#FFFFFF;filter:url(#Adobe_OpacityMaskFilter);}
	.st14{mask:url(#path-17-inside-1_28_16272_1_);fill:#313B36;}
	.st15{fill:none;stroke:#313B36;stroke-width:2;stroke-linecap:round;stroke-miterlimit:10;}
	.st16{fill-rule:evenodd;clip-rule:evenodd;fill:#313B36;}
	.st17{fill:#C28145;}
	.st18{fill:url(#SVGID_1_);}
	.st19{fill:#E7E1D2;stroke:#313B36;stroke-width:2;}
	.st20{opacity:0.4;fill-opacity:0.4;enable-background:new    ;}
	.st21{fill:none;stroke:#313B36;stroke-linecap:round;}
	.st22{fill:none;stroke:#313B36;stroke-width:1.8;stroke-linecap:round;}
	.st23{clip-path:url(#SVGID_3_);}
	.st24{fill:#313B36;stroke:#EFEDE7;stroke-width:2;}
	.st25{clip-path:url(#SVGID_5_);}
	.st26{clip-path:url(#SVGID_7_);}
	.st27{fill-rule:evenodd;clip-rule:evenodd;fill:#907D73;}
</style>
<path class="st0" d="M557.5,151.4c-0.1-0.1-0.1-0.3-0.2-0.5l-0.1-0.6c-0.1-0.2-0.2-0.5-0.3-0.7c-17.3-54.3-55.5-99.2-106.2-125.1
	C400.1-1.2,341.2-5.8,286.9,12c-54.3,17.7-99.5,56.3-125.7,107.2c-26.2,50.9-31.1,110-13.8,164.2l0.4-0.1
	c10.9,27,108.7,20,220.4-15.9C480,231.4,563.9,179.8,557.5,151.4z"/>
<path class="st1" d="M352.2,501.5c121.2-0.5,219.3-23.7,219.2-51.9c-0.1-28.2-98.5-50.6-219.7-50.1
	c-121.2,0.5-219.3,23.7-219.2,51.9C132.7,479.5,231,502,352.2,501.5z"/>
<path class="st2" d="M322.4,319.3l119,1.7l-0.7,63.7l-60.2,7.9l-54.2,5.3L322.4,319.3z"/>
<path class="st3" d="M372.7,376.5l73.9-25.1c15.4-1.9,85.7,125.2,61.8,181.3c0,0,30.9,56.7-43.2,112.1c0,0,13.4-44.7-25.2-89
	l-152.5,9.1c0,0,5-135.8,51.7-167.6c7.9-5.2,25-14.3,30.8-17C373.3,378.8,372.7,376.5,372.7,376.5z"/>
<path class="st4" d="M380.5,415.5l-7.5-15l7.5-4.5l7,7L380.5,415.5z"/>
<path class="st5" d="M373.5,415c-0.5,12.4-0.6,45,0,55"/>
<path class="st5" d="M389.5,416c-0.5,12.4-0.6,47.5,0,57.5"/>
<path class="st6" d="M347.8,430.2c-4.7,15.9-4.7,26.8-4.7,26.8"/>
<path class="st7" d="M373.8,390.9c-2.5-4.1-0.3-11.2,1-14.3c-1.4,0.7-4.3,2.2-5.1,3.1c-1,1-12.8,13.3-9.8,20.4
	c3.1,7.1,7.6,7.2,13.2,4.1c1.6-0.9,5.8-6.2,7.8-8.2c1.7,3.1,2.8,8.2,7.9,11.5c4.4,2.9,13.7,0.7,20.9-4.3
	c5.4-3.8,15.7-13.2,17.9-26.6l-11.8-8.2l-20.5,20.4c-4.1,4.1-12,6.5-15.4,7.1C378.9,396,376.3,395,373.8,390.9z"/>
<path class="st8" d="M381.9,395.6c0.2,7.8,8.6,22.3,30.4,5.7c18.5-14,15.7-32.6,15.6-37.2"/>
<path class="st8" d="M375,376.5c-12.4,5.7-19.2,21.5-13.6,27.2c7.1,7.1,17.5-3,19.3-7.9"/>
<path class="st9" d="M374.4,378.1L374.4,378.1L374.4,378.1l0.2-0.4l-0.1-0.4l-9.5-28l41.1-10.9l10.8,30.3c-0.2,0.3-0.6,0.7-1,1.2
	c-0.9,1-2.2,2.5-3.7,4.2c-3.2,3.5-7.5,7.9-12.2,12c-4.7,4.1-9.8,7.7-14.4,9.6c-4.6,1.8-8.5,1.8-11.2-1c-2.6-2.6-2.7-6.6-2-10.2
	c0.4-1.8,0.9-3.4,1.4-4.6c0.2-0.6,0.4-1.1,0.6-1.4c0.1-0.2,0.1-0.3,0.2-0.4C374.4,378.2,374.4,378.2,374.4,378.1L374.4,378.1
	L374.4,378.1L374.4,378.1z"/>
<path class="st10" d="M410.2,355.5l-4.6-14.1l-37.8,11.7l7.3,21.6C400.9,380.9,410.2,355.5,410.2,355.5z"/>
<path class="st11" d="M383.3,428.4l0.2,3c0,0.1,0,0.3,0,0.4c0,1.4-1.4,2.5-3.1,2.4c-1.7,0-3.1-1.2-3-2.6c0-0.1,0-0.2,0-0.2l0,0
	l0.4-3c0,0,0-0.1,0-0.1c0,0,0.1-0.1,0.1-0.1c0,0,0.1,0,0.1,0c0,0,0.1,0,0.1,0l1.6,1c0.2,0,0.5-0.1,0.8-0.1c0.2,0,0.5,0,0.7,0.1
	l1.6-1.1c0,0,0.1-0.1,0.2-0.1c0.1,0,0.1,0,0.2,0c0.1,0,0.1,0.1,0.1,0.1C383.3,428.3,383.3,428.4,383.3,428.4z"/>
<path class="st11" d="M383.2,458.3l0.4,2.9c0,0.1,0,0.3,0,0.4c0,1.4-1.3,2.5-3,2.6c-1.7,0-3.1-1.1-3.2-2.4c0-0.1,0-0.2,0-0.2l0,0
	l0.2-3c0,0,0-0.1,0-0.1c0,0,0.1-0.1,0.1-0.1c0,0,0.1,0,0.1,0c0,0,0.1,0,0.1,0l1.7,0.9c0.2-0.1,0.5-0.1,0.8-0.1c0.2,0,0.5,0,0.7,0
	l1.5-1.1c0,0,0.1-0.1,0.2-0.1c0.1,0,0.1,0,0.2,0c0.1,0,0.1,0.1,0.1,0.1C383.2,458.2,383.2,458.2,383.2,458.3z"/>
<path class="st12" d="M310.9,293.5c0,0,13.3,18.8,19.9,36.9c6.6,18,10.6,25.3,19.3,30.4c7.5,4.4,24.9,6.7,33.9,4.4
	c9.1-2.3,21.6-13.5,26.4-21.5c7.4-12.2,6.7-25,6.7-25s10.4-8.8,7.7-20.7c-2.8-11.9-9.1-15.7-18.1-9.3l-6.3-38.3L373.7,235
	l-30.3,10.9L310.9,293.5z"/>
<path class="st7" d="M328.7,313.4c-2.3-3.6-21.4-3.3-17,14.9c4.2,19.1,26.5,15.9,26.5,15.9"/>
<defs>
	<filter id="Adobe_OpacityMaskFilter" filterUnits="userSpaceOnUse" x="309.1" y="309.6" width="29.5" height="36.8">
		<feColorMatrix  type="matrix" values="1 0 0 0 0  0 1 0 0 0  0 0 1 0 0  0 0 0 1 0"/>
	</filter>
</defs>
<mask maskUnits="userSpaceOnUse" x="309.1" y="309.6" width="29.5" height="36.8" id="path-17-inside-1_28_16272_1_">
	<path class="st13" d="M328.7,313.4c-2.3-3.6-21.4-3.3-17,14.9c4.2,19.1,26.5,15.9,26.5,15.9"/>
</mask>
<path class="st14" d="M311.7,328.3l2-0.5l0,0l0,0L311.7,328.3z M327,314.5c0,0.1-0.1-0.1-0.6-0.3c-0.5-0.2-1.2-0.4-2.1-0.5
	c-1.8-0.2-3.9,0.1-5.8,0.9c-1.9,0.8-3.5,2.1-4.5,4.1c-1,2-1.4,4.9-0.3,9.1l-3.9,0.9c-1.2-4.9-0.9-8.8,0.6-11.8c1.5-3,3.9-5,6.5-6.1
	c2.6-1.1,5.4-1.4,7.7-1.2c1.2,0.1,2.3,0.4,3.2,0.7c0.9,0.4,1.9,1,2.5,1.9L327,314.5z M313.7,327.8c1.9,8.6,7.8,12.2,13.4,13.6
	c2.8,0.7,5.6,0.9,7.6,0.9c1,0,1.8,0,2.4-0.1c0.3,0,0.5,0,0.6-0.1c0.1,0,0.1,0,0.2,0c0,0,0,0,0,0c0,0,0,0,0,0c0,0,0,0,0,0h0
	c0,0,0,0,0.3,2c0.3,2,0.3,2,0.3,2c0,0,0,0,0,0c0,0,0,0,0,0c0,0,0,0,0,0c0,0,0,0-0.1,0c-0.1,0-0.1,0-0.2,0c-0.2,0-0.4,0-0.8,0.1
	c-0.7,0.1-1.6,0.1-2.7,0.1c-2.3,0-5.4-0.2-8.6-1.1c-6.6-1.7-14-6.1-16.3-16.6L313.7,327.8z"/>
<path class="st15" d="M328,334.3c-3.3-1.5-4.9-7.4-4.6-9.5"/>
<path class="st11" d="M348,323.5c2.5-0.3,4.1-3.9,3.6-7.9c-0.5-4-3-7-5.5-6.7c-2.5,0.3-4.1,3.9-3.6,7.9
	C343.1,320.8,345.5,323.8,348,323.5z"/>
<path class="st16" d="M342.5,304.6c-1.9,1-3,2.6-3.1,3.6c-0.1,0.8-0.9,1.4-1.8,1.2c-0.9-0.1-1.5-0.9-1.3-1.7c0.3-2,2-4.4,4.7-5.7
	c2.8-1.4,6.6-1.6,11,0.8c0.8,0.4,1,1.3,0.6,2c-0.4,0.7-1.4,1-2.1,0.5C347,303.5,344.3,303.8,342.5,304.6z"/>
<path class="st16" d="M386.3,296.4c-2,0.4-3.4,1.8-3.8,2.6c-0.3,0.7-1.2,1.1-2,0.7c-0.7-0.3-1.1-1.2-0.7-2c0.8-1.8,3.1-3.7,5.9-4.3
	c2.9-0.6,6.4,0.1,9.7,3.5c0.6,0.6,0.6,1.5,0,2.1c-0.6,0.6-1.5,0.6-2.1,0C390.6,296.4,388.1,296,386.3,296.4z"/>
<path class="st11" d="M388.1,316.7c2.5-0.1,4.4-3.5,4.3-7.5s-2.4-7.3-4.9-7.2s-4.4,3.5-4.3,7.5C383.4,313.6,385.6,316.8,388.1,316.7
	z"/>
<path class="st11" d="M369.4,326.4l3.7,1.8l-0.7-6.1"/>
<path class="st17" d="M382.3,342.6c0.3,1.2-0.1,2.6-1.1,3.9c-0.5,0.6-1.1,1.1-1.8,1.6c-0.8,0.5-1.8,0.9-2.9,1.1s-2.1,0.2-3.1,0
	c-0.8-0.2-1.6-0.4-2.3-0.8c-1.4-0.8-2.3-1.9-2.4-3.2c-0.2-1-0.1-2,0.5-3c0.2-0.3,0.4-0.6,0.6-0.9c0.5-0.6,1.1-1.1,1.8-1.6
	c0.8-0.5,1.8-0.9,2.9-1.1c1.1-0.2,2.1-0.2,3.1,0c0.8,0.2,1.6,0.4,2.3,0.8c0.3,0.2,0.6,0.4,0.9,0.6
	C381.6,340.7,382.1,341.6,382.3,342.6z"/>
<path class="st15" d="M413.1,296.6c1.2,1.5,2,3.3,2.3,5.3c0.3,2,0.2,4-0.4,5.9"/>
<path class="st9" d="M271.1,467l66,30.7l-56.2,67.4l-23.1-18.3l-1.7-1.3l0.1,2.1l3,89.3c-0.1,0.1-0.3,0.1-0.5,0.2
	c-0.7,0.3-1.8,0.7-3.1,1.1c-2.6,0.9-6.2,1.9-10.3,2.4c-8.2,1-18.2,0.2-25.6-7.2c-2-2-4-5.4-6-9.9c-2-4.5-3.9-10-5.7-16.3
	c-3.6-12.4-6.8-27.6-9.3-42.5c-2.5-14.9-4.3-29.6-5.2-41.2c-0.4-5.8-0.7-10.8-0.6-14.6c0-1.9,0.1-3.5,0.2-4.8
	c0.1-1.3,0.4-2.2,0.6-2.6c4.6-9.9,12.5-19.5,17.7-24.5c5.1-5,11.2-8.9,18-11.5c6.7-2.6,13.9-3.8,21.1-3.5
	C257.5,462.3,264.6,464,271.1,467L271.1,467z"/>
<path class="st9" d="M311.3,462.1l66,30.7L321,560.2L298,542l-1.3-1l-0.3,1.6l-23.7,108.7l-38.9-2.8c0-0.2,0-0.4,0-0.6
	c0-1,0-2.5,0-4.4c0-3.8,0-9.2,0-15.7c0-13.1,0.1-30.6,0.4-48.7c0.3-18.1,0.7-36.6,1.4-51.7c0.3-7.5,0.7-14.2,1.2-19.4
	c0.5-5.3,1-9,1.6-10.9c2.6-8,4.6-13,6.6-16.6c2-3.6,4-5.9,6.6-8.4c5.1-5,11.2-8.9,18-11.5c6.7-2.6,13.9-3.8,21.1-3.5
	C297.7,457.4,304.8,459.1,311.3,462.1L311.3,462.1z"/>
<path class="st9" d="M381.5,513.7l-19-11.9l-0.2-0.1l-0.2,0l-0.1,1c0.1-1,0.1-1,0.1-1h0h0l0,0l-0.1,0l-0.2,0c-0.2,0-0.5-0.1-0.9-0.1
	c-0.8-0.1-2-0.2-3.4-0.4c-2.8-0.3-6.6-0.8-10.4-1.4c-3.8-0.6-7.6-1.2-10.6-1.9c-1.5-0.3-2.7-0.7-3.6-1c-0.5-0.2-0.8-0.3-1-0.4
	c-0.2-0.1-0.2-0.2-0.3-0.2c-0.2-0.3-0.4-0.8-0.7-1.5c-0.3-0.8-0.7-1.8-1.1-2.9c-0.8-2.2-1.8-5-2.7-7.6c-0.9-2.7-1.8-5.2-2.4-7.1
	c-0.3-1-0.6-1.7-0.8-2.3c-0.1-0.3-0.2-0.5-0.2-0.6l-0.1-0.2l0,0l0,0l0,0v0c0,0,0,0-1,0.3l1-0.3l-0.2-0.7l-0.7,0
	c-3.7,0.1-7.6-1-10.9-2.5c-3.3-1.6-5.8-3.5-6.8-5.1c-0.3-0.4-0.4-0.8-0.6-1c0.6,0,1.5,0.2,2.8,0.5c0.9,0.2,1.9,0.5,3.1,0.8
	c0.7,0.2,1.5,0.4,2.3,0.6c2.4,0.6,5.4,0.5,8.4,0.1c3.1-0.4,6.3-1.2,9.2-2c2.9-0.8,5.6-1.7,7.5-2.4c1-0.3,1.7-0.6,2.3-0.8
	c0.3-0.1,0.5-0.2,0.6-0.2c0.1,0,0.1,0,0.2-0.1l0,0l0,0l0,0l0,0c0,0,0,0-0.4-0.9l0.4,0.9l1.3-0.5l-0.9-1.1h0l0,0l0,0l0,0l0,0
	c0,0-0.1-0.1-0.2-0.2c-0.1-0.2-0.3-0.4-0.6-0.7c-0.5-0.6-1.1-1.5-1.8-2.6c-1.3-2.1-2.5-4.7-2.4-6.7c0-1,0.3-1.4,0.5-1.5
	c0.3-0.2,0.8-0.2,1.8,0c1.9,0.5,4.6,2,7.4,3.9c2.8,1.9,5.5,4.1,7.6,5.8c1,0.9,1.9,1.6,2.5,2.1c0.3,0.3,0.5,0.5,0.7,0.6
	c0.1,0.1,0.1,0.1,0.2,0.2l0,0l0,0l0,0l0,0h0l23.8,21.7L381.5,513.7z"/>
<path class="st3" d="M444.4,367.6c-17.6-1.3-15.8,22.4,11.1,117.6l-75.7-8.1l-20.4,37.6c0,0,55.1,58.9,114.3,23.6
	c48-18.2,39.5-51.2,28.4-93.6C488.6,392.5,470,374.4,444.4,367.6z"/>
<path class="st2" d="M379.6,476.1c5.2-1.6,23.3,3.2,23.3,3.2l-2.1,6.4l-8.1,21.4l-28.1-2.6C364.7,504.5,369,479.3,379.6,476.1z"/>
<path class="st6" d="M445.4,427.5c0,0,2,16.4,5.1,28.2c3.1,11.8,6.9,29.7,6.9,29.7l-75.7-9.5"/>
<path class="st2" d="M305.3,456.3c-1.2,2.6-13.2-12.4-13.2-37.2c0-24.8,2.1-28.7,3.2-44.6c1.1-15.9,4.5-32.9,2.7-63.2
	c-1.4-24.7,1.6-47.6,16.5-67.7c10.4-14.1,33.7-25.4,49.9-21.9c27.1-10.3,51.1,17.5,62.9,40.9c11.8,23.4,11.3,43,25.9,67.3
	c5.2,8.6,8.8,19.2,29.4,40.3s10.1,44.6,10.1,44.6s-12.7-27.4-31.8-31.7c-19.1-4.2-37.3-3.8-40.3-8.5c-9.5-14.9-10-23.5-10-28.5
	c0,0,3.9-7.8,5-12c1.1-4.5,2.2-11.2,2.5-14.9c3.4-3.7,7.6-9,7.8-14.6c0.3-7.9-2-14.5-5.6-16.7c-4.3-2.6-8.4,1.3-11.1,4.4
	c-2.6,3.2-9.1,1.9-9.1,1.9s-5,1.8-13.1-6.4c-11.8-11.9-18.3-27.5-18.3-27.5c-15,4.6-24,19.5-28.6,35.1c-5.7,19.1-14.6,24-14.6,24
	s-2.3-4.3-6.9-3.2c-4.6,1.1-6.2,4.2-3.1,14.8c3.2,10.6,10.6,13.8,20.2,13.8c4.2,13.8,20.2,20.2,20.2,20.2
	c5.8,7.7,15.6,9.5-14.9,32.9C319.7,414.2,312.1,441.7,305.3,456.3z"/>
<path class="st6" d="M401.7,483c-1.9,2.6-9.6,21.1-9.6,36.5"/>
<linearGradient id="SVGID_1_" gradientUnits="userSpaceOnUse" x1="216.0638" y1="255.1452" x2="295.5578" y2="297.9832" gradientTransform="matrix(1 0 0 -1 0 689.89)">
	<stop  offset="0" style="stop-color:#FFF9E5;stop-opacity:0.6"/>
	<stop  offset="1" style="stop-color:#FFF9E5;stop-opacity:0"/>
</linearGradient>
<path class="st18" d="M311.8,276.8L186,389.5l46.6,64.3l137.4,4.3L311.8,276.8z"/>
<path class="st9" d="M178.4,373L178.4,373c-0.6,0.3-1.1,0.8-1.5,1.3c-0.4,0.5-0.7,1.1-0.8,1.8c-0.1,0.6-0.2,1.3,0,2
	c0.1,0.7,0.4,1.3,0.8,1.8c0,0,0,0,0,0l61.4,86.2l105.9,1.4c1-1.4,0.8-3.6-0.2-5.7c-0.5-1.1-1.3-2.1-2.1-2.8
	c-0.8-0.7-1.6-1.1-2.2-1.1l-94.6-2.6l-0.5,0l-0.3-0.4l-59.8-80.5l0,0c-0.7-0.9-1.7-1.6-2.8-1.8C180.6,372.3,179.4,372.5,178.4,373z"
	/>
<path class="st19" d="M353.3,677.3c-83.5,0-138.3-29.9-172.5-72.9c-33.4-42-47.4-96.6-49.3-148.7c3.9,5.9,10,11.1,18.5,15.7
	c10.3,5.5,24.1,10.1,41.9,14c35.7,7.7,87.5,12.2,159.1,14c60,1.5,115.6-4.4,156.2-14.1c20.3-4.8,36.9-10.6,48.5-16.9
	c5.8-3.1,10.3-6.4,13.5-9.8c1.3-1.5,2.4-3,3.2-4.5c0,1.1,0.1,2.4,0.1,3.7c0.1,6.3,0.1,15.2-0.7,26c-1.7,21.5-6.4,50.2-18.6,78.9
	c-12.3,28.7-32,57.3-63.8,78.8C457.6,662.9,413.8,677.3,353.3,677.3z"/>
<path class="st20" d="M171.7,593.9c-26.4-36.7-40.4-92.4-41.3-142.2c0,0,2.1,4.3,6.2,8.6c2.6,2.9,6.2,5.5,9,7.6
	c7,5,22.8,10.7,22.8,10.7c3,12.2,6.8,56.8,41.4,107.8c43.3,63.7,127.3,91.6,127.3,91.6c-27.7-0.8-53.5-6.9-65.3-10.9
	C243.2,657.2,206.2,641.8,171.7,593.9z"/>
<path class="st9" d="M430.1,253.9c5.7-15.2,4.2-35.9-14.7-45.2s-5,20.3-5,20.3c3.4,10.6,17.9-1.4,7,27.1c-4,10.6-5,25.7,2,31.5
	c11.2,9.3,15.4-2.6,10.4-4.8C424.6,280.3,423,272.9,430.1,253.9z"/>
<path class="st17" d="M424.8,270.8c-1.6,1.6-5.9-5.9-9.8,0c-0.4,0.4,0.1,9.6,3.3,14.3c3.9,5.9,5.9,5.2,9.1,5.9
	c3.3,0.7,4.6-3.3,4.6-5.2s-3.3-3.3-4.6-4.6C426.3,280.2,425.2,272.1,424.8,270.8z"/>
<path class="st8" d="M430.1,253.9c5.7-15.2,4.2-35.9-14.7-45.2s-5,20.3-5,20.3c3.4,10.6,17.9-1.4,7,27.1c-4,10.6-5,25.7,2,31.5
	c11.2,9.3,15.4-2.6,10.4-4.8C424.6,280.3,423,272.9,430.1,253.9z"/>
<path class="st7" d="M273.2,226.5c-1.3,0.7,2,9.8,5.9,14.3c-0.7,9.1,3.5,19.5,13.9,21.5c13.7,2.6,24.6-10.6,24.6-10.6
	s0.8,3.3,27,1.5c13.6-0.9,24.3-4.9,26.7-5.8c-1.3,0.6-5,2.3-6,4.4c-0.8,1.6-1.9,4.6,1.2,6.2c7.1,3.6,29.4,0.5,34.5-0.6
	c14.3-3,21.2-11.1,25-25.1c4.9-18.1-14.7-40.6-36.3-42.8c-21.6-2.3-28.2-7.5-51.7,2.3c-18.5,7.7-28.9,22.5-28.9,22.5
	S299,206,298,207c-0.8,0.8-2.3,10.9-2,13.7c0,0-4.6,0.7-7.2,2.6c-2.6,2-5.2,5.9-5.2,5.9C280.7,228.6,274.3,226,273.2,226.5z"/>
<path class="st17" d="M403.9,215.5c-6.9-6.9-13.1-0.3-14,4c-18,0-12.8,12.9-6.9,18.2c4.6,4.1,14.9,5.2,20.9,0
	C409.8,232.4,410.8,222.4,403.9,215.5z"/>
<path class="st17" d="M274.5,233.7l4.6,7.2l1.3,6.5c8.9-2.1,10.7-11.3,11.1-16.3c10.5,6.8,45.1-4.6,43.8-18.2
	c-1.3-13.7-14.9-10.4-14.9-10.4l-11.3,12.4l-3.9-3.9L298,207l-1.3,5.9l-0.7,7.8l-3.3,0.7l-5.2,3.3l-4.6,5.2l-10.5-3.3L274.5,233.7z"
	/>
<path class="st6" d="M303.6,233.8l3.1-2.1"/>
<path class="st6" d="M288.5,242.6l3.1-1.5"/>
<ellipse class="st11" cx="301.4" cy="241.8" rx="1.1" ry="1.1"/>
<path class="st5" d="M301.4,249.4l1.2-4.1l4,0.7"/>
<path class="st21" d="M314.2,238.9c1.7-0.6,5.6-1.8,8.1-2"/>
<path class="st21" d="M312.2,235.6c0,0,2.6-3.3,8.5-3.9"/>
<path class="st21" d="M288.6,254.5c-1.4,1.1-4.4,3.9-5.8,5.9"/>
<path class="st21" d="M286.2,251c-2.4,0.8-6,2.2-8.6,5.5"/>
<path class="st6" d="M376.4,205.7c-9,2-15.2,14.8-7.6,29.7c2.2,4.4,3.9,10.2,3.8,12.7c-8.7,1.2-8.2,9.7-2.2,10.9"/>
<path class="st22" d="M347.6,253.3c0,0-18.3,1.9-28.1-2c-5.5-2.2-2.8-6.9,1.8-8.6c2.9-1.1,6.9,0,12.1,0"/>
<path class="st17" d="M358.8,196.6c-15.2,1-17.5-3-16.8-5.9c2.6-0.7,9.7-3.2,19-3.9c9.2-0.7,18.1,1.5,22.2,3.3
	C381,193.5,373.9,195.5,358.8,196.6z"/>
<path class="st8" d="M279,240.8c-3.9-4.6-7.2-13.7-5.9-14.3c1.1-0.6,7.5,2.1,10.5,2.6c0,0,2.6-3.9,5.2-5.9c2.6-2,7.2-2.6,7.2-2.6
	c-0.3-2.8,1.2-12.9,2-13.7c1-1,11.1,7.2,11.1,7.2s10.4-14.8,28.9-22.5c23.4-9.8,30-4.5,51.7-2.3c21.6,2.3,41.2,24.7,36.3,42.8
	c-3.8,13.9-10.7,22.1-25,25.1c-5.2,1.1-27.4,4.2-34.5,0.6c-3.1-1.6-2-4.6-1.2-6.2c1.3-2.6,6.6-4.6,6.6-4.6s-10.4,5.6-25.9,6.7
	c-26.2,1.8-28.3-2.1-28.3-2.1s-10.9,13.2-24.6,10.6C282.6,260.4,278.4,250,279,240.8z"/>
<path class="st11" d="M583.5,577.4c-0.9-9.8-1-19.6-2.2-29.4c-1.2-10.4-4.8-24.3-18.4-26.2c-2.8-0.4-5.7-0.1-8.3,0.8
	c-2.7,1-5,2.6-6.6,4.8c-3.9,4.8-3.6,11.6-4,17.2c-1,13.4,0,26.6,4.4,39.2c1.4,4.2,8.4,1.3,7-2.8c-3.3-10.2-4.7-20.8-4.1-31.4
	c0.1-2.8,0.3-5.7,0.6-8.5c0.3-2.5,0.2-5.5,1.1-7.9c1.9-5,8.3-5.8,12.6-3.1c9,5.5,8.5,19.9,9.2,28.6c0.5,6.6,0.6,13.3,1.3,19.9
	C576.4,582.9,583.9,581.8,583.5,577.4L583.5,577.4z"/>
<path class="st3" d="M545.2,593.4c-3.1-13.9-5.7-28.5-4.5-42.7c0.5-6.1,1.8-13.1,6.1-17.8c1-1.1,2.3-1.9,3.8-2.4
	c0,0-0.3-0.2,0.5-0.1c0.8,0.1,1.7,0.4,2.3,0.9c0.3,0.2,0.5,0.4,0.7,0.6c0.9,0.6-0.1-0.2,0.4,0.4c1,1,1.8,2.2,2.2,3.5
	c1,2.4,1.6,4.8,2.1,7.3c2.9,14.3,3.7,29.1,4.8,43.6c0.3,4.4,7.1,3.4,6.8-1c-1.1-14.4-2-29.1-4.8-43.4c-1-5.1-2.3-10.6-5.9-14.5
	c-4.5-4.9-10.7-5.4-15.9-1.3c-5.5,4.2-8,11.3-9.2,17.9c-3,16.4,0.2,33.9,3.8,49.9C539.4,598.5,546.2,597.6,545.2,593.4L545.2,593.4z
	"/>
<path class="st11" d="M598.3,634.7c0,0,5.9-2,6.2,1.8c0.3,3.8,1.2,9.9,1.4,13.1c0.2,3.2-5.8,3.1-5.8,3.1L598.3,634.7z"/>
<path class="st3" d="M598.2,572.9c0,0-27.7-1-43.3,5.8c-23.4,10.2-43.3,5.8-43.3,5.8s-7.5,40.6-4.9,66.2
	c2.3,23.2,14.7,31.5,17.2,33.3c3.6,2.6,25.1-2.8,46.9-6.6c19.6-8.5,41.2-5.4,41.5-6.2c2.1-5-10.2-17.8-13.9-40.6
	C595.2,612.2,601.1,584.3,598.2,572.9z"/>
<path class="st16" d="M596.1,616.2c0.4-0.4,1-0.4,1.4-0.1c0.4,0.4,0.4,1,0.1,1.4l-0.7-0.6c0.7,0.6,0.7,0.6,0.7,0.6v0l0,0l0,0l0,0
	c0,0,0,0,0,0.1c0,0-0.1,0.1-0.2,0.2c-0.2,0.2-0.4,0.4-0.7,0.7c-0.6,0.6-1.5,1.3-2.7,2.2c-2.4,1.7-6.1,3.7-11.2,5
	c-0.5,0.1-1.1-0.2-1.2-0.7c-0.1-0.5,0.2-1.1,0.7-1.2c4.8-1.3,8.3-3.2,10.6-4.7c1.1-0.8,2-1.5,2.5-2c0.3-0.3,0.5-0.5,0.6-0.6
	C595.9,616.3,596,616.2,596.1,616.2L596.1,616.2L596.1,616.2L596.1,616.2z"/>
<path class="st16" d="M587.9,628c3.4-0.9,6.7-1,9.9,0.2c0.5,0.2,0.8,0.8,0.6,1.3c-0.2,0.5-0.8,0.8-1.3,0.6c-2.7-1-5.6-1-8.7-0.2
	c-3.1,0.8-6.4,2.3-9.7,3.9c-1,0.5-2,1-3,1.5c-2.3,1.2-4.6,2.4-6.8,3.4c-3.2,1.4-6.4,2.5-9.4,2.5c-0.5,0-1-0.4-1-1s0.4-1,1-1
	c2.6,0,5.4-0.9,8.6-2.3c2.2-1,4.4-2.1,6.6-3.3c1-0.5,2-1.1,3.1-1.6C581.1,630.4,584.5,628.9,587.9,628z"/>
<path class="st11" d="M606.8,662.8c-6.1,0-12.6,1-17.9,2.1c-10,2.1-16.9,5.3-28,7.5c-13.6,2.6-30.8,6.9-34.7,5.6
	c-3.9-1.3-9.3-4.2-13.1-10.4c-3.9-6.5-6.5-15.6-6.5-15.6c2.1,18.2,11.8,28.1,17.2,32c3.3,2.3,25.2,3.2,43.5-3.4
	c16.8-6.1,44.5-8.5,44.8-9.4c0.7-1.6,0-6.5-3-10.1C609.2,661.1,608.8,662.3,606.8,662.8z"/>
<path class="st16" d="M573.3,586.3l-2.5-8.1l-8.1,2.5l2.5,8.1L573.3,586.3z M572,577.8c-0.2-0.7-0.9-1.1-1.6-0.9l-8.1,2.5
	c-0.7,0.2-1.1,0.9-0.9,1.6l2.5,8.1c0.2,0.7,0.9,1.1,1.6,0.9l8.1-2.5c0.7-0.2,1.1-0.9,0.9-1.6L572,577.8z"/>
<path class="st16" d="M564.2,589.2l6.3-11.9l1.2,0.6l-6.3,11.9L564.2,589.2z"/>
<path class="st16" d="M562.3,579.7l11.9,6.4l-0.6,1.1l-11.9-6.4L562.3,579.7z"/>
<path class="st16" d="M546.1,594.5l-1.1-8.4l-8.5,1l1.1,8.4L546.1,594.5z M546.3,585.9c-0.1-0.7-0.7-1.2-1.5-1.1l-8.5,1
	c-0.7,0.1-1.2,0.7-1.1,1.5l1.1,8.4c0.1,0.7,0.7,1.2,1.5,1.1l8.5-1c0.7-0.1,1.2-0.7,1.1-1.5L546.3,585.9z"/>
<path class="st16" d="M536.7,595.7l8.3-10.6l1,0.8l-8.3,10.6L536.7,595.7z"/>
<path class="st16" d="M536.5,586.1l10.6,8.4l-0.8,1l-10.6-8.4L536.5,586.1z"/>
<path class="st16" d="M594.8,588.5c-4.5,0-23.2,0.8-36.8,7.1c-9.3,4.3-19.5,5.1-27.7,4.7c-8.3-0.4-14.7-2-16.8-2.7
	c-0.5-0.2-0.8-0.7-0.6-1.2c0.2-0.5,0.7-0.8,1.2-0.6c1.9,0.6,8.2,2.2,16.2,2.6c8.1,0.4,17.9-0.4,26.8-4.6c14-6.4,33.1-7.2,37.7-7.2
	c0.5,0,1,0.4,1,1S595.4,588.5,594.8,588.5z"/>
<g>
	<defs>
		<polygon id="SVGID_2_" points="563.2,183.6 622.8,194.9 611.4,250.9 551.8,239.5 		"/>
	</defs>
	<clipPath id="SVGID_3_">
		<use xlink:href="#SVGID_2_"  style="overflow:visible;"/>
	</clipPath>
	<g class="st23">
		<path class="st24" d="M573.6,186.6l38.4,7.3c5.3,1,8.7,6,7.7,11l-7.3,35.6c-1,5.1-6.1,8.4-11.4,7.4l-38.4-7.3c-5.3-1-8.7-6-7.7-11
			l7.3-35.6C563.2,188.9,568.3,185.5,573.6,186.6z"/>
		<path class="st7" d="M591.5,204.3l-9.9,10.4l5.4,14.1c0,0.1,0,0.2,0,0.3c0,0.1-0.1,0-0.3,0l-5.7-1.1c-0.4-0.1-0.7-0.2-0.8-0.4
			c-0.3-1.1-0.7-2.2-1-3.3c-0.3-1.1-0.7-2.2-1.1-3.3c-0.4-1.1-0.8-2.3-1.2-3.5l0,0c-0.7,0.9-1.5,1.8-2.3,2.8
			c-0.8,0.9-1.6,1.8-2.3,2.7c-0.8,0.9-1.6,1.8-2.3,2.7c-0.1,0.2-0.4,0.2-0.6,0.2l-5.5-1c-0.1,0-0.2,0-0.2-0.1c0-0.1,0-0.2,0.1-0.3
			l10.2-10.7l-5-13.7c-0.1-0.1-0.1-0.2,0-0.2c0.1-0.1,0.2-0.1,0.3,0l5.6,1.1c0.1,0,0.2,0.1,0.3,0.1c0.1,0.1,0.1,0.2,0.2,0.3
			c0.3,1.1,0.6,2.3,1,3.4c0.4,1.1,0.8,2.3,1.2,3.4c0.4,1.1,0.7,2.2,1,3.4l0,0c0.7-1,1.5-1.9,2.2-2.8c0.8-0.9,1.5-1.8,2.3-2.7
			c0.8-0.9,1.5-1.8,2.3-2.7c0-0.1,0.1-0.2,0.2-0.2c0.1,0,0.2,0,0.3,0l5.2,1c0.1,0,0.2,0.1,0.2,0.2
			C591.7,204.1,591.6,204.2,591.5,204.3z"/>
		<path class="st7" d="M597.9,231.7c-1.8-0.3-3.6-1-5.1-2.1c-1.4-1-2.5-2.4-3.1-4c-0.6-1.6-0.7-3.5-0.3-5.7c0.3-1.8,1.2-3.4,2.4-4.8
			c1.3-1.4,2.9-2.4,4.7-3c1.9-0.6,4.1-0.7,6.6-0.2c0.1,0,0.3,0.1,0.5,0.1c0.2,0.1,0.5,0.1,0.8,0.2l1.5-7.6c0-0.2,0.1-0.2,0.3-0.2
			l5,1c0.1,0,0.2,0.1,0.2,0.2c0,0,0,0,0,0l-4.6,22.8c-0.1,0.4-0.2,0.9-0.2,1.4c-0.1,0.5-0.1,1-0.2,1.4c0,0.2-0.1,0.3-0.3,0.3
			c-1.4,0.3-2.8,0.4-4.3,0.4C600.4,232.1,599.2,231.9,597.9,231.7z M601.3,227.4l2.1-10.5c-0.2-0.1-0.4-0.2-0.6-0.2
			c-0.3-0.1-0.5-0.2-0.8-0.2c-1-0.2-2-0.2-2.9,0.1c-0.9,0.2-1.8,0.7-2.5,1.4c-0.7,0.7-1.2,1.6-1.4,2.9c-0.2,0.8-0.2,1.7-0.1,2.5
			c0.1,0.7,0.4,1.3,0.8,1.9c0.4,0.5,0.9,1,1.5,1.3c0.6,0.3,1.3,0.6,2,0.7c0.4,0.1,0.7,0.1,1.1,0.2
			C600.7,227.4,601,227.4,601.3,227.4z"/>
	</g>
</g>
<path class="st9" d="M587.1,385.3L587.1,385.3c-3,0.3-6-0.6-8.4-2.4c-2.4-1.9-3.9-4.5-4.2-7.5l0,0l-7.4-67.4v0
	c-0.3-2.9,0.6-5.9,2.5-8.2c1.9-2.3,4.7-3.8,7.7-4.1h0l69.1-7.2l0,0c3-0.3,6.1,0.6,8.4,2.4c2.4,1.9,3.9,4.5,4.2,7.5c0,0,0,0,0,0
	l7.4,67.4l0,0c0.3,2.9-0.6,5.9-2.5,8.2c-1.9,2.3-4.7,3.8-7.7,4.1L587.1,385.3z"/>
<path class="st11" d="M656.2,337.8l19.4,3.1l-4,3.8l8.3,5l-3.4,5.2l-8.2-5.6l-2.5,5.3L656.2,337.8z"/>
<path class="st8" d="M617,338.6c-0.3-2.3,0.4-4.7,2-6.5s3.7-3,6.1-3.2c2.4-0.3,4.8,0.4,6.7,1.9c1.9,1.5,3.1,3.6,3.3,5.9
	c0.3,2.3-0.4,4.7-2,6.5c-1.5,1.8-3.7,3-6.1,3.2c-2.4,0.3-4.8-0.4-6.7-1.9C618.5,343.1,617.3,340.9,617,338.6L617,338.6z"/>
<path class="st8" d="M600.9,358.1c-0.3-2.3,0.4-4.7,2-6.5c1.5-1.8,3.7-3,6.1-3.2l9-1l1,8.8c0.3,2.3-0.4,4.7-2,6.5
	c-1.5,1.8-3.7,3-6.1,3.2c-2.4,0.3-4.8-0.4-6.7-1.9C602.4,362.5,601.2,360.4,600.9,358.1z"/>
<path class="st8" d="M614.1,312.2l2,17.6l9-1c2.4-0.3,4.6-1.4,6.1-3.2s2.2-4.2,2-6.5s-1.5-4.5-3.3-5.9c-1.9-1.5-4.3-2.2-6.7-1.9
	L614.1,312.2z"/>
<path class="st8" d="M597,322.9c0.3,2.3,1.5,4.5,3.3,5.9c1.9,1.5,4.3,2.2,6.7,1.9l9-1l-2-17.6l-9,1c-2.4,0.3-4.6,1.4-6.1,3.2
	C597.5,318.3,596.8,320.6,597,322.9z"/>
<path class="st8" d="M599,340.5c0.3,2.3,1.5,4.5,3.3,5.9c1.9,1.5,4.3,2.2,6.7,1.9l9-1l-2-17.6l-9,1c-2.4,0.3-4.6,1.4-6.1,3.2
	C599.4,335.8,598.7,338.2,599,340.5z"/>
<g>
	<defs>
		<polygon id="SVGID_4_" points="56.4,201.8 99.7,209.4 91.9,250.5 48.7,242.8 		"/>
	</defs>
	<clipPath id="SVGID_5_">
		<use xlink:href="#SVGID_4_"  style="overflow:visible;"/>
	</clipPath>
	<g class="st25">
		<path class="st2" d="M64.1,203.1l27.9,4.9c4.2,0.8,7,4.7,6.3,8.8L93.3,243c-0.8,4.1-4.8,6.8-9.1,6.1l-27.9-4.9
			c-4.2-0.8-7-4.7-6.3-8.8l4.9-26.1C55.8,205.1,59.8,202.4,64.1,203.1z"/>
		<path class="st7" d="M72.7,230l-6.7-1.2l-2.1,3.9c-0.1,0.2-0.2,0.2-0.4,0.2l-3.4-0.6c-0.2,0-0.2-0.2-0.1-0.4l8.9-15.2
			c0.1-0.2,0.2-0.3,0.3-0.5c0.1-0.4,0.3-0.7,0.3-1.1c0-0.1,0.1-0.2,0.2-0.2l4.7,0.8c0.1,0,0.2,0.1,0.2,0.2l3.2,19.2
			c0,0.2-0.1,0.3-0.2,0.2l-3.8-0.7c-0.1,0-0.2-0.1-0.3-0.2L72.7,230z M67.7,225.5l4.6,0.8c0-0.4-0.1-0.9-0.2-1.3
			c-0.1-0.5-0.1-1-0.2-1.6c-0.1-0.6-0.1-1.1-0.2-1.7c-0.1-0.6-0.1-1.1-0.2-1.6c-0.1-0.5-0.1-1-0.1-1.4l0,0c-0.3,0.7-0.6,1.4-1,2.2
			c-0.4,0.8-0.9,1.6-1.3,2.4C68.5,224,68.1,224.8,67.7,225.5z M84.5,220.7c-0.6-0.1-1.1-0.4-1.5-0.9c-0.3-0.5-0.4-1.1-0.3-1.7
			c0.1-0.6,0.4-1.1,0.9-1.4c0.5-0.3,1.1-0.4,1.7-0.3c0.7,0.1,1.2,0.4,1.5,0.9c0.3,0.5,0.4,1.1,0.3,1.7c-0.1,0.6-0.4,1.1-0.9,1.5
			C85.8,220.7,85.1,220.9,84.5,220.7z M79.6,235.6l2.5-13.5c0-0.2,0.1-0.2,0.3-0.2l3.6,0.6c0.2,0,0.2,0.1,0.2,0.3l-2.5,13.5
			c0,0.2-0.1,0.3-0.3,0.2l-3.5-0.6C79.7,235.9,79.6,235.7,79.6,235.6z"/>
	</g>
</g>
<path class="st11" d="M7.9,309.4l41.8-15.8c6.3-2.4,13.5,0.6,15.9,6.6l15.5,38.5c2.4,6.1-0.7,12.9-7.1,15.3l-41.8,15.8
	c-6.3,2.4-13.5-0.6-15.9-6.6L0.8,324.7C-1.6,318.7,1.5,311.8,7.9,309.4z"/>
<path class="st7" d="M28.1,350.6L17.4,324c-0.1-0.2,0-0.3,0.2-0.4c0.5-0.2,0.9-0.3,1.5-0.6c0.6-0.3,1.3-0.5,2-0.8s1.5-0.6,2.3-0.9
	c0.8-0.3,1.6-0.6,2.4-1c2.2-0.8,4.2-1.3,5.9-1.3c1.5-0.1,3.1,0.2,4.5,0.8c1.2,0.5,2.3,1.3,3.2,2.2c0.8,0.9,1.5,2,2,3.1
	c0.9,2.2,1.1,4.3,0.6,6.1s-1.6,3.5-3.1,4.8c-1.6,1.3-3.5,2.3-5.7,3.2c-0.6,0.2-1.1,0.4-1.4,0.5c-0.3,0.1-0.7,0.2-1.2,0.4l3.3,8.3
	c0.1,0.2,0,0.4-0.2,0.5c0,0-0.1,0-0.1,0l-5.1,1.9C28.3,350.9,28.2,350.8,28.1,350.6z M25.1,326.5l3.5,8.7c0.4-0.1,0.7-0.2,1.1-0.3
	l1.4-0.5c1.1-0.4,2-1,2.9-1.6c0.8-0.6,1.3-1.3,1.7-2.2c0.3-0.9,0.2-1.8-0.2-3c-0.3-0.8-0.8-1.5-1.5-2.1c-0.7-0.5-1.6-0.8-2.5-0.8
	c-1.2,0-2.3,0.2-3.4,0.7c-0.7,0.3-1.3,0.5-1.8,0.7C25.7,326.3,25.3,326.4,25.1,326.5z"/>
<path class="st7" d="M59.4,321.8c-1-0.1-2-0.1-2.9,0.1c-1.1,0.2-2.1,0.4-3.2,0.8c-0.6,0.2-1.1,0.5-1.5,0.8c-0.3,0.2-0.5,0.5-0.6,0.8
	c-0.1,0.3,0,0.5,0.1,0.8c0.1,0.2,0.3,0.4,0.5,0.6c0.4,0.2,0.8,0.3,1.2,0.4c0.7,0.1,1.5,0.1,2.3,0.1c1.6-0.1,3.3,0,4.9,0.3
	c1.1,0.2,2.1,0.7,3,1.3c0.8,0.7,1.3,1.5,1.7,2.4c0.5,1.2,0.6,2.6,0.3,3.8c-0.3,1.3-1.1,2.5-2.1,3.4c-1.1,1-2.6,1.9-4.6,2.7
	c-1.2,0.5-2.5,0.8-3.8,1.1c-1,0.2-2.1,0.3-3.1,0.2c-0.2,0-0.4-0.2-0.5-0.4l-1.8-4.5c0-0.1,0-0.2,0-0.3c0.1-0.1,0.2-0.1,0.3-0.1
	c1.3,0.2,2.6,0.2,3.9,0c1.1-0.1,2.3-0.4,3.3-0.8c1-0.4,1.7-0.8,2.1-1.2c0.4-0.3,0.5-0.9,0.3-1.4c-0.1-0.4-0.5-0.6-1.1-0.8
	c-0.6-0.2-1.6-0.2-3.1-0.2c-1.6,0.1-3.1-0.1-4.6-0.4c-1.1-0.3-2.1-0.7-2.9-1.4c-0.8-0.7-1.3-1.5-1.7-2.4c-0.4-1.1-0.6-2.3-0.3-3.5
	c0.3-1.3,0.9-2.5,1.9-3.4c1-1.1,2.5-2,4.4-2.7c1.1-0.4,2.3-0.8,3.4-1c0.9-0.2,1.7-0.3,2.6-0.3c0.1,0,0.3,0,0.4,0.1
	c0.1,0.1,0.1,0.2,0.2,0.3l1.7,4.2c0,0.1,0,0.2,0,0.3C59.6,321.7,59.5,321.8,59.4,321.8z"/>
<g>
	<defs>
		<rect id="SVGID_6_" x="22.2" y="429.6" width="200" height="200.5"/>
	</defs>
	<clipPath id="SVGID_7_">
		<use xlink:href="#SVGID_6_"  style="overflow:visible;"/>
	</clipPath>
	<g class="st26">
		<path class="st2" d="M216.8,567.6c0.6-0.6,0.2-1.6-0.6-1.7c-28.1-3.1-52.7-12.5-75.8-27.8c-0.4-0.2-0.8-0.2-1.2,0
			c-13.3,10-27.7,18.8-43,26.1c-0.6,0.3-0.8,1.1-0.3,1.6c24,22.7,52.6,40.9,84,53.7c0.8,0.3,1.6-0.4,1.5-1.2
			c-1.5-13.3,14.8-29.1,14.8-29.1L216.8,567.6z"/>
		<path class="st9" d="M56.1,569.9C56.1,569.9,56.1,569.9,56.1,569.9C56.1,569.9,56.1,569.9,56.1,569.9
			C56.1,569.9,56.1,569.9,56.1,569.9C56.1,569.9,56.1,569.9,56.1,569.9C56.1,569.9,56.1,569.9,56.1,569.9c29.7,0.6,62.2-0.8,88.3-14
			c0,0,0,0,0,0h0c0,0,0,0,0,0c0,0,0,0,0,0c0,0,0,0,0,0c0,0,0,0,0,0c1.8,8.9,5.7,17.4,11.5,24.9c5.7,7.4,13,13.6,21.4,18.1
			c0,0,0,0,0,0l0,0c0,0,0,0,0,0c-26.7,18.4-58.8,28.9-92.1,30.1c0,0,0,0,0,0c0,0,0,0,0,0l0,0c0,0,0,0,0,0
			c0.4-11.6-2.2-23.1-7.6-33.7C72.6,585.5,65.2,576.8,56.1,569.9l-0.6,0.8L56.1,569.9z"/>
		<path class="st27" d="M134,568.2l0.5,1.9c1.7,5.8,8.1,19.9,20.1,29.4l1.5,1.2l-2.4,3l-1.5-1.2c-12.9-10.2-19.6-25.1-21.5-31.4
			l-0.5-1.9L134,568.2z"/>
		<path class="st27" d="M120.2,572.2l0.5,1.9c1.4,5.8,7.2,20.2,18.9,30.2l1.5,1.3l-2.5,2.9l-1.5-1.3c-12.4-10.7-18.6-25.9-20.1-32.3
			l-0.5-1.9L120.2,572.2z"/>
		<path class="st27" d="M106.4,575.1l0.6,1.9c1.9,6.3,7.7,21,17.2,33l1.2,1.5l-3.1,2.4l-1.2-1.5c-9.9-12.5-15.9-27.7-17.9-34.3
			l-0.6-1.9L106.4,575.1z"/>
		<path class="st27" d="M90.4,577.5l0.9,1.7l-1.7,0.9c1.7-0.9,1.7-0.9,1.7-0.9l0,0l0.1,0.1c0.1,0.1,0.1,0.3,0.2,0.4
			c0.2,0.4,0.5,1,0.8,1.7c0.7,1.4,1.7,3.5,2.8,5.8c2.2,4.8,4.9,11,6.9,17l0.6,1.8l-3.7,1.2l-0.6-1.8c-1.9-5.7-4.5-11.9-6.7-16.6
			c-1.1-2.4-2-4.3-2.7-5.8c-0.3-0.7-0.6-1.3-0.8-1.6c-0.1-0.2-0.2-0.3-0.2-0.4l-0.1-0.1l-0.9-1.8L90.4,577.5z"/>
		<path class="st9" d="M42.3,515.1C42.3,515.1,42.3,515.1,42.3,515.1C42.3,515.1,42.3,515.1,42.3,515.1
			C42.2,515.1,42.2,515.1,42.3,515.1L42.3,515.1C42.2,515.1,42.2,515.1,42.3,515.1c19.6-21.3,31-43.5,37.4-70c0,0,0,0,0,0
			c0,0,0,0,0,0c0,0,0,0,0,0c18-1.8,35.8-5.2,53.2-10.2c0,0,0,0,0,0c-1.5,32.1-9.8,63.9-24.5,93.6c0,0,0,0,0,0c0,0,0,0,0,0
			c0,0,0,0,0,0c0,0,0,0,0,0c-8-11.2-20.6-13.3-34.8-13.3c-4.8,0-9.5,0-13.8,0C53.1,515.1,47.2,515,42.3,515.1z"/>
		<path class="st27" d="M123.9,454.4l-1.9,0.4c-3.4,0.7-11.2,1.6-19,2.5c-7.8,0.8-15.7,1.5-19,1.5H82v-3.9h1.9
			c3.1,0,10.8-0.6,18.6-1.4c7.8-0.8,15.5-1.8,18.7-2.4l1.9-0.4L123.9,454.4z"/>
		<path class="st27" d="M78.2,469.6l1.9,0.1c8.5,0.4,28,1.2,38.8,0.6l1.9-0.1l0.2,3.9l-1.9,0.1c-11,0.5-30.7-0.2-39.2-0.6l-1.9-0.1
			L78.2,469.6z"/>
		<path class="st27" d="M72.5,483l1.9,0.3c12.6,1.7,36.1,2.7,40.3,3.2l1.9,0.2l-0.5,3.9l-1.9-0.2c-4.2-0.5-27.8-1.5-40.3-3.2
			l-1.9-0.3L72.5,483z"/>
		<path class="st27" d="M62.5,498.2h1.9c4.1,0,15.9,1.3,27.1,3.9l1.9,0.4l-0.9,3.8l-1.9-0.4c-11-2.6-22.5-3.8-26.2-3.8h-1.9
			L62.5,498.2z"/>
	</g>
</g>
<path class="st6" d="M304,261.7c-2.8,4.1-9.8,30.6-3.9,67.7"/>
<path class="st6" d="M298.8,338.5c-0.7,12.6-2.6,40.2-5.2,50.1c-3.3,12.4-7.8,49.5,6.5,64.4"/>
<path class="st6" d="M472.1,375.6c2.8,3,6.5,11.1,8.5,18.2"/>
<path class="st6" d="M371.4,264.9c2.4,6.5,22.2,40.4,39.2,24.1"/>
<path class="st6" d="M388.4,271.4c2.8,4.8,13.6,15.6,20.9,15.6"/>
<path class="st6" d="M428.3,265.6c3.5,11.9,12.4,40.1,20.3,57.3c9.8,21.5,18.8,27.8,34.7,46.9c12.4,15,15.7,33.8,9.8,43.6"/>
<path class="st6" d="M440,348.3c1.1,8.2,7.2,25.8,17.7,32.5"/>
<path class="st6" d="M339.3,266.9c-9.2,6.5-7.8,34.5-20.3,41.7"/>
<path class="st6" d="M368.1,259.1c-8.5,0-19,9.8-24.2,26c-4.6,14.3-11.8,28-20.3,34.5"/>
<path class="st6" d="M321,368.4c4.6,29.9-10.5,36.5-2.6,54.7"/>
<path class="st6" d="M319.1,315.1c0,0-10.2,3.3-4.6,15.6c5.9,13,5.9,22.8,5.9,22.8"/>
<path class="st6" d="M304.7,416c0,8.5,1.3,18.9,5.2,24.7"/>
<path class="st6" d="M409.3,347c0.7,7.8,5.2,23.5,14.4,28.6c10.5,5.9,24.2,5.2,24.2,5.2"/>
<path class="st8" d="M146.3,279.8c0,0-5.4-22.3,65.5-62.7c37.5-21.4,93.4-43.8,136.1-56.5c51.5-15.3,103.9-25.3,129.4-27.1
	c77.8-5.5,80.3,18,80.3,18"/>
</svg>
