<svg width="196" height="185" viewBox="0 0 196 185" fill="none" xmlns="http://www.w3.org/2000/svg">
<path d="M39.2444 71.3892L48.6457 84.7111L143.075 44.085L39.2444 71.3892Z" fill="#EFEDE7"/>
<path fill-rule="evenodd" clip-rule="evenodd" d="M49.3481 82.2225L42.5547 72.596L117.583 52.8659L49.3481 82.2225ZM39.2444 71.3892L48.6457 84.7111L143.075 44.085L39.2444 71.3892Z" fill="#313B36"/>
<path d="M146.106 44.8865L79.8395 27.436L55.4195 49.8808L134.567 46.9507L146.106 44.8865Z" fill="#EFEDE7"/>
<path fill-rule="evenodd" clip-rule="evenodd" d="M80.3872 29.6589L60.79 47.671L134.355 44.9475L136.79 44.5119L80.3872 29.6589ZM79.8395 27.436L55.4195 49.8808L134.567 46.9507L146.106 44.8865L79.8395 27.436Z" fill="#313B36"/>
<path d="M146.106 44.8865L19.6863 80.4239L49.9314 47.4474L146.106 44.8865Z" fill="#EFEDE7"/>
<path fill-rule="evenodd" clip-rule="evenodd" d="M146.106 44.8865L49.9314 47.4474L19.6863 80.4239L146.106 44.8865ZM25.9343 76.5808L130.006 47.3257L50.8328 49.4338L25.9343 76.5808Z" fill="#313B36"/>
<path d="M99.9031 133.464L98.9596 145.852L174.005 168.013L99.9031 133.464Z" fill="#EFEDE7"/>
<path fill-rule="evenodd" clip-rule="evenodd" d="M101.084 144.385L101.684 136.511L148.787 158.472L101.084 144.385ZM99.9031 133.464L98.9596 145.852L174.005 168.013L99.9031 133.464Z" fill="#313B36"/>
<path d="M175.391 169.956L144.999 127.463L119.805 128.733L167.626 165.548L175.391 169.956Z" fill="#EFEDE7"/>
<path fill-rule="evenodd" clip-rule="evenodd" d="M144.006 129.525L125.347 130.466L168.366 163.584L144.006 129.525ZM167.626 165.548L119.805 128.733L144.999 127.463L175.391 169.956L167.626 165.548Z" fill="#313B36"/>
<path d="M175.393 169.956L84.0581 129.238L117.769 124.631L175.393 169.956Z" fill="#EFEDE7"/>
<path fill-rule="evenodd" clip-rule="evenodd" d="M175.393 169.956L117.769 124.631L84.0581 129.238L175.393 169.956ZM91.3152 130.274L161.443 161.538L117.199 126.737L91.3152 130.274Z" fill="#313B36"/>
</svg>
