<svg width="363" height="368" viewBox="0 0 363 368" fill="none" xmlns="http://www.w3.org/2000/svg">
<g clip-path="url(#clip0_1682_8016)">
<path d="M67.4563 90.3721C67.5219 90.3363 67.5104 90.1853 67.535 90.1003L67.5885 89.7564C67.6279 89.6205 67.6951 89.4837 67.7454 89.3419C76.0505 58.3644 96.2918 32.0698 124.017 16.2423C151.741 0.414846 184.678 -3.64886 215.582 4.94514C246.486 13.5391 272.824 34.0869 288.804 62.0681C304.784 90.0493 309.095 123.172 300.79 154.149L300.553 154.078C295.129 169.538 240.156 168.143 176.573 150.776C112.99 133.409 64.6116 106.53 67.4563 90.3721Z" stroke="#313B36" stroke-width="2" stroke-miterlimit="10"/>
<path d="M176.057 265.017C244.212 263.933 299.377 248.827 299.271 232.538C299.166 216.249 243.83 203.923 175.676 205.007C107.521 206.091 52.3559 220.174 52.4613 236.463C52.5666 252.752 107.902 266.101 176.057 265.017Z" fill="#6A5D54" stroke="#313B36" stroke-width="2" stroke-miterlimit="10"/>
<g clip-path="url(#clip1_1682_8016)">
<path d="M338.2 215.71C327.687 226.821 310.156 227.329 299.042 216.843C287.928 206.357 287.44 188.849 297.952 177.737C308.464 166.626 325.996 166.119 337.11 176.604C348.224 187.09 348.712 204.598 338.2 215.71Z" fill="#EFEDE7" fill-opacity="0.4"/>
<path d="M290.656 215.65L299.389 223.889L255.23 270.565C252.949 272.977 249.144 273.086 246.733 270.812C244.322 268.537 244.215 264.738 246.497 262.326L290.656 215.65Z" fill="#6F695D" stroke="#313B36" stroke-width="2"/>
<path fill-rule="evenodd" clip-rule="evenodd" d="M299.38 223.89L290.656 215.659L246.502 262.33C244.223 264.738 244.329 268.534 246.738 270.807C249.147 273.08 252.947 272.97 255.226 270.561L299.38 223.89ZM290.616 214.237L245.77 261.639C243.109 264.452 243.233 268.884 246.046 271.538C248.859 274.192 253.297 274.064 255.958 271.251L300.804 223.849L290.616 214.237Z" fill="#313B36"/>
<path d="M337.909 215.758L337.879 215.789L337.847 215.818C326.859 225.561 310.456 227.459 298.707 216.396C286.944 205.319 288.743 188.208 297.964 178.48C309.026 166.81 325.51 166.323 337.209 177.34L337.222 177.352L337.234 177.365C347.131 187.367 349.009 204.048 337.909 215.758ZM294.261 221.934C308.181 235.042 330.136 234.411 343.297 220.526C356.456 206.643 355.843 184.765 341.924 171.658C328.004 158.549 306.049 159.181 292.888 173.065C279.728 186.949 280.342 208.827 294.261 221.934Z" fill="#E7E1D2" stroke="#313B36" stroke-width="2"/>
</g>
<path d="M311.626 60.2561L309.898 55.6263L342.465 55.6876L311.626 60.2561Z" fill="#D4CAAA" stroke="#313B36" stroke-width="2"/>
<path d="M320.651 46.9006L330.719 41.6081L352.632 54.0258L352.066 53.9793L320.651 46.9006Z" fill="#F6EDD5" stroke="#313B36" stroke-width="2"/>
<path d="M315.896 46.6926L349.003 54.5144L302.587 55.2102L315.896 46.6926Z" fill="#EADAC1" stroke="#313B36" stroke-width="2"/>
<path d="M302.199 46.3702C302.199 46.3702 278.541 33.2303 250.726 36.0061C225.602 38.5132 223.23 51.3526 225.097 57.5054C226.963 63.6582 241.246 78.5077 246.744 69.9327C250.784 63.6322 235.09 56.4755 222.082 59.3731C206.774 62.7829 201.886 83.7681 201.886 83.7681" stroke="#313B36" stroke-width="2" stroke-linecap="round"/>
<path d="M181.485 150.309L244.341 151.07L237.107 208.31L205.653 203.588C205.653 203.588 185.727 252.052 175.103 242.297C164.483 232.545 178.598 195.054 177.8 179.473C177.5 173.624 177.273 166.662 177.057 160.833C176.776 153.232 181.485 150.309 181.485 150.309Z" fill="#907D73"/>
<path d="M256.245 287.228L176.115 271.74C176.344 264.05 177.115 252.214 177.115 252.214C171.677 236.735 163.002 240.126 164.126 231.236C164.126 231.236 172.887 215.422 177.994 206.644C183.101 197.867 199.512 194.389 202.621 193.707C205.729 193.025 207.476 199.129 207.476 199.129C211.614 192.734 227.884 190.724 227.884 190.724C227.884 190.724 232.338 191.725 235.567 192.344C243.137 193.761 255.953 197.833 257.196 209.189C257.794 214.668 257.548 228.738 257.168 244.634C256.944 253.617 256.671 263.182 256.484 272.13C256.376 277.449 256.284 282.582 256.245 287.228Z" fill="#D8C5A8"/>
<path d="M204.607 211.099L201.785 203.553L207.51 199.733L209.976 206.053L204.607 211.099Z" fill="#EFEDE7" stroke="#313B36" stroke-width="1.5" stroke-linecap="round"/>
<path d="M199.807 209.614C198.058 220.832 197.728 226.07 197.728 226.07" stroke="#313B36" stroke-width="1.5" stroke-linecap="round"/>
<path d="M192.995 256.564L191.681 266.957" stroke="#313B36" stroke-width="1.5" stroke-linecap="round"/>
<path d="M209.841 211.466C208.11 222.948 203.65 258.15 202.798 267.479" stroke="#313B36" stroke-width="1.5" stroke-linecap="round"/>
<path d="M205.735 215.854L205.655 217.532C205.659 217.606 205.655 217.68 205.644 217.754C205.532 218.535 204.647 219.055 203.666 218.915C202.686 218.776 201.982 218.03 202.094 217.249C202.101 217.202 202.11 217.156 202.122 217.111L202.113 217.117L202.542 215.455C202.547 215.433 202.558 215.413 202.575 215.397C202.591 215.381 202.611 215.369 202.634 215.363C202.656 215.356 202.68 215.355 202.704 215.359C202.727 215.364 202.749 215.374 202.768 215.388L203.631 216.068C203.778 216.06 203.926 216.066 204.072 216.087C204.208 216.106 204.343 216.138 204.473 216.182L205.46 215.691C205.489 215.676 205.522 215.669 205.555 215.67C205.588 215.671 205.62 215.681 205.648 215.697C205.676 215.714 205.699 215.737 205.714 215.765C205.729 215.792 205.737 215.823 205.735 215.854Z" fill="#313B36"/>
<path d="M199.173 263.129L199.094 264.807C199.097 264.881 199.093 264.956 199.083 265.029C198.971 265.81 198.086 266.33 197.105 266.19C196.124 266.051 195.42 265.305 195.532 264.524C195.539 264.478 195.549 264.431 195.561 264.386L195.551 264.392L195.98 262.73C195.986 262.708 195.997 262.689 196.013 262.672C196.029 262.656 196.049 262.644 196.072 262.638C196.095 262.631 196.119 262.63 196.142 262.634C196.166 262.639 196.188 262.649 196.206 262.663L197.07 263.343C197.217 263.335 197.364 263.341 197.51 263.362C197.647 263.382 197.781 263.414 197.912 263.458L198.899 262.966C198.928 262.951 198.96 262.944 198.993 262.945C199.026 262.946 199.058 262.956 199.086 262.972C199.115 262.989 199.137 263.013 199.153 263.04C199.168 263.068 199.175 263.098 199.173 263.129Z" fill="#313B36"/>
<path d="M202.984 234.489L202.804 236.16C202.803 236.234 202.795 236.308 202.78 236.38C202.622 237.153 201.707 237.618 200.737 237.418C199.766 237.219 199.108 236.431 199.267 235.658C199.276 235.612 199.289 235.566 199.303 235.521L199.293 235.528L199.821 233.894C199.828 233.873 199.84 233.854 199.857 233.839C199.874 233.824 199.895 233.813 199.918 233.808C199.941 233.803 199.966 233.803 199.989 233.809C200.012 233.815 200.033 233.826 200.051 233.842L200.872 234.574C201.019 234.574 201.166 234.59 201.31 234.62C201.446 234.648 201.578 234.688 201.705 234.74L202.72 234.31C202.749 234.297 202.782 234.292 202.815 234.295C202.848 234.298 202.88 234.309 202.907 234.328C202.934 234.346 202.955 234.371 202.969 234.399C202.982 234.428 202.988 234.459 202.984 234.489Z" fill="#313B36"/>
<path d="M209.032 200.561L207.24 190.255L202.301 193.359L198.15 197.41L196.544 201.475L197.712 203.756L200.891 204.513L206.304 201.995L207.599 201.447L207.471 204.276L208.864 207.652L212.985 209.595L218.849 209.267L227.348 205.361L232.354 200.302L234.048 195.537L231.713 190.975L228.489 190.568L228.268 192.319L223.17 195.232L214.67 199.138L209.032 200.561Z" fill="#EFEDE7"/>
<path d="M207.385 200.588C206.355 204.468 208.67 213.235 222.045 208.208C233.356 203.957 234.648 194.456 235.225 192.122" stroke="#313B36" stroke-width="2"/>
<path d="M207.36 190.163C207.36 190.163 193.259 197.164 197.393 203.147C199.857 206.712 205.453 203.012 207.047 200.842" stroke="#313B36" stroke-width="2"/>
<g clip-path="url(#clip2_1682_8016)">
<g clip-path="url(#clip3_1682_8016)">
<path d="M148.377 213.735L148.377 213.736C148.518 214.052 148.745 214.325 149.033 214.523C149.322 214.721 149.66 214.837 150.012 214.856L150.013 214.856L165.475 215.744C165.66 215.726 165.838 215.666 165.997 215.57L148.377 213.735ZM148.377 213.735L137.018 188.307C136.878 187.799 137.036 187.175 137.495 186.63C137.969 186.068 138.628 185.756 139.211 185.79L151.941 186.52L148.377 213.735Z" fill="#907D73" stroke="#313B36" stroke-width="2"/>
<path d="M150.661 188.584L150.663 188.584C151.372 188.623 152.057 188.863 152.642 189.279C153.226 189.695 153.687 190.272 153.971 190.946L153.972 190.95L164.371 215.352L164.372 215.355C164.388 215.391 164.394 215.431 164.39 215.471C164.387 215.512 164.373 215.55 164.352 215.581C164.331 215.613 164.304 215.636 164.275 215.65C164.248 215.664 164.219 215.671 164.191 215.67L149.57 214.831L149.57 214.831C149.251 214.813 148.942 214.705 148.677 214.518C148.412 214.33 148.2 214.07 148.068 213.763L148.068 213.762L137.524 189.381C137.456 189.213 137.429 189.029 137.448 188.846C137.467 188.661 137.532 188.486 137.636 188.336C137.739 188.186 137.876 188.068 138.033 187.99C138.19 187.913 138.361 187.878 138.532 187.887L150.661 188.584Z" fill="#D8C5A8" stroke="#313B36" stroke-width="2"/>
<path d="M142.091 192.556C142.009 192.439 141.945 192.302 141.904 192.155C141.824 191.854 141.857 191.564 141.959 191.35C142.059 191.141 142.206 191.036 142.34 190.999L142.34 190.999C142.474 190.962 142.655 190.977 142.849 191.105L143.399 190.273L142.849 191.105C143.047 191.236 143.226 191.468 143.314 191.767C143.355 191.914 143.371 192.063 143.361 192.206C143.352 192.35 143.318 192.478 143.268 192.586C143.218 192.692 143.155 192.773 143.089 192.831C143.024 192.889 142.954 192.925 142.884 192.945L142.884 192.945C142.814 192.964 142.735 192.968 142.649 192.953C142.563 192.937 142.466 192.9 142.368 192.833C142.27 192.767 142.174 192.674 142.091 192.556Z" fill="#907D73" stroke="#6A5D54" stroke-width="2"/>
</g>
<path d="M140.31 197.37L140.31 197.37L140.312 197.373C140.984 198.543 141.551 199.756 142.132 201.003L142.155 201.053C142.672 202.163 143.201 203.3 143.815 204.412C143.394 205.368 143.067 206.366 142.837 207.391C141.318 203.758 139.894 200.153 138.899 196.317L138.898 196.315C138.766 195.811 138.703 195.475 138.765 195.191L138.766 195.184L138.768 195.177C138.781 195.108 138.809 195.051 138.844 195.006C138.845 195.006 138.845 195.006 138.845 195.006C138.861 194.993 138.886 194.974 138.921 194.949C138.948 194.93 138.978 194.909 139.011 194.887C139.163 195.176 139.314 195.473 139.468 195.775L139.478 195.796C139.744 196.319 140.019 196.86 140.31 197.37Z" fill="#EFEDE7" stroke="#313B36" stroke-width="1.5"/>
<path d="M145.958 207.687C149.149 204.81 153.165 203.066 157.415 202.709C157.76 202.682 158.089 202.693 158.343 202.762C158.589 202.829 158.685 202.924 158.729 203.017L158.73 203.017C158.796 203.154 158.75 203.507 158.433 203.76L158.433 203.76L158.429 203.763C158.169 203.974 157.788 204.132 157.293 204.272C157.059 204.339 156.819 204.396 156.568 204.456L156.544 204.462C156.291 204.523 156.024 204.587 155.774 204.662L155.773 204.663C152.404 205.679 149.294 207.229 147.001 210.105L147.932 211.239C151.034 209.634 154.438 208.722 157.92 208.564C158.195 208.552 158.439 208.566 158.62 208.618C158.793 208.667 158.826 208.724 158.837 208.746L158.837 208.746L158.839 208.75C158.846 208.764 158.864 208.814 158.826 208.917C158.787 209.024 158.706 209.131 158.613 209.199C158.352 209.388 158.005 209.457 157.44 209.567L157.439 209.568C154.189 210.212 151.401 211.392 149.725 212.636C149.5 212.803 149.089 213.175 149.175 213.741C149.216 214.012 149.36 214.209 149.493 214.336C149.623 214.462 149.773 214.551 149.907 214.617C150.408 214.864 151.207 215.019 152.019 215.137C152.866 215.259 153.851 215.355 154.795 215.441C154.955 215.456 155.112 215.47 155.268 215.485C156.048 215.555 156.78 215.622 157.386 215.696C159.499 215.952 161.275 216.054 162.525 216.092C162.976 216.106 163.359 216.111 163.664 216.112C163.63 216.604 163.591 217.342 163.562 218.421C163.533 219.239 163.576 220.059 163.69 220.871L163.69 220.871L163.692 220.88C164.284 224.729 164.922 228.57 165.607 232.406L165.607 232.406C166.875 239.479 168.308 246.519 169.908 253.528C169.612 253.542 169.314 253.514 169.023 253.444C168.128 253.22 167.389 252.622 166.739 251.764C166.084 250.9 165.563 249.833 165.085 248.765L157.955 232.807L157.955 232.807C156.78 230.177 155.605 227.548 154.431 224.92C154.359 224.757 154.288 224.594 154.217 224.43C153.517 222.821 152.823 221.226 151.542 219.921C151.145 219.513 150.706 219.149 150.233 218.835C146.642 216.395 143.903 212.843 142.424 208.701C142.357 208.512 142.289 208.324 142.222 208.137L142.222 208.136C142.208 208.098 142.195 208.059 142.181 208.021L142.202 207.883C142.471 206.087 143.071 204.364 143.968 202.803L143.969 202.801C145.825 199.548 148.864 197.012 152.377 195.972C152.705 195.876 153.01 195.813 153.276 195.811C153.536 195.81 153.706 195.866 153.826 195.96L153.826 195.961C154.035 196.124 154.1 196.247 154.122 196.313C154.141 196.373 154.147 196.449 154.105 196.571C154.003 196.863 153.683 197.252 153.135 197.707C152.609 198.142 151.974 198.557 151.382 198.928C151.267 199.001 151.151 199.073 151.036 199.144C150.598 199.415 150.18 199.674 149.938 199.869C147.654 201.704 145.872 204.106 144.76 206.848L145.958 207.687Z" fill="#EFEDE7" stroke="#313B36" stroke-width="1.5"/>
<path d="M166.845 221.952C168.46 226.049 168.862 228.708 168.862 228.708L161.914 229.935L150.825 232.949C150.825 232.949 150.118 229.515 149.347 227.559C148.576 225.602 148.879 224.125 150.086 223.695C156.319 221.476 166.361 220.723 166.845 221.952Z" fill="#907D73"/>
<path d="M163.331 229.431C163.331 229.431 168.646 228.162 169.468 229.427L171.111 231.956L180.515 236.965L189.592 242.941C189.592 242.941 186.615 264.739 181.095 267.949C173.543 272.341 156.648 276.094 156.648 276.094C156.648 276.094 152.885 267.718 152.492 260.869C152.316 257.791 151.947 248.643 151.947 248.643L150.349 237.478C150.349 237.478 149.953 235.09 150.091 233.545C150.151 232.877 151.196 232.366 151.744 231.999C153.022 231.144 156.891 231.125 156.891 231.125L163.331 229.431Z" fill="#D8C5A8"/>
<path d="M166.203 229.343C166.203 229.343 159.471 231.116 151.742 231.999" stroke="#313B36" stroke-width="2" stroke-miterlimit="10" stroke-linecap="round"/>
<path d="M179.098 256.8C179.098 256.8 177.032 249.449 175.095 244.533C173.985 241.717 171.893 232.812 168.861 228.708" stroke="#313B36" stroke-width="2" stroke-linecap="round"/>
<path d="M158.691 276.572C158.691 276.572 153.173 276.774 152.121 251.29C151.742 242.092 148.949 235.646 150.304 233.564" stroke="#313B36" stroke-width="2" stroke-linecap="round"/>
<path d="M186.862 225.867C186.949 241.333 185.875 257.662 186.862 261.486" stroke="#313B36" stroke-width="2" stroke-linecap="round"/>
</g>
<g clip-path="url(#clip4_1682_8016)">
<path d="M208.045 262.578C208.013 262.578 207.961 262.575 207.882 262.562C207.782 262.545 207.672 262.517 207.541 262.481C207.522 262.475 207.501 262.469 207.479 262.463C207.372 262.434 207.245 262.398 207.131 262.374L197.929 260.398C197.621 260.331 197.322 260.272 197.03 260.213C196.468 260.101 195.929 259.993 195.383 259.851C195.341 259.84 195.31 259.83 195.289 259.822C195.289 259.813 195.288 259.802 195.288 259.79C195.286 259.715 195.293 259.614 195.311 259.464C195.36 259.049 195.398 258.637 195.435 258.238C195.455 258.022 195.475 257.81 195.496 257.602L195.496 257.6C195.617 256.367 195.739 255.132 195.862 253.898L195.862 253.897C196.109 251.404 196.356 248.909 196.604 246.413L196.604 246.413L198.018 232.133C201.517 232.746 205.014 233.361 208.511 233.976L208.511 233.976L214.474 235.022L214.474 235.022L217.445 235.545C217.451 235.546 217.457 235.547 217.464 235.548C216.859 237.298 216.255 239.047 215.651 240.796L210.161 256.692C209.773 257.815 209.385 258.936 208.999 260.055C208.91 260.311 208.837 260.591 208.77 260.849L208.763 260.877C208.696 261.134 208.633 261.376 208.558 261.609C208.407 262.082 208.243 262.396 208.045 262.578Z" fill="#907D73" stroke="#313B36" stroke-width="1.5"/>
<path d="M198.161 230.02L198.882 230.175L199.049 229.457L199.049 229.457L199.049 229.456L199.049 229.456L199.05 229.454L199.052 229.445L199.06 229.411L199.089 229.285C199.114 229.179 199.148 229.034 199.185 228.878C199.26 228.562 199.345 228.213 199.394 228.03C199.408 227.982 199.421 227.943 199.434 227.912C199.905 227.83 200.413 227.89 201.026 227.961C201.068 227.966 201.112 227.971 201.155 227.976L201.156 227.976C201.744 228.043 202.333 228.136 202.934 228.235L202.945 228.237C202.952 228.297 202.957 228.388 202.957 228.523C202.956 228.554 202.956 228.591 202.955 228.632C202.952 228.81 202.947 229.067 202.977 229.271C202.997 229.408 203.041 229.609 203.165 229.799C203.308 230.016 203.53 230.179 203.812 230.235L203.819 230.237L203.846 230.242L203.952 230.264L204.356 230.346L205.799 230.641C206.995 230.885 208.593 231.21 210.203 231.538C213.407 232.191 216.69 232.858 216.88 232.891C217.395 232.98 217.915 233.074 218.34 233.19C218.553 233.249 218.719 233.306 218.837 233.361C218.899 233.39 218.933 233.412 218.949 233.422C219.041 233.573 219.102 233.793 219.086 234.054C219.06 234.429 218.997 234.804 218.897 235.17L218.891 235.195L218.886 235.22C218.83 235.498 218.744 235.767 218.631 236.021C218.587 236.107 218.55 236.149 218.529 236.168C218.509 236.186 218.493 236.194 218.476 236.2C218.427 236.216 218.325 236.226 218.111 236.185L218.111 236.185L218.104 236.184C217.985 236.162 217.862 236.131 217.71 236.092L217.706 236.091C217.567 236.056 217.396 236.012 217.226 235.984C217.226 235.984 217.226 235.984 217.226 235.984L214.242 235.487L214.242 235.487L208.268 234.496C208.268 234.496 208.268 234.496 208.267 234.496C204.497 233.868 200.727 233.242 196.955 232.618L196.342 232.516L196.276 232.502C196.263 232.385 196.264 232.263 196.279 232.138L196.283 232.108L196.284 232.079C196.303 231.632 196.369 231.185 196.481 230.747C196.573 230.403 196.749 230.114 196.961 229.919C197.082 229.843 197.187 229.831 197.262 229.844L197.285 229.847L197.308 229.85C197.43 229.862 197.55 229.883 197.669 229.914L197.683 229.918L197.698 229.921L198.161 230.02Z" fill="#EFEDE7" stroke="#313B36" stroke-width="1.5"/>
</g>
<g clip-path="url(#clip5_1682_8016)">
<path d="M194.184 245.777L194.585 245.144L194.585 245.144L194.585 245.144L194.585 245.143L194.584 245.143L194.58 245.14L194.565 245.131L194.513 245.098L194.347 244.993C194.222 244.915 194.075 244.822 194.005 244.78C193.889 244.709 193.787 244.616 193.706 244.505L193.702 244.499L193.697 244.493C193.61 244.378 193.548 244.245 193.516 244.103C193.485 243.965 193.483 243.821 193.51 243.681C193.546 243.536 193.616 243.402 193.714 243.29L193.718 243.285L193.718 243.285C193.937 243.032 194.324 242.831 194.789 242.744C195.493 242.615 196.242 242.739 197.116 242.908L197.117 242.908C198.522 243.179 199.919 243.483 201.309 243.822L201.312 243.822C202.008 243.989 202.701 244.165 203.391 244.348C203.391 244.348 203.392 244.348 203.393 244.348L204.408 244.625C204.408 244.625 204.409 244.625 204.409 244.625C204.429 244.631 204.443 244.635 204.465 244.643C204.487 244.65 204.517 244.66 204.571 244.677C204.65 244.703 204.773 244.74 204.911 244.758C205.046 244.776 205.25 244.785 205.469 244.703C205.711 244.613 205.903 244.439 206.023 244.209L205.358 243.862L206.023 244.209C206.209 243.852 206.121 243.508 206.024 243.304C205.931 243.11 205.794 242.956 205.693 242.854C205.536 242.696 205.268 242.486 205.207 242.437C205.199 242.431 205.194 242.428 205.194 242.427L205.194 242.427C204.861 242.14 204.51 241.876 204.143 241.636C203.43 241.168 202.669 240.777 201.875 240.469C200.676 240 199.397 239.687 198.177 239.388C197.689 239.268 197.21 239.151 196.75 239.028L196.75 239.027C196.236 238.889 195.852 238.767 195.557 238.55C195.271 238.34 195.149 238.065 195.162 237.877C195.179 237.682 195.372 237.409 195.736 237.267C196.104 237.123 196.539 237.115 197.11 237.143C202.501 237.457 207.576 239.79 211.334 243.684L211.541 243.902C212.231 244.644 212.855 245.401 213.495 246.177C213.899 246.667 214.31 247.165 214.747 247.672C214.847 247.79 214.949 247.906 215.049 248.018C215.834 248.924 216.702 249.753 217.643 250.494L217.651 250.501L217.659 250.507C218.341 251.015 219.091 251.422 219.885 251.716C219.881 251.762 219.877 251.808 219.873 251.853C219.012 255.196 217.989 258.495 216.809 261.739C216.235 261.694 215.662 261.66 215.099 261.626L215.097 261.626C214.341 261.581 213.601 261.537 212.871 261.469L212.87 261.469C211.171 261.311 209.588 261.025 208.149 260.329L207.998 260.254C207.997 260.254 207.996 260.253 207.995 260.253C207.203 259.85 206.474 259.326 205.711 258.753C205.612 258.679 205.513 258.604 205.413 258.529C204.752 258.03 204.055 257.504 203.308 257.054L203.307 257.054C201.496 255.963 199.353 255.275 197.424 254.731L197.423 254.731C196.492 254.469 195.549 254.249 194.597 254.071L194.595 254.07C194.321 254.02 194.097 253.975 193.908 253.905C193.724 253.837 193.632 253.767 193.583 253.706L193.573 253.692L193.567 253.686L193.558 253.674L193.552 253.665C193.493 253.569 193.47 253.358 193.603 253.14C193.625 253.103 193.651 253.069 193.681 253.037L193.688 253.029L193.688 253.029C193.971 252.717 194.336 252.667 195.081 252.726C196.008 252.801 196.931 252.911 197.851 253.056C197.852 253.056 197.853 253.056 197.853 253.056L198.044 253.087L198.045 253.087C198.836 253.215 199.622 253.368 200.405 253.547L200.406 253.547C200.796 253.636 201.185 253.731 201.573 253.833C201.595 253.839 201.615 253.845 201.652 253.857C201.668 253.862 201.688 253.868 201.712 253.876C201.777 253.897 201.876 253.928 201.987 253.948C202.213 253.99 202.591 254.006 202.936 253.734C203.117 253.591 203.284 253.379 203.338 253.092C203.39 252.813 203.314 252.571 203.227 252.404C203.071 252.099 202.792 251.867 202.593 251.719C202.256 251.468 201.786 251.213 201.603 251.114C201.566 251.094 201.541 251.08 201.531 251.075L201.525 251.071L201.525 251.071C200.854 250.677 200.156 250.329 199.437 250.032C199.437 250.032 199.437 250.032 199.436 250.032L194.184 245.777ZM194.184 245.777L194.585 245.144L196.73 246.502L194.194 246.527L194.193 246.527L194.193 246.527L194.192 246.527L194.182 246.528C194.171 246.528 194.153 246.529 194.128 246.53C194.077 246.534 194.003 246.54 193.915 246.552C193.751 246.575 193.567 246.615 193.405 246.679C193.35 246.721 193.302 246.773 193.265 246.833C193.221 246.902 193.193 246.98 193.181 247.062C193.175 247.209 193.241 247.391 193.501 247.628L194.184 245.777Z" fill="#EFEDE7" stroke="#313B36" stroke-width="1.5"/>
<path d="M194.613 245.444C197.261 245.933 202.89 247.324 204.23 248.979" stroke="#313B36" stroke-width="1.5" stroke-linecap="round"/>
</g>
<path d="M235.635 229.861C236.998 237.45 237.874 258.433 237.874 258.433C237.874 258.433 231.12 255.801 227.818 253.891C225.64 252.632 221.171 263.75 219.802 267.262C219.367 268.376 219.183 270.444 219.183 270.444C219.183 270.444 253.698 299.483 265.424 286.323C277.149 273.163 279.753 270.735 272.25 249.333C265.424 229.861 263.877 213.937 257.303 208C250.728 202.063 249.08 200.32 244.224 198.933C244.505 202.838 233.712 219.164 235.635 229.861Z" fill="#D8C5A8"/>
<path d="M265.577 227.467C266.796 234.073 280.014 265.072 275.453 267.2C269.711 269.879 267.089 282.596 263.179 285.972" stroke="#313B36" stroke-width="2" stroke-linecap="round"/>
<path d="M221.361 250.022C222.859 251.149 228.082 254.459 228.082 254.459L224.874 257.228L219.586 268.33C219.586 268.33 217.633 268.471 215.921 266.707C214.209 264.943 212.76 264.373 212.498 263.167C212.253 262.041 213.379 260.907 214.628 258.245C216.63 253.978 219.579 248.681 221.361 250.022Z" fill="#907D73"/>
<path d="M227.434 254.47C227.434 254.47 221.418 261.664 220.164 266.737" stroke="#313B36" stroke-width="2" stroke-miterlimit="10" stroke-linecap="round"/>
<path d="M240.221 237.867C242.089 246.4 245.292 258.667 245.292 258.667" stroke="#313B36" stroke-width="2" stroke-linecap="round"/>
<path d="M248.305 264.195C248.305 264.195 246.973 262.323 239.183 259.278C230.655 255.945 222.706 251.938 220.548 249.773" stroke="#313B36" stroke-width="2" stroke-linecap="round"/>
<path d="M250.516 290.032C248.953 289.851 237.019 287.582 230.915 281.864C224.234 275.604 218.492 271.42 219.546 268.718" stroke="#313B36" stroke-width="2" stroke-linecap="round"/>
<path d="M205.498 193.76L205.499 193.76L205.499 193.759L205.5 193.759L205.5 193.759L205.865 193.36L205.728 192.834L201.268 175.672L224.091 173.587L228.652 190.566C228.543 190.655 228.418 190.756 228.277 190.87C227.721 191.317 226.919 191.948 225.937 192.683C223.971 194.155 221.298 196.03 218.451 197.665C215.589 199.308 212.623 200.666 210.057 201.164C207.482 201.663 205.593 201.257 204.45 199.785C203.482 198.539 203.64 197.144 204.169 195.89C204.43 195.269 204.767 194.73 205.042 194.342C205.179 194.15 205.298 193.999 205.381 193.898C205.422 193.848 205.454 193.811 205.475 193.787L205.496 193.763L205.498 193.76Z" fill="#EFEDE7" stroke="#313B36" stroke-width="2"/>
<path d="M183.285 141.589C183.285 141.589 178.107 150.487 180.099 154.402C181.946 160.09 185.179 166.684 185.744 170.869C186.873 179.238 194.574 187.445 207.679 189.816C210.62 190.348 220.777 186.334 227.496 178.648C230.844 174.222 232.468 167.87 232.468 167.87C232.468 167.87 242.379 167.455 242.591 158.77C242.784 153.871 240.709 147.319 232.068 149.157C232.068 149.157 216.18 122.121 200.758 127.306C191.791 130.32 183.285 141.589 183.285 141.589Z" fill="#EFEDE7" stroke="#313B36" stroke-width="1.8" stroke-miterlimit="10"/>
<path d="M234.493 155.62C235.111 156.659 235.438 157.857 235.439 159.091C235.441 160.326 235.117 161.552 234.502 162.643" stroke="#313B36" stroke-width="1.8" stroke-miterlimit="10" stroke-linecap="round"/>
<path d="M175.92 167.121C175.92 167.121 168.656 141.774 184.64 122.193C190.524 114.984 200.258 110.97 212.341 114.045C228.241 111.079 235.116 121.383 240.693 133.685C244.114 141.233 246.474 150.398 247.964 158.061C248.903 162.887 250.471 171.821 252.591 177.076C258.49 191.695 266.137 201.071 270.839 210.663C275.541 220.256 265.235 227.325 265.235 227.325C263.9 224.389 259.828 206.285 249.561 201.333C241.821 197.6 229.593 195.595 227.796 188.629C225.999 181.664 226.585 180.154 226.585 180.154C226.585 180.154 231.871 174.354 233.202 172.74C234.534 171.127 233.318 168.719 234.151 167.583C235.399 166.83 237.409 166.101 238.661 163.824C240.43 160.606 240.26 158.022 239.916 156.246C239.454 153.866 238.765 151.855 237.566 151.244C235.294 150.084 233.133 150.352 231.895 150.929C230.656 151.506 231.14 153.291 231.14 153.291C231.14 153.291 225.433 154.505 218.49 146.647C212.539 139.912 209.33 134.332 209.33 134.332C203.943 135.783 196.752 138.712 193.43 143.463C189.493 150.112 188.703 159.431 185.198 164.598C178.55 174.399 175.92 167.121 175.92 167.121Z" fill="#907D73"/>
<path d="M175.634 165.417C174.193 158.837 173.682 148.084 176.455 137.356C178.535 129.311 181.109 124.255 190.052 117.458C198.217 111.253 208.304 113.124 208.304 113.124" stroke="#313B36" stroke-width="2" stroke-linecap="round"/>
<path d="M177.353 174.687C178.809 184.592 175.941 198.346 172.888 212.989" stroke="#313B36" stroke-width="2" stroke-linecap="round"/>
<path d="M230.45 152.77C231.015 149.843 236.684 149.513 238.748 152.836C241.14 156.688 241.656 165.453 233.258 167.618" stroke="#313B36" stroke-width="1.8" stroke-linecap="round"/>
<path d="M210.216 135.534C211.422 138.436 223.203 154.747 230.821 153.004" stroke="#313B36" stroke-width="2" stroke-linecap="round"/>
<path d="M219.772 135.61C219.722 141.88 228.394 150.985 231.895 150.934" stroke="#313B36" stroke-width="2" stroke-linecap="round"/>
<path d="M240.873 179.869C241.47 183.558 245.593 201.785 261.995 210.123" stroke="#313B36" stroke-width="2" stroke-linecap="round"/>
<path d="M195.005 133.024C183.603 139.802 185.323 148.773 181.386 155.61" stroke="#313B36" stroke-width="2" stroke-linecap="round"/>
<path d="M207.533 134.914C202.474 136.183 194.383 140.154 191.403 147.875C187.874 157.021 186.053 169.681 176.179 171.991" stroke="#313B36" stroke-width="2" stroke-linecap="round"/>
<path d="M187.887 185.852C187.887 185.852 186.352 191.673 187.205 197.055" stroke="#313B36" stroke-width="2" stroke-linecap="round"/>
<path d="M225.979 181.344C226.363 184.841 228.477 191.2 233.247 194.714C237.809 198.074 246.41 199.586 246.41 199.586" stroke="#313B36" stroke-width="2" stroke-linecap="round"/>
<path d="M265.766 227.392C283.097 213.719 260.268 199.402 254.052 181.268C247.464 162.048 246.09 148.069 240.399 133.086C238.352 127.695 234.448 121.383 230.485 118.031C226.204 114.41 220.561 111.689 211.88 113.949" stroke="#313B36" stroke-width="2" stroke-linecap="round"/>
<path d="M194.317 166.217C195.75 166.155 196.819 164.356 196.703 162.2C196.587 160.043 195.332 158.346 193.899 158.408C192.466 158.471 191.397 160.269 191.513 162.426C191.629 164.582 192.884 166.28 194.317 166.217Z" fill="#313B36"/>
<path fill-rule="evenodd" clip-rule="evenodd" d="M192.045 156.1C190.955 156.502 190.318 157.308 190.196 157.785C190.092 158.192 189.632 158.437 189.17 158.331C188.707 158.225 188.417 157.809 188.521 157.401C188.776 156.403 189.821 155.251 191.341 154.689C192.935 154.1 195.013 154.166 197.283 155.553C197.68 155.795 197.791 156.27 197.531 156.615C197.271 156.959 196.739 157.042 196.342 156.8C194.522 155.688 193.062 155.724 192.045 156.1Z" fill="#313B36"/>
<path fill-rule="evenodd" clip-rule="evenodd" d="M215.582 153.755C214.468 153.89 213.645 154.512 213.389 154.939C213.171 155.304 212.679 155.432 212.291 155.226C211.902 155.019 211.764 154.555 211.982 154.191C212.517 153.297 213.817 152.437 215.37 152.249C216.998 152.052 218.868 152.59 220.512 154.432C220.8 154.753 220.756 155.232 220.415 155.501C220.075 155.77 219.565 155.727 219.278 155.406C217.96 153.929 216.621 153.63 215.582 153.755Z" fill="#313B36"/>
<path d="M215.793 164.511C217.227 164.565 218.459 162.86 218.543 160.702C218.628 158.544 217.534 156.751 216.099 156.696C214.665 156.642 213.433 158.347 213.349 160.505C213.264 162.663 214.358 164.456 215.793 164.511Z" fill="#313B36"/>
<path d="M204.514 168.324L206.456 169.394L206.33 166.241" fill="#313B36"/>
<path d="M210.228 177.217C210.361 177.76 210.19 178.349 209.744 178.887C209.532 179.131 209.263 179.357 208.947 179.555C208.591 179.78 208.159 179.944 207.702 180.028C207.245 180.112 206.782 180.113 206.37 180.029C206.007 179.955 205.676 179.84 205.391 179.688C204.78 179.346 204.41 178.856 204.341 178.3C204.247 177.88 204.323 177.433 204.562 176.999C204.634 176.873 204.723 176.749 204.829 176.629C205.04 176.386 205.309 176.161 205.622 175.962C205.976 175.736 206.408 175.571 206.865 175.487C207.322 175.403 207.784 175.404 208.195 175.489C208.56 175.561 208.893 175.676 209.178 175.829C209.317 175.903 209.443 175.987 209.554 176.08C209.934 176.4 210.165 176.79 210.228 177.217Z" fill="#C28145"/>
<path d="M166.166 158.775L95.0561 208.932L124.053 253.923L195.396 256.063L166.166 158.775Z" fill="url(#paint0_linear_1682_8016)"/>
<path d="M94.2005 209.122L94.1967 209.124C93.9428 209.259 93.7198 209.446 93.5424 209.673C93.3649 209.901 93.237 210.164 93.1673 210.445C93.0976 210.726 93.0878 211.018 93.1384 211.303C93.1888 211.588 93.2982 211.858 93.4593 212.096C93.4597 212.097 93.4602 212.098 93.4607 212.098L125.205 258.472L181.197 260.316C181.468 259.756 181.426 258.911 180.974 257.949C180.715 257.401 180.36 256.912 179.986 256.566C179.604 256.212 179.286 256.08 179.094 256.063L128.666 253.72L128.18 253.697L127.898 253.302L96.8118 209.746L96.8086 209.742C96.5226 209.336 96.0997 209.05 95.6201 208.937C95.1405 208.823 94.6358 208.889 94.2005 209.122Z" fill="#EFEDE7" stroke="#313B36" stroke-width="2"/>
<path d="M290.191 241.873C294.037 239.772 296.994 237.426 298.701 234.823C298.71 235.041 298.719 235.266 298.728 235.497C298.871 239.199 298.924 244.495 298.559 250.858C297.83 263.59 295.435 280.561 288.785 297.564C282.136 314.562 271.244 331.57 253.528 344.432C235.817 357.29 211.211 366.057 177.039 366.454C129.883 366.997 99.4209 349.461 80.5125 323.665C62.4646 299.044 54.8656 266.792 53.4974 235.267C55.5582 237.966 58.9142 240.453 63.221 242.713C69.8929 246.215 79.1312 249.322 90.2926 251.882C112.626 257.004 142.838 259.972 176.054 259.427L176.054 259.427C210.24 258.861 241.157 255.829 263.545 250.832C274.731 248.336 283.849 245.336 290.191 241.873Z" fill="#E7E1D2" stroke="#313B36" stroke-width="2"/>
<path opacity="0.4" d="M71.3054 312.074C59.6082 290.674 55.0227 260.342 53.0918 234.825L74.5029 245.6C76.2207 252.816 76.4828 283.797 96.2198 313.967C120.891 351.681 168.32 367.903 168.32 367.903C152.725 367.54 134.122 362.835 128.452 360.895C121.216 358.42 89.5 345.363 71.3054 312.074Z" fill="black" fill-opacity="0.4"/>
<path d="M3.9626 220.8L89.6465 221.76M3.9626 220.8C2.95084 220.791 1.97668 221.251 1.25112 222.081C0.525561 222.912 0.107003 224.045 0.0860583 225.236M3.9626 220.8L3.95573 221.55L0.836005 225.246M3.9626 220.8L3.9542 221.55L3.95502 221.55C3.18358 221.543 2.41184 221.893 1.81585 222.575C1.21711 223.26 0.854861 224.218 0.836005 225.246M89.6465 221.76L2.84324 240.46M89.6465 221.76C89.9595 221.761 90.271 221.809 90.5735 221.903L89.6465 221.76ZM0.0860583 225.236L0.000203132 236.049C-0.00855342 237.051 0.266019 238.029 0.780698 238.827C1.29538 239.626 2.02094 240.2 2.84324 240.46M0.0860583 225.236L0.836035 225.242L0.836005 225.246M0.0860583 225.236L0.835942 225.249C0.835963 225.248 0.835984 225.247 0.836005 225.246M2.84324 240.46L3.06921 239.745C3.06753 239.744 3.06585 239.744 3.06418 239.743C3.06246 239.743 3.06074 239.742 3.05902 239.742L2.84324 240.46ZM3.79918 239.858L3.79685 239.858L3.78817 240.608L3.80148 239.858C3.80071 239.858 3.79995 239.858 3.79918 239.858ZM89.4731 240.85L89.465 241.6L89.4736 240.85C89.4735 240.85 89.4733 240.85 89.4731 240.85Z" fill="#EFEDE7" stroke="#313B36" stroke-width="1.5"/>
<path d="M6.2288 235.461V235.461L6.22518 235.461C5.98874 235.46 5.75574 235.415 5.53996 235.329C5.32421 235.243 5.1313 235.118 4.97131 234.964C4.81138 234.81 4.68759 234.63 4.6049 234.436C4.52226 234.241 4.48174 234.034 4.48451 233.827L4.48454 233.825L4.5421 227.951L4.5421 227.95C4.54403 227.744 4.58913 227.538 4.67609 227.345C4.7631 227.152 4.89088 226.974 5.05419 226.823C5.21757 226.673 5.41314 226.552 5.63062 226.47C5.84812 226.388 6.08186 226.347 6.31803 226.35L6.32228 226.35L71.6714 226.924L71.6718 226.924C71.9072 226.926 72.1389 226.972 72.3533 227.059C72.5676 227.146 72.759 227.271 72.9174 227.425C73.0758 227.579 73.198 227.758 73.2793 227.952C73.3604 228.146 73.3996 228.352 73.3957 228.558L73.3956 228.566L73.3446 234.444C73.3446 234.445 73.3445 234.446 73.3445 234.447C73.3368 234.862 73.1562 235.268 72.8272 235.572C72.4962 235.877 72.0428 236.054 71.564 236.05C71.5638 236.05 71.5636 236.05 71.5634 236.05L6.2288 235.461Z" fill="#D8C5A8" stroke="#313B36" stroke-width="1.5"/>
<path d="M78.9234 234.23C78.9744 234.291 79.0372 234.341 79.1081 234.378C79.1789 234.415 79.2564 234.437 79.3359 234.443C79.4155 234.449 79.4954 234.44 79.5711 234.414C79.6469 234.389 79.7168 234.349 79.7767 234.297L82.0312 232.366C82.5786 232.883 83.3025 233.172 84.0555 233.174C84.6558 233.18 85.2443 233.008 85.7467 232.679C86.249 232.351 86.6425 231.88 86.8773 231.328C87.1122 230.776 87.1778 230.166 87.0659 229.576C86.954 228.987 86.6696 228.443 86.2487 228.015C85.8278 227.587 85.2894 227.294 84.7016 227.172C84.1138 227.05 83.503 227.106 82.9467 227.331C82.3903 227.557 81.9134 227.942 81.5762 228.439C81.2391 228.935 81.057 229.521 81.0529 230.121C81.0504 230.558 81.14 230.99 81.3159 231.389L78.9881 233.385C78.9282 233.436 78.8791 233.499 78.8434 233.569C78.8077 233.639 78.7863 233.715 78.7803 233.794C78.7742 233.872 78.7838 233.951 78.8084 234.026C78.8329 234.101 78.872 234.17 78.9234 234.23ZM82.175 230.128C82.1778 229.75 82.2928 229.381 82.5054 229.068C82.718 228.756 83.0187 228.513 83.3693 228.371C83.72 228.23 84.1048 228.195 84.4751 228.272C84.8453 228.349 85.1844 228.535 85.4492 228.805C85.7141 229.075 85.8928 229.417 85.9628 229.789C86.0328 230.16 85.9909 230.544 85.8424 230.892C85.6939 231.24 85.4455 231.536 85.1287 231.742C84.8119 231.949 84.4409 232.057 84.0627 232.052C83.5576 232.046 83.0754 231.84 82.7216 231.48C82.3678 231.119 82.1713 230.633 82.175 230.128Z" fill="#313B36"/>
<g clip-path="url(#clip6_1682_8016)">
<path d="M74.3584 162.588L74.3879 162.574L114.752 143.163L114.769 143.155L114.788 143.147C114.84 143.124 114.884 143.086 114.913 143.038L115.764 143.564L114.913 143.038C114.943 142.99 114.957 142.934 114.954 142.877C114.951 142.821 114.931 142.767 114.896 142.722C114.866 142.683 114.826 142.654 114.781 142.635L112.097 142.019L112.096 142.018L109.897 141.515L109.895 141.514L86.8568 136.18C86.7509 136.158 86.6409 136.172 86.5435 136.219C86.4459 136.266 86.3666 136.343 86.3175 136.44L76.0984 157.751L76.0984 157.751L75.1132 159.806L75.1131 159.806L73.9324 162.269C73.9146 162.319 73.9112 162.372 73.9228 162.424C73.9355 162.48 73.9655 162.531 74.0086 162.57L73.3432 163.316L74.0087 162.57C74.0518 162.608 74.106 162.632 74.1637 162.639C74.2213 162.645 74.2794 162.633 74.3299 162.604L74.3584 162.588Z" fill="#E7E1D2" stroke="#313B36" stroke-width="2"/>
<path d="M73.0984 163.102L115.917 142.519L129.132 169.989L86.3136 190.573L73.0984 163.102Z" fill="#EFEDE7"/>
<path d="M107.14 133.983L72.1041 150.825L88.0166 183.902C88.1952 184.274 88.5142 184.559 88.9033 184.695C89.2924 184.832 89.7198 184.808 90.0914 184.629L122.325 169.134C122.696 168.956 122.982 168.637 123.118 168.248C123.255 167.859 123.231 167.432 123.052 167.06L107.14 133.983Z" fill="#EFEDE7" stroke="#313B36" stroke-width="2"/>
<path d="M78.6407 152.726L105.659 139.737L106.675 141.849L79.6566 154.837L78.6407 152.726Z" fill="#E3E1DB"/>
<path d="M90.0485 152.085L107.553 143.67L108.569 145.782L91.0644 154.197L90.0485 152.085Z" fill="#E3E1DB"/>
<path d="M82.7413 161.262L109.76 148.274L110.776 150.386L83.7572 163.374L82.7413 161.262Z" fill="#E3E1DB"/>
<path d="M94.1549 160.625L111.659 152.21L112.675 154.322L95.1709 162.737L94.1549 160.625Z" fill="#E3E1DB"/>
<path d="M102.502 167.986L102.154 168.708L101.374 168.525L76.3393 162.665L74.4366 163.578L87.2564 190.224L128.276 170.505L115.455 143.858L113.764 144.668L102.502 167.986Z" fill="#C28145" stroke="#313B36" stroke-width="2"/>
<g style="mix-blend-mode:soft-light" opacity="0.5">
<path d="M76.2244 161.611L100.762 165.599L99.4328 167.015L76.2244 161.611Z" fill="#313B36"/>
</g>
<g style="mix-blend-mode:soft-light" opacity="0.5">
<path d="M112.884 143.984L100.68 165.633L102.619 165.483L112.884 143.984Z" fill="#313B36"/>
</g>
<path d="M88.0948 191.153L88.1114 191.144L88.1283 191.136L128.492 171.732L128.52 171.718L128.548 171.707C128.602 171.685 128.647 171.647 128.678 171.599C128.708 171.551 128.724 171.494 128.721 171.437C128.718 171.38 128.698 171.325 128.663 171.28C128.632 171.24 128.59 171.21 128.544 171.192L100.634 164.747C100.528 164.725 100.419 164.739 100.321 164.785C100.224 164.832 100.145 164.91 100.097 165.006C100.096 165.007 100.096 165.008 100.095 165.009L87.6994 190.829C87.6855 190.875 87.684 190.925 87.6952 190.972C87.7083 191.027 87.7379 191.077 87.7801 191.115C87.8223 191.152 87.8751 191.176 87.9313 191.183C87.9876 191.19 88.0447 191.18 88.0948 191.153Z" fill="#C28145" stroke="#313B36" stroke-width="2"/>
<ellipse cx="11.282" cy="11.2818" rx="11.282" ry="11.2818" transform="matrix(0.873947 -0.485973 0.486166 0.873894 45.2021 145.587)" fill="#313B36"/>
<path d="M66.0003 152.506L63.5563 153.865L59.5576 151.202L59.4384 151.268L61.5146 155L59.2494 156.26L54.7881 148.241L57.3066 146.84L61.2805 149.669L61.3998 149.603L59.2589 145.755L61.539 144.487L66.0003 152.506Z" fill="#EFEDE7"/>
</g>
<path d="M262.885 132.916L262.132 133.933C261.707 134.506 261.011 135.31 260.04 135.975C261.076 136.082 262.212 136.112 263.317 135.975C265.05 135.761 266.59 135.152 267.611 133.908L267.888 133.57L268.324 133.544C271.743 133.338 274.931 131.953 277.249 129.692C279.564 127.434 280.836 124.476 280.837 121.421L262.885 132.916ZM262.885 132.916L261.721 132.418C259.539 131.485 257.682 130.038 256.338 128.238C254.995 126.44 254.212 124.354 254.06 122.199C253.908 120.044 254.391 117.887 255.467 115.951C256.544 114.015 258.178 112.366 260.207 111.187C262.236 110.008 264.582 109.344 266.999 109.273C269.416 109.202 271.806 109.725 273.917 110.784C276.027 111.842 277.776 113.393 278.989 115.265C280.201 117.136 280.836 119.261 280.837 121.42L262.885 132.916Z" fill="#C28145" stroke="#313B36" stroke-width="2"/>
<path d="M266.578 123.842L266.27 114.933H268.623L268.314 123.842H266.578ZM267.435 128.857C267.152 128.857 266.892 128.791 266.655 128.659C266.424 128.527 266.239 128.351 266.1 128.131C265.961 127.906 265.892 127.659 265.892 127.389C265.892 127.115 265.961 126.868 266.1 126.648C266.239 126.428 266.424 126.252 266.655 126.12C266.892 125.988 267.152 125.922 267.435 125.922C267.723 125.922 267.983 125.988 268.214 126.12C268.445 126.252 268.631 126.428 268.77 126.648C268.908 126.868 268.978 127.115 268.978 127.389C268.978 127.659 268.908 127.906 268.77 128.131C268.631 128.351 268.445 128.527 268.214 128.659C267.983 128.791 267.723 128.857 267.435 128.857Z" fill="#EFEDE7"/>
<path d="M284.973 280.754L281.058 281.333L280.791 285.333L284.795 285.6L286.45 283.056C287.155 281.972 286.251 280.565 284.973 280.754Z" fill="#C28145" stroke="#313B36" stroke-width="2" stroke-linecap="round"/>
<path d="M253.264 283.907C257.462 284.854 258.421 286.674 260.439 288.419L265.429 293.58L270.137 299.195L264.15 304.183C263.202 304.281 259.716 300.672 258.362 298.966C256.556 296.692 252.76 291.089 252.76 291.089C250.849 290.865 249.677 289.27 248.99 287.618C248.352 286.083 249.065 282.959 253.264 283.907Z" fill="#EFEDE7" stroke="#313B36" stroke-width="1.5" stroke-linecap="round"/>
<path d="M264.009 298.559C265.749 300.82 266.605 298.919 266.938 298.764L265.488 295.209L263.152 291.588L261.411 289.823C261.411 289.823 260.668 288.969 259.659 289.006C258.651 289.042 259.273 292.612 260.525 293.456C260.838 293.667 262.917 297.141 264.009 298.559Z" fill="#C28145"/>
<path d="M294.106 287.793C293.637 286.744 287.631 286.184 284.686 286.035C284.406 285.69 283.504 284.534 282.147 282.667C280.451 280.333 276.963 279.938 275.096 280.013C273.229 280.088 269.826 281.825 269.005 281.324C268.183 280.823 266.828 280.344 263.287 285.289C260.453 289.245 264.197 294.682 266.146 296.651C266.029 300.392 264.514 302.587 262.914 302.651C261.313 302.715 256.975 302.088 254.838 301.106C252.701 300.124 251.182 297.516 250.883 296.727C250.585 295.938 250.403 291.409 247.438 290.727C243.933 289.921 245.293 297.218 245.432 300.681C245.5 302.367 246.598 304.104 249.998 307.971C252.971 311.353 262.138 310.955 262.138 310.955C262.138 310.955 260.673 315.711 261.893 324.843C262.887 332.276 267.335 335.212 269.006 334.7C269.006 334.7 267.483 337.67 267.697 343.026C267.953 349.421 273.227 351.167 275.599 352.584C274.515 354.407 270.86 359.446 268.893 359.524C265.959 359.642 264.465 362.37 265.106 365.013C265.922 368.383 272.634 365.246 272.634 365.246C272.634 365.246 279.23 360.179 279.358 360.707C279.678 362.029 283.574 361.047 285.716 359.385C291.156 355.165 291.636 353.811 291.636 353.811C291.636 353.811 295.224 359.005 303.891 358.659C308.919 358.458 313.648 355.583 316.834 356.006C323.011 356.827 325.819 358.491 326.969 355.601C327.939 353.16 325.585 350.81 320.639 349.983C315.49 349.121 311.081 351.432 304.947 351.678C298.813 351.923 295.313 344.59 294.716 343.013C294.118 341.435 297.532 339.964 297.222 332.237C296.952 325.491 290.59 320.502 287.432 315.548C285.11 311.905 284.187 307.704 285.316 301.755C285.969 298.316 287.194 295.275 288.452 293.357C289.711 291.438 294.693 289.104 294.106 287.793Z" fill="#EFEDE7" stroke="#313B36" stroke-width="1.5"/>
<path d="M282.385 282.924L284.38 286.047L286.781 285.951L291.891 286.814L294.334 287.784L293.31 288.892L290.984 290.854L288.424 293.625L286.184 297.718L285.096 303.899C283.3 305.843 278.055 303.493 275.292 299.221C273.328 296.184 273.569 288.68 273.521 288.349C272.555 281.738 273.752 280.778 275.313 279.738L279.345 280.377L282.385 282.924Z" fill="#C28145"/>
<path d="M313.9 356.123C311.169 354.631 313.811 351.679 313.409 350.538L316.855 349.867L321.41 350.219L326.296 352.158L327.213 355.057L325.688 356.986L323.021 357.093L317.1 355.995L313.9 356.123Z" fill="#C28145"/>
<path d="M286.877 315.037L285.053 309.505C283.72 309.559 281.693 312.309 282.887 315.463C283.521 317.136 285.267 322.007 288.798 323.467C291.623 324.635 292.052 322.447 291.913 321.207L286.877 315.037Z" fill="#C28145"/>
<path d="M290.442 350.656C290.865 352.33 291.259 353.719 291.925 354.333" stroke="#313B36" stroke-width="1.5" stroke-linecap="round"/>
<path d="M272.284 330.833C271.086 332.037 269.105 334.162 268.721 335.245" stroke="#313B36" stroke-width="1.5" stroke-linecap="round"/>
<path d="M286.673 348.939C287.067 349.902 287.445 353.9 286.09 355.367C284.809 356.753 282.484 358.714 280.393 359.865" stroke="#313B36" stroke-width="1.5" stroke-linecap="round"/>
<path d="M272.664 283.293L273.501 283.171" stroke="#313B36" stroke-width="3" stroke-linecap="round"/>
<path d="M265.778 284.604L265.716 283.057L264.545 283.466" stroke="#313B36" stroke-linecap="round"/>
<path d="M268.668 279.863C268.33 279.225 267.484 277.768 266.803 277.038" stroke="#313B36" stroke-linecap="round"/>
<path d="M270.163 279.431C270.163 279.431 270.29 277.728 268.706 275.907" stroke="#313B36" stroke-linecap="round"/>
<path d="M269.527 286.94C269.615 287.655 269.757 289.334 269.617 290.322" stroke="#313B36" stroke-linecap="round"/>
<path d="M271.231 286.571C271.729 287.496 272.412 288.906 272.271 290.612" stroke="#313B36" stroke-linecap="round"/>
<path d="M280.076 331.368C283.724 329.742 285.117 333.177 284.805 334.955C291.674 337.612 287.77 341.779 284.743 342.904C282.395 343.777 278.29 342.704 276.797 339.831C275.303 336.957 276.428 332.995 280.076 331.368Z" fill="#C28145"/>
<path d="M294.106 287.793C293.637 286.744 287.631 286.184 284.686 286.035C284.406 285.69 283.504 284.534 282.147 282.667C280.451 280.333 276.963 279.938 275.096 280.013C273.229 280.088 269.826 281.825 269.005 281.324C268.183 280.823 266.828 280.344 263.287 285.289C260.453 289.245 264.197 294.682 266.146 296.651C266.029 300.392 264.514 302.587 262.914 302.651C261.313 302.715 256.975 302.088 254.838 301.106C252.701 300.124 251.182 297.516 250.883 296.727C250.585 295.938 250.403 291.409 247.438 290.727C243.933 289.921 245.293 297.218 245.432 300.681C245.5 302.367 246.598 304.104 249.998 307.971C252.971 311.353 262.138 310.955 262.138 310.955C262.138 310.955 260.673 315.711 261.893 324.843C262.887 332.276 267.335 335.212 269.006 334.7C269.006 334.7 267.483 337.67 267.697 343.026C267.953 349.421 273.227 351.167 275.599 352.584C274.515 354.407 270.86 359.446 268.893 359.524C265.959 359.642 264.465 362.37 265.106 365.013C265.922 368.383 272.634 365.246 272.634 365.246C272.634 365.246 279.23 360.179 279.358 360.707C279.678 362.029 283.574 361.047 285.716 359.385C291.156 355.165 291.636 353.811 291.636 353.811C291.636 353.811 295.224 359.005 303.891 358.659C308.919 358.458 313.648 355.583 316.834 356.006C323.011 356.827 325.819 358.491 326.969 355.601C327.939 353.16 325.585 350.81 320.639 349.983C315.49 349.121 311.081 351.432 304.947 351.678C298.813 351.923 295.313 344.59 294.716 343.013C294.118 341.435 297.532 339.964 297.222 332.237C296.952 325.491 290.59 320.502 287.432 315.548C285.11 311.905 284.187 307.704 285.316 301.755C285.969 298.316 287.194 295.275 288.452 293.357C289.711 291.438 294.693 289.104 294.106 287.793Z" stroke="#313B36" stroke-width="1.8"/>
</g>
<defs>
<linearGradient id="paint0_linear_1682_8016" x1="114.971" y1="244.97" x2="157.824" y2="222.914" gradientUnits="userSpaceOnUse">
<stop stop-color="#FFF9E5" stop-opacity="0.6"/>
<stop offset="1" stop-color="#FFF9E5" stop-opacity="0"/>
</linearGradient>
<clipPath id="clip0_1682_8016">
<rect width="363" height="368" fill="white"/>
</clipPath>
<clipPath id="clip1_1682_8016">
<rect width="107.06" height="135.659" fill="white" transform="matrix(0.996436 0.0843526 -0.0845068 0.996423 251.685 140.267)"/>
</clipPath>
<clipPath id="clip2_1682_8016">
<rect width="56.2426" height="102.559" fill="white" transform="matrix(0.999984 -0.00561767 0.005628 0.999984 128.998 176.728)"/>
</clipPath>
<clipPath id="clip3_1682_8016">
<rect width="33.097" height="30.4001" fill="white" transform="matrix(0.998357 0.0573047 -0.0574098 0.99835 136.154 184.613)"/>
</clipPath>
<clipPath id="clip4_1682_8016">
<rect width="24.3596" height="34.7965" fill="white" transform="matrix(0.977705 0.209984 -0.210226 0.977653 196.92 225.392)"/>
</clipPath>
<clipPath id="clip5_1682_8016">
<rect width="28.6947" height="23.7253" fill="white" transform="matrix(-0.992139 -0.125144 -0.125371 0.99211 222.198 239.506)"/>
</clipPath>
<clipPath id="clip6_1682_8016">
<rect width="90.3474" height="73.5197" fill="white" transform="matrix(-0.999841 0.0178153 0.0178728 0.99984 135.03 117.402)"/>
</clipPath>
</defs>
</svg>
