<svg width="216" height="209" viewBox="0 0 216 209" fill="none" xmlns="http://www.w3.org/2000/svg">
<g clip-path="url(#clip0_774_8643)">
<path d="M-0.696228 150.133C-0.696228 150.133 10.2397 139.787 13.5354 128.495C16.8312 117.204 18.9444 100.327 24.6721 92.73C30.3998 85.1329 35.1547 74.1781 36.7983 72.6956C38.442 71.213 42.8782 64.826 44.2871 64.1769C45.6959 63.5278 54.3503 63.5198 54.3503 63.5198C54.3503 63.5198 57.7047 54.1357 58.7865 53.1019C59.8683 52.0681 79.0472 40.352 80.7496 39.3904C82.4519 38.4287 97.9074 27.7944 97.9074 27.7944L135.435 96.7128C135.435 96.7128 137.708 101.601 137.313 104.895C136.919 108.189 135.016 110.392 132.919 110.793C130.033 111.345 127.049 110.392 127.049 110.392L125.791 113.197C125.791 113.197 131.787 115.705 130.043 120.337C128.298 124.969 123.149 122.742 123.149 122.742L82.5526 136.621C82.5526 136.621 76.5314 151.727 66.3256 158.299C56.1198 164.87 -0.696228 204.955 -0.696228 204.955V185.193V150.133Z" fill="#EFEDE7"/>
<path fill-rule="evenodd" clip-rule="evenodd" d="M-2.00797 148.872L-2.00415 148.868L-1.9848 148.85C-1.96683 148.833 -1.93879 148.806 -1.90125 148.769C-1.82618 148.696 -1.71315 148.586 -1.56668 148.439C-1.27367 148.147 -0.847233 147.713 -0.323334 147.155C0.725355 146.038 2.15971 144.432 3.69402 142.482C6.78498 138.555 10.1844 133.353 11.7413 128.019C12.7207 124.664 13.577 120.885 14.4683 116.951C15.0732 114.282 15.6942 111.541 16.3808 108.813C18.0303 102.259 20.0548 95.8119 23.1599 91.6934C25.9373 88.0095 28.5043 83.4741 30.614 79.6013C30.9484 78.9873 31.2731 78.3868 31.5855 77.8091C32.2454 76.5886 32.8504 75.4696 33.3767 74.5397C33.7663 73.8513 34.1308 73.2339 34.4602 72.7306C34.7638 72.2665 35.1246 71.7608 35.5185 71.4055C35.8112 71.1415 36.3138 70.5707 36.9956 69.7378C37.4401 69.1947 37.9173 68.5948 38.4132 67.9712C38.6549 67.6673 38.901 67.3579 39.15 67.0467C39.8957 66.1146 40.6615 65.1738 41.3383 64.4192C41.6762 64.0424 42.0138 63.6875 42.3321 63.3934C42.6129 63.1338 43.0153 62.7907 43.4767 62.5781C43.9027 62.3818 44.4133 62.2786 44.8009 62.2135C45.2396 62.1399 45.7468 62.0811 46.2763 62.0328C47.3383 61.936 48.5934 61.8726 49.7774 61.8305C50.9665 61.7882 52.1078 61.7667 52.9502 61.7557C52.9742 61.7554 52.9979 61.7551 53.0214 61.7548C53.0574 61.6568 53.0954 61.5539 53.135 61.4467C53.4689 60.544 53.9264 59.327 54.419 58.0748C54.91 56.8269 55.4435 55.5246 55.9286 54.4588C56.1703 53.9277 56.4104 53.4324 56.6355 53.0225C56.8253 52.6769 57.1093 52.1905 57.4682 51.8476C57.6448 51.6788 57.889 51.5004 58.0774 51.366C58.3001 51.2072 58.5803 51.0159 58.9033 50.8004C59.5508 50.3684 60.4083 49.8139 61.4008 49.1819C63.388 47.9165 65.9482 46.3199 68.5223 44.729C73.6504 41.5596 78.9088 38.3662 79.8002 37.8626C80.5612 37.4327 84.7501 34.6048 88.8838 31.7872C90.9201 30.3991 92.9037 29.0409 94.3784 28.0295C95.1156 27.5238 95.7256 27.105 96.1511 26.8126L96.8169 26.3549C96.8169 26.3549 96.8176 26.3545 97.9071 27.7944C97.9071 27.7944 97.3274 28.1932 96.3802 28.8434C92.4366 31.5506 82.122 38.6149 80.7493 39.3903C79.0469 40.3519 59.868 52.0681 58.7862 53.1018C57.7044 54.1356 54.35 63.5197 54.35 63.5197C54.35 63.5197 45.6956 63.5277 44.2868 64.1769C43.4683 64.5539 41.6282 66.8675 39.9074 69.0309C38.6661 70.5916 37.4868 72.0742 36.798 72.6955C36.1095 73.3166 34.8749 75.6 33.2515 78.6025C30.9998 82.7672 28 88.3154 24.6718 92.7299C20.6616 98.049 18.4232 107.917 16.3102 117.232C15.4053 121.222 14.5234 125.11 13.5351 128.495C10.2394 139.787 -0.696525 150.133 -0.696525 150.133V204.955L0.410992 206.382L-2.55859 208.477V149.393L-2.00797 148.872ZM1.16554 203.642C-0.0322511 204.486 -0.696525 204.955 -0.696525 204.955C0.410992 206.382 0.410992 206.382 0.410992 206.382L0.413564 206.38L1.05118 205.931C1.46967 205.636 2.08485 205.202 2.87144 204.647C4.44465 203.539 6.70354 201.948 9.44614 200.017C14.9314 196.157 22.3512 190.942 30.0895 185.522C45.5885 174.666 62.3036 163.03 67.3673 159.77C72.8245 156.256 77.0531 150.555 79.879 145.883C81.3059 143.524 82.4044 141.377 83.1472 139.819C83.5018 139.075 83.7763 138.463 83.9674 138.024L123.141 124.63C123.245 124.662 123.357 124.694 123.478 124.727C124.096 124.892 124.981 125.066 125.97 125.052C126.964 125.037 128.135 124.83 129.23 124.164C130.348 123.485 131.237 122.418 131.795 120.937C133.008 117.717 131.438 115.235 129.879 113.767C129.326 113.246 128.748 112.821 128.238 112.492C128.357 112.513 128.48 112.533 128.607 112.553C129.83 112.74 131.541 112.867 133.285 112.534C136.468 111.926 138.717 108.827 139.163 105.096C139.406 103.067 138.835 100.726 138.304 99.054C138.028 98.1846 137.74 97.4275 137.52 96.8871C137.41 96.6162 137.317 96.3978 137.25 96.2448C137.216 96.1683 137.189 96.108 137.17 96.0656L137.147 96.0154L137.138 95.996L137.138 95.9943C137.138 95.9943 137.137 95.9931 135.435 96.7127L137.137 95.9931L137.114 95.9431L98.5661 25.1514L96.8169 26.3549L97.9071 27.7944L135.435 96.7127C135.435 96.7127 137.707 101.601 137.313 104.895C136.919 108.188 135.015 110.392 132.919 110.793C130.033 111.345 127.049 110.392 127.049 110.392L125.791 113.197C125.791 113.197 131.787 115.705 130.042 120.337C128.298 124.969 123.149 122.741 123.149 122.741L82.5523 136.621C82.5523 136.621 76.5311 151.727 66.3253 158.299C57.223 164.159 11.0453 196.678 1.16554 203.642Z" fill="#313B36"/>
<path fill-rule="evenodd" clip-rule="evenodd" d="M73.0034 61.1418C72.2285 60.6775 71.2748 60.5494 70.199 60.8077C68.5472 61.2042 64.1201 61.6836 60.0102 62.0673C57.9761 62.2572 56.0495 62.4211 54.6312 62.5376C53.9221 62.5959 53.3404 62.6422 52.936 62.674C52.7339 62.6899 52.5761 62.7022 52.4689 62.7104L52.3062 62.7229C52.3061 62.7229 52.3056 62.723 52.3795 63.608C52.4533 64.493 52.4534 64.493 52.4535 64.493L52.6191 64.4803C52.7272 64.4719 52.8859 64.4596 53.089 64.4436C53.4953 64.4117 54.0794 64.3651 54.791 64.3067C56.214 64.1898 58.1481 64.0252 60.1916 63.8344C64.2372 63.4568 68.8335 62.9665 70.6535 62.5296C71.3136 62.3711 71.731 62.4765 72.0125 62.6452C72.3187 62.8287 72.5847 63.1608 72.7765 63.6363C72.9671 64.1085 73.0589 64.6628 73.0578 65.1876C73.0568 65.7245 72.9592 66.1487 72.8452 66.381C72.5265 67.0303 71.139 68.9302 69.212 70.8735C67.285 72.8169 64.9883 74.6278 62.9084 75.2789C59.6362 76.2299 56.2933 76.9425 52.9084 77.4106L52.1903 77.5099L52.1159 78.1981L53.042 78.2892C52.1159 78.1981 52.1159 78.198 52.1159 78.1981L52.1123 78.2315L52.1024 78.3258C52.0939 78.4083 52.0816 78.5294 52.0663 78.6847C52.0358 78.9953 51.9935 79.443 51.9461 79.9939C51.8514 81.0952 51.7363 82.6111 51.6549 84.268C51.4944 87.5377 51.4557 91.5015 52.0257 93.8591C52.2709 94.873 52.431 96.7614 52.5055 99.1515C52.5793 101.516 52.568 104.301 52.4928 107.063C52.4177 109.824 52.2789 112.554 52.099 114.809C51.9167 117.093 51.6974 118.814 51.479 119.607C51.4209 119.818 51.3583 120.048 51.291 120.294C50.2195 124.224 47.9704 132.472 44.129 138.492L45.7197 139.415C49.7124 133.158 52.0235 124.67 53.0875 120.763C53.157 120.508 53.2211 120.272 53.28 120.058C53.548 119.084 53.7752 117.205 53.9557 114.944C54.1384 112.654 54.2785 109.894 54.3543 107.109C54.4301 104.324 54.4418 101.505 54.3668 99.0987C54.2925 96.7174 54.1318 94.666 53.8402 93.4601C53.3368 91.3781 53.3527 87.6567 53.515 84.3511C53.595 82.7203 53.7085 81.226 53.8019 80.139C53.8387 79.7119 53.8723 79.348 53.8995 79.064C57.1338 78.5835 60.3288 77.8854 63.4607 76.9747L63.4695 76.9721L63.4783 76.9694C66.0252 76.1757 68.5931 74.0822 70.565 72.0935C72.5396 70.1021 74.0873 68.0391 74.5317 67.1338C74.7992 66.5888 74.9186 65.884 74.9199 65.1908C74.9213 64.4855 74.8008 63.7085 74.5144 62.9987C74.2293 62.2921 73.7536 61.5915 73.0034 61.1418Z" fill="#313B36"/>
<path fill-rule="evenodd" clip-rule="evenodd" d="M68.1735 76.1214C67.6698 76.0226 67.1776 76.3318 67.0739 76.8121L67.9859 76.991C67.0739 76.8121 67.074 76.8118 67.0739 76.8121L67.0733 76.8149L67.0724 76.8195L67.0693 76.8341C67.0668 76.8462 67.0635 76.8629 67.0593 76.8841C67.051 76.9264 67.0397 76.9866 67.0264 77.0627C67 77.2149 66.9658 77.4315 66.9332 77.6979C66.8683 78.2289 66.8084 78.9664 66.8308 79.7898C66.8744 81.3911 67.2335 83.5245 68.7132 85.0011C69.0685 85.3556 69.6578 85.3683 70.0296 85.0296C70.4013 84.6908 70.4147 84.1288 70.0595 83.7744C69.0737 82.7907 68.7326 81.2258 68.6923 79.7438C68.6727 79.0255 68.7251 78.3751 68.7828 77.9037C68.8115 77.6688 68.8413 77.4806 68.8634 77.3532C68.8745 77.2895 68.8836 77.2412 68.8897 77.21L68.8965 77.1764L68.8978 77.1699C68.8978 77.1697 68.8978 77.17 68.8978 77.1699C69.0012 76.6898 68.677 76.2202 68.1735 76.1214ZM68.8978 77.1699C68.8978 77.1697 68.8978 77.17 68.8978 77.1699V77.1699Z" fill="#313B36"/>
<path fill-rule="evenodd" clip-rule="evenodd" d="M86.1404 53.948C85.9713 53.4849 85.4406 53.2402 84.955 53.4014C80.0243 55.0382 75.6637 57.9463 72.3555 61.8038C72.0299 62.1833 72.0887 62.7427 72.4868 63.0531C72.8848 63.3635 73.4714 63.3074 73.7969 62.9279C76.8878 59.3238 80.9615 56.6072 85.5672 55.0783C86.0528 54.9171 86.3094 54.411 86.1404 53.948Z" fill="#313B36"/>
<path d="M167.3 23.0801L116.389 134.579C114.462 138.801 109.485 140.922 104.908 139.455C91.539 135.17 66.1132 127.009 64.5724 126.42C59.6085 124.522 56.6056 121.211 58.2828 114.8L109.346 5.42369C109.847 4.32542 110.766 3.4524 111.915 2.9829C113.064 2.51339 114.356 2.4828 115.528 2.89739L164.544 16.7805C165.168 17.0042 165.738 17.3483 166.219 17.7917C166.7 18.235 167.081 18.7681 167.339 19.3583C167.598 19.9484 167.727 20.583 167.72 21.2231C167.714 21.8632 167.571 22.4952 167.3 23.0801Z" fill="#C28145"/>
<path fill-rule="evenodd" clip-rule="evenodd" d="M115.822 2.05425C114.435 1.57163 112.907 1.61161 111.549 2.16673C110.182 2.72531 109.09 3.76272 108.494 5.0656C108.494 5.06678 108.493 5.06797 108.493 5.06915L57.3998 114.51L57.3801 114.585C56.4998 117.95 56.8176 120.635 58.1371 122.755C59.444 124.855 61.6452 126.257 64.2266 127.244C65.8002 127.845 91.2726 136.021 104.612 140.296C109.649 141.911 115.124 139.575 117.243 134.933L168.152 23.4384C168.153 23.4377 168.153 23.437 168.153 23.4362C168.474 22.7416 168.644 21.9915 168.652 21.232C168.66 20.4717 168.506 19.7177 168.199 19.0163C167.892 18.3149 167.439 17.6809 166.867 17.1533C166.295 16.6257 165.616 16.2159 164.872 15.9493L164.841 15.9383L115.822 2.05425ZM112.282 3.7988C113.212 3.41896 114.257 3.39426 115.205 3.72961L115.234 3.7399L164.246 17.622C164.739 17.8031 165.191 18.0776 165.573 18.4298C165.962 18.7888 166.271 19.221 166.481 19.7C166.69 20.1789 166.796 20.6941 166.79 21.214C166.785 21.7338 166.668 22.2469 166.449 22.7216L166.447 22.7256L115.536 134.225C113.8 138.026 109.322 139.933 105.205 138.613C91.8067 134.319 66.4275 126.172 64.9194 125.596C62.5368 124.685 60.7547 123.482 59.7385 121.849C58.7431 120.25 58.3956 118.096 59.1675 115.089L110.2 5.77797C110.607 4.88598 111.353 4.17871 112.282 3.7988Z" fill="#313B36"/>
<path d="M159.814 25.2788L113.551 126.36C113.205 127.121 112.585 127.736 111.805 128.092C111.026 128.447 110.139 128.52 109.308 128.296L67.0924 113.998C66.665 113.882 66.2656 113.686 65.9169 113.422C65.5683 113.157 65.2773 112.829 65.0606 112.456C64.7698 111.952 64.6043 111.39 64.577 110.814C64.5497 110.238 64.6613 109.664 64.9032 109.136L111.535 11.0216C111.963 10.0816 112.748 9.33431 113.729 8.93244C114.711 8.53056 115.814 8.50438 116.815 8.85925L125.712 11.6433C126.203 11.7968 126.468 12.3013 126.305 12.768L125.263 15.7443C125.094 16.2265 125.384 16.7452 125.897 16.881L143.787 21.6094C144.273 21.7379 144.778 21.4741 144.926 21.0145L146.064 17.4798C146.215 17.0111 146.735 16.7478 147.227 16.8917L157.461 19.8867C157.994 20.0782 158.481 20.3727 158.891 20.7522C159.302 21.1316 159.628 21.588 159.848 22.0931C160.069 22.5982 160.179 23.1414 160.174 23.6893C160.168 24.2372 160.046 24.7781 159.814 25.2788Z" fill="#EFEDE7"/>
<path fill-rule="evenodd" clip-rule="evenodd" d="M117.121 8.02093C115.901 7.59312 114.557 7.6273 113.361 8.11679C112.163 8.60762 111.206 9.51838 110.684 10.6613L64.0497 108.781C63.7506 109.433 63.6128 110.143 63.6465 110.854C63.6803 111.566 63.8848 112.26 64.2445 112.884L64.2457 112.886C64.5214 113.361 64.892 113.779 65.3366 114.116C65.773 114.448 66.2723 114.695 66.807 114.844L109.025 129.142L109.054 129.15C110.103 129.433 111.223 129.341 112.207 128.893C113.19 128.444 113.969 127.671 114.404 126.716M114.405 126.714L160.666 25.6367C160.666 25.6362 160.667 25.6358 160.667 25.6354C160.948 25.0249 161.097 24.3658 161.104 23.6984C161.111 23.0306 160.976 22.3682 160.707 21.752C160.438 21.1358 160.041 20.5785 159.539 20.1147C159.037 19.6509 158.441 19.2904 157.788 19.0559L157.761 19.0462L147.5 16.043C146.517 15.7553 145.475 16.282 145.173 17.2193L144.035 20.754L126.146 16.0255L127.188 13.0493C127.515 12.1157 126.983 11.1068 126.002 10.7999L117.121 8.02093M114.096 9.7483C114.858 9.43644 115.714 9.41618 116.49 9.69148L116.507 9.69752L125.422 12.487L124.379 15.4632C124.042 16.4277 124.621 17.465 125.648 17.7366L143.538 22.4651C144.51 22.722 145.519 22.1944 145.815 21.2752L146.953 17.7405L157.157 20.7269C157.561 20.8755 157.93 21.1008 158.243 21.3898C158.563 21.6849 158.816 22.0403 158.988 22.4344C159.16 22.8285 159.247 23.2525 159.242 23.6805C159.238 24.1084 159.142 24.5307 158.962 24.9212L158.961 24.9238L112.696 126.007C112.439 126.573 111.979 127.028 111.403 127.291C110.836 127.549 110.193 127.605 109.588 127.449L67.3755 113.152L67.3468 113.144C67.0381 113.061 66.7491 112.919 66.4965 112.727C66.2444 112.536 66.0334 112.298 65.8759 112.028C65.6541 111.643 65.5276 111.214 65.5067 110.774C65.4859 110.335 65.5706 109.898 65.7537 109.497C65.7544 109.495 65.7551 109.494 65.7559 109.492L112.385 11.3819L112.388 11.3755C112.723 10.6414 113.335 10.0603 114.096 9.7483Z" fill="#313B36"/>
<path d="M88.8922 126.42C88.8922 128.412 87.2026 130.026 85.1184 130.026C83.0343 130.026 81.3447 128.412 81.3447 126.42C81.3447 124.428 83.0343 122.814 85.1184 122.814C87.2026 122.814 88.8922 124.428 88.8922 126.42Z" fill="#313B36"/>
<path d="M74.4062 102.327L102.907 112.571L101.61 115.809L73.1094 105.565L74.4062 102.327Z" fill="#D8C5A8"/>
<path d="M80.6152 86.6868L118.78 100.428L117.482 103.673L79.3178 89.9321L80.6152 86.6868Z" fill="#D8C5A8"/>
<path d="M84.3574 79.5854L122.522 93.3266L121.225 96.5719L83.06 82.8308L84.3574 79.5854Z" fill="#D8C5A8"/>
<path d="M77.5107 94.5066L115.675 108.248L114.378 111.493L76.2133 97.7519L77.5107 94.5066Z" fill="#D8C5A8"/>
<path fill-rule="evenodd" clip-rule="evenodd" d="M128.322 64.9474C127.99 65.7855 127.727 66.6301 127.538 67.4759L129.314 67.9888C129.67 67.1308 129.935 66.281 130.118 65.4429C132.223 60.2612 137.273 55.1779 143.679 51.9119C151.052 48.1535 160.017 46.9065 168 50.554L168.804 48.9527C160.144 44.996 150.54 46.4005 142.801 50.3458C137.606 52.9943 133.158 56.8354 130.355 61.088C130.04 58.1856 128.805 55.532 127.084 53.3086C124.094 49.4451 119.559 46.7744 115.614 46.2925C111.712 45.8158 107.348 46.9727 103.783 48.8643C100.247 50.7407 97.2632 53.4682 96.3748 56.3355L98.1605 56.8397C98.8468 54.6248 101.329 52.1994 104.689 50.4162C108.021 48.6482 111.984 47.639 115.379 48.0538C118.731 48.4633 122.841 50.8155 125.586 54.3626C127.857 57.2964 129.14 60.9736 128.322 64.9474Z" fill="#313B36"/>
<g clip-path="url(#clip1_774_8643)">
<path fill-rule="evenodd" clip-rule="evenodd" d="M186.227 37.2661C183.791 51.9612 181.806 54.1235 168.518 56.8263C181.806 59.5292 183.791 61.7057 186.227 76.3296C188.688 61.7057 190.647 59.5292 203.91 56.8263C190.647 54.1235 188.688 51.9612 186.227 37.2661Z" fill="#D8C5A8"/>
</g>
</g>
<defs>
<clipPath id="clip0_774_8643">
<rect width="216" height="207.747" fill="white" transform="matrix(-1 0 0 1 216 0.865967)"/>
</clipPath>
<clipPath id="clip1_774_8643">
<rect width="35.3793" height="39.0635" fill="white" transform="translate(168.518 37.2661)"/>
</clipPath>
</defs>
</svg>
