<svg width="960" height="640" viewBox="0 0 960 640" fill="none" xmlns="http://www.w3.org/2000/svg">
<path fill-rule="evenodd" clip-rule="evenodd" d="M494.842 0C701.58 0 920.719 108.288 920.719 316.137C920.719 525.792 703.376 640 494.842 640C288.454 640 75.875 523.635 75.875 316.137C75.875 110.464 290.269 0 494.842 0Z" fill="#EDE9E1"/>
<g clip-path="url(#clip0_1808_10862)">
<mask id="mask0_1808_10862" style="mask-type:luminance" maskUnits="userSpaceOnUse" x="290" y="54" width="401" height="537">
<path d="M690.667 54.0445H290.667V590.044H690.667V54.0445Z" fill="white"/>
</mask>
<g mask="url(#mask0_1808_10862)">
<path d="M341.079 186.019C341.157 185.941 341.157 185.708 341.157 185.63L341.235 185.162C341.313 184.928 341.392 184.773 341.47 184.539C353.681 139.275 383.349 100.867 423.975 77.7285C464.679 54.668 512.977 48.7471 558.221 61.2901C603.466 73.8331 642.214 103.827 665.619 144.728C689.024 185.63 695.364 234.01 683.231 279.274L682.918 279.196C674.934 301.789 594.386 299.763 501.157 274.366C407.928 248.968 336.852 209.625 341.079 186.019Z" stroke="#313B36" stroke-width="2" stroke-miterlimit="10"/>
<path d="M500.296 439.606C600.256 438.048 681.118 415.922 680.961 392.161C680.804 368.399 599.63 350.325 499.748 351.961C399.787 353.519 318.926 374.086 319.082 397.926C319.239 421.688 400.335 441.164 500.296 439.606Z" fill="#6A5D54" stroke="#313B36" stroke-width="2" stroke-miterlimit="10"/>
<path d="M373.485 266.575L373.72 266.808L374.033 266.731L380.687 265.718L384.679 272.729L378.26 277.014L377.947 277.248L378.026 277.638L378.965 286.129V286.441L379.278 286.597L385.932 290.181L383.74 298.595L375.99 298.049H375.599L375.442 298.361L371.45 305.45L371.294 305.684L371.45 305.996L375.286 312.618L367.928 318.071L361.822 313.241L361.509 313.007L361.196 313.241L353.368 317.76L353.133 317.915L353.055 318.227L351.959 325.395L343.74 325.94L341.313 317.915L341.235 317.604L340.922 317.526L332.703 315.345L332.39 315.267L332.155 315.5L326.597 321.499L319.787 316.747L322.526 309.268L322.683 308.956L322.448 308.722L316.969 302.412L316.734 302.178L316.421 302.256L308.593 303.425L305.149 295.712L312.742 291.427L313.055 291.271V290.882L312.429 282.468V282.078L312.116 281.922L304.836 279.118L306.793 270.158L314.386 270.548H314.699L314.855 270.236L319.317 263.536L319.474 263.225L319.317 262.913L315.638 254.967L322.448 250.058L329.493 255.045L329.806 255.278L330.119 255.122L337.164 251.539L337.478 251.383V251.071L337.947 243.67L346.401 242.813L349.376 251.383L349.454 251.695L349.767 251.772L357.517 253.097L357.83 253.175L358.065 252.941L363.622 247.41L370.667 252.084L367.849 258.862L367.693 259.174L367.928 259.485L373.485 266.575ZM353.916 300.854L354.229 300.698C358.456 298.205 361.587 294.154 362.84 289.401C364.17 284.571 363.466 279.351 360.961 274.989C359.082 271.717 356.264 269.068 352.898 267.432C349.532 265.796 345.697 265.095 341.939 265.64C338.182 266.107 334.66 267.665 331.842 270.158C329.024 272.651 326.91 275.924 325.971 279.507C324.953 283.169 325.11 286.986 326.284 290.57C327.458 294.154 329.728 297.27 332.703 299.529C335.677 301.789 339.278 303.191 343.114 303.425C346.871 303.581 350.628 302.724 353.916 300.854Z" fill="#E3E1DB" stroke="#313B36" stroke-width="2"/>
<path d="M351.881 279.274C352.742 280.832 353.211 282.546 353.055 284.338C352.898 286.129 352.272 287.765 351.176 289.168C350.08 290.57 348.593 291.583 346.949 292.206C345.227 292.751 343.427 292.829 341.705 292.362C339.982 291.894 338.417 290.96 337.243 289.635C336.069 288.311 335.286 286.675 335.129 284.883C334.894 283.091 335.208 281.377 335.99 279.741C336.773 278.105 338.026 276.858 339.591 275.924C340.609 275.3 341.783 274.989 342.957 274.833C344.131 274.677 345.305 274.755 346.48 275.067C347.654 275.378 348.671 275.924 349.611 276.625C350.472 277.404 351.254 278.261 351.881 279.274Z" fill="#E3E1DB" stroke="#313B36" stroke-width="2"/>
<path d="M328.006 358.427L328.241 358.661L328.554 358.583L331.998 358.038L334.033 361.621L330.746 363.881L330.433 364.114V364.426L330.902 369.1V369.412L331.137 369.568L334.581 371.437L333.485 375.644L329.493 375.333H329.102L328.945 375.644L326.754 379.618L326.597 379.929L326.754 380.241L328.711 383.747L325.031 386.474L321.9 383.903L321.587 383.669L321.274 383.903L316.969 386.396L316.734 386.551L316.656 386.863L316.108 390.603L312.037 390.914L310.707 386.707L310.628 386.396L310.315 386.318L305.853 385.071L305.54 384.993L305.305 385.227L302.409 388.265L299.043 385.928L300.452 381.955L300.53 381.643L300.296 381.41L297.243 377.826L297.008 377.592L296.695 377.67L292.624 378.293L290.902 374.398L294.816 372.139L295.129 371.983V371.593L294.738 366.997V366.607L294.425 366.451L290.667 364.893L291.607 360.375L295.521 360.608H295.834L295.99 360.297L298.417 356.635L298.574 356.401L298.417 356.09L296.46 351.883L300.061 349.312L303.74 351.961L304.053 352.194L304.366 352.039L308.202 350.091L308.515 349.935V349.624L308.75 345.728L312.898 345.261L314.464 349.857L314.542 350.169L314.855 350.247L319.082 351.026L319.395 351.104L319.63 350.87L322.527 347.987L326.049 350.403L324.562 353.986L324.405 354.298L324.64 354.532L328.006 358.427ZM311.568 378.917C313.681 379.072 315.795 378.527 317.673 377.436C320.1 376.034 321.9 373.697 322.605 370.892C323.309 368.165 322.996 365.205 321.587 362.712C320.57 360.842 318.926 359.362 317.047 358.349C315.168 357.414 312.977 357.025 310.863 357.258C308.75 357.492 306.793 358.427 305.149 359.829C303.505 361.232 302.409 363.101 301.861 365.127C301.313 367.231 301.392 369.412 302.018 371.437C302.722 373.463 303.975 375.255 305.697 376.579C307.341 377.982 309.454 378.761 311.568 378.917Z" fill="#E3E1DB" stroke="#313B36" stroke-width="1.5"/>
<path d="M315.56 366.529C315.951 367.153 316.108 367.932 316.029 368.633C315.951 369.334 315.716 370.035 315.247 370.658C314.777 371.282 314.151 371.671 313.525 371.905C312.82 372.139 312.116 372.139 311.333 371.983C310.55 371.827 310.002 371.36 309.532 370.814C309.063 370.269 308.75 369.568 308.671 368.867C308.593 368.165 308.671 367.386 309.063 366.763C309.376 366.14 309.924 365.594 310.55 365.205C310.941 364.971 311.411 364.815 311.959 364.737C312.429 364.66 312.898 364.737 313.446 364.815C313.916 364.971 314.386 365.127 314.777 365.439C314.934 365.75 315.247 366.14 315.56 366.529Z" fill="#E3E1DB" stroke="#313B36" stroke-width="1.5"/>
<mask id="mask1_1808_10862" style="mask-type:luminance" maskUnits="userSpaceOnUse" x="325" y="253" width="163" height="194">
<path d="M371.243 253.937L325.993 414.215L441.894 446.626L487.143 286.349L371.243 253.937Z" fill="white"/>
</mask>
<g mask="url(#mask1_1808_10862)">
<path d="M325.971 414.208L326.989 410.625C328.084 406.729 330.355 403.224 333.173 401.042C336.069 398.861 339.278 398.082 342.253 398.861L435.951 425.038C437.439 425.427 438.769 426.206 439.865 427.375C440.961 428.543 441.9 429.946 442.527 431.582C443.153 433.218 443.544 435.088 443.544 437.035C443.623 438.983 443.309 441.008 442.762 442.956L441.744 446.54L325.971 414.208Z" fill="#C28145"/>
<path d="M326.676 413.819L327.537 410.625C328.711 406.574 330.903 403.068 333.721 400.808C336.539 398.549 339.591 397.77 342.331 398.549L436.03 424.726C437.36 425.115 438.613 425.817 439.709 426.907C440.805 427.998 441.666 429.4 442.214 431.114C442.84 432.75 443.153 434.698 443.153 436.646C443.153 438.671 442.918 440.697 442.37 442.644L441.509 445.839L326.676 413.819Z" stroke="#313B36" stroke-width="2"/>
<path d="M424.601 272.574L351.568 401.588L423.975 421.843L431.568 274.599C431.646 273.508 431.411 272.574 430.942 271.717C430.472 270.938 429.846 270.392 429.063 270.158C428.28 269.925 427.419 270.003 426.636 270.47C425.775 270.938 425.071 271.639 424.601 272.574Z" fill="#C28145"/>
<path d="M396.656 323.603L427.967 331.939L426.402 367.854L379.435 353.908L396.656 323.603Z" fill="#F5F3ED"/>
<path d="M430.55 272.028C430.159 271.327 429.611 270.86 428.985 270.704C428.437 270.47 427.732 270.548 427.028 270.938C426.323 271.327 425.697 271.95 425.227 272.807L352.585 401.198L423.505 421.064L431.098 274.599C431.176 273.587 430.942 272.73 430.55 272.028ZM430.55 272.028L431.098 271.717" stroke="#313B36" stroke-width="2"/>
<g opacity="0.3">
<path d="M351.568 401.588L423.975 421.843L424.601 409.456L354.621 396.134L351.568 401.588Z" fill="#6A5D54"/>
</g>
</g>
<path d="M459.591 269.224L548.984 277.793L563.466 348.299L544.914 330.692L472.037 330.926L459.748 334.821L459.591 269.224Z" fill="#907D73"/>
<path d="M571.059 454.954L453.564 432.361L425.305 432.906C425.305 410.703 430.785 387.097 435.951 373.151C441.118 359.206 451.607 346.196 455.051 341.677C458.495 337.158 471.255 332.172 475.795 331.16C480.335 330.147 487.928 327.264 487.928 327.264C494.033 317.915 524.718 328.822 524.718 328.822C524.718 328.822 543.505 331.16 546.636 329.991C557.752 332.094 570.589 324.304 572.39 340.898C573.251 348.922 572.938 369.49 572.311 392.706C571.998 405.794 571.607 419.818 571.294 432.906C571.215 440.697 571.059 448.176 571.059 454.954Z" fill="#D8C5A8"/>
<path d="M425.305 425.271C425.932 412.261 431.489 386.551 434.699 376.969C438.221 366.451 446.832 352.428 446.832 352.428" stroke="#313B36" stroke-width="2" stroke-linecap="round"/>
<path d="M505.618 352.74L500.217 342.3L507.889 335.756L512.585 344.482L505.618 352.74Z" fill="#EFEDE7" stroke="#313B36" stroke-width="1.5" stroke-linecap="round"/>
<path d="M497.556 351.415C497.164 378.138 497.635 390.525 497.635 390.525" stroke="#313B36" stroke-width="1.5" stroke-linecap="round"/>
<path d="M496.382 420.675L496.225 435.945" stroke="#313B36" stroke-width="1.5" stroke-linecap="round"/>
<path d="M513.29 352.428C512.742 369.412 512.194 421.22 512.507 434.854" stroke="#313B36" stroke-width="1.5" stroke-linecap="round"/>
<path d="M508.045 359.44L508.202 361.855C508.202 361.933 508.202 362.089 508.202 362.167C508.202 363.335 506.949 364.192 505.54 364.192C504.053 364.192 502.957 363.179 502.957 362.011C502.957 361.933 502.957 361.855 502.957 361.777L503.27 359.284V359.206L503.348 359.128H503.427H503.505L504.914 359.985C505.149 359.985 505.305 359.907 505.54 359.907C505.775 359.907 505.932 359.907 506.166 359.985L507.497 359.128C507.497 359.128 507.575 359.05 507.654 359.05C507.732 359.05 507.732 359.05 507.81 359.05C507.889 359.05 507.889 359.128 507.889 359.128C508.045 359.362 508.045 359.44 508.045 359.44Z" fill="#313B36"/>
<path d="M506.48 429.167L506.636 431.582C506.636 431.66 506.636 431.815 506.636 431.893C506.636 433.062 505.384 433.919 503.975 433.919C502.487 433.919 501.392 432.906 501.392 431.738C501.392 431.66 501.392 431.582 501.392 431.504L501.705 429.011V428.933L501.783 428.855H501.861H501.94L503.349 429.712C503.583 429.712 503.74 429.634 503.975 429.634C504.21 429.634 504.366 429.634 504.601 429.712L505.932 428.855C506.01 428.855 506.01 428.777 506.088 428.777C506.167 428.777 506.167 428.777 506.245 428.777C506.323 428.777 506.323 428.855 506.323 428.855C506.48 429.089 506.48 429.089 506.48 429.167Z" fill="#313B36"/>
<path d="M507.184 386.941V389.434C507.184 389.512 507.184 389.668 507.184 389.746C507.106 390.914 505.853 391.693 504.366 391.615C502.957 391.46 501.861 390.447 501.939 389.278C501.939 389.2 501.939 389.122 501.939 389.044L502.409 386.551C502.409 386.551 502.409 386.474 502.487 386.474L502.566 386.396H502.644H502.722L504.053 387.33C504.288 387.33 504.523 387.33 504.679 387.33C504.914 387.33 505.071 387.408 505.305 387.408L506.714 386.629C506.793 386.629 506.793 386.629 506.871 386.629C506.949 386.629 506.949 386.629 507.028 386.629C507.106 386.629 507.106 386.707 507.106 386.707C507.184 386.863 507.184 386.941 507.184 386.941Z" fill="#313B36"/>
<mask id="mask2_1808_10862" style="mask-type:luminance" maskUnits="userSpaceOnUse" x="341" y="270" width="131" height="182">
<path d="M428.69 270.295L341.833 293.533L384.426 451.225L471.282 427.987L428.69 270.295Z" fill="white"/>
</mask>
<g mask="url(#mask2_1808_10862)">
<path d="M380.609 330.381C381.861 330.458 390.785 334.977 393.681 340.586L385.54 341.521C384.836 340.586 384.053 338.093 383.427 337.314C382.566 336.379 379.043 335.289 378.73 333.029C378.26 330.77 379.591 330.381 380.609 330.381Z" fill="#EFEDE7"/>
<path d="M385.462 341.521C384.757 340.586 383.975 338.093 383.348 337.314C382.487 336.379 378.965 335.289 378.652 333.029C378.339 330.77 379.591 330.381 380.609 330.381C381.861 330.458 390.785 334.977 393.681 340.586L385.462 341.521ZM385.462 341.521C385.775 342.144 385.853 340.82 385.462 341.521Z" stroke="#313B36" stroke-width="1.5" stroke-linecap="round"/>
<path d="M367.458 332.484C370.667 330.615 380.296 338.016 382.409 339.184C384.366 340.275 393.525 339.73 400.961 340.119C405.501 340.353 409.18 340.041 412.703 342.067C416.225 344.015 416.93 346.741 417.243 349.078C417.634 351.961 417.008 354.298 417.008 354.298L397.282 358.038C397.282 358.038 394.229 353.519 392.977 353.052C391.411 352.428 380.452 350.481 378.573 349.78C372.703 347.52 367.223 340.509 365.266 338.249C363.231 335.99 361.665 334.432 361.274 332.251C360.961 330.537 364.014 331.238 365.579 331.861C366.284 332.173 367.067 332.64 367.458 332.484Z" fill="#EFEDE7"/>
<path d="M367.458 332.484C370.667 330.615 380.296 338.016 382.409 339.184C384.366 340.275 393.525 339.73 400.961 340.119C405.501 340.353 409.18 340.041 412.703 342.067C416.225 344.015 416.93 346.741 417.243 349.078C417.634 351.961 417.008 354.298 417.008 354.298L397.282 358.038C397.282 358.038 394.229 353.519 392.977 353.052C391.411 352.428 380.452 350.481 378.573 349.78C372.703 347.52 367.223 340.509 365.266 338.249C363.231 335.99 361.665 334.432 361.274 332.251C360.961 330.537 364.014 331.238 365.579 331.861C366.284 332.173 367.067 332.64 367.458 332.484ZM367.458 332.484C367.38 333.653 363.544 332.562 375.286 341.521C380.217 345.261 390.159 346.196 390.159 346.196" stroke="#313B36" stroke-width="1.5" stroke-linecap="round"/>
<path d="M418.73 347.832C422.879 353.519 424.601 357.414 424.601 357.414L414.346 362.089L398.456 371.204C398.456 371.204 395.951 366.218 393.994 363.491C392.037 360.764 391.881 358.427 393.603 357.258C402.292 351.338 417.477 346.118 418.73 347.832Z" fill="#907D73"/>
<path d="M416.304 360.764C416.304 360.764 423.975 356.635 425.775 358.271L429.376 361.465L438.221 375.644L452.468 403.224C452.468 403.224 466.636 405.639 459.435 412.806C449.572 422.622 424.914 435.243 424.914 435.243C424.914 435.243 415.677 423.869 412.311 413.507C410.824 408.833 406.519 394.888 406.519 394.888L399.474 378.371C399.474 378.371 397.908 374.865 397.439 372.45C397.282 371.36 398.691 370.191 399.396 369.412C401.039 367.542 406.988 365.984 406.988 365.984L416.304 360.764Z" fill="#D8C5A8"/>
<path d="M420.765 359.518C420.765 359.518 411.059 364.971 399.474 369.49" stroke="#313B36" stroke-width="2" stroke-miterlimit="10" stroke-linecap="round"/>
<path d="M453.094 414.364C453.094 414.364 443.857 389.512 439.709 382.189C437.36 377.982 432.116 364.348 426.401 358.583" stroke="#313B36" stroke-width="2" stroke-linecap="round"/>
<path d="M428.358 435.243C428.358 435.243 419.904 437.814 407.928 398.939C403.622 384.915 396.656 376.112 397.908 372.372" stroke="#313B36" stroke-width="2" stroke-linecap="round"/>
<path d="M451.294 345.806C457.712 369.568 462.722 395.199 465.775 400.653" stroke="#313B36" stroke-width="2" stroke-linecap="round"/>
</g>
<path d="M459.356 391.771C459.749 403.769 459.356 427.842 459.356 427.842" stroke="#313B36" stroke-width="2" stroke-linecap="round"/>
<path d="M486.989 329.913C490.902 325.239 490.824 313.319 489.337 307.632L523.388 306.074C522.918 307.554 520.805 323.447 525.423 330.848C525.423 330.848 515.247 341.833 506.245 342.3C497.243 342.768 490.433 335.055 488.319 332.64" fill="#EFEDE7"/>
<path d="M486.989 329.913C490.902 325.239 490.824 313.319 489.337 307.632L523.388 306.074C522.918 307.554 520.805 323.447 525.423 330.848C525.423 330.848 515.247 341.833 506.245 342.3C497.243 342.768 490.433 335.055 488.319 332.64" stroke="#313B36" stroke-width="2" stroke-miterlimit="10"/>
<path d="M520.804 318.305L521.196 308.722L490.902 309.268L491.45 318.305C509.532 325.784 520.804 318.305 520.804 318.305Z" fill="#EFEDE7"/>
<path d="M487.145 327.576C487.145 327.576 489.572 340.353 507.419 339.652C520.57 339.184 525.423 328.667 525.423 328.667L544.131 331.315C544.601 334.354 534.816 352.039 519.709 350.247C509.376 349 506.636 341.833 506.636 341.833C506.636 341.833 503.662 346.897 494.66 348.845C475.716 352.896 476.578 331.705 476.578 331.705L487.145 327.576Z" fill="#EFEDE7" stroke="#313B36" stroke-width="2" stroke-miterlimit="10"/>
<path d="M518.926 291.193L511.646 267.899L497.243 278.572L518.926 291.193Z" fill="#D8C5A8"/>
<path d="M461.313 251.383C461.313 251.383 463.035 267.899 467.81 281.143C472.585 294.388 471.646 299.997 477.517 306.697C482.84 312.696 497.791 321.343 505.853 320.564C516.029 319.629 527.145 311.605 533.485 301.789C539.826 292.05 539.121 285.818 539.121 285.818C539.121 285.818 550.863 281.611 549.611 268.055C548.358 254.499 541.313 256.291 536.303 258.55L531.607 225.05L510.863 210.482L485.345 217.26L461.313 251.383Z" fill="#EFEDE7"/>
<path d="M461.313 251.383L460.765 250.993L460.609 251.227V251.461L461.313 251.383ZM539.122 285.896L538.887 285.272L538.339 285.428L538.417 285.974L539.122 285.896ZM536.304 258.55L535.599 258.628L535.756 259.563L536.617 259.174L536.304 258.55ZM485.345 217.338L485.188 216.636L484.953 216.714L484.797 216.948L485.345 217.338ZM531.607 225.128L532.311 225.05L532.233 224.739L531.998 224.583L531.607 225.128ZM510.863 210.482L511.255 209.936L511.02 209.781L510.628 209.858L510.863 210.482ZM461.313 251.383C460.609 251.461 460.609 251.461 460.609 251.461C460.609 251.461 460.609 251.539 460.609 251.617C460.609 251.772 460.609 251.928 460.687 252.162C460.765 252.629 460.844 253.331 460.922 254.187C461.157 255.979 461.548 258.472 462.018 261.355C463.035 267.12 464.679 274.599 467.106 281.299L468.437 280.832C466.088 274.287 464.444 266.886 463.427 261.121C462.879 258.239 462.566 255.746 462.331 254.032C462.253 253.175 462.096 252.474 462.096 252.006C462.096 251.772 462.018 251.617 462.018 251.461C462.018 251.383 462.018 251.383 462.018 251.305C462.018 251.383 462.018 251.383 461.313 251.383ZM539.122 285.896C539.356 286.519 539.356 286.519 539.356 286.519C539.356 286.519 539.435 286.519 539.435 286.441C539.513 286.441 539.67 286.363 539.826 286.285C540.139 286.129 540.609 285.896 541.235 285.584C542.331 284.961 543.818 283.948 545.306 282.546C548.202 279.663 550.942 275.067 550.237 268.055L548.828 268.211C549.454 274.755 546.949 278.962 544.288 281.611C542.957 282.935 541.548 283.87 540.531 284.415C539.983 284.727 539.591 284.883 539.278 285.039C539.122 285.117 539.043 285.117 538.965 285.194H538.887C538.887 285.194 538.887 285.194 539.122 285.896ZM550.315 268.055C549.689 261.199 547.576 257.849 544.601 256.758C543.192 256.213 541.627 256.213 540.139 256.525C538.652 256.836 537.243 257.382 535.99 257.927L536.538 259.174C537.791 258.628 539.122 258.083 540.452 257.849C541.783 257.615 543.035 257.615 544.131 258.005C546.323 258.784 548.28 261.355 548.906 268.133L550.315 268.055ZM484.718 216.948L460.765 251.071L461.94 251.85L485.893 217.727L484.718 216.948ZM536.93 258.472L532.233 224.972L530.824 225.128L535.521 258.628L536.93 258.472ZM505.932 321.265C516.343 320.331 527.693 312.072 534.112 302.178L532.938 301.399C526.675 311.06 515.717 318.928 505.775 319.785L505.932 321.265ZM534.112 302.178C537.321 297.192 538.73 293.141 539.356 290.336C539.67 288.934 539.748 287.765 539.826 286.986C539.826 286.597 539.826 286.285 539.826 286.129C539.826 286.051 539.826 285.974 539.826 285.896V285.818C539.826 285.818 539.826 285.818 539.122 285.896C538.417 285.974 538.417 285.974 538.417 285.974C538.417 285.974 538.417 285.974 538.417 286.051C538.417 286.129 538.417 286.129 538.417 286.207C538.417 286.363 538.417 286.675 538.417 286.986C538.417 287.687 538.261 288.7 538.026 290.103C537.399 292.751 536.069 296.725 532.938 301.555L534.112 302.178ZM531.998 224.505L511.255 209.936L510.472 211.105L531.216 225.674L531.998 224.505ZM510.628 209.858L485.11 216.636L485.501 217.961L511.02 211.183L510.628 209.858ZM467.184 281.377C469.533 287.999 470.472 292.596 471.568 296.569C472.664 300.542 473.994 303.736 477.047 307.164L478.065 306.229C475.169 303.035 473.994 300.075 472.899 296.179C471.803 292.362 470.863 287.532 468.437 280.91L467.184 281.377ZM477.047 307.164C479.787 310.281 484.953 313.942 490.354 316.825C493.094 318.227 495.912 319.474 498.574 320.253C501.235 321.032 503.74 321.499 505.932 321.265L505.775 319.863C503.897 320.019 501.548 319.629 498.965 318.85C496.382 318.071 493.642 316.903 490.981 315.5C485.658 312.696 480.648 309.112 478.065 306.151L477.047 307.164Z" fill="#313B36"/>
<path d="M540.296 267.198C541.078 268.445 541.548 270.003 541.626 271.561C541.705 273.119 541.392 274.677 540.765 276.079" stroke="#313B36" stroke-width="1.5" stroke-miterlimit="10" stroke-linecap="round"/>
<path d="M452.39 383.513C452.39 383.513 449.963 350.325 451.92 328.9C453.877 307.476 449.963 284.727 450.12 267.12C450.276 249.435 451.685 235.957 464.679 221.077C473.76 210.715 493.407 205.184 505.149 205.418C519.396 201.99 538.965 213.832 545.697 233.62C552.429 253.408 552.429 258.005 555.638 276.001C559.004 294.855 558.848 307.632 563.936 321.733C568.945 335.912 570.902 346.819 570.902 346.819C566.91 342.222 564.484 336.613 544.131 332.562C543.583 332.484 528.476 326.797 526.91 325.55C526.362 319.396 535.364 310.904 534.112 304.048C534.112 304.048 538.104 298.984 539.513 295.167C540.844 291.661 543.192 284.182 543.192 284.182C546.088 281.455 547.341 278.884 547.967 273.976C548.75 267.743 547.184 263.614 544.601 261.433C542.801 259.953 540.061 258.706 537.478 259.875C534.895 261.043 534.66 262.368 534.66 262.368C534.66 262.368 525.423 266.731 516.343 254.343C508.515 243.592 507.967 237.048 507.967 237.048C498.182 239.619 493.407 243.67 484.014 260.888C478.848 270.47 469.219 276.858 469.219 276.858C468.437 276.936 461.157 281.922 466.245 291.739C467.967 295.011 477.595 322.122 477.595 322.122C481.431 344.326 477.517 373.229 479.709 383.357C482.683 396.29 459.983 389.824 452.39 383.513Z" fill="#907D73"/>
<path d="M557.908 207.132C554.073 202.457 543.975 200.899 529.493 202.769L528.554 202.847C522.057 203.782 515.638 205.106 509.376 206.82C484.64 213.52 457.712 226.219 441.587 239.307C440.413 240.242 439.317 241.177 438.221 242.19C428.593 250.837 425.462 258.239 429.376 262.991C432.194 266.497 438.534 268.211 447.536 268.133C447.536 268.133 447.771 267.432 447.536 266.964C439.239 267.042 433.446 265.484 430.941 262.368C427.419 258.005 430.472 251.071 439.552 242.891C440.022 242.424 440.57 241.956 441.118 241.567C457.086 227.855 485.658 214.377 511.411 207.599C517.047 206.119 522.84 204.95 528.711 204.093C542.957 202.146 552.742 203.47 556.343 207.833C559.865 212.196 556.891 219.129 547.732 227.31C546.558 228.4 545.305 229.413 543.975 230.504C544.21 230.893 544.601 231.205 544.914 231.517C546.401 230.348 547.81 229.179 549.063 228.011C558.613 219.285 561.744 211.884 557.908 207.132Z" fill="#C28145"/>
<path d="M548.984 228.322C547.889 227.777 546.714 227.232 545.462 226.764C526.127 218.584 496.069 214.143 471.333 215.468C468.045 215.624 464.836 215.935 461.548 216.325C460.374 216.481 459.2 216.636 458.026 216.87C444.327 219.129 435.795 223.336 433.916 228.79C432.037 234.243 437.125 240.242 448.241 245.54C449.18 246.007 450.041 246.397 451.059 246.786C450.981 246.319 450.902 245.774 450.824 245.306C450.276 245.072 449.728 244.839 449.18 244.527C438.613 239.463 433.759 233.932 435.482 228.946C437.204 223.96 445.266 220.064 458.26 217.961C461.235 217.493 464.21 217.104 467.262 216.87C485.031 215.39 506.323 217.182 524.405 221.311C526.91 221.856 529.258 222.479 531.607 223.181C536.225 224.505 540.609 225.985 544.836 227.777C545.932 228.244 547.028 228.712 548.045 229.257C558.534 234.321 563.466 239.853 561.744 244.839C560.961 247.176 558.691 249.279 555.247 251.071C560.022 250.058 555.325 251.071 555.247 251.071C555.247 251.071 555.56 251.85 555.56 252.24C559.709 250.214 562.37 247.799 563.309 244.995C565.11 239.619 560.022 233.62 548.984 228.322Z" fill="#C28145"/>
<path d="M473.916 196.692L469.219 196.147L467.184 203.626L465.384 195.679L460.139 195.056L464.053 192.096L462.566 184.383L467.184 189.759L472.507 186.642L470.002 192.641L473.916 196.692Z" fill="#C28145"/>
<path d="M436.03 226.375L437.908 223.57L435.403 219.129L439.474 221.233L441.587 218.039L441.509 221.856L445.345 224.038L441.431 224.895L440.883 229.647L439.161 225.518L436.03 226.375Z" fill="#C28145"/>
<path d="M573.955 247.643L576.382 243.982L573.094 238.295L578.339 241.021L581.078 236.892L581 241.8L586.01 244.605L580.922 245.696L580.217 251.928L577.947 246.553L573.955 247.643Z" fill="#C28145"/>
<path d="M509.376 241.878C510.237 246.475 523.153 268.756 534.347 262.446" stroke="#313B36" stroke-width="2" stroke-linecap="round"/>
<path d="M534.346 262.368C536.225 259.096 541.705 257.693 545.227 262.29C549.298 267.588 551.02 281.377 539.121 285.896" stroke="#313B36" stroke-width="1.8" stroke-linecap="round"/>
<path d="M516.812 238.762C517.673 247.955 531.607 260.108 536.695 259.485" stroke="#313B36" stroke-width="2" stroke-linecap="round"/>
<path d="M450.589 273.508C448.867 254.733 453.251 239.775 456.617 231.906C459.982 224.038 473.603 207.288 502.331 204.717" stroke="#313B36" stroke-width="2" stroke-linecap="round"/>
<path d="M452.703 289.401C452.703 289.401 453.172 313.241 452.546 320.876C451.372 334.743 451.059 365.75 452.703 383.279" stroke="#313B36" stroke-width="2" stroke-linecap="round"/>
<path d="M571.059 345.183C571.059 345.183 568.163 335.834 562.605 319.24C557.83 304.905 559.865 297.738 556.734 282.078C554.229 269.535 552.977 250.915 545.306 234.321C538.339 219.207 527.615 205.885 509.376 205.729" stroke="#313B36" stroke-width="2" stroke-linecap="round"/>
<path d="M541.392 303.035C540.374 317.837 546.088 329.446 548.045 332.328" stroke="#313B36" stroke-width="2" stroke-linecap="round"/>
<path d="M472.664 297.66C484.484 330.536 477.36 367.62 480.1 385.149" stroke="#313B36" stroke-width="1.5" stroke-linecap="round"/>
<path d="M463.896 318.383C469.063 339.028 461.783 359.518 468.202 383.357" stroke="#313B36" stroke-width="1.5" stroke-linecap="round"/>
<path d="M486.91 238.295C480.178 241.645 478.143 260.498 469.219 264.004" stroke="#313B36" stroke-width="2" stroke-linecap="round"/>
<path d="M507.81 237.593C502.174 236.658 494.268 242.112 489.102 252.396C484.562 261.511 472.507 280.91 451.763 284.649" stroke="#313B36" stroke-width="2" stroke-linecap="round"/>
<path d="M486.988 285.428C489.102 285.272 490.511 282.624 490.276 279.429C489.963 276.313 488.084 273.82 486.049 273.976C483.936 274.132 482.527 276.781 482.761 279.975C482.996 283.091 484.875 285.584 486.988 285.428Z" fill="#313B36"/>
<path d="M519.082 281.767C521.196 281.767 522.84 279.196 522.918 276.079C522.918 272.885 521.274 270.314 519.161 270.314C517.047 270.314 515.403 272.885 515.325 276.001C515.247 279.118 517.047 281.767 519.082 281.767Z" fill="#313B36"/>
<path d="M502.879 288.778L505.775 290.258L505.462 285.584" fill="#313B36"/>
<path d="M511.881 299.919C512.194 300.854 512.037 301.945 511.333 302.957C511.02 303.425 510.55 303.892 510.002 304.282C509.376 304.749 508.671 305.139 507.889 305.372C507.106 305.606 506.245 305.684 505.462 305.606C504.758 305.528 504.21 305.372 503.662 305.139C502.488 304.671 501.783 303.814 501.548 302.879C501.313 302.178 501.392 301.321 501.705 300.542C501.783 300.308 501.94 300.075 502.096 299.841C502.409 299.374 502.879 298.906 503.427 298.517C504.053 298.049 504.758 297.66 505.54 297.426C506.323 297.192 507.184 297.114 507.967 297.192C508.671 297.27 509.219 297.426 509.767 297.66C510.002 297.738 510.237 297.893 510.472 298.049C511.255 298.517 511.724 299.14 511.881 299.919Z" fill="#C28145"/>
<path d="M479.004 271.405C479.395 271.405 479.865 271.327 480.257 271.093C480.648 270.938 480.961 270.86 481.352 270.704C482.057 270.392 482.761 270.081 483.466 269.691C484.875 268.912 486.284 267.977 487.536 266.886C488.241 266.263 488.945 265.562 489.65 264.861C489.963 264.549 489.885 263.77 489.572 263.458C489.18 263.069 488.789 263.147 488.476 263.458L488.241 263.692L488.163 263.77C488.241 263.692 488.084 263.848 488.163 263.77C488.006 263.926 487.849 264.082 487.693 264.238C487.38 264.549 487.067 264.783 486.832 265.017C486.206 265.562 485.579 266.029 484.953 266.497C484.64 266.731 484.327 266.964 483.936 267.12C483.779 267.198 483.622 267.354 483.466 267.432L483.231 267.588L483.153 267.665H483.075C482.37 268.055 481.744 268.367 481.039 268.678C480.648 268.834 480.257 268.99 479.865 269.146C479.395 269.301 479.004 269.457 478.534 269.691C478.378 269.769 478.3 269.925 478.221 270.158C478.143 270.314 478.143 270.548 478.221 270.704C478.3 270.86 478.378 271.015 478.456 271.171C478.691 271.327 478.848 271.405 479.004 271.405Z" fill="#313B36"/>
<path d="M525.11 265.718C524.718 265.874 524.249 265.951 523.857 265.951C523.466 265.951 523.075 265.951 522.683 265.951C521.9 265.951 521.118 265.874 520.335 265.796C518.769 265.562 517.125 265.25 515.56 264.705C514.621 264.393 513.76 264.004 512.82 263.614C512.429 263.458 512.194 262.757 512.351 262.29C512.507 261.822 512.977 261.744 513.368 261.9L513.681 262.056L513.838 262.134C513.916 262.212 513.681 262.056 513.838 262.134C513.994 262.212 514.229 262.29 514.386 262.368C514.777 262.524 515.169 262.679 515.482 262.835C516.264 263.069 516.969 263.303 517.752 263.536C518.143 263.614 518.535 263.692 518.926 263.77C519.082 263.77 519.317 263.848 519.474 263.848L519.709 263.926C519.787 263.926 519.787 263.926 519.865 263.926H519.943C520.726 264.004 521.509 264.082 522.214 264.082C522.605 264.082 523.075 264.082 523.466 264.082C523.936 264.004 524.405 264.082 524.875 264.082C525.032 264.16 525.188 264.237 525.266 264.393C525.345 264.549 525.423 264.705 525.501 264.939C525.501 265.094 525.501 265.328 525.423 265.484C525.345 265.64 525.266 265.718 525.11 265.718Z" fill="#313B36"/>
<path d="M667.341 405.171C673.994 401.588 678.691 397.536 680.726 393.096C680.805 394.108 680.805 395.199 680.883 396.446C681.118 401.899 681.196 409.612 680.648 418.961C679.552 437.581 676.03 462.433 666.245 487.363C656.46 512.293 640.413 537.224 614.347 556.155C588.28 575.008 552.037 587.863 501.783 588.486C432.429 589.265 387.576 563.556 359.709 525.693C332.703 488.921 321.587 440.697 319.865 393.797C322.527 398.315 327.85 402.6 335.208 406.418C344.914 411.482 358.378 416 374.738 419.74C407.458 427.219 451.685 431.504 500.296 430.725C550.394 429.868 595.717 425.505 628.437 418.182C644.797 414.598 658.104 410.235 667.341 405.171Z" fill="#E7E1D2" stroke="#313B36" stroke-width="2"/>
<path opacity="0.4" d="M346.714 508.32C329.572 477.079 322.84 432.75 320.022 395.511L351.411 411.248C353.916 421.765 354.307 467.029 383.27 511.125C419.435 566.205 489.024 589.889 489.024 589.889C466.167 589.343 438.848 582.487 430.55 579.683C419.904 576.021 373.407 557.012 346.714 508.32Z" fill="black" fill-opacity="0.4"/>
<path d="M547.106 378.138C550.237 388.265 554.699 416.624 554.699 416.624C554.699 416.624 544.836 413.897 539.904 411.715C536.616 410.313 532.155 425.972 530.746 430.881C530.276 432.439 530.354 435.243 530.354 435.243C530.354 435.243 583.27 470.301 597.595 450.903C611.998 431.504 609.728 429.244 601.352 399.796C593.524 372.372 584.131 352.818 573.955 345.572C563.779 338.327 561.274 336.224 554.229 334.899C555.325 340.275 542.722 363.803 547.106 378.138Z" fill="#D8C5A8"/>
<path fill-rule="evenodd" clip-rule="evenodd" d="M590.785 369.646C591.176 369.49 591.646 369.724 591.803 370.191C592.742 373.229 594.777 379.15 597.125 385.928C598.143 388.811 599.161 391.927 600.178 394.965C603.622 405.093 606.988 415.299 608.006 419.662C611.763 435.867 601.274 448.176 596.343 453.24C596.03 453.551 595.56 453.551 595.247 453.24C594.934 452.928 594.934 452.461 595.247 452.149C600.178 447.085 610.041 435.321 606.519 419.974C605.579 415.767 602.213 405.639 598.769 395.433C597.752 392.395 596.656 389.356 595.716 386.396C593.368 379.618 591.333 373.697 590.393 370.581C590.159 370.191 590.393 369.801 590.785 369.646Z" fill="#313B36"/>
<path fill-rule="evenodd" clip-rule="evenodd" d="M554.542 387.642C554.934 387.486 555.403 387.72 555.56 388.11C557.517 393.797 560.1 400.653 562.213 406.106C563.231 408.833 564.17 411.248 564.875 412.962C565.188 413.819 565.501 414.52 565.658 414.988C565.736 415.221 565.814 415.377 565.892 415.533L565.971 415.689C565.971 415.689 565.971 415.689 565.344 415.922L565.971 415.689C566.127 416.078 565.971 416.546 565.501 416.701C565.031 416.857 564.64 416.624 564.483 416.234L565.11 416C564.483 416.234 564.483 416.234 564.483 416.234L564.405 416.078C564.327 415.922 564.249 415.767 564.17 415.533C564.014 415.065 563.701 414.364 563.388 413.507C562.761 411.793 561.822 409.456 560.726 406.651C558.613 401.198 556.029 394.264 554.072 388.577C553.916 388.265 554.151 387.798 554.542 387.642Z" fill="#313B36"/>
<path fill-rule="evenodd" clip-rule="evenodd" d="M532.389 408.521C532.624 408.21 533.172 408.132 533.485 408.365C535.051 409.612 537.712 410.858 541.626 412.261C545.54 413.663 550.55 415.143 556.812 416.857C562.526 418.415 565.971 419.818 568.006 420.831C569.024 421.376 569.65 421.765 570.119 422.077C570.354 422.233 570.511 422.311 570.589 422.467C570.667 422.544 570.667 422.544 570.746 422.544C570.746 422.544 570.746 422.544 570.198 423.012L570.746 422.544C571.059 422.856 570.98 423.324 570.667 423.635C570.354 423.947 569.885 423.869 569.571 423.557C569.571 423.557 569.571 423.557 569.493 423.479C569.415 423.401 569.337 423.324 569.18 423.246C568.867 423.012 568.241 422.622 567.301 422.155C565.423 421.22 562.057 419.818 556.421 418.26C550.159 416.546 545.07 415.065 541.157 413.663C537.243 412.261 534.346 410.936 532.546 409.534C532.233 409.378 532.155 408.833 532.389 408.521ZM569.65 423.635C569.65 423.635 569.65 423.635 570.198 423.09L569.65 423.635Z" fill="#313B36"/>
<path d="M646.284 351.649C625.384 370.658 592.977 369.178 573.877 348.455C554.777 327.654 556.264 295.4 577.165 276.391C598.065 257.382 630.472 258.862 649.572 279.585C668.671 300.308 667.184 332.64 646.284 351.649Z" fill="#EFEDE7" fill-opacity="0.4"/>
<path d="M558.691 342.534L576.147 361.543L457.869 469.133C450.824 475.521 441.274 476.456 436.421 471.158C431.568 465.861 433.368 456.434 440.413 450.046L558.691 342.534Z" fill="#6F695D"/>
<path fill-rule="evenodd" clip-rule="evenodd" d="M573.955 361.465L558.613 344.715L441.431 451.214C438.143 454.175 436.108 457.836 435.481 461.342C434.855 464.77 435.56 467.964 437.595 470.146C439.63 472.327 442.683 473.34 446.206 473.028C449.728 472.717 453.564 471.003 456.851 468.042L573.955 361.465ZM558.691 342.534L440.335 450.124C433.29 456.512 431.568 465.939 436.343 471.236C441.196 476.534 450.746 475.599 457.791 469.211L576.147 361.621L558.691 342.534Z" fill="#313B36"/>
<path fill-rule="evenodd" clip-rule="evenodd" d="M573.094 361.855L558.143 345.572L441.587 451.526C435.56 456.979 434.072 465.082 438.221 469.6C442.37 474.119 450.589 473.34 456.616 467.886L573.094 361.855ZM558.691 342.534L440.335 450.124C433.29 456.512 431.568 465.939 436.343 471.236C441.196 476.534 450.746 475.599 457.791 469.211L576.147 361.621L558.691 342.534Z" fill="#313B36"/>
<path fill-rule="evenodd" clip-rule="evenodd" d="M562.996 358.427C587.575 385.149 629.376 387.019 656.303 362.556C683.231 338.093 685.11 296.647 660.53 269.925C635.951 243.203 594.151 241.333 567.223 265.796C540.296 290.181 538.417 331.705 562.996 358.427ZM574.738 346.351C594.151 367.464 623.583 366.296 644.562 350.403C665.775 331.16 664.679 301.321 648.397 282.312C628.984 261.199 599.709 259.953 578.417 279.196C560.648 295.167 555.325 325.239 574.738 346.351Z" fill="#E7E1D2"/>
<path fill-rule="evenodd" clip-rule="evenodd" d="M645.501 351.571C667.497 331.627 666.323 300.854 649.493 281.221C629.532 259.485 599.239 258.161 577.321 278.027C559.082 294.543 553.446 325.628 573.564 347.442C593.603 369.178 623.975 367.932 645.501 351.571ZM655.286 361.387C628.984 385.227 588.202 383.435 564.17 357.336C540.139 331.237 542.018 290.726 568.319 266.886C594.62 243.047 635.403 244.839 659.435 270.938C683.388 297.036 681.509 337.548 655.286 361.387ZM656.303 362.556C629.376 387.019 587.575 385.149 562.996 358.427C538.417 331.705 540.296 290.258 567.223 265.796C594.151 241.333 635.951 243.203 660.53 269.925C685.11 296.647 683.231 338.093 656.303 362.556ZM644.562 350.325C623.583 366.296 594.151 367.386 574.738 346.274C555.325 325.161 560.726 295.167 578.417 279.118C599.63 259.875 628.984 261.121 648.397 282.234C664.679 301.321 665.775 331.082 644.562 350.325Z" fill="#313B36"/>
<path d="M491.137 403.925C491.92 403.613 492.781 403.691 492.781 403.691C492.781 403.691 492.155 403.224 491.998 403.146C491.685 402.99 491.45 402.678 491.294 402.445C491.059 402.133 490.902 401.821 490.902 401.432C490.824 401.042 490.824 400.731 490.902 400.341C490.981 399.952 491.215 399.64 491.529 399.328C492.076 398.783 492.938 398.471 493.799 398.316C495.051 398.16 496.382 398.471 497.634 398.783C499.669 399.328 501.705 399.874 503.74 400.497C504.757 400.809 505.775 401.12 506.793 401.432L508.28 401.899C508.593 401.977 509.141 402.289 509.376 401.899C509.611 401.51 508.75 400.886 508.437 400.575C507.967 400.185 504.366 398.16 504.366 398.16L501.235 396.602C500.452 396.602 499.513 399.017 498.887 398.549C496.303 398.316 497.321 394.264 498.887 393.096C500.452 391.927 502.409 391.538 504.757 392.317C511.646 394.576 513.446 395.277 518.926 401.432L519.239 401.743C520.804 403.613 522.213 405.561 523.779 407.431C523.936 407.586 524.014 407.742 524.17 407.976C525.188 409.3 526.362 410.547 527.693 411.638C528.789 412.573 530.041 413.274 531.372 413.741C531.294 414.131 531.294 414.52 531.215 414.832C529.65 419.818 527.849 424.726 525.736 429.556C523.544 429.245 521.274 429.011 519.161 428.699C516.656 428.31 514.151 427.686 511.959 426.518L511.724 426.362C509.298 424.96 507.341 422.856 504.992 421.298C502.566 419.662 499.591 418.493 496.773 417.559C495.442 417.091 494.112 416.702 492.781 416.39C491.998 416.234 491.137 416 490.667 415.377C490.667 415.377 490.589 415.299 490.589 415.221C490.198 414.598 490.354 413.897 490.746 413.274C490.824 413.196 490.902 413.04 490.981 412.962C491.842 412.183 492.859 412.183 493.955 412.339C495.364 412.572 496.695 412.806 498.104 413.118L498.417 413.196C499.591 413.429 500.765 413.741 501.939 414.131C502.487 414.286 503.114 414.442 503.662 414.676C503.975 414.754 504.366 414.988 504.679 414.832C505.619 414.209 503.27 412.962 502.801 412.65C501.861 412.027 500.922 411.482 499.904 411.014C497.556 409.846 494.973 409.067 492.624 407.898C492.076 407.664 491.529 407.275 491.059 406.885C490.511 406.418 490.198 405.795 490.276 405.093C490.354 404.782 490.433 404.548 490.589 404.314C490.667 404.236 490.902 404.081 491.137 403.925Z" fill="#EFEDE7"/>
<path fill-rule="evenodd" clip-rule="evenodd" d="M491.137 403.925C491.294 403.847 491.45 403.847 491.529 403.769C492.155 403.613 492.781 403.691 492.781 403.691C492.781 403.691 492.155 403.224 491.998 403.146C491.763 402.99 491.607 402.834 491.45 402.678C491.372 402.6 491.294 402.523 491.294 402.445C491.059 402.133 490.902 401.821 490.902 401.432C490.824 401.042 490.824 400.731 490.902 400.341C490.981 399.952 491.215 399.64 491.529 399.328C492.077 398.783 492.938 398.471 493.799 398.316C494.738 398.238 495.677 398.316 496.617 398.549C496.93 398.627 497.321 398.705 497.634 398.783C497.947 398.861 498.339 398.939 498.652 399.017C498.73 399.017 498.808 399.095 498.887 399.095C499.356 399.25 499.748 399.328 500.217 399.484C501.392 399.796 502.566 400.185 503.74 400.497C504.758 400.809 505.775 401.12 506.793 401.432L508.28 401.899C508.358 401.899 508.358 401.977 508.437 401.977C508.75 402.133 509.141 402.289 509.376 401.899C509.533 401.666 509.219 401.276 508.828 400.964C508.75 400.886 508.75 400.886 508.671 400.809L508.593 400.731C508.515 400.653 508.437 400.653 508.437 400.575C507.967 400.185 504.366 398.16 504.366 398.16L501.235 396.602C500.844 396.602 500.452 397.147 500.061 397.692C499.983 397.77 499.904 397.926 499.826 398.004C499.513 398.471 499.2 398.783 498.887 398.549C498.339 398.471 497.947 398.316 497.713 398.004C497.556 397.848 497.478 397.614 497.399 397.381C497.008 396.056 497.791 393.875 498.887 393.096C500.452 391.927 502.409 391.538 504.758 392.317C511.646 394.576 513.446 395.277 518.926 401.432L519.239 401.743C520.257 402.912 521.118 404.081 522.057 405.249C522.605 405.95 523.153 406.729 523.779 407.431C523.936 407.586 524.014 407.742 524.17 407.976C525.188 409.3 526.362 410.547 527.693 411.638C528.789 412.573 530.041 413.274 531.372 413.741C531.372 413.897 531.294 414.131 531.294 414.286C531.294 414.442 531.215 414.676 531.215 414.832C529.65 419.818 527.85 424.726 525.736 429.556C524.64 429.4 523.544 429.245 522.448 429.089C521.352 428.933 520.257 428.855 519.161 428.621C516.656 428.232 514.151 427.609 511.959 426.44L511.724 426.284C510.315 425.505 509.141 424.492 507.889 423.479C506.949 422.7 506.01 421.921 504.992 421.22C502.566 419.584 499.591 418.416 496.773 417.481C495.442 417.013 494.112 416.624 492.781 416.312C491.998 416.156 491.137 415.923 490.668 415.299L490.589 415.221C490.198 414.598 490.354 413.897 490.746 413.274C490.824 413.196 490.902 413.04 490.981 412.962C491.842 412.183 492.859 412.183 493.955 412.339C495.364 412.572 496.695 412.806 498.104 413.118L498.417 413.196C499.591 413.429 500.765 413.741 501.94 414.131C502.487 414.286 503.114 414.442 503.662 414.676C503.74 414.676 503.74 414.676 503.818 414.754H503.896C504.21 414.832 504.444 414.988 504.758 414.832C505.149 414.52 504.914 414.131 504.523 413.741C504.131 413.352 503.505 413.04 503.192 412.806C503.114 412.728 503.035 412.728 502.957 412.65C502.018 412.027 501.078 411.482 500.061 411.014C498.887 410.469 497.713 410.002 496.538 409.534C495.286 408.989 494.033 408.521 492.781 407.898C492.233 407.664 491.685 407.275 491.215 406.885C490.668 406.418 490.354 405.795 490.433 405.093C490.511 404.782 490.589 404.548 490.746 404.314C490.668 404.236 490.902 404.081 491.137 403.925ZM491.372 405.405C491.372 405.327 491.45 405.249 491.45 405.093C491.529 405.016 491.529 404.938 491.607 404.938C491.842 404.86 492.077 404.86 492.311 404.782C492.468 404.782 492.546 404.782 492.624 404.782H492.703L496.773 405.016L493.407 402.678L493.329 402.6C493.251 402.522 493.172 402.523 493.094 402.445C492.938 402.289 492.703 402.211 492.624 402.133C492.468 402.055 492.311 401.899 492.233 401.743C492.155 401.588 492.077 401.432 491.998 401.198C491.998 401.042 491.998 400.809 491.998 400.653C492.077 400.497 492.155 400.263 492.311 400.185C492.624 399.874 493.172 399.64 493.877 399.562C494.895 399.484 495.99 399.718 497.243 400.029C499.278 400.575 501.313 401.12 503.349 401.743C504.366 402.055 505.384 402.367 506.401 402.678L507.889 403.146H507.967C507.967 403.146 508.045 403.146 508.123 403.224C508.202 403.302 508.437 403.302 508.593 403.379C508.828 403.457 509.141 403.457 509.454 403.379C509.846 403.302 510.159 402.99 510.315 402.678C510.628 402.133 510.55 401.588 510.394 401.276C510.237 400.964 510.08 400.731 509.924 400.575C509.689 400.341 509.298 399.952 509.219 399.952C509.063 399.796 508.906 399.718 508.75 399.64C508.593 399.562 508.358 399.406 508.202 399.328C507.81 399.095 507.262 398.783 506.793 398.549C506.323 398.238 505.853 398.004 505.462 397.848C505.305 397.77 505.149 397.692 505.071 397.614L504.914 397.536H504.836C504.836 397.536 504.836 397.536 504.288 398.549L504.836 397.536L501.47 395.9H501.235C500.844 395.9 500.531 396.056 500.296 396.212C500.061 396.368 499.904 396.524 499.748 396.679C499.513 396.913 499.278 397.225 499.122 397.459L499.043 397.536C498.965 397.692 498.887 397.77 498.808 397.848C498.652 397.848 498.652 397.77 498.574 397.692C498.495 397.536 498.417 397.303 498.495 396.835C498.574 396.368 498.73 395.9 498.887 395.433C499.122 394.966 499.356 394.654 499.591 394.498C500.844 393.563 502.409 393.252 504.366 393.875C507.81 395.043 509.846 395.745 511.724 396.835C513.603 398.004 515.325 399.562 517.987 402.6L518.3 402.912C519.239 404.003 520.1 405.171 521.039 406.34C521.587 407.041 522.214 407.82 522.761 408.599C522.918 408.755 523.075 408.989 523.153 409.145C524.249 410.547 525.501 411.793 526.832 412.962C527.771 413.741 528.867 414.364 529.963 414.91V414.988C528.476 419.662 526.832 424.259 524.875 428.699C524.092 428.621 523.231 428.466 522.448 428.388C521.352 428.232 520.257 428.154 519.161 427.92C516.656 427.531 514.386 426.985 512.351 425.817L512.116 425.661C511.02 425.038 509.924 424.181 508.906 423.324C508.75 423.246 508.593 423.09 508.515 423.012C507.576 422.233 506.558 421.454 505.54 420.675C502.957 418.961 499.826 417.714 497.008 416.779C495.677 416.312 494.268 415.923 492.938 415.533C492.546 415.455 492.233 415.377 491.92 415.221C491.685 415.143 491.529 414.988 491.45 414.91C491.372 414.832 491.372 414.52 491.529 414.286C491.529 414.209 491.607 414.209 491.607 414.131C491.998 413.741 492.546 413.663 493.642 413.819C494.973 414.053 496.304 414.286 497.713 414.52L498.026 414.598C499.2 414.832 500.296 415.143 501.47 415.455C502.018 415.611 502.566 415.767 503.192 416C503.192 416 503.27 416 503.27 416.078H503.349C503.427 416.078 503.583 416.156 503.74 416.234C504.053 416.312 504.679 416.39 505.227 416C505.54 415.845 505.775 415.533 505.932 415.066C506.01 414.676 505.932 414.286 505.775 413.975C505.54 413.507 505.149 413.118 504.836 412.884C504.366 412.495 503.662 412.105 503.427 411.949C503.349 411.949 503.349 411.871 503.349 411.871C502.409 411.248 501.392 410.703 500.374 410.157C499.2 409.612 497.947 409.067 496.773 408.599L496.617 408.521C495.364 408.054 494.19 407.509 493.094 406.963C492.624 406.729 492.233 406.496 491.842 406.106C491.45 405.872 491.372 405.639 491.372 405.405Z" fill="#313B36"/>
<path fill-rule="evenodd" clip-rule="evenodd" d="M492.624 403.691C492.703 403.379 493.016 403.224 493.329 403.301C495.286 403.769 498.339 404.626 501.078 405.717C502.487 406.262 503.818 406.807 504.914 407.431C506.01 408.054 506.949 408.755 507.497 409.456C507.654 409.69 507.654 410.079 507.341 410.235C507.106 410.391 506.714 410.391 506.48 410.079C506.088 409.534 505.305 408.989 504.288 408.365C503.27 407.82 501.94 407.197 500.609 406.651C497.869 405.639 494.894 404.704 493.016 404.236C492.703 404.314 492.546 404.003 492.624 403.691Z" fill="#313B36"/>
<path d="M532.233 409.534C534.581 410.936 543.035 414.364 543.035 414.364L535.834 424.258L531.607 435.321C531.607 435.321 530.041 435.633 527.223 433.374C524.405 431.114 522.213 430.491 521.666 428.777C521.118 427.219 522.605 425.427 524.014 421.532C526.206 415.221 529.415 407.82 532.233 409.534Z" fill="#907D73"/>
<path fill-rule="evenodd" clip-rule="evenodd" d="M541.392 416.312C541.392 416.39 541.313 416.39 541.313 416.468C541.235 416.546 541.157 416.701 541.078 416.857C540.844 417.169 540.609 417.636 540.217 418.182C539.513 419.35 538.495 420.908 537.478 422.7C535.442 426.362 533.329 430.881 532.859 434.386C532.781 434.776 532.39 435.088 531.998 435.01C531.529 434.932 531.294 434.542 531.294 434.153C531.842 430.335 534.033 425.661 536.069 421.921C537.086 420.051 538.104 418.415 538.808 417.325C539.2 416.779 539.513 416.312 539.669 416C539.748 415.844 539.826 415.689 539.904 415.611C539.904 415.533 539.983 415.533 539.983 415.533C539.983 415.533 539.983 415.533 540.609 416L539.983 415.533C540.217 415.221 540.687 415.143 541.078 415.377C541.548 415.455 541.626 415.922 541.392 416.312Z" fill="#313B36"/>
<path d="M523.309 431.192C523.309 431.192 558.065 451.136 570.981 454.954C585.697 459.317 592.82 454.954 592.82 454.954" stroke="#313B36" stroke-width="2" stroke-miterlimit="10" stroke-linecap="round"/>
</g>
<path d="M341 189.369C341 189.369 346.323 172.229 412.625 175.813C447.771 177.761 496.147 186.798 531.294 196.692C573.72 208.612 614.581 224.505 633.29 234.243C690.12 263.926 682.292 280.676 682.292 280.676" stroke="#313B36" stroke-width="2"/>
</g>
<path d="M212.418 461.237V517.051H156.85V461.237V460.237H155.85H1V442.346L153.362 208.644H212.418V407.621V408.621H213.418H248.776V460.237H213.418H212.418V461.237Z" stroke="#313B36" stroke-width="2"/>
<path d="M154.851 293.019V406.622H85.1101L154.851 293.019Z" stroke="#313B36" stroke-width="2"/>
<path d="M922.641 461.238V517.051H867.073V461.238V460.238H866.073H711.224V442.346L863.585 208.645H922.641V407.622V408.622H923.641H959V460.238H923.641H922.641V461.238Z" stroke="#313B36" stroke-width="2"/>
<path d="M866.7 293.393V406.996H796.959L866.7 293.393Z" stroke="#313B36" stroke-width="2"/>
<defs>
<clipPath id="clip0_1808_10862">
<rect width="400" height="536" fill="white" transform="translate(290.667 54.0445)"/>
</clipPath>
</defs>
</svg>
