<?xml version="1.0" encoding="utf-8"?>
<!-- Generator: Adobe Illustrator 25.3.1, SVG Export Plug-In . SVG Version: 6.00 Build 0)  -->
<svg version="1.1" id="圖層_1" xmlns="http://www.w3.org/2000/svg" xmlns:xlink="http://www.w3.org/1999/xlink" x="0px" y="0px"
	 viewBox="0 0 255.5 191.7" style="enable-background:new 0 0 255.5 191.7;" xml:space="preserve">
<style type="text/css">
	.st0{fill:#F5F3ED;}
	.st1{fill:#FFFFFF;filter:url(#Adobe_OpacityMaskFilter);}
	.st2{mask:url(#path-1-inside-1_1210_9012_1_);fill:#313B36;}
	.st3{fill:#313B36;}
	.st4{fill:#E7E1D2;stroke:#313B36;stroke-width:1.5;}
	.st5{fill-rule:evenodd;clip-rule:evenodd;fill:#313B36;}
	.st6{fill:#C28145;}
	.st7{clip-path:url(#SVGID_2_);}
	.st8{fill:#EFEDE7;}
	.st9{fill:none;stroke:#313B36;stroke-width:1.5;}
	.st10{fill:none;stroke:#313B36;stroke-width:1.5;stroke-linecap:round;}
	.st11{fill:#EFEDE7;stroke:#313B36;stroke-width:1.5;}
</style>
<path class="st0" d="M191.9,128.6l-1.2,9L88.8,190.5c0,0-68.6-43.5-70.2-46.6C17,140.7,0.9,56.7,0.9,54.3l5.2-7.2"/>
<defs>
	<filter id="Adobe_OpacityMaskFilter" filterUnits="userSpaceOnUse" x="-0.6" y="45.6" width="194" height="146.6">
		<feColorMatrix  type="matrix" values="1 0 0 0 0  0 1 0 0 0  0 0 1 0 0  0 0 0 1 0"/>
	</filter>
</defs>
<mask maskUnits="userSpaceOnUse" x="-0.6" y="45.6" width="194" height="146.6" id="path-1-inside-1_1210_9012_1_">
	<path class="st1" d="M191.9,128.6l-1.2,9L88.8,190.5c0,0-68.6-43.5-70.2-46.6C17,140.7,0.9,56.7,0.9,54.3l5.2-7.2"/>
</mask>
<path class="st2" d="M193.4,128.8c0.1-0.8-0.5-1.6-1.3-1.7c-0.8-0.1-1.6,0.5-1.7,1.3L193.4,128.8z M190.7,137.6l0.7,1.3l0.7-0.4
	l0.1-0.8L190.7,137.6z M88.8,190.5l-0.8,1.3l0.7,0.5l0.8-0.4L88.8,190.5z M0.9,54.3l-1.2-0.9l-0.3,0.4v0.5H0.9z M7.3,48
	c0.5-0.7,0.3-1.6-0.3-2.1c-0.7-0.5-1.6-0.3-2.1,0.3L7.3,48z M190.4,128.4l-1.2,9l3,0.4l1.2-9L190.4,128.4z M190,136.3L88.2,189.1
	l1.4,2.7l101.9-52.9L190,136.3z M88.8,190.5c0.8-1.3,0.8-1.3,0.8-1.3c0,0,0,0,0,0c0,0,0,0,0,0c0,0,0,0,0,0c0,0-0.1-0.1-0.1-0.1
	c-0.1-0.1-0.3-0.2-0.6-0.4c-0.5-0.3-1.2-0.8-2.2-1.4c-1.9-1.2-4.6-2.9-7.8-5c-6.5-4.1-15.1-9.7-23.8-15.3
	c-8.7-5.6-17.4-11.3-24-15.9c-3.3-2.3-6.1-4.2-8.1-5.7c-1-0.7-1.8-1.3-2.4-1.8c-0.3-0.2-0.5-0.4-0.6-0.5c-0.2-0.2-0.1-0.2-0.1,0
	l-2.7,1.4c0.2,0.3,0.4,0.6,0.6,0.8c0.2,0.2,0.5,0.5,0.8,0.7c0.6,0.5,1.5,1.2,2.5,1.9c2.1,1.5,4.9,3.5,8.2,5.7
	c6.7,4.5,15.4,10.3,24.1,15.9c8.7,5.6,17.3,11.2,23.8,15.3c3.2,2.1,5.9,3.8,7.8,5c0.9,0.6,1.7,1.1,2.2,1.4c0.3,0.2,0.4,0.3,0.6,0.4
	c0.1,0,0.1,0.1,0.1,0.1c0,0,0,0,0,0c0,0,0,0,0,0c0,0,0,0,0,0C88,191.7,88,191.7,88.8,190.5z M19.9,143.2c0,0,0,0-0.1-0.3
	c-0.1-0.2-0.2-0.5-0.3-0.9c-0.2-0.8-0.5-1.8-0.7-3.1c-0.6-2.6-1.3-6.1-2.2-10.3c-1.7-8.3-3.9-19.2-6-30.1
	C8.5,87.7,6.5,76.8,4.9,68.6C4.2,64.5,3.5,61,3.1,58.4c-0.2-1.3-0.4-2.3-0.5-3c-0.1-0.4-0.1-0.7-0.1-0.9c0-0.3,0-0.3,0-0.3h-3
	c0,0.2,0,0.4,0.1,0.7c0,0.2,0.1,0.6,0.1,0.9c0.1,0.8,0.3,1.8,0.5,3.1c0.4,2.5,1.1,6,1.8,10.2c1.5,8.3,3.6,19.1,5.7,30
	c2.1,10.9,4.3,21.7,6,30.1c0.9,4.2,1.6,7.7,2.2,10.4c0.3,1.3,0.6,2.4,0.8,3.2c0.1,0.4,0.2,0.8,0.3,1c0.1,0.2,0.2,0.5,0.3,0.8
	L19.9,143.2z M2.1,55.2L7.3,48l-2.4-1.8l-5.2,7.2L2.1,55.2z"/>
<path class="st3" d="M88.7,189.3c-0.2,0-0.5-0.1-0.6-0.2c-0.2-0.1-0.3-0.2-0.3-0.3c0-0.1,0.1-9,0.3-12c0-0.1,0.1-0.2,0.3-0.3
	c0.2-0.1,0.4-0.1,0.7-0.1c0.2,0,0.5,0.1,0.7,0.2c0.2,0.1,0.3,0.2,0.3,0.3c-0.2,3-0.3,11.9-0.3,12c0,0.1,0,0.1-0.1,0.2
	s-0.1,0.1-0.2,0.1c-0.1,0-0.2,0.1-0.3,0.1C89,189.3,88.9,189.3,88.7,189.3L88.7,189.3z"/>
<path class="st4" d="M140,103.6l0,0.5l0.4,0.2 M140,103.6L140,103.6L140,103.6L140,103.6l0-0.2l-0.1-0.6c0-0.3-0.1-0.7-0.1-1.2
	c0-0.3-0.1-0.6-0.1-1c-0.2-1.9-0.4-4.7-0.7-8c-0.6-6.6-1.5-15.4-2.3-24.4c-0.9-9-1.7-18-2.5-25.1c-0.4-3.5-0.7-6.6-0.9-8.9
	c-0.2-2-0.4-3.3-0.5-4c-0.2,0-0.5-0.1-0.9-0.1c-0.9-0.1-2.3,0-4.1,0.1c-3.5,0.2-8.5,0.7-14.5,1.4c-12,1.4-27.9,3.7-43.7,6.1
	c-15.9,2.4-31.7,4.9-43.6,6.8c-5.9,1-10.9,1.8-14.4,2.3c-1.7,0.3-3.1,0.5-4,0.7c-0.4,0.1-0.7,0.1-1,0.2c0,0.1,0,0.3,0,0.6
	c0,0.7,0.1,1.7,0.3,2.9c0.3,2.5,0.9,6,1.7,10.2c1.6,8.4,3.9,19.4,6.3,30.5c1.4,6.4,2.8,12.8,4.1,18.8c1,4.4,1.8,8.5,2.6,12.2
	c0.9,4.3,1.7,8,2.3,10.8c0.3,1.4,0.5,2.5,0.6,3.4c0.1,0.8,0.2,1.4,0.2,1.7c0,0,0,0.1,0.1,0.1c0.1,0.1,0.2,0.3,0.5,0.5
	c0.4,0.5,1.1,1,2,1.8c1.8,1.4,4.3,3.2,7.3,5.3c6.1,4.1,14.2,9.3,22.3,14.3c8.1,5,16.2,10,22.3,13.6c3,1.8,5.6,3.3,7.4,4.4
	c0.9,0.5,1.6,0.9,2.1,1.2l0.4,0.2l0.8-0.4c0.7-0.4,1.8-0.9,3.2-1.5c2.8-1.3,6.7-3.2,11.4-5.6c9.5-4.6,22.1-10.8,34.9-17.1
	c12.7-6.3,25.5-12.8,35.3-17.9c4.9-2.6,9-4.8,12-6.5c1.5-0.8,2.7-1.6,3.5-2.1c0.4-0.3,0.8-0.5,1-0.7c0.1-0.1,0.2-0.2,0.3-0.2
	c0,0,0-0.1-0.1-0.2c-0.2-0.3-0.6-0.6-1.2-1.1c-1.2-0.9-3-2-5.4-3.3c-4.7-2.5-11.1-5.5-17.6-8.4c-6.5-2.9-13.1-5.6-18.1-7.7
	c-2.5-1-4.6-1.9-6-2.4c-0.7-0.3-1.3-0.5-1.7-0.7c-0.2-0.1-0.3-0.1-0.4-0.2l-0.1,0l0,0l0,0l0,0 M191.2,128.3
	C191.2,128.3,191.2,128.3,191.2,128.3C191.3,128.3,191.3,128.3,191.2,128.3z"/>
<path class="st3" d="M87.6,166c-0.2,0-0.4,0-0.6-0.1c-2-0.8-11.7-6.9-21.5-13.3c-18.6-12.5-18.4-14-18.3-14.5c0-0.2,0.2-0.4,0.3-0.5
	c0.2-0.1,0.4-0.2,0.6-0.2c4.5-1.5,83.9-27.6,90.1-27.6c0.3,0,0.5,0.1,0.7,0.2c3.5,2.2,7.1,4.2,10.9,6.1c12.2,6.5,20.3,10.8,20.7,13
	c0,0.2,0,0.3,0,0.5c-0.1,0.2-0.1,0.3-0.3,0.4C167.5,132.6,94.2,166,87.6,166z M87.5,164.9h0.1c6.5,0,79.1-33.1,81.8-35.7
	c-0.2-1.6-13.1-8.4-20-12.1c-3.8-1.9-7.4-3.9-11-6.1c-6.5,0.1-85.6,26.1-89.7,27.5c1,1.3,6.1,5.5,18.2,13.5
	C76,158.1,85.6,164.1,87.5,164.9L87.5,164.9z"/>
<path class="st0" d="M36.7,128.2l94.9-26l-7.1-63.8c0,0-101.5,14.6-102,15.9C22.1,55.8,35.3,128.7,36.7,128.2z"/>
<path class="st5" d="M30.1,59.3c-0.3,0.1-0.5,0.4-0.5,0.6c0.1,0.3,0.4,0.5,0.7,0.4s0.5-0.4,0.5-0.6C30.7,59.5,30.4,59.3,30.1,59.3z
	 M28.4,60.2c-0.2-1,0.5-1.9,1.5-2s1.9,0.5,2.1,1.4s-0.5,1.9-1.5,2S28.5,61.2,28.4,60.2z"/>
<path class="st5" d="M37.2,58.1c-0.3,0.1-0.5,0.4-0.5,0.6s0.4,0.5,0.7,0.4c0.3-0.1,0.5-0.4,0.5-0.6S37.6,58,37.2,58.1z M35.6,58.9
	c-0.2-1,0.5-1.9,1.5-2c1-0.2,1.9,0.5,2.1,1.4c0.2,1-0.5,1.9-1.5,2C36.7,60.5,35.7,59.9,35.6,58.9z"/>
<path class="st5" d="M44.4,56.8c-0.3,0.1-0.5,0.4-0.5,0.6c0.1,0.3,0.4,0.5,0.7,0.4c0.3-0.1,0.5-0.4,0.5-0.7
	C45.1,57,44.8,56.8,44.4,56.8z M42.7,57.7c-0.2-1,0.5-1.9,1.5-2c1-0.2,1.9,0.5,2.1,1.4s-0.5,1.9-1.5,2
	C43.9,59.3,42.9,58.7,42.7,57.7z"/>
<path class="st3" d="M36.7,128.8c-0.1,0-0.2,0-0.3-0.1c-0.1-0.1-0.2-0.1-0.3-0.2c-1.5-2.1-14.9-72.2-14.2-74.3
	c0.2-0.6,0.4-1.2,51.6-8.9c25.2-3.8,50.6-7.4,50.8-7.5c0.1,0,0.2,0,0.2,0c0.1,0,0.2,0.1,0.2,0.1c0.1,0,0.1,0.1,0.2,0.2
	c0,0.1,0.1,0.1,0.1,0.2l7.1,63.8c0,0.1,0,0.3-0.1,0.4c-0.1,0.1-0.2,0.2-0.3,0.2l-94.9,26L36.7,128.8z M23.1,54.8
	c0.1,5,12,67.7,13.9,72.8l94-25.7l-7-62.7C85.1,44.7,27.5,53.3,23.1,54.8L23.1,54.8z"/>
<path class="st3" d="M77.8,160.3c-0.1,0-0.2,0-0.3-0.1c-0.1-0.1-0.2-0.1-0.2-0.3c-0.1-0.1-0.1-0.3,0-0.5c0.1-0.1,0.2-0.3,0.3-0.3
	c0.8-0.3,80.4-34.7,83.7-36.1c0.1-0.1,0.3-0.1,0.5,0c0.1,0.1,0.3,0.2,0.3,0.3c0,0.1,0.1,0.1,0.1,0.2c0,0.1,0,0.2,0,0.2
	c0,0.1-0.1,0.1-0.1,0.2c-0.1,0.1-0.1,0.1-0.2,0.1c-3.3,1.4-82.9,35.7-83.7,36.1C77.9,160.3,77.8,160.3,77.8,160.3z"/>
<path class="st3" d="M160.2,134.8c-0.1,0-0.2,0-0.3-0.1c-2.5-1.2-29.6-20.6-30.8-21.5c-0.1-0.1-0.2-0.2-0.2-0.4c0-0.2,0-0.3,0.1-0.4
	c0.1-0.1,0.2-0.2,0.4-0.2c0.2,0,0.3,0,0.5,0.1c9.7,7,28.6,20.4,30.6,21.4c0.1,0,0.1,0.1,0.2,0.1s0.1,0.1,0.1,0.2c0,0.1,0,0.2,0,0.2
	c0,0.1,0,0.2-0.1,0.2c-0.1,0.1-0.1,0.2-0.2,0.2C160.4,134.8,160.3,134.8,160.2,134.8z"/>
<path class="st3" d="M98.1,162.5c-0.1,0-0.2,0-0.3-0.1c-1.8-1-38.9-26.2-40.5-27.2c-0.1,0-0.1-0.1-0.2-0.2c-0.1-0.1-0.1-0.1-0.1-0.2
	c0-0.1,0-0.2,0-0.2c0-0.1,0.1-0.2,0.1-0.2c0.1-0.1,0.1-0.1,0.2-0.2c0.1,0,0.2-0.1,0.2-0.1c0.1,0,0.2,0,0.3,0c0.1,0,0.2,0.1,0.2,0.1
	c13.4,9.1,39,26.4,40.4,27.2c0.1,0.1,0.2,0.2,0.3,0.4c0,0.2,0,0.3-0.1,0.4c-0.1,0.1-0.1,0.2-0.2,0.2
	C98.3,162.5,98.2,162.5,98.1,162.5z"/>
<path class="st3" d="M67.2,153.6c-0.1,0-0.2,0-0.3-0.1c-0.1-0.1-0.2-0.2-0.2-0.3c0-0.1,0-0.1,0-0.2c0-0.1,0-0.2,0-0.2
	c0-0.1,0.1-0.1,0.1-0.2c0.1-0.1,0.1-0.1,0.2-0.1c3.4-1.4,83.8-34,85.8-34.7c0.1,0,0.2-0.1,0.2-0.1c0.1,0,0.2,0,0.3,0
	s0.2,0.1,0.2,0.1c0.1,0.1,0.1,0.1,0.1,0.2c0,0.1,0,0.2,0,0.2c0,0.1,0,0.2-0.1,0.2c0,0.1-0.1,0.1-0.2,0.2c-0.1,0.1-0.1,0.1-0.2,0.1
	c-2,0.7-84.9,34.3-85.8,34.7C67.3,153.6,67.2,153.6,67.2,153.6z"/>
<path class="st3" d="M57.4,146.1c-0.1,0-0.2,0-0.3-0.1c-0.1-0.1-0.2-0.2-0.2-0.3c-0.1-0.1,0-0.3,0-0.4c0.1-0.1,0.2-0.2,0.3-0.3
	c29.4-10.6,85.4-30.8,87-31.5c0.1,0,0.2-0.1,0.2-0.1c0.1,0,0.2,0,0.2,0c0.1,0,0.2,0.1,0.2,0.1c0.1,0.1,0.1,0.1,0.2,0.2
	c0,0.1,0.1,0.2,0.1,0.2c0,0.1,0,0.2,0,0.2c0,0.1-0.1,0.1-0.1,0.2c-0.1,0.1-0.1,0.1-0.2,0.1c-2,1-83.6,30.3-87.1,31.6
	C57.6,146.1,57.5,146.1,57.4,146.1z"/>
<path class="st3" d="M137,135.1c-0.2,0-0.3-0.1-0.4-0.2c-5.3-4.8-19.3-17.4-20.1-18c-0.1,0-0.1-0.1-0.2-0.2
	c-0.1-0.1-0.1-0.1-0.1-0.2c0-0.1,0-0.2,0-0.2c0-0.1,0.1-0.2,0.1-0.2c0.1-0.1,0.1-0.1,0.2-0.2c0.1,0,0.2-0.1,0.2-0.1
	c0.1,0,0.2,0,0.3,0c0.1,0,0.2,0.1,0.2,0.1c1,0.7,19.5,17.4,20.3,18.1c0.1,0.1,0.1,0.1,0.1,0.2c0,0.1,0,0.1,0,0.2c0,0.1,0,0.2,0,0.2
	c0,0.1-0.1,0.1-0.1,0.2c-0.1,0.1-0.1,0.1-0.2,0.1C137.2,135.1,137.1,135.1,137,135.1z"/>
<path class="st3" d="M125,140.1c-0.1,0-0.3-0.1-0.4-0.1c-1.7-1.4-20.2-18.6-21-19.3c-0.1-0.1-0.1-0.1-0.1-0.2c0-0.1,0-0.1,0-0.2
	c0-0.1,0-0.2,0-0.2c0-0.1,0.1-0.1,0.1-0.2c0.1-0.1,0.1-0.1,0.2-0.1c0.1,0,0.2,0,0.2,0s0.2,0,0.2,0c0.1,0,0.1,0.1,0.2,0.1
	c0.2,0.2,19.2,17.8,20.9,19.2c0.1,0.1,0.2,0.3,0.2,0.4c0,0.2-0.1,0.3-0.2,0.4C125.3,140,125.2,140.1,125,140.1z"/>
<path class="st3" d="M98.8,150.9c-0.1,0-0.2,0-0.3-0.1c-1.8-1-24.8-19.7-25.8-20.5c-0.1-0.1-0.2-0.2-0.2-0.4c0-0.1,0-0.3,0.1-0.4
	c0.1-0.1,0.2-0.2,0.4-0.2c0.1,0,0.3,0,0.4,0.1c6.6,5.4,24.2,19.6,25.6,20.4c0.1,0.1,0.2,0.2,0.3,0.3c0.1,0.1,0.1,0.2,0,0.4
	c0,0.1-0.1,0.2-0.2,0.3C99.1,150.9,98.9,150.9,98.8,150.9L98.8,150.9z"/>
<path class="st3" d="M111.6,145.4c-0.1,0-0.2,0-0.2,0c-0.1,0-0.1-0.1-0.2-0.1c-2.2-2.1-21-19.8-21.2-20c-0.1-0.1-0.1-0.1-0.1-0.2
	c0-0.1,0-0.1,0-0.2c0-0.1,0-0.2,0-0.2c0-0.1,0.1-0.1,0.1-0.2c0.1-0.1,0.1-0.1,0.2-0.1c0.1,0,0.2,0,0.2,0c0.1,0,0.2,0,0.2,0
	c0.1,0,0.1,0.1,0.2,0.1c0.2,0.2,19,17.8,21.2,20c0.1,0.1,0.1,0.2,0.2,0.3c0,0.1,0,0.2,0,0.3c0,0.1-0.1,0.2-0.2,0.3
	C111.8,145.4,111.7,145.4,111.6,145.4L111.6,145.4z"/>
<path class="st5" d="M71.5,84.6c-1-0.6-2.3-0.4-3.1,0.5l-9.3,10.5c-0.3,0.3-0.7,0.4-1.1,0.1c-0.3-0.2-0.4-0.7-0.1-1l9.3-10.5
	c1.2-1.4,3.5-1.7,5.1-0.8l15.4,9.2c0.3,0.2,0.4,0.6,0.2,0.9c-0.2,0.3-0.7,0.4-1.1,0.2L71.5,84.6z"/>
<path class="st5" d="M90.2,81.9c1.2-1.5,3.4-1.9,5.1-1l11,5.9c0.4,0.2,0.5,0.6,0.2,0.9c-0.2,0.3-0.7,0.4-1,0.2l-11-5.9
	c-1-0.5-2.3-0.3-3,0.6l-6.9,8.8c-0.2,0.3-0.7,0.4-1.1,0.2c-0.3-0.2-0.4-0.6-0.2-0.9L90.2,81.9z"/>
<path class="st5" d="M99.1,61.9l-43.5,7.6c-0.8,0.1-1.4,0.9-1.2,1.6l6.1,30.7c0.1,0.7,0.9,1.2,1.8,1.1l43.5-7.6
	c0.8-0.1,1.4-0.9,1.2-1.6L100.9,63C100.7,62.2,99.9,61.7,99.1,61.9z M55.4,68.2c-1.6,0.3-2.8,1.7-2.5,3.2l6.1,30.7
	c0.3,1.5,1.9,2.4,3.5,2.1l43.5-7.6c1.6-0.3,2.8-1.7,2.5-3.2l-6.1-30.7c-0.3-1.5-1.9-2.4-3.5-2.1L55.4,68.2z"/>
<path class="st6" d="M85.2,71.7l1.6,5.1c0.1,0.2,0.2,0.4,0.2,0.7c0.5,2.5-1.9,5-5.3,5.6c-3.5,0.6-6.7-0.9-7.2-3.3
	c0-0.1,0-0.3-0.1-0.4l0,0L74,73.9c0-0.1,0-0.1,0-0.2c0-0.1,0.1-0.1,0.2-0.2c0.1,0,0.1-0.1,0.2-0.1c0.1,0,0.2,0,0.2,0l3.7,1.1
	c0.5-0.2,1-0.3,1.5-0.4c0.5-0.1,1-0.1,1.5-0.1l2.8-2.5c0.1-0.1,0.2-0.1,0.3-0.2c0.1,0,0.2,0,0.3,0c0.1,0,0.2,0.1,0.3,0.1
	C85.1,71.5,85.1,71.6,85.2,71.7z"/>
<path class="st5" d="M85.4,77.3l-1.3-4l-2.3,2.1l-0.6,0c-0.4,0-0.8,0-1.2,0.1l0,0c-0.4,0.1-0.8,0.2-1.2,0.3l-0.5,0.2l-2.8-0.9
	l0.1,0.7l0.1-0.1l0.2,3.5c0,0.1,0,0.2,0,0.3c0.3,1.5,2.5,2.9,5.5,2.3c3-0.5,4.5-2.6,4.2-4.1l0,0C85.6,77.6,85.5,77.5,85.4,77.3
	L85.4,77.3z M74,73.9c0-0.1,0-0.1,0-0.2c0-0.1,0.1-0.1,0.2-0.2c0.1,0,0.1-0.1,0.2-0.1c0.1,0,0.2,0,0.2,0l3.7,1.1
	c0.5-0.2,1-0.3,1.5-0.4c0.5-0.1,1-0.1,1.5-0.1l2.8-2.5c0.1-0.1,0.2-0.1,0.3-0.2c0.1,0,0.2,0,0.3,0c0.1,0,0.2,0.1,0.3,0.1
	c0.1,0.1,0.1,0.2,0.2,0.2l1.6,5.1c0.1,0.2,0.2,0.4,0.2,0.7c0.5,2.5-1.9,5-5.3,5.6c-2.9,0.5-5.6-0.5-6.7-2.2
	c-0.2-0.3-0.4-0.7-0.4-1.1c0-0.1,0-0.3-0.1-0.4c0,0,0,0,0,0c0,0,0,0,0,0l0,0L74,73.9z"/>
<g>
	<defs>
		
			<rect id="SVGID_1_" x="216.9" y="121.3" transform="matrix(0.2885 -0.9575 0.9575 0.2885 32.7209 327.4904)" width="39.6" height="40.9"/>
	</defs>
	<clipPath id="SVGID_2_">
		<use xlink:href="#SVGID_1_"  style="overflow:visible;"/>
	</clipPath>
	<g class="st7">
		<path class="st8" d="M230.3,122.9l-4.9,2.6c-4.3,2.2-5.9,7.5-3.6,11.8l10.6,19c2.4,4.3,7.8,5.9,12.2,3.7l4.9-2.6
			c4.3-2.2,5.9-7.5,3.6-11.8l-10.6-19C240.1,122.3,234.6,120.7,230.3,122.9z"/>
		<path class="st9" d="M238.1,122.3L238.1,122.3L238.1,122.3c3.1,1.2,4.5,3.7,6.1,6.7l0,0l0,0l9.1,16.4c0.6,1.1,1,2.4,1.1,3.7
			c0.1,1.3-0.1,2.5-0.5,3.7c-0.4,1.2-1.1,2.2-2,3.1c-1.4,1.2-2.9,2.1-4.6,2.8l-0.1,0l-0.1,0c-1.5,0.9-3.2,1.7-4.9,2.2
			c-1.3,0.3-2.6,0.3-3.8,0c-1.3-0.2-2.5-0.7-3.6-1.4l0,0c-2-1.3-3.1-3.4-4.4-5.6c-0.2-0.4-0.4-0.8-0.6-1.2l-5.8-10.4l0,0
			c-0.3-0.6-0.7-1.1-1-1.7l0,0c-0.3-0.6-0.7-1.1-1-1.7c-0.6-1.1-1.2-2.3-1.6-3.4c-0.4-1.2-0.5-2.5-0.3-3.7c0.2-1.2,0.6-2.4,1.3-3.5
			c1.1-1.6,2.6-2.9,4.5-3.7l0,0l0,0c0.5-0.2,0.9-0.5,1.4-0.7c1-0.5,1.9-1,2.9-1.5l0,0l0,0c1.2-0.5,2.5-0.8,3.8-0.8
			C235.5,121.5,236.8,121.8,238.1,122.3z"/>
		<path class="st3" d="M229.9,130.3l3,5.4l0.4,0.8c0.1,0.3,0.4,0.5,0.7,0.5c0.3,0.1,0.6,0.1,0.9-0.1c0.3-0.1,0.5-0.4,0.5-0.7
			s0-0.6-0.1-0.8l-3.1-5.4l-0.4-0.8c0-0.2-0.1-0.3-0.2-0.4c-0.1-0.1-0.2-0.2-0.4-0.3c-0.2-0.1-0.3-0.1-0.5-0.1c-0.2,0-0.3,0-0.5,0.1
			s-0.3,0.2-0.4,0.3c-0.1,0.1-0.2,0.3-0.2,0.4c0,0.2,0,0.3,0,0.5C229.7,130.1,229.8,130.2,229.9,130.3z"/>
	</g>
</g>
<path class="st10" d="M147.7,105.7c0,0,9-23.7,25.3-19.6c11.7,2.9,7.2,21.4,16.2,25.9c9,4.4,15.2-3.1,25.3-1.6
	c11.1,1.6,12.3,13.3,12.3,13.3"/>
<ellipse class="st6" cx="178.5" cy="30.3" rx="8.2" ry="7.9"/>
<path class="st11" d="M170.2,5.8c0,2.6-2.2,4.8-5,4.8c-2.8,0-5-2.2-5-4.8c0-2.6,2.2-4.8,5-4.8C168,1.1,170.2,3.2,170.2,5.8z"/>
<circle class="st11" cx="208.6" cy="29.1" r="3.7"/>
<circle class="st11" cx="133.7" cy="7.8" r="2.9"/>
</svg>
