<svg width="135" height="28" viewBox="0 0 135 28" fill="none" xmlns="http://www.w3.org/2000/svg">
<path d="M26.5938 1.26969L27.8374 14.731C27.9461 15.3172 28.0005 15.9115 28 16.5069C28 22.8553 21.7342 28 14 28C6.26581 28 0 22.8553 0 16.5069C0.000442167 16.1276 0.0228042 15.7487 0.0669697 15.3718L0 15.4358L1.47319 1.7045C1.49222 1.52695 1.55811 1.35698 1.66467 1.2105C1.77123 1.06402 1.91495 0.945847 2.08234 0.86713C2.24972 0.788413 2.43529 0.751732 2.62157 0.760496C2.80785 0.769261 2.98875 0.823198 3.14726 0.917248L10.5753 5.35705C11.7006 5.12394 12.8487 5.00731 14 5.00918C15.0777 5.01007 16.1528 5.11278 17.2094 5.31584L24.2931 0.281023C24.4985 0.131226 24.7423 0.0372595 24.9989 0.00900566C25.2554 -0.0192481 25.5152 0.0192665 25.7508 0.1205C25.9863 0.221734 26.189 0.381931 26.3374 0.584189C26.4857 0.786448 26.5743 1.02328 26.5938 1.26969Z" fill="white"/>
<path d="M11.3771 10C12.3998 10.5374 14.1043 11.5822 14.9101 12.1345L13.7634 13.7765C12.8957 13.1943 11.2841 12.1942 10.2614 11.642L11.3771 10ZM8.51033 20.5981C10.2459 20.3144 12.0899 19.8069 13.7789 18.9113C16.4132 17.4933 18.5826 15.4483 19.8068 13.3138L21 15.3438C19.5744 17.4186 17.374 19.2994 14.8481 20.7175C13.2676 21.5683 11.0362 22.3146 9.67252 22.5535L8.51033 20.5981ZM8.9907 13.4033C10.0289 13.9407 11.7335 14.9557 12.5393 15.508L11.3926 17.1798C10.5248 16.5827 8.91322 15.5826 7.875 15.0453L8.9907 13.4033Z" fill="#C28145"/>
<mask id="path-3-outside-1_1539_6200" maskUnits="userSpaceOnUse" x="35" y="4.65234" width="100" height="19" fill="black">
<rect fill="white" x="35" y="4.65234" width="100" height="19"/>
<path d="M36 19.0923V5.89234H37.216V19.0923H36Z"/>
<path d="M42.7876 8.80434L42.5076 8.57234C42.5983 8.46034 42.681 8.32968 42.7556 8.18034C42.8303 8.02568 42.8916 7.86034 42.9396 7.68434C42.993 7.50301 43.025 7.32434 43.0356 7.14834C42.8543 7.11634 42.7023 7.03368 42.5796 6.90034C42.457 6.76168 42.3956 6.59634 42.3956 6.40434C42.3956 6.18034 42.4676 5.99901 42.6116 5.86034C42.7556 5.72168 42.945 5.65234 43.1796 5.65234C43.4196 5.65234 43.6143 5.73234 43.7636 5.89234C43.9183 6.04701 43.9956 6.27101 43.9956 6.56434C43.9956 6.94301 43.8783 7.34568 43.6436 7.77234C43.4143 8.19368 43.129 8.53768 42.7876 8.80434Z"/>
<path d="M48.6905 19.0923V10.9003H49.8585V12.0203C50.1838 11.567 50.5732 11.2257 51.0265 10.9963C51.4798 10.7617 51.9865 10.6443 52.5465 10.6443C53.2185 10.6443 53.8025 10.799 54.2985 11.1083C54.7998 11.4177 55.1465 11.839 55.3385 12.3723C55.6532 11.8497 56.0532 11.431 56.5385 11.1163C57.0292 10.8017 57.6105 10.6443 58.2825 10.6443C58.8638 10.6443 59.3812 10.7643 59.8345 11.0043C60.2878 11.239 60.6425 11.5857 60.8985 12.0443C61.1598 12.4977 61.2905 13.0523 61.2905 13.7083V19.0923H60.1225V14.0363C60.1225 13.2897 59.9278 12.6977 59.5385 12.2603C59.1492 11.823 58.6292 11.6043 57.9785 11.6043C57.5305 11.6043 57.1252 11.703 56.7625 11.9003C56.3998 12.0977 56.1118 12.3537 55.8985 12.6683C55.6852 12.9777 55.5785 13.2977 55.5785 13.6283V19.0923H54.4105V13.9163C54.4105 13.207 54.2158 12.6443 53.8265 12.2283C53.4425 11.8123 52.9332 11.6043 52.2985 11.6043C51.8505 11.6043 51.4398 11.7003 51.0665 11.8923C50.6985 12.079 50.4052 12.3217 50.1865 12.6203C49.9678 12.919 49.8585 13.2257 49.8585 13.5403V19.0923H48.6905Z"/>
<path d="M71.6981 19.0923V5.89234H72.9141V11.9403H80.1221V5.89234H81.3301V19.0923H80.1221V13.0123H72.9141V19.0923H71.6981Z"/>
<path d="M88.6116 19.3483C87.9343 19.3483 87.337 19.1857 86.8196 18.8603C86.3023 18.5297 85.8996 18.063 85.6116 17.4603L86.2356 16.7883C86.4916 17.311 86.825 17.719 87.2356 18.0123C87.6463 18.3003 88.1023 18.4443 88.6036 18.4443C88.9396 18.4443 89.2463 18.375 89.5236 18.2363C89.8063 18.0977 90.0303 17.9003 90.1956 17.6443C90.3663 17.383 90.4516 17.0737 90.4516 16.7163C90.4516 16.391 90.3716 16.135 90.2116 15.9483C90.057 15.7617 89.8276 15.6017 89.5236 15.4683C89.225 15.3297 88.8516 15.175 88.4036 15.0043C88.057 14.8657 87.721 14.7083 87.3956 14.5323C87.0703 14.3563 86.801 14.135 86.5876 13.8683C86.3796 13.5963 86.2756 13.2523 86.2756 12.8363C86.2756 12.415 86.3876 12.0417 86.6116 11.7163C86.8356 11.3857 87.145 11.127 87.5396 10.9403C87.9343 10.7483 88.3823 10.6523 88.8836 10.6523C89.3423 10.6523 89.7716 10.751 90.1716 10.9483C90.577 11.1457 90.9396 11.4257 91.2596 11.7883L90.7236 12.4683C90.233 11.823 89.6223 11.5003 88.8916 11.5003C88.4436 11.5003 88.0783 11.6177 87.7956 11.8523C87.5183 12.087 87.3796 12.3937 87.3796 12.7723C87.3796 13.0443 87.4676 13.271 87.6436 13.4523C87.8196 13.6337 88.049 13.7883 88.3316 13.9163C88.6196 14.0443 88.929 14.1723 89.2596 14.3003C89.7396 14.4817 90.1556 14.663 90.5076 14.8443C90.865 15.0257 91.1423 15.2577 91.3396 15.5403C91.537 15.8177 91.6356 16.1963 91.6356 16.6763C91.6356 17.2257 91.5076 17.7003 91.2516 18.1003C90.9956 18.5003 90.6383 18.8097 90.1796 19.0283C89.7263 19.2417 89.2036 19.3483 88.6116 19.3483Z"/>
<path d="M98.9975 19.3483C97.7548 19.3483 96.8668 19.0683 96.3335 18.5083C95.8002 17.9483 95.5335 17.0123 95.5335 15.7003V10.9003H96.7015V15.4923C96.7015 16.527 96.8775 17.2657 97.2295 17.7083C97.5815 18.1457 98.1708 18.3643 98.9975 18.3643C99.8295 18.3643 100.419 18.1457 100.766 17.7083C101.118 17.2657 101.294 16.527 101.294 15.4923V10.9003H102.462V15.7003C102.462 17.0123 102.195 17.9483 101.661 18.5083C101.133 19.0683 100.245 19.3483 98.9975 19.3483Z"/>
<path d="M110.54 19.3483C109.772 19.3483 109.078 19.1617 108.46 18.7883C107.846 18.4097 107.358 17.8923 106.996 17.2363C106.638 16.5803 106.46 15.831 106.46 14.9883C106.46 14.1563 106.636 13.415 106.988 12.7643C107.345 12.1083 107.83 11.591 108.444 11.2123C109.062 10.8337 109.761 10.6443 110.54 10.6443C111.281 10.6443 111.953 10.8177 112.556 11.1643C113.158 11.511 113.617 11.991 113.932 12.6043V10.9003H115.1V19.0923H113.932V17.3643C113.58 17.983 113.108 18.4683 112.516 18.8203C111.924 19.1723 111.265 19.3483 110.54 19.3483ZM110.828 18.3323C111.441 18.3323 111.982 18.191 112.452 17.9083C112.926 17.6203 113.3 17.2257 113.572 16.7243C113.844 16.2177 113.98 15.6417 113.98 14.9963C113.98 14.3457 113.844 13.7697 113.572 13.2683C113.305 12.767 112.934 12.375 112.46 12.0923C111.985 11.8043 111.441 11.6603 110.828 11.6603C110.214 11.6603 109.67 11.8043 109.196 12.0923C108.721 12.375 108.348 12.767 108.076 13.2683C107.804 13.7697 107.668 14.3457 107.668 14.9963C107.668 15.6417 107.804 16.2177 108.076 16.7243C108.348 17.2257 108.721 17.6203 109.196 17.9083C109.67 18.191 110.214 18.3323 110.828 18.3323Z"/>
<path d="M119.824 19.0923V10.9003H120.992V12.0203C121.216 11.6363 121.562 11.311 122.032 11.0443C122.501 10.7777 123.074 10.6443 123.752 10.6443C124.386 10.6443 124.933 10.775 125.392 11.0363C125.85 11.2977 126.202 11.679 126.448 12.1803C126.693 12.6763 126.816 13.2763 126.816 13.9803V19.0923H125.648V14.2043C125.648 13.3563 125.45 12.711 125.056 12.2683C124.661 11.8203 124.104 11.5963 123.384 11.5963C122.882 11.5963 122.453 11.6977 122.096 11.9003C121.744 12.0977 121.472 12.3617 121.28 12.6923C121.088 13.0177 120.992 13.3723 120.992 13.7563V19.0923H119.824Z"/>
<path d="M132.145 17.9163L132.033 6.33234H133.169L133.057 17.9163H132.145ZM132.601 22.3483C132.452 22.3483 132.313 22.311 132.185 22.2363C132.062 22.1617 131.964 22.063 131.889 21.9403C131.814 21.8123 131.777 21.6737 131.777 21.5243C131.777 21.375 131.814 21.239 131.889 21.1163C131.964 20.9937 132.062 20.895 132.185 20.8203C132.313 20.7457 132.452 20.7083 132.601 20.7083C132.75 20.7083 132.886 20.7457 133.009 20.8203C133.132 20.895 133.23 20.9937 133.305 21.1163C133.38 21.239 133.417 21.375 133.417 21.5243C133.417 21.6737 133.38 21.8123 133.305 21.9403C133.23 22.063 133.132 22.1617 133.009 22.2363C132.886 22.311 132.75 22.3483 132.601 22.3483Z"/>
</mask>
<path d="M36 19.0923V5.89234H37.216V19.0923H36Z" fill="white"/>
<path d="M42.7876 8.80434L42.5076 8.57234C42.5983 8.46034 42.681 8.32968 42.7556 8.18034C42.8303 8.02568 42.8916 7.86034 42.9396 7.68434C42.993 7.50301 43.025 7.32434 43.0356 7.14834C42.8543 7.11634 42.7023 7.03368 42.5796 6.90034C42.457 6.76168 42.3956 6.59634 42.3956 6.40434C42.3956 6.18034 42.4676 5.99901 42.6116 5.86034C42.7556 5.72168 42.945 5.65234 43.1796 5.65234C43.4196 5.65234 43.6143 5.73234 43.7636 5.89234C43.9183 6.04701 43.9956 6.27101 43.9956 6.56434C43.9956 6.94301 43.8783 7.34568 43.6436 7.77234C43.4143 8.19368 43.129 8.53768 42.7876 8.80434Z" fill="white"/>
<path d="M48.6905 19.0923V10.9003H49.8585V12.0203C50.1838 11.567 50.5732 11.2257 51.0265 10.9963C51.4798 10.7617 51.9865 10.6443 52.5465 10.6443C53.2185 10.6443 53.8025 10.799 54.2985 11.1083C54.7998 11.4177 55.1465 11.839 55.3385 12.3723C55.6532 11.8497 56.0532 11.431 56.5385 11.1163C57.0292 10.8017 57.6105 10.6443 58.2825 10.6443C58.8638 10.6443 59.3812 10.7643 59.8345 11.0043C60.2878 11.239 60.6425 11.5857 60.8985 12.0443C61.1598 12.4977 61.2905 13.0523 61.2905 13.7083V19.0923H60.1225V14.0363C60.1225 13.2897 59.9278 12.6977 59.5385 12.2603C59.1492 11.823 58.6292 11.6043 57.9785 11.6043C57.5305 11.6043 57.1252 11.703 56.7625 11.9003C56.3998 12.0977 56.1118 12.3537 55.8985 12.6683C55.6852 12.9777 55.5785 13.2977 55.5785 13.6283V19.0923H54.4105V13.9163C54.4105 13.207 54.2158 12.6443 53.8265 12.2283C53.4425 11.8123 52.9332 11.6043 52.2985 11.6043C51.8505 11.6043 51.4398 11.7003 51.0665 11.8923C50.6985 12.079 50.4052 12.3217 50.1865 12.6203C49.9678 12.919 49.8585 13.2257 49.8585 13.5403V19.0923H48.6905Z" fill="white"/>
<path d="M71.6981 19.0923V5.89234H72.9141V11.9403H80.1221V5.89234H81.3301V19.0923H80.1221V13.0123H72.9141V19.0923H71.6981Z" fill="white"/>
<path d="M88.6116 19.3483C87.9343 19.3483 87.337 19.1857 86.8196 18.8603C86.3023 18.5297 85.8996 18.063 85.6116 17.4603L86.2356 16.7883C86.4916 17.311 86.825 17.719 87.2356 18.0123C87.6463 18.3003 88.1023 18.4443 88.6036 18.4443C88.9396 18.4443 89.2463 18.375 89.5236 18.2363C89.8063 18.0977 90.0303 17.9003 90.1956 17.6443C90.3663 17.383 90.4516 17.0737 90.4516 16.7163C90.4516 16.391 90.3716 16.135 90.2116 15.9483C90.057 15.7617 89.8276 15.6017 89.5236 15.4683C89.225 15.3297 88.8516 15.175 88.4036 15.0043C88.057 14.8657 87.721 14.7083 87.3956 14.5323C87.0703 14.3563 86.801 14.135 86.5876 13.8683C86.3796 13.5963 86.2756 13.2523 86.2756 12.8363C86.2756 12.415 86.3876 12.0417 86.6116 11.7163C86.8356 11.3857 87.145 11.127 87.5396 10.9403C87.9343 10.7483 88.3823 10.6523 88.8836 10.6523C89.3423 10.6523 89.7716 10.751 90.1716 10.9483C90.577 11.1457 90.9396 11.4257 91.2596 11.7883L90.7236 12.4683C90.233 11.823 89.6223 11.5003 88.8916 11.5003C88.4436 11.5003 88.0783 11.6177 87.7956 11.8523C87.5183 12.087 87.3796 12.3937 87.3796 12.7723C87.3796 13.0443 87.4676 13.271 87.6436 13.4523C87.8196 13.6337 88.049 13.7883 88.3316 13.9163C88.6196 14.0443 88.929 14.1723 89.2596 14.3003C89.7396 14.4817 90.1556 14.663 90.5076 14.8443C90.865 15.0257 91.1423 15.2577 91.3396 15.5403C91.537 15.8177 91.6356 16.1963 91.6356 16.6763C91.6356 17.2257 91.5076 17.7003 91.2516 18.1003C90.9956 18.5003 90.6383 18.8097 90.1796 19.0283C89.7263 19.2417 89.2036 19.3483 88.6116 19.3483Z" fill="white"/>
<path d="M98.9975 19.3483C97.7548 19.3483 96.8668 19.0683 96.3335 18.5083C95.8002 17.9483 95.5335 17.0123 95.5335 15.7003V10.9003H96.7015V15.4923C96.7015 16.527 96.8775 17.2657 97.2295 17.7083C97.5815 18.1457 98.1708 18.3643 98.9975 18.3643C99.8295 18.3643 100.419 18.1457 100.766 17.7083C101.118 17.2657 101.294 16.527 101.294 15.4923V10.9003H102.462V15.7003C102.462 17.0123 102.195 17.9483 101.661 18.5083C101.133 19.0683 100.245 19.3483 98.9975 19.3483Z" fill="white"/>
<path d="M110.54 19.3483C109.772 19.3483 109.078 19.1617 108.46 18.7883C107.846 18.4097 107.358 17.8923 106.996 17.2363C106.638 16.5803 106.46 15.831 106.46 14.9883C106.46 14.1563 106.636 13.415 106.988 12.7643C107.345 12.1083 107.83 11.591 108.444 11.2123C109.062 10.8337 109.761 10.6443 110.54 10.6443C111.281 10.6443 111.953 10.8177 112.556 11.1643C113.158 11.511 113.617 11.991 113.932 12.6043V10.9003H115.1V19.0923H113.932V17.3643C113.58 17.983 113.108 18.4683 112.516 18.8203C111.924 19.1723 111.265 19.3483 110.54 19.3483ZM110.828 18.3323C111.441 18.3323 111.982 18.191 112.452 17.9083C112.926 17.6203 113.3 17.2257 113.572 16.7243C113.844 16.2177 113.98 15.6417 113.98 14.9963C113.98 14.3457 113.844 13.7697 113.572 13.2683C113.305 12.767 112.934 12.375 112.46 12.0923C111.985 11.8043 111.441 11.6603 110.828 11.6603C110.214 11.6603 109.67 11.8043 109.196 12.0923C108.721 12.375 108.348 12.767 108.076 13.2683C107.804 13.7697 107.668 14.3457 107.668 14.9963C107.668 15.6417 107.804 16.2177 108.076 16.7243C108.348 17.2257 108.721 17.6203 109.196 17.9083C109.67 18.191 110.214 18.3323 110.828 18.3323Z" fill="white"/>
<path d="M119.824 19.0923V10.9003H120.992V12.0203C121.216 11.6363 121.562 11.311 122.032 11.0443C122.501 10.7777 123.074 10.6443 123.752 10.6443C124.386 10.6443 124.933 10.775 125.392 11.0363C125.85 11.2977 126.202 11.679 126.448 12.1803C126.693 12.6763 126.816 13.2763 126.816 13.9803V19.0923H125.648V14.2043C125.648 13.3563 125.45 12.711 125.056 12.2683C124.661 11.8203 124.104 11.5963 123.384 11.5963C122.882 11.5963 122.453 11.6977 122.096 11.9003C121.744 12.0977 121.472 12.3617 121.28 12.6923C121.088 13.0177 120.992 13.3723 120.992 13.7563V19.0923H119.824Z" fill="white"/>
<path d="M132.145 17.9163L132.033 6.33234H133.169L133.057 17.9163H132.145ZM132.601 22.3483C132.452 22.3483 132.313 22.311 132.185 22.2363C132.062 22.1617 131.964 22.063 131.889 21.9403C131.814 21.8123 131.777 21.6737 131.777 21.5243C131.777 21.375 131.814 21.239 131.889 21.1163C131.964 20.9937 132.062 20.895 132.185 20.8203C132.313 20.7457 132.452 20.7083 132.601 20.7083C132.75 20.7083 132.886 20.7457 133.009 20.8203C133.132 20.895 133.23 20.9937 133.305 21.1163C133.38 21.239 133.417 21.375 133.417 21.5243C133.417 21.6737 133.38 21.8123 133.305 21.9403C133.23 22.063 133.132 22.1617 133.009 22.2363C132.886 22.311 132.75 22.3483 132.601 22.3483Z" fill="white"/>
<path d="M36 19.0923V5.89234H37.216V19.0923H36Z" stroke="white" stroke-width="1.6" mask="url(#path-3-outside-1_1539_6200)"/>
<path d="M42.7876 8.80434L42.5076 8.57234C42.5983 8.46034 42.681 8.32968 42.7556 8.18034C42.8303 8.02568 42.8916 7.86034 42.9396 7.68434C42.993 7.50301 43.025 7.32434 43.0356 7.14834C42.8543 7.11634 42.7023 7.03368 42.5796 6.90034C42.457 6.76168 42.3956 6.59634 42.3956 6.40434C42.3956 6.18034 42.4676 5.99901 42.6116 5.86034C42.7556 5.72168 42.945 5.65234 43.1796 5.65234C43.4196 5.65234 43.6143 5.73234 43.7636 5.89234C43.9183 6.04701 43.9956 6.27101 43.9956 6.56434C43.9956 6.94301 43.8783 7.34568 43.6436 7.77234C43.4143 8.19368 43.129 8.53768 42.7876 8.80434Z" stroke="white" stroke-width="1.6" mask="url(#path-3-outside-1_1539_6200)"/>
<path d="M48.6905 19.0923V10.9003H49.8585V12.0203C50.1838 11.567 50.5732 11.2257 51.0265 10.9963C51.4798 10.7617 51.9865 10.6443 52.5465 10.6443C53.2185 10.6443 53.8025 10.799 54.2985 11.1083C54.7998 11.4177 55.1465 11.839 55.3385 12.3723C55.6532 11.8497 56.0532 11.431 56.5385 11.1163C57.0292 10.8017 57.6105 10.6443 58.2825 10.6443C58.8638 10.6443 59.3812 10.7643 59.8345 11.0043C60.2878 11.239 60.6425 11.5857 60.8985 12.0443C61.1598 12.4977 61.2905 13.0523 61.2905 13.7083V19.0923H60.1225V14.0363C60.1225 13.2897 59.9278 12.6977 59.5385 12.2603C59.1492 11.823 58.6292 11.6043 57.9785 11.6043C57.5305 11.6043 57.1252 11.703 56.7625 11.9003C56.3998 12.0977 56.1118 12.3537 55.8985 12.6683C55.6852 12.9777 55.5785 13.2977 55.5785 13.6283V19.0923H54.4105V13.9163C54.4105 13.207 54.2158 12.6443 53.8265 12.2283C53.4425 11.8123 52.9332 11.6043 52.2985 11.6043C51.8505 11.6043 51.4398 11.7003 51.0665 11.8923C50.6985 12.079 50.4052 12.3217 50.1865 12.6203C49.9678 12.919 49.8585 13.2257 49.8585 13.5403V19.0923H48.6905Z" stroke="white" stroke-width="1.6" mask="url(#path-3-outside-1_1539_6200)"/>
<path d="M71.6981 19.0923V5.89234H72.9141V11.9403H80.1221V5.89234H81.3301V19.0923H80.1221V13.0123H72.9141V19.0923H71.6981Z" stroke="white" stroke-width="1.6" mask="url(#path-3-outside-1_1539_6200)"/>
<path d="M88.6116 19.3483C87.9343 19.3483 87.337 19.1857 86.8196 18.8603C86.3023 18.5297 85.8996 18.063 85.6116 17.4603L86.2356 16.7883C86.4916 17.311 86.825 17.719 87.2356 18.0123C87.6463 18.3003 88.1023 18.4443 88.6036 18.4443C88.9396 18.4443 89.2463 18.375 89.5236 18.2363C89.8063 18.0977 90.0303 17.9003 90.1956 17.6443C90.3663 17.383 90.4516 17.0737 90.4516 16.7163C90.4516 16.391 90.3716 16.135 90.2116 15.9483C90.057 15.7617 89.8276 15.6017 89.5236 15.4683C89.225 15.3297 88.8516 15.175 88.4036 15.0043C88.057 14.8657 87.721 14.7083 87.3956 14.5323C87.0703 14.3563 86.801 14.135 86.5876 13.8683C86.3796 13.5963 86.2756 13.2523 86.2756 12.8363C86.2756 12.415 86.3876 12.0417 86.6116 11.7163C86.8356 11.3857 87.145 11.127 87.5396 10.9403C87.9343 10.7483 88.3823 10.6523 88.8836 10.6523C89.3423 10.6523 89.7716 10.751 90.1716 10.9483C90.577 11.1457 90.9396 11.4257 91.2596 11.7883L90.7236 12.4683C90.233 11.823 89.6223 11.5003 88.8916 11.5003C88.4436 11.5003 88.0783 11.6177 87.7956 11.8523C87.5183 12.087 87.3796 12.3937 87.3796 12.7723C87.3796 13.0443 87.4676 13.271 87.6436 13.4523C87.8196 13.6337 88.049 13.7883 88.3316 13.9163C88.6196 14.0443 88.929 14.1723 89.2596 14.3003C89.7396 14.4817 90.1556 14.663 90.5076 14.8443C90.865 15.0257 91.1423 15.2577 91.3396 15.5403C91.537 15.8177 91.6356 16.1963 91.6356 16.6763C91.6356 17.2257 91.5076 17.7003 91.2516 18.1003C90.9956 18.5003 90.6383 18.8097 90.1796 19.0283C89.7263 19.2417 89.2036 19.3483 88.6116 19.3483Z" stroke="white" stroke-width="1.6" mask="url(#path-3-outside-1_1539_6200)"/>
<path d="M98.9975 19.3483C97.7548 19.3483 96.8668 19.0683 96.3335 18.5083C95.8002 17.9483 95.5335 17.0123 95.5335 15.7003V10.9003H96.7015V15.4923C96.7015 16.527 96.8775 17.2657 97.2295 17.7083C97.5815 18.1457 98.1708 18.3643 98.9975 18.3643C99.8295 18.3643 100.419 18.1457 100.766 17.7083C101.118 17.2657 101.294 16.527 101.294 15.4923V10.9003H102.462V15.7003C102.462 17.0123 102.195 17.9483 101.661 18.5083C101.133 19.0683 100.245 19.3483 98.9975 19.3483Z" stroke="white" stroke-width="1.6" mask="url(#path-3-outside-1_1539_6200)"/>
<path d="M110.54 19.3483C109.772 19.3483 109.078 19.1617 108.46 18.7883C107.846 18.4097 107.358 17.8923 106.996 17.2363C106.638 16.5803 106.46 15.831 106.46 14.9883C106.46 14.1563 106.636 13.415 106.988 12.7643C107.345 12.1083 107.83 11.591 108.444 11.2123C109.062 10.8337 109.761 10.6443 110.54 10.6443C111.281 10.6443 111.953 10.8177 112.556 11.1643C113.158 11.511 113.617 11.991 113.932 12.6043V10.9003H115.1V19.0923H113.932V17.3643C113.58 17.983 113.108 18.4683 112.516 18.8203C111.924 19.1723 111.265 19.3483 110.54 19.3483ZM110.828 18.3323C111.441 18.3323 111.982 18.191 112.452 17.9083C112.926 17.6203 113.3 17.2257 113.572 16.7243C113.844 16.2177 113.98 15.6417 113.98 14.9963C113.98 14.3457 113.844 13.7697 113.572 13.2683C113.305 12.767 112.934 12.375 112.46 12.0923C111.985 11.8043 111.441 11.6603 110.828 11.6603C110.214 11.6603 109.67 11.8043 109.196 12.0923C108.721 12.375 108.348 12.767 108.076 13.2683C107.804 13.7697 107.668 14.3457 107.668 14.9963C107.668 15.6417 107.804 16.2177 108.076 16.7243C108.348 17.2257 108.721 17.6203 109.196 17.9083C109.67 18.191 110.214 18.3323 110.828 18.3323Z" stroke="white" stroke-width="1.6" mask="url(#path-3-outside-1_1539_6200)"/>
<path d="M119.824 19.0923V10.9003H120.992V12.0203C121.216 11.6363 121.562 11.311 122.032 11.0443C122.501 10.7777 123.074 10.6443 123.752 10.6443C124.386 10.6443 124.933 10.775 125.392 11.0363C125.85 11.2977 126.202 11.679 126.448 12.1803C126.693 12.6763 126.816 13.2763 126.816 13.9803V19.0923H125.648V14.2043C125.648 13.3563 125.45 12.711 125.056 12.2683C124.661 11.8203 124.104 11.5963 123.384 11.5963C122.882 11.5963 122.453 11.6977 122.096 11.9003C121.744 12.0977 121.472 12.3617 121.28 12.6923C121.088 13.0177 120.992 13.3723 120.992 13.7563V19.0923H119.824Z" stroke="white" stroke-width="1.6" mask="url(#path-3-outside-1_1539_6200)"/>
<path d="M132.145 17.9163L132.033 6.33234H133.169L133.057 17.9163H132.145ZM132.601 22.3483C132.452 22.3483 132.313 22.311 132.185 22.2363C132.062 22.1617 131.964 22.063 131.889 21.9403C131.814 21.8123 131.777 21.6737 131.777 21.5243C131.777 21.375 131.814 21.239 131.889 21.1163C131.964 20.9937 132.062 20.895 132.185 20.8203C132.313 20.7457 132.452 20.7083 132.601 20.7083C132.75 20.7083 132.886 20.7457 133.009 20.8203C133.132 20.895 133.23 20.9937 133.305 21.1163C133.38 21.239 133.417 21.375 133.417 21.5243C133.417 21.6737 133.38 21.8123 133.305 21.9403C133.23 22.063 133.132 22.1617 133.009 22.2363C132.886 22.311 132.75 22.3483 132.601 22.3483Z" stroke="white" stroke-width="1.6" mask="url(#path-3-outside-1_1539_6200)"/>
</svg>
