<svg width="100" height="144" viewBox="0 0 100 144" fill="none" xmlns="http://www.w3.org/2000/svg">
<path d="M100 126.5C100 136.165 77.6142 144 50 144C22.3858 144 0 136.165 0 126.5C0 116.835 22.3858 109 50 109C77.6142 109 100 116.835 100 126.5Z" fill="#EFEDE7"/>
<path fill-rule="evenodd" clip-rule="evenodd" d="M94.7957 131.771C97.0884 129.874 98 128.082 98 126.5C98 124.918 97.0884 123.126 94.7957 121.229C92.5157 119.342 89.0963 117.554 84.6946 116.013C75.9099 112.939 63.6436 111 50 111C36.3564 111 24.0901 112.939 15.3054 116.013C10.9037 117.554 7.48428 119.342 5.2043 121.229C2.91159 123.126 2 124.918 2 126.5C2 128.082 2.91159 129.874 5.2043 131.771C7.48428 133.658 10.9037 135.446 15.3054 136.987C24.0901 140.061 36.3564 142 50 142C63.6436 142 75.9099 140.061 84.6946 136.987C89.0963 135.446 92.5157 133.658 94.7957 131.771ZM50 144C77.6142 144 100 136.165 100 126.5C100 116.835 77.6142 109 50 109C22.3858 109 0 116.835 0 126.5C0 136.165 22.3858 144 50 144Z" fill="#313B36"/>
<g clip-path="url(#clip0_1882_2641)">
<path d="M67.1619 85.3081L68.736 92.6409L70.3805 94.2211L71.5846 98.6777L74.5495 103.634L74.9311 108.544L75.9399 114.94L75.23 119.241L73.8233 124.021L70.6404 126.382L68.8844 127.719L75.337 149.251L78.0461 161.25L79.4032 176.346L79.305 181.183L77.9422 190.61L73.3129 200.468L66.8372 204.316L64.8089 207.26L59.8594 208.652L53.9665 208.033L52.0796 204.013L52.2412 196.054L50.4048 189.546L48.4472 189.008L48.2856 196.967L49.1887 200.967L49.0978 205.444L48.0735 207.414L43.616 208.815L38.2049 208.704L36.7695 206.684L28.9493 204.035L23.1169 200.431L20.2462 196.391L15.9704 188.838L14.6159 182.838L13.8037 174.361L15.0703 160.453L21.3471 142.169L28.5639 127.729L29.3796 125.871L25.6601 118.985L24.6108 111.053L25.4625 104.044L28.4037 98.4411L28.9989 92.089L29.2169 84.7723L30.2425 82.1453L36.8885 87.3271L43.0895 92.6834L46.1369 92.6011L55.2914 91.7791L58.259 88.2947L65.1835 80.3303L67.1619 85.3081Z" fill="#EFEDE7"/>
<path d="M67.6634 85.7267L69.5386 93.4037L71.6198 99.2822L74.9751 106.857C67.7121 111.272 53.1617 103.584 49.5383 100.19C47.1563 112.195 27.0868 112.066 24.796 105.714L28.3601 98.4151L28.7191 89.9665L30.1012 82.2789L35.6362 85.7176L42.5471 93.89L45.1405 92.1818L50.7693 91.0834L54.1996 91.8258L65.6184 79.832L67.6634 85.7267Z" fill="#C28145"/>
<path d="M65.3306 129.91C65.1011 129.908 64.8795 129.826 64.703 129.679C64.5266 129.533 64.4059 129.33 64.3614 129.104C64.3168 128.879 64.351 128.646 64.4583 128.443C64.5656 128.24 64.7394 128.08 64.9506 127.99C74.2606 124.34 75.9506 115.79 74.4306 108.99C72.4306 100.2 68.3706 95.7302 68.3306 95.6902L68.1306 95.4702V95.1802C67.3306 90.6902 65.4106 83.4402 64.4106 81.3402C61.1483 84.8268 58.1406 88.543 55.4106 92.4602L55.1006 92.9102H54.5506C46.8206 92.6402 44.0506 93.5102 43.0706 94.0502L42.4306 94.4102L40.3106 92.4102C37.5606 89.7402 32.1006 84.4102 30.1306 83.4102C29.6806 85.6502 29.5206 93.8602 29.6006 97.9902V98.3602L29.3306 98.6802C27.6106 100.78 24.4406 108.56 25.0906 116.99C25.5206 122.55 30.7106 127.29 30.7706 127.33C30.869 127.418 30.949 127.525 31.0059 127.645C31.0627 127.764 31.0954 127.894 31.1019 128.026C31.1084 128.158 31.0886 128.29 31.0438 128.414C30.9989 128.538 30.9299 128.653 30.8406 128.75C30.6626 128.946 30.4143 129.063 30.15 129.077C29.8858 129.09 29.627 128.998 29.4306 128.82C29.1906 128.61 23.5806 123.51 23.0906 117.14C22.4206 108.39 25.5806 100.43 27.6006 97.7002C27.6006 96.1302 27.6006 92.5502 27.7006 89.1602C27.9506 81.7002 28.5406 81.4702 29.2106 81.1602C30.6406 80.6102 33.0906 82.5102 41.7206 90.8702L42.8106 91.9902C44.9706 91.1102 48.7506 90.7502 54.1006 90.9002C56.6006 87.3002 62.6306 79.6802 64.1506 79.0802C64.3135 79.0201 64.4878 78.997 64.6607 79.0125C64.8337 79.0281 65.001 79.082 65.1506 79.1702C67.0906 80.2602 69.5606 92.5002 69.9606 94.5502C70.8606 95.5502 74.4906 100.22 76.3506 108.55C77.9806 115.8 76.1506 125.73 65.6606 129.84C65.5553 129.882 65.4437 129.906 65.3306 129.91Z" fill="#313B36"/>
<path fill-rule="evenodd" clip-rule="evenodd" d="M62.1687 129.558C62.4375 130.041 62.2642 130.65 61.7818 130.919C59.3365 132.281 52.7339 134.341 45.093 132.252C44.5603 132.107 44.2465 131.557 44.3921 131.024C44.5377 130.491 45.0876 130.177 45.6204 130.323C52.692 132.256 58.7584 130.313 60.8085 129.171C61.291 128.903 61.9 129.076 62.1687 129.558Z" fill="#313B36"/>
<path fill-rule="evenodd" clip-rule="evenodd" d="M42.9804 104.542C42.1808 104.488 41.4715 105.135 41.3961 105.987L41.1596 108.659C41.0842 109.511 41.6713 110.246 42.4709 110.299C43.2706 110.353 43.9799 109.706 44.0553 108.854L44.2917 106.182C44.3671 105.33 43.78 104.596 42.9804 104.542Z" fill="#313B36"/>
<path fill-rule="evenodd" clip-rule="evenodd" d="M59.8894 109.345C60.6857 109.277 61.2828 108.529 61.2229 107.674L61.0633 105.391C61.0034 104.535 60.3094 103.896 59.513 103.963C58.7167 104.031 58.1197 104.779 58.1795 105.634L58.3392 107.917C58.399 108.773 59.093 109.412 59.8894 109.345Z" fill="#313B36"/>
<path d="M50.3988 112.331C50.772 112.798 51.4154 112.874 51.8359 112.502C52.2564 112.13 52.2949 111.45 51.9217 110.983C51.5486 110.516 50.9052 110.44 50.4846 110.812C50.0641 111.185 50.0257 111.865 50.3988 112.331Z" fill="#313B36"/>
<path fill-rule="evenodd" clip-rule="evenodd" d="M50.7882 114.564L47.997 117.64C47.8104 117.846 47.8153 118.171 48.0079 118.367C48.2005 118.563 48.5079 118.555 48.6945 118.349L50.8775 115.943L53.7093 118.265C53.9205 118.438 54.2257 118.396 54.391 118.17C54.5564 117.945 54.5192 117.623 54.3081 117.449L50.7882 114.564Z" fill="#313B36"/>
<path fill-rule="evenodd" clip-rule="evenodd" d="M21.7587 122.837C21.8856 123.085 22.1828 123.179 22.4226 123.048C24.9313 121.67 29.6615 120.41 31.7361 119.951C32.0015 119.893 32.171 119.622 32.1146 119.348C32.0583 119.073 31.7975 118.898 31.5322 118.957C29.4591 119.416 24.606 120.698 21.9631 122.15C21.7233 122.282 21.6318 122.589 21.7587 122.837Z" fill="#313B36"/>
<path fill-rule="evenodd" clip-rule="evenodd" d="M19.7734 116.059C19.8911 116.311 20.1847 116.417 20.4291 116.295C23.523 114.746 26.2386 114.436 28.1726 114.508C29.1405 114.545 29.9136 114.677 30.4407 114.798C30.7042 114.859 30.9059 114.917 31.0395 114.959C31.1064 114.98 31.1561 114.997 31.1879 115.008C31.2039 115.014 31.2153 115.018 31.2222 115.02L31.2291 115.023L31.2291 115.023L31.2294 115.023C31.483 115.122 31.7663 114.989 31.8624 114.727C31.9585 114.464 31.8308 114.171 31.5772 114.072L31.4031 114.547C31.5772 114.072 31.5769 114.072 31.5767 114.072L31.5761 114.071L31.5745 114.071L31.5701 114.069L31.5559 114.064C31.5441 114.059 31.5276 114.053 31.5065 114.046C31.4645 114.031 31.4041 114.01 31.3262 113.986C31.1706 113.937 30.9449 113.872 30.6557 113.806C30.0776 113.672 29.2446 113.531 28.2096 113.492C26.1377 113.415 23.2596 113.75 20.0026 115.38C19.7582 115.502 19.6556 115.806 19.7734 116.059Z" fill="#313B36"/>
<path fill-rule="evenodd" clip-rule="evenodd" d="M80.3933 122.669C80.2922 122.933 80.0122 123.054 79.768 122.939C77.0674 121.668 72.1677 120.616 70.0357 120.248C69.7739 120.203 69.5913 119.936 69.6279 119.652C69.6645 119.368 69.9064 119.174 70.1682 119.219C72.2999 119.586 77.3091 120.653 80.1341 121.983C80.3783 122.098 80.4944 122.405 80.3933 122.669Z" fill="#313B36"/>
<path fill-rule="evenodd" clip-rule="evenodd" d="M83.0506 114.869C82.9632 115.139 82.6902 115.277 82.4407 115.176C77.7385 113.288 73.3053 114.079 70.304 114.763C70.0463 114.822 69.7898 114.641 69.731 114.36C69.6723 114.078 69.8336 113.802 70.0913 113.743C73.124 113.051 77.785 112.203 82.7571 114.199C83.0066 114.299 83.138 114.599 83.0506 114.869Z" fill="#313B36"/>
<path fill-rule="evenodd" clip-rule="evenodd" d="M28.9365 125.466C29.4476 125.676 29.6923 126.26 29.4831 126.771C28.6467 128.813 27.6323 131.109 26.53 133.604C23.9407 139.463 20.8666 146.42 18.4769 153.771C15.0722 164.243 13.1633 175.234 16.0238 184.544C18.848 193.737 21.7526 198.174 24.7711 200.606C27.3187 202.659 30.0024 203.355 33.1804 204.179C33.7965 204.339 34.4313 204.504 35.0873 204.684C35.6198 204.83 35.933 205.381 35.7868 205.913C35.6406 206.446 35.0904 206.759 34.5578 206.612C33.9614 206.448 33.365 206.295 32.7698 206.142C29.581 205.321 26.4279 204.51 23.5165 202.164C20.0386 199.361 16.981 194.47 14.112 185.131C11.0639 175.21 13.1383 163.722 16.5748 153.152C18.9972 145.701 22.1493 138.566 24.7519 132.675C25.839 130.215 26.8301 127.971 27.6322 126.012C27.8414 125.501 28.4254 125.257 28.9365 125.466Z" fill="#313B36"/>
<path fill-rule="evenodd" clip-rule="evenodd" d="M68.3911 128.325C68.8805 128.069 69.4847 128.258 69.7408 128.748L68.8547 129.211C69.7408 128.748 69.7406 128.747 69.7408 128.748L69.7424 128.751L69.7458 128.757L69.7576 128.78C69.7676 128.8 69.7821 128.828 69.8009 128.865C69.8383 128.939 69.8926 129.047 69.9621 129.19C70.101 129.474 70.3007 129.894 70.5478 130.441C71.042 131.535 71.7261 133.141 72.4929 135.201C74.0264 139.321 75.8928 145.263 77.2344 152.573C77.2861 152.855 77.3449 153.17 77.4093 153.516C78.29 158.239 80.2377 168.685 80.0602 179.014C79.9649 184.555 79.2583 190.136 77.4027 194.812C75.5405 199.505 72.4913 203.351 67.6992 205.255C67.1861 205.459 66.6046 205.209 66.4005 204.695C66.1965 204.182 66.447 203.601 66.9602 203.397C71.0985 201.752 73.8203 198.417 75.5437 194.074C77.2737 189.714 77.9672 184.404 78.0605 178.979C78.2343 168.864 76.3225 158.602 75.4414 153.873C75.3776 153.53 75.3191 153.216 75.2672 152.933C73.9501 145.756 72.1185 139.928 70.6186 135.898C69.8688 133.884 69.2023 132.32 68.7252 131.264C68.4866 130.735 68.2955 130.334 68.1649 130.067C68.0997 129.933 68.0496 129.833 68.0163 129.767C67.9997 129.735 67.9873 129.71 67.9793 129.695L67.9706 129.678L67.9688 129.675C67.9688 129.674 67.9688 129.675 67.9688 129.675M68.3911 128.325C67.9019 128.581 67.713 129.185 67.9688 129.675L68.3911 128.325Z" fill="#313B36"/>
</g>
<g clip-path="url(#clip1_1882_2641)">
<path d="M80 31.4037C79.9991 26.4931 78.5541 21.6728 75.8162 17.447C73.0783 13.2212 69.148 9.74506 64.4362 7.38201C59.7245 5.01897 54.4044 3.85585 49.0322 4.01427C43.66 4.17269 38.4331 5.64683 33.8979 8.28255C29.3628 10.9183 25.686 14.6188 23.2521 18.9971C20.8181 23.3754 19.7164 28.2708 20.0621 33.1712C20.4078 38.0717 22.1883 42.7973 25.2173 46.854C28.2463 50.9106 32.4126 54.1493 37.2805 56.2313C36.071 57.8639 33.8041 60.3342 30.5189 61.4963C29.1846 61.9668 27.936 62.751 30.7959 63.2786C36.7577 64.3836 46.7928 65.0609 51.9781 58.7408C59.5738 58.2831 66.6948 55.2042 71.8981 50.128C77.1014 45.0519 79.9977 38.3583 80 31.4037Z" fill="#C28145"/>
<path d="M36.656 43.333V32.421H33.312V30.133H42.592V32.421H39.24V43.333H36.656ZM50.191 43.589C49.2683 43.589 48.4043 43.413 47.599 43.061C46.7937 42.709 46.087 42.221 45.479 41.597C44.871 40.9677 44.3937 40.2397 44.047 39.413C43.7057 38.581 43.535 37.6903 43.535 36.741C43.535 35.7917 43.7057 34.9037 44.047 34.077C44.3937 33.245 44.871 32.517 45.479 31.893C46.087 31.2637 46.7937 30.773 47.599 30.421C48.4043 30.069 49.2683 29.893 50.191 29.893C51.1137 29.893 51.9777 30.069 52.783 30.421C53.5883 30.773 54.295 31.2637 54.903 31.893C55.511 32.517 55.9857 33.245 56.327 34.077C56.6737 34.9037 56.847 35.7917 56.847 36.741C56.847 37.6903 56.6737 38.581 56.327 39.413C55.9857 40.2397 55.511 40.9677 54.903 41.597C54.295 42.221 53.5883 42.709 52.783 43.061C51.9777 43.413 51.1137 43.589 50.191 43.589ZM50.183 41.093C50.7483 41.093 51.2657 40.9863 51.735 40.773C52.2043 40.5597 52.6123 40.2583 52.959 39.869C53.3057 39.4797 53.575 39.021 53.767 38.493C53.959 37.9597 54.055 37.3757 54.055 36.741C54.055 36.1063 53.959 35.525 53.767 34.997C53.575 34.4637 53.3057 34.0023 52.959 33.613C52.6123 33.2237 52.2043 32.9223 51.735 32.709C51.2657 32.4957 50.7483 32.389 50.183 32.389C49.6283 32.389 49.1137 32.4957 48.639 32.709C48.1697 32.9223 47.7617 33.2237 47.415 33.613C47.0683 34.0023 46.799 34.4637 46.607 34.997C46.4203 35.525 46.327 36.1063 46.327 36.741C46.327 37.3757 46.4203 37.9597 46.607 38.493C46.799 39.021 47.0683 39.4797 47.415 39.869C47.7617 40.2583 48.1697 40.5597 48.639 40.773C49.1137 40.9863 49.6283 41.093 50.183 41.093ZM59.7994 43.333V30.133H64.2954C65.154 30.133 65.9167 30.2823 66.5834 30.581C67.25 30.8797 67.7754 31.325 68.1594 31.917C68.5434 32.5037 68.7354 33.237 68.7354 34.117C68.7354 34.9917 68.5434 35.7383 68.1594 36.357C67.7754 36.9757 67.25 37.4503 66.5834 37.781C65.9167 38.1063 65.154 38.269 64.2954 38.269H62.3914V43.333H59.7994ZM62.3914 36.197H63.4954C63.9487 36.197 64.3647 36.1303 64.7434 35.997C65.1274 35.8637 65.4367 35.6503 65.6714 35.357C65.906 35.0637 66.0234 34.677 66.0234 34.197C66.0234 33.7117 65.906 33.325 65.6714 33.037C65.4367 32.7437 65.1274 32.533 64.7434 32.405C64.3647 32.2717 63.9487 32.205 63.4954 32.205H62.3914V36.197Z" fill="white"/>
<path d="M44.6143 20.1108L50.4736 14.2515L56.333 20.1108" stroke="white"/>
</g>
<defs>
<clipPath id="clip0_1882_2641">
<rect width="100" height="137" fill="white" transform="translate(0 3)"/>
</clipPath>
<clipPath id="clip1_1882_2641">
<rect width="60" height="60" fill="white" transform="translate(20 4)"/>
</clipPath>
</defs>
</svg>
