<?xml version="1.0" encoding="utf-8"?>
<!-- Generator: Adobe Illustrator 25.3.1, SVG Export Plug-In . SVG Version: 6.00 Build 0)  -->
<svg version="1.1" id="圖層_1" xmlns="http://www.w3.org/2000/svg" xmlns:xlink="http://www.w3.org/1999/xlink" x="0px" y="0px"
	 viewBox="0 0 683 690" style="enable-background:new 0 0 683 690;" xml:space="preserve">
<style type="text/css">
	.st0{fill:none;stroke:#313B36;stroke-width:2;stroke-miterlimit:10;}
	.st1{fill:none;stroke:#313B36;stroke-width:2;}
	.st2{fill:#6A5D54;stroke:#313B36;stroke-width:2;stroke-miterlimit:10;}
	.st3{fill-rule:evenodd;clip-rule:evenodd;fill:#313B36;}
	.st4{fill:#EDE9E1;fill-opacity:0.8;stroke:#313B36;stroke-width:2;}
	.st5{fill:none;stroke:#313B36;stroke-width:2;stroke-linecap:round;}
	.st6{fill:#313B36;}
	.st7{fill:#EDE9E1;}
	.st8{fill:#907D73;}
	.st9{fill:#C28145;}
	.st10{fill:#EDE9E1;stroke:#313B36;stroke-width:3;}
	.st11{fill:none;stroke:#EDE9E1;stroke-width:2;stroke-linecap:round;}
	.st12{fill:#EDE9E1;stroke:#313B36;stroke-width:2;}
	.st13{fill:#D8C5A8;}
	.st14{fill:#C28145;stroke:#907D73;stroke-width:2;}
	.st15{clip-path:url(#SVGID_2_);}
	.st16{fill:#EFEDE7;stroke:#313B36;stroke-width:2;}
	.st17{fill:#EDE9E1;stroke:#313B36;stroke-width:1.3;}
	.st18{fill:none;stroke:#313B36;stroke-width:1.5;}
	.st19{fill:#EFEDE7;}
	.st20{fill:#EFEDE7;stroke:#313B36;stroke-width:1.5;stroke-linecap:round;}
	.st21{fill:none;stroke:#313B36;stroke-width:1.5;stroke-linecap:round;}
	.st22{fill:#EFEDE7;stroke:#313B36;stroke-width:2;stroke-miterlimit:10;}
	.st23{fill:none;stroke:#313B36;stroke-width:1.5;stroke-linecap:round;stroke-miterlimit:10;}
	.st24{fill:none;stroke:#313B36;stroke-width:1.8;stroke-linecap:round;}
	.st25{fill:none;stroke:#C28145;stroke-width:2.5;stroke-linecap:round;}
	.st26{fill:#EFEDE7;stroke:#313B36;stroke-width:2;stroke-linecap:round;}
	.st27{fill:none;stroke:#313B36;stroke-width:3;stroke-linecap:round;}
	.st28{fill:none;stroke:#313B36;stroke-linecap:round;}
	.st29{fill:#E7E1D2;stroke:#313B36;stroke-width:2;}
	.st30{opacity:0.4;fill-opacity:0.4;enable-background:new    ;}
	.st31{clip-path:url(#SVGID_4_);}
	.st32{clip-path:url(#SVGID_6_);}
	.st33{clip-path:url(#SVGID_8_);}
	.st34{fill:#EEECE6;stroke:#313B36;stroke-width:2;}
</style>
<path class="st0" d="M558.6,171.1c-0.1-0.1-0.1-0.4-0.1-0.5l-0.1-0.7c-0.1-0.3-0.2-0.5-0.3-0.8c-15.7-58.6-53.9-108.4-106.3-138.4
	S337.2-7,278.8,9.3S170.7,64.5,140.5,117.4c-30.2,53-38.3,115.7-22.6,174.3l0.4-0.1c10.2,29.3,114.1,26.6,234.2-6.3
	S564,201.7,558.6,171.1z"/>
<path class="st1" d="M118.5,289c0,0-5.3-22.5,70.9-61.3c40.4-20.6,100.2-41.7,145.9-53.5c55-14.2,111-23,138.2-24.3
	c82.8-3.8,85,19.8,85,19.8"/>
<path class="st2" d="M344.7,502.4c128.1-2.1,231.8-29.7,231.6-61.5c-0.2-31.8-104.2-55.9-232.3-53.7c-128.1,2.1-229.1,26-228.9,57.9
	S216.6,504.6,344.7,502.4z"/>
<path class="st3" d="M517.6,195.5v-40.3c0-6.7-2-9-2.7-9.7c-2.8-3.2-8.3-4-12.4-3.7h-0.9l0,0c-6.7,0-11.3,2.1-13.7,6.3
	c-1.2,2.1-1.9,9.6-2,12.2l-19,0.2c0.1-5.1,1.1-15.3,2.8-19.8c1.5-3.8,3.4-7.2,5.9-10.2c6.2-7.5,15-11.3,25.9-11.3
	c5.1-0.4,17.6-0.1,26.4,9.8c4,4.4,8.7,12.6,8.7,26.2v40.3h8.1l-18.5,26.3l-17.1-26.3H517.6z"/>
<path class="st4" d="M185,161.3h300.5c1.7,0,3,1.3,3,3v195.4c0,1.7-1.3,3-3,3H185c-1.7,0-3-1.3-3-3V164.3
	C182,162.6,183.3,161.3,185,161.3z"/>
<path class="st5" d="M188.3,176h294.3"/>
<path class="st6" d="M345.9,339.9l1.3,9c0.1,0.4,0.2,0.8,0.2,1.2c0.2,4.3-4.3,7.9-10.1,8.1c-5.7,0.2-10.5-3.1-10.7-7.4
	c0-0.3,0-0.5,0-0.8l0,0l0.7-9.3c0-0.1,0.1-0.2,0.1-0.3c0.1-0.1,0.2-0.2,0.3-0.2c0.1-0.1,0.3-0.1,0.4-0.1s0.3,0,0.4,0.1l5.6,2.8
	c0.8-0.2,1.7-0.3,2.5-0.3s1.6,0,2.4,0.1l5.1-3.6c0.1-0.1,0.3-0.2,0.5-0.2s0.4,0,0.6,0.1s0.3,0.2,0.4,0.3
	C345.8,339.6,345.9,339.8,345.9,339.9z"/>
<path class="st7" d="M334.8,345.8c0.8,0.4,2.2,1.1,2.9,1.4l-0.9,1.2c-0.7-0.4-2-1.1-2.8-1.4L334.8,345.8z M332.9,353.5
	c1.4-0.3,2.8-0.7,4.1-1.4c2-1.1,3.7-2.6,4.6-4.2l1,1.4c-1.1,1.5-2.8,3-4.7,4c-1.2,0.7-3,1.3-4.1,1.5L332.9,353.5z M333,348.3
	c0.8,0.4,2.2,1,2.9,1.4l-0.9,1.2c-0.7-0.4-2-1.1-2.9-1.4L333,348.3z"/>
<path class="st8" d="M209.8,168.7c0,0.5-0.1,0.9-0.4,1.3c-0.3,0.4-0.7,0.7-1.1,0.9c-0.5,0.2-1,0.2-1.5,0.1s-0.9-0.3-1.3-0.6
	c-0.4-0.3-0.6-0.7-0.7-1.2c-0.1-0.4,0-0.9,0.1-1.3c0.2-0.4,0.5-0.8,0.9-1c0.4-0.3,0.9-0.4,1.4-0.4c0.7,0,1.3,0.2,1.8,0.7
	C209.6,167.5,209.8,168.1,209.8,168.7z"/>
<path class="st9" d="M201.8,168.7c0,0.5-0.1,0.9-0.4,1.3c-0.3,0.4-0.7,0.7-1.1,0.8c-0.5,0.2-1,0.2-1.5,0.1c-0.5-0.1-0.9-0.3-1.3-0.6
	c-0.4-0.3-0.6-0.7-0.7-1.2c-0.1-0.4,0-0.9,0.1-1.3c0.2-0.4,0.5-0.8,0.9-1c0.4-0.3,0.9-0.4,1.4-0.4c0.7,0,1.3,0.2,1.8,0.7
	S201.8,168.1,201.8,168.7z"/>
<path class="st6" d="M193.8,168.7c0,0.5-0.1,0.9-0.4,1.3c-0.3,0.4-0.7,0.7-1.1,0.8c-0.5,0.2-1,0.2-1.5,0.1c-0.5-0.1-0.9-0.3-1.3-0.6
	c-0.4-0.3-0.6-0.7-0.7-1.2c-0.1-0.4,0-0.9,0.1-1.3c0.2-0.4,0.5-0.8,0.9-1c0.4-0.3,0.9-0.4,1.4-0.4c0.7,0,1.3,0.2,1.8,0.7
	S193.8,168.1,193.8,168.7z"/>
<path class="st10" d="M280.2,390h115.9c1.4,0,2.5,1.1,2.5,2.5v1.9c0,1.4-1.1,2.5-2.5,2.5H280.2c-1.4,0-2.5-1.1-2.5-2.5v-1.9
	C277.7,391.2,278.8,390,280.2,390z"/>
<path class="st11" d="M468.5,286.1l4.3,3.2l-4.3,3.3"/>
<path class="st12" d="M286.8,294.9h76.7c1.7,0,3,1.3,3,3v43.3c0,1.7-1.3,3-3,3h-76.7c-1.7,0-3-1.3-3-3v-43.3
	C283.8,296.2,285.1,294.9,286.8,294.9z"/>
<path class="st9" d="M304.5,301.8h55.2c0.5,0,1,0.4,1,1l0,0c0,0.5-0.4,1-1,1h-55.2c-0.5,0-1-0.4-1-1l0,0
	C303.6,302.2,304,301.8,304.5,301.8z"/>
<path class="st9" d="M304.5,307.7H329c0.5,0,1,0.4,1,1l0,0c0,0.5-0.4,1-1,1h-24.5c-0.5,0-1-0.4-1-1l0,0
	C303.6,308.1,304,307.7,304.5,307.7z"/>
<path class="st9" d="M294,311.1c3.4,0,6.2-2.6,6.2-5.8c0-3.2-2.8-5.8-6.2-5.8c-3.4,0-6.2,2.6-6.2,5.8
	C287.7,308.5,290.5,311.1,294,311.1z"/>
<path class="st12" d="M385.3,294.9H462c1.7,0,3,1.3,3,3v43.3c0,1.7-1.3,3-3,3h-76.7c-1.7,0-3-1.3-3-3v-43.3
	C382.3,296.2,383.6,294.9,385.3,294.9z"/>
<path class="st8" d="M403.3,300.7h53.1c0.5,0,1,0.4,1,1l0,0c0,0.5-0.4,1-1,1h-53.1c-0.5,0-1-0.4-1-1l0,0
	C402.4,301.2,402.8,300.7,403.3,300.7z"/>
<path class="st8" d="M403.3,306.6h23.4c0.5,0,1,0.4,1,1l0,0c0,0.5-0.4,1-1,1h-23.4c-0.5,0-1-0.4-1-1l0,0
	C402.4,307.1,402.8,306.6,403.3,306.6z"/>
<path class="st9" d="M392.5,310.1c3.4,0,6.2-2.6,6.2-5.8c0-3.2-2.8-5.8-6.2-5.8c-3.4,0-6.2,2.6-6.2,5.8S389.1,310.1,392.5,310.1z"/>
<path class="st8" d="M206.5,309.6v4.9h34.9v-4.9H206.5z"/>
<path class="st8" d="M206.5,322.4v4.9h60.3v-4.9H206.5z"/>
<path class="st13" d="M208.2,273.3l-0.8-81.9c0-1.9,1-3.4,2.4-3.4l252.7,3c1.3,0,2.4,1.6,2.4,3.5l0.3,81.9c0,1.9-1,3.4-2.4,3.4
	l-252.2-3.1C209.3,276.7,208.3,275.2,208.2,273.3z"/>
<g>
	<path class="st7" d="M340.2,268.4c0-0.4-0.1-0.8-0.3-1.2c-0.2-0.4-0.5-0.7-0.9-1c-0.4-0.2-0.9-0.3-1.4-0.2
		c-0.5,0.1-0.8,0.4-1.1,0.8c-0.2,0.4-0.4,0.8-0.4,1.2c-0.1,0.4,0,0.9,0.1,1.3s0.3,0.8,0.7,1.1c0.2,0.2,0.6,0.4,0.9,0.5
		c0.1,0,0.2,0.1,0.3,0.1c0.3,0,0.6-0.1,0.9-0.2c0.3-0.2,0.5-0.4,0.6-0.6c0.2-0.2,0.3-0.5,0.4-0.8C340.2,269,340.2,268.7,340.2,268.4
		z M340.2,268.4L340.2,268.4h-1H340.2L340.2,268.4z M388.3,216.3L388.3,216.3c22.3-21.1,53.2-22,76.7-2.5c0.4,0.4,0.8,1.2,0.8,2.2
		l0.6,62.2c0,0.8-0.2,1.4-0.5,1.8s-0.6,0.6-0.9,0.6L212.3,278c-0.2,0-0.4-0.1-0.6-0.4c-0.2-0.4-0.4-0.9-0.4-1.5
		c0-0.4,0.1-0.8,0.2-1.1c8.2-20.4,26.1-30,42.6-30.6c8.4-0.3,16.7,1.3,25.1,3.5c4.2,1.1,8.3,2.3,12.5,3.6h0.1
		c4.2,1.3,8.4,2.5,12.7,3.6c16.9,4.4,35.3,6.2,51-4.4c6.3-4.2,11.7-10.2,17-16.4c1-1.2,2.1-2.5,3.1-3.7
		C379.6,225.5,383.8,220.5,388.3,216.3z M330.6,270.3c0.2,0.2,0.5,0.4,0.9,0.5l2.4-2.4l0,0c0-0.4-0.1-0.8-0.3-1.2
		c-0.2-0.4-0.5-0.7-0.9-1c-0.4-0.2-0.9-0.3-1.4-0.2c-0.5,0.1-0.8,0.4-1.1,0.8c-0.2,0.4-0.4,0.8-0.4,1.2c-0.1,0.4,0,0.8,0.1,1.3
		C330.1,269.6,330.3,270,330.6,270.3z M331.8,270.8L331.8,270.8L331.8,270.8z M343.4,270.4c0.3,0.3,0.6,0.4,1,0.5l1.1-3.2
		c-0.1-0.2-0.3-0.4-0.5-0.5s-0.4-0.1-0.6-0.1c-0.2,0.1-0.4,0.2-0.5,0.4c-0.1,0.2-0.2,0.5-0.3,0.7c0,0.3,0,0.6,0.1,0.8
		c0.1,0.3,0.2,0.5,0.4,0.7c0.2,0.2,0.4,0.2,0.6,0.2l0,0l0,0l0,0c0.3,0,0.5-0.2,0.7-0.4c0.2-0.3,0.3-0.6,0.3-1h1l0,0
		c0-0.4-0.1-0.8-0.3-1.2c-0.2-0.4-0.5-0.7-0.9-1c-0.4-0.2-0.9-0.3-1.4-0.2c-0.5,0.1-0.8,0.4-1.1,0.8c-0.2,0.4-0.4,0.8-0.4,1.2
		c-0.1,0.4,0,0.9,0.1,1.3C342.8,269.7,343.1,270.1,343.4,270.4z M388.3,216.3L388.3,216.3c22.3-21.1,53.2-22,76.7-2.5
		c0.4,0.4,0.8,1.2,0.8,2.2l0.6,62.2c0,0.8-0.2,1.4-0.5,1.8s-0.6,0.6-0.9,0.6L212.3,278c-0.2,0-0.4-0.1-0.6-0.4
		c-0.2-0.4-0.4-0.9-0.4-1.5c0-0.4,0.1-0.8,0.2-1.1c8.2-20.4,26.1-30,42.6-30.6c8.4-0.3,16.7,1.3,25.1,3.5c4.2,1.1,8.3,2.3,12.5,3.6
		h0.1c4.2,1.3,8.4,2.5,12.7,3.6c16.9,4.4,35.3,6.2,51-4.4c6.3-4.2,11.7-10.2,17-16.4c1-1.2,2.1-2.5,3.1-3.7
		C379.6,225.5,383.8,220.5,388.3,216.3z"/>
	<path class="st1" d="M210.4,276.4c0-0.4,0.1-0.8,0.2-1.1c8.2-20.4,25.7-31.7,42.3-32.2c8.4-0.3,16.8,1.3,25.2,3.5
		c4.2,1.1,8.4,2.3,12.6,3.6h0.1c4.2,1.3,8.5,2.5,12.7,3.6c17,4.4,35.5,6.2,51.2-4.4c6.3-4.2,11.8-10.2,17.1-16.4
		c1-1.2,2.1-2.5,3.1-3.7c4.2-5,8.4-10,13-14.3l0,0c22.4-21.1,53.5-22,77.2-2.5c0.4,0.4,0.8,1.2,0.8,2.2"/>
</g>
<path class="st14" d="M329.8,266.5c0-0.1,0-0.2,0-0.3C329.8,266.3,329.8,266.3,329.8,266.5C329.9,266.5,329.8,266.5,329.8,266.5
	C329.8,266.6,329.8,266.6,329.8,266.5z"/>
<path class="st14" d="M336.2,266.6c0-0.1,0-0.2,0-0.3C336.2,266.4,336.2,266.4,336.2,266.6L336.2,266.6
	C336.3,266.5,336.3,266.6,336.2,266.6C336.3,266.6,336.2,266.6,336.2,266.6z"/>
<path class="st14" d="M342.7,266.7c0-0.1,0-0.2,0-0.3C342.7,266.5,342.7,266.5,342.7,266.7L342.7,266.7
	C342.7,266.6,342.7,266.7,342.7,266.7L342.7,266.7z"/>
<path class="st1" d="M206.4,191.4l0.8,81.9c0,1.1,0.3,2.2,0.9,3c0.6,0.8,1.4,1.4,2.5,1.5l252.2,3.1c1.1,0,1.9-0.6,2.5-1.4
	s0.9-1.9,0.9-3l-0.3-81.9c0-1.1-0.3-2.2-0.9-3s-1.4-1.5-2.5-1.5l-252.7-3c-1.1,0-2,0.6-2.5,1.4C206.7,189.2,206.4,190.3,206.4,191.4
	z"/>
<g>
	<g>
		<defs>
			<rect id="SVGID_1_" x="479.9" y="217.9" width="91.1" height="177.8"/>
		</defs>
		<clipPath id="SVGID_2_">
			<use xlink:href="#SVGID_1_"  style="overflow:visible;"/>
		</clipPath>
		<g class="st15">
			<path class="st16" d="M488.8,220.6h72c3.9,0,7,3.1,7,7v160c0,3.9-3.1,7-7,7h-72c-3.9,0-7-3.1-7-7v-160
				C481.8,223.7,484.9,220.6,488.8,220.6z"/>
			<path class="st13" d="M531.2,380.1h-11.5c-1,0-1.9,0.4-2.6,1.2c-0.7,0.7-1.1,1.8-1.1,2.8c0,1.1,0.4,2.1,1.1,2.8
				c0.7,0.7,1.6,1.2,2.6,1.2h11.5c1,0,1.9-0.4,2.6-1.2c0.7-0.7,1.1-1.8,1.1-2.8c0-1.1-0.4-2.1-1.1-2.8
				C533.1,380.5,532.2,380.1,531.2,380.1z"/>
			<path class="st7" d="M496,263.4h-0.6v-0.7v-0.1h0.1h0.1v0.1v0.4h0.4h0.1v0.1C496.2,263.3,496.1,263.3,496,263.4
				C496.1,263.4,496.1,263.4,496,263.4z"/>
			<path class="st7" d="M551.2,263.4h-0.6h-0.1v-0.1v-0.1h0.1h0.4v-0.4v-0.1h0.1h0.1v0.1V263.4z"/>
			<path class="st8" d="M509.1,305.6v2.9h32.4v-2.9H509.1z"/>
			<path class="st8" d="M497.3,313.5v2.9h56v-2.9H497.3z"/>
			<path class="st17" d="M494.4,323h60.8c1.9,0,3.4,1.5,3.4,3.4v37c0,1.8-1.5,3.3-3.4,3.3h-60.8c-1.9,0-3.4-1.5-3.4-3.3v-37
				C491.1,324.5,492.6,323,494.4,323z"/>
			<path class="st8" d="M508.1,329.2h45.2c0.5,0,1,0.4,1,1l0,0c0,0.5-0.4,1-1,1h-45.2c-0.5,0-1-0.4-1-1l0,0
				C507.1,329.6,507.6,329.2,508.1,329.2z"/>
			<path class="st8" d="M508.3,335.2h22.6c0.5,0,1,0.4,1,1l0,0c0,0.5-0.4,1-1,1h-22.6c-0.5,0-1-0.4-1-1l0,0
				C507.3,335.6,507.8,335.2,508.3,335.2z"/>
			<path class="st9" d="M499.6,337.4c2.8,0,5.1-2.3,5.1-5.1c0-2.8-2.3-5.1-5.1-5.1s-5.1,2.3-5.1,5.1S496.8,337.4,499.6,337.4z"/>
			<path class="st5" d="M485.3,233.8h79.1"/>
			<path class="st5" d="M485.3,374.3h79.1"/>
		</g>
	</g>
</g>
<path class="st13" d="M491,294.6v-45.9c0-1.1,0.3-1.9,0.6-1.9l67.1-0.1c0.4,0,0.6,0.9,0.6,1.9l-0.1,45.9c0,1.1-0.3,1.9-0.6,1.9
	l-67,0.1C491.2,296.5,491,295.6,491,294.6z"/>
<path class="st7" d="M561,272.1c0-0.5-0.1-0.9-0.3-1.2c-6.3-7.8-14.9-7.4-21.5,1.2c-3.3,4.3-6,10.4-9.5,13.8
	c-4.3,4.2-9.3,3.6-13.8,1.8c-4.6-1.7-9.1-4.4-13.7-4.1s-9.8,4.3-12.4,12.6c-0.1,0.2-0.1,0.4-0.1,0.6c0,0.6,0.2,1.2,0.5,1.2l69.3,0.3
	c0.4,0,0.7-0.6,0.7-1.4L561,272.1z"/>
<path class="st18" d="M490.2,248.7v45.9c0,0.6,0.1,1.2,0.2,1.6c0.1,0.2,0.2,0.4,0.3,0.6c0.1,0.2,0.4,0.4,0.8,0.4l67-0.1
	c0.4,0,0.7-0.3,0.9-0.5s0.3-0.4,0.3-0.6c0.1-0.4,0.2-1,0.2-1.6l0.1-45.9c0-0.6-0.1-1.2-0.2-1.6c-0.1-0.2-0.2-0.4-0.3-0.6
	c-0.1-0.2-0.4-0.4-0.8-0.4l-67.1,0.1c-0.4,0-0.7,0.3-0.9,0.5c-0.2,0.2-0.3,0.4-0.3,0.7C490.3,247.6,490.2,248.1,490.2,248.7z"/>
<path class="st18" d="M490.4,296.5c0.8-4.3,3.9-12.3,11.3-12.3s11.3,3.9,19.6,3.9c7.4,0,11.3-6.9,14.2-11
	c5.9-8.4,8.3-11.6,15.2-11.6c4.9,0,9.3,4.2,9.3,4.2"/>
<path class="st8" d="M508.6,227.4c0,0.5-0.1,0.9-0.4,1.3c-0.3,0.4-0.7,0.7-1.1,0.9c-0.5,0.2-1,0.2-1.5,0.1c-0.5-0.1-0.9-0.3-1.3-0.6
	s-0.6-0.7-0.7-1.2c-0.1-0.4,0-0.9,0.1-1.3c0.2-0.4,0.5-0.8,0.9-1c0.4-0.3,0.9-0.4,1.4-0.4c0.7,0,1.3,0.2,1.8,0.7
	C508.3,226.2,508.6,226.8,508.6,227.4z"/>
<path class="st9" d="M500.6,227.4c0,0.5-0.1,0.9-0.4,1.3c-0.3,0.4-0.7,0.7-1.1,0.8c-0.5,0.2-1,0.2-1.5,0.1c-0.5-0.1-0.9-0.3-1.3-0.6
	s-0.6-0.7-0.7-1.2c-0.1-0.4,0-0.9,0.1-1.3c0.2-0.4,0.5-0.8,0.9-1c0.4-0.3,0.9-0.4,1.4-0.4c0.7,0,1.3,0.2,1.8,0.7
	C500.3,226.2,500.6,226.8,500.6,227.4z"/>
<path class="st6" d="M492.6,227.4c0,0.5-0.1,0.9-0.4,1.3c-0.3,0.4-0.7,0.7-1.1,0.8c-0.5,0.2-1,0.2-1.5,0.1c-0.5-0.1-0.9-0.3-1.3-0.6
	s-0.6-0.7-0.7-1.2c-0.1-0.4,0-0.9,0.1-1.3c0.2-0.4,0.5-0.8,0.9-1c0.4-0.3,0.9-0.4,1.4-0.4c0.7,0,1.3,0.2,1.8,0.7
	C492.3,226.2,492.6,226.8,492.6,227.4z"/>
<path class="st6" d="M623.1,354.3l48.8,13.9c7.4,2.1,11.9,9.6,10,16.8L670,430.5c-1.9,7.2-9.4,11.3-16.8,9.2l-48.8-13.9
	c-7.4-2.1-11.9-9.6-10-16.8l11.9-45.5C608.2,356.3,615.7,352.2,623.1,354.3z"/>
<path class="st19" d="M613.6,405.5l8.2-31.4c0.1-0.2,0.2-0.3,0.4-0.2c0.5,0.2,1,0.3,1.8,0.5s1.5,0.4,2.4,0.6s1.8,0.5,2.8,0.7
	s1.9,0.5,2.9,0.8c2.6,0.7,4.6,1.6,6.2,2.8c1.4,1,2.7,2.2,3.6,3.7c0.8,1.3,1.2,2.7,1.4,4.1c0.1,1.4,0,2.8-0.3,4.2
	c-0.7,2.6-1.9,4.6-3.6,6c-1.7,1.4-3.8,2.1-6,2.3c-2.3,0.2-4.8-0.2-7.3-1c-0.8-0.2-1.3-0.4-1.6-0.5s-0.7-0.2-1.3-0.4l-2.6,9.8
	c0,0.2-0.2,0.4-0.5,0.3H620l-6-1.7C613.6,405.9,613.5,405.7,613.6,405.5z M627.2,381.6l-2.7,10.3c0.4,0.2,0.8,0.3,1.2,0.4l1.7,0.5
	c1.2,0.3,2.5,0.5,3.8,0.5c1.1,0,2.1-0.3,3-0.9s1.4-1.5,1.8-2.9c0.3-0.9,0.3-2,0-2.9s-0.9-1.8-1.7-2.4c-1-0.8-2.3-1.3-3.6-1.7
	c-0.8-0.2-1.5-0.4-2.1-0.6C627.9,381.7,627.5,381.6,627.2,381.6z"/>
<path class="st19" d="M661.6,400.4c-0.8-0.8-1.7-1.4-2.8-1.9c-1.1-0.6-2.2-1.1-3.4-1.4c-0.6-0.2-1.3-0.3-1.9-0.3
	c-0.4,0-0.8,0.1-1.1,0.3c-0.2,0.2-0.4,0.5-0.5,0.8s0,0.6,0.1,0.9c0.2,0.4,0.5,0.8,0.9,1.1c0.6,0.6,1.3,1.1,2,1.6
	c1.6,1,3,2.3,4.3,3.6c0.9,0.9,1.5,2,1.8,3.2c0.2,1.1,0.2,2.3-0.1,3.4c-0.3,1.4-1.2,2.8-2.3,3.7c-1.2,1-2.7,1.6-4.2,1.7
	c-1.7,0.2-3.7,0-6-0.6c-1.4-0.4-2.8-0.9-4.2-1.6c-1.1-0.5-2.1-1.1-3-1.9c-0.2-0.2-0.3-0.4-0.2-0.7l1.4-5.3c0-0.1,0.1-0.2,0.2-0.2
	c0.1,0,0.2,0,0.3,0.1c1,1.1,2.2,1.9,3.5,2.6c1.1,0.6,2.3,1.2,3.6,1.5c1.2,0.3,2.1,0.4,2.7,0.3c0.6-0.1,1-0.5,1.2-1
	c0.1-0.4,0-0.9-0.4-1.4s-1.3-1.3-2.7-2.3c-1.5-1-2.7-2.2-3.9-3.5c-0.8-0.9-1.4-2.1-1.7-3.3c-0.2-1.1-0.2-2.3,0.1-3.3
	c0.3-1.3,1-2.5,2-3.4c1.1-1,2.5-1.6,4-1.9c1.7-0.3,3.6-0.1,5.8,0.5c1.3,0.4,2.6,0.8,3.8,1.4c0.9,0.4,1.8,0.9,2.5,1.5
	c0.1,0.1,0.2,0.2,0.2,0.4c0,0.1,0,0.3,0,0.4l-1.3,5c0,0.1-0.1,0.2-0.2,0.3C661.9,400.5,661.7,400.5,661.6,400.4z"/>
<path class="st13" d="M251.3,376.3c5.1-4.3,41.1-16.5,49.8-19.3c8.7-2.9,88.6-1.1,88.6-1.1l11.1-0.6c6.5,3,27.9,14.1,36.7,21
	c11.1,8.7,14.9,21.5,16.5,25.8s18.6,67.8,21.8,78c3.2,10.2,5.3,24.7,3.7,33.3c-1.6,8.6-8.5,13.4-20.2,19.4c-9.3,4.7-17,7-19.6,7.5
	l-190,2.7c-12-6.5-35.2-10.7-38.7-23.1c-1.3-4.5-1.6-18.8,0-26.4c1.6-7.5,21.2-72.1,24.4-88.2C238.5,389.2,244.9,381.6,251.3,376.3z
	"/>
<path class="st20" d="M340.1,386.2l-7.9-15.9l7.9-4.8l7.4,7.4L340.1,386.2z"/>
<path class="st21" d="M331.5,384.9c0,27-3.2,48.7-2.6,59.3"/>
<path class="st21" d="M349,385.4c-0.5,13.1,0,51.6,0.6,62.2"/>
<path class="st8" d="M286,277.7l122.3,23.6L397,356.9l-6.7-0.6l-89.2,0.6L286,362V277.7z"/>
<path class="st6" d="M343.2,391.1l0.3,3.6c0,0.2,0,0.3,0,0.5c0,1.7-1.7,3.1-3.7,3.1c-2.1,0-3.7-1.4-3.7-3.1c0-0.1,0-0.2,0-0.3l0,0
	l0.4-3.7c0,0,0-0.1,0.1-0.1l0.1-0.1h0.1h0.1l2,1.2c0.3-0.1,0.6-0.1,0.9-0.1s0.6,0,0.9,0.1l1.9-1.3c0.1,0,0.1-0.1,0.2-0.1
	s0.1,0,0.2,0s0.1,0.1,0.2,0.1C343.2,391,343.2,391,343.2,391.1z"/>
<path class="st19" d="M315.6,355.2c5-6,4.9-21.3,3-28.6l43.5-2c-0.6,1.9-3.3,22.3,2.6,31.8c0,0-13,14.1-24.5,14.7
	s-20.2-9.3-22.9-12.4"/>
<path class="st0" d="M315.6,355.2c5-6,4.9-21.3,3-28.6l43.5-2c-0.6,1.9-3.3,22.3,2.6,31.8c0,0-13,14.1-24.5,14.7
	s-20.2-9.3-22.9-12.4"/>
<path class="st19" d="M358.8,340.3l0.5-12.3l-38.7,0.7l0.7,11.6C344.5,349.9,358.8,340.3,358.8,340.3z"/>
<path class="st22" d="M315.8,352.2c0,0,3.1,16.4,25.9,15.5c16.8-0.6,23-14.1,23-14.1l23.9,3.4c0.6,3.9-11.9,26.6-31.2,24.3
	c-13.2-1.6-16.7-10.8-16.7-10.8s-3.8,6.5-15.3,9c-24.2,5.2-23.1-22-23.1-22L315.8,352.2z"/>
<path class="st23" d="M310.2,357.3c0,0,16.8,67.2,29.5,83.1c5.8,7.2,29.1-83.8,29.1-83.8"/>
<path class="st13" d="M356.5,305.5l-9.3-29.9l-18.4,13.7L356.5,305.5z"/>
<path class="st19" d="M289.8,247.2c0,0,0.2,21.3,4.7,38.8s2.6,24.6,9.4,33.8c6.1,8.3,24,21.1,34.4,21.1c13,0,28.2-8.9,37.4-20.7
	c9.2-11.7,9-19.8,9-19.8s15.4-4,15.4-21.5s-9.2-16-15.8-13.8l-2-43.3l-24.7-21.1l-33.3,5.7L289.8,247.2z"/>
<path class="st6" d="M289.8,247.2l-0.7-0.6l-0.2,0.3v0.3H289.8z M294.5,285.9l-0.9,0.2L294.5,285.9z M303.9,319.7l-0.7,0.5l0,0
	L303.9,319.7z M338.3,340.8v-0.9V340.8z M375.6,320.1l0.7,0.6L375.6,320.1z M384.7,300.4l-0.2-0.9l-0.7,0.2v0.7L384.7,300.4z
	 M400.1,278.9h-0.9H400.1z M384.2,265.1h-0.9l0.1,1.2l1.1-0.4L384.2,265.1z M382.3,221.8h0.9v-0.4l-0.3-0.3L382.3,221.8z
	 M357.6,200.7l0.6-0.7l-0.3-0.3l-0.4,0.1L357.6,200.7z M324.3,206.4l-0.2-0.9l-0.3,0.1l-0.2,0.2L324.3,206.4z M289.8,247.2
	c-0.9,0-0.9,0-0.9,0l0,0l0,0l0,0l0,0c0,0,0,0.1,0,0.2c0,0.2,0,0.4,0,0.7c0,0.6,0,1.5,0.1,2.7c0.1,2.3,0.3,5.5,0.6,9.3
	c0.6,7.5,1.8,17.3,4.1,26.1l1.7-0.4c-2.2-8.7-3.4-18.3-4-25.8c-0.3-3.7-0.5-6.9-0.6-9.2c0-1.1-0.1-2-0.1-2.6c0-0.3,0-0.5,0-0.7
	c0-0.1,0-0.1,0-0.2l0,0l0,0l0,0l0,0C290.7,247.2,290.7,247.2,289.8,247.2z M293.6,286.2c2.2,8.7,2.9,14.7,3.8,19.9
	c1,5.2,2.2,9.4,5.7,14.2l1.4-1.1c-3.3-4.5-4.4-8.4-5.4-13.4c-0.9-5-1.6-11.3-3.9-20.1L293.6,286.2z M303.2,320.3
	c3.1,4.3,9.2,9.6,15.8,13.9c3.3,2.1,6.8,4,10.1,5.4c3.3,1.4,6.5,2.2,9.2,2.2V340c-2.4,0-5.4-0.8-8.5-2.1c-3.2-1.3-6.5-3.1-9.8-5.2
	c-6.5-4.2-12.4-9.4-15.3-13.4L303.2,320.3z M338.3,341.7c13.4,0,28.8-9.1,38.1-21l-1.4-1.1c-9.1,11.6-24,20.4-36.7,20.4V341.7z
	 M376.4,320.7c4.7-6,7-11,8.1-14.6c0.6-1.8,0.8-3.2,1-4.2c0.1-0.5,0.1-0.9,0.1-1.1c0-0.1,0-0.2,0-0.3v-0.1l0,0l0,0l0,0l0,0
	c0,0,0,0-0.9,0s-0.9,0-0.9,0l0,0l0,0l0,0l0,0c0,0,0,0,0,0.1c0,0,0,0.1,0,0.2c0,0.2,0,0.6-0.1,1c-0.1,0.9-0.4,2.2-0.9,3.9
	c-1.1,3.4-3.3,8.2-7.8,14L376.4,320.7z M384.7,300.4c0.2,0.9,0.2,0.9,0.2,0.9l0,0l0,0l0,0l0,0h0.1c0.1,0,0.3-0.1,0.5-0.2
	c0.4-0.2,1.1-0.4,1.8-0.7c1.5-0.7,3.5-1.8,5.5-3.4c4-3.3,8-8.9,8-18H399c0,8.4-3.7,13.6-7.4,16.6c-1.9,1.5-3.7,2.5-5.1,3.1
	c-0.7,0.3-1.3,0.5-1.7,0.7c-0.2,0.1-0.4,0.1-0.5,0.1s-0.1,0-0.1,0l0,0l0,0l0,0l0,0C384.4,299.5,384.4,299.5,384.7,300.4z M401,278.9
	c0-8.8-2.3-13.3-5.9-15.1c-1.8-0.9-3.7-1-5.6-0.8s-3.8,0.7-5.5,1.3l0.6,1.7c1.6-0.6,3.4-1,5.1-1.2s3.3,0,4.6,0.6
	c2.6,1.3,4.9,4.8,4.9,13.5H401z M385.1,265.1l-2-43.3l-1.8,0.1l2,43.3L385.1,265.1z M382.8,221.1L358.2,200l-1.2,1.4l24.7,21.1
	L382.8,221.1z M357.4,199.8l-33.3,5.7l0.3,1.8l33.3-5.7L357.4,199.8z M323.6,205.8l-34.5,40.8l1.4,1.2L325,207L323.6,205.8z"/>
<path class="st23" d="M388.3,276.6c0.9,1.7,1.3,3.7,1.2,5.7c-0.1,2-0.6,4-1.6,5.7"/>
<path class="st8" d="M267.5,403.9c0,0-3.8-31.7,1.2-58.9c5-27.2,2.7-56.7,5-79.2s5.7-39.7,24-57.1c12.7-12.2,38.5-17,53.3-15.3
	c18.5-2.7,42,14.7,48.3,40.8s6.6,31.9,7.7,55.4c1.1,24.9,8.2,34.8,12.9,53.5c4.7,18.7,4.8,24.9,4.8,24.9
	c-10.6-6.2-25.9-11.6-40.4-13.3c-9.5-1.1-17.9-3.3-19.6-5.1c0-7.9,12.5-17.7,11.7-26.6c0,0,5.6-6,7.9-10.7c2.1-4.3,6-13.7,6-13.7
	c4-3.1,5.9-6.2,7.2-12.4c1.7-7.9,0.2-13.3-2.8-16.4c-2.1-2.2-5.5-4.1-8.9-2.8c-3.5,1.2-3.9,2.8-3.9,2.8s-12.3,4.5-22.3-12.4
	c-8.7-14.6-8.6-23.1-8.6-23.1c-12.7,2.2-19.3,6.7-33.2,27.6c-7.8,11.6-20.7,18.7-20.7,18.7c-1,0-10.8,5.5-5.5,18.7
	c1.8,4.4,10.9,40.2,10.9,40.2c2.2,28.9-8.5,51.3-6.9,64.6C297.6,420.9,276.4,412.9,267.5,403.9z"/>
<path class="st5" d="M352,240.6c0.6,6,14.3,36,29.3,29.2"/>
<path class="st24" d="M381.3,269.8c2.8-4,9.9-5.1,13.9,1.1c4.6,7.2,5.1,25.1-10.5,29.4"/>
<path class="st5" d="M361.8,237.5c0,11.9,16.3,29,22.9,28.9"/>
<path class="st5" d="M273.4,274.2c0-24.2,7.3-42.8,12.6-52.4c5.2-9.6,24.5-29.4,61.3-29.4"/>
<path class="st5" d="M274.3,294.7c0,0-2.2,30.5-3.9,40.2c-3.1,17.6-2.1,45.8-4.4,67.5"/>
<path class="st5" d="M424.7,366.9c0,0,2.2-3.4-4.8-25.4c-5.8-18.5-10.3-23.4-12.4-43.8c-1.7-16.3-1.1-40.3-8.9-62.4
	c-7.1-20.1-19.2-38.5-42.4-40.7"/>
<path class="st5" d="M389.7,333.7c0,9.1,0,18.7,2.2,22.6"/>
<path class="st21" d="M298.7,307.6c11.1,43.4-2.6,74.9-2.6,95.2"/>
<path class="st21" d="M285.1,333c4.1,27-7.6,52.3-2.2,83.6"/>
<path class="st5" d="M323.8,233.4c-8.9,3.5-13.8,27.4-25.6,30.7"/>
<path class="st5" d="M350.5,235c-7-1.8-17.8,4.2-25.5,16.7c-6.8,11.1-24.5,34.5-51.3,36.8"/>
<path class="st5" d="M263.4,406.1l9.9,30.9l-19.1,54.3c-2.1-1.4-8.3-2.9-15.9,2.7c-7.6,5.6-11,10.2-11.7,11.8"/>
<path class="st5" d="M413.1,400.8L397.2,503l28.1-3.8c2.7-0.7,9.3-0.9,14.9,4.3c5.5,5.2,9.4,8.6,10.6,9.7"/>
<path class="st6" d="M318.3,293.6c2.7,0,4.8-3.2,4.9-7.3c0-4.1-2.1-7.4-4.8-7.4c-2.7,0-4.8,3.2-4.9,7.3
	C313.5,290.2,315.6,293.6,318.3,293.6z"/>
<path class="st3" d="M315.2,274.3c-2.1,0.6-3.4,2.1-3.6,3c-0.2,0.8-1.1,1.2-2,0.9c-0.8-0.3-1.3-1.1-1.1-1.8c0.6-1.9,2.7-3.9,5.6-4.8
	c3-0.9,6.9-0.6,11,2.3c0.7,0.5,0.9,1.4,0.3,2s-1.5,0.7-2.2,0.2C319.9,273.8,317.2,273.7,315.2,274.3z"/>
<path class="st3" d="M360.4,272.5c-2.1,0.1-3.7,1.2-4.2,2c-0.4,0.7-1.4,0.9-2.1,0.4c-0.7-0.4-0.9-1.3-0.5-2c1.1-1.6,3.6-3.1,6.5-3.3
	c3.1-0.2,6.5,1,9.3,4.7c0.5,0.6,0.4,1.5-0.3,2c-0.7,0.5-1.6,0.3-2.1-0.3C364.8,273.1,362.4,272.4,360.4,272.5z"/>
<path class="st6" d="M359.6,292.8c2.6,0.3,5.1-2.8,5.5-6.8s-1.4-7.5-4.1-7.8c-2.6-0.3-5.1,2.8-5.5,6.8S357,292.5,359.6,292.8z"/>
<path class="st6" d="M338.2,298.8l3.5,2.2l0.1-6"/>
<path class="st25" d="M331.9,315.8c3.6,2.3,13.5,3.3,18.7-1.2"/>
<path class="st26" d="M243.6,529.6l-6.8-139.4c-0.1-2.3,1.7-4.2,4-4.2h194.7c2.2,0,4,1.8,4,4.1l-2.6,139.4c0,2.2-1.8,3.9-4,3.9
	H247.6C245.5,533.4,243.7,531.8,243.6,529.6z"/>
<path class="st6" d="M351.9,429l2,15.6c0.2,0.7,0.2,1.4,0.3,2.1c0.3,7.4-6.7,13.6-15.6,14c-8.9,0.3-16.3-5.4-16.6-12.7
	c0-0.4,0-0.9,0-1.3l-0.1,0.1l1.1-16c0-0.2,0.1-0.4,0.2-0.6s0.3-0.3,0.5-0.4s0.4-0.1,0.6-0.1s0.4,0.1,0.6,0.2l8.7,4.8
	c1.3-0.3,2.6-0.5,3.9-0.6c1.2,0,2.5,0,3.7,0.2l7.9-6.2c0.2-0.2,0.5-0.3,0.8-0.3s0.6,0,0.9,0.1s0.5,0.3,0.7,0.5
	C351.8,428.5,351.9,428.7,351.9,429z"/>
<path class="st19" d="M334.8,439.1c1.3,0.6,3.4,1.8,4.4,2.5l-1.3,2.1c-1.1-0.7-3.1-1.9-4.4-2.5L334.8,439.1z M331.8,452.4
	c2.1-0.4,4.4-1.2,6.4-2.4c3.2-1.9,5.7-4.5,7.1-7.3l1.6,2.5c-1.7,2.7-4.3,5.1-7.3,7c-1.9,1.1-4.6,2.2-6.3,2.5L331.8,452.4z
	 M332,443.4c1.3,0.6,3.4,1.8,4.5,2.5l-1.3,2.1c-1.1-0.7-3.1-1.9-4.4-2.5L332,443.4z"/>
<path class="st19" d="M261.2,422l0.4,10.7l1.3,1.9l0.3,4.7l2,5.6l-0.6,5l-0.3,6.6l-1.6,4.2l-2.4,4.5l-3.7,1.7l0.5,8.5l-1.2,15.2
	l-1.8,9.4l-0.2,7l1.6,11.5l6.2,22.4l3.3,2.4l4.1,5.6l-2.3,4.6l-7.5,2.8l-4.4,1.1l-3.9,0.8l-4.9-0.8l-4.4-4.8l-5.4,3.1l-5.7,1.5
	l-0.8,3.9l-3.5,2.8l-8.2,1.4l-17,3l-4.2-0.9l-2.1-3.4l-6.1-3.2l-9.4-10.2l-4.4-13.2l-0.6-14.4l0.5-10.8l4.5-16.4l7-13.6l9.3-9.7
	l7.3-4l12.6-7.6l-0.6-3.1l-2.4-7.6l0.5-8.1l2.3-6.8l4.1-5l1.9-6.2l1.7-7.3l1.6-2.4l5.7,6.5l5.2,6.6l3.1,0.5l8.5,0.1l4.4-3.5l8.7-7.4
	L261.2,422z"/>
<path class="st9" d="M257,524.4c-0.1,0.7,3,11.4,3.4,15c0,0-7.5,1.2-7.7-5.8c-0.2-6.5-2.5-10.9-1.6-13.3c0.5-1.4,0.1-4.9,2.6-4.9
	C256.2,515.3,257.5,521.5,257,524.4z"/>
<path class="st9" d="M194.7,473.5l10.3-5.6c3,1.4,2.9,10.9-1.9,15.9c-2.5,2.7-8.5,13.5-17.3,12.9c-7.1-0.4-4-6-2.9-8.3L194.7,473.5z
	"/>
<path class="st9" d="M195.1,521.1c-7.3-1.6-8.3,5.6-6.9,8.9c-11.2,8-2.3,14.4,3.6,15.3c4.6,0.7,11.5-3,12.9-9.2
	S202.4,522.8,195.1,521.1z"/>
<path class="st9" d="M262,425.6l0.4,8.1l0.9,6.3l1.9,8.3c-8.2,3-21.4-7.7-24.4-11.8c-4.8,11.5-25.1,7.4-26.1,0.5l5.1-6.6l2.1-8.4
	l2.9-7.4l4.9,4.6l5.4,9.6l3-1.2h5.9l3.3,1.4l14-9.7L262,425.6z"/>
<path class="st5" d="M251.7,468.4c11.2-2,14.4-11.3,14.2-18.1c-0.2-9.6-3.7-15-3.7-15c0.1-4.9-0.4-16.1-1.6-15.9s-8.6,6.2-12.4,9.9
	c-2.6-0.6-9.4-2.1-12.4-1.2c-3.4-4.8-9.5-13.9-11-13.6c-1.1,0.2-3.7,12.9-4.2,15.7c-2.5,2-7.3,9.4-8.4,18.1
	c-0.7,6.1,3.9,12.2,3.9,12.2s-3.7,4.4-13.5,8.3s-22.5,17.4-26.7,40.6c-4,22.2-2.1,43.3,19.1,55.2c0.9,4.7,4.7,3.6,12.5,2.6
	c10.3-1.3,23.6-2.5,22.9-8.8c-0.7-6.3-6-5.4-6-5.4s-13.4,3.4-12.4-2.1c4.2-5.4,10.5-21.6,4.4-30.8c-7.6-11.6-19.3-9.5-24.9-4.8"/>
<path class="st5" d="M257,470c0,6.4,0.6,17.1-2.7,28.9c-1.6,5.7,5,39.1,6.9,41.4c2.5,0.8,7.6,4.6,7.6,8.9c0,4.3-4.9,5.9-7.4,6.1"/>
<path class="st5" d="M243.2,513c1.7,9.2,7.1,30.7,9.4,32.3c2.1,0.8,7.2,3.4,6.5,8.3c-0.9,6.1-11.1,4.9-12.8,3.7s-14-24.5-16.5-33
	c-2-6.8-4.1-15.2-4.9-18.6"/>
<path class="st1" d="M242.2,551.1c-1.5,1.7-6.4,6.2-12.4,6.3"/>
<path class="st5" d="M246.7,468.6c-2.5,0.8-9.3,1.5-16.4-2"/>
<path class="st27" d="M232.3,443.6l0.1-2.7"/>
<ellipse transform="matrix(0.9766 -0.215 0.215 0.9766 -90.7489 62.1026)" class="st6" cx="240.1" cy="448.2" rx="1" ry="1.1"/>
<path class="st28" d="M242.7,455.2L240,452l-3.1,2.2"/>
<path class="st28" d="M218.6,453c-2.2,0-7.3,0.3-10.2,1.2"/>
<path class="st28" d="M219.3,448.1c0,0-4.5-2.9-11.6-1"/>
<path class="st28" d="M257.7,460.1c2.1,0.8,6.9,2.9,9.4,4.7"/>
<path class="st28" d="M258.8,454.6c3.2-0.1,8,0,12.5,2.9"/>
<path class="st5" d="M249.1,444.4l4.5-0.3"/>
<path class="st29" d="M347.7,689c-88.7,1-146-30.8-181.6-77.7c-34.5-45.5-48.7-105.2-50.9-163.2c1.2,1.9,2.8,3.8,4.7,5.7
	c3.7,3.4,8.7,6.7,14.9,9.7c12.4,6.1,29.6,11.5,50.5,15.8c41.8,8.8,98.3,13.7,160.5,12.7c64-1,122-7.5,163.9-17.5
	c21-5,38-10.9,49.8-17.4c8.5-4.7,14.5-9.9,17.1-15.5c0.1,1.3,0.1,2.7,0.2,4.3c0.3,6.9,0.4,16.7-0.3,28.5
	c-1.4,23.6-5.9,55.1-18.4,86.7s-33,63.2-66.4,87.1C458.2,672,411.9,688.3,347.7,689z"/>
<path class="st30" d="M149,586.1c-22-40.1-31.3-87.3-35-135.1l40.3,20.2c3.2,13.5,4.4,61.9,41.6,118.5C242.3,660.4,332,690,332,690
	c-29.4-0.7-64.8-8.7-75.5-12.4C242.9,673,183.2,648.5,149,586.1z"/>
<g>
	<g>
		<defs>
			<polygon id="SVGID_3_" points="535,531.1 592.5,507 614.8,561.9 557.3,586 			"/>
		</defs>
		<clipPath id="SVGID_4_">
			<use xlink:href="#SVGID_3_"  style="overflow:visible;"/>
		</clipPath>
		<g class="st31">
			<path class="st8" d="M545.2,526.8l37.1-15.5c5.6-2.4,12,0.2,14.2,5.7l14.2,35c2.2,5.5-0.5,11.9-6.1,14.2l-37.1,15.5
				c-5.6,2.4-12-0.2-14.2-5.7L539,541C536.8,535.5,539.6,529.2,545.2,526.8z"/>
			<path class="st19" d="M576.1,552.3l-8.9,3.7l0.4,6.3c0,0.2-0.1,0.5-0.3,0.5l-4.5,1.9c-0.3,0.1-0.4,0-0.4-0.3l-1.1-25
				c0-0.3-0.1-0.6-0.1-0.9c-0.1-0.5-0.3-1.1-0.5-1.6c-0.1-0.1,0-0.3,0.1-0.3l6.2-2.6c0.2-0.1,0.3,0,0.4,0.1l18.5,20.5
				c0.2,0.2,0.2,0.4-0.1,0.5l-5,2.1c-0.2,0.1-0.4,0-0.5-0.1L576.1,552.3z M566.7,550.7l6.1-2.5c-0.3-0.4-0.8-0.9-1.2-1.5
				c-0.5-0.5-1-1.1-1.5-1.7c-0.5-0.6-1-1.2-1.6-1.9c-0.5-0.6-1-1.2-1.5-1.8s-0.9-1.1-1.3-1.6l0,0c0.2,1.1,0.3,2.2,0.4,3.4
				c0.1,1.3,0.2,2.6,0.3,3.9C566.5,548.3,566.6,549.5,566.7,550.7z M583.1,532.1c-0.8,0.4-1.7,0.4-2.5,0.1c-0.8-0.4-1.4-1-1.7-1.8
				s-0.3-1.7,0-2.4c0.4-0.8,1-1.4,1.8-1.7c0.9-0.4,1.8-0.4,2.5-0.1c0.8,0.3,1.3,1,1.6,1.8s0.4,1.7,0,2.5
				C584.6,531.1,583.9,531.8,583.1,532.1z M588.6,553.6l-7.3-18.1c-0.1-0.2,0-0.4,0.2-0.5l4.7-2c0.2-0.1,0.4,0,0.4,0.2l7.3,18.1
				c0.1,0.3,0.1,0.4-0.2,0.5l-4.7,2C588.9,553.9,588.7,553.8,588.6,553.6z"/>
		</g>
	</g>
</g>
<g>
	<g>
		<defs>
			<rect id="SVGID_5_" x="58" y="256" width="147" height="63"/>
		</defs>
		<clipPath id="SVGID_6_">
			<use xlink:href="#SVGID_5_"  style="overflow:visible;"/>
		</clipPath>
		<g class="st32">
			<path class="st16" d="M204,260.2v54.6c0,0.8-0.4,1.5-1.3,2.2c-0.9,0.6-2.2,1.1-3.6,1.1H63.9l0,0c-1.5,0-2.7-0.4-3.6-1.1
				c-0.9-0.6-1.3-1.4-1.3-2.2v-54.6c0-0.8,0.4-1.5,1.3-2.2c0.9-0.6,2.2-1.1,3.6-1.1h135.2c1.4,0,2.7,0.4,3.6,1.1
				C203.6,258.7,204,259.5,204,260.2z"/>
			<path class="st16" d="M204,263.9v3.7H59v-3.7c0-2,0.6-3.7,1.5-5c0.9-1.2,2.1-1.9,3.4-1.9h135.2c1.2,0,2.5,0.7,3.4,1.9
				C203.4,260.1,204,261.9,204,263.9z"/>
			<path class="st8" d="M84.6,280.4H70.2v14.4h14.4V280.4z"/>
			<path class="st8" d="M91.8,287.6H77.4V302h14.4V287.6z"/>
			<path class="st8" d="M118.2,280.4h-14.4v14.4h14.4V280.4z"/>
			<path class="st19" d="M125.4,287.6H111V302h14.4V287.6z"/>
			<path class="st8" d="M126,302.7h-15.6V287H126V302.7z M111.6,301.4h13.2v-13.2h-13.2V301.4z"/>
			<path class="st19" d="M151.7,280.4h-14.4v14.4h14.4V280.4z"/>
			<path class="st8" d="M152.4,295.5h-15.6v-15.7h15.6V295.5z M138,294.2h13.2V281H138V294.2z"/>
			<path class="st19" d="M158.9,287.6h-14.4V302h14.4V287.6z"/>
			<path class="st8" d="M159.6,302.7H144V287h15.6V302.7z M145.2,301.4h13.2v-13.2h-13.2V301.4z"/>
			<path class="st8" d="M152.4,287h-8.5v8.4h8.5V287z"/>
			<path class="st8" d="M185.3,280.4h-14.4v14.4h14.4V280.4z"/>
			<path class="st8" d="M192.5,287.6h-14.4V302h14.4V287.6z"/>
			<path class="st19" d="M185,287.9h-6.6v6.6h6.6V287.9z"/>
		</g>
	</g>
</g>
<g>
	<g>
		<defs>
			
				<rect id="SVGID_7_" x="115.2" y="365.8" transform="matrix(0.1935 -0.9811 0.9811 0.1935 -271.161 453.5468)" width="50.2" height="51.8"/>
		</defs>
		<clipPath id="SVGID_8_">
			<use xlink:href="#SVGID_7_"  style="overflow:visible;"/>
		</clipPath>
		<g class="st33">
			<path class="st6" d="M128.7,363.8l32.8,6.5c5,1,8.2,5.8,7.2,10.7l-6.2,31.4c-1,5-5.8,8.2-10.8,7.2l-32.8-6.5
				c-5-1-8.2-5.8-7.2-10.7L118,371C118.9,366,123.7,362.8,128.7,363.8z"/>
			<path class="st19" d="M143.9,380.2l-8.4,9.2l4.6,12.4c0,0.1,0,0.2,0,0.3c0,0.1-0.1,0-0.2,0l-4.8-1c-0.3-0.1-0.6-0.1-0.7-0.4
				c-0.3-1-0.6-1.9-0.8-2.9c-0.3-1-0.6-1.9-0.9-2.9c-0.3-1-0.7-2-1-3l0,0c-0.6,0.8-1.3,1.6-2,2.4s-1.3,1.6-2,2.4
				c-0.7,0.8-1.3,1.6-2,2.4c-0.1,0.2-0.3,0.2-0.5,0.1l-4.7-0.9c-0.1,0-0.2,0-0.1-0.1c0-0.1,0-0.2,0.1-0.2l8.7-9.4l-4.3-12.1
				c0-0.1-0.1-0.2,0-0.2c0.1-0.1,0.1-0.1,0.2,0l4.8,0.9c0.1,0,0.2,0.1,0.3,0.1c0.1,0.1,0.1,0.1,0.2,0.2c0.2,1,0.5,2,0.8,3s0.6,2,1,3
				c0.3,1,0.6,2,0.9,3l0,0c0.6-0.8,1.3-1.7,1.9-2.4s1.3-1.6,2-2.4s1.3-1.6,1.9-2.4c0-0.1,0.1-0.2,0.2-0.2c0.1,0,0.2,0,0.3,0l4.5,0.9
				c0.1,0,0.2,0.1,0.2,0.2C144,380.1,143.9,380.2,143.9,380.2z"/>
			<path class="st19" d="M149.3,404.4c-1.6-0.3-3.1-0.9-4.4-1.8c-1.2-0.9-2.1-2.1-2.6-3.5s-0.6-3.1-0.2-5c0.3-1.6,1-3,2-4.2
				c1.1-1.2,2.5-2.1,4-2.6c1.6-0.5,3.5-0.6,5.6-0.2c0.1,0,0.3,0,0.4,0.1c0.2,0.1,0.4,0.1,0.6,0.2l1.3-6.7c0-0.1,0.1-0.2,0.3-0.2
				l4.3,0.8c0.1,0,0.2,0.1,0.2,0.2l0,0l-4,20.1c-0.1,0.4-0.1,0.8-0.2,1.3c0,0.5-0.1,0.9-0.2,1.2c0,0.1-0.1,0.3-0.3,0.3
				c-1.2,0.2-2.4,0.4-3.6,0.3C151.5,404.7,150.4,404.6,149.3,404.4z M152.2,400.6l1.8-9.3c-0.2-0.1-0.4-0.2-0.6-0.2
				c-0.2-0.1-0.5-0.1-0.7-0.2c-0.8-0.2-1.7-0.2-2.5,0.1c-0.8,0.2-1.5,0.6-2.1,1.2s-1,1.4-1.2,2.5c-0.2,0.7-0.2,1.5-0.1,2.2
				c0.1,0.6,0.3,1.2,0.7,1.7c0.3,0.5,0.8,0.9,1.3,1.1c0.5,0.3,1.1,0.5,1.7,0.6c0.3,0.1,0.6,0.1,0.9,0.1
				C151.7,400.6,151.9,400.6,152.2,400.6z"/>
		</g>
	</g>
</g>
<path class="st34" d="M48.5,542.3L48.5,542.3c-2.5,1.4-5.5,1.8-8.3,1.1c-2.7-0.8-5.1-2.5-6.4-5l0,0L2.2,482l0,0
	c-1.4-2.5-1.7-5.4-0.9-8.1c0.8-2.7,2.6-5,5.2-6.4l0,0l57.8-32l0,0c2.5-1.4,5.5-1.8,8.3-1.1c2.7,0.8,5.1,2.5,6.4,5l0,0l31.5,56.3l0,0
	c1.4,2.5,1.7,5.4,0.9,8.1c-0.8,2.7-2.7,5-5.2,6.4L48.5,542.3z"/>
<path class="st6" d="M101.8,497.3l23.3-0.7l-3.9,5.3l10.8,4l-2.8,6.8l-10.9-4.7l-1.8,6.7L101.8,497.3z"/>
<path class="st1" d="M57.4,490.3c-1.1-1.9-1.3-4.2-0.7-6.4c0.6-2.2,2.1-4,4.1-5.1c2-1.1,4.4-1.4,6.6-0.8s4,2,5.1,4s1.3,4.2,0.7,6.4
	c-0.6,2.2-2.1,4-4.1,5.1c-2,1.1-4.4,1.4-6.6,0.8C60.3,493.6,58.5,492.2,57.4,490.3L57.4,490.3z"/>
<path class="st1" d="M50.5,513.3c-1.1-1.9-1.3-4.2-0.7-6.4c0.6-2.2,2.1-4,4.1-5.1l7.6-4.2l4.1,7.3c1.1,1.9,1.3,4.2,0.7,6.4
	c-0.6,2.2-2.1,4-4.1,5.1c-2,1.1-4.4,1.4-6.6,0.8C53.5,516.6,51.7,515.2,50.5,513.3z"/>
<path class="st1" d="M45,468.3l8.3,14.7l7.6-4.2c2-1.1,3.5-3,4.1-5.1c0.6-2.2,0.4-4.5-0.7-6.4c-1.1-1.9-2.9-3.3-5.1-4
	s-4.6-0.3-6.6,0.8L45,468.3z"/>
<path class="st1" d="M34,484c1.1,1.9,2.9,3.3,5.1,4s4.6,0.3,6.6-0.8l7.6-4.2L45,468.3l-7.6,4.2c-2,1.1-3.5,3-4.1,5.1
	C32.7,479.8,32.9,482,34,484z"/>
<path class="st1" d="M42.3,498.6c1.1,1.9,2.9,3.3,5.1,4c2.2,0.6,4.6,0.3,6.6-0.8l7.6-4.2l-8.3-14.7l-7.6,4.2c-2,1.1-3.5,3-4.1,5.1
	C40.9,494.4,41.2,496.7,42.3,498.6z"/>
</svg>
