<svg width="24" height="25" viewBox="0 0 24 25" fill="none" xmlns="http://www.w3.org/2000/svg">
<g clip-path="url(#clip0_1765_2389)">
<path d="M4.25 0.5H19.75C22.1 0.5 24 2.44872 24 4.85897V20.141C24 22.5513 22.1 24.5 19.75 24.5H4.25C1.9 24.5 0 22.5513 0 20.141V4.85897C0 2.44872 1.9 0.5 4.25 0.5Z" fill="#352D26"/>
<path d="M5.40039 17.3307V6.7769C5.40039 6.7051 5.43039 6.66408 5.50039 6.66408C5.67039 6.66408 5.83039 6.66408 6.06039 6.65382C6.30039 6.64356 6.55039 6.64356 6.82039 6.63331C7.09039 6.62305 7.38039 6.62305 7.69039 6.6128C8.00039 6.60254 8.30039 6.60254 8.60039 6.60254C9.42039 6.60254 10.1004 6.7051 10.6604 6.92049C11.1604 7.09485 11.6204 7.38203 12.0004 7.76151C12.3204 8.08972 12.5704 8.48972 12.7304 8.93074C12.8804 9.36151 12.9604 9.80254 12.9604 10.2641C12.9604 11.1461 12.7604 11.8743 12.3604 12.4487C11.9604 13.0231 11.4004 13.4538 10.7504 13.7C10.0704 13.9564 9.32039 14.0487 8.50039 14.0487C8.26039 14.0487 8.10039 14.0487 8.00039 14.0384C7.90039 14.0282 7.76039 14.0282 7.57039 14.0282V17.3205C7.58039 17.3923 7.53039 17.4538 7.46039 17.4641C7.45039 17.4641 7.44039 17.4641 7.42039 17.4641H5.52039C5.44039 17.4641 5.40039 17.4231 5.40039 17.3307ZM7.58039 8.64356V12.0897C7.72039 12.1 7.85039 12.1102 7.97039 12.1102H8.50039C8.89039 12.1102 9.28039 12.0487 9.65039 11.9256C9.97039 11.8333 10.2504 11.6384 10.4704 11.382C10.6804 11.1256 10.7804 10.7769 10.7804 10.3256C10.7904 10.0077 10.7104 9.68972 10.5504 9.4128C10.3804 9.14613 10.1404 8.941 9.85039 8.82818C9.48039 8.67433 9.08039 8.6128 8.67039 8.62305C8.41039 8.62305 8.18039 8.62305 7.99039 8.63331C7.79039 8.62305 7.65039 8.63331 7.58039 8.64356Z" fill="#31A8FF"/>
<path d="M19.2006 11.4642C18.9006 11.3001 18.5806 11.1873 18.2406 11.1155C17.8706 11.0334 17.5006 10.9821 17.1206 10.9821C16.9206 10.9719 16.7106 11.0027 16.5206 11.0539C16.3906 11.0847 16.2806 11.1565 16.2106 11.2591C16.1606 11.3411 16.1306 11.4437 16.1306 11.536C16.1306 11.6283 16.1706 11.7206 16.2306 11.8026C16.3206 11.9155 16.4406 12.0078 16.5706 12.0796C16.8006 12.2027 17.0406 12.3155 17.2806 12.418C17.8206 12.6026 18.3406 12.8591 18.8206 13.1668C19.1506 13.3821 19.4206 13.6693 19.6106 14.018C19.7706 14.3462 19.8506 14.7052 19.8406 15.0744C19.8506 15.5565 19.7106 16.0385 19.4506 16.4385C19.1706 16.8488 18.7806 17.1668 18.3306 17.3514C17.8406 17.5668 17.2406 17.6796 16.5206 17.6796C16.0606 17.6796 15.6106 17.6385 15.1606 17.5462C14.8106 17.4847 14.4606 17.3719 14.1406 17.218C14.0706 17.177 14.0206 17.1052 14.0306 17.0232V15.2385C14.0306 15.2078 14.0406 15.1668 14.0706 15.1462C14.1006 15.1257 14.1306 15.136 14.1606 15.1565C14.5506 15.3924 14.9606 15.5565 15.4006 15.6591C15.7806 15.7616 16.1806 15.8129 16.5806 15.8129C16.9606 15.8129 17.2306 15.7616 17.4106 15.6693C17.5706 15.5975 17.6806 15.4232 17.6806 15.2385C17.6806 15.095 17.6006 14.9616 17.4406 14.8283C17.2806 14.695 16.9506 14.5411 16.4606 14.3462C15.9506 14.1616 15.4806 13.9155 15.0406 13.6078C14.7306 13.3821 14.4706 13.0847 14.2806 12.736C14.1206 12.4078 14.0406 12.0488 14.0506 11.6898C14.0506 11.2488 14.1706 10.8283 14.3906 10.4488C14.6406 10.0385 15.0106 9.71034 15.4406 9.50521C15.9106 9.25906 16.5006 9.14624 17.2106 9.14624C17.6206 9.14624 18.0406 9.17701 18.4506 9.23855C18.7506 9.27957 19.0406 9.36162 19.3106 9.47445C19.3506 9.4847 19.3906 9.52573 19.4106 9.56675C19.4206 9.60778 19.4306 9.6488 19.4306 9.68983V11.3616C19.4306 11.4027 19.4106 11.4437 19.3806 11.4642C19.2906 11.4847 19.2406 11.4847 19.2006 11.4642Z" fill="#31A8FF"/>
</g>
<defs>
<clipPath id="clip0_1765_2389">
<rect width="24" height="24" fill="white" transform="translate(0 0.5)"/>
</clipPath>
</defs>
</svg>
