<svg width="18" height="8" viewBox="0 0 18 8" fill="none" xmlns="http://www.w3.org/2000/svg">
<path fill-rule="evenodd" clip-rule="evenodd" d="M9.3 4.125H10.665C10.66 3.28246 10.3806 2.4645 9.86897 1.79504C9.35738 1.12558 8.64152 0.641109 7.82987 0.415021C7.01821 0.188933 6.15498 0.23355 5.37096 0.542112C4.58694 0.850674 3.92485 1.40637 3.485 2.125V0.25H2.12L0.75 1.625H2.12V8H3.485V6.15C3.11063 5.54078 2.91166 4.84005 2.91 4.125C2.91234 3.3504 3.1947 2.60276 3.705 2.02L3.75 1.98C3.81786 1.90463 3.88963 1.83286 3.965 1.765L4.01 1.72C4.095 1.65 4.18 1.58 4.27 1.515C4.375 1.445 4.48 1.38 4.59 1.32L4.895 1.18L5.015 1.125C5.09172 1.09519 5.1702 1.07014 5.25 1.05L5.365 1.02L5.615 0.97H5.725C5.84822 0.962387 5.97178 0.962387 6.095 0.97C6.27774 0.971525 6.46003 0.988249 6.64 1.02H6.705H6.795C7.0569 1.07829 7.31052 1.16899 7.55 1.29C7.63769 1.33344 7.72283 1.38185 7.805 1.435C7.88138 1.48037 7.95486 1.53047 8.025 1.585L8.23 1.76C8.295 1.82 8.36 1.885 8.42 1.95L8.585 2.15L8.645 2.245L8.75 2.395C8.7813 2.44671 8.80967 2.50012 8.835 2.555L8.89 2.65C8.92 2.71 8.945 2.775 8.97 2.84L9.005 2.92C9.04023 3.00987 9.07028 3.10169 9.095 3.195C9.151 3.39075 9.1862 3.59186 9.2 3.795C9.20512 3.87992 9.20512 3.96508 9.2 4.05M14.2 5.19H12.02L14.305 2.91L14.2 5.19ZM15.565 5.19V0.25H15.335L9.285 6.405H14.285V8.005H15.65V6.405H17.25V5.265L15.565 5.19Z" fill="white"/>
</svg>
