<?xml version="1.0" encoding="utf-8"?>
<!-- Generator: Adobe Illustrator 25.3.1, SVG Export Plug-In . SVG Version: 6.00 Build 0)  -->
<svg version="1.1" id="圖層_1" xmlns="http://www.w3.org/2000/svg" xmlns:xlink="http://www.w3.org/1999/xlink" x="0px" y="0px"
	 viewBox="0 0 680 690" style="enable-background:new 0 0 680 690;" xml:space="preserve">
<style type="text/css">
	.st0{clip-path:url(#SVGID_2_);}
	.st1{fill:none;stroke:#313B36;stroke-width:2;stroke-miterlimit:10;}
	.st2{fill:#6A5D54;stroke:#313B36;stroke-width:2;stroke-miterlimit:10;}
	.st3{clip-path:url(#SVGID_4_);}
	.st4{fill:#EFEDE7;fill-opacity:0.4;}
	.st5{fill:#6F695D;}
	.st6{fill-rule:evenodd;clip-rule:evenodd;fill:#313B36;}
	.st7{fill-rule:evenodd;clip-rule:evenodd;fill:#E7E1D2;}
	.st8{fill:#D4CAAA;}
	.st9{fill:#F6EDD5;}
	.st10{fill:#EADAC1;}
	.st11{fill:none;stroke:#313B36;stroke-width:2;stroke-linecap:round;}
	.st12{fill:#907D73;}
	.st13{fill:#D8C5A8;}
	.st14{fill:#EFEDE7;stroke:#313B36;stroke-width:1.5;stroke-linecap:round;}
	.st15{fill:none;stroke:#313B36;stroke-width:1.5;stroke-linecap:round;}
	.st16{fill:#313B36;}
	.st17{fill:#EFEDE7;}
	.st18{fill:none;stroke:#313B36;stroke-width:2;}
	.st19{clip-path:url(#SVGID_6_);}
	.st20{clip-path:url(#SVGID_8_);}
	.st21{fill:#907D73;stroke:#313B36;stroke-width:2;}
	.st22{fill:#D8C5A8;stroke:#313B36;stroke-width:2;}
	.st23{fill:#907D73;stroke:#6A5D54;stroke-width:2;}
	.st24{fill:#EFEDE7;stroke:#313B36;stroke-width:1.5;}
	.st25{fill:#EFECE6;stroke:#313B36;stroke-width:1.5;}
	.st26{fill:none;stroke:#313B36;stroke-width:2;stroke-linecap:round;stroke-miterlimit:10;}
	.st27{clip-path:url(#SVGID_12_);}
	.st28{fill:#907D73;stroke:#313B36;stroke-width:1.5;}
	.st29{clip-path:url(#SVGID_14_);fill:#EFEDE7;stroke:#313B36;stroke-width:1.5;}
	.st30{clip-path:url(#SVGID_14_);}
	.st31{fill:#EFEDE7;stroke:#313B36;stroke-width:2;}
	.st32{fill:#EFEDE7;stroke:#313B36;stroke-width:1.8;stroke-miterlimit:10;}
	.st33{fill:none;stroke:#313B36;stroke-width:1.8;stroke-linecap:round;stroke-miterlimit:10;}
	.st34{fill:none;stroke:#313B36;stroke-width:1.8;stroke-linecap:round;}
	.st35{fill:#C28145;}
	.st36{fill:url(#SVGID_15_);}
	.st37{fill:#E7E1D2;stroke:#313B36;stroke-width:2;}
	.st38{opacity:0.4;fill-opacity:0.4;enable-background:new    ;}
	.st39{fill:#E3E1DB;}
	.st40{fill:#C28145;stroke:#313B36;stroke-width:2;}
	.st41{opacity:0.5;}
	.st42{fill:#C28145;stroke:#313B36;stroke-width:2;stroke-linecap:round;}
	.st43{fill:none;stroke:#313B36;stroke-width:3;stroke-linecap:round;}
	.st44{fill:none;stroke:#313B36;stroke-linecap:round;}
	.st45{fill:none;stroke:#313B36;stroke-width:1.8;}
	.st46{fill:#D8C5A8;stroke:#313B36;stroke-width:1.5;}
</style>
<g>
	<defs>
		<rect id="SVGID_1_" y="0" width="680" height="690"/>
	</defs>
	<clipPath id="SVGID_2_">
		<use xlink:href="#SVGID_1_"  style="overflow:visible;"/>
	</clipPath>
	<g class="st0">
		<path class="st1" d="M126.4,169.4c0.1-0.1,0.1-0.4,0.1-0.5l0.1-0.6c0.1-0.3,0.2-0.5,0.3-0.8c15.6-58.1,53.5-107.4,105.4-137.1
			C284.3,0.8,346-6.8,403.8,9.3S511.1,63.9,541,116.4c29.9,52.5,37.6,114.4,22,172.5l0,0c-10.2,29-113.1,26.4-232.2-6.2
			S121,199.7,126.4,169.4z"/>
		<path class="st2" d="M329.8,496.9c127.7-2,231-30.4,230.8-60.9c-0.2-30.5-103.9-53.7-231.5-51.6c-127.7,2-231,28.4-230.8,59
			C98.5,473.9,202.1,498.9,329.8,496.9z"/>
		<g>
			<defs>
				<rect id="SVGID_3_" x="479" y="258" width="200.6" height="254.4"/>
			</defs>
			<clipPath id="SVGID_4_">
				<use xlink:href="#SVGID_3_"  style="overflow:visible;"/>
			</clipPath>
			<g class="st3">
				<path class="st4" d="M652.4,385.3c-17.9,22.4-50.5,26.1-72.9,8.3c-22.4-17.8-26.1-50.5-8.2-72.9s50.5-26.1,72.9-8.3
					C666.6,330.2,670.3,362.8,652.4,385.3z"/>
				<path class="st5" d="M563.4,390l20.5,16.3L507.7,502c-4.5,5.7-12.8,6.6-18.5,2.1c-5.7-4.5-6.6-12.8-2.1-18.5L563.4,390z"/>
				<path class="st6" d="M581.1,406.7l-17.4-13.9l-75,94.1c-3.8,4.8-3,11.8,1.8,15.6c4.8,3.8,11.8,3,15.6-1.8L581.1,406.7z
					 M563.4,390l-76.2,95.7c-4.5,5.7-3.6,13.9,2.1,18.5c5.7,4.5,13.9,3.6,18.5-2.1l76.2-95.7L563.4,390z"/>
				<path class="st6" d="M581.3,406.7l-17.6-14l-75,94.2c-3.9,4.9-3.1,11.9,1.8,15.8c4.9,3.9,11.9,3.1,15.8-1.8L581.3,406.7z
					 M563.4,390l-76.2,95.7c-4.5,5.7-3.6,13.9,2.1,18.5c5.7,4.5,13.9,3.6,18.5-2.1l76.2-95.7L563.4,390z"/>
				<path class="st7" d="M570.2,405.3c28.9,22.9,70.9,18.1,93.9-10.7c23-28.8,18.3-70.8-10.6-93.7c-28.9-22.9-70.9-18.1-93.9,10.7
					C536.6,340.4,541.4,382.4,570.2,405.3z M580,391.3c22.8,18.1,52,12.3,70.4-7.1c18.2-22.7,12.3-52.5-7.1-69
					c-22.8-18.1-52.3-14.7-70.4,8C557.8,342.2,557.2,373.2,580,391.3z"/>
				<path class="st6" d="M651.9,385.5L651.9,385.5c19-23.8,12.8-54.7-7.3-71.9l0,0l0,0c-23.6-18.8-54.4-15.3-73.3,8.4
					c-15.7,19.7-16.4,52,7.4,70.9C602.5,411.8,632.9,405.6,651.9,385.5L651.9,385.5z M662.6,393.4c-22.3,28-63.1,32.6-91.1,10.4
					c-28-22.2-32.6-62.9-10.3-90.9c22.3-28,63.1-32.6,91.1-10.4C680.3,324.7,684.9,365.4,662.6,393.4z M664.2,394.6
					c-23,28.8-65.1,33.6-93.9,10.7c-28.9-22.9-33.6-64.9-10.6-93.7c23-28.8,65.1-33.6,93.9-10.7
					C682.4,323.8,687.2,365.8,664.2,394.6z M650.4,384.2c-18.4,19.4-47.7,25.2-70.4,7.1s-22.2-49.1-7.1-68.1
					c18.2-22.7,47.7-26.1,70.4-8C662.7,331.8,668.6,361.5,650.4,384.2z"/>
			</g>
		</g>
		<path class="st8" d="M589.2,102.4l4.7,12.6l84.1-12.5L589.2,102.4z"/>
		<path class="st6" d="M595.3,112.8l-3.1-8.4l59.2,0.1L595.3,112.8z M589.2,102.4l4.7,12.6l84.1-12.5L589.2,102.4z"/>
		<path class="st9" d="M680.3,103.9l-49.3-28l-24.3,12.8l63.9,14.4L680.3,103.9z"/>
		<path class="st6" d="M630.9,78.2l-18.5,9.7l58.5,13.2l0.5,0L630.9,78.2z M631,75.9l-24.3,12.8l63.9,14.4l9.7,0.8L631,75.9z"/>
		<path class="st10" d="M680.3,103.9l-108.6,1.6l31.1-20L680.3,103.9z"/>
		<path class="st6" d="M680.3,103.9l-77.5-18.3l-31.1,20L680.3,103.9z M578.7,103.4l85.5-1.3l-61-14.4L578.7,103.4z"/>
		<path class="st11" d="M577.5,86.9c0,0-44.3-24.6-96.4-19.4c-47.1,4.7-51.5,28.8-48,40.3c3.5,11.5,30.3,39.4,40.6,23.3
			c7.6-11.8-21.8-25.2-46.2-19.8c-28.7,6.4-37.8,45.7-37.8,45.7"/>
		<path class="st12" d="M340,281.8l117.7,1.4l-13.5,107.3l-58.9-8.9c0,0-37.3,90.9-57.2,72.6c-19.9-18.3,6.5-88.6,5.1-117.8
			c-0.6-11-1-24-1.4-34.9C331.2,287.3,340,281.8,340,281.8z"/>
		<path class="st13" d="M480,538.6l-150.1-29c0.4-14.4,1.9-36.6,1.9-36.6c-10.2-29-26.4-22.7-24.3-39.3c0,0,16.4-29.7,26-46.1
			c9.6-16.5,40.3-23,46.1-24.3c5.8-1.3,9.1,10.2,9.1,10.2c7.8-12,38.2-15.8,38.2-15.8s8.3,1.9,14.4,3c14.2,2.7,38.2,10.3,40.5,31.6
			c1.1,10.3,0.7,36.7-0.1,66.5c-0.4,16.8-0.9,34.8-1.3,51.6C480.3,520.2,480.1,529.8,480,538.6z"/>
		<path class="st14" d="M383.3,395.8l-5.3-14.1l10.7-7.2l4.6,11.9L383.3,395.8z"/>
		<path class="st15" d="M374.3,393c-3.3,21-3.9,30.9-3.9,30.9"/>
		<path class="st15" d="M363.1,469l-4,31.5"/>
		<path class="st15" d="M393.1,396.5c-3.2,21.5-11.6,87.5-13.2,105"/>
		<path class="st16" d="M385.4,404.7l-0.1,3.1c0,0.1,0,0.3,0,0.4c-0.2,1.5-1.9,2.4-3.7,2.2c-1.8-0.3-3.2-1.7-2.9-3.1
			c0-0.1,0-0.2,0.1-0.3l0,0l0.8-3.1c0,0,0-0.1,0.1-0.1s0.1-0.1,0.1-0.1c0,0,0.1,0,0.1,0c0,0,0.1,0,0.1,0.1l1.6,1.3
			c0.3,0,0.6,0,0.8,0c0.3,0,0.5,0.1,0.8,0.2l1.8-0.9c0.1,0,0.1,0,0.2,0c0.1,0,0.1,0,0.2,0.1c0.1,0,0.1,0.1,0.1,0.1
			C385.4,404.6,385.4,404.7,385.4,404.7z"/>
		<path class="st16" d="M373.1,493.4l-0.1,3.1c0,0.1,0,0.3,0,0.4c-0.2,1.5-1.9,2.4-3.7,2.2c-1.8-0.3-3.2-1.7-2.9-3.1
			c0-0.1,0-0.2,0.1-0.3l0,0l0.8-3.1c0,0,0-0.1,0.1-0.1s0.1-0.1,0.1-0.1c0,0,0.1,0,0.1,0c0,0,0.1,0,0.1,0.1l1.6,1.3
			c0.3,0,0.6,0,0.8,0c0.3,0,0.5,0.1,0.8,0.2l1.8-0.9c0.1,0,0.1,0,0.2,0c0.1,0,0.1,0,0.2,0.1c0.1,0,0.1,0.1,0.1,0.1
			C373.1,493.3,373.1,493.3,373.1,493.4z"/>
		<path class="st16" d="M380.2,439.7l-0.3,3.1c0,0.1,0,0.3,0,0.4c-0.3,1.4-2,2.3-3.8,1.9s-3-1.9-2.8-3.3c0-0.1,0-0.2,0.1-0.3l0,0
			l1-3.1c0,0,0-0.1,0.1-0.1c0,0,0.1,0,0.1-0.1c0,0,0.1,0,0.1,0c0,0,0.1,0,0.1,0.1l1.5,1.4c0.3,0,0.6,0,0.8,0.1
			c0.3,0.1,0.5,0.1,0.7,0.2l1.9-0.8c0.1,0,0.1,0,0.2,0c0.1,0,0.1,0,0.2,0.1c0,0,0.1,0.1,0.1,0.1
			C380.2,439.6,380.3,439.6,380.2,439.7z"/>
		<path class="st17" d="M391.6,376.1l-3.4-19.3l-9.3,5.8l-7.8,7.6l-3,7.6l2.2,4.3l6,1.4l10.1-4.7l2.4-1l-0.2,5.3l2.6,6.3l7.7,3.6
			l11-0.6l15.9-7.3l9.4-9.5l3.2-8.9l-4.4-8.6l-6-0.8l-0.4,3.3l-9.6,5.5l-15.9,7.3L391.6,376.1z"/>
		<path class="st18" d="M388.5,376.1c-1.9,7.3,2.4,23.7,27.5,14.3c21.2-8,23.6-25.8,24.7-30.2"/>
		<path class="st18" d="M388.4,356.6c0,0-26.4,13.1-18.7,24.3c4.6,6.7,15.1-0.3,18.1-4.3"/>
		<g>
			<defs>
				
					<rect id="SVGID_5_" x="242.2" y="331.1" transform="matrix(1 -5.622828e-03 5.622828e-03 1 -2.3975 1.6647)" width="105.4" height="192.3"/>
			</defs>
			<clipPath id="SVGID_6_">
				<use xlink:href="#SVGID_5_"  style="overflow:visible;"/>
			</clipPath>
			<g class="st19">
				<g>
					<g>
						<g>
							<defs>
								
									<rect id="SVGID_7_" x="255.9" y="344.3" transform="matrix(5.735720e-02 -0.9984 0.9984 5.735720e-02 -106.6004 637.6513)" width="57" height="62"/>
							</defs>
							<clipPath id="SVGID_8_">
								<use xlink:href="#SVGID_7_"  style="overflow:visible;"/>
							</clipPath>
							<g class="st20">
								<path class="st21" d="M277.2,400 M255.8,352.3 M257.8,347.7c1.5-1.6,3.7-1.6,4.6-1.6c6,0.2,22.3,1.2,22.3,1.2
									c1.6,0.1,3.1,1,4.4,1.9c1.3,0.9,2.3,2.2,2.9,3.7l0,0l0,0l20.5,46.8l0,0l0,0c0.2,0.5,0.3,1,0.3,1.5c0,0.5-0.2,1-0.4,1.5
									c-0.3,0.4-0.6,0.8-1.1,1.1c-0.4,0.3-0.9,0.4-1.4,0.5l-29-1.7h0c-0.8,0-1.6-0.3-2.3-0.8s-1.2-1.1-1.5-1.8l0,0
									c0,0-20.8-45.4-21-47C255.9,351.7,256.3,349.3,257.8,347.7z"/>
								<path class="st22" d="M282.3,351.6L282.3,351.6c1.5,0.1,2.9,0.6,4.2,1.5c1.2,0.9,2.2,2.1,2.8,3.5l0,0l19.5,45.8l0,0
									c0.1,0.2,0.1,0.4,0.1,0.6c0,0.2-0.1,0.4-0.2,0.6c-0.1,0.2-0.3,0.3-0.5,0.4c-0.2,0.1-0.4,0.1-0.6,0.1l-27.4-1.6l0,0
									c-0.8,0-1.5-0.3-2.1-0.7s-1.1-1.1-1.4-1.8l0,0l-19.8-45.7c-0.2-0.5-0.3-0.9-0.2-1.4c0.1-0.5,0.2-1,0.5-1.4
									c0.3-0.4,0.6-0.7,1.1-0.9c0.4-0.2,0.9-0.3,1.4-0.3L282.3,351.6z"/>
								<path class="st23" d="M265.5,360.4c-0.2-0.3-0.4-0.7-0.5-1c-0.2-0.8-0.1-1.5,0.2-2.1c0.3-0.6,0.8-1,1.3-1.1l0,0
									c0.5-0.1,1.1-0.1,1.7,0.3c0.6,0.4,1,1,1.2,1.7c0.1,0.4,0.1,0.8,0.1,1.1c0,0.4-0.1,0.7-0.3,1c-0.1,0.3-0.3,0.6-0.5,0.7
									c-0.2,0.2-0.5,0.3-0.7,0.4l0,0c-0.3,0.1-0.5,0.1-0.8,0c-0.3-0.1-0.6-0.2-0.9-0.4C265.9,361,265.7,360.7,265.5,360.4z"/>
							</g>
						</g>
						<path class="st24" d="M263.4,368.6L263.4,368.6L263.4,368.6c1.3,2.2,2.4,4.5,3.4,6.9l0,0.1c1,2.2,2,4.4,3.3,6.6
							c-1.1,2.5-1.9,5.1-2.3,7.9c-3.2-7.5-6.2-14.9-8.3-22.9l0,0c-0.2-0.9-0.4-1.7-0.3-2.4l0,0l0,0c0-0.3,0.2-0.5,0.3-0.7
							c0,0,0,0,0,0s0,0,0.1,0c0,0,0.1-0.1,0.2-0.1c0.1-0.1,0.3-0.2,0.5-0.3c0.1-0.1,0.2-0.1,0.3-0.2c0.4,0.7,0.8,1.5,1.2,2.3l0,0
							C262.4,366.7,262.9,367.7,263.4,368.6z"/>
						<path class="st25" d="M264.7,387.5c0.3-3.7,2.8-9.6,6.7-13.3c3.8-3.7,13.7-10.6,16.1-8.4c2.5,2.2-2.1,4.8-3.4,5.8
							c-1.4,1-6.5,4.4-8.2,6.1c-1.1,1.1-4.6,8.2-4.6,8.2l0.7,1.9c0,0,10.1-8.2,15-9.3c4.9-1.1,9.4-2.2,10,0.8c0.4,1.8-1.3,3.2-5.9,4
							c-4.6,0.8-10.7,4.9-11.8,5.7c-1.1,0.9-4.3,4.2-4.3,4.2l0.8,2c0,0,9.2-5,12.4-5.9c3.6-1,8.2-2,9.1,0.7c0.6,1.7-1.8,2.2-3,2.4
							c-1.1,0.2-9,2.2-12.7,4.6c-3.6,2.4-2.5,3.3-1.4,3.7c1.1,0.4,26.9,2.7,26.9,2.7s-1.8,4.3-0.8,8.3c1.1,4,6.2,32.7,6.2,32.7
							l-3.1,24.6c0,0-13.7-35.2-18.9-44.4c-5.3-9.2-4.8-14-10.3-16.2s-9.9-6.8-12.4-12.4C265.1,390.5,264.5,389.7,264.7,387.5z"/>
					</g>
					<g>
						<defs>
							
								<rect id="SVGID_9_" x="255.9" y="345.4" transform="matrix(5.735720e-02 -0.9984 0.9984 5.735720e-02 -107.7018 638.6912)" width="57" height="62"/>
						</defs>
						<clipPath id="SVGID_10_">
							<use xlink:href="#SVGID_9_"  style="overflow:visible;"/>
						</clipPath>
					</g>
				</g>
				<path class="st12" d="M312.5,416.2c3,7.7,3.8,12.7,3.8,12.7l-13,2.3l-20.8,5.7c0,0-1.3-6.4-2.8-10.1c-1.4-3.7-0.9-6.4,1.4-7.2
					C292.8,415.3,311.6,413.9,312.5,416.2z"/>
				<path class="st13" d="M306,430.2c0,0,10-2.4,11.5,0l3.1,4.7l17.6,9.4l17,11.2c0,0-5.6,40.9-15.9,46.9
					c-14.1,8.2-45.8,15.3-45.8,15.3s-7.1-15.7-7.8-28.5c-0.3-5.8-1-22.9-1-22.9l-3-20.9c0,0-0.7-4.5-0.5-7.4
					c0.1-1.3,2.1-2.2,3.1-2.9c2.4-1.6,9.6-1.6,9.6-1.6L306,430.2z"/>
				<path class="st26" d="M311.3,430c0,0-12.6,3.3-27.1,5"/>
				<path class="st11" d="M335.5,481.5c0,0-3.9-13.8-7.5-23c-2.1-5.3-6-22-11.7-29.7"/>
				<path class="st11" d="M297.3,518.6c0,0-10.3,0.4-12.3-47.4c-0.7-17.2-5.9-29.3-3.4-33.2"/>
				<path class="st11" d="M350,423.5c0.2,29-1.8,59.6,0,66.8"/>
			</g>
		</g>
		<g>
			<defs>
				
					<rect id="SVGID_11_" x="351.7" y="436.5" transform="matrix(0.2102 -0.9777 0.9777 0.2102 -145.4743 738.5259)" width="65.2" height="45.6"/>
			</defs>
			<clipPath id="SVGID_12_">
				<use xlink:href="#SVGID_11_"  style="overflow:visible;"/>
			</clipPath>
			<g class="st27">
				<path class="st28" d="M390.1,492.9L390.1,492.9c0.6-0.5,0.9-1.2,1.2-2.2c0.1-0.5,0.3-0.9,0.4-1.4l0-0.1c0.1-0.5,0.3-1,0.4-1.4
					c0.7-2.1,1.5-4.2,2.2-6.3L390.1,492.9z M390.1,492.9L390.1,492.9c-0.1,0.1-0.3,0.1-0.8,0.1c-0.2,0-0.5-0.1-0.7-0.2
					c0,0-0.1,0-0.1,0c-0.2-0.1-0.4-0.1-0.6-0.2l-17.2-3.7c-0.6-0.1-1.1-0.2-1.7-0.3c-1.1-0.2-2.1-0.4-3.1-0.7
					c-0.5-0.1-0.6-0.3-0.6-0.4c-0.1-0.2-0.1-0.5,0-1.1c0.1-0.8,0.2-1.5,0.2-2.3c0-0.4,0.1-0.8,0.1-1.2v0c0.2-2.3,0.5-4.6,0.7-6.9
					l0,0c0.5-4.7,0.9-9.4,1.4-14l0,0l2.7-27.5c6.8,1.2,13.6,2.4,20.4,3.6h0l11.2,2h0l5.6,1c0.2,0,0.4,0.1,0.7,0.2l0,0c0,0,0,0,0,0
					c-1.2,3.5-2.4,7-3.6,10.5l0,0l-10.3,29.8L390.1,492.9z"/>
				<path class="st24" d="M408.2,439.3l-25.9-3l-0.4-2.5c0.1-0.6-0.3-1.1-0.9-1.2l-8.4-1.3c-0.6-0.1-1.1,0.3-1.2,0.9l-0.2,1.3
					l-0.4-0.1c-1.6-0.3-3.2,0.9-3.4,2.5L367,438c-0.3,1.6,0.9,3.2,2.5,3.4l37.4,6c1.6,0.3,3.2-0.9,3.4-2.5l0.3-2.1
					C411,441.1,409.8,439.6,408.2,439.3z"/>
			</g>
		</g>
		<g>
			<defs>
				
					<rect id="SVGID_13_" x="364.5" y="440.9" transform="matrix(0.1253 -0.9921 0.9921 0.1253 -125.7515 792.923)" width="44.5" height="53.8"/>
			</defs>
			<clipPath id="SVGID_14_">
				<use xlink:href="#SVGID_13_"  style="overflow:visible;"/>
			</clipPath>
			<path class="st29" d="M375.2,469.9c-1.5-0.6-3.1-1.2-4.6-1.7l-0.2-0.1c-1.6-0.6-3.2-1.1-4.7-1.7l0,0l0,0
				c-0.7-0.3-1.2-0.7-1.8-1.1c-0.6-0.4-1.5-1.3-1.1-2.9c0.5-1.9,3.1-1.8,3.1-1.8c-0.1-0.1-0.2-0.1-0.3-0.2c-0.2-0.1-0.5-0.3-0.6-0.4
				c-0.3-0.2-0.5-0.4-0.8-0.7l0,0l0,0c-0.2-0.3-0.4-0.6-0.5-1c-0.1-0.4-0.1-0.7,0-1.1c0.1-0.4,0.3-0.7,0.5-1l0,0
				c0.5-0.6,1.4-1.1,2.4-1.2c1.5-0.3,3,0,4.6,0.3h0c2.6,0.5,5.3,1.1,7.9,1.7l0,0c1.3,0.3,2.6,0.6,3.9,1c0,0,0,0,0,0l1.9,0.5
				c0,0,0,0,0,0c0.1,0,0.1,0,0.2,0c0,0,0.1,0,0.2,0.1c0.1,0,0.3,0.1,0.5,0.1c0.2,0,0.5,0,0.7-0.1c0.3-0.1,0.5-0.3,0.7-0.6
				c0.2-0.4,0.1-0.8,0-1.1c-0.1-0.3-0.3-0.5-0.5-0.7c-0.2-0.2-0.6-0.5-0.8-0.7c-0.1,0-0.1-0.1-0.1-0.1l0,0c-0.6-0.5-1.2-1-1.9-1.4
				c-1.3-0.9-2.7-1.6-4.1-2.1c-2.2-0.9-4.5-1.4-6.8-2c-0.9-0.2-1.8-0.5-2.7-0.7l0,0c-1-0.3-1.8-0.5-2.5-1c-0.7-0.5-1.1-1.2-1-1.8
				c0.1-0.7,0.7-1.4,1.5-1.7c0.8-0.3,1.8-0.3,2.8-0.3c10.3,0.6,19.9,5,27.1,12.5c0,0,0,0,0,0l0.4,0.4c1.3,1.4,2.5,2.9,3.7,4.3
				c0.8,0.9,1.5,1.8,2.3,2.8c0.2,0.2,0.4,0.4,0.6,0.6c1.4,1.7,3,3.2,4.8,4.6l0,0l0,0c1.4,1,2.9,1.8,4.5,2.3c0,0,0,0.1,0,0.1v0
				c0,0.2,0,0.5-0.1,0.7c-1.7,6.5-3.6,12.8-5.9,19.1c-1.2-0.1-2.5-0.2-3.7-0.3h0c-1.4-0.1-2.8-0.2-4.2-0.3h0
				c-3.2-0.3-6.3-0.8-9.1-2.2c0,0,0,0,0,0l-0.3-0.1c0,0,0,0,0,0c-1.5-0.8-2.9-1.8-4.4-2.9c-0.2-0.1-0.4-0.3-0.6-0.4
				c-1.2-0.9-2.5-1.9-3.9-2.7l0,0c-3.3-2-7.3-3.3-10.9-4.3h0c-1.7-0.5-3.5-0.9-5.2-1.2h0c-0.5-0.1-1-0.2-1.4-0.3
				c-0.4-0.1-0.7-0.3-0.9-0.6l0,0l0,0c0,0,0,0,0,0c0,0,0,0,0,0c-0.3-0.4-0.3-1.1,0.1-1.7c0.1-0.1,0.1-0.2,0.2-0.3l0,0l0,0
				c0.8-0.8,1.8-0.9,3.1-0.8c1.8,0.1,3.5,0.4,5.2,0.6c0,0,0,0,0,0l0.4,0.1h0c1.5,0.2,3,0.5,4.5,0.9h0c0.7,0.2,1.5,0.3,2.2,0.5
				c0.1,0,0.1,0,0.2,0.1c0,0,0.1,0,0.1,0c0.1,0,0.3,0.1,0.4,0.1c0.3,0.1,0.8,0.1,1.3-0.3c0.2-0.2,0.4-0.5,0.5-0.8
				c0.1-0.3,0-0.6-0.1-0.9c-0.2-0.4-0.6-0.8-1-1.1c-0.6-0.4-1.3-0.8-1.7-1c-0.1-0.1-0.2-0.1-0.2-0.1l0,0l0,0
				C377.8,471.1,376.6,470.5,375.2,469.9 M372.6,469.6 M375.2,469.9C375.2,469.9,375.2,469.9,375.2,469.9l-0.3,0.7 M375.2,469.9
				C375.2,469.9,375.2,469.9,375.2,469.9l-0.3,0.7 M363.4,465.9"/>
			<g class="st30">
				<path class="st15" d="M364.6,460.2c5,0.9,15.5,3.5,18,6.6"/>
			</g>
		</g>
		<path class="st13" d="M441.4,431c2.6,14.2,4.2,53.6,4.2,53.6s-12.7-4.9-18.8-8.5c-4.1-2.4-12.5,18.5-15,25.1c-0.8,2.1-1.2,6-1.2,6
			s64.7,54.4,86.6,29.8c22-24.7,26.8-29.2,12.8-69.4c-12.8-36.5-15.7-66.4-28-77.5s-15.4-14.4-24.5-17
			C458,380.3,437.8,410.9,441.4,431z"/>
		<path class="st11" d="M497.5,426.5c2.3,12.4,27,70.5,18.5,74.5c-10.8,5-15.7,28.9-23,35.2"/>
		<path class="st12" d="M414.7,468.8c2.8,2.1,12.6,8.3,12.6,8.3l-6,5.2l-9.9,20.8c0,0-3.7,0.3-6.9-3c-3.2-3.3-5.9-4.4-6.4-6.6
			c-0.5-2.1,1.6-4.2,4-9.2C405.8,476.2,411.3,466.3,414.7,468.8z"/>
		<path class="st26" d="M426,477.1c0,0-11.3,13.5-13.6,23"/>
		<path class="st11" d="M450,446c3.5,16,9.5,39,9.5,39"/>
		<path class="st11" d="M465.1,495.4c0,0-2.5-3.5-17.1-9.2c-16-6.2-30.9-13.8-34.9-17.8"/>
		<path class="st11" d="M469.3,543.8c-2.9-0.3-25.3-4.6-36.7-15.3c-12.5-11.7-23.3-19.6-21.3-24.6"/>
		<path class="st31" d="M384.3,362.7L384.3,362.7L384.3,362.7L384.3,362.7l0.4-0.4l-0.1-0.5l-8.6-33.2l44.5-4.1l8.9,33.1
			c-0.3,0.2-0.7,0.5-1.1,0.9c-1,0.8-2.6,2-4.4,3.4c-3.7,2.8-8.7,6.3-14.1,9.4c-5.4,3.1-11,5.7-16,6.7c-5,1-8.9,0.2-11.4-2.9
			c-2.1-2.7-1.7-5.7-0.6-8.2c0.5-1.2,1.2-2.3,1.7-3.1c0.3-0.4,0.5-0.7,0.7-0.9C384.1,362.9,384.2,362.8,384.3,362.7
			C384.3,362.7,384.3,362.7,384.3,362.7L384.3,362.7L384.3,362.7z"/>
		<path class="st32" d="M343.4,265.5c0,0-9.7,16.7-6,24c3.5,10.7,9.5,23,10.6,30.9c2.1,15.7,16.5,31.1,41.1,35.5
			c5.5,1,24.5-6.5,37.1-20.9c6.3-8.3,9.3-20.2,9.3-20.2s18.6-0.8,19-17.1c0.4-9.2-3.5-21.5-19.7-18c0,0-29.8-50.7-58.6-41
			C359.3,244.4,343.4,265.5,343.4,265.5z"/>
		<path class="st33" d="M439.3,291.8c1.2,1.9,1.8,4.2,1.8,6.5c0,2.3-0.6,4.6-1.8,6.7"/>
		<path class="st12" d="M329.5,313.3c0,0-13.6-47.5,16.3-84.2c11-13.5,29.3-21,51.9-15.3c29.8-5.6,42.7,13.8,53.1,36.8
			c6.4,14.2,10.8,31.3,13.6,45.7c1.8,9,4.7,25.8,8.7,35.7c11.1,27.4,25.4,45,34.2,63c8.8,18-10.5,31.2-10.5,31.2
			c-2.5-5.5-10.1-39.4-29.4-48.7c-14.5-7-37.4-10.8-40.8-23.8c-3.4-13.1-2.3-15.9-2.3-15.9s9.9-10.9,12.4-13.9
			c2.5-3,0.2-7.5,1.8-9.7c2.3-1.4,6.1-2.8,8.4-7c3.3-6,3-10.9,2.4-14.2c-0.9-4.5-2.2-8.2-4.4-9.4c-4.3-2.2-8.3-1.7-10.6-0.6
			c-2.3,1.1-1.4,4.4-1.4,4.4s-10.7,2.3-23.7-12.5c-11.1-12.6-17.2-23.1-17.2-23.1c-10.1,2.7-23.6,8.2-29.8,17.1
			c-7.4,12.5-8.9,29.9-15.4,39.6C334.5,327,329.5,313.3,329.5,313.3z"/>
		<path class="st11" d="M329,310.2c-2.7-12.3-3.7-32.5,1.5-52.6c3.9-15.1,8.7-24.6,25.5-37.3c15.3-11.6,34.2-8.1,34.2-8.1"/>
		<path class="st11" d="M332.2,327.5c2.7,18.6-2.6,44.4-8.4,71.8"/>
		<path class="st34" d="M431.7,286.4c1.1-5.5,11.7-6.1,15.5,0.1c4.5,7.2,5.4,23.7-10.3,27.7"/>
		<path class="st11" d="M393.8,254.1c2.3,5.4,24.3,36,38.6,32.8"/>
		<path class="st11" d="M411.7,254.3c-0.1,11.8,16.2,28.8,22.7,28.7"/>
		<path class="st11" d="M451.2,337.3c1.1,6.9,8.8,41.1,39.6,56.7"/>
		<path class="st11" d="M365.3,249.4c-21.4,12.7-18.1,29.5-25.5,42.3"/>
		<path class="st11" d="M388.8,253c-9.5,2.4-24.6,9.8-30.2,24.3c-6.6,17.1-10,40.9-28.5,45.2"/>
		<path class="st11" d="M352,348.5c0,0-2.9,10.9-1.3,21"/>
		<path class="st11" d="M423.3,340c0.7,6.6,4.7,18.5,13.6,25.1c8.5,6.3,24.7,9.1,24.7,9.1"/>
		<path class="st11" d="M497.9,426.4c32.5-25.6-10.3-52.5-21.9-86.5c-12.3-36-14.9-62.2-25.6-90.3c-3.8-10.1-11.1-21.9-18.6-28.2
			c-8-6.8-18.6-11.9-34.9-7.7"/>
		<path class="st16" d="M364,311.7c2.7-0.1,4.7-3.5,4.5-7.5c-0.2-4-2.6-7.2-5.3-7.1c-2.7,0.1-4.7,3.5-4.5,7.5
			C359,308.6,361.3,311.8,364,311.7z"/>
		<path class="st6" d="M359.8,292.7c-2,0.8-3.2,2.3-3.5,3.2c-0.2,0.8-1.1,1.2-1.9,1c-0.9-0.2-1.4-1-1.2-1.7c0.5-1.9,2.4-4,5.3-5.1
			c3-1.1,6.9-1,11.1,1.6c0.7,0.5,1,1.3,0.5,2c-0.5,0.6-1.5,0.8-2.2,0.3C364.4,291.9,361.7,292,359.8,292.7z"/>
		<path class="st6" d="M403.8,288.3c-2.1,0.3-3.6,1.4-4.1,2.2c-0.4,0.7-1.3,0.9-2.1,0.5c-0.7-0.4-1-1.3-0.6-1.9
			c1-1.7,3.4-3.3,6.3-3.6c3-0.4,6.6,0.6,9.6,4.1c0.5,0.6,0.5,1.5-0.2,2s-1.6,0.4-2.1-0.2C408.3,288.6,405.8,288.1,403.8,288.3z"/>
		<path class="st16" d="M404.2,308.5c2.7,0.1,5-3.1,5.2-7.1c0.2-4-1.9-7.4-4.6-7.5c-2.7-0.1-5,3.1-5.2,7.1
			C399.5,305,401.5,308.4,404.2,308.5z"/>
		<path class="st16" d="M383.1,315.6l3.6,2l-0.2-5.9"/>
		<path class="st35" d="M393.8,332.3c0.2,1-0.1,2.1-0.9,3.1c-0.4,0.5-0.9,0.9-1.5,1.3c-0.7,0.4-1.5,0.7-2.3,0.9
			c-0.9,0.2-1.7,0.2-2.5,0c-0.7-0.1-1.3-0.4-1.8-0.6c-1.1-0.6-1.8-1.6-2-2.6c-0.2-0.8,0-1.6,0.4-2.4c0.1-0.2,0.3-0.5,0.5-0.7
			c0.4-0.5,0.9-0.9,1.5-1.3c0.7-0.4,1.5-0.7,2.3-0.9c0.9-0.2,1.7-0.2,2.5,0c0.7,0.1,1.3,0.4,1.8,0.6c0.3,0.1,0.5,0.3,0.7,0.5
			C393.3,330.7,393.7,331.5,393.8,332.3z"/>
		
			<linearGradient id="SVGID_15_" gradientUnits="userSpaceOnUse" x1="217.0578" y1="234.2507" x2="297.3638" y2="275.5447" gradientTransform="matrix(1 0 0 -1 0 689.89)">
			<stop  offset="0" style="stop-color:#FFF9E5;stop-opacity:0.6"/>
			<stop  offset="1" style="stop-color:#FFF9E5;stop-opacity:0"/>
		</linearGradient>
		<path class="st36" d="M315.8,299.6l-133.2,94l54.3,84.4l133.6,4L315.8,299.6z"/>
		<path class="st31" d="M176.1,391.3L176.1,391.3c-0.6,0.3-1.1,0.7-1.5,1.3c-0.4,0.5-0.7,1.1-0.9,1.8c-0.2,0.6-0.2,1.3-0.1,2
			c0.1,0.7,0.4,1.3,0.7,1.8c0,0,0,0,0,0l59.7,87.3l105.8,3.5c1-1.4,0.9-3.6-0.1-5.7c-0.5-1.1-1.3-2.1-2-2.9
			c-0.8-0.7-1.6-1.1-2.2-1.2l-94.5-4.4l-0.5,0l-0.3-0.4l-58.2-81.7l0,0c-0.7-0.9-1.6-1.6-2.7-1.9
			C178.2,390.6,177.1,390.8,176.1,391.3z"/>
		<path class="st37" d="M543.2,452.7c8.5-4.6,14.5-9.8,17.1-15.5c0.1,1.3,0.1,2.7,0.2,4.3c0.3,7,0.4,16.9-0.3,28.9
			c-1.4,23.9-5.9,55.8-18.4,87.8c-12.5,32-33,64-66.3,88.3c-33.3,24.2-79.6,40.7-143.8,41.5c-88.6,1-145.9-32-181.5-80.6
			c-34.5-47.2-48.7-109.1-50.9-169.3c3.4,5.8,10.2,11.3,19.6,16.2c12.4,6.5,29.6,12.3,50.5,17.1c41.8,9.6,98.3,15.1,160.4,14.1l0,0
			c64-1.1,121.9-6.7,163.7-16.1C514.4,464.8,531.4,459.2,543.2,452.7z"/>
		<path class="st38" d="M133.6,585.1c-21.9-40.1-30.5-97-34.1-144.8l40.1,20.2c3.2,13.5,3.7,71.6,40.7,128.2
			c46.2,70.7,135.1,101.1,135.1,101.1c-29.2-0.7-64.1-9.5-74.7-13.1C227.1,672,167.7,647.6,133.6,585.1z"/>
		<path class="st37" d="M139.7,305.6L139.7,305.6L139.7,305.6l75.7-36.4l0,0l0,0c0.3-0.1,0.5-0.3,0.6-0.5c0.1-0.2,0.2-0.5,0.2-0.8
			c0-0.3-0.1-0.6-0.3-0.8l0.8-0.6l-0.8,0.6c-0.2-0.2-0.4-0.4-0.7-0.5l-5.1-1.2h0l-4.1-0.9h0l-43.2-10c-0.4-0.1-0.8,0-1.2,0.1
			c-0.4,0.2-0.6,0.5-0.8,0.8c0,0,0,0,0,0l-19.1,40l-0.9-0.4l0.9,0.4l-1.8,3.9v0l-2.2,4.6c-0.1,0.3-0.1,0.6-0.1,0.8
			c0.1,0.3,0.2,0.5,0.4,0.7c0.2,0.2,0.5,0.3,0.8,0.3C139.1,305.8,139.4,305.8,139.7,305.6z"/>
		<path class="st17" d="M136.9,305.8l80.2-38.6l24.8,51.5l-80.2,38.6L136.9,305.8z"/>
		<path class="st31" d="M201.1,250l-67.2,32.3l30.2,62.8c0.4,0.9,1.2,1.6,2.2,1.9c0.9,0.3,2,0.3,2.9-0.2l60.4-29.1
			c0.9-0.4,1.6-1.2,1.9-2.2c0.3-0.9,0.3-2-0.2-2.9L201.1,250z"/>
		<path class="st39" d="M147.3,286.4l50.6-24.4l1.9,4l-50.6,24.4L147.3,286.4z"/>
		<path class="st39" d="M168.7,285.2l32.8-15.8l1.9,4l-32.8,15.8L168.7,285.2z"/>
		<path class="st39" d="M155,302.4l50.6-24.4l1.9,4l-50.6,24.4L155,302.4z"/>
		<path class="st39" d="M176.4,301.2l32.8-15.8l1.9,4l-32.8,15.8L176.4,301.2z"/>
		<path class="st40" d="M191.2,314.6l-0.3,0.7l-0.8-0.2l-47.2-11.1l-4.6,2.2l24.8,51.5l78.4-37.7l-24.8-51.5l-4.2,2L191.2,314.6z"/>
		<g class="st41">
			<path class="st16" d="M142.8,303l46,7.5l-2.5,2.7L142.8,303z"/>
		</g>
		<g class="st41">
			<path class="st16" d="M211.5,270l-22.9,40.6l3.6-0.3L211.5,270z"/>
		</g>
		<path class="st40" d="M165.4,359.2L165.4,359.2L165.4,359.2l75.6-36.4l0,0l0,0c0.3-0.1,0.5-0.3,0.6-0.5s0.2-0.5,0.2-0.8
			c0-0.3-0.1-0.6-0.3-0.8l0.8-0.6l-0.8,0.6c-0.2-0.2-0.4-0.4-0.7-0.5L188.7,308c-0.4-0.1-0.8,0-1.2,0.1l-0.4-0.9l0.4,0.9
			c-0.4,0.2-0.6,0.5-0.8,0.8c0,0,0,0,0,0l-23.2,48.5c-0.1,0.3-0.1,0.5,0,0.8c0.1,0.3,0.2,0.5,0.4,0.7c0.2,0.2,0.5,0.3,0.8,0.3
			C164.9,359.4,165.2,359.3,165.4,359.2z"/>
		
			<ellipse transform="matrix(0.2127 -0.9771 0.9771 0.2127 -180.4373 339.7099)" class="st16" cx="120.6" cy="281.8" rx="21.2" ry="21.1"/>
		<path class="st17" d="M130.8,286.6l-4.6,2.5l-7.5-5l-0.2,0.1l3.9,7l-4.2,2.4l-8.4-15l4.7-2.6l7.4,5.3l0.2-0.1l-4-7.2l4.3-2.4
			L130.8,286.6z"/>
		<path class="st42" d="M536.7,526l-10.2,1.5L526,535l7.5,0.5l4.7-7.2C538.9,527.2,538,525.8,536.7,526z"/>
		<path class="st14" d="M474.4,532.3c7.9,1.8,9.7,5.2,13.4,8.5l9.3,9.7L506,561l-11.2,9.4c-1.8,0.2-8.3-6.6-10.8-9.8
			c-3.4-4.3-10.5-14.8-10.5-14.8c-3.6-0.4-5.8-3.4-7.1-6.5C465.2,536.4,466.6,530.5,474.4,532.3z"/>
		<path class="st35" d="M494.6,559.8c3.3,4.2,4.9,0.7,5.5,0.4l-2.7-6.7l-4.4-6.8l-3.3-3.3c0,0-1.4-1.6-3.3-1.5
			c-1.9,0.1-0.7,6.8,1.6,8.3C488.6,550.6,492.5,557.1,494.6,559.8z"/>
		<path class="st24" d="M550.9,539.6c-0.9-2-12.1-3-17.6-3.3c-0.5-0.6-2.2-2.8-4.8-6.3c-3.2-4.4-9.7-5.1-13.2-5
			c-3.5,0.1-9.9,3.4-11.4,2.5c-1.5-0.9-4.1-1.8-10.7,7.4c-5.3,7.4,1.7,17.6,5.4,21.3c-0.2,7-3.1,11.1-6.1,11.3
			c-3,0.1-11.1-1.1-15.1-2.9c-4-1.8-6.8-6.7-7.4-8.2c-0.6-1.5-0.9-10-6.5-11.3c-6.6-1.5-4,12.2-3.8,18.7c0.1,3.2,2.2,6.4,8.6,13.7
			c5.6,6.3,22.7,5.6,22.7,5.6s-2.7,8.9-0.5,26c1.9,13.9,10.2,19.4,13.3,18.5c0,0-2.9,5.6-2.5,15.6c0.5,12,10.4,15.3,14.8,17.9
			c-2,3.4-8.9,12.9-12.6,13c-5.5,0.2-8.3,5.3-7.1,10.3c1.5,6.3,14.1,0.4,14.1,0.4s12.4-9.5,12.6-8.5c0.6,2.5,7.9,0.6,11.9-2.5
			c10.2-7.9,11.1-10.5,11.1-10.5s6.7,9.7,23,9.1c9.4-0.4,18.3-5.8,24.2-5c11.6,1.5,16.8,4.7,19-0.8c1.8-4.6-2.6-9-11.9-10.5
			c-9.6-1.6-17.9,2.7-29.4,3.2s-18-13.3-19.2-16.2c-1.1-3,5.3-5.7,4.7-20.2c-0.5-12.6-12.4-22-18.3-31.3c-4.4-6.8-6.1-14.7-4-25.9
			c1.2-6.4,3.5-12.2,5.9-15.7C542.7,546.4,552,542.1,550.9,539.6z"/>
		<path class="st35" d="M529,530.5l3.7,5.9l4.5-0.2l9.6,1.6l4.6,1.8l-1.9,2.1l-4.4,3.7l-4.8,5.2l-4.2,7.7l-2,11.6
			c-3.4,3.6-13.2-0.8-18.4-8.8c-3.7-5.7-3.2-19.8-3.3-20.4c-1.8-12.4,0.4-14.2,3.4-16.1l7.6,1.2L529,530.5z"/>
		<path class="st35" d="M588,667.7c-5.1-2.8-0.2-8.3-0.9-10.5l6.5-1.3l8.5,0.7l9.2,3.6l1.7,5.4l-2.9,3.6l-5,0.2l-11.1-2.1L588,667.7
			z"/>
		<path class="st35" d="M537.4,590.7l-3.4-10.4c-2.5,0.1-6.3,5.3-4.1,11.2c1.2,3.1,4.5,12.3,11.1,15c5.3,2.2,6.1-1.9,5.8-4.2
			L537.4,590.7z"/>
		<path class="st15" d="M544.1,657.5c0.8,3.1,1.5,5.7,2.8,6.9"/>
		<path class="st15" d="M510.1,620.3c-2.2,2.3-6,6.2-6.7,8.3"/>
		<path class="st15" d="M537,654.3c0.7,1.8,1.4,9.3-1.1,12.1c-2.4,2.6-6.8,6.3-10.7,8.4"/>
		<path class="st43" d="M510.8,531.2l1.6-0.2"/>
		<path class="st44" d="M497.9,533.6l-0.1-2.9l-2.2,0.8"/>
		<path class="st44" d="M503.3,524.7c-0.6-1.2-2.2-3.9-3.5-5.3"/>
		<path class="st44" d="M506.1,523.9c0,0,0.2-3.2-2.7-6.6"/>
		<path class="st44" d="M504.9,538c0.2,1.3,0.4,4.5,0.2,6.3"/>
		<path class="st44" d="M508.1,537.3c0.9,1.7,2.2,4.4,1.9,7.6"/>
		<path class="st35" d="M524.7,621.3c6.8-3,9.4,3.4,8.9,6.7c12.9,5,5.6,12.8-0.1,14.9c-4.4,1.6-12.1-0.4-14.9-5.8
			C515.7,631.8,517.8,624.4,524.7,621.3z"/>
		<path class="st45" d="M550.9,539.6c-0.9-2-12.1-3-17.6-3.3c-0.5-0.6-2.2-2.8-4.8-6.3c-3.2-4.4-9.7-5.1-13.2-5
			c-3.5,0.1-9.9,3.4-11.4,2.5c-1.5-0.9-4.1-1.8-10.7,7.4c-5.3,7.4,1.7,17.6,5.4,21.3c-0.2,7-3.1,11.1-6.1,11.3
			c-3,0.1-11.1-1.1-15.1-2.9c-4-1.8-6.8-6.7-7.4-8.2c-0.6-1.5-0.9-10-6.5-11.3c-6.6-1.5-4,12.2-3.8,18.7c0.1,3.2,2.2,6.4,8.6,13.7
			c5.6,6.3,22.7,5.6,22.7,5.6s-2.7,8.9-0.5,26c1.9,13.9,10.2,19.4,13.3,18.5c0,0-2.9,5.6-2.5,15.6c0.5,12,10.4,15.3,14.8,17.9
			c-2,3.4-8.9,12.9-12.6,13c-5.5,0.2-8.3,5.3-7.1,10.3c1.5,6.3,14.1,0.4,14.1,0.4s12.4-9.5,12.6-8.5c0.6,2.5,7.9,0.6,11.9-2.5
			c10.2-7.9,11.1-10.5,11.1-10.5s6.7,9.7,23,9.1c9.4-0.4,18.3-5.8,24.2-5c11.6,1.5,16.8,4.7,19-0.8c1.8-4.6-2.6-9-11.9-10.5
			c-9.6-1.6-17.9,2.7-29.4,3.2s-18-13.3-19.2-16.2c-1.1-3,5.3-5.7,4.7-20.2c-0.5-12.6-12.4-22-18.3-31.3c-4.4-6.8-6.1-14.7-4-25.9
			c1.2-6.4,3.5-12.2,5.9-15.7C542.7,546.4,552,542.1,550.9,539.6z"/>
		<path class="st18" d="M563.5,287.1c0,0,4.7-23.2-71.3-61.9c-40.3-20.5-99.7-41.2-145-52.4c-54.5-13.5-109.8-21.3-136.5-22
			c-81.5-2-84.6,21.2-84.6,21.2"/>
		<path class="st40" d="M493.6,254.3 M491.1,249.6l-1.2-0.5 M491.1,249.6l-1.2-0.5 M489.9,249.1c-4.2-1.8-7.8-4.6-10.4-8.1
			c-2.6-3.5-4.1-7.6-4.4-11.8c-0.3-4.2,0.6-8.4,2.7-12.2c2.1-3.8,5.3-7,9.2-9.3c3.9-2.3,8.5-3.6,13.1-3.7c4.7-0.1,9.3,0.9,13.4,2.9
			c4.1,2.1,7.5,5.1,9.8,8.7c2.4,3.6,3.6,7.8,3.6,12v0c0,6-2.5,11.7-7,16.1c-4.5,4.4-10.7,7.1-17.3,7.5l-0.4,0l-0.3,0.3
			c-2.1,2.6-5.2,3.8-8.6,4.2c-3.2,0.4-6.4,0.1-9-0.4c2.9-1.2,4.9-3.4,5.9-4.9l0.8-1L489.9,249.1z"/>
		<path class="st17" d="M499.4,232.2l-0.6-16.7h4.4l-0.6,16.7H499.4z M501,241.6c-0.5,0-1-0.1-1.5-0.4c-0.4-0.2-0.8-0.6-1-1
			c-0.3-0.4-0.4-0.9-0.4-1.4c0-0.5,0.1-1,0.4-1.4c0.3-0.4,0.6-0.7,1-1c0.4-0.2,0.9-0.4,1.5-0.4c0.5,0,1,0.1,1.5,0.4
			c0.4,0.2,0.8,0.6,1,1c0.3,0.4,0.4,0.9,0.4,1.4c0,0.5-0.1,1-0.4,1.4c-0.3,0.4-0.6,0.7-1,1C502,241.5,501.5,241.6,501,241.6z"/>
		<g>
			<path class="st17" d="M5.5,449c-2.6,0-4.8-2.2-4.8-4.8v-21.4c0-2.6,2.2-4.8,4.8-4.8h157.7c2.6,0,4.8,2.2,4.8,4.8v21.4
				c0,2.6-2.2,4.8-4.8,4.8H5.5z"/>
			<path class="st16" d="M163.3,418.7c2.2,0,4,1.8,4,4v21.4c0,2.2-1.8,4-4,4H5.5c-2.2,0-4-1.8-4-4v-21.4c0-2.2,1.8-4,4-4H163.3
				 M163.3,417.2H5.5c-3.1,0-5.5,2.5-5.5,5.5v21.4c0,3.1,2.5,5.5,5.5,5.5h157.7c3.1,0,5.5-2.5,5.5-5.5v-21.4
				C168.8,419.7,166.3,417.2,163.3,417.2L163.3,417.2z"/>
		</g>
		<path class="st46" d="M11.7,442.1L11.7,442.1c-0.5,0-1-0.1-1.5-0.3c-0.5-0.2-0.9-0.5-1.3-0.8c-0.4-0.3-0.6-0.8-0.8-1.2
			c-0.2-0.4-0.3-0.9-0.3-1.4l0,0l0.1-11l0,0c0-0.5,0.1-1,0.3-1.4c0.2-0.4,0.5-0.8,0.9-1.2c0.4-0.3,0.8-0.6,1.3-0.8
			c0.5-0.2,1-0.3,1.5-0.3h0l122.4,1.1h0c0.5,0,1,0.1,1.5,0.3c0.5,0.2,0.9,0.5,1.3,0.8c0.4,0.3,0.6,0.8,0.8,1.2l0.7-0.3l-0.7,0.3
			c0.2,0.4,0.3,0.9,0.3,1.4l0,0l-0.1,11c0,0,0,0,0,0c0,1-0.4,1.9-1.2,2.6c-0.7,0.7-1.8,1.1-2.8,1.1L11.7,442.1z"/>
		<path class="st16" d="M143.8,441.2c0.1,0.1,0.2,0.2,0.3,0.3c0.1,0.1,0.3,0.1,0.4,0.1c0.1,0,0.3,0,0.4-0.1s0.3-0.1,0.4-0.2l4.2-3.6
			c1,1,2.4,1.5,3.8,1.5c1.1,0,2.2-0.3,3.2-0.9c0.9-0.6,1.7-1.5,2.1-2.5c0.4-1,0.6-2.2,0.4-3.3c-0.2-1.1-0.7-2.1-1.5-2.9
			c-0.8-0.8-1.8-1.4-2.9-1.6c-1.1-0.2-2.2-0.1-3.3,0.3c-1,0.4-1.9,1.1-2.6,2.1c-0.6,0.9-1,2-1,3.2c0,0.8,0.2,1.6,0.5,2.4l-4.4,3.7
			c-0.1,0.1-0.2,0.2-0.3,0.3c-0.1,0.1-0.1,0.3-0.1,0.4c0,0.1,0,0.3,0.1,0.4C143.7,440.9,143.8,441.1,143.8,441.2z M149.9,433.5
			c0-0.7,0.2-1.4,0.6-2c0.4-0.6,1-1,1.6-1.3c0.7-0.3,1.4-0.3,2.1-0.2c0.7,0.1,1.3,0.5,1.8,1c0.5,0.5,0.8,1.1,1,1.8
			c0.1,0.7,0.1,1.4-0.2,2.1c-0.3,0.7-0.7,1.2-1.3,1.6c-0.6,0.4-1.3,0.6-2,0.6c-0.9,0-1.9-0.4-2.5-1.1
			C150.3,435.3,149.9,434.4,149.9,433.5z"/>
		<path class="st11" d="M346.1,434c-9.5,30.8-10.6,45.2-10.6,45.2"/>
	</g>
</g>
</svg>
