<svg width="165" height="113" viewBox="0 0 165 113" fill="none" xmlns="http://www.w3.org/2000/svg">
<path fill-rule="evenodd" clip-rule="evenodd" d="M115.436 100.28C115.436 99.8011 115.822 99.4126 116.298 99.4126H163.297C163.773 99.4126 164.159 99.8011 164.159 100.28C164.159 100.76 163.773 101.148 163.297 101.148H116.298C115.822 101.148 115.436 100.76 115.436 100.28Z" fill="#313B36"/>
<path fill-rule="evenodd" clip-rule="evenodd" d="M115.437 33.9469C115.434 33.4676 115.818 33.0771 116.295 33.0746L163.293 32.83C163.769 32.8275 164.157 33.214 164.16 33.6933C164.162 34.1726 163.779 34.5631 163.302 34.5656L116.304 34.8103C115.828 34.8127 115.44 34.4262 115.437 33.9469Z" fill="#313B36"/>
<path fill-rule="evenodd" clip-rule="evenodd" d="M5.42483 0.937012H129.908C130.547 0.943734 131.178 1.07508 131.766 1.3232C132.354 1.57134 132.888 1.93188 133.337 2.38549C133.785 2.83903 134.139 3.37642 134.378 3.9672C134.617 4.55605 134.735 5.18605 134.728 5.82127V21.7723C134.728 22.2516 134.342 22.6402 133.865 22.6402C133.389 22.6402 133.003 22.2516 133.003 21.7723V5.81538L133.003 5.80343C133.009 5.39954 132.934 4.99805 132.781 4.62176C132.629 4.24553 132.403 3.90153 132.114 3.60995C131.826 3.31844 131.481 3.08507 131.099 2.92384C130.719 2.76311 130.309 2.67759 129.895 2.67268H5.43081C4.59143 2.68512 3.79442 3.02507 3.21296 3.61307C2.63083 4.20174 2.31201 4.99059 2.32094 5.80581L2.32105 5.81538L2.32099 89.248C2.31206 90.0632 2.63083 90.8521 3.21296 91.4408C3.79435 92.0287 4.59135 92.3685 5.43091 92.3809H113.184C113.66 92.3809 114.046 92.7694 114.046 93.2487C114.046 93.728 113.66 94.1166 113.184 94.1166H5.41355C4.12648 94.0996 2.89522 93.5797 1.99087 92.6652C1.08724 91.7514 0.583949 90.518 0.596671 89.2339V5.81992C0.583949 4.53582 1.08724 3.30239 1.99087 2.3886C2.89512 1.47419 4.12634 0.954045 5.41355 0.937086L5.42483 0.937012Z" fill="#313B36"/>
<path fill-rule="evenodd" clip-rule="evenodd" d="M113.18 83.4998L2.05806 82.9152C1.58191 82.9127 1.19801 82.5222 1.20059 82.0429C1.20318 81.5636 1.59128 81.1771 2.06743 81.1796L113.189 81.7642C113.665 81.7667 114.049 82.1572 114.047 82.6365C114.044 83.1158 113.656 83.5023 113.18 83.4998Z" fill="#313B36"/>
<path fill-rule="evenodd" clip-rule="evenodd" d="M75.5124 92.4267C75.9635 92.2734 76.4527 92.5172 76.605 92.9714L80.7434 105.311C80.8322 105.576 80.7889 105.868 80.6269 106.095C80.4649 106.322 80.2042 106.457 79.9265 106.457H56.6158C56.3419 106.457 56.0842 106.326 55.9217 106.104C55.7592 105.882 55.7112 105.595 55.7924 105.332L59.5967 92.9917C59.7378 92.534 60.2209 92.278 60.6756 92.4201C61.1304 92.5621 61.3847 93.0484 61.2435 93.5061L57.7861 104.721H78.7255L74.9713 93.5265C74.819 93.0724 75.0613 92.58 75.5124 92.4267Z" fill="#313B36"/>
<path fill-rule="evenodd" clip-rule="evenodd" d="M50.8606 105.589C50.8606 105.11 51.2466 104.721 51.7228 104.721H83.6658C84.142 104.721 84.528 105.11 84.528 105.589C84.528 106.068 84.142 106.457 83.6658 106.457H51.7228C51.2466 106.457 50.8606 106.068 50.8606 105.589Z" fill="#313B36"/>
<path fill-rule="evenodd" clip-rule="evenodd" d="M120.287 26.034C118.312 26.034 116.741 27.6094 116.741 29.5171V107.408C116.741 109.316 118.312 110.891 120.287 110.891H159.084C161.058 110.891 162.629 109.316 162.629 107.408V29.5171C162.629 27.6094 161.058 26.034 159.084 26.034H120.287ZM115.017 29.5171C115.017 26.6189 117.392 24.2983 120.287 24.2983H159.084C161.978 24.2983 164.354 26.6189 164.354 29.5171V107.408C164.354 110.306 161.978 112.627 159.084 112.627H120.287C117.392 112.627 115.017 110.306 115.017 107.408V29.5171Z" fill="#313B36"/>
<path fill-rule="evenodd" clip-rule="evenodd" d="M10.2423 8.3216C9.88047 8.3216 9.58492 8.61767 9.58492 8.98564C9.58492 9.3536 9.88047 9.64967 10.2423 9.64967C10.6042 9.64967 10.8997 9.3536 10.8997 8.98564C10.8997 8.61767 10.6042 8.3216 10.2423 8.3216ZM7.8606 8.98564C7.8606 7.66155 8.9257 6.58594 10.2423 6.58594C11.5589 6.58594 12.624 7.66155 12.624 8.98564C12.624 10.3097 11.5589 11.3853 10.2423 11.3853C8.9257 11.3853 7.8606 10.3097 7.8606 8.98564Z" fill="#313B36"/>
<path fill-rule="evenodd" clip-rule="evenodd" d="M17.6137 8.3216C17.2518 8.3216 16.9563 8.61767 16.9563 8.98564C16.9563 9.3536 17.2518 9.64967 17.6137 9.64967C17.9755 9.64967 18.2711 9.3536 18.2711 8.98564C18.2711 8.61767 17.9755 8.3216 17.6137 8.3216ZM15.2319 8.98564C15.2319 7.66155 16.297 6.58594 17.6137 6.58594C18.9303 6.58594 19.9954 7.66155 19.9954 8.98564C19.9954 10.3097 18.9303 11.3853 17.6137 11.3853C16.297 11.3853 15.2319 10.3097 15.2319 8.98564Z" fill="#313B36"/>
<path fill-rule="evenodd" clip-rule="evenodd" d="M24.9852 8.3216C24.6234 8.3216 24.3278 8.61767 24.3278 8.98564C24.3278 9.3536 24.6234 9.64967 24.9852 9.64967C25.3471 9.64967 25.6426 9.3536 25.6426 8.98564C25.6426 8.61767 25.3471 8.3216 24.9852 8.3216ZM22.6035 8.98564C22.6035 7.66155 23.6686 6.58594 24.9852 6.58594C26.3019 6.58594 27.367 7.66155 27.367 8.98564C27.367 10.3097 26.3019 11.3853 24.9852 11.3853C23.6686 11.3853 22.6035 10.3097 22.6035 8.98564Z" fill="#313B36"/>
<path fill-rule="evenodd" clip-rule="evenodd" d="M19.4349 18.7786C17.8536 18.7786 16.6005 20.0396 16.6005 21.5596V39.3888C16.6005 40.9088 17.8536 42.1698 19.4349 42.1698H42.0343C43.6156 42.1698 44.8687 40.9088 44.8687 39.3888V21.5596C44.8687 20.0396 43.6156 18.7786 42.0343 18.7786H19.4349ZM14.8762 21.5596C14.8762 19.0492 16.9332 17.043 19.4349 17.043H42.0343C44.536 17.043 46.593 19.0492 46.593 21.5596V39.3888C46.593 41.8992 44.536 43.9055 42.0343 43.9055H19.4349C16.9332 43.9055 14.8762 41.8992 14.8762 39.3888V21.5596Z" fill="#313B36"/>
<path fill-rule="evenodd" clip-rule="evenodd" d="M51.1626 22.1022C51.1626 21.6229 51.5486 21.2344 52.0248 21.2344H111.816C112.292 21.2344 112.678 21.6229 112.678 22.1022C112.678 22.5815 112.292 22.97 111.816 22.97H52.0248C51.5486 22.97 51.1626 22.5815 51.1626 22.1022Z" fill="#907D73"/>
<path fill-rule="evenodd" clip-rule="evenodd" d="M51.1626 30.8146C51.1626 30.3353 51.5486 29.9468 52.0248 29.9468H111.816C112.292 29.9468 112.678 30.3353 112.678 30.8146C112.678 31.2939 112.292 31.6824 111.816 31.6824H52.0248C51.5486 31.6824 51.1626 31.2939 51.1626 30.8146Z" fill="#907D73"/>
<path fill-rule="evenodd" clip-rule="evenodd" d="M51.1626 39.8571C51.1626 39.3778 51.5486 38.9893 52.0248 38.9893H82.4698C82.946 38.9893 83.332 39.3778 83.332 39.8571C83.332 40.3364 82.946 40.7249 82.4698 40.7249H52.0248C51.5486 40.7249 51.1626 40.3364 51.1626 39.8571Z" fill="#907D73"/>
<path fill-rule="evenodd" clip-rule="evenodd" d="M127.421 41.3631C125.84 41.3631 124.587 42.6241 124.587 44.1441V64.0903C124.587 65.6103 125.84 66.8713 127.421 66.8713H153.307C154.889 66.8713 156.142 65.6103 156.142 64.0903V44.1441C156.142 42.6241 154.889 41.3631 153.307 41.3631H127.421ZM122.862 44.1441C122.862 41.6337 124.919 39.6274 127.421 39.6274H153.307C155.809 39.6274 157.866 41.6337 157.866 44.1441V64.0903C157.866 66.6007 155.809 68.6069 153.307 68.6069H127.421C124.919 68.6069 122.862 66.6007 122.862 64.0903V44.1441Z" fill="#313B36"/>
<path d="M146.552 48.1949L147.159 54.8921C147.213 55.1838 147.24 55.4795 147.239 55.7757C147.23 58.9333 144.067 61.4838 140.172 61.4733C136.277 61.4628 133.129 58.8954 133.138 55.7378C133.139 55.5491 133.15 55.3607 133.173 55.1733L133.139 55.205L133.9 48.3771C133.91 48.2889 133.944 48.2044 133.998 48.1317C134.051 48.059 134.124 48.0004 134.208 47.9615C134.293 47.9225 134.386 47.9045 134.48 47.9092C134.574 47.9138 134.665 47.9408 134.745 47.9878L138.479 50.2062C139.046 50.0918 139.624 50.0353 140.204 50.0378C140.747 50.0397 141.288 50.0923 141.82 50.1947L145.394 47.7C145.498 47.6258 145.621 47.5794 145.75 47.5657C145.879 47.552 146.01 47.5715 146.129 47.6221C146.247 47.6728 146.349 47.7528 146.423 47.8536C146.498 47.9544 146.542 48.0723 146.552 48.1949Z" fill="#C28145"/>
<path fill-rule="evenodd" clip-rule="evenodd" d="M145.449 55.1306L144.992 50.0926L142.207 52.0365L141.496 51.8994C141.069 51.8173 140.634 51.775 140.198 51.7735L140.197 51.7735C139.733 51.7715 139.27 51.8167 138.818 51.908L138.171 52.0386L135.41 50.3987L135.373 50.7322L135.46 50.6508L134.885 55.3837C134.87 55.5032 134.863 55.6233 134.862 55.7434C134.858 57.6107 136.868 59.7288 140.177 59.7377C143.486 59.7465 145.509 57.6385 145.514 55.771L145.514 55.7694C145.515 55.5822 145.498 55.3951 145.464 55.21L145.449 55.1306ZM133.9 48.3771C133.91 48.2889 133.944 48.2044 133.998 48.1317C134.051 48.059 134.124 48.0004 134.208 47.9615C134.293 47.9225 134.386 47.9045 134.48 47.9092C134.574 47.9138 134.665 47.9408 134.745 47.9878L138.479 50.2062C139.046 50.0918 139.624 50.0353 140.204 50.0378C140.747 50.0397 141.288 50.0923 141.82 50.1947L145.394 47.7C145.498 47.6258 145.621 47.5794 145.75 47.5657C145.879 47.552 146.01 47.5715 146.129 47.6221C146.247 47.6728 146.349 47.7528 146.423 47.8536C146.498 47.9544 146.542 48.0723 146.552 48.1949L147.159 54.8921C147.213 55.1838 147.24 55.4795 147.239 55.7757C147.23 58.9333 144.067 61.4838 140.172 61.4733C136.957 61.4647 134.25 59.7134 133.409 57.3261C133.231 56.8216 133.136 56.2886 133.138 55.7378C133.139 55.5695 133.148 55.4013 133.166 55.234C133.167 55.2254 133.168 55.2169 133.169 55.2084C133.17 55.1967 133.172 55.185 133.173 55.1733L133.139 55.205L133.9 48.3771ZM134.458 48.4771L134.453 48.4732L134.458 48.4771Z" fill="#313B36"/>
<path fill-rule="evenodd" clip-rule="evenodd" d="M122.862 74.0578C122.862 73.5785 123.248 73.1899 123.724 73.1899H157.004C157.48 73.1899 157.866 73.5785 157.866 74.0578C157.866 74.5371 157.48 74.9256 157.004 74.9256H123.724C123.248 74.9256 122.862 74.5371 122.862 74.0578Z" fill="#907D73"/>
<path fill-rule="evenodd" clip-rule="evenodd" d="M122.862 83.4938C122.862 83.0145 123.248 82.626 123.724 82.626H157.004C157.48 82.626 157.866 83.0145 157.866 83.4938C157.866 83.9731 157.48 84.3616 157.004 84.3616H123.724C123.248 84.3616 122.862 83.9731 122.862 83.4938Z" fill="#907D73"/>
<path fill-rule="evenodd" clip-rule="evenodd" d="M122.862 93.2809C122.862 92.8016 123.248 92.4131 123.724 92.4131H145.516C145.992 92.4131 146.378 92.8016 146.378 93.2809C146.378 93.7602 145.992 94.1488 145.516 94.1488H123.724C123.248 94.1488 122.862 93.7602 122.862 93.2809Z" fill="#907D73"/>
<path fill-rule="evenodd" clip-rule="evenodd" d="M19.4349 49.3309C17.8536 49.3309 16.6005 50.5919 16.6005 52.1119V69.9411C16.6005 71.4611 17.8536 72.7221 19.4349 72.7221H42.0343C43.6156 72.7221 44.8687 71.4611 44.8687 69.9411V52.1119C44.8687 50.5919 43.6156 49.3309 42.0343 49.3309H19.4349ZM14.8762 52.1119C14.8762 49.6015 16.9332 47.5952 19.4349 47.5952H42.0343C44.536 47.5952 46.593 49.6015 46.593 52.1119V69.9411C46.593 72.4515 44.536 74.4577 42.0343 74.4577H19.4349C16.9332 74.4577 14.8762 72.4515 14.8762 69.9411V52.1119Z" fill="#313B36"/>
<path fill-rule="evenodd" clip-rule="evenodd" d="M51.1626 52.0695C51.1626 51.5902 51.5486 51.2017 52.0248 51.2017H111.816C112.292 51.2017 112.678 51.5902 112.678 52.0695C112.678 52.5488 112.292 52.9373 111.816 52.9373H52.0248C51.5486 52.9373 51.1626 52.5488 51.1626 52.0695Z" fill="#907D73"/>
<path fill-rule="evenodd" clip-rule="evenodd" d="M51.1626 60.7819C51.1626 60.3026 51.5486 59.9141 52.0248 59.9141H111.816C112.292 59.9141 112.678 60.3026 112.678 60.7819C112.678 61.2612 112.292 61.6497 111.816 61.6497H52.0248C51.5486 61.6497 51.1626 61.2612 51.1626 60.7819Z" fill="#907D73"/>
<path fill-rule="evenodd" clip-rule="evenodd" d="M51.1626 69.8244C51.1626 69.3451 51.5486 68.9565 52.0248 68.9565H82.4698C82.946 68.9565 83.332 69.3451 83.332 69.8244C83.332 70.3037 82.946 70.6922 82.4698 70.6922H52.0248C51.5486 70.6922 51.1626 70.3037 51.1626 69.8244Z" fill="#907D73"/>
<path d="M143.166 28.6875H135.708C135.226 28.6875 134.835 29.0733 134.835 29.5492V29.5598C134.835 30.0357 135.226 30.4215 135.708 30.4215H143.166C143.648 30.4215 144.039 30.0357 144.039 29.5598V29.5492C144.039 29.0733 143.648 28.6875 143.166 28.6875Z" fill="#313B36"/>
<g clip-path="url(#clip0_1530_5177)">
<path fill-rule="evenodd" clip-rule="evenodd" d="M30.7494 50.7183C29.5622 58.3217 28.5948 59.4405 22.1184 60.8391C28.5948 62.2376 29.5622 63.3637 30.7494 70.9304C31.9492 63.3637 32.9041 62.2376 39.3679 60.8391C32.9041 59.4405 31.9492 58.3217 30.7494 50.7183Z" fill="#D7CFBF"/>
<path fill-rule="evenodd" clip-rule="evenodd" d="M22.1184 60.8391C23.1564 61.0632 24.0529 61.2804 24.8315 61.5181C28.0244 62.4934 29.2339 63.8157 30.0869 67.3916C30.3236 68.3841 30.5329 69.5501 30.7494 70.9304C30.9683 69.5503 31.179 68.3845 31.4164 67.3922C32.2721 63.816 33.4754 62.4935 36.6604 61.5183C37.4371 61.2804 38.3317 61.0632 39.3679 60.8391C38.3317 60.6149 37.4371 60.3979 36.6603 60.1602C33.4752 59.1856 32.272 57.8632 31.4163 54.2719C31.1789 53.2757 30.9682 52.1048 30.7494 50.7183C30.5329 52.105 30.3237 53.2761 30.087 54.2725C29.2341 57.8635 28.0246 59.1857 24.8316 60.1603C24.053 60.3979 23.1565 60.6149 22.1184 60.8391ZM26.7617 60.8393C27.8163 61.3048 28.6903 61.8959 29.3973 62.7221C29.9661 63.387 30.4001 64.175 30.752 65.1043C31.1037 64.1754 31.5366 63.3878 32.1037 62.7234C32.8093 61.8966 33.6816 61.3051 34.7342 60.8393C33.6813 60.3736 32.8087 59.7815 32.1029 58.9528C31.5362 58.2875 31.1035 57.4985 30.752 56.5673C30.4003 57.4989 29.9666 58.2884 29.3981 58.9541C28.6909 59.7821 27.8165 60.3738 26.7617 60.8393Z" fill="#313B36"/>
</g>
<path d="M135.277 106.568C135.277 105.099 136.46 103.908 137.919 103.908H142.335C143.794 103.908 144.977 105.099 144.977 106.568C144.977 108.036 143.794 109.227 142.335 109.227H137.919C136.46 109.227 135.277 108.036 135.277 106.568Z" fill="#D8C5A8"/>
<path fill-rule="evenodd" clip-rule="evenodd" d="M142.335 105.644H137.919C137.413 105.644 137.002 106.057 137.002 106.568C137.002 107.078 137.413 107.492 137.919 107.492H142.335C142.841 107.492 143.252 107.078 143.252 106.568C143.252 106.057 142.841 105.644 142.335 105.644ZM137.919 103.908C136.46 103.908 135.277 105.099 135.277 106.568C135.277 108.036 136.46 109.227 137.919 109.227H142.335C143.794 109.227 144.977 108.036 144.977 106.568C144.977 105.099 143.794 103.908 142.335 103.908H137.919Z" fill="#313B36"/>
<path d="M36.9832 24.9059C36.9831 24.906 36.983 24.9061 36.9828 24.9062L36.9832 24.9059ZM33.4014 27.4059L36.9624 24.9205L37.5643 31.5561L37.5674 31.5907L37.5737 31.6248C37.6192 31.8707 37.6416 32.1198 37.6406 32.3691L37.6406 32.3698C37.6333 34.974 34.9616 37.3293 31.3264 37.3195C27.6913 37.3097 25.0329 34.9404 25.04 32.3364C25.0406 32.1772 25.0506 32.0181 25.0698 31.8598L25.3192 29.8065L25.2625 29.8598L25.7622 25.3765L29.2481 27.4472L29.4964 27.5947L29.7795 27.5376C30.2965 27.4333 30.824 27.3817 31.353 27.384L31.3536 27.384C31.8498 27.3858 32.3444 27.4338 32.8302 27.5274L33.1415 27.5873L33.4014 27.4059Z" fill="#C28145" stroke="#313B36" stroke-width="1.5"/>
<path d="M30.0071 28.7824C30.5578 29.0701 31.4754 29.6291 31.9091 29.9244L31.2883 30.7972C30.8212 30.4859 29.9537 29.9509 29.403 29.6553L30.0071 28.7824ZM28.4454 34.4227C29.3817 34.2742 30.3768 34.0066 31.289 33.532C32.7116 32.7806 33.8845 31.6946 34.5478 30.5595L35.1882 31.6425C34.4163 32.7454 33.227 33.7439 31.8628 34.4955C31.0092 34.9464 29.8049 35.3407 29.0692 35.4659L28.4454 34.4227ZM28.7152 30.5916C29.2742 30.8793 30.1919 31.4223 30.6256 31.7176L30.0047 32.6064C29.5377 32.2871 28.6702 31.7521 28.1111 31.4644L28.7152 30.5916Z" fill="#C28145"/>
<defs>
<clipPath id="clip0_1530_5177">
<rect width="17.2432" height="20.2121" fill="white" transform="translate(22.1184 50.7183)"/>
</clipPath>
</defs>
</svg>
