<svg width="402" height="267" viewBox="0 0 402 267" fill="none" xmlns="http://www.w3.org/2000/svg">
<path d="M186.78 71.7196L87.6702 60.4282L87.6704 152.041L138.131 150.852C138.131 150.852 164.418 231.138 183.086 217.88C201.745 204.628 187.571 141.384 184.579 121.954C183.164 112.764 185.281 102.088 186.78 92.9475C188.735 81.0283 186.78 71.7196 186.78 71.7196Z" fill="#907D73"/>
<path d="M41.84 265.096H179.355C182.834 223.36 189.904 202.031 186.121 188.551C186.121 188.551 188.772 169.23 176.381 156.617C165.179 145.214 149.63 137.58 144.872 135.888C140.113 134.195 136.149 143.465 136.149 143.465C130.906 132.569 106.23 127.111 106.23 127.111C106.23 127.111 99.8312 135.554 94.6257 135.888C82.4244 136.617 73.2739 153.77 65.3831 164.709C63.3517 173.221 51.4258 180.16 48.8612 205.278C47.4265 219.474 45.9536 234.597 44.4682 248.732C43.5794 257.133 42.7034 257.769 41.84 265.096Z" fill="#D8C5A8"/>
<path d="M137.894 171.971L137.775 174.636C137.759 174.753 137.753 174.87 137.759 174.988C137.822 176.239 139.145 177.19 140.715 177.113C142.285 177.036 143.506 175.959 143.443 174.708C143.439 174.633 143.431 174.559 143.418 174.485L143.433 174.497L142.998 171.805C142.992 171.771 142.977 171.738 142.954 171.71C142.931 171.682 142.901 171.66 142.866 171.647C142.831 171.633 142.793 171.627 142.755 171.631C142.718 171.634 142.681 171.647 142.65 171.667L141.186 172.616C140.956 172.582 140.721 172.57 140.488 172.582C140.269 172.593 140.052 172.624 139.839 172.674L138.351 171.753C138.308 171.725 138.258 171.709 138.205 171.706C138.153 171.703 138.101 171.713 138.054 171.736C138.007 171.758 137.968 171.792 137.939 171.833C137.911 171.874 137.896 171.922 137.894 171.971Z" fill="#313B36"/>
<path d="M139.299 196.232L139.076 198.891C139.055 199.007 139.045 199.124 139.047 199.242C139.061 200.494 140.345 201.494 141.917 201.476C143.489 201.457 144.752 200.427 144.738 199.175C144.737 199.1 144.732 199.025 144.722 198.951L144.736 198.963L144.406 196.258C144.402 196.223 144.388 196.189 144.366 196.161C144.344 196.132 144.315 196.109 144.281 196.094C144.246 196.079 144.209 196.072 144.171 196.074C144.133 196.076 144.096 196.088 144.064 196.106L142.564 197C142.335 196.957 142.101 196.937 141.867 196.94C141.648 196.942 141.43 196.965 141.216 197.008L139.765 196.031C139.723 196.002 139.673 195.984 139.621 195.979C139.568 195.975 139.516 195.983 139.468 196.003C139.42 196.024 139.38 196.056 139.35 196.096C139.32 196.136 139.303 196.183 139.299 196.232Z" fill="#313B36"/>
<path d="M140.211 223.739L139.988 226.398C139.967 226.514 139.957 226.631 139.959 226.749C139.973 228.001 141.257 229.002 142.83 228.983C144.402 228.965 145.664 227.935 145.65 226.682C145.649 226.607 145.644 226.532 145.634 226.458L145.648 226.471L145.318 223.765C145.314 223.73 145.3 223.697 145.278 223.668C145.256 223.639 145.227 223.616 145.193 223.601C145.158 223.586 145.121 223.579 145.083 223.582C145.045 223.584 145.008 223.595 144.976 223.614L143.476 224.507C143.247 224.464 143.013 224.444 142.779 224.447C142.56 224.45 142.342 224.473 142.128 224.515L140.677 223.539C140.635 223.51 140.585 223.492 140.533 223.487C140.481 223.482 140.428 223.49 140.38 223.511C140.333 223.531 140.292 223.563 140.262 223.604C140.232 223.644 140.215 223.691 140.211 223.739Z" fill="#313B36"/>
<path d="M164.92 262.683C163.046 260.341 160.621 258.327 157.836 256.801M135.801 265.995C135.801 265.995 128.137 260.574 126.282 259.113L134.051 248C137.478 248.987 144.015 249.062 148.485 249.631C154.215 250.439 161.04 250.208 164.303 253.298C169.857 258.595 176.01 264.563 173.834 266L135.801 265.995Z" stroke="#313B36" stroke-linecap="round"/>
<path d="M85.2313 175.591C73.7101 203.867 73.4269 232.068 75.4009 232.667C87.8833 236.453 98.4306 237.579 105.668 238.977C109.616 239.74 126.387 244.344 133.979 247.5C142.305 250.96 133.979 266 133.979 266C133.979 266 104.218 265.195 75.4009 265.5C48.3636 265.785 29.7826 256.5 26.7826 246.5C23.7826 236.5 28.9386 222.476 35.2826 202.5C44.2673 174.208 54.7826 159.741 66.2826 149C77.7826 138.258 96.7824 134.256 98.6687 135.071C112.753 141.189 91.6826 159.758 85.2313 175.591Z" fill="#D8C5A8"/>
<path d="M136.283 248.5C134.596 246.2 122.283 244.5 122.283 244.5L120.479 255L115.979 266L134.979 265.5C134.979 265.5 141.783 256 136.283 248.5Z" fill="#907D73"/>
<path fill-rule="evenodd" clip-rule="evenodd" d="M79.1887 203.304C78.7066 203.182 78.2175 203.475 78.0963 203.957C75.8061 213.058 74.0346 219.714 72.8361 224.093C72.2369 226.283 71.7809 227.903 71.4749 228.975C71.322 229.511 71.2065 229.91 71.1294 230.175C71.0909 230.307 71.0619 230.406 71.0427 230.471L71.0157 230.562L71.0145 230.566L71.0142 230.567L70.7411 231.485L71.6737 231.701L71.8767 230.824C71.6737 231.701 71.6735 231.701 71.6737 231.701L72.1114 231.803C72.3996 231.871 72.8258 231.971 73.3771 232.101C74.4797 232.362 76.0829 232.744 78.0838 233.23C82.0859 234.201 87.6785 235.586 94.0402 237.238C106.77 240.543 122.555 244.914 134.836 249.187C135.306 249.35 135.819 249.102 135.982 248.633C136.146 248.163 135.897 247.65 135.428 247.487C123.075 243.189 107.232 238.803 94.4926 235.495C88.1197 233.841 82.5175 232.454 78.5084 231.481C76.5037 230.994 74.8972 230.611 73.7915 230.349C73.4925 230.279 73.2301 230.217 73.0064 230.164C73.0638 229.965 73.1303 229.734 73.2058 229.469C73.5136 228.39 73.9713 226.764 74.5722 224.568C75.7741 220.177 77.5488 213.509 79.8418 204.396C79.9631 203.914 79.6707 203.425 79.1887 203.304Z" fill="#313B36"/>
<path d="M43.0004 183C39.0004 192.5 36.8423 199.644 32.5004 212C22.5004 243 29.5002 252 29.5002 252" stroke="#313B36" stroke-width="2" stroke-linecap="round"/>
<path fill-rule="evenodd" clip-rule="evenodd" d="M121.393 245.721L121.392 245.728L121.39 245.75L121.382 245.843C121.374 245.924 121.363 246.046 121.347 246.204C121.314 246.519 121.263 246.978 121.189 247.546C121.041 248.684 120.8 250.259 120.432 252.006C119.688 255.531 118.447 259.649 116.467 262.34C116.226 262.667 116.317 263.122 116.668 263.356C117.02 263.59 117.5 263.515 117.741 263.188C119.909 260.241 121.196 255.874 121.945 252.321C122.323 250.531 122.569 248.92 122.721 247.756C122.797 247.174 122.849 246.703 122.883 246.377C122.899 246.214 122.911 246.087 122.919 246C122.923 245.956 122.926 245.923 122.928 245.9L122.93 245.874L122.931 245.865C122.931 245.865 122.931 245.864 122.162 245.792L122.931 245.865C122.963 245.465 122.645 245.107 122.22 245.068C121.795 245.029 121.425 245.321 121.393 245.721Z" fill="#313B36"/>
<path d="M139.933 164.844L144.816 151.77L134.909 145.149L131.357 154.113L139.933 164.844Z" fill="#EFEDE7" stroke="#313B36" stroke-width="1.8" stroke-linecap="round"/>
<path d="M146.599 161.506C148.908 190.617 149.832 211.873 149.832 211.873" stroke="#313B36" stroke-width="1.5" stroke-linecap="round"/>
<path d="M160.027 243.626L162.3 261.636" stroke="#313B36" stroke-width="1.5" stroke-linecap="round"/>
<path d="M130.434 162.43C133.43 182.326 135.052 224.811 135.052 243.756" stroke="#313B36" stroke-width="1.5" stroke-linecap="round"/>
<path d="M133.414 145.412L138.285 129.532L145.445 135.403L151.174 142.611L152.892 149.334L150.601 152.695L145.445 153.255L137.424 148.213L135.494 147.093L135.132 151.575L132.268 156.617L125.393 158.858L116.226 157.177L103.622 149.334L96.7476 140.37L95.0898 135.466L105.766 128.504L112.216 134.207L124.82 142.05L133.414 145.412Z" fill="#EFEDE7"/>
<path d="M135.976 145.333C136.826 151.65 131.463 165.45 111.405 154.872C94.4428 145.928 94.2988 130.704 93.8543 126.912" stroke="#313B36" stroke-width="2"/>
<path d="M138.115 129.364C138.115 129.364 158.922 143.195 151.225 151.798C146.636 156.926 138.516 149.532 136.437 145.796" stroke="#313B36" stroke-width="2"/>
<path d="M141.354 131.159L148.642 103.987L109.957 98.5549L109.957 99.1659L109.957 103.482L109.957 113.91C109.957 117.886 108.936 121.591 107.93 124.283C107.426 125.633 106.921 126.74 106.541 127.512C106.45 127.695 106.367 127.86 106.292 128.005C106.477 128.163 106.703 128.355 106.966 128.576C107.786 129.265 108.97 130.238 110.419 131.37C113.322 133.635 117.278 136.525 121.511 139.045C125.761 141.575 130.216 143.688 134.131 144.463C138.044 145.239 141.161 144.644 143.145 142.129C144.833 139.991 144.543 137.592 143.705 135.556C143.289 134.545 142.752 133.67 142.316 133.045C142.098 132.734 141.908 132.489 141.775 132.324C141.708 132.241 141.656 132.179 141.621 132.139C141.604 132.118 141.591 132.104 141.584 132.095L141.576 132.086L141.576 132.086L141.575 132.086L141.575 132.085L141.575 132.085L141.213 131.683L141.354 131.159Z" fill="#EFEDE7" stroke="#313B36" stroke-width="2"/>
<path d="M176.162 51.9916C176.162 51.9916 184.061 65.8259 180.933 71.8596C178.007 80.6388 172.818 90.1259 171.001 96.345C166.283 112.5 159.609 121.32 135.999 125.401C131.445 126.188 118.562 120.775 108.265 108.798C103.142 101.906 99.2826 90.5 99.2826 90.5C99.2826 90.5 88.0043 89.9436 87.7826 76.5C87.544 68.9159 87.9415 60.0483 101.283 63C101.283 63 125.529 21.4596 149.315 29.6725C163.147 34.4483 176.162 51.9916 176.162 51.9916Z" fill="#EFEDE7" stroke="#313B36" stroke-width="1.8" stroke-miterlimit="10"/>
<path d="M96.7971 73.075C95.829 74.675 95.3094 76.5253 95.2917 78.4355C95.2741 80.3457 95.7591 82.2469 96.6968 83.9436" stroke="#313B36" stroke-width="1.8" stroke-miterlimit="10" stroke-linecap="round"/>
<path d="M187.244 91.5917C187.244 91.5917 198.791 52.4552 174.312 21.9586C165.301 10.7317 150.295 4.40016 131.571 9.01052C107.017 4.22718 96.2568 20.087 87.4811 39.0564C82.0966 50.6954 78.3339 64.8494 75.9342 76.6889C74.4228 84.1456 71.8874 97.9519 68.5437 106.057C59.2404 128.609 52.3498 142.031 44.9597 156.818C37.5696 171.604 46.0002 176 46.0002 176C46.0002 176 49.0002 170.5 52.5002 165C57.2245 157.576 65.2826 149 75.7826 143C85.8623 137.24 101.972 136.011 104.837 125.255C107.703 114.498 103.343 105.242 103.343 105.242C103.343 105.242 100.623 102.099 98.5838 99.5859C96.5445 97.0724 98.4547 93.3621 97.1797 91.593C95.2598 90.4128 92.1598 89.2594 90.2518 85.7217C87.5544 80.7203 88.2273 76.7445 88.7826 73.9998C89.5264 70.3233 90.9216 68.4316 92.7826 67.4998C96.3108 65.7331 99.1902 65.6506 100.783 65.9998C102.375 66.3489 103.783 69.9998 103.783 69.9998C103.783 69.9998 111.449 73.0747 122.283 60.9998C131.569 50.6496 135.977 40.4422 135.977 40.4422C144.29 42.7524 155.375 47.3729 160.456 54.766C166.463 65.1031 167.57 79.5351 172.926 87.573C183.086 102.821 187.244 91.5917 187.244 91.5917Z" fill="#907D73"/>
<path d="M187.704 88.9599C190.014 78.794 190.937 62.1594 186.78 45.5246C183.663 33.0484 179.744 25.1929 165.997 14.5649C153.446 4.86133 137.824 7.63397 137.824 7.63397" stroke="#313B36" stroke-width="2" stroke-linecap="round"/>
<path d="M184.933 100.512C182.56 115.821 185.967 136.579 187.704 143.486C194.789 171.658 196.584 194.596 187.704 198.011" stroke="#313B36" stroke-width="2" stroke-linecap="round"/>
<path d="M104.048 70.0125C103.204 65.7298 94.44 65.1702 91.2154 69.9962C87.4778 75.5897 86.2826 90.5 99.2826 90.5" stroke="#313B36" stroke-width="1.8" stroke-linecap="round"/>
<path d="M134.591 42.29C132.689 46.7657 119.283 72.5 104.283 70.5" stroke="#313B36" stroke-width="2" stroke-linecap="round"/>
<path d="M119.811 42.2901C119.811 51.9937 106.288 65.9777 100.875 65.8562" stroke="#313B36" stroke-width="2" stroke-linecap="round"/>
<path d="M73.5002 152.5C82.3002 147.3 91.1669 130.667 94.0002 124L74.5002 134.5L53.5002 160C56.6669 159.333 64.7003 157.7 73.5002 152.5Z" fill="#907D73"/>
<path d="M158.145 38.5934C175.696 49.2212 172.925 63.0836 178.929 73.7113" stroke="#313B36" stroke-width="2" stroke-linecap="round"/>
<path d="M138.747 41.3659C146.555 43.3909 159.019 49.636 163.532 61.62C168.879 75.8168 171.539 95.4291 186.78 99.1257" stroke="#313B36" stroke-width="2" stroke-linecap="round"/>
<path d="M164.149 125.464C164.149 140.251 165.997 138.864 165.997 144.409" stroke="#313B36" stroke-width="2" stroke-linecap="round"/>
<path d="M106.694 127.575C106.694 127.575 102.449 131.819 95.0899 135.466" stroke="#313B36" stroke-width="2" stroke-linecap="round"/>
<path d="M45.5001 175.5C34.5002 168 56.3985 140.513 66.2352 112.526C76.6605 82.8645 78.9566 61.2486 87.9425 38.1313C91.1756 29.8139 97.2897 20.0945 103.461 14.9558C110.126 9.40531 118.887 5.26382 132.284 8.86639" stroke="#313B36" stroke-width="2" stroke-linecap="round"/>
<path d="M94.8037 123.514C92.1981 128.677 84.0005 154 55.0005 160" stroke="#313B36" stroke-width="2" stroke-linecap="round"/>
<path d="M124.919 84.2756C127.077 84.7934 129.431 82.5726 130.179 79.3152C130.927 76.0579 129.784 72.9976 127.627 72.4798C125.469 71.962 123.114 74.1828 122.367 77.4401C121.619 80.6974 122.762 83.7578 124.919 84.2756Z" fill="#313B36"/>
<path fill-rule="evenodd" clip-rule="evenodd" d="M125.855 68.2557C124.063 68.3902 122.773 69.3167 122.388 69.975C122.06 70.5368 121.272 70.7048 120.63 70.3501C119.987 69.9954 119.733 69.2524 120.061 68.6905C120.866 67.3141 122.911 66.0448 125.411 65.8573C128.031 65.6607 131.093 66.6438 133.877 69.6742C134.363 70.2035 134.325 70.9582 133.792 71.3598C133.259 71.7613 132.432 71.6577 131.946 71.1283C129.714 68.6988 127.527 68.1303 125.855 68.2557Z" fill="#313B36"/>
<path fill-rule="evenodd" clip-rule="evenodd" d="M161.848 74.7971C160.135 74.5229 158.646 75.0977 158.083 75.6245C157.603 76.0742 156.817 76.0551 156.328 75.5819C155.838 75.1087 155.83 74.3605 156.31 73.9108C157.486 72.8092 159.786 72.0837 162.175 72.4661C164.679 72.8669 167.23 74.4639 168.89 77.9043C169.18 78.5053 168.911 79.1991 168.29 79.454C167.668 79.7089 166.93 79.4283 166.64 78.8273C165.309 76.0691 163.446 75.0529 161.848 74.7971Z" fill="#313B36"/>
<path d="M157.575 90.8871C159.684 91.5795 162.242 89.5677 163.288 86.3936C164.334 83.2195 163.472 80.0852 161.363 79.3928C159.253 78.7004 156.695 80.7123 155.649 83.8863C154.603 87.0604 155.465 90.1948 157.575 90.8871Z" fill="#313B36"/>
<path d="M143.923 92.8822L140.561 93.5539L142.218 88.9612" fill="#313B36"/>
<path d="M132.652 104.444C134.881 106.333 140.599 108.428 144.367 107.116" stroke="#C28145" stroke-width="2" stroke-linecap="round"/>
<path d="M167.18 190.983C170.126 211.724 168.947 243.41 168.947 243.41" stroke="#313B36" stroke-width="1.2" stroke-linecap="round"/>
<path d="M164.358 163.632L164.354 163.632C163.184 163.627 162.052 164.038 161.161 164.79C160.27 165.541 159.679 166.583 159.492 167.728C159.492 167.729 159.492 167.73 159.492 167.731L144.131 265.689H304.152L319.199 169.277L319.199 169.276C319.308 168.579 319.264 167.866 319.07 167.187C318.876 166.508 318.536 165.879 318.074 165.342C317.612 164.806 317.039 164.375 316.393 164.08C315.748 163.784 315.045 163.631 314.334 163.632H314.334L164.358 163.632Z" fill="#EFEDE7" stroke="#313B36" stroke-width="2"/>
<path d="M245.702 207.424L246.334 219.152C246.409 219.665 246.436 220.182 246.416 220.699C246.205 226.211 240.597 230.469 233.885 230.213C227.174 229.956 221.907 225.281 222.118 219.77C222.131 219.44 222.163 219.112 222.214 218.786L222.154 218.84L223.889 206.967C223.911 206.814 223.974 206.669 224.072 206.545C224.169 206.421 224.298 206.323 224.445 206.261C224.593 206.198 224.756 206.172 224.917 206.186C225.078 206.2 225.233 206.253 225.368 206.34L231.666 210.441C232.65 210.276 233.651 210.213 234.649 210.252C235.585 210.289 236.514 210.414 237.424 210.625L243.739 206.489C243.922 206.366 244.137 206.292 244.36 206.276C244.584 206.26 244.808 206.302 245.009 206.398C245.21 206.494 245.381 206.64 245.503 206.82C245.625 207.001 245.694 207.209 245.702 207.424Z" fill="#585D57"/>
<path d="M232.191 213.92C233.122 214.456 234.669 215.488 235.398 216.03L234.274 217.516C233.488 216.944 232.027 215.957 231.096 215.407L232.191 213.92ZM229.15 223.671C230.773 223.469 232.504 223.063 234.106 222.29C236.604 221.065 238.692 219.241 239.906 217.301L240.942 219.23C239.544 221.108 237.432 222.779 235.035 224.007C233.536 224.742 231.436 225.356 230.16 225.53L229.15 223.671ZM229.853 216.999C230.798 217.536 232.346 218.54 233.075 219.082L231.95 220.595C231.165 220.01 229.703 219.023 228.757 218.486L229.853 216.999Z" fill="#EFEDE7"/>
<path d="M400.005 266H1.99494" stroke="#313B36" stroke-width="2" stroke-linecap="round"/>
<g clip-path="url(#clip0_1159_19808)">
<path d="M374.085 255.576C373.841 257.659 373.596 259.742 373.351 261.824C373.308 262.197 373.262 262.565 373.216 262.933C373.134 263.593 373.052 264.254 372.985 264.945C372.88 266.021 372.685 266.655 371.514 266.702L371.484 265.953C370.518 265.991 369.564 265.973 368.586 265.955C368.085 265.946 367.579 265.937 367.062 265.935L351.158 265.875C350.979 265.874 350.775 265.886 350.589 265.896C350.549 265.898 350.51 265.901 350.472 265.903C350.241 265.915 350.028 265.923 349.83 265.914C349.388 265.894 349.258 265.798 349.224 265.754L349.219 265.747L349.219 265.747C348.833 265.256 348.651 264.534 348.566 263.627C348.526 263.201 348.509 262.765 348.491 262.321L348.489 262.266C348.472 261.813 348.452 261.343 348.402 260.913C348.168 258.924 347.934 256.933 347.699 254.939L374.085 255.576ZM374.085 255.576C374.579 251.367 375.073 247.157 375.566 242.945L374.085 255.576ZM377.713 218.207L374.821 242.858L374.821 242.858C374.328 247.07 373.834 251.28 373.34 255.488L373.34 255.488C373.096 257.572 372.851 259.655 372.606 261.737L372.606 261.738C372.564 262.098 372.519 262.46 372.474 262.826C372.391 263.493 372.307 264.173 372.238 264.872C372.184 265.426 372.116 265.663 372.034 265.781L372.033 265.782C372.005 265.822 371.927 265.935 371.485 265.953L377.713 218.207ZM377.713 218.207C371.531 217.947 365.349 217.69 359.169 217.436L359.168 217.436L348.948 217.009L348.948 217.009L343.849 216.799C343.662 216.795 343.457 216.802 343.22 216.809C343.609 220.106 343.996 223.403 344.382 226.699C344.382 226.699 344.382 226.699 344.382 226.699L347.699 254.939L377.713 218.207Z" fill="#907D73" stroke="#313B36" stroke-width="1.5"/>
<path d="M376.729 210.829C376.729 210.829 376.729 210.829 376.729 210.829L376.729 210.829ZM376.729 210.829C376.729 210.829 376.729 210.829 376.729 210.829M376.729 210.829L376.729 210.829M376.729 210.829L377.049 210.151C376.051 209.682 374.923 209.571 373.856 209.466C373.766 209.457 373.675 209.448 373.585 209.439L376.729 210.829ZM377.664 214.641L376.927 214.638L376.917 213.901L377.667 213.891L376.917 213.9L376.917 213.9L376.917 213.9L376.917 213.899L376.917 213.895L376.917 213.88L376.916 213.82L376.913 213.602C376.911 213.418 376.907 213.166 376.902 212.892C376.892 212.344 376.878 211.725 376.862 211.398C376.848 211.179 376.818 211.019 376.777 210.914C376.757 210.865 376.741 210.842 376.734 210.833C376.732 210.831 376.73 210.83 376.73 210.829C375.854 210.418 374.853 210.319 373.757 210.21C373.675 210.202 373.593 210.193 373.51 210.185L373.51 210.185C372.496 210.082 371.476 210.022 370.443 209.967L370.266 209.967L370.248 209.967L370.23 209.966C370.148 209.961 370.12 209.977 370.114 209.98L370.114 209.98C370.106 209.984 370.079 210.001 370.039 210.062C369.942 210.21 369.864 210.461 369.781 210.845C369.768 210.91 369.753 210.981 369.738 211.057C369.678 211.354 369.605 211.717 369.499 212C369.429 212.188 369.316 212.423 369.12 212.616C368.9 212.831 368.606 212.962 368.265 212.954L368.264 212.954L368.252 212.954L368.205 212.953L368.022 212.951L367.326 212.941L364.837 212.906C362.775 212.877 360.019 212.838 357.244 212.798C351.709 212.718 346.063 212.635 345.749 212.621C344.869 212.581 343.952 212.547 343.179 212.588C342.793 212.608 342.466 212.645 342.211 212.702C341.961 212.758 341.846 212.819 341.809 212.846C341.488 213.147 341.239 213.618 341.151 214.184C341.053 214.848 341.021 215.525 341.055 216.199L341.056 216.225L341.055 216.251C341.046 216.772 341.094 217.291 341.199 217.793C341.307 218.213 341.478 218.382 341.632 218.473C341.82 218.584 342.092 218.642 342.49 218.652L342.497 218.652C342.719 218.66 342.949 218.652 343.205 218.644L343.215 218.643C343.463 218.635 343.742 218.626 344.009 218.639C344.009 218.639 344.009 218.639 344.009 218.639L349.114 218.897L349.115 218.897L359.335 219.418C365.785 219.743 372.235 220.071 378.687 220.403C378.687 220.403 378.687 220.403 378.687 220.403L379.749 220.457L380.092 220.458C380.115 220.453 380.144 220.441 380.178 220.416C380.22 220.385 380.269 220.334 380.312 220.258C380.418 219.988 380.489 219.693 380.518 219.386L380.521 219.356L380.526 219.327C380.663 218.546 380.718 217.745 380.689 216.946C380.658 216.236 380.433 215.582 380.076 215.089C379.815 214.819 379.517 214.69 379.238 214.675L379.215 214.673L379.192 214.671C378.96 214.644 378.727 214.635 378.494 214.644L378.479 214.644L378.463 214.644L377.664 214.641Z" fill="#EFEDE7" stroke="#313B36" stroke-width="1.5"/>
</g>
<defs>
<clipPath id="clip0_1159_19808">
<rect width="41.1629" height="58.8322" fill="white" transform="matrix(-0.999993 -0.00377425 -0.00377065 0.999993 381.384 207.963)"/>
</clipPath>
</defs>
</svg>
