<svg width="267" height="178" viewBox="0 0 267 178" fill="none" xmlns="http://www.w3.org/2000/svg">
<path d="M124.055 47.7232L58.2284 40.2097L58.2285 101.17L91.7432 100.379C91.7432 100.379 109.203 153.802 121.601 144.98C133.995 136.162 124.58 94.079 122.593 81.1498C121.654 75.0346 123.06 67.9307 124.055 61.8485C125.354 53.9173 124.055 47.7232 124.055 47.7232Z" fill="#907D73"/>
<path d="M27.7889 176.398H119.124C121.434 148.626 126.13 134.434 123.617 125.464C123.617 125.464 125.378 112.608 117.148 104.215C109.708 96.627 99.3807 91.5472 96.2203 90.4213C93.0599 89.2954 90.427 95.4635 90.427 95.4635C86.9443 88.2128 70.5553 84.5813 70.5553 84.5813C70.5553 84.5813 66.3054 90.1993 62.848 90.4213C54.7442 90.9064 48.6666 102.32 43.4257 109.599C42.0765 115.264 34.1556 119.881 32.4522 136.595C31.4993 146.041 30.5211 156.104 29.5344 165.509C28.9441 171.1 28.3623 171.523 27.7889 176.398Z" fill="#D8C5A8"/>
<path d="M91.586 114.431L91.5071 116.205C91.4963 116.282 91.4929 116.361 91.4969 116.439C91.5387 117.271 92.4173 117.905 93.4598 117.854C94.5023 117.803 95.313 117.086 95.2712 116.253C95.2686 116.204 95.2631 116.154 95.2547 116.105L95.2641 116.113L94.975 114.321C94.9713 114.298 94.9613 114.276 94.9459 114.258C94.9306 114.239 94.9105 114.225 94.8874 114.216C94.8643 114.206 94.839 114.203 94.814 114.205C94.7889 114.208 94.7649 114.216 94.7442 114.229L93.7722 114.861C93.6189 114.838 93.4634 114.83 93.3082 114.838C93.163 114.845 93.0187 114.866 92.8776 114.899L91.8896 114.286C91.8609 114.267 91.8274 114.257 91.7927 114.255C91.7579 114.253 91.7231 114.259 91.6921 114.274C91.661 114.289 91.6347 114.311 91.616 114.339C91.5974 114.366 91.587 114.398 91.586 114.431Z" fill="#313B36"/>
<path d="M92.5192 130.575L92.3712 132.344C92.3574 132.421 92.351 132.5 92.3519 132.578C92.3613 133.411 93.2146 134.077 94.2585 134.065C95.3024 134.053 96.1405 133.368 96.1311 132.534C96.1305 132.484 96.1269 132.434 96.1204 132.385L96.1295 132.393L95.9104 130.593C95.9075 130.569 95.8984 130.547 95.8838 130.528C95.8692 130.509 95.8496 130.494 95.8269 130.484C95.8042 130.473 95.7791 130.469 95.754 130.47C95.7288 130.472 95.7045 130.479 95.6833 130.492L94.6873 131.086C94.535 131.058 94.3799 131.044 94.2245 131.046C94.079 131.048 93.9341 131.063 93.7918 131.091L92.8282 130.441C92.8003 130.422 92.7672 130.41 92.7326 130.407C92.6979 130.403 92.6629 130.409 92.6313 130.423C92.5996 130.436 92.5725 130.458 92.5528 130.484C92.533 130.511 92.5214 130.542 92.5192 130.575Z" fill="#313B36"/>
<path d="M93.1251 148.878L92.9772 150.648C92.9634 150.725 92.9569 150.803 92.9579 150.881C92.9673 151.715 93.8206 152.381 94.8645 152.369C95.9084 152.357 96.7465 151.671 96.7371 150.838C96.7364 150.788 96.7329 150.738 96.7264 150.689L96.7355 150.697L96.5163 148.896C96.5135 148.873 96.5044 148.851 96.4898 148.832C96.4752 148.813 96.4556 148.797 96.4329 148.787C96.4102 148.777 96.3851 148.773 96.3599 148.774C96.3348 148.776 96.3105 148.783 96.2892 148.796L95.2932 149.39C95.141 149.361 94.9859 149.348 94.8305 149.35C94.685 149.352 94.5401 149.367 94.3977 149.395L93.4342 148.745C93.4063 148.726 93.3732 148.714 93.3385 148.71C93.3039 148.707 93.2689 148.713 93.2372 148.726C93.2056 148.74 93.1785 148.761 93.1587 148.788C93.139 148.815 93.1274 148.846 93.1251 148.878Z" fill="#313B36"/>
<path d="M109.536 174.793C108.291 173.234 106.681 171.895 104.831 170.879M90.196 176.997C90.196 176.997 85.1052 173.389 83.8738 172.417L89.0335 165.022C91.3099 165.679 95.6511 165.729 98.62 166.108C102.426 166.645 106.959 166.492 109.126 168.548C112.815 172.073 116.902 176.044 115.456 177L90.196 176.997Z" stroke="#313B36" stroke-linecap="round"/>
<path d="M56.6085 116.841C48.9564 135.656 48.7683 154.421 50.0794 154.82C58.3699 157.339 65.3752 158.088 70.1825 159.019C72.8046 159.526 83.9436 162.59 88.9856 164.69C94.5156 166.993 88.9856 177 88.9856 177C88.9856 177 69.2188 176.465 50.0794 176.667C32.1218 176.857 19.7807 170.679 17.7882 164.024C15.7957 157.37 19.2201 148.039 23.4337 134.746C29.4011 115.921 36.3852 106.294 44.0232 99.1465C51.6613 91.999 64.2806 89.3356 65.5334 89.8779C74.8876 93.9493 60.8934 106.305 56.6085 116.841Z" fill="#D8C5A8"/>
<path d="M90.5158 165.355C89.3957 163.825 81.2172 162.694 81.2172 162.694L80.0192 169.68L77.0304 177L89.6498 176.667C89.6498 176.667 94.1688 170.346 90.5158 165.355Z" fill="#907D73"/>
<path fill-rule="evenodd" clip-rule="evenodd" d="M52.5951 135.281C52.275 135.2 51.9502 135.395 51.8696 135.716C50.3485 141.772 49.1719 146.201 48.3759 149.115C47.9779 150.572 47.675 151.65 47.4718 152.363C47.3703 152.72 47.2936 152.985 47.2424 153.161C47.2168 153.249 47.1975 153.315 47.1847 153.359L47.1669 153.419L47.166 153.422L47.1658 153.423L46.9845 154.033L47.6039 154.177L47.7387 153.594C47.6039 154.177 47.6037 154.177 47.6039 154.177L47.8946 154.245C48.086 154.29 48.3691 154.357 48.7352 154.443C49.4676 154.617 50.5323 154.871 51.8613 155.194C54.5194 155.841 58.2339 156.762 62.4592 157.861C70.9139 160.061 81.398 162.969 89.5553 165.813C89.8671 165.921 90.2078 165.756 90.3163 165.444C90.4247 165.131 90.2599 164.79 89.9481 164.681C81.7434 161.821 71.221 158.903 62.7597 156.702C58.527 155.601 54.8061 154.678 52.1433 154.031C50.8119 153.707 49.7448 153.452 49.0105 153.278C48.8119 153.231 48.6376 153.19 48.489 153.155C48.5271 153.022 48.5713 152.868 48.6215 152.692C48.8259 151.974 49.1299 150.892 49.529 149.431C50.3273 146.509 51.506 142.072 53.029 136.008C53.1095 135.687 52.9153 135.362 52.5951 135.281Z" fill="#313B36"/>
<path d="M28.5597 121.771C25.903 128.092 24.4696 132.846 21.5859 141.068C14.9441 161.696 19.5932 167.684 19.5932 167.684" stroke="#313B36" stroke-width="2" stroke-linecap="round"/>
<path fill-rule="evenodd" clip-rule="evenodd" d="M80.6261 163.506L80.6258 163.511L80.6245 163.526L80.6191 163.587C80.6141 163.641 80.6065 163.723 80.5957 163.827C80.5742 164.037 80.5403 164.342 80.491 164.721C80.3924 165.478 80.2326 166.526 79.9879 167.689C79.4943 170.033 78.6696 172.774 77.3544 174.565C77.1947 174.782 77.2548 175.085 77.4885 175.241C77.7222 175.396 78.041 175.347 78.2007 175.129C79.6407 173.168 80.4958 170.262 80.9932 167.898C81.244 166.707 81.4074 165.635 81.5083 164.86C81.5587 164.473 81.5935 164.16 81.6158 163.943C81.627 163.834 81.635 163.749 81.6402 163.691C81.6429 163.663 81.6448 163.64 81.6461 163.625L81.6476 163.608L81.648 163.602C81.648 163.602 81.6481 163.601 81.1371 163.554L81.648 163.602C81.6694 163.336 81.4579 163.098 81.1757 163.072C80.8935 163.045 80.6475 163.24 80.6261 163.506Z" fill="#313B36"/>
<path d="M92.9403 109.689L96.1838 100.989L89.6038 96.584L87.2445 102.549L92.9403 109.689Z" fill="#EFEDE7" stroke="#313B36" stroke-width="1.8" stroke-linecap="round"/>
<path d="M97.3674 107.468C98.9012 126.839 99.5147 140.983 99.5147 140.983" stroke="#313B36" stroke-width="1.5" stroke-linecap="round"/>
<path d="M106.286 162.112L107.796 174.096" stroke="#313B36" stroke-width="1.5" stroke-linecap="round"/>
<path d="M86.6309 108.083C88.6211 121.322 89.6984 149.592 89.6984 162.199" stroke="#313B36" stroke-width="1.5" stroke-linecap="round"/>
<path d="M88.6102 96.759L91.8458 86.1921L96.601 90.0991L100.406 94.895L101.548 99.3685L100.026 101.605L96.601 101.978L91.2738 98.623L89.9918 97.8774L89.7517 100.86L87.8492 104.215L83.283 105.706L77.1948 104.588L68.8236 99.3685L64.2574 93.4038L63.1564 90.141L70.2471 85.5081L74.5312 89.303L82.9025 94.5222L88.6102 96.759Z" fill="#EFEDE7"/>
<path d="M90.3119 96.7068C90.8764 100.91 87.3146 110.093 73.9922 103.054C62.7266 97.1024 62.631 86.9723 62.3358 84.4489" stroke="#313B36" stroke-width="2"/>
<path d="M91.7333 86.0803C91.7333 86.0803 105.553 95.2839 100.44 101.008C97.3925 104.42 91.9995 99.5004 90.6188 97.0143" stroke="#313B36" stroke-width="2"/>
<path d="M98.3041 69.473L93.5597 87.1886L93.4194 87.7124L98.3041 69.473ZM98.3041 69.473L73.3667 65.9664L73.3667 65.9867L73.3665 68.8586L73.3661 75.797C73.366 78.4965 72.6747 81.0035 71.9987 82.8161C71.6591 83.7268 71.3191 84.4733 71.0624 84.995C71.046 85.0285 71.0298 85.0611 71.014 85.0928C71.0895 85.1569 71.1716 85.2264 71.2602 85.301C71.8024 85.7573 72.5854 86.402 73.5447 87.1519C75.4663 88.654 78.0817 90.5677 80.8772 92.2348C83.6885 93.9114 86.609 95.2939 89.1527 95.7987C91.694 96.3029 93.6048 95.8969 94.8098 94.3672C95.8238 93.08 95.6697 91.6283 95.1352 90.3275C94.8705 89.6835 94.5279 89.1233 94.247 88.7206C94.1077 88.5208 93.9863 88.3639 93.9019 88.2591C93.8597 88.2069 93.8269 88.1679 93.806 88.1434L93.7838 88.1177L93.7812 88.1148L93.7808 88.1143L93.7804 88.1138L93.7799 88.1133L98.3041 69.473Z" fill="#EFEDE7" stroke="#313B36" stroke-width="2"/>
<path d="M117.019 34.5884C117.019 34.5884 122.263 43.789 120.183 47.8038C118.236 53.6449 114.785 59.9575 113.576 64.0952C110.436 74.8434 105.999 80.7129 90.3117 83.4344C87.2857 83.9593 78.7282 80.3627 71.891 72.3981C68.4899 67.8151 65.9296 60.2284 65.9296 60.2284C65.9296 60.2284 58.4367 59.8617 58.2939 50.9186C58.1379 45.8735 58.4049 39.9743 67.2674 41.9339C67.2674 41.9339 83.3902 14.2927 99.1904 19.7491C108.378 22.9219 117.019 34.5884 117.019 34.5884Z" fill="#EFEDE7" stroke="#313B36" stroke-width="1.8" stroke-miterlimit="10"/>
<path d="M64.2922 48.625C63.6482 49.69 63.3022 50.9213 63.2898 52.1924C63.2774 53.4634 63.5992 54.7284 64.2219 55.857" stroke="#313B36" stroke-width="1.8" stroke-miterlimit="10" stroke-linecap="round"/>
<path d="M124.365 60.9436C124.365 60.9436 132.037 34.9025 115.779 14.6115C109.794 7.14169 99.827 2.92937 87.3896 5.99771C71.0806 2.81587 63.9332 13.3691 58.1035 25.9913C54.5267 33.7359 52.0269 43.1539 50.4326 51.0317C49.4284 55.9933 47.7439 65.1799 45.5226 70.5732C39.3424 85.5789 34.7651 94.5101 29.8559 104.349C24.9468 114.188 30.5464 117.113 30.5464 117.113C30.5464 117.113 32.5393 113.453 34.8642 109.793C38.0024 104.853 43.355 99.1464 50.3295 95.1538C57.0248 91.3209 67.7254 90.5029 69.6288 83.3454C71.5323 76.1878 68.6372 70.0291 68.6372 70.0291C68.6372 70.0291 66.8305 67.9386 65.476 66.2662C64.1215 64.5938 65.3904 62.125 64.5436 60.9479C63.2685 60.1626 61.2094 59.3953 59.9422 57.0414C58.1507 53.7137 58.5978 51.0683 58.9668 49.2419C59.4609 46.7956 60.3878 45.5369 61.6239 44.9168C63.9674 43.7412 65.88 43.6862 66.9376 43.9185C67.9953 44.1507 68.9302 46.5799 68.9302 46.5799C68.9302 46.5799 74.0219 48.6256 81.2185 40.5907C87.3871 33.7036 90.3152 26.9116 90.3152 26.9116C95.8371 28.4485 103.2 31.5224 106.574 36.4415C110.563 43.3194 111.298 52.9222 114.856 58.2702C121.604 68.4156 124.365 60.9436 124.365 60.9436Z" fill="#907D73"/>
<path d="M124.669 59.1954C126.202 52.4308 126.816 41.3617 124.055 30.2926C121.985 21.9907 119.382 16.7636 110.251 9.69168C101.915 3.23484 91.5393 5.07998 91.5393 5.07998" stroke="#313B36" stroke-width="2" stroke-linecap="round"/>
<path d="M122.829 66.8822C121.253 77.0692 123.515 90.8814 124.669 95.4773C129.374 114.224 130.566 129.486 124.669 131.759" stroke="#313B36" stroke-width="2" stroke-linecap="round"/>
<path d="M69.1065 46.5871C68.5454 43.7373 62.7249 43.365 60.5831 46.5763C58.1007 50.2984 57.3068 60.2201 65.9411 60.2199" stroke="#313B36" stroke-width="1.8" stroke-linecap="round"/>
<path d="M89.3918 28.1401C88.1289 31.1184 79.2246 48.2428 69.262 46.9121" stroke="#313B36" stroke-width="2" stroke-linecap="round"/>
<path d="M79.5757 28.1402C79.5757 34.5973 70.5943 43.9026 66.9987 43.8219" stroke="#313B36" stroke-width="2" stroke-linecap="round"/>
<path d="M48.8171 101.475C54.6619 98.0153 60.551 86.9472 62.4328 82.5113L49.4814 89.4982L35.5336 106.466C37.6368 106.022 42.9724 104.936 48.8171 101.475Z" fill="#907D73"/>
<path d="M105.036 25.6808C116.693 32.7524 114.853 41.9766 118.84 49.0484" stroke="#313B36" stroke-width="2" stroke-linecap="round"/>
<path d="M92.1525 27.5254C97.3383 28.8728 105.617 33.0283 108.614 41.0027C112.165 50.4495 113.932 63.4999 124.055 65.9595" stroke="#313B36" stroke-width="2" stroke-linecap="round"/>
<path d="M109.024 83.4856C109.024 93.3248 110.251 92.4022 110.251 96.092" stroke="#313B36" stroke-width="2" stroke-linecap="round"/>
<path d="M70.8635 84.8901C70.8635 84.8901 68.0442 87.7139 63.1563 90.1411" stroke="#313B36" stroke-width="2" stroke-linecap="round"/>
<path d="M30.2194 116.78C22.9135 111.79 37.4581 93.4996 43.9916 74.8766C50.916 55.1393 52.4411 40.7559 58.4095 25.3734C60.5569 19.8389 64.6178 13.3714 68.7166 9.95204C73.1437 6.25863 78.9627 3.50275 87.8607 5.89977" stroke="#313B36" stroke-width="2" stroke-linecap="round"/>
<path d="M62.9663 82.1877C61.2357 85.6234 55.791 102.474 36.5298 106.466" stroke="#313B36" stroke-width="2" stroke-linecap="round"/>
<path d="M82.9689 56.0774C84.4021 56.4223 85.9661 54.9449 86.4624 52.7777C86.9586 50.6105 86.199 48.5741 84.7659 48.2293C83.3327 47.8845 81.7686 49.3618 81.2724 51.529C80.7762 53.6962 81.5358 55.7326 82.9689 56.0774Z" fill="#313B36"/>
<path fill-rule="evenodd" clip-rule="evenodd" d="M83.5898 45.418C82.3993 45.5073 81.5427 46.1235 81.2871 46.5614C81.0691 46.9352 80.5463 47.0468 80.1194 46.8108C79.6926 46.5747 79.5234 46.0803 79.7414 45.7065C80.2757 44.7909 81.6341 43.9467 83.2942 43.8222C85.0344 43.6918 87.0682 44.3463 88.9176 46.3628C89.2407 46.7151 89.2156 47.2172 88.8615 47.4843C88.5075 47.7514 87.9585 47.6823 87.6355 47.3301C86.1527 45.7133 84.7003 45.3348 83.5898 45.418Z" fill="#313B36"/>
<path fill-rule="evenodd" clip-rule="evenodd" d="M107.496 49.7707C106.358 49.588 105.369 49.9702 104.995 50.3207C104.677 50.6199 104.155 50.6071 103.829 50.2921C103.504 49.9772 103.499 49.4793 103.818 49.1802C104.598 48.4473 106.126 47.9649 107.712 48.2197C109.375 48.4867 111.07 49.5497 112.173 51.8391C112.365 52.239 112.187 52.7006 111.774 52.8701C111.362 53.0397 110.871 52.8529 110.678 52.4529C109.795 50.6175 108.557 49.9411 107.496 49.7707Z" fill="#313B36"/>
<path d="M104.658 60.4768C106.06 60.9378 107.759 59.5995 108.453 57.4877C109.147 55.3759 108.574 53.2903 107.173 52.8293C105.772 52.3683 104.073 53.7066 103.378 55.8184C102.684 57.9302 103.257 60.0159 104.658 60.4768Z" fill="#313B36"/>
<path d="M95.5907 61.805L93.3573 62.2515L94.4574 59.1961" fill="#313B36"/>
<path d="M88.1047 69.4979C89.5849 70.7548 93.3832 72.149 95.8853 71.277" stroke="#C28145" stroke-width="2" stroke-linecap="round"/>
<path d="M111.037 127.083C112.994 140.884 112.211 161.968 112.211 161.968" stroke="#313B36" stroke-width="1.2" stroke-linecap="round"/>
<path d="M109.163 109.218L109.159 109.218C108.462 109.214 107.788 109.46 107.257 109.908C106.727 110.357 106.375 110.978 106.263 111.661C106.263 111.662 106.263 111.663 106.263 111.664L96.1209 176.459H201.723L211.673 112.588L211.674 112.588C211.738 112.171 211.712 111.746 211.597 111.34C211.481 110.935 211.279 110.559 211.003 110.239C210.728 109.918 210.386 109.661 210.002 109.485C209.617 109.308 209.198 109.217 208.775 109.218H208.774L109.163 109.218Z" fill="#EFEDE7" stroke="#313B36" stroke-width="2"/>
<path d="M148.674 137.465L147.659 145.214C147.584 145.551 147.539 145.893 147.526 146.237C147.386 149.904 150.883 153.015 155.341 153.187C159.799 153.358 163.524 150.525 163.664 146.858C163.672 146.638 163.668 146.419 163.651 146.2L163.688 146.239L163.143 138.274C163.135 138.171 163.101 138.071 163.043 137.984C162.985 137.897 162.905 137.825 162.81 137.776C162.715 137.727 162.609 137.702 162.502 137.703C162.394 137.704 162.289 137.731 162.195 137.782L157.816 140.182C157.172 140.022 156.513 139.929 155.85 139.905C155.228 139.882 154.607 139.917 153.993 140.011L150.022 136.945C149.907 136.854 149.768 136.795 149.621 136.772C149.474 136.75 149.323 136.767 149.185 136.82C149.047 136.873 148.927 136.962 148.837 137.075C148.747 137.189 148.69 137.324 148.674 137.465Z" fill="#585D57"/>
<path d="M157.291 142.464C156.647 142.772 155.571 143.378 155.06 143.7L155.729 144.743C156.278 144.404 157.297 143.823 157.941 143.506L157.291 142.464ZM158.809 149.088C157.745 148.871 156.619 148.513 155.598 147.919C154.006 146.979 152.715 145.663 152.01 144.313L151.226 145.541C152.056 146.858 153.37 148.074 154.895 149.011C155.85 149.575 157.21 150.089 158.046 150.27L158.809 149.088ZM158.683 144.626C158.03 144.933 156.954 145.521 156.443 145.843L157.112 146.905C157.661 146.556 158.679 145.976 159.333 145.668L158.683 144.626Z" fill="#EFEDE7"/>
<path d="M265.675 177H1.32514" stroke="#313B36" stroke-width="2" stroke-linecap="round"/>
<g clip-path="url(#clip0_1176_11150)">
<path d="M232.127 176.658C232.15 176.666 232.215 176.685 232.361 176.692C232.479 176.697 232.611 176.693 232.763 176.684C232.786 176.683 232.811 176.682 232.837 176.68C232.961 176.673 233.106 176.665 233.233 176.666L243.796 176.706C244.147 176.707 244.488 176.713 244.822 176.719C245.466 176.731 246.088 176.743 246.723 176.718M232.127 176.658L231.185 169.611L228.982 150.82C228.981 150.82 228.981 150.82 228.981 150.819C228.736 148.717 228.489 146.614 228.242 144.512C228.287 144.511 228.329 144.511 228.37 144.512L231.753 144.652L231.754 144.652L238.542 144.935L238.542 144.935C242.557 145.101 246.572 145.268 250.588 145.437L248.698 161.572L248.698 161.572C248.371 164.375 248.043 167.176 247.714 169.976L247.714 169.976C247.552 171.363 247.39 172.749 247.227 174.134L247.227 174.135C247.2 174.37 247.17 174.609 247.14 174.852C247.085 175.298 247.028 175.757 246.982 176.225C246.966 176.394 246.949 176.513 246.927 176.602C246.916 176.649 246.905 176.678 246.898 176.694C246.873 176.702 246.819 176.714 246.723 176.718M232.127 176.658C231.927 176.389 231.816 175.976 231.761 175.398C231.735 175.121 231.724 174.837 231.712 174.539L231.711 174.505C231.699 174.206 231.686 173.883 231.652 173.586C231.652 173.586 231.652 173.586 231.652 173.586L230.907 173.673L232.127 176.658ZM246.723 176.718C246.722 176.718 246.722 176.718 246.722 176.718L246.752 177.467L246.723 176.718Z" fill="#907D73" stroke="#313B36" stroke-width="1.5"/>
<path d="M250.098 143.073L250.836 143.076L251.367 143.078L251.382 143.078L251.398 143.077C251.539 143.072 251.681 143.078 251.822 143.094L251.846 143.097L251.869 143.098C251.98 143.104 252.114 143.154 252.245 143.285C252.445 143.567 252.576 143.948 252.594 144.369C252.613 144.883 252.577 145.398 252.489 145.9L252.484 145.929L252.482 145.958C252.465 146.13 252.427 146.294 252.371 146.444L252.228 146.444L251.529 146.408C251.529 146.408 251.529 146.408 251.529 146.408C247.244 146.188 242.96 145.969 238.676 145.753L250.098 143.073ZM250.098 143.073L250.089 142.335L250.839 142.326L250.089 142.335L250.089 142.335L250.089 142.335L250.089 142.334L250.089 142.332L250.089 142.322L250.088 142.282L250.086 142.137C250.085 142.015 250.082 141.847 250.079 141.666C250.072 141.301 250.063 140.895 250.053 140.68C250.049 140.618 250.043 140.566 250.035 140.523C250.032 140.505 250.029 140.49 250.026 140.478C249.505 140.255 248.908 140.195 248.204 140.125C248.154 140.12 248.104 140.115 248.053 140.11L248.052 140.109C247.387 140.042 246.717 140.002 246.033 139.966L245.957 139.966C245.926 140.035 245.89 140.154 245.848 140.351C245.84 140.388 245.831 140.43 245.822 140.477C245.783 140.674 245.728 140.946 245.65 141.155C245.598 141.295 245.507 141.491 245.339 141.656C245.147 141.844 244.887 141.96 244.59 141.953L244.582 141.953L244.551 141.953L244.429 141.951L243.967 141.945L242.314 141.921C240.944 141.902 239.114 141.876 237.271 141.849C233.599 141.796 229.842 141.741 229.628 141.731C229.042 141.705 228.445 141.683 227.946 141.709C227.697 141.722 227.495 141.746 227.345 141.78C227.242 141.803 227.192 141.825 227.176 141.832C227.018 141.99 226.884 142.242 226.835 142.558C226.772 142.983 226.752 143.417 226.773 143.849L226.775 143.875L226.774 143.901C226.768 144.227 226.798 144.552 226.863 144.865C226.921 145.086 226.998 145.138 227.034 145.159C227.103 145.2 227.232 145.237 227.481 145.243L227.481 145.243L227.488 145.243C227.627 145.248 227.772 145.243 227.946 145.237L227.948 145.237L227.951 145.237C228.113 145.232 228.308 145.225 228.496 145.235C228.497 145.235 228.497 145.235 228.497 145.235L231.888 145.406L231.888 145.406L238.676 145.753L250.098 143.073Z" fill="#EFEDE7" stroke="#313B36" stroke-width="1.5"/>
</g>
<defs>
<clipPath id="clip0_1176_11150">
<rect width="27.3395" height="39.1477" fill="white" transform="matrix(-0.999993 -0.00378126 -0.00376365 0.999993 253.308 138.381)"/>
</clipPath>
</defs>
</svg>
