<?xml version="1.0" encoding="utf-8"?>
<!-- Generator: Adobe Illustrator 25.3.1, SVG Export Plug-In . SVG Version: 6.00 Build 0)  -->
<svg version="1.1" id="圖層_1" xmlns="http://www.w3.org/2000/svg" xmlns:xlink="http://www.w3.org/1999/xlink" x="0px" y="0px"
	 viewBox="0 0 402 263" style="enable-background:new 0 0 402 263;" xml:space="preserve">
<style type="text/css">
	.st0{clip-path:url(#SVGID_2_);}
	.st1{fill:#8F7D72;stroke:#313B36;stroke-width:1.5;}
	.st2{fill:#EEECE6;stroke:#313B36;stroke-width:1.5;}
	.st3{fill:#907D73;}
	.st4{fill:#D8C5A8;}
	.st5{fill:#313B36;}
	.st6{fill:#EFEDE7;stroke:#313B36;stroke-width:2;}
	.st7{fill-rule:evenodd;clip-rule:evenodd;fill:#313B36;}
	.st8{fill:none;stroke:#313B36;stroke-width:2;stroke-linecap:round;}
	.st9{fill:#EFEDE7;stroke:#313B36;stroke-width:1.8;stroke-linecap:round;}
	.st10{fill:none;stroke:#313B36;stroke-width:1.5;stroke-linecap:round;}
	.st11{fill:#EFEDE7;}
	.st12{fill:none;stroke:#313B36;stroke-width:2;}
	.st13{fill:#EFEDE7;stroke:#313B36;stroke-width:1.8;stroke-miterlimit:10;}
	.st14{fill:none;stroke:#313B36;stroke-width:1.8;stroke-linecap:round;stroke-miterlimit:10;}
	.st15{fill:none;stroke:#313B36;stroke-width:1.8;stroke-linecap:round;}
	.st16{fill:none;stroke:#C28145;stroke-width:2;stroke-linecap:round;}
	.st17{fill:none;stroke:#313B36;stroke-width:1.2;stroke-linecap:round;}
	.st18{fill:#585D57;}
	.st19{fill:none;stroke:#313B36;stroke-width:1.5;stroke-miterlimit:10;}
</style>
<g>
	<g>
		<defs>
			
				<rect id="SVGID_1_" x="330.9" y="197.2" transform="matrix(0.9997 -2.426208e-02 2.426208e-02 0.9997 -5.4713 8.6491)" width="45.6" height="65.2"/>
		</defs>
		<clipPath id="SVGID_2_">
			<use xlink:href="#SVGID_1_"  style="overflow:visible;"/>
		</clipPath>
		<g class="st0">
			<path class="st1" d="M367.2,261.2L367.2,261.2c0.4-0.6,0.6-1.4,0.7-2.4c0-0.5,0-1,0.1-1.5v-0.1c0-0.5,0-1,0.1-1.5
				c0.2-2.2,0.4-4.4,0.6-6.6L367.2,261.2z M367.2,261.2L367.2,261.2c-0.1,0.1-0.2,0.2-0.7,0.2c-0.2,0-0.5,0-0.7,0h-0.1
				c-0.2,0-0.4,0-0.6,0l-17.6,0.4c-0.6,0-1.1,0-1.7,0.1c-1.1,0-2.1,0.1-3.2,0.1c-0.5,0-0.6-0.1-0.7-0.2s-0.2-0.4-0.3-1
				c-0.1-0.8-0.2-1.5-0.3-2.3c-0.1-0.4-0.1-0.8-0.2-1.2l0,0c-0.3-2.3-0.6-4.6-1-6.9l0,0c-0.6-4.7-1.3-9.3-1.9-14l0,0l-3.8-27.4
				c6.9-0.4,13.8-0.9,20.6-1.3l0,0l11.3-0.7l0,0l5.6-0.3c0.2,0,0.4,0,0.7,0l0,0l0,0c-0.4,3.7-0.7,7.4-1.1,11.1l0,0l-3,31.4
				L367.2,261.2z"/>
			<path class="st2" d="M372.6,206.6l-26.1,0.7l-0.8-2.4c0-0.6-0.5-1.1-1.1-1.1l-8.5-0.1c-0.6,0-1.1,0.5-1.1,1.1v1.3h-0.4
				c-1.7,0-3,1.3-3.1,3v2.2c0,1.7,1.3,3,3,3.1l37.9,0.6c1.7,0,3-1.3,3.1-3v-2.2C375.6,208,374.3,206.6,372.6,206.6z"/>
		</g>
	</g>
</g>
<path class="st3" d="M186.8,67.7L87.7,56.4V148l50.5-1.2c0,0,26.3,80.3,45,67s4.5-76.5,1.5-95.9c-1.4-9.2,0.7-19.9,2.2-29
	C188.7,77,186.8,67.7,186.8,67.7z"/>
<path class="st4" d="M41.8,261.1h137.5c3.5-41.7,10.5-63.1,6.8-76.5c0,0,2.7-19.3-9.7-31.9c-11.2-11.4-26.8-19-31.5-20.7
	c-4.8-1.7-8.7,7.6-8.7,7.6c-5.2-10.9-29.9-16.4-29.9-16.4s-6.4,8.4-11.6,8.8c-12.2,0.7-21.4,17.9-29.2,28.8
	c-2,8.5-14,15.5-16.5,40.6c-1.4,14.2-2.9,29.3-4.4,43.5C43.6,253.1,42.7,253.8,41.8,261.1z"/>
<path class="st5" d="M137.9,168l-0.1,2.7c0,0.1,0,0.2,0,0.4c0.1,1.3,1.4,2.2,3,2.1c1.6-0.1,2.8-1.2,2.7-2.4c0-0.1,0-0.1,0-0.2l0,0
	l-0.4-2.7v-0.1l-0.1-0.1h-0.1h-0.1l-1.5,0.9c-0.2,0-0.5,0-0.7,0s-0.4,0-0.6,0.1l-1.5-0.9h-0.1c-0.1,0-0.1,0-0.2,0l-0.1,0.1
	C137.9,167.9,137.9,167.9,137.9,168z"/>
<path class="st5" d="M139.3,192.2l-0.2,2.7c0,0.1,0,0.2,0,0.4c0,1.3,1.3,2.3,2.9,2.2c1.6,0,2.8-1,2.8-2.3c0-0.1,0-0.2,0-0.2l0,0
	l-0.3-2.7v-0.1l-0.1-0.1h-0.1h-0.1l-1.5,0.9c-0.2,0-0.5-0.1-0.7-0.1s-0.4,0-0.7,0.1l-1.5-1c0,0-0.1,0-0.1-0.1c-0.1,0-0.1,0-0.2,0
	l-0.1,0.1C139.3,192.1,139.3,192.2,139.3,192.2z"/>
<path class="st5" d="M140.2,219.7l-0.2,2.7c0,0.1,0,0.2,0,0.4c0,1.3,1.3,2.3,2.9,2.2c1.6,0,2.8-1,2.8-2.3c0-0.1,0-0.2,0-0.2l0,0
	l-0.3-2.7v-0.1l-0.1-0.1h-0.1h-0.1l-1.5,0.9c-0.2,0-0.5-0.1-0.7-0.1s-0.4,0-0.7,0.1l-1.4-1c0,0-0.1,0-0.1-0.1c-0.1,0-0.1,0-0.2,0
	l-0.1,0.1C140.2,219.6,140.2,219.7,140.2,219.7z"/>
<path class="st6" d="M135.8,262c0,0-7.7-5.4-9.5-6.9l7.8-11.1c3.4,1,10,1.1,14.4,1.6c5.7,0.8,12.6,0.6,15.8,3.7
	c5.6,5.3,11.7,11.3,9.5,12.7H135.8z"/>
<path class="st4" d="M85.2,171.6c-11.5,28.3-11.8,56.5-9.8,57.1c12.5,3.8,23,4.9,30.3,6.3c3.9,0.8,20.7,5.4,28.3,8.5
	c8.3,3.5,0,18.5,0,18.5s-29.8-0.8-58.6-0.5c-27,0.3-45.6-9-48.6-19s2.2-24,8.5-44c9-28.3,19.5-42.8,31-53.5s30.5-14.7,32.4-13.9
	C112.8,137.2,91.7,155.8,85.2,171.6z"/>
<path class="st3" d="M136.3,244.5c-1.7-2.3-14-4-14-4l-1.8,10.5l-4.5,11l19-0.5C135,261.5,141.8,252,136.3,244.5z"/>
<path class="st7" d="M79.2,199.3c-0.5-0.1-1,0.2-1.1,0.7c-2.3,9.1-4.1,15.8-5.3,20.1c-0.6,2.2-1.1,3.8-1.4,4.9
	c-0.2,0.5-0.3,0.9-0.3,1.2c0,0.1-0.1,0.2-0.1,0.3v0.1l0,0l0,0l-0.3,0.9l0.9,0.2l0.2-0.9c-0.2,0.9-0.2,0.9-0.2,0.9l0.4,0.1
	c0.3,0.1,0.7,0.2,1.3,0.3c1.1,0.3,2.7,0.6,4.7,1.1c4,1,9.6,2.4,16,4c12.7,3.3,28.5,7.7,40.8,11.9c0.5,0.2,1-0.1,1.1-0.6
	c0.2-0.5-0.1-1-0.6-1.1c-12.4-4.3-28.2-8.7-40.9-12c-6.4-1.7-12-3-16-4c-2-0.5-3.6-0.9-4.7-1.1c-0.3-0.1-0.6-0.1-0.8-0.2
	c0.1-0.2,0.1-0.4,0.2-0.7c0.3-1.1,0.8-2.7,1.4-4.9c1.2-4.4,3-11.1,5.3-20.2C80,199.9,79.7,199.4,79.2,199.3z"/>
<path class="st8" d="M43,179c-4,9.5-6.2,16.6-10.5,29c-7.6,18.1-6.9,30-4,36.5c4.5,10.1,31.5,17,31.5,17"/>
<path class="st7" d="M121.4,241.7L121.4,241.7L121.4,241.7v0.1c0,0.1,0,0.2,0,0.4c0,0.3-0.1,0.8-0.2,1.3c-0.1,1.1-0.4,2.7-0.8,4.5
	c-0.7,3.5-2,7.6-4,10.3c-0.2,0.3-0.2,0.8,0.2,1c0.4,0.2,0.8,0.2,1.1-0.2c2.2-2.9,3.5-7.3,4.2-10.9c0.4-1.8,0.6-3.4,0.8-4.6
	c0.1-0.6,0.1-1.1,0.2-1.4c0-0.2,0-0.3,0-0.4v-0.1l0,0l0,0c0,0,0,0-0.8-0.1l0.8,0.1c0-0.4-0.3-0.8-0.7-0.8
	C121.8,241,121.4,241.3,121.4,241.7z"/>
<path class="st9" d="M139.9,160.8l4.9-13.1l-9.9-6.6l-3.6,9L139.9,160.8z"/>
<path class="st10" d="M146.6,157.5c2.3,29.1,3.2,50.4,3.2,50.4"/>
<path class="st10" d="M160,239.6l2.3,18"/>
<path class="st10" d="M130.4,158.4c3,19.9,4.6,62.4,4.6,81.3"/>
<path class="st11" d="M133.4,141.4l4.9-15.9l7.2,5.9l5.7,7.2l1.7,6.7l-2.3,3.4l-5.2,0.6l-8-5l-1.9-1.1l-0.4,4.5l-2.9,5l-6.9,2.2
	l-9.2-1.7l-12.6-7.8l-6.9-9l-1.7-4.9l10.7-7l6.5,5.7l12.6,7.8L133.4,141.4z"/>
<path class="st12" d="M136,141.3c0.8,6.3-4.5,20.1-24.6,9.5c-17-8.9-17.1-24.2-17.5-28"/>
<path class="st12" d="M138.1,125.4c0,0,20.8,13.8,13.1,22.4c-4.6,5.1-12.7-2.3-14.8-6"/>
<path class="st6" d="M141.4,127.2l7.3-27.2L110,94.6v0.6v4.3v10.4c0,4-1,7.7-2,10.4c-0.5,1.4-1,2.5-1.4,3.2
	c-0.1,0.2-0.2,0.3-0.2,0.5c0.2,0.2,0.4,0.4,0.7,0.6c0.8,0.7,2,1.7,3.5,2.8c2.9,2.3,6.9,5.2,11.1,7.7s8.7,4.6,12.6,5.4
	c3.9,0.8,7,0.2,9-2.3c1.7-2.1,1.4-4.5,0.6-6.6c-0.4-1-1-1.9-1.4-2.5c-0.2-0.3-0.4-0.6-0.5-0.7c-0.1-0.1-0.1-0.1-0.2-0.2l0,0l0,0l0,0
	l0,0l0,0l0,0l-0.4-0.4L141.4,127.2z"/>
<path class="st13" d="M176.2,48c0,0,7.9,13.8,4.8,19.9c-2.9,8.8-8.1,18.3-9.9,24.5c-4.7,16.2-11.4,25-35,29.1
	c-4.6,0.8-17.4-4.6-27.7-16.6c-5.1-6.9-9-18.3-9-18.3s-11.3-0.6-11.5-14c-0.4-7.7,0-16.6,13.4-13.6c0,0,24.2-41.5,48-33.3
	C163.1,30.4,176.2,48,176.2,48z"/>
<path class="st14" d="M96.8,69.1c-1,1.6-1.5,3.5-1.5,5.4s0.5,3.8,1.4,5.5"/>
<path class="st3" d="M187.2,87.6c0,0,11.5-39.1-12.9-69.6c-9-11.2-24-17.6-42.7-12.9c-24.6-4.8-35.3,11.1-44.1,30
	C82.1,46.7,78.4,60.9,76,72.7c-1.5,7.5-4,21.3-7.4,29.4c-9.3,22.6-16.2,36-23.6,50.8c-7.4,14.8,1,19.2,1,19.2s3-5.5,6.5-11
	c4.7-7.4,12.8-16,23.3-22c10.1-5.8,26.2-7,29.1-17.7c2.9-10.8-1.5-20-1.5-20s-2.7-3.1-4.8-5.7c-2-2.5-0.1-6.2-1.4-8
	c-1.9-1.2-5-2.3-6.9-5.9c-2.7-5-2-9-1.5-11.7c0.7-3.7,2.1-5.6,4-6.5c3.5-1.8,6.4-1.8,8-1.5s3,4,3,4s7.7,3.1,18.5-9
	c9.3-10.4,13.7-20.6,13.7-20.6c8.3,2.3,19.4,6.9,24.5,14.3c6,10.3,7.1,24.8,12.5,32.8C183.1,98.8,187.2,87.6,187.2,87.6z"/>
<path class="st8" d="M187.7,85c2.3-10.2,3.2-26.8-0.9-43.4c-3.1-12.5-7-20.3-20.8-31c-12.6-9.7-28.2-6.9-28.2-6.9"/>
<path class="st8" d="M184.9,96.5c-2.4,15.3,1,36.1,2.8,43c7.1,28.2,8.9,51.1,0,54.5"/>
<path class="st15" d="M104,66c-0.8-4.3-9.6-4.8-12.8,0c-3.7,5.6-4.9,20.5,8.1,20.5"/>
<path class="st8" d="M134.6,38.3c-1.9,4.5-15.3,30.2-30.3,28.2"/>
<path class="st8" d="M119.8,38.3c0,9.7-13.5,23.7-18.9,23.6"/>
<path class="st3" d="M73.5,148.5c8.8-5.2,17.7-21.8,20.5-28.5l-19.5,10.5l-21,25.5C56.7,155.3,64.7,153.7,73.5,148.5z"/>
<path class="st8" d="M158.1,34.6c17.6,10.6,14.8,24.5,20.8,35.1"/>
<path class="st8" d="M138.7,37.4c7.8,2,20.3,8.3,24.8,20.3c5.3,14.2,8,33.8,23.2,37.5"/>
<path class="st8" d="M164.1,121.5c0,14.8,1.8,13.4,1.8,18.9"/>
<path class="st8" d="M106.7,123.6c0,0-4.2,4.2-11.6,7.9"/>
<path class="st8" d="M45.5,171.5c-11-7.5,10.9-35,20.7-63C76.7,78.9,79,57.2,87.9,34.1c3.2-8.3,9.3-18,15.5-23.2
	c6.7-5.6,15.4-9.7,28.8-6.1"/>
<path class="st8" d="M94.8,119.5C92.2,124.7,84,150,55,156"/>
<path class="st5" d="M124.9,80.3c2.2,0.5,4.5-1.7,5.3-5c0.7-3.3-0.4-6.3-2.6-6.8c-2.2-0.5-4.5,1.7-5.3,5
	C121.6,76.7,122.8,79.8,124.9,80.3z"/>
<path class="st7" d="M125.9,64.3c-1.8,0.1-3.1,1.1-3.5,1.7c-0.3,0.6-1.1,0.7-1.8,0.4c-0.6-0.4-0.9-1.1-0.6-1.7
	c0.8-1.4,2.9-2.6,5.3-2.8c2.6-0.2,5.7,0.8,8.5,3.8c0.5,0.5,0.4,1.3-0.1,1.7c-0.5,0.4-1.4,0.3-1.8-0.2
	C129.7,64.7,127.5,64.1,125.9,64.3z"/>
<path class="st7" d="M161.8,70.8c-1.7-0.3-3.2,0.3-3.8,0.8c-0.5,0.4-1.3,0.4-1.8,0c-0.5-0.5-0.5-1.2,0-1.7c1.2-1.1,3.5-1.8,5.9-1.4
	c2.5,0.4,5.1,2,6.7,5.4c0.3,0.6,0,1.3-0.6,1.5c-0.6,0.3-1.4,0-1.6-0.6C165.3,72.1,163.4,71.1,161.8,70.8z"/>
<path class="st5" d="M157.6,86.9c2.1,0.7,4.7-1.3,5.7-4.5s0.2-6.3-1.9-7c-2.1-0.7-4.7,1.3-5.7,4.5C154.6,83.1,155.5,86.2,157.6,86.9
	z"/>
<path class="st5" d="M143.9,88.9l-3.4,0.7l1.7-4.6"/>
<path class="st16" d="M132.7,100.4c2.2,1.9,7.9,4,11.7,2.7"/>
<path class="st17" d="M167.2,187c2.9,20.7,1.8,52.4,1.8,52.4"/>
<path class="st6" d="M164.4,159.6L164.4,159.6c-1.2,0-2.3,0.4-3.2,1.2s-1.5,1.8-1.7,2.9l0,0l-15.4,98h160l15-96.4l0,0
	c0.1-0.7,0.1-1.4-0.1-2.1s-0.5-1.3-1-1.8s-1-1-1.7-1.3c-0.6-0.3-1.3-0.4-2.1-0.4l0,0H164.4V159.6z"/>
<path class="st18" d="M245.7,203.4l0.6,11.7c0.1,0.5,0.1,1,0.1,1.5c-0.2,5.5-5.8,9.8-12.5,9.5s-12-4.9-11.8-10.4c0-0.3,0-0.7,0.1-1
	l-0.1,0.1l1.7-11.9c0-0.2,0.1-0.3,0.2-0.4c0.1-0.1,0.2-0.2,0.4-0.3c0.1-0.1,0.3-0.1,0.5-0.1s0.3,0.1,0.5,0.2l6.3,4.1
	c1-0.2,2-0.2,3-0.2c0.9,0,1.9,0.2,2.8,0.4l6.3-4.1c0.2-0.1,0.4-0.2,0.6-0.2c0.2,0,0.4,0,0.6,0.1c0.2,0.1,0.4,0.2,0.5,0.4
	C245.6,203,245.7,203.2,245.7,203.4z"/>
<path class="st11" d="M232.2,209.9c0.9,0.5,2.5,1.6,3.2,2.1l-1.1,1.5c-0.8-0.6-2.2-1.6-3.2-2.1L232.2,209.9z M229.1,219.7
	c1.6-0.2,3.4-0.6,5-1.4c2.5-1.2,4.6-3,5.8-5l1,1.9c-1.4,1.9-3.5,3.5-5.9,4.8c-1.5,0.7-3.6,1.3-4.9,1.5L229.1,219.7z M229.9,213
	c0.9,0.5,2.5,1.5,3.2,2.1l-1.1,1.5c-0.8-0.6-2.2-1.6-3.2-2.1L229.9,213z"/>
<path class="st8" d="M402,262H0"/>
<path class="st19" d="M133,243.6c4.9,2.2,8.5,1.4,8.5,1.4"/>
</svg>
