<svg width="746" height="434" viewBox="0 0 746 434" fill="none" xmlns="http://www.w3.org/2000/svg">
<path d="M513.668 28.9884C462.08 5.77556 405.009 -0.27523 349.261 0.00947626C309.624 0.214762 268.567 3.7862 234.556 23.7719C207.308 39.6445 186.205 64.8536 170.522 92.9624C148.023 134.522 136.485 181.616 137.018 229.709C137.551 277.802 150.137 325.275 173.565 367.554C182.707 383.688 193.911 399.349 209.453 409.019C220.644 415.304 232.71 419.7 245.176 422.035C320.584 439.302 398.445 437.861 472.23 417.835C515.746 406.058 559.084 386.589 587.181 350.882C622.71 305.818 636.772 226.677 633.554 168.661C629.872 105.17 566.536 52.7793 513.668 28.9884Z" fill="#EDE9E1"/>
<path d="M109.838 315.767V314.767H108.838H1V302.57L107.266 138.46H148.041V278.069V279.069H149.041H173.432V314.767H149.041H148.041V315.767V354.714H109.838V315.767Z" stroke="#313B36" stroke-width="2"/>
<path d="M107.839 277.068H59.9694L107.839 198.56V277.068Z" stroke="#313B36" stroke-width="2"/>
<g clip-path="url(#clip0_1664_18286)">
<path d="M274.983 124.994C275.05 124.957 275.038 124.803 275.063 124.716L275.118 124.364C275.158 124.225 275.226 124.085 275.278 123.94C283.749 92.2466 304.397 65.3444 332.679 49.1512C360.96 32.958 394.558 28.8004 426.082 37.593C457.607 46.3856 484.474 67.4081 500.774 96.0358C517.075 124.664 521.473 158.552 513.001 190.245L512.759 190.172C507.226 205.989 451.15 204.562 386.29 186.793C321.431 169.025 272.081 141.526 274.983 124.994Z" stroke="#313B36" stroke-width="2" stroke-miterlimit="10"/>
<path d="M385.764 302.583C455.287 301.474 511.56 286.018 511.452 269.353C511.345 252.688 454.898 240.077 385.375 241.186C315.852 242.295 259.579 256.704 259.687 273.369C259.794 290.034 316.241 303.692 385.764 302.583Z" fill="#6A5D54" stroke="#313B36" stroke-width="2" stroke-miterlimit="10"/>
<g clip-path="url(#clip1_1664_18286)">
<path d="M311.796 181.439L312.155 181.891L312.725 181.806L318.488 180.954L321.793 186.746L316.314 190.426L315.81 190.764L315.877 191.366L316.739 199.137L316.797 199.657L317.257 199.906L323.013 203.023L321.18 210.01L314.497 209.518L313.863 209.471L313.552 210.026L309.902 216.535L309.624 217.031L309.907 217.523L313.212 223.263L307.136 227.795L301.878 223.598L301.345 223.173L300.755 223.513L293.601 227.63L293.185 227.869L293.112 228.343L292.153 234.526L285.397 234.98L283.294 227.981L283.134 227.449L282.597 227.304L275.077 225.269L274.492 225.111L274.081 225.557L269.261 230.779L263.668 226.842L266.033 220.336L266.234 219.783L265.848 219.339L260.824 213.546L260.462 213.128L259.916 213.213L253.098 214.267L250.273 207.851L256.811 204.092L257.359 203.777L257.31 203.147L256.708 195.45L256.659 194.821L256.07 194.595L249.802 192.183L251.39 184.7L257.951 185.046L258.523 185.076L258.838 184.598L262.903 178.439L263.211 177.973L262.976 177.467L259.753 170.523L265.367 166.428L271.503 170.81L271.997 171.162L272.538 170.887L278.928 167.632L279.434 167.375L279.472 166.808L279.904 160.383L286.853 159.657L289.455 167.205L289.648 167.763L290.228 167.865L297.293 169.101L297.808 169.191L298.176 168.82L302.955 163.994L308.764 167.852L306.337 173.748L306.113 174.292L306.479 174.751L311.796 181.439ZM294.533 213.001L295.035 212.713V212.678C298.884 210.294 301.694 206.532 302.881 202.146C304.119 197.571 303.493 192.691 301.138 188.579L301.138 188.578C299.377 185.509 296.748 183.032 293.58 181.459C290.413 179.886 286.851 179.288 283.344 179.741C279.837 180.194 276.543 181.678 273.879 184.004C271.215 186.331 269.3 189.396 268.377 192.811C267.453 196.227 267.562 199.839 268.69 203.193C269.818 206.546 271.914 209.49 274.714 211.651C277.514 213.812 280.891 215.094 284.419 215.335C287.947 215.575 291.466 214.763 294.533 213.001Z" fill="#E3E1DB" stroke="#313B36" stroke-width="2"/>
<path d="M292.052 193.06C292.815 194.393 293.166 195.923 293.06 197.456C292.954 198.989 292.397 200.456 291.459 201.671C290.521 202.887 289.244 203.797 287.79 204.286C286.336 204.775 284.769 204.822 283.289 204.42C281.808 204.018 280.479 203.185 279.471 202.027C278.462 200.87 277.819 199.438 277.623 197.914C277.427 196.39 277.687 194.843 278.369 193.466C279.051 192.09 280.126 190.948 281.456 190.183C282.341 189.675 283.316 189.346 284.327 189.216C285.339 189.085 286.366 189.156 287.35 189.423C288.334 189.69 289.255 190.149 290.062 190.773C290.869 191.397 291.546 192.174 292.052 193.06Z" fill="#E3E1DB" stroke="#313B36" stroke-width="2"/>
<path d="M276.447 245.927L276.717 246.256L277.138 246.193L279.301 245.87L280.431 247.892L278.4 249.286L278.031 249.54L278.079 249.985L278.432 253.261L278.474 253.65L278.817 253.838L280.987 255.029L280.34 257.453L277.841 257.265L277.36 257.229L277.128 257.65L275.603 260.415L275.401 260.781L275.607 261.146L276.84 263.329L274.75 264.912L272.763 263.306L272.362 262.981L271.915 263.24L268.936 264.971L268.625 265.151L268.572 265.507L268.217 267.86L265.927 268.015L265.092 265.306L264.971 264.913L264.574 264.804L261.444 263.944L261.001 263.822L260.692 264.161L258.877 266.149L256.993 264.813L257.893 262.277L258.038 261.87L257.758 261.54L255.628 259.032L255.355 258.711L254.938 258.777L252.363 259.187L251.404 256.973L253.86 255.538L254.267 255.3L254.229 254.83L253.966 251.585L253.928 251.117L253.491 250.946L251.144 250.03L251.691 247.412L254.138 247.541L254.567 247.564L254.804 247.205L256.51 244.615L256.739 244.268L256.566 243.89L255.335 241.199L257.261 239.778L259.633 241.502L260.008 241.774L260.419 241.562L263.074 240.19L263.45 239.996L263.478 239.573L263.639 237.13L265.989 236.874L266.987 239.816L267.13 240.236L267.566 240.313L270.505 240.836L270.895 240.905L271.172 240.621L272.966 238.786L274.973 240.143L274.06 242.395L273.893 242.808L274.175 243.152L276.447 245.927ZM265.251 260.405C266.801 260.505 268.344 260.135 269.684 259.345C271.463 258.295 272.759 256.578 273.295 254.57C273.831 252.561 273.565 250.419 272.553 248.607C271.79 247.242 270.643 246.136 269.257 245.431C267.871 244.726 266.308 244.454 264.768 244.651C263.227 244.848 261.781 245.505 260.612 246.536C259.443 247.568 258.605 248.927 258.201 250.44C257.797 251.953 257.846 253.554 258.342 255.039C258.837 256.525 259.758 257.829 260.988 258.785C262.218 259.741 263.702 260.305 265.251 260.405Z" fill="#E3E1DB" stroke="#313B36" stroke-width="1.5"/>
<path d="M267.747 251.585C267.968 251.972 268.07 252.415 268.039 252.859C268.009 253.304 267.848 253.729 267.577 254.082C267.306 254.434 266.936 254.698 266.516 254.84C266.095 254.981 265.642 254.995 265.214 254.879C264.786 254.763 264.401 254.522 264.109 254.187C263.817 253.852 263.63 253.437 263.573 252.996C263.516 252.554 263.591 252.105 263.788 251.706C263.986 251.307 264.296 250.976 264.681 250.754C264.937 250.607 265.219 250.512 265.511 250.474C265.804 250.436 266.101 250.456 266.385 250.533C266.67 250.61 266.937 250.743 267.17 250.923L267.629 250.33L267.17 250.923C267.404 251.104 267.6 251.329 267.747 251.585Z" fill="#E3E1DB" stroke="#313B36" stroke-width="1.5"/>
</g>
<g clip-path="url(#clip2_1664_18286)">
<path d="M284.74 305.642L283.841 302.344C282.849 298.702 282.974 294.914 284.19 291.813C285.407 288.713 287.614 286.554 290.327 285.812L376.509 262.231C377.852 261.863 379.279 261.855 380.708 262.205C382.137 262.556 383.54 263.259 384.837 264.275C386.134 265.29 387.3 266.598 388.268 268.124C389.237 269.65 389.988 271.363 390.479 273.167L391.378 276.464L284.74 305.642Z" fill="#C28145"/>
<path d="M285.441 304.413L284.76 301.913C283.762 298.254 283.85 294.503 284.949 291.495C286.046 288.492 288.024 286.548 290.353 285.911L376.535 262.331C377.696 262.013 378.947 262.016 380.226 262.36C381.509 262.704 382.801 263.384 384.022 264.387L384.657 263.614L384.022 264.387C385.242 265.39 386.359 266.688 387.298 268.215C388.237 269.741 388.976 271.456 389.469 273.263L390.15 275.764L285.441 304.413Z" stroke="#313B36" stroke-width="2"/>
<path d="M295.116 146.66L298.905 283.499L365.491 265.281L301.61 144.972C301.144 144.11 300.497 143.421 299.763 143.004C299.029 142.587 298.246 142.464 297.524 142.651C296.803 142.839 296.182 143.328 295.749 144.048C295.316 144.768 295.095 145.683 295.116 146.66Z" fill="#C28145"/>
<path d="M297.383 200.323L325.971 192.138L341.763 221.331L298.199 232.517L297.383 200.323Z" fill="#F5F3ED"/>
<path d="M364.131 264.601L299.979 282.154L296.225 146.592C296.225 146.591 296.225 146.59 296.225 146.59C296.208 145.77 296.395 145.05 296.715 144.517C297.032 143.991 297.45 143.687 297.884 143.574C298.32 143.461 298.838 143.522 299.378 143.829C299.924 144.139 300.446 144.678 300.838 145.4C300.838 145.401 300.839 145.402 300.839 145.403L364.131 264.601Z" stroke="#313B36" stroke-width="2"/>
<g opacity="0.3">
<path d="M298.901 283.483L365.499 265.261L360.142 255.14L298.721 277.739L298.901 283.483Z" fill="#6A5D54"/>
</g>
</g>
<path d="M357.426 183.223L419.632 189.276L429.712 238.652L416.8 226.342L366.122 226.473L357.58 229.222L357.426 183.223Z" fill="#907D73"/>
<path d="M434.987 313.332L353.232 297.47L333.595 297.864C333.591 282.316 337.4 265.789 340.991 256.036C344.582 246.283 351.868 237.158 354.276 234.012C356.684 230.865 365.535 227.347 368.707 226.651C371.878 225.954 377.148 223.925 377.148 223.925C381.369 217.385 402.745 225.022 402.745 225.022C402.745 225.022 415.817 226.662 417.995 225.844C425.719 227.296 434.668 221.892 435.938 233.508C436.549 239.112 436.302 253.504 435.918 269.764C435.692 278.952 435.416 288.736 435.227 297.889C435.118 303.33 435.025 308.58 434.987 313.332Z" fill="#D8C5A8"/>
<path d="M333.607 292.535C334.059 283.442 337.896 265.427 340.128 258.709C342.575 251.343 348.558 241.524 348.558 241.524" stroke="#313B36" stroke-width="2" stroke-linecap="round"/>
<path d="M389.464 241.741L385.716 234.405L391.069 229.85L394.312 235.983L389.464 241.741Z" fill="#EFEDE7" stroke="#313B36" stroke-width="1.5" stroke-linecap="round"/>
<path d="M383.879 240.797C383.601 259.53 383.962 268.208 383.962 268.208" stroke="#313B36" stroke-width="1.5" stroke-linecap="round"/>
<path d="M383.038 289.315L382.93 300.032" stroke="#313B36" stroke-width="1.5" stroke-linecap="round"/>
<path d="M394.807 241.5C394.403 253.373 394.026 289.673 394.259 299.255" stroke="#313B36" stroke-width="1.5" stroke-linecap="round"/>
<path d="M391.164 246.442L391.281 248.157C391.293 248.232 391.298 248.308 391.296 248.384C391.274 249.19 390.438 249.823 389.428 249.796C388.418 249.77 387.617 249.095 387.638 248.288C387.64 248.24 387.644 248.192 387.651 248.144L387.642 248.152L387.881 246.412C387.884 246.389 387.893 246.368 387.908 246.35C387.922 246.332 387.941 246.317 387.963 246.308C387.986 246.298 388.01 246.294 388.034 246.296C388.058 246.298 388.082 246.305 388.102 246.318L389.058 246.907C389.205 246.881 389.356 246.871 389.506 246.875C389.647 246.878 389.787 246.895 389.924 246.925L390.867 246.309C390.894 246.291 390.926 246.28 390.96 246.277C390.993 246.274 391.027 246.28 391.058 246.294C391.088 246.307 391.114 246.328 391.133 246.354C391.151 246.381 391.162 246.411 391.164 246.442Z" fill="#313B36"/>
<path d="M390.071 295.26L390.188 296.975C390.2 297.05 390.205 297.126 390.203 297.202C390.181 298.008 389.345 298.641 388.335 298.614C387.325 298.588 386.524 297.913 386.546 297.106C386.547 297.058 386.551 297.01 386.558 296.962L386.549 296.97L386.788 295.23C386.791 295.207 386.8 295.186 386.815 295.168C386.829 295.15 386.848 295.135 386.871 295.126C386.893 295.116 386.917 295.112 386.941 295.114C386.966 295.116 386.989 295.123 387.01 295.136L387.965 295.725C388.113 295.699 388.263 295.689 388.413 295.693C388.554 295.696 388.694 295.713 388.831 295.743L389.774 295.127C389.801 295.109 389.833 295.098 389.867 295.095C389.901 295.092 389.934 295.098 389.965 295.112C389.995 295.125 390.021 295.146 390.04 295.172C390.059 295.199 390.069 295.229 390.071 295.26Z" fill="#313B36"/>
<path d="M390.566 265.706L390.581 267.424C390.588 267.5 390.589 267.576 390.582 267.651C390.513 268.455 389.64 269.035 388.633 268.946C387.627 268.857 386.867 268.134 386.937 267.33C386.941 267.282 386.948 267.234 386.958 267.187L386.949 267.194L387.291 265.472C387.296 265.45 387.306 265.429 387.322 265.412C387.337 265.395 387.357 265.381 387.38 265.373C387.402 265.365 387.427 265.363 387.451 265.366C387.475 265.369 387.498 265.378 387.518 265.392L388.436 266.039C388.585 266.023 388.736 266.021 388.886 266.035C389.026 266.047 389.165 266.072 389.3 266.11L390.278 265.554C390.306 265.537 390.339 265.528 390.373 265.528C390.406 265.527 390.44 265.535 390.469 265.55C390.499 265.566 390.523 265.588 390.541 265.616C390.558 265.643 390.567 265.674 390.566 265.706Z" fill="#313B36"/>
<g clip-path="url(#clip3_1664_18286)">
<path d="M326.298 253.854C327.778 254.073 337.643 260.389 340.408 267.248L330.768 267.437C330.043 266.251 329.444 263.25 328.723 262.28C327.823 261.068 323.854 259.424 323.716 256.707C323.578 253.99 325.116 253.679 326.298 253.854Z" fill="#EFEDE7"/>
<path d="M330.768 267.437C330.043 266.251 329.444 263.25 328.723 262.28C327.823 261.068 323.854 259.424 323.716 256.707C323.578 253.99 325.116 253.679 326.298 253.854C327.778 254.073 337.643 260.389 340.408 267.248L330.768 267.437ZM330.768 267.437C331.016 268.193 331.315 266.655 330.768 267.437Z" stroke="#313B36" stroke-width="1.5" stroke-linecap="round"/>
<path d="M299.11 232.763C301.266 231.746 306.947 237.089 308.199 237.968C309.365 238.785 315.245 239.017 319.95 239.718C322.826 240.147 325.171 240.193 327.304 241.674C329.437 243.155 329.697 244.915 329.757 246.453C329.829 248.309 329.271 249.755 329.271 249.755L316.532 250.956C316.532 250.956 314.883 247.888 314.111 247.496C313.147 247.006 306.304 245.113 305.159 244.536C301.585 242.736 298.532 237.911 297.379 236.356C296.226 234.8 295.338 233.696 295.199 232.292C295.088 231.168 297.013 231.804 297.977 232.294C298.404 232.511 298.857 232.883 299.11 232.763Z" fill="#EFEDE7"/>
<path d="M299.11 232.763C301.266 231.746 306.947 237.089 308.199 237.968C309.365 238.785 315.245 239.017 319.95 239.718C322.826 240.147 325.171 240.193 327.304 241.674C329.437 243.155 329.697 244.915 329.757 246.453C329.829 248.309 329.271 249.755 329.271 249.755L316.532 250.956C316.532 250.956 314.883 247.888 314.111 247.496C313.147 247.006 306.304 245.113 305.159 244.536C301.585 242.736 298.532 237.911 297.379 236.356C296.226 234.8 295.338 233.696 295.199 232.292C295.088 231.168 297.013 231.804 297.977 232.294C298.404 232.511 298.857 232.883 299.11 232.763ZM299.11 232.763C298.998 233.524 296.614 232.581 303.555 239.005C306.483 241.716 312.727 242.925 312.727 242.925" stroke="#313B36" stroke-width="1.5" stroke-linecap="round"/>
<path d="M330.766 245.727C333.066 249.597 333.909 252.217 333.909 252.217L327.12 254.6L316.457 259.47C316.457 259.47 315.179 256.119 314.081 254.27C312.982 252.421 313.043 250.879 314.187 250.246C320.094 246.979 330.076 244.565 330.766 245.727Z" fill="#907D73"/>
<path d="M328.463 253.858C328.463 253.858 333.603 251.701 334.638 252.843L336.709 255.126L341.476 264.758L348.842 283.272C348.842 283.272 357.718 285.678 352.693 289.829C345.817 295.508 329.433 302.08 329.433 302.08C329.433 302.08 324.264 294.242 322.74 287.39C322.054 284.31 320.175 275.133 320.175 275.133L316.725 264.122C316.725 264.122 315.933 261.775 315.817 260.193C315.767 259.508 316.734 258.82 317.225 258.359C318.371 257.285 322.261 256.629 322.261 256.629L328.463 253.858Z" fill="#D8C5A8"/>
<path d="M331.339 253.296C331.339 253.296 324.857 256.195 317.224 258.36" stroke="#313B36" stroke-width="2" stroke-miterlimit="10" stroke-linecap="round"/>
<path d="M348.571 290.366C348.571 290.366 344.218 273.915 342.041 268.969C340.795 266.135 338.296 257.115 335.038 253.043" stroke="#313B36" stroke-width="2" stroke-linecap="round"/>
<path d="M331.568 302.226C331.568 302.226 326.047 303.338 320.786 277.777C318.888 268.552 315.015 262.502 316.035 260.176" stroke="#313B36" stroke-width="2" stroke-linecap="round"/>
<path d="M351.556 246.383C354.194 261.987 355.806 278.653 357.43 282.352" stroke="#313B36" stroke-width="2" stroke-linecap="round"/>
</g>
<path d="M357.266 269.076C357.529 277.485 357.271 294.348 357.271 294.348" stroke="#313B36" stroke-width="2" stroke-linecap="round"/>
<path d="M376.496 225.725C379.2 222.464 379.152 214.095 378.102 210.139L401.766 209.027C401.43 210.069 399.96 221.208 403.162 226.371C403.162 226.371 396.081 234.083 389.805 234.391C383.528 234.699 378.79 229.306 377.355 227.6" fill="#EFEDE7"/>
<path d="M376.496 225.725C379.2 222.464 379.152 214.095 378.102 210.139L401.766 209.027C401.43 210.069 399.96 221.208 403.162 226.371C403.162 226.371 396.081 234.083 389.805 234.391C383.528 234.699 378.79 229.306 377.355 227.6" stroke="#313B36" stroke-width="2" stroke-miterlimit="10"/>
<path d="M400.032 217.595L400.302 210.894L379.213 211.262L379.581 217.59C392.214 222.858 400.032 217.595 400.032 217.595Z" fill="#EFEDE7"/>
<path d="M376.606 224.098C376.606 224.098 378.312 233.029 390.713 232.567C399.854 232.218 403.219 224.861 403.219 224.861L416.214 226.715C416.518 228.844 409.73 241.233 399.215 239.951C392.02 239.074 390.106 234.083 390.106 234.083C390.106 234.083 388.03 237.637 381.755 238.976C368.552 241.794 369.156 226.982 369.156 226.982L376.606 224.098Z" fill="#EFEDE7" stroke="#313B36" stroke-width="2" stroke-miterlimit="10"/>
<path d="M398.729 198.621L393.639 182.289L383.617 189.738L398.729 198.621Z" fill="#D8C5A8"/>
<path d="M358.656 170.765C358.656 170.765 359.859 182.316 363.174 191.585C366.489 200.854 365.836 204.802 369.96 209.469C373.672 213.67 384.052 219.72 389.667 219.202C396.736 218.549 404.494 212.93 408.902 206.086C413.311 199.242 412.798 194.903 412.798 194.903C412.798 194.903 420.957 191.98 420.076 182.475C419.195 172.97 414.288 174.239 410.792 175.795L407.543 152.345L393.095 142.125L375.332 146.891L358.656 170.765Z" fill="#EFEDE7"/>
<path d="M358.656 170.765L357.918 170.245L357.727 170.519L357.761 170.852L358.656 170.765ZM389.667 219.202L389.756 220.099L389.667 219.202ZM412.798 194.903L412.49 194.054L411.821 194.294L411.905 195.002L412.798 194.903ZM420.076 182.475L419.181 182.552L420.076 182.475ZM410.792 175.795L409.901 175.913L410.067 177.106L411.162 176.619L410.792 175.795ZM375.332 146.891L375.093 146.021L374.78 146.106L374.594 146.372L375.332 146.891ZM407.543 152.345L408.434 152.228L408.38 151.838L408.058 151.611L407.543 152.345ZM393.095 142.125L393.61 141.39L393.264 141.145L392.856 141.255L393.095 142.125ZM369.96 209.469L369.288 210.063L369.96 209.469ZM358.656 170.765C357.761 170.852 357.761 170.852 357.761 170.853C357.761 170.853 357.761 170.853 357.761 170.853C357.761 170.854 357.761 170.854 357.762 170.855C357.762 170.857 357.762 170.859 357.762 170.862C357.763 170.868 357.764 170.877 357.765 170.889C357.768 170.912 357.771 170.946 357.776 170.99C357.786 171.079 357.801 171.21 357.821 171.379C357.861 171.717 357.921 172.209 358.004 172.828C358.17 174.066 358.426 175.812 358.786 177.85C359.505 181.918 360.645 187.18 362.328 191.883L364.02 191.286C362.387 186.721 361.268 181.573 360.557 177.548C360.202 175.54 359.95 173.819 359.787 172.601C359.705 171.992 359.646 171.51 359.607 171.18C359.588 171.015 359.573 170.889 359.564 170.804C359.559 170.761 359.556 170.729 359.553 170.708C359.552 170.698 359.551 170.69 359.551 170.685C359.551 170.682 359.55 170.68 359.55 170.679C359.55 170.678 359.55 170.678 359.55 170.678C359.55 170.678 359.55 170.678 359.55 170.678C359.55 170.678 359.55 170.678 358.656 170.765ZM412.798 194.903C413.106 195.751 413.106 195.751 413.107 195.751C413.107 195.751 413.108 195.75 413.108 195.75C413.109 195.75 413.11 195.75 413.111 195.749C413.113 195.748 413.116 195.747 413.119 195.746C413.125 195.744 413.133 195.741 413.144 195.737C413.164 195.729 413.192 195.719 413.227 195.705C413.296 195.677 413.394 195.636 413.516 195.582C413.76 195.474 414.101 195.31 414.503 195.083C415.307 194.631 416.368 193.923 417.403 192.894C419.491 190.818 421.44 187.458 420.972 182.398L419.181 182.552C419.592 186.997 417.903 189.85 416.131 191.612C415.236 192.502 414.313 193.118 413.614 193.511C413.266 193.707 412.976 193.846 412.777 193.935C412.677 193.979 412.601 194.011 412.552 194.03C412.527 194.04 412.509 194.047 412.499 194.051C412.493 194.053 412.49 194.054 412.489 194.055C412.488 194.055 412.487 194.055 412.488 194.055C412.488 194.055 412.488 194.055 412.488 194.055C412.488 194.055 412.489 194.055 412.489 194.055C412.489 194.054 412.49 194.054 412.798 194.903ZM420.972 182.398C420.523 177.554 419.01 175.015 416.73 174.146C415.631 173.727 414.478 173.753 413.415 173.962C412.352 174.17 411.318 174.573 410.422 174.972L411.162 176.619C412.014 176.24 412.904 175.9 413.772 175.73C414.64 175.56 415.424 175.571 416.1 175.829C417.367 176.312 418.749 177.891 419.181 182.552L420.972 182.398ZM374.594 146.372L357.918 170.245L359.394 171.285L376.07 147.411L374.594 146.372ZM411.683 175.677L408.434 152.228L406.652 152.463L409.901 175.913L411.683 175.677ZM389.756 220.099C397.174 219.414 405.149 213.579 409.659 206.578L408.145 205.594C403.838 212.28 396.297 217.685 389.578 218.305L389.756 220.099ZM409.659 206.578C411.919 203.068 412.936 200.173 413.382 198.125C413.605 197.103 413.685 196.294 413.708 195.73C413.719 195.448 413.716 195.228 413.71 195.072C413.707 194.994 413.703 194.932 413.699 194.887C413.697 194.865 413.695 194.846 413.694 194.832C413.693 194.825 413.693 194.819 413.692 194.814C413.692 194.812 413.692 194.81 413.691 194.808C413.691 194.807 413.691 194.806 413.691 194.805C413.691 194.805 413.691 194.804 413.691 194.804C413.691 194.803 413.691 194.803 412.798 194.903C411.905 195.002 411.905 195.002 411.905 195.001C411.905 195.001 411.904 195.001 411.904 195C411.904 195 411.904 194.999 411.904 194.999C411.904 194.998 411.904 194.998 411.904 194.997C411.904 194.997 411.904 194.997 411.904 194.998C411.904 195.001 411.905 195.008 411.906 195.019C411.908 195.041 411.91 195.079 411.913 195.133C411.917 195.241 411.92 195.413 411.91 195.645C411.892 196.108 411.824 196.812 411.624 197.73C411.225 199.562 410.293 202.259 408.145 205.594L409.659 206.578ZM408.058 151.611L393.61 141.39L392.579 142.859L407.027 153.08L408.058 151.611ZM392.856 141.255L375.093 146.021L375.57 147.762L393.333 142.995L392.856 141.255ZM362.328 191.883C363.972 196.48 364.612 199.693 365.398 202.491C366.185 205.292 367.102 207.589 369.288 210.063L370.632 208.875C368.694 206.682 367.876 204.672 367.13 202.014C366.382 199.354 365.692 195.958 364.02 191.286L362.328 191.883ZM369.288 210.063C371.245 212.277 374.873 214.902 378.687 216.902C380.604 217.908 382.596 218.771 384.483 219.351C386.357 219.928 388.186 220.244 389.756 220.099L389.578 218.305C388.34 218.419 386.767 218.173 385 217.63C383.245 217.09 381.357 216.275 379.513 215.308C375.806 213.363 372.387 210.862 370.632 208.875L369.288 210.063Z" fill="#313B36"/>
<path d="M413.582 181.804C414.143 182.699 414.472 183.747 414.534 184.842C414.597 185.937 414.391 187.038 413.938 188.033" stroke="#313B36" stroke-width="1.5" stroke-miterlimit="10" stroke-linecap="round"/>
<path d="M352.452 263.271C352.452 263.271 350.764 240.043 352.121 225.036C353.478 210.029 350.742 194.11 350.865 181.748C350.988 169.387 351.965 159.913 360.993 149.498C367.292 142.232 380.997 138.345 389.128 138.522C399.042 136.12 412.65 144.405 417.357 158.277C422.065 172.15 422.039 175.332 424.296 187.971C426.658 201.198 426.547 210.112 430.058 220.018C433.569 229.923 434.904 237.598 434.904 237.598C432.115 234.373 430.464 230.435 416.289 227.614C415.925 227.541 405.389 223.55 404.335 222.682C403.939 218.392 410.238 212.442 409.348 207.646C409.348 207.646 412.103 204.102 413.117 201.449C414.051 199.002 415.683 193.728 415.683 193.728C417.681 191.823 418.569 190.038 418.987 186.602C419.518 182.241 418.447 179.344 416.652 177.827C415.394 176.764 413.49 175.894 411.674 176.738C409.859 177.582 409.7 178.471 409.7 178.471C409.7 178.471 403.278 181.546 396.986 172.828C391.555 165.304 391.177 160.702 391.177 160.702C384.382 162.511 381.05 165.313 374.544 177.386C370.925 184.103 364.278 188.567 364.278 188.567C363.713 188.619 358.679 192.105 362.213 198.989C363.392 201.286 370.129 220.263 370.129 220.263C372.787 235.828 370.053 256.036 371.578 263.144C373.535 272.269 357.725 267.698 352.452 263.271Z" fill="#907D73"/>
<path d="M425.827 139.749C423.171 136.471 416.142 135.39 406.073 136.697L405.44 136.78C400.911 137.431 396.438 138.368 392.077 139.579C374.856 144.281 356.12 153.188 344.899 162.343C344.079 163.012 343.296 163.679 342.561 164.336C335.888 170.401 333.711 175.583 336.426 178.93C338.409 181.368 342.795 182.586 349.076 182.51C349.076 182.51 349.232 182.019 349.053 181.675C343.285 181.733 339.266 180.639 337.505 178.456C335.039 175.419 337.168 170.569 343.505 164.805C343.85 164.49 344.208 164.177 344.571 163.86C355.699 154.273 375.536 144.792 393.478 140.068C397.417 139.011 401.447 138.187 405.524 137.605C415.451 136.244 422.25 137.169 424.723 140.209C427.195 143.25 425.088 148.126 418.73 153.872C417.908 154.62 417.031 155.368 416.099 156.114C416.286 156.36 416.507 156.592 416.76 156.805C417.787 155.988 418.758 155.165 419.662 154.342C426.335 148.277 428.511 143.096 425.827 139.749Z" fill="#C28145"/>
<path d="M419.621 154.573C418.841 154.192 418.023 153.824 417.178 153.468C403.714 147.729 382.795 144.63 365.592 145.58C363.324 145.698 361.056 145.902 358.798 146.192C357.964 146.301 357.141 146.408 356.335 146.553C346.828 148.111 340.871 151.075 339.571 154.901C338.27 158.728 341.8 162.896 349.537 166.636C350.17 166.963 350.813 167.239 351.486 167.532C351.418 167.184 351.371 166.83 351.347 166.471C350.959 166.296 350.587 166.12 350.215 165.939C342.886 162.395 339.505 158.51 340.683 155.035C341.861 151.559 347.496 148.837 356.523 147.342C358.598 147.007 360.687 146.754 362.781 146.583C375.152 145.54 389.935 146.78 402.509 149.716C404.247 150.116 405.899 150.551 407.516 151.016C410.709 151.919 413.787 153.002 416.726 154.254C417.491 154.582 418.232 154.921 418.948 155.269C426.272 158.814 429.658 162.698 428.475 166.174C427.915 167.819 426.363 169.296 423.928 170.554C423.967 170.534 427.225 169.834 423.928 170.554C423.928 170.554 424.171 171.104 424.172 171.365C427.054 169.945 428.892 168.235 429.548 166.305C430.855 162.486 427.319 158.318 419.621 154.573Z" fill="#C28145"/>
<path d="M367.425 132.429L364.173 132.029L362.78 137.267L361.533 131.709L357.899 131.259L360.631 129.191L359.581 123.79L362.795 127.554L366.5 125.397L364.755 129.622L367.425 132.429Z" fill="#C28145"/>
<path d="M341.032 153.256L342.331 151.267L340.565 148.182L343.386 149.644L344.84 147.407L344.778 150.073L347.461 151.599L344.734 152.189L344.373 155.534L343.161 152.644L341.032 153.256Z" fill="#C28145"/>
<path d="M332.795 192.743L334.093 190.754L332.328 187.67L335.149 189.132L336.603 186.894L336.541 189.56L339.224 191.086L336.491 191.677L336.136 195.029L334.924 192.132L332.795 192.743Z" fill="#C28145"/>
<path d="M436.984 168.136L438.672 165.556L436.387 161.564L440.035 163.452L441.919 160.564L441.839 164.017L445.317 165.996L441.78 166.752L441.312 171.093L439.744 167.336L436.984 168.136Z" fill="#C28145"/>
<path d="M392.062 164.066C392.688 167.292 401.622 182.911 409.443 178.468" stroke="#313B36" stroke-width="2" stroke-linecap="round"/>
<path d="M409.442 178.467C410.754 176.175 414.569 175.194 417.019 178.388C419.858 182.089 421.039 191.764 412.789 194.898" stroke="#313B36" stroke-width="1.8" stroke-linecap="round"/>
<path d="M397.243 161.891C397.84 168.346 407.549 176.831 411.084 176.422" stroke="#313B36" stroke-width="2" stroke-linecap="round"/>
<path d="M351.16 186.253C349.946 173.127 352.986 162.617 355.333 157.131C357.68 151.644 367.158 139.918 387.114 138.072" stroke="#313B36" stroke-width="2" stroke-linecap="round"/>
<path d="M352.644 197.372C352.644 197.372 352.986 214.081 352.545 219.391C351.74 229.094 351.525 250.848 352.66 263.074" stroke="#313B36" stroke-width="2" stroke-linecap="round"/>
<path d="M435.027 236.471C435.027 236.471 432.984 229.914 429.125 218.308C425.785 208.262 427.211 203.26 425.049 192.284C423.32 183.503 422.419 170.447 417.078 158.852C412.212 148.287 404.745 138.914 392.054 138.848" stroke="#313B36" stroke-width="2" stroke-linecap="round"/>
<path d="M414.325 206.939C413.645 217.283 417.57 225.44 418.979 227.48" stroke="#313B36" stroke-width="2" stroke-linecap="round"/>
<path d="M366.554 203.17C374.768 226.187 369.811 252.16 371.721 264.438" stroke="#313B36" stroke-width="1.5" stroke-linecap="round"/>
<path d="M360.415 217.657C364.026 232.111 358.935 246.465 363.427 263.191" stroke="#313B36" stroke-width="1.5" stroke-linecap="round"/>
<path d="M376.446 161.588C371.772 163.948 370.336 177.149 364.115 179.569" stroke="#313B36" stroke-width="2" stroke-linecap="round"/>
<path d="M390.99 161.083C387.09 160.446 381.567 164.229 377.997 171.456C374.856 177.816 366.433 191.442 352.034 194.014" stroke="#313B36" stroke-width="2" stroke-linecap="round"/>
<path d="M376.493 194.569C377.936 194.458 378.95 192.578 378.757 190.37C378.565 188.162 377.239 186.462 375.796 186.573C374.352 186.684 373.339 188.564 373.531 190.772C373.724 192.98 375.05 194.68 376.493 194.569Z" fill="#313B36"/>
<path d="M398.852 192.019C400.301 192.028 401.483 190.239 401.493 188.024C401.502 185.808 400.335 184.005 398.886 183.996C397.437 183.987 396.254 185.776 396.245 187.991C396.235 190.207 397.402 192.011 398.852 192.019Z" fill="#313B36"/>
<path d="M387.549 196.932L389.559 197.972L389.32 194.721" fill="#313B36"/>
<path d="M393.846 204.731C394.081 205.394 393.943 206.153 393.454 206.883C393.22 207.215 392.911 207.532 392.542 207.82C392.126 208.146 391.607 208.406 391.047 208.569C390.487 208.732 389.909 208.791 389.383 208.739C388.92 208.692 388.492 208.59 388.118 208.435C387.311 208.084 386.787 207.517 386.631 206.83C386.46 206.316 386.498 205.746 386.743 205.173C386.817 205.005 386.913 204.839 387.029 204.676C387.263 204.345 387.569 204.029 387.936 203.741C388.349 203.414 388.868 203.153 389.428 202.99C389.988 202.827 390.565 202.769 391.09 202.824C391.555 202.868 391.985 202.97 392.36 203.125C392.544 203.201 392.712 203.29 392.862 203.392C393.376 203.745 393.715 204.205 393.846 204.731Z" fill="#C28145"/>
<path d="M370.952 185.845C371.25 185.833 371.545 185.769 371.828 185.655C372.077 185.57 372.325 185.475 372.569 185.371C373.068 185.168 373.557 184.936 374.037 184.675C375.026 184.141 375.972 183.493 376.863 182.737C377.373 182.296 377.863 181.821 378.333 181.316C378.549 181.085 378.511 180.578 378.304 180.353C378.058 180.089 377.764 180.13 377.533 180.377L377.382 180.538L377.314 180.607C377.253 180.672 377.381 180.54 377.32 180.607C377.218 180.711 377.112 180.814 377.008 180.915C376.806 181.112 376.597 181.303 376.386 181.487C375.969 181.847 375.54 182.186 375.097 182.503C374.874 182.662 374.646 182.814 374.416 182.959C374.314 183.026 374.206 183.096 374.099 183.154L373.939 183.249C373.913 183.264 373.886 183.282 373.86 183.295L373.826 183.313C373.354 183.575 372.875 183.807 372.388 184.009C372.123 184.121 371.855 184.224 371.585 184.318C371.27 184.41 370.964 184.539 370.669 184.702C370.577 184.773 370.508 184.881 370.47 185.008C370.433 185.135 370.431 185.274 370.463 185.404C370.499 185.531 370.565 185.642 370.653 185.721C370.741 185.8 370.846 185.842 370.953 185.843L370.952 185.845Z" fill="#313B36"/>
<path d="M403.044 181.9C402.762 181.997 402.464 182.044 402.159 182.04C401.895 182.052 401.631 182.054 401.365 182.046C400.827 182.038 400.287 181.999 399.745 181.93C398.63 181.792 397.513 181.531 396.41 181.151C395.775 180.925 395.146 180.661 394.525 180.36C394.24 180.224 394.092 179.737 394.204 179.453C394.337 179.118 394.625 179.048 394.93 179.195L395.13 179.29L395.218 179.33C395.299 179.368 395.131 179.292 395.213 179.332C395.345 179.392 395.481 179.45 395.615 179.506C395.875 179.615 396.139 179.718 396.402 179.813C396.92 179.997 397.443 180.157 397.97 180.291C398.236 180.359 398.503 180.417 398.77 180.469C398.89 180.494 399.016 180.52 399.136 180.535L399.32 180.566C399.35 180.57 399.381 180.577 399.411 180.58L399.449 180.585C399.983 180.658 400.514 180.7 401.041 180.711C401.329 180.719 401.615 180.717 401.901 180.707C402.228 180.678 402.56 180.687 402.894 180.732C403.005 180.765 403.109 180.84 403.189 180.945C403.27 181.05 403.323 181.178 403.34 181.311C403.353 181.443 403.331 181.57 403.278 181.676C403.224 181.781 403.142 181.859 403.042 181.898L403.044 181.9Z" fill="#313B36"/>
<path d="M502.18 278.883C506.13 276.72 509.155 274.304 510.887 271.626C510.898 271.87 510.908 272.121 510.918 272.379C511.064 276.167 511.117 281.587 510.746 288.098C510.002 301.126 507.558 318.492 500.773 335.891C493.989 353.285 482.876 370.691 464.801 383.852C446.73 397.01 421.627 405.981 386.765 406.387C338.658 406.943 307.578 388.999 288.285 362.601C269.859 337.389 262.108 304.358 260.72 272.08C262.816 274.856 266.25 277.416 270.67 279.742C277.474 283.324 286.896 286.503 298.281 289.121C321.062 294.361 351.878 297.398 385.76 296.841L385.76 296.841C420.632 296.261 452.168 293.159 475.005 288.047C486.414 285.493 495.713 282.425 502.18 278.883Z" fill="#E7E1D2" stroke="#313B36" stroke-width="2"/>
<path opacity="0.4" d="M278.909 350.728C266.977 328.832 262.3 297.8 260.33 271.693L282.171 282.717C283.923 290.1 284.191 321.797 304.324 352.664C329.491 391.249 377.872 407.846 377.872 407.846C361.963 407.475 342.988 402.661 337.203 400.676C329.822 398.144 297.469 384.785 278.909 350.728Z" fill="black" fill-opacity="0.4"/>
<path d="M418.325 259.505C420.479 266.602 423.613 286.482 423.613 286.482C423.613 286.482 416.744 284.58 413.318 283.058C411.058 282.054 407.912 293.028 406.958 296.49C406.656 297.588 406.701 299.572 406.701 299.572C406.701 299.572 443.495 324.116 453.493 310.554C463.491 296.992 461.954 295.399 456.127 274.763C450.706 255.565 444.12 241.842 437.068 236.781C430.015 231.72 428.219 230.209 423.336 229.323C424.034 233.012 415.289 249.502 418.325 259.505Z" fill="#D8C5A8"/>
<path d="M448.871 254.116C450.777 260.291 458.76 282.745 460.127 288.721C462.653 299.761 455.58 308.204 452.137 311.764" stroke="#313B36" stroke-width="2" stroke-linecap="round"/>
<path d="M423.664 266.711C426.412 274.661 430.867 286.043 430.867 286.043" stroke="#313B36" stroke-width="2" stroke-linecap="round"/>
<path d="M434.403 291.032C434.403 291.032 432.902 289.371 424.979 287.169C416.305 284.759 410.866 283.023 408.528 281.157" stroke="#313B36" stroke-width="2" stroke-linecap="round"/>
<path d="M444.044 314.554C444.044 314.554 427.777 312.824 421.207 307.929C414.015 302.571 406.133 300.562 406.866 297.898" stroke="#313B36" stroke-width="2" stroke-linecap="round"/>
<g clip-path="url(#clip4_1664_18286)">
<path d="M487.34 240.977C472.794 254.287 450.241 253.28 436.966 238.727C423.69 224.174 424.72 201.586 439.266 188.275C453.812 174.964 476.365 175.971 489.64 190.525C502.916 205.078 501.886 227.666 487.34 240.977Z" fill="#EFEDE7" fill-opacity="0.4"/>
<path d="M426.333 235.988L437.154 247.85L355.549 322.526C353.25 324.629 350.556 325.804 348.09 326.04C345.624 326.275 343.451 325.574 342.029 324.016C340.608 322.458 340.106 320.227 340.563 317.788C341.019 315.349 342.43 312.767 344.728 310.664L426.333 235.988Z" fill="#6F695D" stroke="#313B36" stroke-width="2"/>
<path fill-rule="evenodd" clip-rule="evenodd" d="M436.421 248.119L426 236.695L344.928 310.883C340.744 314.712 339.685 320.373 342.562 323.528C345.44 326.683 351.165 326.136 355.349 322.308L436.421 248.119ZM426.396 234.574L344.054 309.925C339.168 314.396 337.931 321.007 341.292 324.691C344.652 328.375 351.337 327.736 356.223 323.265L438.565 247.914L426.396 234.574Z" fill="#313B36"/>
<path d="M486.77 240.796L486.738 240.825L486.704 240.851C471.771 252.283 450.705 253.148 436.789 237.922C422.862 222.683 426.746 201.009 439.403 189.448C454.59 175.577 475.616 176.503 489.486 191.679L489.498 191.692L489.509 191.706C501.179 205.417 501.996 226.89 486.77 240.796ZM430.135 245.027C446.871 263.338 475.294 264.614 493.62 247.876C511.945 231.138 513.235 202.725 496.499 184.414C479.764 166.102 451.341 164.827 433.015 181.565C414.689 198.303 413.4 226.716 430.135 245.027Z" fill="#E7E1D2" stroke="#313B36" stroke-width="2"/>
</g>
<path d="M388.594 273.69L388.943 273.032L388.944 273.032L388.944 273.032L388.945 273.033L388.951 273.036L388.973 273.048L389.054 273.093C389.125 273.132 389.225 273.187 389.347 273.254C389.59 273.389 389.919 273.571 390.257 273.764C390.594 273.955 390.946 274.158 391.235 274.333C391.379 274.42 391.512 274.504 391.622 274.577C391.717 274.64 391.842 274.725 391.934 274.812L391.934 274.812C391.935 274.813 391.941 274.818 391.95 274.826C392.016 274.884 392.273 275.106 392.424 275.271C392.522 275.379 392.655 275.542 392.741 275.742C392.831 275.952 392.909 276.307 392.7 276.657C392.566 276.882 392.363 277.041 392.118 277.113C391.897 277.178 391.694 277.156 391.561 277.13C391.424 277.103 391.302 277.058 391.223 277.028C391.17 277.008 391.14 276.995 391.118 276.986C391.094 276.977 391.08 276.971 391.059 276.964C391.059 276.964 391.058 276.964 391.058 276.964L390.034 276.619C390.033 276.619 390.033 276.618 390.032 276.618C389.336 276.389 388.636 276.167 387.933 275.953L387.93 275.952C386.526 275.52 385.114 275.122 383.691 274.757L383.691 274.757C382.807 274.529 382.042 274.354 381.313 274.436C380.829 274.491 380.422 274.668 380.187 274.907L380.187 274.907L380.183 274.912C380.079 275.016 380.003 275.144 379.961 275.284C379.928 275.419 379.923 275.561 379.949 275.7C379.975 275.842 380.032 275.978 380.117 276.1L380.122 276.106L380.126 276.112C380.204 276.23 380.305 276.331 380.424 276.412C380.493 276.459 380.639 276.561 380.763 276.648L380.928 276.764L380.98 276.8L380.994 276.81L380.998 276.813L380.999 276.814L380.999 276.814L380.999 276.814L380.999 276.814L380.575 277.425L380.999 276.814L383.136 278.32L380.549 278.175L380.548 278.175L380.548 278.175L380.547 278.175L380.547 278.175L380.536 278.174C380.525 278.174 380.505 278.173 380.479 278.173C380.427 278.173 380.351 278.175 380.26 278.181C380.089 278.193 379.896 278.221 379.726 278.275C379.666 278.314 379.614 278.363 379.574 278.42L378.962 277.977L379.574 278.42C379.527 278.485 379.496 278.559 379.482 278.637C379.469 278.778 379.526 278.964 379.785 279.221C380.048 279.462 380.348 279.663 380.672 279.816L380.672 279.816L380.685 279.822C381.483 280.217 382.311 280.559 383.166 280.91L383.259 280.948C384.077 281.283 384.921 281.629 385.744 282.027M388.594 273.69L385.743 282.027C385.743 282.027 385.744 282.027 385.744 282.027M388.594 273.69L388.943 273.032L388.929 273.024L388.914 273.017L386.736 271.949L386.577 271.872L386.403 271.872C386.14 271.872 385.931 271.973 385.793 272.062C385.653 272.152 385.534 272.263 385.441 272.362C385.279 272.533 385.12 272.746 384.994 272.914C384.979 272.934 384.964 272.954 384.95 272.974C384.867 273.084 384.802 273.167 384.751 273.228C384.597 273.2 384.549 273.136 384.518 273.081C384.456 272.97 384.406 272.752 384.441 272.42C384.476 272.1 384.583 271.747 384.74 271.433C384.901 271.112 385.086 270.885 385.239 270.77C386.126 270.103 387.231 269.862 388.64 270.333C391.042 271.135 392.472 271.634 393.78 272.44C395.077 273.24 396.29 274.368 398.174 276.497L398.376 276.729C399.048 277.516 399.653 278.316 400.272 279.134C400.664 279.651 401.061 280.177 401.485 280.712C401.582 280.837 401.682 280.959 401.779 281.077C402.54 282.035 403.39 282.921 404.317 283.724L404.324 283.731L404.332 283.737C405.007 284.292 405.755 284.749 406.554 285.096C406.548 285.14 406.542 285.184 406.536 285.228C405.515 288.51 404.331 291.737 402.988 294.898C402.4 294.813 401.813 294.74 401.234 294.668L401.232 294.668C400.463 294.572 399.709 294.478 398.968 294.361L398.967 294.361C397.238 294.088 395.631 293.695 394.188 292.9L394.038 292.815C394.037 292.815 394.036 292.814 394.035 292.814C393.241 292.356 392.519 291.782 391.765 291.159C391.668 291.079 391.57 290.997 391.471 290.915C390.818 290.372 390.13 289.801 389.388 289.301L389.388 289.301C387.59 288.091 385.437 287.26 383.493 286.587L383.492 286.587C382.554 286.263 381.603 285.98 380.64 285.738L380.638 285.738C380.361 285.669 380.133 285.608 379.94 285.525C379.751 285.443 379.657 285.364 379.608 285.297L379.597 285.283L379.592 285.276L379.583 285.263L379.578 285.254C379.522 285.155 379.507 284.949 379.65 284.744C379.674 284.709 379.702 284.677 379.733 284.648L379.741 284.64L379.741 284.64C380.046 284.343 380.431 284.319 381.192 284.428C382.135 284.566 383.073 284.738 384.007 284.945C384.007 284.945 384.008 284.945 384.008 284.945L384.201 284.989L384.202 284.989C385.004 285.17 385.801 285.376 386.592 285.608L386.593 285.608C386.988 285.723 387.381 285.844 387.772 285.972C387.795 285.98 387.816 285.988 387.854 286.002C387.871 286.009 387.89 286.016 387.914 286.025C387.979 286.05 388.078 286.087 388.187 286.115C388.41 286.17 388.785 286.212 389.144 285.966C389.334 285.838 389.515 285.636 389.583 285.347C389.649 285.067 389.581 284.818 389.5 284.645C389.354 284.331 389.081 284.081 388.886 283.921C388.555 283.65 388.091 283.367 387.907 283.254C387.868 283.231 387.842 283.215 387.832 283.208L387.826 283.204L387.826 283.204C387.159 282.765 386.464 282.372 385.744 282.027M388.594 273.69L385.744 282.027M384.634 273.351C384.634 273.351 384.635 273.35 384.639 273.346C384.636 273.349 384.634 273.351 384.634 273.351ZM385.62 274.498C386.463 274.732 387.303 274.978 388.139 275.235L383.263 273.881C383.397 274.094 383.569 274.273 383.774 274.411C383.774 274.411 383.774 274.411 383.774 274.411C384.001 274.564 384.268 274.668 384.568 274.715C384.752 274.789 384.95 274.8 385.135 274.755C385.354 274.703 385.519 274.584 385.62 274.498Z" fill="#EFEDE7" stroke="#313B36" stroke-width="1.5"/>
<path d="M380.818 277.533C383.498 278.2 389.181 279.969 390.476 281.712" stroke="#313B36" stroke-width="1.5" stroke-linecap="round"/>
<path d="M407.993 281.498C409.646 282.478 415.516 284.887 415.516 284.887L410.479 291.828L407.561 299.567C407.561 299.567 406.47 299.78 404.527 298.187C402.583 296.594 401.044 296.163 400.64 294.99C400.263 293.894 401.28 292.662 402.25 289.901C403.804 285.476 406.027 280.332 407.993 281.498Z" fill="#907D73"/>
<path d="M413.883 285.928C413.883 285.928 408.575 293.635 407.874 298.792" stroke="#313B36" stroke-width="2" stroke-miterlimit="10" stroke-linecap="round"/>
</g>
<path d="M681.407 315.57V314.57H680.407H572.568V302.373L678.835 138.263H719.609V277.871V278.871H720.609H745.001V314.57H720.609H719.609V315.57V354.517H681.407V315.57Z" stroke="#313B36" stroke-width="2"/>
<path d="M679.407 276.871H631.538L679.407 198.363V276.871Z" stroke="#313B36" stroke-width="2"/>
<defs>
<clipPath id="clip0_1664_18286">
<rect width="370.288" height="376.503" fill="white" transform="translate(206.172 31.4423)"/>
</clipPath>
<clipPath id="clip1_1664_18286">
<rect width="84.404" height="110.223" fill="white" transform="translate(239.934 158.58)"/>
</clipPath>
<clipPath id="clip2_1664_18286">
<rect width="110.558" height="153.853" fill="white" transform="matrix(0.964547 -0.263913 0.26291 0.96482 244.29 157.201)"/>
</clipPath>
<clipPath id="clip3_1664_18286">
<rect width="57.347" height="104.954" fill="white" transform="matrix(0.986077 -0.16707 0.16668 0.985864 285.22 206.29)"/>
</clipPath>
<clipPath id="clip4_1664_18286">
<rect width="184.978" height="184.649" fill="white" transform="matrix(0.987491 0.157677 -0.157049 0.987591 347.974 144.468)"/>
</clipPath>
</defs>
</svg>
