<svg width="279" height="158" viewBox="0 0 279 158" fill="none" xmlns="http://www.w3.org/2000/svg">
<path d="M69.7052 92.4501L74.7201 86.303L76.9489 82.9501L105.367 65.6265L110.382 63.9501L114.839 59.4795L120.411 55.0089L126.541 49.9795L134.342 44.9501L139.914 44.3912H143.257L148.272 37.1265L151.615 31.5383L154.401 26.5089L156.63 18.6853L157.187 11.9795V6.39123L158.302 3.03829L160.53 1.36182H163.316L165.545 3.03829L166.102 8.62652V16.4501L165.545 27.6265L161.088 39.3618H168.889L178.918 38.2442L183.376 39.3618L184.49 45.5089L182.262 48.303L178.918 50.5383L170.56 53.8912L168.331 57.2442L172.232 56.6853L178.918 57.803L186.719 60.5971L197.863 64.5089L201.207 68.4206L202.321 72.8912L200.092 75.6853L195.077 77.3618L188.948 75.6853L177.804 77.3618L168.331 82.9501L160.53 86.8618L147.715 88.5383L136.013 101.391L123.755 108.656L113.168 112.009L106.577 115.676L102.113 118.471L81.9638 133.803L74.7201 135.479H67.4764L63.5759 133.244L61.9043 130.45L62.4615 125.979L67.4764 122.627L71.934 121.509L80.2922 113.127L82.521 108.656L80.2922 107.538L76.9489 109.774L73.6057 112.009L65.2475 114.803L52.9889 117.597H45.7452L42.9591 115.921L41.8447 110.891L42.9591 107.538L48.5312 105.862L54.1033 103.627L60.7899 99.1559L65.2475 96.9206L69.7052 92.4501Z" fill="#EFEDE7"/>
<path d="M156.816 16.7572C157.783 20.2502 164.3 22.3974 165.485 23.1557L166.66 16.7572L166.66 11.4204L164.431 2.47928L161.542 1.94142L158.955 3.15957L158.13 6.15584L157.807 13.1616L156.816 16.7572Z" fill="#C28145"/>
<path d="M124.579 52.4621C127.984 51.1383 131.739 51.1287 133.973 52.8882C136.207 54.6477 134.831 61.9443 130.211 64.7171C127.761 66.1875 121.362 73.1898 114.136 70.7049C108.355 68.717 105.664 66.5133 106.914 65.0048C106.914 65.0048 119.174 54.5633 124.579 52.4621Z" fill="#C28145"/>
<path d="M58.1865 101.741C58.7968 101.628 66.1794 95.8263 68.813 94.4297C68.813 94.4297 72.0338 99.9258 66.6901 102.272C61.6689 104.477 58.9514 107.597 56.7867 107.619C55.5588 107.632 52.9335 109.044 52.1302 107.082C51.3269 105.12 55.7452 102.196 58.1865 101.741Z" fill="#C28145"/>
<path d="M158.854 62.3521C153.631 59.8391 151.636 65.1469 152.083 67.8939C142.248 71.9989 147.837 78.4384 152.172 80.1765C155.534 81.5245 161.411 79.8676 163.549 75.4275C165.688 70.9874 164.078 64.8652 158.854 62.3521Z" fill="#C28145"/>
<path fill-rule="evenodd" clip-rule="evenodd" d="M73.7259 87.3092C74.0966 87.5928 74.1669 88.1228 73.8829 88.493C72.9401 89.7222 71.3615 91.6446 69.6763 93.4338C68.0199 95.1925 66.1633 96.9294 64.6757 97.6753C62.0549 98.9896 54.0063 104.134 50.271 106.569L50.0951 106.684L49.8858 106.703C48.8961 106.793 47.3541 107.011 45.9642 107.365C45.2681 107.542 44.6361 107.747 44.1392 107.975C43.6142 108.217 43.358 108.431 43.2696 108.564C43.0891 108.836 42.8703 109.43 42.7387 110.263C42.6109 111.072 42.5794 112.019 42.7063 112.942C42.9642 114.817 43.8174 116.342 45.5571 116.778C46.0082 116.891 46.7316 116.953 47.7131 116.945C48.6801 116.936 49.8466 116.86 51.1569 116.722C53.7768 116.447 56.9329 115.928 60.1478 115.235C63.3629 114.542 66.621 113.677 69.447 112.712C72.2921 111.74 74.6305 110.69 76.0564 109.65C76.4335 109.375 76.9624 109.458 77.2378 109.834C77.5132 110.211 77.4307 110.739 77.0536 111.014C75.4149 112.21 72.8777 113.325 69.994 114.31C67.0912 115.301 63.7673 116.182 60.5047 116.886C57.2421 117.589 54.0251 118.119 51.3341 118.402C49.989 118.544 48.7655 118.625 47.7279 118.634C46.7048 118.643 45.8088 118.582 45.1454 118.416C42.4274 117.735 41.3304 115.348 41.0311 113.172C40.8794 112.069 40.9176 110.955 41.0684 110C41.2154 109.069 41.4841 108.197 41.8609 107.63C42.2182 107.093 42.8349 106.716 43.4325 106.441C44.0581 106.154 44.7983 105.919 45.5463 105.728C46.9479 105.371 48.4684 105.147 49.5211 105.041C53.2914 102.586 61.2308 97.513 63.9171 96.166C65.1041 95.5708 66.7765 94.0479 68.4447 92.2766C70.0842 90.536 71.626 88.6584 72.5406 87.466C72.8246 87.0957 73.3552 87.0255 73.7259 87.3092Z" fill="#313B36"/>
<path fill-rule="evenodd" clip-rule="evenodd" d="M88.2761 103.568C88.6174 103.886 88.6357 104.421 88.3171 104.762L71.4155 122.842L71.1493 122.896C70.2376 123.078 68.7831 123.409 67.3969 123.802C66.7038 123.999 66.0375 124.208 65.4694 124.42C64.8881 124.637 64.4595 124.837 64.2094 125.005C63.9392 125.185 63.5668 125.589 63.2224 126.201C62.8857 126.8 62.6081 127.542 62.4852 128.343C62.2429 129.922 62.598 131.708 64.2906 133.163C65.0956 133.855 66.3107 134.307 67.8208 134.54C69.3186 134.771 71.0241 134.774 72.726 134.638C76.1436 134.363 79.4001 133.54 80.6974 133.019C80.8759 132.948 81.3258 132.681 82.0702 132.177C82.7838 131.694 83.6992 131.042 84.7703 130.261C86.8442 128.748 89.4772 126.769 92.3141 124.637L92.5926 124.428C98.4642 120.016 105.162 114.989 109.462 112.176C109.853 111.92 110.377 112.029 110.633 112.42C110.889 112.81 110.779 113.333 110.389 113.589C106.146 116.364 99.501 121.35 93.6092 125.778L93.3239 125.992C90.4927 128.12 87.8514 130.105 85.7676 131.625C84.6912 132.41 83.757 133.076 83.0186 133.576C82.3109 134.054 81.7063 134.435 81.3276 134.587C79.8389 135.184 76.4089 136.036 72.8614 136.321C71.0808 136.464 69.2341 136.467 67.5627 136.209C65.9038 135.953 64.3327 135.427 63.1876 134.443C60.9797 132.545 60.499 130.139 60.8138 128.087C60.9696 127.072 61.3188 126.137 61.7483 125.374C62.17 124.624 62.7031 123.979 63.2688 123.601C63.6873 123.321 64.2663 123.066 64.8783 122.838C65.5036 122.605 66.2165 122.381 66.9349 122.177C68.243 121.806 69.6023 121.491 70.549 121.294L87.0811 103.609C87.3998 103.268 87.9348 103.25 88.2761 103.568Z" fill="#313B36"/>
<path fill-rule="evenodd" clip-rule="evenodd" d="M76.5554 101.106C77.0223 101.106 77.4009 101.484 77.4009 101.95C77.4009 102.095 77.4715 102.441 77.7128 102.953C77.944 103.443 78.3026 104.025 78.7985 104.627C79.7894 105.83 81.3023 107.086 83.3767 107.866C83.8137 108.03 84.0346 108.517 83.87 108.954C83.7055 109.39 83.2179 109.611 82.7809 109.446C80.3977 108.55 78.6488 107.104 77.4925 105.7C76.9148 104.998 76.4783 104.299 76.1829 103.672C75.8975 103.066 75.71 102.457 75.71 101.95C75.71 101.484 76.0885 101.106 76.5554 101.106Z" fill="#313B36"/>
<path fill-rule="evenodd" clip-rule="evenodd" d="M168.293 84.1371C167.927 84.3699 167.586 84.5868 167.272 84.7832C165.376 85.9716 161.931 87.2554 158.295 88.1034C154.872 88.9018 151.13 89.3498 148.228 88.8994C145.94 91.7579 140.496 97.994 134.499 103.149C131.275 105.921 126.623 108.291 122.168 110.056C117.708 111.823 113.351 113.019 110.665 113.404C110.203 113.47 109.774 113.15 109.708 112.688C109.642 112.227 109.963 111.799 110.425 111.732C112.939 111.372 117.163 110.222 121.544 108.486C125.93 106.749 130.38 104.462 133.396 101.869C139.583 96.5506 145.192 90.0377 147.212 87.4596L147.533 87.0497L148.044 87.1521C150.65 87.6745 154.352 87.2887 157.91 86.4588C161.463 85.6302 164.703 84.3994 166.374 83.3526C166.676 83.1628 167.01 82.9508 167.371 82.7212C169.635 81.2815 172.982 79.1532 176.644 77.5007C180.86 75.5983 185.696 74.2281 189.902 75.433C190.351 75.5616 190.61 76.0293 190.481 76.4776C190.352 76.9259 189.884 77.185 189.435 77.0564C185.84 76.0261 181.483 77.1704 177.34 79.0398C173.799 80.638 170.564 82.6941 168.293 84.1371Z" fill="#313B36"/>
<path fill-rule="evenodd" clip-rule="evenodd" d="M154.333 55.2636C154.502 54.8285 154.991 54.6121 155.427 54.7801C157.754 55.6778 163.992 57.276 170.047 56.4086C174.09 55.8293 177.002 56.2675 180.094 57.2048C181.396 57.5996 182.736 58.0851 184.193 58.6125C184.442 58.7027 184.694 58.794 184.95 58.8864C186.712 59.5219 188.679 60.2138 191.023 60.9052C195.852 62.3297 199.104 64.3587 200.926 66.7178C202.775 69.1131 203.101 71.7946 202.162 74.3046C201.363 76.4416 199.628 77.4218 197.909 77.7833C196.217 78.1391 194.461 77.9227 193.346 77.6178C192.896 77.4946 192.631 77.0301 192.754 76.5803C192.877 76.1305 193.342 75.8657 193.793 75.9889C194.721 76.2427 196.197 76.4175 197.56 76.1307C198.897 75.8496 200.04 75.1533 200.578 73.7138C201.312 71.7532 201.081 69.6847 199.586 67.7491C198.064 65.7774 195.187 63.8946 190.544 62.5249C188.152 61.8193 186.148 61.1141 184.376 60.4749C184.115 60.3808 183.86 60.2884 183.609 60.1977C182.15 59.6695 180.858 59.2015 179.603 58.8209C176.704 57.9421 174.044 57.5421 170.287 58.0804C163.859 59.0012 157.32 57.3208 154.817 56.3556C154.382 56.1875 154.165 55.6986 154.333 55.2636Z" fill="#313B36"/>
<path fill-rule="evenodd" clip-rule="evenodd" d="M158.838 5.32802C158.209 7.23559 158.033 9.51148 158.033 10.8618V10.8801C158.033 12.8282 158.033 14.5615 157.674 16.7935C157.314 19.0276 156.601 21.7348 155.198 25.6742C152.691 32.7141 147.491 41.1503 143.871 44.9716L143.621 45.2356H143.257C138.462 45.2356 133.365 47.2463 128.66 50.0743C123.967 52.8947 119.744 56.4799 116.716 59.5165C111.678 64.5691 107.515 65.8596 105.178 66.4455C104.726 66.5591 104.266 66.2844 104.153 65.8321C104.039 65.3797 104.314 64.921 104.767 64.8074C106.887 64.2757 110.749 63.1074 115.518 58.3247C118.619 55.2142 122.951 51.5347 127.788 48.6272C132.499 45.7959 137.766 43.6503 142.885 43.5504C146.316 39.7995 151.223 31.7962 153.605 25.1082C154.988 21.224 155.667 18.6224 156.004 16.5256C156.341 14.4338 156.342 12.818 156.342 10.8618C156.342 9.41796 156.525 6.94385 157.232 4.79994C157.913 2.73191 159.251 0.517334 161.808 0.517334C162.959 0.517334 163.882 0.852746 164.596 1.46213C165.292 2.05673 165.721 2.85433 166.007 3.66622C166.292 4.47751 166.455 5.36291 166.581 6.18527C166.624 6.47032 166.663 6.74318 166.7 7.00531C166.774 7.52989 166.842 8.01146 166.932 8.46152C167.231 9.96079 167.506 13.9554 167.155 18.8849C166.803 23.8282 165.816 29.7948 163.539 35.2177C159.928 43.8175 156.171 48.2952 152.167 51.7371C151.813 52.0413 151.279 52.0014 150.974 51.6479C150.67 51.2944 150.71 50.7613 151.064 50.457C154.861 47.1931 158.466 42.9331 161.98 34.5646C164.161 29.3699 165.124 23.6013 165.468 18.7651C165.814 13.9152 165.532 10.0863 165.273 8.79144C165.174 8.29475 165.095 7.73244 165.017 7.17965C164.981 6.92878 164.946 6.67986 164.909 6.43994C164.787 5.63822 164.642 4.88207 164.411 4.22646C164.181 3.57143 163.884 3.07675 163.497 2.7458C163.127 2.42963 162.607 2.20622 161.808 2.20622C160.464 2.20622 159.492 3.34459 158.838 5.32802Z" fill="#313B36"/>
<path fill-rule="evenodd" clip-rule="evenodd" d="M171.554 39.5878C168.361 39.8831 165.098 40.3822 163.075 40.7512C162.615 40.835 162.175 40.5309 162.091 40.0722C162.007 39.6134 162.312 39.1735 162.771 39.0898C164.833 38.7137 168.146 38.2069 171.398 37.9061C173.024 37.7557 174.646 37.6558 176.094 37.6511C177.529 37.6463 178.849 37.7342 179.845 37.9838C180.298 38.0974 180.573 38.5561 180.459 39.0084C180.345 39.4608 179.886 39.7354 179.433 39.6219C178.646 39.4245 177.495 39.3353 176.1 39.3399C174.719 39.3445 173.15 39.4402 171.554 39.5878Z" fill="#313B36"/>
<path fill-rule="evenodd" clip-rule="evenodd" d="M182.526 39.2095C182.919 38.9581 183.442 39.0726 183.694 39.4654C184.585 40.8551 185.523 43.117 185.285 45.3467C185.164 46.4846 184.735 47.6181 183.84 48.5916C182.948 49.5599 181.644 50.3174 179.857 50.7953C175.722 51.9014 173.324 52.9868 171.771 54.0905C170.242 55.1761 169.479 56.3135 168.663 57.6774C168.424 58.0777 167.905 58.2084 167.504 57.9691C167.103 57.7299 166.972 57.2114 167.212 56.8111C168.067 55.3809 168.976 54.0036 170.791 52.7142C172.58 51.4429 175.198 50.293 179.42 49.1638C180.977 48.7475 181.971 48.1266 182.595 47.4487C183.214 46.776 183.516 45.9956 183.604 45.1683C183.785 43.4675 183.051 41.5942 182.27 40.376C182.018 39.9833 182.133 39.461 182.526 39.2095Z" fill="#313B36"/>
<path d="M121.275 74.1062L117.374 79.8164L117.359 81.9212L115.145 85.5572L113.711 90.69L110.674 94.0629L107.04 98.8001L103.718 101.055L99.6349 103.148L96.0436 102.515L94.0389 102.188L89.4235 100.366L83.0235 96.2775L77.0099 89.9149L69.5359 77.3116L72.5105 67.694L77.1444 61.9546L82.3647 58.0748L87.9689 56.487L92.5883 52.8524L97.6132 48.3528L100.017 47.3716L100.763 55.1129L101.111 62.6669L103.095 64.6556L109.439 70.2648L113.645 70.04L123.347 69.6206L121.275 74.1062Z" fill="#EFEDE7"/>
<path d="M121.312 74.708L117.372 80.8385L114.763 85.965L111.827 93.0219C104.28 90.9611 100.205 76.3342 100.178 71.7523C90.6519 77.7795 78.0336 64.2559 80.8261 58.6885L87.9573 56.4411L93.8276 51.317L99.8372 47.3614L101.044 53.2519L99.9605 63.0696L102.743 63.7219L107.04 66.7945L108.716 69.5632L123.955 69.5955L121.312 74.708Z" fill="#C28145"/>
<path fill-rule="evenodd" clip-rule="evenodd" d="M117.235 82.3056C117.234 82.3179 117.232 82.3307 117.231 82.3438C117.211 82.5303 117.177 82.799 117.121 83.1416C117.009 83.8267 116.809 84.8076 116.454 86.016C115.744 88.4334 114.416 91.7614 111.941 95.4535C110.168 98.0967 107.474 101.101 103.363 102.337C99.2289 103.581 93.8589 102.978 86.8655 98.8214C86.4647 98.5831 86.3323 98.064 86.5699 97.6619C86.8075 97.2598 87.325 97.127 87.7258 97.3652C94.4578 101.367 99.3349 101.782 102.879 100.716C106.447 99.6431 108.862 97.0124 110.541 94.509C112.909 90.9768 114.168 87.8098 114.835 85.5381C115.169 84.4021 115.354 83.4899 115.456 82.8682C115.507 82.5573 115.536 82.3192 115.553 82.1621C115.562 82.0836 115.567 82.0253 115.57 81.9884C115.572 81.9699 115.573 81.9567 115.573 81.9491L115.574 81.9426L115.574 81.942L115.574 81.9417L115.574 81.9416L115.574 81.9411L115.588 81.6885L115.74 81.4846C116.139 80.9495 116.587 80.3567 117.058 79.7335C118.155 78.2828 119.377 76.6673 120.386 75.2316C121.109 74.2035 121.696 73.3041 122.042 72.6485C122.101 72.5362 122.15 72.4376 122.189 72.352C122.179 72.3492 122.169 72.3463 122.159 72.3434C121.856 72.2595 121.461 72.1615 120.991 72.0569C120.052 71.848 118.833 71.6171 117.496 71.4235C114.798 71.0327 111.717 70.8081 109.482 71.1696L109.023 71.2439L108.716 70.8944C107.927 69.9987 106.516 68.4274 104.973 66.9786C104.202 66.2541 103.408 65.5707 102.652 65.0211C101.886 64.4642 101.205 64.0795 100.655 63.9066L100.06 63.7193L100.064 63.0934C100.082 60.4625 100.085 56.8517 99.9361 53.8334C99.8613 52.3205 99.7494 50.9833 99.5878 50.0017C99.5175 49.5746 99.4417 49.2406 99.3651 48.999C99.1123 49.1427 98.783 49.3598 98.3871 49.6447C97.4881 50.2918 96.3378 51.2216 95.144 52.2329C92.7574 54.2546 90.2611 56.5472 89.3754 57.4222L89.1506 57.6443L88.8358 57.664C87.5962 57.7415 85.1573 58.4713 82.3263 59.9553C79.5201 61.4263 76.416 63.5934 73.8288 66.4606C70.3139 70.3561 70.2622 74.9502 70.4879 76.8039C70.5986 77.7127 70.9646 79.2815 71.7032 80.9303C72.4421 82.58 73.5275 84.2506 75.0425 85.4329C75.4103 85.7198 75.4764 86.2515 75.1903 86.6204C74.9042 86.9894 74.3742 87.0558 74.0064 86.7689C72.2027 85.3614 70.972 83.4278 70.1641 81.6242C69.3559 79.8198 68.9443 78.0863 68.8131 77.0094C68.5552 74.8919 68.6088 69.7237 72.578 65.3249C75.3251 62.2804 78.6003 59.9989 81.5451 58.4553C84.2759 57.0238 86.8003 56.1868 88.4099 56.0034C89.4713 54.9779 91.8154 52.8375 94.0556 50.9398C95.2599 49.9196 96.4502 48.9559 97.4037 48.2696C97.877 47.9289 98.3154 47.6395 98.68 47.4458C98.8597 47.3503 99.0526 47.2612 99.2417 47.2062C99.3847 47.1646 99.7323 47.0767 100.085 47.2424C100.355 47.3694 100.531 47.5789 100.641 47.7467C100.756 47.9217 100.844 48.1192 100.915 48.3136C101.055 48.7026 101.164 49.1901 101.252 49.7256C101.43 50.8039 101.546 52.2176 101.621 53.7493C101.762 56.5983 101.769 59.9486 101.755 62.5189C102.379 62.7969 103.02 63.1978 103.642 63.6505C104.475 64.256 105.325 64.9903 106.126 65.7428C107.544 67.0739 108.845 68.4948 109.678 69.4321C112.111 69.1263 115.171 69.3766 117.738 69.7483C119.116 69.948 120.376 70.1864 121.357 70.4045C121.847 70.5135 122.271 70.6185 122.609 70.7122C122.928 70.8007 123.22 70.893 123.411 70.9828C123.749 71.1416 123.928 71.437 123.989 71.7201C124.042 71.9644 124.01 72.1952 123.973 72.3593C123.898 72.6945 123.728 73.0715 123.533 73.44C123.134 74.1971 122.494 75.1704 121.765 76.2068C120.738 77.6676 119.484 79.3264 118.38 80.7867C117.971 81.3268 117.583 81.8398 117.235 82.3056ZM99.7115 48.8317C99.7374 48.8242 99.7341 48.8282 99.709 48.8324C99.7099 48.8322 99.7107 48.8319 99.7115 48.8317ZM99.2303 48.6754C99.2281 48.6727 99.227 48.6712 99.227 48.6711C99.2271 48.671 99.2282 48.6723 99.2303 48.6754ZM122.331 71.9636C122.331 71.9635 122.331 71.9654 122.33 71.9695C122.331 71.9657 122.331 71.9636 122.331 71.9636Z" fill="#313B36"/>
<path fill-rule="evenodd" clip-rule="evenodd" d="M76.2009 88.0642C75.8528 88.3751 75.8219 88.9098 76.1318 89.2585C78.2808 91.6759 79.6384 93.075 80.7958 94.12C81.7985 95.0254 82.6451 95.6588 83.6889 96.4397C83.8509 96.5609 84.0176 96.6856 84.1904 96.8155C84.5632 97.0956 85.0922 97.0197 85.372 96.6459C85.6518 96.272 85.5763 95.7419 85.2035 95.4617C85.0265 95.3286 84.8573 95.202 84.6946 95.0802C83.6499 94.2984 82.8675 93.7128 81.9259 92.8627C80.8368 91.8793 79.527 90.5339 77.3924 88.1326C77.0825 87.7839 76.549 87.7533 76.2009 88.0642Z" fill="#313B36"/>
<path fill-rule="evenodd" clip-rule="evenodd" d="M86.8094 85.1793L85.0405 85.2702C84.5727 85.2943 84.1955 85.6908 84.198 86.1558C84.2005 86.6208 84.5817 86.9783 85.0496 86.9543L85.2945 86.9417L85.3357 87.3078C85.3875 87.7677 85.8064 88.0814 86.2714 88.0084C86.7363 87.9355 87.0712 87.5035 87.0194 87.0436L86.8094 85.1793Z" fill="#313B36"/>
<path fill-rule="evenodd" clip-rule="evenodd" d="M243.518 72.0611C244.142 73.8497 244.627 75.7045 244.961 77.6198L243.32 78.0115C242.756 76.1615 242.279 74.3344 241.892 72.5419C235.54 54.4995 214.335 43.2723 193.474 45.5714L193.289 43.8927C212.466 41.7792 232.187 50.7684 240.893 66.2507C240.443 61.65 240.692 57.4101 241.716 53.7682C242.646 50.4624 244.222 47.6286 246.513 45.482C248.809 43.3314 251.783 41.9094 255.44 41.3683C260.044 40.687 265.217 42.8409 269.434 46.1696C273.662 49.5067 277.118 54.1696 278.195 58.7899L276.548 59.174C275.582 55.0325 272.412 50.6731 268.385 47.495C264.348 44.3086 259.638 42.4542 255.686 43.039C252.336 43.5348 249.69 44.8212 247.669 46.7137C245.645 48.6101 244.208 51.1541 243.344 54.2241C241.971 59.1063 242.065 65.2656 243.518 72.0611Z" fill="#313B36"/>
<g clip-path="url(#clip0_766_8748)">
<path d="M40.3103 136.098C41.7104 126.864 35.3699 118.248 26.1483 116.853C16.9268 115.458 8.31619 121.813 6.91605 131.047C5.5159 140.281 11.8564 148.897 21.078 150.292C30.2995 151.687 38.9101 145.332 40.3103 136.098Z" fill="#EDE9E1"/>
<path fill-rule="evenodd" clip-rule="evenodd" d="M38.8075 135.871C40.0817 127.468 34.3118 119.627 25.9202 118.358C17.5286 117.088 9.69292 122.871 8.41879 131.274C7.14466 139.677 12.9145 147.518 21.3061 148.788C29.6978 150.057 37.5334 144.274 38.8075 135.871ZM26.1483 116.853C35.3699 118.248 41.7104 126.864 40.3103 136.098C38.9101 145.332 30.2995 151.687 21.078 150.292C11.8564 148.897 5.5159 140.281 6.91605 131.047C8.31619 121.813 16.9268 115.458 26.1483 116.853Z" fill="#313B36"/>
<path opacity="0.82" d="M25.2113 123.971C22.8632 123.138 21.2523 121.637 21.6133 120.619C21.9744 119.601 24.1706 119.451 26.5188 120.284C28.8669 121.117 30.4778 122.618 30.1168 123.636C29.7557 124.654 27.5595 124.804 25.2113 123.971Z" fill="white"/>
<path opacity="0.15" d="M12.6403 142.231L10.5198 143.796C9.73803 142.734 9.07613 141.59 8.54782 140.387C5.51469 133.478 7.26764 125.383 13.2281 120.984C13.3425 120.899 13.462 120.811 13.5822 120.731C8.18404 126.265 7.63818 135.386 12.6403 142.231Z" fill="#9FACB5"/>
<path d="M37.2129 123.535C38.0017 124.606 38.6616 125.766 39.179 126.992C42.1499 134.03 40.042 142.444 33.6256 147.179C27.2092 151.915 18.5606 151.439 12.7278 146.514C11.7124 145.656 10.8014 144.681 10.0137 143.609L37.2129 123.535Z" fill="#D8C5A8"/>
<path fill-rule="evenodd" clip-rule="evenodd" d="M39.179 126.992C38.8593 126.235 38.4851 125.502 38.0597 124.8C37.7998 124.372 37.5209 123.954 37.2236 123.55C37.22 123.545 37.2164 123.54 37.2129 123.535L10.0137 143.609C10.0166 143.613 10.0196 143.617 10.0225 143.621C10.3209 144.026 10.6368 144.417 10.9694 144.794C11.5127 145.409 12.1003 145.983 12.7278 146.514C18.5606 151.439 27.2092 151.915 33.6256 147.179C40.042 142.444 42.15 134.03 39.179 126.992ZM13.7082 145.35C13.1719 144.897 12.6676 144.408 12.1987 143.886L36.8303 125.708C37.1886 126.311 37.5056 126.938 37.7789 127.585L37.7789 127.585C40.4823 133.989 38.562 141.646 32.7243 145.954C26.887 150.263 19.0165 149.832 13.7088 145.351" fill="#313B36"/>
<path opacity="0.15" d="M13.9188 140.656C18.7568 146.506 27.3725 147.643 33.5902 143.1C39.8079 138.557 41.353 129.994 37.2699 123.593L37.2933 123.576C38.0769 124.651 38.7315 125.814 39.2436 127.042C42.1761 134.097 40.0283 142.501 33.59 147.206C27.1518 151.91 18.5031 151.392 12.6943 146.439C11.6826 145.576 10.776 144.597 9.99346 143.522L13.9188 140.656Z" fill="#313B36"/>
</g>
<path d="M84.3779 76.3714L85.9427 74.7791" stroke="#313B36" stroke-width="3" stroke-linecap="round"/>
<path d="M96.65 85.6862L95.5231 87.2104" stroke="#313B36" stroke-width="3" stroke-linecap="round"/>
<ellipse cx="0.936141" cy="0.998071" rx="0.936141" ry="0.998071" transform="matrix(-0.996155 -0.0877404 -0.136478 0.990646 88.5547 82.9802)" fill="#313B36"/>
<path d="M69.919 75.7587C68.2988 74.6612 64.4143 72.2592 61.8381 71.4314" stroke="#313B36" stroke-linecap="round"/>
<path d="M73.0523 72.4885C73.0523 72.4885 71.2477 68.0524 65.1013 65.8143" stroke="#313B36" stroke-linecap="round"/>
<path d="M94.0838 101.703C95.1882 103.364 97.6172 107.353 98.4973 110.029" stroke="#313B36" stroke-linecap="round"/>
<path d="M97.8051 98.2896C100.175 99.8716 103.601 102.395 105.365 106.866" stroke="#313B36" stroke-linecap="round"/>
<defs>
<clipPath id="clip0_766_8748">
<rect width="33.8039" height="33.792" fill="white" transform="matrix(0.804599 -0.593819 0.592685 0.805434 0 130)"/>
</clipPath>
</defs>
</svg>
