<svg width="224" height="133" viewBox="0 0 224 133" fill="none" xmlns="http://www.w3.org/2000/svg">
<g clip-path="url(#clip0_1657_12578)">
<path fill-rule="evenodd" clip-rule="evenodd" d="M31.0549 2.11882C30.0023 2.11882 28.9968 2.53071 28.2586 3.25743C27.5211 3.98346 27.1106 4.96369 27.1106 5.98128V37.9406C27.1106 38.5257 26.6381 39 26.0553 39C25.4725 39 25 38.5257 25 37.9406V5.98128C25 4.38817 25.6431 2.86464 26.7808 1.74463C27.9178 0.62531 29.4556 0 31.0549 0H184.945C186.544 0 188.082 0.62531 189.219 1.74463C190.357 2.86467 191 4.38821 191 5.98128V29.3566C191 29.9417 190.528 30.4161 189.945 30.4161C189.362 30.4161 188.889 29.9417 188.889 29.3566V5.98128C188.889 4.96364 188.479 3.98343 187.742 3.25743C187.003 2.53071 185.998 2.11882 184.945 2.11882H31.0549Z" fill="#313B36"/>
<path fill-rule="evenodd" clip-rule="evenodd" d="M26.0551 60C26.6379 60 27.1103 60.4689 27.1103 61.0473V110.087C27.1103 111.093 27.5206 112.062 28.2579 112.78C28.996 113.498 30.0013 113.905 31.0538 113.905H162.945C163.528 113.905 164 114.374 164 114.953C164 115.531 163.528 116 162.945 116H31.0538C29.4548 116 27.9172 115.382 26.7804 114.275C25.6429 113.168 25 111.662 25 110.087V61.0473C25 60.4689 25.4724 60 26.0551 60Z" fill="#313B36"/>
<path fill-rule="evenodd" clip-rule="evenodd" d="M31.0549 2.11887C30.0023 2.11887 28.9968 2.53077 28.2586 3.25751C27.5211 3.98355 27.1106 4.96381 27.1106 5.98142V25.682C27.1106 26.2671 26.6381 26.7415 26.0553 26.7415C25.4725 26.7415 25 26.2671 25 25.682V5.98142C25 4.38827 25.6431 2.86471 26.7808 1.74467C27.9178 0.625324 29.4556 0 31.0549 0H184.945C186.544 0 188.082 0.625324 189.219 1.74467C190.357 2.86474 191 4.38832 191 5.98142V65.9406C191 66.5257 190.528 67 189.945 67C189.362 67 188.889 66.5257 188.889 65.9406V5.98142C188.889 4.96376 188.479 3.98352 187.742 3.25751C187.003 2.53077 185.998 2.11887 184.945 2.11887H31.0549Z" fill="#313B36"/>
<path fill-rule="evenodd" clip-rule="evenodd" d="M26 100C26 99.4477 26.4712 99 27.0524 99H167.948C168.529 99 169 99.4477 169 100C169 100.552 168.529 101 167.948 101H27.0524C26.4712 101 26 100.552 26 100Z" fill="#313B36"/>
<path fill-rule="evenodd" clip-rule="evenodd" d="M121.295 114.06C121.846 113.864 122.447 114.165 122.637 114.733L127.942 130.557C128.054 130.89 128.002 131.257 127.804 131.544C127.606 131.83 127.286 132 126.944 132H97.0557C96.7189 132 96.4024 131.835 96.2036 131.554C96.0048 131.274 95.9476 130.914 96.0496 130.583L100.932 114.758C101.109 114.186 101.702 113.869 102.258 114.051C102.814 114.233 103.121 114.845 102.944 115.417L98.499 129.825H125.463L120.642 115.443C120.451 114.875 120.744 114.256 121.295 114.06Z" fill="#313B36"/>
<path fill-rule="evenodd" clip-rule="evenodd" d="M39 12.0516C38.4429 12.0516 38.0253 12.495 38.0253 13C38.0253 13.505 38.4429 13.9484 39 13.9484C39.5571 13.9484 39.9747 13.505 39.9747 13C39.9747 12.495 39.5571 12.0516 39 12.0516ZM36 13C36 11.3243 37.3619 10 39 10C40.6381 10 42 11.3243 42 13C42 14.6757 40.6381 16 39 16C37.3619 16 36 14.6757 36 13Z" fill="#313B36"/>
<path fill-rule="evenodd" clip-rule="evenodd" d="M49 12.0516C48.4429 12.0516 48.0253 12.495 48.0253 13C48.0253 13.505 48.4429 13.9484 49 13.9484C49.5571 13.9484 49.9747 13.505 49.9747 13C49.9747 12.495 49.5571 12.0516 49 12.0516ZM46 13C46 11.3243 47.3619 10 49 10C50.6381 10 52 11.3243 52 13C52 14.6757 50.6381 16 49 16C47.3619 16 46 14.6757 46 13Z" fill="#313B36"/>
<path fill-rule="evenodd" clip-rule="evenodd" d="M59 12.0516C58.4429 12.0516 58.0253 12.495 58.0253 13C58.0253 13.505 58.4429 13.9484 59 13.9484C59.5571 13.9484 59.9747 13.505 59.9747 13C59.9747 12.495 59.5571 12.0516 59 12.0516ZM56 13C56 11.3243 57.3619 10 59 10C60.6381 10 62 11.3243 62 13C62 14.6757 60.6381 16 59 16C57.3619 16 56 14.6757 56 13Z" fill="#313B36"/>
<path d="M175.513 124.717L167.762 120.815L167.057 129.27L175.513 124.717Z" fill="#313B36"/>
<path d="M214.644 53.0639L209.146 51.0569L206.642 52.0663L202.993 56.5553L203.32 57.9448L217.148 65.854L219.765 62.6713L220.961 59.4411L219.652 56.3059L214.644 53.0639Z" fill="#C28145"/>
<path d="M222.237 128.655H171.111L175.697 125.908C175.823 125.841 176.483 125.384 176.483 125.384L182.382 121.839C182.989 121.474 183.529 121.014 183.98 120.478C184.068 120.42 184.143 120.343 184.198 120.254L215.397 70.7465L218.051 66.5398C218.084 66.4719 218.11 66.4008 218.128 66.3276L220.833 62.046C221.563 60.8774 221.787 59.4768 221.457 58.1489C221.126 56.821 220.268 55.6733 219.068 54.9557L211.971 50.7614C211.135 50.2705 210.178 50.0074 209.201 50C208.285 49.9981 207.384 50.2273 206.587 50.665C205.79 51.1027 205.123 51.7339 204.654 52.4966L202.026 56.7283C201.957 56.7814 201.896 56.8446 201.846 56.9156L199.27 61.0848L168.019 110.529L167.955 110.654C167.902 110.734 167.867 110.823 167.852 110.917C167.555 111.551 167.376 112.231 167.324 112.926L166.757 119.667L166.68 120.591L166.01 128.655C165.976 128.945 166.03 129.239 166.165 129.5C166.299 129.762 166.51 129.98 166.77 130.128H166.873H166.95C167.178 130.254 167.435 130.323 167.697 130.327C167.915 130.319 168.129 130.272 168.329 130.19H222.237C222.459 130.19 222.672 130.105 222.829 129.952C222.986 129.8 223.075 129.594 223.075 129.379C223.075 129.163 222.986 128.957 222.829 128.805C222.672 128.653 222.459 128.567 222.237 128.567V128.655ZM219.416 61.2471L217.033 64.992L203.714 57.1153L206.097 53.3705C206.345 52.9734 206.672 52.6276 207.059 52.3535C207.446 52.0794 207.885 51.8822 208.35 51.7731C208.816 51.664 209.3 51.6453 209.773 51.7181C210.246 51.7908 210.7 51.9536 211.108 52.197L218.205 56.3912C219.02 56.8793 219.603 57.6583 219.83 58.5599C220.057 59.4615 219.908 60.4133 219.416 61.2096V61.2471ZM167.685 128.655L168.264 121.652L173.958 125.022L167.904 128.655H167.685ZM175.555 124.061L168.419 119.842L168.986 113.064C168.986 112.939 168.986 112.814 169.063 112.689L171.729 114.262L181.815 120.229C181.712 120.304 181.622 120.391 181.506 120.466L175.555 124.061ZM216.196 66.4025L214.418 69.2237L201.022 61.2971L202.799 58.4759L216.196 66.4025ZM202.426 64.0308L171.897 112.464L169.604 111.116L200.146 62.6702L202.426 64.0308ZM173.314 113.313L203.856 64.8672L213.555 70.6093L183.026 119.055L173.314 113.313Z" fill="#313B36"/>
<path fill-rule="evenodd" clip-rule="evenodd" d="M122.572 55.2341C121.389 54.0737 119.512 54.0203 118.264 55.1114L102.676 68.747C102.237 69.1313 101.569 69.0867 101.185 68.6474C100.8 68.208 100.845 67.5403 101.284 67.1559L116.873 53.5203C118.952 51.7018 122.08 51.7909 124.052 53.7248L142.681 71.9929C143.098 72.4016 143.104 73.0707 142.695 73.4875C142.287 73.9043 141.618 73.9108 141.201 73.5021L122.572 55.2341Z" fill="#313B36"/>
<path fill-rule="evenodd" clip-rule="evenodd" d="M148.836 56.3066C150.818 54.3627 153.967 54.2841 156.044 56.1265L169.539 68.0993C169.976 68.4867 170.016 69.1547 169.628 69.5914C169.241 70.0281 168.573 70.068 168.136 69.6806L154.641 57.7078C153.395 56.6024 151.506 56.6495 150.316 57.8158L138.501 69.4029C138.084 69.8116 137.415 69.8051 137.006 69.3883C136.597 68.9715 136.604 68.3023 137.021 67.8936L148.836 56.3066Z" fill="#313B36"/>
<path fill-rule="evenodd" clip-rule="evenodd" d="M166.454 27.7169H104.887C103.719 27.7169 102.773 28.6633 102.773 29.8308V78.7685C102.773 79.9359 103.719 80.8824 104.887 80.8824H166.454C167.621 80.8824 168.567 79.9359 168.567 78.7685V29.8308C168.567 28.6633 167.621 27.7169 166.454 27.7169ZM104.887 25.603C102.552 25.603 100.659 27.4959 100.659 29.8308V78.7685C100.659 81.1034 102.552 82.9962 104.887 82.9962H166.454C168.788 82.9962 170.681 81.1034 170.681 78.7685V29.8308C170.681 27.4959 168.788 25.603 166.454 25.603H104.887Z" fill="#313B36"/>
<path d="M144.686 38.9697L145.523 47.325C145.594 47.6887 145.63 48.0576 145.632 48.4273C145.655 52.3699 141.706 55.5875 136.808 55.6153C131.91 55.6432 127.924 52.4708 127.9 48.5282C127.899 48.2927 127.912 48.0573 127.939 47.823L127.897 47.8631L128.779 39.3302C128.791 39.2199 128.832 39.1141 128.899 39.0227C128.966 38.9314 129.056 38.8575 129.162 38.808C129.268 38.7585 129.385 38.7351 129.503 38.7398C129.621 38.7446 129.736 38.7774 129.837 38.8353L134.557 41.5658C135.269 41.4169 135.995 41.3404 136.724 41.3374C137.407 41.3341 138.088 41.394 138.758 41.5163L143.226 38.364C143.355 38.2702 143.509 38.211 143.672 38.1925C143.834 38.174 143.999 38.197 144.148 38.259C144.298 38.3211 144.427 38.4198 144.521 38.5449C144.616 38.67 144.673 38.8167 144.686 38.9697Z" fill="#C28145"/>
<path fill-rule="evenodd" clip-rule="evenodd" d="M143.542 47.6166L142.885 41.0525L139.225 43.6346L138.399 43.4837C137.851 43.3837 137.294 43.3346 136.735 43.3374L136.733 43.3374C136.138 43.3398 135.546 43.4023 134.967 43.5234L134.218 43.68L130.559 41.5635L130.443 42.6896L130.546 42.5919L129.926 48.049C129.908 48.2049 129.9 48.3615 129.9 48.518C129.916 50.9727 132.577 53.6394 136.796 53.6154C141.016 53.5914 143.647 50.8937 143.632 48.4387L143.632 48.4369C143.631 48.1927 143.607 47.9489 143.56 47.7079L143.542 47.6166ZM128.779 39.3302C128.791 39.2199 128.832 39.1141 128.899 39.0227C128.966 38.9314 129.056 38.8575 129.162 38.808C129.268 38.7585 129.385 38.7351 129.503 38.7398C129.621 38.7446 129.736 38.7774 129.837 38.8353L134.557 41.5658C135.269 41.4169 135.995 41.3404 136.724 41.3374C137.407 41.3341 138.088 41.394 138.758 41.5163L143.226 38.364C143.355 38.2702 143.509 38.211 143.672 38.1925C143.834 38.174 143.999 38.197 144.148 38.259C144.298 38.3211 144.427 38.4198 144.521 38.5449C144.616 38.67 144.673 38.8167 144.686 38.9697L145.523 47.325C145.594 47.6887 145.63 48.0576 145.632 48.4273C145.655 52.3699 141.706 55.5875 136.808 55.6153C132.686 55.6388 129.21 53.3957 128.198 50.3346C128.007 49.7582 127.904 49.1529 127.9 48.5282C127.9 48.3181 127.91 48.1081 127.931 47.8989C127.932 47.8883 127.933 47.8776 127.934 47.8669C127.936 47.8523 127.937 47.8377 127.939 47.823L127.897 47.8631L128.779 39.3302Z" fill="#313B36"/>
<path d="M0.69043 113.298H69.8318L70.4419 121.719L73.7953 126.254H9.40936L4.21356 125.39L0.69043 119.776V113.298Z" fill="#D7CFBF"/>
<path fill-rule="evenodd" clip-rule="evenodd" d="M0.244629 112.311H69.8773V114.425H2.35851V117.798C2.35851 121.885 5.67097 125.197 9.75709 125.197L77.931 125.197V127.311L9.7571 127.311C4.50351 127.311 0.244629 123.052 0.244629 117.798V112.311Z" fill="#313B36"/>
<path d="M10.3357 36.8574V112.965L70.2882 113.368V118.603C70.2882 120.213 69.8776 126.254 77.269 126.254C83.1821 126.254 84.3866 120.616 84.2497 117.797V36.8574H10.3357Z" fill="#D7CFBF"/>
<path fill-rule="evenodd" clip-rule="evenodd" d="M9.27856 35.8005H85.3065V117.772C85.3772 119.322 85.0886 121.639 83.9419 123.613C82.7493 125.667 80.6397 127.311 77.2688 127.311C75.2774 127.311 73.7211 126.903 72.5221 126.195C71.3166 125.482 70.5418 124.507 70.0537 123.489C69.1919 121.694 69.2174 119.723 69.2289 118.833C69.23 118.745 69.231 118.668 69.231 118.603V114.418L9.27856 114.015V35.8005ZM11.3924 37.9144V111.915L71.3449 112.318V118.603C71.3449 118.681 71.3443 118.765 71.3436 118.854C71.3366 119.773 71.3254 121.254 71.9595 122.575C72.2927 123.269 72.8011 123.904 73.5975 124.375C74.4003 124.849 75.5644 125.197 77.2688 125.197C79.811 125.197 81.2602 124.022 82.1139 122.552C83.007 121.014 83.2554 119.118 83.1938 117.849L83.1926 117.823V37.9144H11.3924Z" fill="#313B36"/>
<path fill-rule="evenodd" clip-rule="evenodd" d="M38.1765 74.4251C37.1319 73.6903 35.7485 73.6538 34.6667 74.3326L24.1284 80.9455C23.6339 81.2558 22.9816 81.1065 22.6713 80.6121C22.3611 80.1176 22.5104 79.4653 23.0048 79.155L33.5431 72.5421C35.3461 71.4107 37.6518 71.4714 39.3927 72.6962L52.0264 81.5838C52.5038 81.9196 52.6186 82.5789 52.2827 83.0564C51.9469 83.5338 51.2876 83.6486 50.8101 83.3127L38.1765 74.4251Z" fill="#313B36"/>
<path fill-rule="evenodd" clip-rule="evenodd" d="M55.9313 73.6701C57.6558 72.4926 59.912 72.441 61.6885 73.5384L71.2558 79.4481C71.7524 79.7549 71.9063 80.4061 71.5995 80.9028C71.2928 81.3994 70.6415 81.5533 70.1449 81.2465L60.5776 75.3368C59.5117 74.6784 58.158 74.7093 57.1233 75.4158L48.8007 81.0984C48.3187 81.4275 47.661 81.3036 47.3319 80.8215C47.0027 80.3394 47.1267 79.6818 47.6088 79.3526L55.9313 73.6701Z" fill="#313B36"/>
<path fill-rule="evenodd" clip-rule="evenodd" d="M67.5439 58.3002H26.7234C25.5559 58.3002 24.6095 59.2466 24.6095 60.414V84.5235C24.6095 85.691 25.5559 86.6374 26.7234 86.6374H67.5439C68.7113 86.6374 69.6577 85.691 69.6577 84.5235V60.414C69.6577 59.2466 68.7113 58.3002 67.5439 58.3002ZM26.7234 56.1863C24.3884 56.1863 22.4956 58.0791 22.4956 60.414V84.5235C22.4956 86.8585 24.3884 88.7513 26.7234 88.7513H67.5439C69.8788 88.7513 71.7716 86.8585 71.7716 84.5235V60.414C71.7716 58.0791 69.8788 56.1863 67.5439 56.1863H26.7234Z" fill="#313B36"/>
<path d="M52.2527 62.4693L52.7774 67.71C52.822 67.9381 52.8449 68.1695 52.8461 68.4014C52.8606 70.8743 50.3835 72.8924 47.3114 72.9099C44.2394 72.9274 41.7388 70.9376 41.7243 68.4647C41.7236 68.3169 41.7316 68.1693 41.7483 68.0224L41.7218 68.0475L42.2756 62.6954C42.2827 62.6262 42.3085 62.5598 42.3505 62.5025C42.3925 62.4453 42.4493 62.3989 42.5156 62.3679C42.5819 62.3368 42.6556 62.3221 42.7296 62.3251C42.8036 62.3281 42.8756 62.3487 42.9387 62.385L45.8994 64.0976C46.3458 64.0043 46.8016 63.9562 47.2589 63.9544C47.687 63.9523 48.1142 63.9899 48.5344 64.0666L51.3366 62.0894C51.4178 62.0305 51.5145 61.9934 51.6163 61.9818C51.7181 61.9702 51.8214 61.9846 51.9152 62.0235C52.009 62.0624 52.0899 62.1244 52.1493 62.2028C52.2087 62.2813 52.2444 62.3733 52.2527 62.4693Z" fill="#C28145"/>
<path fill-rule="evenodd" clip-rule="evenodd" d="M50.6839 68.0181L50.4144 65.3274L49.0282 66.3055L48.1551 66.1461C47.8639 66.0929 47.5672 66.0668 47.2696 66.0682L47.2679 66.0682C46.9527 66.0695 46.639 66.1026 46.3324 66.1667L45.541 66.3322L44.1585 65.5324L43.8487 68.2612C43.8414 68.3253 43.8379 68.3896 43.8381 68.4538C43.8443 69.3545 44.9445 70.8095 47.299 70.7961C49.6546 70.7827 50.7375 69.314 50.7322 68.4134L50.7322 68.4115C50.7317 68.3123 50.7219 68.2131 50.7027 68.1147L50.6839 68.0181ZM45.8994 64.0976C46.3458 64.0043 46.8016 63.9562 47.2589 63.9544C47.687 63.9523 48.1142 63.9899 48.5344 64.0666L51.3366 62.0894C51.4178 62.0305 51.5145 61.9934 51.6163 61.9818C51.7181 61.9702 51.8214 61.9846 51.9152 62.0235C52.009 62.0624 52.0899 62.1244 52.1493 62.2028C52.2087 62.2813 52.2444 62.3733 52.2527 62.4693L52.7774 67.71C52.822 67.9381 52.8449 68.1695 52.8461 68.4014C52.8606 70.8743 50.3835 72.8924 47.3114 72.9099C45.1115 72.9224 43.2046 71.9055 42.2939 70.419C41.9328 69.8297 41.7284 69.1667 41.7243 68.4647C41.7236 68.3329 41.73 68.2012 41.7432 68.07C41.7438 68.0633 41.7445 68.0566 41.7452 68.0499C41.7462 68.0407 41.7472 68.0315 41.7483 68.0224L41.7218 68.0475L42.2756 62.6954C42.2827 62.6262 42.3085 62.5598 42.3505 62.5025C42.3925 62.4453 42.4493 62.3989 42.5156 62.3679C42.5819 62.3368 42.6556 62.3221 42.7296 62.3251C42.8036 62.3281 42.8756 62.3487 42.9387 62.385L45.8994 64.0976ZM42.7094 62.7816L42.6979 62.7572L42.7094 62.7816ZM42.7118 62.7673L42.6979 62.7572L42.7118 62.7673ZM42.7094 62.7816L42.6979 62.7572L42.7094 62.7816Z" fill="#313B36"/>
<path fill-rule="evenodd" clip-rule="evenodd" d="M22.6704 100.957C22.6704 100.373 23.1436 99.8998 23.7273 99.8998H55.7568C56.3405 99.8998 56.8137 100.373 56.8137 100.957C56.8137 101.54 56.3405 102.014 55.7568 102.014H23.7273C23.1436 102.014 22.6704 101.54 22.6704 100.957Z" fill="#907D73"/>
<path fill-rule="evenodd" clip-rule="evenodd" d="M22.6704 107.335C22.6704 106.751 23.1436 106.278 23.7273 106.278H40.0369C40.6207 106.278 41.0939 106.751 41.0939 107.335C41.0939 107.919 40.6207 108.392 40.0369 108.392H23.7273C23.1436 108.392 22.6704 107.919 22.6704 107.335Z" fill="#907D73"/>
<path fill-rule="evenodd" clip-rule="evenodd" d="M22.6704 94.8443C22.6704 94.2606 23.1436 93.7874 23.7273 93.7874H55.7568C56.3405 93.7874 56.8137 94.2606 56.8137 94.8443C56.8137 95.428 56.3405 95.9012 55.7568 95.9012H23.7273C23.1436 95.9012 22.6704 95.428 22.6704 94.8443Z" fill="#907D73"/>
<path fill-rule="evenodd" clip-rule="evenodd" d="M49.772 51.4268C49.772 50.8431 50.2452 50.3699 50.8289 50.3699H70.5393C71.123 50.3699 71.5963 50.8431 71.5963 51.4268C71.5963 52.0105 71.123 52.4837 70.5393 52.4837H50.8289C50.2452 52.4837 49.772 52.0105 49.772 51.4268Z" fill="#907D73"/>
<path fill-rule="evenodd" clip-rule="evenodd" d="M49.772 46.5219C49.772 45.9382 50.2452 45.465 50.8289 45.465H70.5393C71.123 45.465 71.5963 45.9382 71.5963 46.5219C71.5963 47.1056 71.123 47.5788 70.5393 47.5788H50.8289C50.2452 47.5788 49.772 47.1056 49.772 46.5219Z" fill="#907D73"/>
<path fill-rule="evenodd" clip-rule="evenodd" d="M91 131.078C91 130.483 91.4825 130 92.0777 130H132.007C132.602 130 133.084 130.483 133.084 131.078C133.084 131.673 132.602 132.155 132.007 132.155H92.0777C91.4825 132.155 91 131.673 91 131.078Z" fill="#313B36"/>
</g>
<defs>
<clipPath id="clip0_1657_12578">
<rect width="224" height="133" fill="white"/>
</clipPath>
</defs>
</svg>
