<svg width="268" height="202" viewBox="0 0 268 202" fill="none" xmlns="http://www.w3.org/2000/svg">
<mask id="path-1-inside-1_1223_10261" fill="white">
<path d="M191.919 138.898L190.702 147.91L88.847 200.781C88.847 200.781 20.2255 157.309 18.6064 154.184C16.9873 151.059 0.90625 66.982 0.90625 64.6321L6.12869 57.4299"/>
</mask>
<path d="M191.919 138.898L190.702 147.91L88.847 200.781C88.847 200.781 20.2255 157.309 18.6064 154.184C16.9873 151.059 0.90625 66.982 0.90625 64.6321L6.12869 57.4299" fill="#F5F3ED"/>
<path d="M193.406 139.099C193.517 138.278 192.941 137.523 192.12 137.412C191.299 137.301 190.544 137.876 190.433 138.697L193.406 139.099ZM190.702 147.91L191.393 149.241L192.084 148.882L192.188 148.111L190.702 147.91ZM88.847 200.781L88.0443 202.048L88.7727 202.509L89.5381 202.112L88.847 200.781ZM0.90625 64.6321L-0.308098 63.7516L-0.59375 64.1455V64.6321H0.90625ZM7.34304 58.3105C7.82935 57.6398 7.6799 56.7019 7.00924 56.2156C6.33857 55.7293 5.40066 55.8787 4.91434 56.5494L7.34304 58.3105ZM190.433 138.697L189.215 147.709L192.188 148.111L193.406 139.099L190.433 138.697ZM190.011 146.578L88.1559 199.449L89.5381 202.112L191.393 149.241L190.011 146.578ZM88.847 200.781C89.6497 199.514 89.6495 199.513 89.649 199.513C89.6485 199.513 89.6477 199.512 89.6467 199.512C89.6446 199.51 89.6415 199.508 89.6373 199.506C89.6291 199.5 89.6167 199.493 89.6002 199.482C89.5673 199.461 89.5182 199.43 89.4533 199.389C89.3235 199.307 89.1309 199.185 88.8796 199.025C88.3769 198.706 87.6394 198.238 86.7 197.641C84.8212 196.446 82.1352 194.737 78.9069 192.675C72.4501 188.552 63.825 183.022 55.1501 177.396C46.4735 171.768 37.7542 166.048 31.1062 161.541C27.7803 159.287 24.9848 157.345 22.9757 155.873C21.9691 155.136 21.1767 154.529 20.619 154.067C20.3389 153.835 20.1358 153.654 20.0006 153.521C19.8262 153.35 19.8682 153.359 19.9383 153.494L17.2745 154.874C17.4458 155.204 17.7199 155.487 17.9 155.663C18.1195 155.879 18.3936 156.119 18.7051 156.377C19.3305 156.895 20.1784 157.543 21.2031 158.293C23.2566 159.797 26.0878 161.764 29.4229 164.025C36.0967 168.548 44.8364 174.282 53.5176 179.913C62.2005 185.545 70.832 191.078 77.2923 195.204C80.5226 197.266 83.2103 198.977 85.0906 200.173C86.0307 200.77 86.769 201.239 87.2723 201.558C87.524 201.718 87.7169 201.84 87.8469 201.923C87.912 201.964 87.9613 201.995 87.9943 202.016C88.0108 202.027 88.0233 202.035 88.0317 202.04C88.0359 202.042 88.039 202.044 88.0411 202.046C88.0421 202.046 88.0429 202.047 88.0435 202.047C88.044 202.048 88.0443 202.048 88.847 200.781ZM19.9383 153.494C19.9556 153.527 19.9243 153.467 19.8457 153.214C19.7771 152.993 19.6923 152.692 19.5917 152.308C19.3909 151.543 19.1393 150.496 18.8433 149.201C18.252 146.613 17.4934 143.074 16.6264 138.898C14.8929 130.549 12.7324 119.68 10.6216 108.831C8.5109 97.9823 6.451 87.1592 4.91904 78.9028C4.15296 74.774 3.51952 71.2905 3.07793 68.7679C2.85698 67.5057 2.68506 66.4898 2.56875 65.7559C2.51047 65.3882 2.46736 65.0989 2.43922 64.8882C2.4058 64.6381 2.40625 64.5874 2.40625 64.6321H-0.59375C-0.59375 64.8237 -0.56189 65.0795 -0.534356 65.2856C-0.501549 65.5311 -0.454162 65.8476 -0.394265 66.2255C-0.274216 66.983 -0.0990715 68.0174 0.122864 69.2852C0.567027 71.8225 1.20258 75.3174 1.96939 79.4501C3.50323 87.7166 5.56479 98.5485 7.67678 109.404C9.78864 120.258 11.9519 131.141 13.689 139.508C14.5573 143.691 15.3207 147.252 15.9187 149.869C16.2174 151.176 16.4772 152.259 16.6899 153.069C16.796 153.474 16.8935 153.823 16.9807 154.104C17.0579 154.352 17.156 154.645 17.2745 154.874L19.9383 153.494ZM2.1206 65.5127L7.34304 58.3105L4.91434 56.5494L-0.308098 63.7516L2.1206 65.5127Z" fill="#313B36" mask="url(#path-1-inside-1_1223_10261)"/>
<path d="M88.7069 199.596C88.4606 199.58 88.2274 199.518 88.0574 199.424C87.8875 199.33 87.7943 199.212 87.798 199.095C87.8045 199.006 87.907 190.142 88.1343 187.049C88.1429 186.931 88.2504 186.824 88.433 186.752C88.6156 186.681 88.8584 186.65 89.108 186.667C89.3576 186.684 89.5935 186.748 89.7638 186.843C89.9341 186.939 90.0249 187.059 90.0163 187.178C89.7936 190.209 89.6885 199.108 89.682 199.197C89.6827 199.256 89.659 199.313 89.6123 199.365C89.5656 199.417 89.4967 199.463 89.4096 199.501C89.3226 199.538 89.219 199.566 89.1049 199.583C88.9908 199.6 88.8683 199.605 88.7445 199.599L88.7069 199.596Z" fill="#313B36"/>
<path d="M140.791 113.837L139.795 113.93L139.852 114.542L140.424 114.767L140.791 113.837ZM140.791 113.837C139.795 113.93 139.795 113.93 139.795 113.929L139.795 113.927L139.794 113.917L139.791 113.879L139.777 113.73L139.722 113.146C139.675 112.635 139.605 111.884 139.515 110.927C139.336 109.013 139.079 106.274 138.769 102.976C138.148 96.3792 137.311 87.5428 136.45 78.5843C135.588 69.6254 134.7 60.546 133.978 53.4625C133.616 49.9205 133.296 46.8799 133.041 44.604C132.839 42.7945 132.681 41.5077 132.579 40.8292C132.41 40.7994 132.174 40.7718 131.86 40.7524C130.949 40.6962 129.595 40.7198 127.835 40.8212C124.327 41.0232 119.34 41.5253 113.352 42.241C101.385 43.6716 85.4951 45.9464 69.621 48.3451C53.7492 50.7434 37.902 53.2641 26.0221 55.1853C20.0823 56.1459 15.1346 56.9566 11.6721 57.5271C9.94077 57.8123 8.58077 58.0375 7.65366 58.1914C7.3418 58.2432 7.07892 58.2869 6.86737 58.3221C6.86476 58.419 6.8644 58.5327 6.86716 58.6646C6.88101 59.3285 6.96883 60.2944 7.12864 61.5412C7.44711 64.0259 8.03626 67.5134 8.81606 71.6895C10.3746 80.0361 12.682 91.0666 15.0679 102.181C16.4439 108.59 17.8435 115.017 19.1401 120.97C20.0929 125.345 20.9901 129.464 21.7813 133.133C22.7142 137.46 23.4991 141.157 24.051 143.897C24.3269 145.266 24.5457 146.401 24.696 147.259C24.8233 147.985 24.9161 148.588 24.9349 148.958C24.9416 148.969 24.9499 148.983 24.9601 148.998C25.0357 149.113 25.1718 149.282 25.3886 149.508C25.8195 149.956 26.4777 150.537 27.3529 151.238C29.0971 152.636 31.6072 154.438 34.6437 156.508C40.711 160.643 48.8102 165.8 56.9208 170.842C65.0288 175.882 73.1379 180.802 79.2207 184.462C82.2619 186.292 84.7962 187.807 86.57 188.864C87.457 189.393 88.1537 189.807 88.6287 190.089L88.8954 190.247L89.5426 189.934C90.2801 189.578 91.3621 189.054 92.7401 188.387C95.4961 187.051 99.4362 185.139 104.172 182.832C113.643 178.218 126.297 172.025 139.026 165.711C151.756 159.396 164.557 152.961 174.325 147.863C179.21 145.312 183.328 143.101 186.296 141.408C187.782 140.56 188.967 139.85 189.813 139.296C190.236 139.018 190.561 138.789 190.79 138.608C190.834 138.573 190.872 138.542 190.905 138.514C190.727 138.271 190.377 137.928 189.81 137.489C188.645 136.588 186.811 135.472 184.482 134.211C179.839 131.698 173.402 128.701 166.864 125.815C160.332 122.932 153.722 120.17 148.743 118.128C146.254 117.107 144.173 116.267 142.715 115.682C141.986 115.389 141.413 115.16 141.022 115.005C140.903 114.957 140.801 114.917 140.717 114.883L140.576 114.828L140.462 114.782L140.433 114.771L140.426 114.768L140.424 114.767C140.424 114.767 140.424 114.767 140.791 113.837ZM24.9106 148.912C24.9107 148.912 24.9118 148.915 24.9135 148.919C24.9113 148.915 24.9104 148.912 24.9106 148.912ZM191.012 138.69C191.011 138.69 191.009 138.684 191.006 138.674C191.011 138.685 191.012 138.69 191.012 138.69Z" fill="#E7E1D2" stroke="#313B36" stroke-width="2"/>
<path d="M87.5929 176.354C87.3899 176.357 87.1881 176.325 86.9964 176.26C84.9999 175.497 75.2612 169.387 65.5225 162.925C46.8728 150.377 47.1528 148.944 47.2623 148.391C47.3055 148.195 47.4199 148.019 47.585 147.897C47.75 147.774 47.955 147.712 48.1632 147.722C52.643 146.241 132.038 120.158 138.307 120.158C138.568 120.14 138.826 120.211 139.038 120.358C142.546 122.57 146.175 124.598 149.909 126.432C162.155 132.883 170.214 137.277 170.603 139.45C170.629 139.614 170.615 139.781 170.563 139.938C170.51 140.095 170.419 140.238 170.299 140.355C167.536 142.963 94.2152 176.354 87.5929 176.354ZM87.459 175.179H87.5929C94.1422 175.179 166.72 142.106 169.374 139.521C169.203 137.935 156.275 131.12 149.324 127.466C145.564 125.608 141.907 123.561 138.368 121.333C131.904 121.474 52.8134 147.428 48.6501 148.803C49.6361 150.13 54.7977 154.278 66.825 162.326C76.0038 168.459 85.6451 174.463 87.5198 175.168L87.459 175.179Z" fill="#313B36"/>
<path d="M36.6835 138.569L131.563 112.604L124.49 48.8179C124.49 48.8179 22.9884 63.3985 22.5258 64.7614C22.0632 66.1243 35.2713 139.027 36.6835 138.569Z" fill="#F5F3ED"/>
<path fill-rule="evenodd" clip-rule="evenodd" d="M30.0593 69.6521C29.7256 69.7101 29.5232 70.01 29.5777 70.302C29.6322 70.5941 29.9302 70.807 30.2639 70.749C30.5976 70.691 30.8 70.3911 30.7455 70.0991C30.691 69.8071 30.393 69.5941 30.0593 69.6521ZM28.3645 70.5129C28.1837 69.5439 28.8566 68.6363 29.8379 68.4657C30.8192 68.2951 31.7779 68.9192 31.9587 69.8882C32.1395 70.8572 31.4666 71.7648 30.4853 71.9354C29.504 72.106 28.5453 71.4819 28.3645 70.5129Z" fill="#313B36"/>
<path fill-rule="evenodd" clip-rule="evenodd" d="M37.2475 68.4024C36.9138 68.4604 36.7115 68.7603 36.766 69.0523C36.8205 69.3443 37.1185 69.5572 37.4522 69.4992C37.7859 69.4412 37.9882 69.1413 37.9337 68.8493C37.8792 68.5573 37.5812 68.3444 37.2475 68.4024ZM35.5527 69.2632C35.3719 68.2942 36.0448 67.3865 37.0261 67.2159C38.0074 67.0454 38.9661 67.6694 39.147 68.6384C39.3278 69.6074 38.6549 70.5151 37.6736 70.6856C36.6923 70.8562 35.7335 70.2322 35.5527 69.2632Z" fill="#313B36"/>
<path fill-rule="evenodd" clip-rule="evenodd" d="M44.436 67.1531C44.1023 67.2111 43.9 67.511 43.9544 67.803C44.0089 68.095 44.307 68.308 44.6407 68.25C44.9743 68.192 45.1767 67.8921 45.1222 67.6C45.0677 67.308 44.7697 67.0951 44.436 67.1531ZM42.7412 68.0139C42.5604 67.0449 43.2333 66.1372 44.2146 65.9667C45.1959 65.7961 46.1546 66.4202 46.3354 67.3892C46.5162 68.3582 45.8433 69.2658 44.862 69.4364C43.8808 69.6069 42.922 68.9829 42.7412 68.0139Z" fill="#313B36"/>
<path d="M36.6716 139.168C36.5589 139.156 36.4502 139.121 36.3519 139.066C36.2535 139.012 36.1676 138.939 36.0994 138.851C34.5656 136.795 21.2113 66.7 21.9417 64.5852C22.1487 63.9978 22.3556 63.4103 73.5814 55.7029C98.7316 51.9314 124.138 48.2775 124.393 48.2422C124.475 48.2284 124.558 48.2318 124.638 48.2521C124.718 48.2724 124.792 48.3091 124.856 48.3597C124.922 48.4059 124.977 48.4656 125.017 48.5347C125.057 48.6037 125.081 48.6803 125.087 48.7592L132.172 112.522C132.186 112.658 132.15 112.796 132.07 112.91C131.99 113.023 131.871 113.106 131.734 113.144L36.8542 139.145L36.6716 139.168ZM23.0982 65.1492C23.1834 70.1778 35.1134 132.883 36.9515 137.9L130.906 112.193L123.955 49.4876C85.1339 55.0684 27.5293 63.657 23.0982 65.1374V65.1492Z" fill="#313B36"/>
<path d="M77.757 170.597C77.6395 170.599 77.5241 170.567 77.4248 170.507C77.3254 170.446 77.2463 170.359 77.197 170.256C77.1306 170.113 77.1253 169.95 77.1822 169.803C77.2392 169.655 77.3538 169.536 77.5013 169.469C78.3048 169.128 157.931 134.751 161.206 133.399C161.353 133.34 161.518 133.339 161.666 133.396C161.814 133.453 161.933 133.564 161.997 133.705C162.029 133.776 162.047 133.852 162.048 133.93C162.05 134.007 162.035 134.084 162.006 134.156C161.976 134.228 161.933 134.294 161.877 134.35C161.821 134.405 161.754 134.45 161.68 134.48C158.418 135.832 78.8039 170.198 78.0004 170.55C77.9234 170.581 77.8406 170.597 77.757 170.597Z" fill="#313B36"/>
<path d="M160.195 145.125C160.101 145.125 160.009 145.101 159.928 145.055C157.408 143.88 130.31 124.411 129.153 123.577C129.024 123.484 128.939 123.345 128.916 123.19C128.893 123.036 128.935 122.88 129.031 122.755C129.13 122.633 129.274 122.552 129.433 122.53C129.592 122.509 129.753 122.547 129.884 122.637C139.622 129.616 158.528 143.069 160.463 144.009C160.535 144.043 160.6 144.09 160.653 144.148C160.706 144.206 160.746 144.273 160.772 144.346C160.799 144.42 160.809 144.497 160.804 144.574C160.799 144.651 160.778 144.727 160.743 144.796C160.691 144.893 160.612 144.975 160.516 145.033C160.42 145.091 160.309 145.123 160.195 145.125Z" fill="#313B36"/>
<path d="M98.0989 172.806C97.9913 172.808 97.8854 172.779 97.7946 172.724C96.0416 171.76 58.9248 146.57 57.3423 145.489C57.2649 145.451 57.197 145.397 57.143 145.331C57.0891 145.265 57.0504 145.189 57.0296 145.107C57.0088 145.026 57.0064 144.941 57.0225 144.858C57.0385 144.776 57.0728 144.697 57.1229 144.629C57.1729 144.56 57.2377 144.503 57.3128 144.46C57.3878 144.418 57.4715 144.391 57.558 144.383C57.6446 144.374 57.7321 144.383 57.8145 144.41C57.897 144.437 57.9726 144.48 58.0362 144.538C71.4269 153.608 96.9911 170.95 98.3911 171.702C98.5313 171.778 98.6344 171.905 98.6778 172.055C98.7211 172.205 98.7012 172.365 98.6224 172.5C98.5718 172.592 98.4964 172.669 98.4043 172.723C98.3121 172.777 98.2066 172.805 98.0989 172.806Z" fill="#313B36"/>
<path d="M67.166 163.9C67.0462 163.898 66.9295 163.863 66.8302 163.798C66.7308 163.733 66.6529 163.642 66.606 163.536C66.5743 163.465 66.5577 163.389 66.5571 163.312C66.5566 163.235 66.5721 163.158 66.6028 163.087C66.6334 163.016 66.6786 162.951 66.7356 162.897C66.7926 162.843 66.8603 162.801 66.9347 162.772C70.3554 161.386 150.761 128.817 152.745 128.101C152.821 128.063 152.905 128.041 152.991 128.037C153.076 128.033 153.162 128.046 153.242 128.076C153.322 128.106 153.394 128.152 153.454 128.21C153.515 128.269 153.562 128.339 153.592 128.417C153.622 128.494 153.635 128.577 153.63 128.66C153.624 128.742 153.601 128.823 153.561 128.896C153.522 128.969 153.466 129.034 153.399 129.085C153.332 129.136 153.254 129.173 153.171 129.193C151.211 129.91 68.2372 163.513 67.3973 163.853C67.3234 163.881 67.2452 163.897 67.166 163.9Z" fill="#313B36"/>
<path d="M57.4394 156.44C57.3151 156.436 57.1946 156.398 57.0929 156.329C56.9911 156.26 56.9126 156.164 56.8673 156.052C56.8124 155.906 56.8201 155.744 56.8886 155.603C56.9571 155.462 57.0808 155.353 57.2325 155.3C86.6313 144.726 142.653 124.541 144.212 123.789C144.283 123.747 144.363 123.72 144.446 123.71C144.529 123.699 144.613 123.705 144.694 123.728C144.774 123.75 144.849 123.788 144.914 123.84C144.978 123.891 145.031 123.955 145.069 124.027C145.106 124.099 145.128 124.178 145.133 124.259C145.138 124.339 145.125 124.42 145.096 124.496C145.067 124.572 145.022 124.641 144.964 124.699C144.906 124.757 144.837 124.804 144.759 124.835C142.751 125.81 61.128 155.147 57.6585 156.393C57.5886 156.42 57.5146 156.435 57.4394 156.44Z" fill="#313B36"/>
<path d="M137.005 145.419C136.848 145.422 136.696 145.367 136.579 145.266C131.247 140.449 117.235 127.831 116.432 127.243C116.357 127.201 116.292 127.145 116.242 127.077C116.191 127.009 116.156 126.932 116.139 126.85C116.122 126.769 116.123 126.684 116.143 126.603C116.162 126.522 116.199 126.445 116.251 126.379C116.303 126.312 116.37 126.258 116.446 126.218C116.522 126.178 116.606 126.154 116.692 126.148C116.778 126.142 116.864 126.154 116.946 126.183C117.027 126.211 117.101 126.256 117.162 126.315C118.173 127.043 136.64 143.692 137.419 144.408C137.475 144.462 137.52 144.526 137.551 144.597C137.582 144.667 137.598 144.743 137.598 144.82C137.598 144.896 137.582 144.972 137.551 145.043C137.52 145.113 137.475 145.177 137.419 145.231C137.366 145.288 137.303 145.333 137.232 145.366C137.161 145.398 137.083 145.416 137.005 145.419Z" fill="#313B36"/>
<path d="M125.026 150.412C124.883 150.412 124.745 150.362 124.636 150.271C122.896 148.838 104.441 131.719 103.662 130.991C103.605 130.937 103.56 130.873 103.529 130.803C103.499 130.732 103.483 130.656 103.483 130.58C103.483 130.503 103.499 130.427 103.529 130.357C103.56 130.286 103.605 130.222 103.662 130.168C103.718 130.113 103.786 130.07 103.86 130.04C103.934 130.01 104.014 129.995 104.094 129.995C104.174 129.995 104.254 130.01 104.328 130.04C104.402 130.07 104.469 130.113 104.526 130.168C104.721 130.345 123.736 147.992 125.452 149.402C125.564 149.513 125.627 149.663 125.627 149.819C125.627 149.974 125.564 150.124 125.452 150.236C125.338 150.344 125.186 150.407 125.026 150.412Z" fill="#313B36"/>
<path d="M98.841 161.245C98.7353 161.244 98.6312 161.22 98.5367 161.175C96.7715 160.188 73.7394 141.448 72.7656 140.649C72.6628 140.544 72.6037 140.406 72.5994 140.262C72.5951 140.118 72.6459 139.977 72.7422 139.867C72.8385 139.756 72.9735 139.684 73.1215 139.664C73.2695 139.643 73.4201 139.676 73.5447 139.756C80.1913 145.16 97.7454 159.377 99.1088 160.152C99.2231 160.218 99.312 160.317 99.3621 160.436C99.4121 160.555 99.4206 160.686 99.3861 160.81C99.3516 160.934 99.2761 161.043 99.1711 161.122C99.0661 161.2 98.9373 161.244 98.8045 161.245H98.841Z" fill="#313B36"/>
<path d="M111.563 155.711C111.483 155.712 111.404 155.697 111.33 155.666C111.257 155.636 111.191 155.591 111.136 155.535C108.921 153.397 90.1251 135.749 89.9425 135.561C89.8843 135.509 89.8379 135.445 89.8061 135.374C89.7744 135.304 89.7581 135.227 89.7581 135.15C89.7581 135.073 89.7744 134.997 89.8061 134.926C89.8379 134.855 89.8843 134.792 89.9425 134.739C89.998 134.684 90.0643 134.641 90.1375 134.611C90.2107 134.581 90.2892 134.566 90.3686 134.566C90.4479 134.566 90.5265 134.581 90.5997 134.611C90.6728 134.641 90.7391 134.684 90.7946 134.739C90.9894 134.915 109.785 152.574 112.001 154.712C112.084 154.795 112.141 154.898 112.164 155.011C112.186 155.124 112.174 155.241 112.129 155.347C112.084 155.454 112.007 155.545 111.908 155.609C111.81 155.674 111.694 155.709 111.575 155.711H111.563Z" fill="#313B36"/>
<path fill-rule="evenodd" clip-rule="evenodd" d="M71.4569 94.9253C70.4765 94.3418 69.1427 94.5416 68.3962 95.3839L59.0671 105.91C58.8041 106.206 58.3265 106.261 58.0003 106.032C57.6741 105.803 57.6228 105.377 57.8857 105.081L67.2148 94.5551C68.459 93.1513 70.6819 92.8183 72.3161 93.7908L87.7528 102.978C88.0981 103.183 88.1858 103.604 87.9485 103.917C87.7113 104.23 87.239 104.318 86.8936 104.112L71.4569 94.9253Z" fill="#313B36"/>
<path fill-rule="evenodd" clip-rule="evenodd" d="M90.22 92.2406C91.3806 90.7688 93.5973 90.3273 95.2946 91.23L106.324 97.0956C106.681 97.2854 106.792 97.7015 106.572 98.0249C106.353 98.3483 105.885 98.4566 105.528 98.2669L94.4987 92.4012C93.4804 91.8596 92.1503 92.1245 91.454 93.0076L84.536 101.781C84.2919 102.09 83.8179 102.17 83.4771 101.958C83.1364 101.746 83.058 101.324 83.302 101.014L90.22 92.2406Z" fill="#313B36"/>
<path fill-rule="evenodd" clip-rule="evenodd" d="M99.0998 72.2058L55.6339 79.8424C54.8096 79.9872 54.2587 80.6989 54.4034 81.432L60.4661 112.163C60.6108 112.896 61.3962 113.373 62.2204 113.229L105.686 105.592C106.511 105.447 107.061 104.736 106.917 104.002L100.854 73.2711C100.709 72.538 99.924 72.061 99.0998 72.2058ZM55.372 78.5149C53.7235 78.8045 52.6217 80.2279 52.911 81.6942L58.9737 112.426C59.263 113.892 60.8338 114.846 62.4823 114.556L105.948 106.919C107.597 106.63 108.698 105.206 108.409 103.74L102.346 73.0089C102.057 71.5426 100.486 70.5888 98.8379 70.8784L55.372 78.5149Z" fill="#313B36"/>
<path d="M85.1526 82.0045L86.7773 87.1428C86.8724 87.3622 86.944 87.5891 86.991 87.8208C87.4955 90.2914 85.1075 92.7994 81.6553 93.4239C78.2031 94.0483 74.9975 92.552 74.493 90.0814C74.4631 89.9338 74.443 89.7845 74.4327 89.6342L74.4079 89.6646L73.9744 84.2019C73.9688 84.1312 73.9847 84.0598 74.0206 83.9942C74.0565 83.9286 74.1113 83.871 74.1798 83.8268C74.2482 83.7827 74.3281 83.7534 74.412 83.7418C74.4958 83.7301 74.5809 83.7365 74.6591 83.7603L78.3274 84.8885C78.8112 84.7069 79.3144 84.5688 79.8284 84.4766C80.3096 84.3899 80.7976 84.3431 81.2853 84.3368L84.0471 81.8055C84.1269 81.7306 84.2283 81.6744 84.3405 81.6427C84.4528 81.611 84.5718 81.605 84.685 81.6254C84.7982 81.6457 84.9014 81.6917 84.9837 81.7585C85.066 81.8252 85.1243 81.9102 85.1526 82.0045Z" fill="#C28145"/>
<path fill-rule="evenodd" clip-rule="evenodd" d="M85.4159 87.5712L84.1395 83.5344L81.8772 85.6079L81.2758 85.6156C80.8768 85.6208 80.4773 85.6591 80.0832 85.7301L80.0821 85.7303C79.6628 85.8055 79.2527 85.9181 78.8589 86.0659L78.35 86.2569L75.5065 85.3824L75.5637 86.1034L75.6243 86.0293L75.8628 89.5298C75.8696 89.6298 75.883 89.729 75.9028 89.8272C76.2175 91.3653 78.4255 92.7085 81.3994 92.1706C84.3738 91.6326 85.8955 89.6142 85.5814 88.0758L85.5811 88.0746C85.5501 87.9216 85.5028 87.7716 85.4398 87.6263L85.4159 87.5712ZM73.9744 84.2019C73.9688 84.1312 73.9847 84.0598 74.0206 83.9942C74.0565 83.9286 74.1113 83.871 74.1798 83.8268C74.2482 83.7827 74.3281 83.7534 74.412 83.7418C74.4958 83.7301 74.5809 83.7365 74.6591 83.7603L78.3274 84.8885C78.8112 84.7069 79.3144 84.5688 79.8284 84.4766C80.3096 84.3899 80.7976 84.3431 81.2853 84.3368L84.0471 81.8055C84.1269 81.7306 84.2283 81.6744 84.3405 81.6427C84.4528 81.611 84.5718 81.605 84.685 81.6254C84.7982 81.6457 84.9014 81.6917 84.9837 81.7585C85.066 81.8252 85.1243 81.9102 85.1526 82.0045L86.7773 87.1428C86.8724 87.3622 86.944 87.5891 86.991 87.8208C87.4955 90.2914 85.1075 92.7994 81.6553 93.4239C78.75 93.9493 76.0195 92.9729 74.9265 91.1778C74.7207 90.8399 74.573 90.4729 74.493 90.0814C74.4663 89.9497 74.4474 89.8167 74.4364 89.6829C74.4358 89.676 74.4353 89.6692 74.4348 89.6624C74.434 89.653 74.4334 89.6436 74.4327 89.6342L74.4079 89.6646L73.9744 84.2019Z" fill="#313B36"/>
<g clip-path="url(#clip0_1223_10261)">
<path d="M230.256 133.218L225.306 135.77C220.961 138.01 219.367 143.286 221.747 147.553L232.328 166.52C234.709 170.786 240.161 172.429 244.507 170.189L249.457 167.637C253.803 165.397 255.396 160.121 253.016 155.854L242.435 136.887C240.055 132.62 234.602 130.978 230.256 133.218Z" fill="#EFEDE7"/>
<path d="M237.974 132.859L237.974 132.859L237.982 132.862C240.949 134.063 242.322 136.471 243.969 139.436L243.969 139.437L243.971 139.44L253.11 155.823C253.708 156.931 254.072 158.139 254.183 159.375C254.278 160.595 254.113 161.816 253.701 162.961C253.292 164.095 252.649 165.134 251.808 166.013C250.468 167.179 248.935 168.123 247.27 168.805L247.198 168.834L247.132 168.874C245.626 169.784 244.003 170.504 242.303 171.016C241.087 171.275 239.824 171.29 238.59 171.058C237.344 170.824 236.156 170.344 235.101 169.648L235.097 169.646C233.115 168.35 232.04 166.367 230.826 164.127C230.62 163.746 230.41 163.358 230.19 162.965L224.406 152.596L224.405 152.594C224.085 152.025 223.743 151.452 223.404 150.886L223.38 150.845C223.047 150.289 222.717 149.739 222.403 149.184C221.759 148.046 221.204 146.932 220.856 145.817C220.505 144.633 220.409 143.397 220.572 142.188C220.735 140.983 221.151 139.827 221.795 138.794C222.871 137.228 224.373 135.981 226.144 135.19L226.17 135.179L226.195 135.166C226.68 134.916 227.148 134.666 227.61 134.419C228.579 133.902 229.515 133.401 230.504 132.957L230.504 132.957L230.507 132.956C231.662 132.432 232.924 132.152 234.211 132.135C235.498 132.118 236.781 132.364 237.974 132.859Z" stroke="#313B36" stroke-width="2"/>
<path d="M229.92 140.646L232.907 146.091L233.325 146.853C233.472 147.114 233.718 147.31 234.01 147.397C234.302 147.484 234.615 147.455 234.881 147.317C235.147 147.179 235.344 146.943 235.428 146.661C235.512 146.379 235.477 146.073 235.331 145.812L232.256 140.441L231.837 139.679C231.796 139.517 231.717 139.367 231.607 139.238C231.497 139.11 231.359 139.007 231.203 138.937C231.047 138.868 230.877 138.833 230.707 138.837C230.537 138.84 230.37 138.881 230.22 138.957C230.07 139.033 229.94 139.141 229.84 139.274C229.741 139.407 229.674 139.56 229.645 139.723C229.616 139.886 229.626 140.054 229.673 140.214C229.721 140.374 229.805 140.522 229.92 140.646Z" fill="#313B36"/>
</g>
<path d="M147.722 115.984C147.722 115.984 156.742 92.2962 172.978 96.3694C184.704 99.3112 180.194 117.818 189.214 122.264C198.235 126.71 204.42 119.172 214.471 120.64C225.596 122.264 226.799 133.984 226.799 133.984" stroke="#313B36" stroke-width="2" stroke-linecap="round"/>
<ellipse cx="178.454" cy="40.6565" rx="8.22673" ry="7.93998" fill="#C28145"/>
<path d="M169.942 16.1463C169.942 18.6114 167.861 20.6697 165.219 20.6697C162.577 20.6697 160.496 18.6114 160.496 16.1463C160.496 13.6812 162.577 11.6228 165.219 11.6228C167.861 11.6228 169.942 13.6812 169.942 16.1463Z" fill="#EFEDE7" stroke="#313B36" stroke-width="2"/>
<circle cx="208.593" cy="39.4452" r="3.40708" fill="#EFEDE7" stroke="#313B36" stroke-width="2"/>
<circle cx="133.673" cy="18.1442" r="2.67257" fill="#EFEDE7" stroke="#313B36" stroke-width="2"/>
<defs>
<clipPath id="clip0_1223_10261">
<rect width="40.8871" height="39.5741" fill="white" transform="matrix(0.957491 0.288464 -0.289156 0.957282 222.854 127.21)"/>
</clipPath>
</defs>
</svg>
