<svg width="135" height="28" viewBox="0 0 135 28" fill="none" xmlns="http://www.w3.org/2000/svg">
<path d="M26.5938 1.26969L27.8374 14.731C27.9461 15.3172 28.0005 15.9115 28 16.5069C28 22.8553 21.7342 28 14 28C6.26581 28 0 22.8553 0 16.5069C0.000442167 16.1276 0.0228042 15.7487 0.0669697 15.3718L0 15.4358L1.47319 1.7045C1.49222 1.52695 1.55811 1.35698 1.66467 1.2105C1.77123 1.06402 1.91495 0.945847 2.08234 0.86713C2.24972 0.788413 2.43529 0.751732 2.62157 0.760496C2.80785 0.769261 2.98875 0.823198 3.14726 0.917248L10.5753 5.35705C11.7006 5.12394 12.8487 5.00731 14 5.00918C15.0777 5.01007 16.1528 5.11278 17.2094 5.31584L24.2931 0.281023C24.4985 0.131226 24.7423 0.0372595 24.9989 0.00900566C25.2554 -0.0192481 25.5152 0.0192665 25.7508 0.1205C25.9863 0.221734 26.189 0.381931 26.3374 0.584189C26.4857 0.786448 26.5743 1.02328 26.5938 1.26969Z" fill="#C28145"/>
<path d="M11.3771 10C12.3998 10.5374 14.1043 11.5822 14.9101 12.1345L13.7634 13.7765C12.8957 13.1943 11.2841 12.1942 10.2614 11.642L11.3771 10ZM8.51033 20.5981C10.2459 20.3144 12.0899 19.8069 13.7789 18.9113C16.4132 17.4933 18.5826 15.4483 19.8068 13.3138L21 15.3438C19.5744 17.4186 17.374 19.2994 14.8481 20.7175C13.2676 21.5683 11.0362 22.3146 9.67252 22.5535L8.51033 20.5981ZM8.9907 13.4033C10.0289 13.9407 11.7335 14.9557 12.5393 15.508L11.3926 17.1798C10.5248 16.5827 8.91322 15.5826 7.875 15.0453L8.9907 13.4033Z" fill="#313B36"/>
<mask id="path-3-outside-1_1425_5329" maskUnits="userSpaceOnUse" x="35" y="4.65198" width="100" height="19" fill="black">
<rect fill="white" x="35" y="4.65198" width="100" height="19"/>
<path d="M36 19.092V5.89198H37.216V19.092H36Z"/>
<path d="M42.7876 8.80398L42.5076 8.57198C42.5983 8.45998 42.681 8.32931 42.7556 8.17998C42.8303 8.02531 42.8916 7.85998 42.9396 7.68398C42.993 7.50264 43.025 7.32398 43.0356 7.14798C42.8543 7.11598 42.7023 7.03331 42.5796 6.89998C42.457 6.76131 42.3956 6.59598 42.3956 6.40398C42.3956 6.17998 42.4676 5.99864 42.6116 5.85998C42.7556 5.72131 42.945 5.65198 43.1796 5.65198C43.4196 5.65198 43.6143 5.73198 43.7636 5.89198C43.9183 6.04664 43.9956 6.27064 43.9956 6.56398C43.9956 6.94264 43.8783 7.34531 43.6436 7.77198C43.4143 8.19331 43.129 8.53731 42.7876 8.80398Z"/>
<path d="M48.6905 19.092V10.9H49.8585V12.02C50.1838 11.5666 50.5732 11.2253 51.0265 10.996C51.4798 10.7613 51.9865 10.644 52.5465 10.644C53.2185 10.644 53.8025 10.7986 54.2985 11.108C54.7998 11.4173 55.1465 11.8386 55.3385 12.372C55.6532 11.8493 56.0532 11.4306 56.5385 11.116C57.0292 10.8013 57.6105 10.644 58.2825 10.644C58.8638 10.644 59.3812 10.764 59.8345 11.004C60.2878 11.2386 60.6425 11.5853 60.8985 12.044C61.1598 12.4973 61.2905 13.052 61.2905 13.708V19.092H60.1225V14.036C60.1225 13.2893 59.9278 12.6973 59.5385 12.26C59.1492 11.8226 58.6292 11.604 57.9785 11.604C57.5305 11.604 57.1252 11.7026 56.7625 11.9C56.3998 12.0973 56.1118 12.3533 55.8985 12.668C55.6852 12.9773 55.5785 13.2973 55.5785 13.628V19.092H54.4105V13.916C54.4105 13.2066 54.2158 12.644 53.8265 12.228C53.4425 11.812 52.9332 11.604 52.2985 11.604C51.8505 11.604 51.4398 11.7 51.0665 11.892C50.6985 12.0786 50.4052 12.3213 50.1865 12.62C49.9678 12.9186 49.8585 13.2253 49.8585 13.54V19.092H48.6905Z"/>
<path d="M71.6981 19.092V5.89198H72.9141V11.94H80.1221V5.89198H81.3301V19.092H80.1221V13.012H72.9141V19.092H71.6981Z"/>
<path d="M88.6116 19.348C87.9343 19.348 87.337 19.1853 86.8196 18.86C86.3023 18.5293 85.8996 18.0626 85.6116 17.46L86.2356 16.788C86.4916 17.3106 86.825 17.7186 87.2356 18.012C87.6463 18.3 88.1023 18.444 88.6036 18.444C88.9396 18.444 89.2463 18.3746 89.5236 18.236C89.8063 18.0973 90.0303 17.9 90.1956 17.644C90.3663 17.3826 90.4516 17.0733 90.4516 16.716C90.4516 16.3906 90.3716 16.1346 90.2116 15.948C90.057 15.7613 89.8276 15.6013 89.5236 15.468C89.225 15.3293 88.8516 15.1746 88.4036 15.004C88.057 14.8653 87.721 14.708 87.3956 14.532C87.0703 14.356 86.801 14.1346 86.5876 13.868C86.3796 13.596 86.2756 13.252 86.2756 12.836C86.2756 12.4146 86.3876 12.0413 86.6116 11.716C86.8356 11.3853 87.145 11.1266 87.5396 10.94C87.9343 10.748 88.3823 10.652 88.8836 10.652C89.3423 10.652 89.7716 10.7506 90.1716 10.948C90.577 11.1453 90.9396 11.4253 91.2596 11.788L90.7236 12.468C90.233 11.8226 89.6223 11.5 88.8916 11.5C88.4436 11.5 88.0783 11.6173 87.7956 11.852C87.5183 12.0866 87.3796 12.3933 87.3796 12.772C87.3796 13.044 87.4676 13.2706 87.6436 13.452C87.8196 13.6333 88.049 13.788 88.3316 13.916C88.6196 14.044 88.929 14.172 89.2596 14.3C89.7396 14.4813 90.1556 14.6626 90.5076 14.844C90.865 15.0253 91.1423 15.2573 91.3396 15.54C91.537 15.8173 91.6356 16.196 91.6356 16.676C91.6356 17.2253 91.5076 17.7 91.2516 18.1C90.9956 18.5 90.6383 18.8093 90.1796 19.028C89.7263 19.2413 89.2036 19.348 88.6116 19.348Z"/>
<path d="M98.9975 19.348C97.7548 19.348 96.8668 19.068 96.3335 18.508C95.8002 17.948 95.5335 17.012 95.5335 15.7V10.9H96.7015V15.492C96.7015 16.5266 96.8775 17.2653 97.2295 17.708C97.5815 18.1453 98.1708 18.364 98.9975 18.364C99.8295 18.364 100.419 18.1453 100.766 17.708C101.118 17.2653 101.294 16.5266 101.294 15.492V10.9H102.462V15.7C102.462 17.012 102.195 17.948 101.661 18.508C101.133 19.068 100.245 19.348 98.9975 19.348Z"/>
<path d="M110.54 19.348C109.772 19.348 109.078 19.1613 108.46 18.788C107.846 18.4093 107.358 17.892 106.996 17.236C106.638 16.58 106.46 15.8306 106.46 14.988C106.46 14.156 106.636 13.4146 106.988 12.764C107.345 12.108 107.83 11.5906 108.444 11.212C109.062 10.8333 109.761 10.644 110.54 10.644C111.281 10.644 111.953 10.8173 112.556 11.164C113.158 11.5106 113.617 11.9906 113.932 12.604V10.9H115.1V19.092H113.932V17.364C113.58 17.9826 113.108 18.468 112.516 18.82C111.924 19.172 111.265 19.348 110.54 19.348ZM110.828 18.332C111.441 18.332 111.982 18.1906 112.452 17.908C112.926 17.62 113.3 17.2253 113.572 16.724C113.844 16.2173 113.98 15.6413 113.98 14.996C113.98 14.3453 113.844 13.7693 113.572 13.268C113.305 12.7666 112.934 12.3746 112.46 12.092C111.985 11.804 111.441 11.66 110.828 11.66C110.214 11.66 109.67 11.804 109.196 12.092C108.721 12.3746 108.348 12.7666 108.076 13.268C107.804 13.7693 107.668 14.3453 107.668 14.996C107.668 15.6413 107.804 16.2173 108.076 16.724C108.348 17.2253 108.721 17.62 109.196 17.908C109.67 18.1906 110.214 18.332 110.828 18.332Z"/>
<path d="M119.824 19.092V10.9H120.992V12.02C121.216 11.636 121.562 11.3106 122.032 11.044C122.501 10.7773 123.074 10.644 123.752 10.644C124.386 10.644 124.933 10.7746 125.392 11.036C125.85 11.2973 126.202 11.6786 126.448 12.18C126.693 12.676 126.816 13.276 126.816 13.98V19.092H125.648V14.204C125.648 13.356 125.45 12.7106 125.056 12.268C124.661 11.82 124.104 11.596 123.384 11.596C122.882 11.596 122.453 11.6973 122.096 11.9C121.744 12.0973 121.472 12.3613 121.28 12.692C121.088 13.0173 120.992 13.372 120.992 13.756V19.092H119.824Z"/>
<path d="M132.145 17.916L132.033 6.33198H133.169L133.057 17.916H132.145ZM132.601 22.348C132.452 22.348 132.313 22.3106 132.185 22.236C132.062 22.1613 131.964 22.0626 131.889 21.94C131.814 21.812 131.777 21.6733 131.777 21.524C131.777 21.3746 131.814 21.2386 131.889 21.116C131.964 20.9933 132.062 20.8946 132.185 20.82C132.313 20.7453 132.452 20.708 132.601 20.708C132.75 20.708 132.886 20.7453 133.009 20.82C133.132 20.8946 133.23 20.9933 133.305 21.116C133.38 21.2386 133.417 21.3746 133.417 21.524C133.417 21.6733 133.38 21.812 133.305 21.94C133.23 22.0626 133.132 22.1613 133.009 22.236C132.886 22.3106 132.75 22.348 132.601 22.348Z"/>
</mask>
<path d="M36 19.092V5.89198H37.216V19.092H36Z" fill="#313B36"/>
<path d="M42.7876 8.80398L42.5076 8.57198C42.5983 8.45998 42.681 8.32931 42.7556 8.17998C42.8303 8.02531 42.8916 7.85998 42.9396 7.68398C42.993 7.50264 43.025 7.32398 43.0356 7.14798C42.8543 7.11598 42.7023 7.03331 42.5796 6.89998C42.457 6.76131 42.3956 6.59598 42.3956 6.40398C42.3956 6.17998 42.4676 5.99864 42.6116 5.85998C42.7556 5.72131 42.945 5.65198 43.1796 5.65198C43.4196 5.65198 43.6143 5.73198 43.7636 5.89198C43.9183 6.04664 43.9956 6.27064 43.9956 6.56398C43.9956 6.94264 43.8783 7.34531 43.6436 7.77198C43.4143 8.19331 43.129 8.53731 42.7876 8.80398Z" fill="#313B36"/>
<path d="M48.6905 19.092V10.9H49.8585V12.02C50.1838 11.5666 50.5732 11.2253 51.0265 10.996C51.4798 10.7613 51.9865 10.644 52.5465 10.644C53.2185 10.644 53.8025 10.7986 54.2985 11.108C54.7998 11.4173 55.1465 11.8386 55.3385 12.372C55.6532 11.8493 56.0532 11.4306 56.5385 11.116C57.0292 10.8013 57.6105 10.644 58.2825 10.644C58.8638 10.644 59.3812 10.764 59.8345 11.004C60.2878 11.2386 60.6425 11.5853 60.8985 12.044C61.1598 12.4973 61.2905 13.052 61.2905 13.708V19.092H60.1225V14.036C60.1225 13.2893 59.9278 12.6973 59.5385 12.26C59.1492 11.8226 58.6292 11.604 57.9785 11.604C57.5305 11.604 57.1252 11.7026 56.7625 11.9C56.3998 12.0973 56.1118 12.3533 55.8985 12.668C55.6852 12.9773 55.5785 13.2973 55.5785 13.628V19.092H54.4105V13.916C54.4105 13.2066 54.2158 12.644 53.8265 12.228C53.4425 11.812 52.9332 11.604 52.2985 11.604C51.8505 11.604 51.4398 11.7 51.0665 11.892C50.6985 12.0786 50.4052 12.3213 50.1865 12.62C49.9678 12.9186 49.8585 13.2253 49.8585 13.54V19.092H48.6905Z" fill="#313B36"/>
<path d="M71.6981 19.092V5.89198H72.9141V11.94H80.1221V5.89198H81.3301V19.092H80.1221V13.012H72.9141V19.092H71.6981Z" fill="#313B36"/>
<path d="M88.6116 19.348C87.9343 19.348 87.337 19.1853 86.8196 18.86C86.3023 18.5293 85.8996 18.0626 85.6116 17.46L86.2356 16.788C86.4916 17.3106 86.825 17.7186 87.2356 18.012C87.6463 18.3 88.1023 18.444 88.6036 18.444C88.9396 18.444 89.2463 18.3746 89.5236 18.236C89.8063 18.0973 90.0303 17.9 90.1956 17.644C90.3663 17.3826 90.4516 17.0733 90.4516 16.716C90.4516 16.3906 90.3716 16.1346 90.2116 15.948C90.057 15.7613 89.8276 15.6013 89.5236 15.468C89.225 15.3293 88.8516 15.1746 88.4036 15.004C88.057 14.8653 87.721 14.708 87.3956 14.532C87.0703 14.356 86.801 14.1346 86.5876 13.868C86.3796 13.596 86.2756 13.252 86.2756 12.836C86.2756 12.4146 86.3876 12.0413 86.6116 11.716C86.8356 11.3853 87.145 11.1266 87.5396 10.94C87.9343 10.748 88.3823 10.652 88.8836 10.652C89.3423 10.652 89.7716 10.7506 90.1716 10.948C90.577 11.1453 90.9396 11.4253 91.2596 11.788L90.7236 12.468C90.233 11.8226 89.6223 11.5 88.8916 11.5C88.4436 11.5 88.0783 11.6173 87.7956 11.852C87.5183 12.0866 87.3796 12.3933 87.3796 12.772C87.3796 13.044 87.4676 13.2706 87.6436 13.452C87.8196 13.6333 88.049 13.788 88.3316 13.916C88.6196 14.044 88.929 14.172 89.2596 14.3C89.7396 14.4813 90.1556 14.6626 90.5076 14.844C90.865 15.0253 91.1423 15.2573 91.3396 15.54C91.537 15.8173 91.6356 16.196 91.6356 16.676C91.6356 17.2253 91.5076 17.7 91.2516 18.1C90.9956 18.5 90.6383 18.8093 90.1796 19.028C89.7263 19.2413 89.2036 19.348 88.6116 19.348Z" fill="#313B36"/>
<path d="M98.9975 19.348C97.7548 19.348 96.8668 19.068 96.3335 18.508C95.8002 17.948 95.5335 17.012 95.5335 15.7V10.9H96.7015V15.492C96.7015 16.5266 96.8775 17.2653 97.2295 17.708C97.5815 18.1453 98.1708 18.364 98.9975 18.364C99.8295 18.364 100.419 18.1453 100.766 17.708C101.118 17.2653 101.294 16.5266 101.294 15.492V10.9H102.462V15.7C102.462 17.012 102.195 17.948 101.661 18.508C101.133 19.068 100.245 19.348 98.9975 19.348Z" fill="#313B36"/>
<path d="M110.54 19.348C109.772 19.348 109.078 19.1613 108.46 18.788C107.846 18.4093 107.358 17.892 106.996 17.236C106.638 16.58 106.46 15.8306 106.46 14.988C106.46 14.156 106.636 13.4146 106.988 12.764C107.345 12.108 107.83 11.5906 108.444 11.212C109.062 10.8333 109.761 10.644 110.54 10.644C111.281 10.644 111.953 10.8173 112.556 11.164C113.158 11.5106 113.617 11.9906 113.932 12.604V10.9H115.1V19.092H113.932V17.364C113.58 17.9826 113.108 18.468 112.516 18.82C111.924 19.172 111.265 19.348 110.54 19.348ZM110.828 18.332C111.441 18.332 111.982 18.1906 112.452 17.908C112.926 17.62 113.3 17.2253 113.572 16.724C113.844 16.2173 113.98 15.6413 113.98 14.996C113.98 14.3453 113.844 13.7693 113.572 13.268C113.305 12.7666 112.934 12.3746 112.46 12.092C111.985 11.804 111.441 11.66 110.828 11.66C110.214 11.66 109.67 11.804 109.196 12.092C108.721 12.3746 108.348 12.7666 108.076 13.268C107.804 13.7693 107.668 14.3453 107.668 14.996C107.668 15.6413 107.804 16.2173 108.076 16.724C108.348 17.2253 108.721 17.62 109.196 17.908C109.67 18.1906 110.214 18.332 110.828 18.332Z" fill="#313B36"/>
<path d="M119.824 19.092V10.9H120.992V12.02C121.216 11.636 121.562 11.3106 122.032 11.044C122.501 10.7773 123.074 10.644 123.752 10.644C124.386 10.644 124.933 10.7746 125.392 11.036C125.85 11.2973 126.202 11.6786 126.448 12.18C126.693 12.676 126.816 13.276 126.816 13.98V19.092H125.648V14.204C125.648 13.356 125.45 12.7106 125.056 12.268C124.661 11.82 124.104 11.596 123.384 11.596C122.882 11.596 122.453 11.6973 122.096 11.9C121.744 12.0973 121.472 12.3613 121.28 12.692C121.088 13.0173 120.992 13.372 120.992 13.756V19.092H119.824Z" fill="#313B36"/>
<path d="M132.145 17.916L132.033 6.33198H133.169L133.057 17.916H132.145ZM132.601 22.348C132.452 22.348 132.313 22.3106 132.185 22.236C132.062 22.1613 131.964 22.0626 131.889 21.94C131.814 21.812 131.777 21.6733 131.777 21.524C131.777 21.3746 131.814 21.2386 131.889 21.116C131.964 20.9933 132.062 20.8946 132.185 20.82C132.313 20.7453 132.452 20.708 132.601 20.708C132.75 20.708 132.886 20.7453 133.009 20.82C133.132 20.8946 133.23 20.9933 133.305 21.116C133.38 21.2386 133.417 21.3746 133.417 21.524C133.417 21.6733 133.38 21.812 133.305 21.94C133.23 22.0626 133.132 22.1613 133.009 22.236C132.886 22.3106 132.75 22.348 132.601 22.348Z" fill="#313B36"/>
<path d="M36 19.092V5.89198H37.216V19.092H36Z" stroke="#313B36" stroke-width="1.6" mask="url(#path-3-outside-1_1425_5329)"/>
<path d="M42.7876 8.80398L42.5076 8.57198C42.5983 8.45998 42.681 8.32931 42.7556 8.17998C42.8303 8.02531 42.8916 7.85998 42.9396 7.68398C42.993 7.50264 43.025 7.32398 43.0356 7.14798C42.8543 7.11598 42.7023 7.03331 42.5796 6.89998C42.457 6.76131 42.3956 6.59598 42.3956 6.40398C42.3956 6.17998 42.4676 5.99864 42.6116 5.85998C42.7556 5.72131 42.945 5.65198 43.1796 5.65198C43.4196 5.65198 43.6143 5.73198 43.7636 5.89198C43.9183 6.04664 43.9956 6.27064 43.9956 6.56398C43.9956 6.94264 43.8783 7.34531 43.6436 7.77198C43.4143 8.19331 43.129 8.53731 42.7876 8.80398Z" stroke="#313B36" stroke-width="1.6" mask="url(#path-3-outside-1_1425_5329)"/>
<path d="M48.6905 19.092V10.9H49.8585V12.02C50.1838 11.5666 50.5732 11.2253 51.0265 10.996C51.4798 10.7613 51.9865 10.644 52.5465 10.644C53.2185 10.644 53.8025 10.7986 54.2985 11.108C54.7998 11.4173 55.1465 11.8386 55.3385 12.372C55.6532 11.8493 56.0532 11.4306 56.5385 11.116C57.0292 10.8013 57.6105 10.644 58.2825 10.644C58.8638 10.644 59.3812 10.764 59.8345 11.004C60.2878 11.2386 60.6425 11.5853 60.8985 12.044C61.1598 12.4973 61.2905 13.052 61.2905 13.708V19.092H60.1225V14.036C60.1225 13.2893 59.9278 12.6973 59.5385 12.26C59.1492 11.8226 58.6292 11.604 57.9785 11.604C57.5305 11.604 57.1252 11.7026 56.7625 11.9C56.3998 12.0973 56.1118 12.3533 55.8985 12.668C55.6852 12.9773 55.5785 13.2973 55.5785 13.628V19.092H54.4105V13.916C54.4105 13.2066 54.2158 12.644 53.8265 12.228C53.4425 11.812 52.9332 11.604 52.2985 11.604C51.8505 11.604 51.4398 11.7 51.0665 11.892C50.6985 12.0786 50.4052 12.3213 50.1865 12.62C49.9678 12.9186 49.8585 13.2253 49.8585 13.54V19.092H48.6905Z" stroke="#313B36" stroke-width="1.6" mask="url(#path-3-outside-1_1425_5329)"/>
<path d="M71.6981 19.092V5.89198H72.9141V11.94H80.1221V5.89198H81.3301V19.092H80.1221V13.012H72.9141V19.092H71.6981Z" stroke="#313B36" stroke-width="1.6" mask="url(#path-3-outside-1_1425_5329)"/>
<path d="M88.6116 19.348C87.9343 19.348 87.337 19.1853 86.8196 18.86C86.3023 18.5293 85.8996 18.0626 85.6116 17.46L86.2356 16.788C86.4916 17.3106 86.825 17.7186 87.2356 18.012C87.6463 18.3 88.1023 18.444 88.6036 18.444C88.9396 18.444 89.2463 18.3746 89.5236 18.236C89.8063 18.0973 90.0303 17.9 90.1956 17.644C90.3663 17.3826 90.4516 17.0733 90.4516 16.716C90.4516 16.3906 90.3716 16.1346 90.2116 15.948C90.057 15.7613 89.8276 15.6013 89.5236 15.468C89.225 15.3293 88.8516 15.1746 88.4036 15.004C88.057 14.8653 87.721 14.708 87.3956 14.532C87.0703 14.356 86.801 14.1346 86.5876 13.868C86.3796 13.596 86.2756 13.252 86.2756 12.836C86.2756 12.4146 86.3876 12.0413 86.6116 11.716C86.8356 11.3853 87.145 11.1266 87.5396 10.94C87.9343 10.748 88.3823 10.652 88.8836 10.652C89.3423 10.652 89.7716 10.7506 90.1716 10.948C90.577 11.1453 90.9396 11.4253 91.2596 11.788L90.7236 12.468C90.233 11.8226 89.6223 11.5 88.8916 11.5C88.4436 11.5 88.0783 11.6173 87.7956 11.852C87.5183 12.0866 87.3796 12.3933 87.3796 12.772C87.3796 13.044 87.4676 13.2706 87.6436 13.452C87.8196 13.6333 88.049 13.788 88.3316 13.916C88.6196 14.044 88.929 14.172 89.2596 14.3C89.7396 14.4813 90.1556 14.6626 90.5076 14.844C90.865 15.0253 91.1423 15.2573 91.3396 15.54C91.537 15.8173 91.6356 16.196 91.6356 16.676C91.6356 17.2253 91.5076 17.7 91.2516 18.1C90.9956 18.5 90.6383 18.8093 90.1796 19.028C89.7263 19.2413 89.2036 19.348 88.6116 19.348Z" stroke="#313B36" stroke-width="1.6" mask="url(#path-3-outside-1_1425_5329)"/>
<path d="M98.9975 19.348C97.7548 19.348 96.8668 19.068 96.3335 18.508C95.8002 17.948 95.5335 17.012 95.5335 15.7V10.9H96.7015V15.492C96.7015 16.5266 96.8775 17.2653 97.2295 17.708C97.5815 18.1453 98.1708 18.364 98.9975 18.364C99.8295 18.364 100.419 18.1453 100.766 17.708C101.118 17.2653 101.294 16.5266 101.294 15.492V10.9H102.462V15.7C102.462 17.012 102.195 17.948 101.661 18.508C101.133 19.068 100.245 19.348 98.9975 19.348Z" stroke="#313B36" stroke-width="1.6" mask="url(#path-3-outside-1_1425_5329)"/>
<path d="M110.54 19.348C109.772 19.348 109.078 19.1613 108.46 18.788C107.846 18.4093 107.358 17.892 106.996 17.236C106.638 16.58 106.46 15.8306 106.46 14.988C106.46 14.156 106.636 13.4146 106.988 12.764C107.345 12.108 107.83 11.5906 108.444 11.212C109.062 10.8333 109.761 10.644 110.54 10.644C111.281 10.644 111.953 10.8173 112.556 11.164C113.158 11.5106 113.617 11.9906 113.932 12.604V10.9H115.1V19.092H113.932V17.364C113.58 17.9826 113.108 18.468 112.516 18.82C111.924 19.172 111.265 19.348 110.54 19.348ZM110.828 18.332C111.441 18.332 111.982 18.1906 112.452 17.908C112.926 17.62 113.3 17.2253 113.572 16.724C113.844 16.2173 113.98 15.6413 113.98 14.996C113.98 14.3453 113.844 13.7693 113.572 13.268C113.305 12.7666 112.934 12.3746 112.46 12.092C111.985 11.804 111.441 11.66 110.828 11.66C110.214 11.66 109.67 11.804 109.196 12.092C108.721 12.3746 108.348 12.7666 108.076 13.268C107.804 13.7693 107.668 14.3453 107.668 14.996C107.668 15.6413 107.804 16.2173 108.076 16.724C108.348 17.2253 108.721 17.62 109.196 17.908C109.67 18.1906 110.214 18.332 110.828 18.332Z" stroke="#313B36" stroke-width="1.6" mask="url(#path-3-outside-1_1425_5329)"/>
<path d="M119.824 19.092V10.9H120.992V12.02C121.216 11.636 121.562 11.3106 122.032 11.044C122.501 10.7773 123.074 10.644 123.752 10.644C124.386 10.644 124.933 10.7746 125.392 11.036C125.85 11.2973 126.202 11.6786 126.448 12.18C126.693 12.676 126.816 13.276 126.816 13.98V19.092H125.648V14.204C125.648 13.356 125.45 12.7106 125.056 12.268C124.661 11.82 124.104 11.596 123.384 11.596C122.882 11.596 122.453 11.6973 122.096 11.9C121.744 12.0973 121.472 12.3613 121.28 12.692C121.088 13.0173 120.992 13.372 120.992 13.756V19.092H119.824Z" stroke="#313B36" stroke-width="1.6" mask="url(#path-3-outside-1_1425_5329)"/>
<path d="M132.145 17.916L132.033 6.33198H133.169L133.057 17.916H132.145ZM132.601 22.348C132.452 22.348 132.313 22.3106 132.185 22.236C132.062 22.1613 131.964 22.0626 131.889 21.94C131.814 21.812 131.777 21.6733 131.777 21.524C131.777 21.3746 131.814 21.2386 131.889 21.116C131.964 20.9933 132.062 20.8946 132.185 20.82C132.313 20.7453 132.452 20.708 132.601 20.708C132.75 20.708 132.886 20.7453 133.009 20.82C133.132 20.8946 133.23 20.9933 133.305 21.116C133.38 21.2386 133.417 21.3746 133.417 21.524C133.417 21.6733 133.38 21.812 133.305 21.94C133.23 22.0626 133.132 22.1613 133.009 22.236C132.886 22.3106 132.75 22.348 132.601 22.348Z" stroke="#313B36" stroke-width="1.6" mask="url(#path-3-outside-1_1425_5329)"/>
</svg>
