<svg width="23" height="11" viewBox="0 0 23 11" fill="none" xmlns="http://www.w3.org/2000/svg">
<path fill-rule="evenodd" clip-rule="evenodd" d="M12.1085 5.16667H13.9285C13.9219 4.04328 13.5492 2.95266 12.8671 2.06005C12.185 1.16744 11.2305 0.521478 10.1483 0.220028C9.06611 -0.0814229 7.91514 -0.0219338 6.86978 0.389482C5.82441 0.800898 4.94163 1.54182 4.35516 2.5V0H2.53516L0.708496 1.83333H2.53516V10.3333H4.35516V7.86667C3.856 7.05437 3.59071 6.12007 3.5885 5.16667C3.59162 4.13386 3.9681 3.13702 4.6485 2.36L4.7085 2.30667C4.79898 2.20617 4.89467 2.11049 4.99516 2.02L5.05516 1.96C5.1685 1.86667 5.28183 1.77333 5.40183 1.68667C5.54183 1.59333 5.68183 1.50667 5.8285 1.42667L6.23516 1.24L6.39516 1.16667C6.49745 1.12692 6.60209 1.09352 6.7085 1.06667L6.86183 1.02667L7.19516 0.96H7.34183C7.50612 0.94985 7.67088 0.94985 7.83516 0.96C8.07881 0.962033 8.32188 0.984332 8.56183 1.02667H8.6485H8.7685C9.1177 1.10439 9.45586 1.22532 9.77516 1.38667C9.89209 1.44459 10.0056 1.50913 10.1152 1.58C10.217 1.6405 10.315 1.7073 10.4085 1.78L10.6818 2.01333C10.7685 2.09333 10.8552 2.18 10.9352 2.26667L11.1552 2.53333L11.2352 2.66L11.3752 2.86C11.4169 2.92894 11.4547 3.00016 11.4885 3.07333L11.5618 3.2C11.6018 3.28 11.6352 3.36667 11.6685 3.45333L11.7152 3.56C11.7621 3.67983 11.8022 3.80225 11.8352 3.92667C11.9098 4.18767 11.9568 4.45582 11.9752 4.72667C11.982 4.8399 11.982 4.95344 11.9752 5.06667M18.6418 6.58667H15.7352L18.7818 3.54667L18.6418 6.58667ZM20.4618 6.58667V0H20.1552L12.0885 8.20667H18.7552V10.34H20.5752V8.20667H22.7085V6.68667L20.4618 6.58667Z" fill="white"/>
<path fill-rule="evenodd" clip-rule="evenodd" d="M12.0885 8.20635L13.7352 6.55969C13.8608 6.10582 13.9258 5.6373 13.9285 5.16635H12.1085C12.0633 6.04307 11.6774 6.86746 11.0332 7.46378C10.3889 8.0601 9.53718 8.38118 8.65959 8.35857C7.782 8.33596 6.94795 7.97146 6.33524 7.34276C5.72253 6.71406 5.37962 5.8709 5.37962 4.99302C5.37962 4.11514 5.72253 3.27198 6.33524 2.64328C6.94795 2.01458 7.782 1.65008 8.65959 1.62747C9.53718 1.60486 10.3889 1.92594 11.0332 2.52226C11.6774 3.11858 12.0633 3.94297 12.1085 4.81969C12.0625 3.68987 11.5696 2.62458 10.7382 1.85818C9.90679 1.09178 8.80498 0.68705 7.67516 0.733021C6.54533 0.778992 5.48005 1.2719 4.71365 2.10331C3.94725 2.93472 3.54252 4.03653 3.58849 5.16635C3.59165 6.25424 3.93813 7.31337 4.57854 8.1928C5.21895 9.07222 6.12061 9.72706 7.15502 10.064C8.18942 10.4009 9.30378 10.4027 10.3393 10.0691C11.3748 9.73559 12.2786 9.08369 12.9218 8.20635H12.0885Z" fill="white"/>
</svg>
